<svg width="197" height="64" viewBox="0 0 197 64" fill="none" xmlns="http://www.w3.org/2000/svg">
<g clip-path="url(#clip0_6029_144)">
<path d="M31.9994 45.4421C39.9074 45.4421 46.3181 39.0314 46.3181 31.1234C46.3181 23.2154 39.9074 16.8047 31.9994 16.8047C24.0914 16.8047 17.6807 23.2154 17.6807 31.1234C17.6807 39.0314 24.0914 45.4421 31.9994 45.4421Z" fill="#C22B26"/>
<path fill-rule="evenodd" clip-rule="evenodd" d="M39.8805 21.4929L35.6464 21.0755L31.9999 23.4599C30.1462 24.7253 29.53 26.8052 30.1119 29.6736C29.3869 30.6949 28.2932 30.9785 27.294 31.4511L27.2217 28.1852L26.4414 28.0985L27.1928 25.4396C27.1928 25.4396 28.1177 21.0322 28.1755 20.9021C28.2333 20.772 29.2882 15.7577 29.2882 15.7577L30.1697 12.6652L29.3315 12.0727L30.4876 10.3965L32.3806 8.30113L34.5483 6.72599L33.9848 6.19132L31.5282 5.75781L29.3749 6.7838L27.5974 7.40519L27.3951 9.55835L26.8027 11.5092L25.4009 11.9138L24.7796 13.6334L22.91 22.2487L22.2778 23.9873L21.5327 24.4163L20.3134 22.6326L15.3912 19.1554L14.1493 20.2166L13.1784 17.3039L13.0204 13.759L11.914 14.7073L11.2817 16.2201L10.9431 17.1458L10.2657 18.5006L9.88184 19.4715L10.2431 20.2618L11.5753 20.7585L12.7945 21.91L12.1398 23.1519L14.2622 24.2357L17.2878 26.0872L19.0038 29.6999L18.6651 32.9589L20.4489 35.2318L22.8649 36.6543L25.5518 40.7411L21.2617 44.7601L21.6907 45.8214L20.1102 47.1986L18.8006 47.8759L19.478 49.6599L19.9747 51.4662L22.5939 52.4822L22.9777 51.3308L22.323 50.3598L22.2326 48.5308L22.91 47.3568L24.3777 48.1245L29.3225 43.27L32.5963 43.902L35.8254 43.27L35.148 47.5826L35.8028 48.1696L34.4479 51.6469L35.78 52.3468L38.7833 52.7758L41.0411 52.9562L40.9282 51.6469L38.9412 50.9693L37.9702 49.6371L38.2185 48.4179L39.4831 48.1017L40.8378 43.8119L42.3732 38.3927L41.4476 37.9865L40.7474 38.054L40.2508 37.3317L41.628 36.2028L43.3217 33.6964L44.428 31.1257L44.9021 28.0741L44.6313 25.8162L45.7602 24.1002L44.8796 21.3004L42.0796 20.6682L40.9507 21.4929H39.8805Z" fill="white"/>
<path d="M30.8769 58.3017C30.185 58.2669 29.1381 58.1687 28.9423 58.1204C28.8749 58.1037 28.6215 58.0597 28.3791 58.0225C27.7547 57.9268 27.3773 57.8575 27.1791 57.8023C27.0848 57.776 26.7873 57.7037 26.518 57.6416C26.2486 57.5794 26.0072 57.51 25.9816 57.4872C25.9561 57.4644 25.8992 57.4458 25.8552 57.4458C25.7466 57.4458 24.4865 57.046 24.1181 56.8946C24.0642 56.8725 23.8879 56.8035 23.7263 56.7415C23.5647 56.6795 23.363 56.597 23.278 56.5583C23.1932 56.5196 23.1111 56.488 23.0957 56.488C23.0036 56.488 21.0578 55.5085 20.5672 55.2153C18.3832 53.9096 16.6725 52.5086 15.1086 50.745C13.9497 49.4382 13.191 48.3924 12.3356 46.9228C11.8934 46.1629 11.1585 44.6469 10.8321 43.8212C9.04866 39.3098 8.68014 34.3379 9.77552 29.567C9.92031 28.9363 10.2472 27.7549 10.3872 27.3563C10.7997 26.1826 11.1115 25.4275 11.5833 24.4599C11.8104 23.994 11.9963 23.6049 11.9963 23.5952C11.9963 23.5856 11.9192 23.5308 11.8249 23.4736C11.5668 23.3168 11.5911 23.1693 11.9719 22.5789C12.1469 22.3074 12.2902 22.0584 12.2902 22.0253C12.2902 21.935 11.7558 21.4439 11.3763 21.1858C11.192 21.0604 10.8038 20.838 10.5135 20.6915C9.70895 20.2856 9.45119 19.9273 9.51342 19.3016C9.54433 18.9906 9.64935 18.7702 9.9968 18.2865C10.2864 17.8833 10.3633 17.6972 10.6989 16.5854C11.1652 15.0409 11.9893 13.6461 12.5298 13.4865C12.8512 13.3916 13.2394 13.5492 13.3489 13.8189C13.4071 13.9622 13.4147 14.1751 13.3899 14.9625C13.3502 16.2185 13.4337 17.1967 13.6596 18.123C13.7321 18.4203 14.1527 19.2826 14.2252 19.2826C14.2563 19.2826 14.35 19.1748 14.4334 19.0431C14.6082 18.767 14.9635 18.3751 15.039 18.3751C15.0672 18.3751 15.1884 18.4476 15.3083 18.5362L15.5263 18.6974L16.051 18.1662C17.6212 16.5766 19.6303 15.1415 21.8406 14.0305C22.2851 13.8071 22.6928 13.6056 22.7467 13.5826C22.8006 13.5597 22.9439 13.4973 23.065 13.4441C23.1863 13.3909 23.3957 13.3054 23.5304 13.2542C23.665 13.203 24.5831 12.8423 24.8017 12.0481C24.9033 11.679 25.018 11.3641 25.0643 11.327C25.1249 11.2785 25.3276 11.2644 25.8323 11.2735L26.518 11.2858L27.0994 9.49211L27.0131 8.87559C26.9613 8.50642 26.9407 8.1798 26.9615 8.06149C27.0268 7.69133 27.178 7.35602 27.3625 7.17254C27.6802 6.85657 27.9022 6.76057 29.1486 6.40009C29.9562 6.16651 30.5121 5.93958 31.0044 5.64255C31.4828 5.35381 31.7437 5.30921 32.0794 5.45866C32.2568 5.53753 32.3734 5.5527 32.648 5.53245C33.0228 5.5049 33.2723 5.56426 33.4506 5.72339C33.5301 5.79439 33.6333 5.82202 33.8189 5.82202C34.1326 5.82202 34.4498 5.95614 34.6481 6.17242C34.7818 6.31835 34.795 6.36377 34.795 6.67711C34.795 6.95028 34.7747 7.04465 34.6971 7.13393C34.6432 7.19582 34.2134 7.50876 33.742 7.8294C33.2706 8.15004 32.7155 8.54413 32.5083 8.70523C32.0289 9.07801 31.3488 9.76717 30.9567 10.2775C30.6464 10.6815 30.0933 11.5174 30.1249 11.5346C30.1344 11.5397 30.1973 11.578 30.2646 11.6196C30.3644 11.6813 30.7097 11.7014 32.1258 11.7286C34.0519 11.7655 35.0059 11.8519 36.4603 12.1214C36.8689 12.1972 37.5733 12.3711 38.4193 12.6052C38.554 12.6424 38.7633 12.7001 38.8846 12.7334C39.0058 12.7667 39.127 12.8107 39.1539 12.8312C39.1809 12.8516 39.2794 12.8852 39.3727 12.9058C39.4661 12.9263 39.5763 12.961 39.6176 12.9828C39.6589 13.0046 39.891 13.0955 40.1335 13.1847C40.3759 13.2739 40.6668 13.3892 40.7797 13.4411C40.8927 13.4929 40.9959 13.5353 41.009 13.5353C41.0857 13.5353 42.7696 14.3711 43.1456 14.5959C43.2668 14.6683 43.5533 14.8367 43.7822 14.97C44.7976 15.5611 46.1708 16.5847 47.2596 17.5617C47.7911 18.0386 48.8348 19.1186 49.3612 19.7363C50.1461 20.6574 51.2947 22.3149 51.7891 23.24C51.8928 23.4341 52.0321 23.695 52.0988 23.8198C52.3574 24.3038 52.8144 25.2885 53.0114 25.7859C53.0828 25.9661 53.1606 26.159 53.1845 26.2145C53.3571 26.6169 53.7272 27.724 53.9175 28.4075C53.9755 28.6154 54.0549 28.8959 54.0941 29.0308C54.1333 29.1656 54.1654 29.3191 54.1654 29.3718C54.1654 29.4244 54.1863 29.5069 54.2121 29.5551C54.2377 29.6032 54.283 29.7787 54.3127 29.9451C54.3423 30.1114 54.3989 30.4177 54.4386 30.6256C54.7006 32.0007 54.878 34.0692 54.8367 35.2668C54.7993 36.3506 54.717 37.5438 54.6578 37.8601C54.6319 37.9987 54.5877 38.2823 54.5595 38.4902C54.471 39.1433 54.3103 39.9992 54.1713 40.5572C53.9995 41.2472 53.8216 41.8849 53.7772 41.9704C53.7551 42.013 53.7203 42.1256 53.7001 42.2209C53.6798 42.316 53.6457 42.4288 53.6243 42.4712C53.6029 42.5137 53.5371 42.696 53.478 42.8762C53.3772 43.1834 53.2878 43.4211 53.1838 43.6576C53.1595 43.7131 53.0973 43.8719 53.0456 44.0105C52.7168 44.8926 52.024 46.2794 51.3593 47.3859C50.0883 49.5016 48.2601 51.604 46.2801 53.2273C45.5408 53.8333 44.1736 54.7774 43.3551 55.2469C42.6446 55.6545 41.2057 56.3871 41.1155 56.3871C41.1004 56.3871 40.9738 56.4439 40.8343 56.5131C40.6946 56.5825 40.557 56.64 40.5284 56.6409C40.4998 56.6419 40.3882 56.6865 40.2804 56.74C40.1727 56.7936 40.0472 56.8382 40.0017 56.8391C39.9561 56.8401 39.9065 56.8616 39.8912 56.8869C39.876 56.9122 39.7757 56.9482 39.6682 56.9669C39.5607 56.9855 39.4619 57.019 39.4487 57.0412C39.4353 57.0633 39.3415 57.0974 39.2402 57.117C39.1389 57.1364 39.034 57.1697 39.007 57.1909C38.9801 57.2121 38.8699 57.2538 38.7621 57.2835C38.6544 57.3133 38.445 57.375 38.2969 57.4208C36.8036 57.8819 34.987 58.1886 33.0808 58.3017C32.2375 58.3516 31.8679 58.3517 30.8769 58.3017ZM40.4078 52.5474C40.4598 52.4608 40.4151 52.26 40.3094 52.1052C40.2481 52.0153 40.1408 51.9633 39.9101 51.9114C39.1107 51.7316 38.5755 51.483 38.0777 51.0603C37.6853 50.7271 37.4914 50.46 37.3815 50.1013C37.3029 49.8446 37.3029 49.8052 37.3822 49.4152C37.4284 49.1877 37.4785 48.954 37.4935 48.8959C37.5193 48.7959 37.4954 48.7881 37.0396 48.7485C36.7748 48.7256 36.4055 48.705 36.2187 48.7029L35.8792 48.699L35.8383 48.8754C35.7336 49.3262 35.5979 49.77 35.476 50.0602C35.2917 50.4988 35.0714 51.0956 35.0184 51.2995C34.942 51.5936 35.0333 51.8496 35.2697 52.0039C35.4203 52.1022 35.4778 52.1076 36.0769 52.0795C36.4489 52.0621 36.8739 52.0722 37.0809 52.1033C37.3918 52.15 37.5926 52.2149 38.3599 52.5158C38.607 52.6127 39.0466 52.6505 39.7121 52.6321C40.1868 52.6189 40.379 52.5955 40.4079 52.5474H40.4078ZM22.2976 51.8534C22.3931 51.755 22.277 51.547 22.0317 51.377C21.7046 51.1502 21.6536 51.0657 21.5691 50.6111C21.4778 50.1199 21.4787 49.5608 21.5717 48.9231C21.6562 48.3446 21.7859 48.0398 22.081 47.7267C22.1913 47.6098 22.2814 47.4998 22.2814 47.4823C22.2814 47.4647 22.2298 47.4024 22.1668 47.3437C22.0347 47.2209 21.5755 46.6506 21.5065 46.5239C21.4665 46.4502 21.4077 46.4856 21.0764 46.783C20.5458 47.2594 20.1969 47.4799 19.7235 47.6383C19.2947 47.7818 19.147 47.9009 19.147 48.103C19.147 48.2636 19.1962 48.354 19.5517 48.8453C19.9539 49.4011 20.102 49.7527 20.2011 50.3879C20.2951 50.99 20.4226 51.2785 20.7333 51.5923C21.014 51.876 21.267 51.9535 21.8139 51.9238C22.0551 51.9106 22.2728 51.879 22.2976 51.8534ZM46.9822 50.6165C49.7448 47.7812 51.6378 44.4394 52.638 40.6328C53.2848 38.1707 53.5093 35.5004 53.2842 32.9447C52.9641 29.311 51.6908 25.6489 49.7173 22.6855C49.5142 22.3805 49.2805 22.0402 49.1979 21.9293C48.7165 21.2821 48.2735 20.7267 47.9915 20.4168C47.8148 20.2228 47.6384 20.0244 47.5996 19.976C47.2783 19.5757 45.7672 18.2036 44.8843 17.5106C43.4697 16.4002 41.2805 15.1844 39.5458 14.5459C39.3033 14.4567 39.0712 14.3658 39.0299 14.344C38.9886 14.3222 38.8785 14.2875 38.785 14.2669C38.6916 14.2464 38.5932 14.2121 38.5663 14.1907C38.5393 14.1694 38.4181 14.1278 38.2969 14.0983C38.1756 14.0688 37.9442 14.0078 37.7826 13.9628C36.3339 13.5593 35.0537 13.343 33.4727 13.2348C32.65 13.1786 30.5076 13.1689 30.4299 13.2211C30.3611 13.2671 29.9429 14.5459 29.7581 15.2746C29.744 15.3301 29.6966 15.5002 29.6527 15.6527C29.5519 16.003 29.4457 16.4061 29.3607 16.7618C29.3242 16.9144 29.2575 17.1752 29.2125 17.3416C29.13 17.6468 29.1133 17.729 28.9672 18.5515C28.8198 19.3807 28.7436 19.857 28.6727 20.3916C28.516 21.5724 28.474 22.0021 28.381 22.3578C27.4647 25.8598 26.9343 27.7017 26.9343 27.7017H27.2432C27.6892 27.7017 27.7137 27.7345 27.6576 28.2562C27.6323 28.4919 27.5044 29.3189 27.4878 29.872C27.4582 30.8567 27.4596 30.8777 27.5561 30.8777C27.6104 30.8777 27.9112 30.7443 28.2246 30.5812C28.5381 30.4181 28.8333 30.2724 28.8807 30.2574C28.9281 30.2423 29.121 30.1721 29.3096 30.1013C29.4982 30.0303 29.6935 29.9719 29.7436 29.9713C29.8223 29.9704 29.8114 29.8464 29.8004 29.7812C29.7473 29.4651 29.4865 28.5877 29.4247 28.0751C29.3701 27.6217 29.3223 27.1491 29.4296 26.7053C29.5697 26.1267 29.8541 25.2358 30.2646 24.6037C30.6798 23.9645 31.4828 23.22 31.9205 22.8704C32.3424 22.5336 32.8814 22.0891 33.4236 21.7978C34.1497 21.408 35.24 20.622 36.2765 20.5311C37.4116 20.4316 40.1363 21.117 40.2342 21.2006C40.3279 21.2807 40.3908 21.2244 40.7478 20.7418C41.5139 19.7058 42.3053 19.2338 43.2861 19.2278C43.7749 19.2249 43.8916 19.2412 44.272 19.3657C44.9976 19.6032 45.7093 20.1929 46.1186 20.8958C46.7394 21.962 46.7812 23.0847 46.2425 24.2231C46.0594 24.6101 45.9448 24.7746 45.6459 25.0801C45.4425 25.2881 45.2154 25.5011 45.1414 25.5535C44.9896 25.6608 44.9774 25.7669 45.0825 26.0632C45.1219 26.1741 45.1875 26.5678 45.2283 26.9381C45.2949 27.5437 45.2947 27.6908 45.2256 28.4002C45.1834 28.8339 45.1374 29.2229 45.1235 29.2644C45.1096 29.3061 45.0672 29.5102 45.0292 29.7182C44.8839 30.514 44.821 30.9552 44.5896 31.5331C43.9896 33.0319 43.7037 34.176 41.5293 36.803C41.4317 36.9208 41.3958 36.9804 41.2325 37.1534C41.0694 37.3264 40.9004 37.52 40.8572 37.5835L40.7785 37.6991L40.9948 37.6635C41.821 37.633 41.8187 37.6691 42.2314 37.9551L42.468 38.1509L42.6775 38.0433C42.9368 37.91 43.3048 37.8549 43.5222 38.0338C43.8464 38.3005 44.4332 39.0739 44.6225 39.6435C44.8117 40.2131 44.7463 41.0647 44.6578 41.4513C44.4794 42.2312 44.2142 42.6718 43.7437 43.2349C42.8521 44.302 41.3781 44.4017 41.113 44.3702C40.7487 44.3267 40.7879 44.2573 40.5755 45.3213C40.5313 45.5431 40.474 45.8154 40.4484 45.9262C40.4227 46.0371 40.3457 46.4228 40.2773 46.7833C40.0352 48.0599 39.9175 48.5166 39.8164 48.5722C39.6503 48.6638 39.0632 48.7747 38.7444 48.7747C38.4237 48.7747 38.2969 48.8259 38.2969 48.9557C38.2969 48.9909 38.474 49.0518 38.7254 49.103C39.1596 49.1915 40.7135 49.4906 42.1718 49.9007C43.6911 50.3279 45.1133 50.867 45.3985 50.9786C45.8419 51.1523 46.2173 51.288 46.2637 51.2913C46.2952 51.2935 46.6185 50.9899 46.9822 50.6165ZM17.8376 50.8215C18.5476 50.4805 18.8708 50.3348 18.9794 50.3068C19.0451 50.2897 19.3702 49.9351 18.8766 49.2535C18.4643 48.6841 18.3657 48.4679 18.3644 48.1299C18.362 47.5552 18.6423 47.2768 19.6439 46.8589C20.0631 46.6839 20.4252 46.3893 20.7784 45.9356L21.0066 45.6426L20.8904 45.4064C20.6827 44.9838 20.6537 44.7977 20.7665 44.6099C20.8206 44.5199 20.8845 44.4389 20.9085 44.43C20.9326 44.4211 21.0695 44.3004 21.2129 44.1618C21.3563 44.0231 21.6498 43.7511 21.8653 43.5572C22.0807 43.3634 22.268 43.1921 22.2814 43.1766C22.2949 43.1611 22.7247 42.7639 23.2365 42.2941C23.7483 41.8241 24.3534 41.2553 24.5812 41.03L24.9953 40.6202L24.4465 40.0253C24.1446 39.6981 23.8977 39.4074 23.8977 39.3794C23.8977 39.3514 21.4063 36.2466 20.8469 35.9622C20.367 35.7181 20.2712 35.6605 19.9762 35.4382C18.8567 34.5943 18.3218 33.7313 18.2118 32.5918C18.1334 31.7799 18.2484 30.8741 18.5178 30.1814L18.622 29.9138L18.4139 29.3267C18.2993 29.0039 18.1554 28.6253 18.0938 28.4854C18.0323 28.3455 17.9123 28.0726 17.8271 27.8792C17.5984 27.3593 17.3937 27.0689 16.8892 26.5481C16.4321 26.0762 16.0955 25.8118 15.6451 25.571C15.2796 25.3755 13.2824 24.3743 13.258 24.3743C13.1977 24.3743 12.3055 26.3141 12.0638 26.9706C11.9719 27.2202 11.8764 27.4697 11.8516 27.5252C11.8268 27.5807 11.7588 27.7848 11.7005 27.9789C11.6422 28.173 11.5752 28.3772 11.5515 28.4326C11.5277 28.4881 11.4872 28.6242 11.4614 28.7352C11.3626 29.1602 11.3008 29.3941 11.2618 29.4914C11.2396 29.5468 11.1949 29.7283 11.1626 29.8947C11.1303 30.061 11.0719 30.3446 11.0328 30.5248C10.9291 31.0018 10.8317 31.6169 10.7373 32.3902C10.581 33.6691 10.6291 36.9272 10.8216 38.1121C11.0495 39.514 11.1679 40.0962 11.3758 40.8344C11.4148 40.9731 11.4944 41.2567 11.5527 41.4646C11.611 41.6726 11.6767 41.8775 11.6988 41.92C11.7209 41.9625 11.7549 42.0718 11.7743 42.1628C11.7937 42.2539 11.8405 42.3893 11.8782 42.4637C11.9159 42.5381 11.9469 42.6276 11.947 42.6626C11.9472 42.6977 11.9684 42.7657 11.9943 42.8139C12.0201 42.8621 12.1501 43.1737 12.2832 43.5064C12.7329 44.6308 13.4428 46.0052 14.1452 47.111C14.4092 47.5266 15.1905 48.62 15.406 48.8754C15.4645 48.9448 15.6269 49.1376 15.7669 49.304C15.9069 49.4703 16.3107 49.9202 16.6641 50.3038C17.3849 51.0858 17.334 51.0633 17.8376 50.8215ZM22.9672 49.2088C24.6129 48.8654 32.5558 48.3857 33.791 48.4889C34.3432 48.535 34.8225 48.5728 34.8562 48.5729C34.8899 48.5729 34.9175 48.5188 34.9175 48.4525C34.9175 48.3533 34.8786 48.3202 34.6971 48.2651C34.4528 48.1908 34.4488 48.1787 34.5284 47.7606C34.5567 47.6113 34.6118 47.3019 34.6508 47.0732C34.6897 46.8444 34.756 46.4588 34.7981 46.2161C34.9278 45.469 35.0197 44.8327 35.0492 44.4768C35.0812 44.0923 35.0651 44.0786 34.7348 44.21C34.2047 44.4207 33.0623 44.5288 32.1911 44.4507C31.4347 44.383 30.6317 44.2296 30.2892 44.0872C30.2353 44.0648 29.9997 43.9839 29.7657 43.9073L29.3401 43.7679L28.4906 44.595C28.0234 45.0499 27.4546 45.5923 27.2266 45.8002C26.9986 46.0082 26.656 46.3258 26.4653 46.506C26.2744 46.6862 25.9557 46.9812 25.757 47.1614C25.5583 47.3416 25.1372 47.7443 24.8212 48.0562C24.5053 48.3682 24.2128 48.6234 24.1715 48.6234C24.0626 48.6234 23.59 48.4006 23.2561 48.1918C22.9254 47.9851 22.847 47.9919 22.63 48.2463C22.4563 48.4498 22.3801 48.6996 22.3797 49.0655C22.3794 49.3142 22.3865 49.3296 22.4896 49.3082C22.5502 49.2957 22.7651 49.2509 22.9672 49.2088ZM38.9876 47.8199C39.2108 47.7619 39.2135 47.7587 39.2749 47.474C39.369 47.0379 39.4541 46.6335 39.569 46.0775C39.6262 45.8002 39.693 45.4939 39.7172 45.3969C39.8478 44.874 39.9699 44.2304 39.949 44.1749C39.9359 44.1399 39.8232 44.0727 39.6986 44.0255C39.4736 43.9402 39.0723 43.6812 38.5255 43.2683C38.2414 43.0537 38.2378 43.0527 37.8398 43.0595C37.4214 43.0667 36.997 43.1932 36.2788 43.5249L35.9611 43.6716L35.9284 43.9923C35.8878 44.3911 35.7767 45.2193 35.6793 45.8506C35.6386 46.114 35.5728 46.5451 35.5329 46.8085C35.4931 47.0719 35.4461 47.3694 35.4285 47.4696C35.3895 47.6919 35.382 47.689 36.3623 47.8184C37.1333 47.9201 38.598 47.9211 38.9876 47.8199ZM24.6681 47.0545C26.95 44.9348 27.4111 44.5011 27.9241 43.992C28.2417 43.6769 28.5012 43.4046 28.5008 43.3871C28.5003 43.3695 28.2961 43.2453 28.0467 43.111C27.4851 42.8085 26.6453 42.2207 26.0307 41.6999L25.5647 41.3052L24.9612 41.8512C24.3608 42.3943 22.47 44.1342 21.9196 44.6498L21.6314 44.9199L21.8046 45.3059C22.1192 46.0069 22.579 46.6041 23.1269 47.0235C23.4897 47.3012 23.9954 47.6145 24.0559 47.599C24.0755 47.594 24.351 47.349 24.6681 47.0545ZM33.9624 43.4563C34.2797 43.3757 34.9049 43.1559 35.2241 43.0126C35.3151 42.9718 35.3495 42.9272 35.329 42.8762C35.3124 42.8346 35.2365 42.6077 35.1604 42.372C34.8044 41.2697 34.3803 40.0962 34.1219 39.4985C33.8687 38.9127 33.4391 38.0365 33.4051 38.0365C33.3843 38.0365 33.2518 38.183 33.1106 38.3621L32.8539 38.6878L32.9802 38.9094C33.192 39.2816 33.4677 40.2082 33.3647 40.2019C33.3432 40.2005 33.1604 39.9933 32.9584 39.7411C32.5654 39.2505 32.0576 38.8219 31.6605 38.6454C31.5258 38.5855 31.3549 38.5092 31.2808 38.4758C31.2067 38.4424 31.1531 38.3923 31.1618 38.3644C31.1704 38.3365 31.3413 38.2135 31.5415 38.091C31.8202 37.9203 32.1406 37.6254 32.9107 36.8306C33.4636 36.26 34.0442 35.6407 34.2009 35.4545L34.4858 35.1159L34.3829 34.9673C34.2346 34.7529 33.8326 34.3923 33.4561 34.1359C33.0549 33.8628 32.3753 33.4748 32.1618 33.3972L32.0034 33.3395L30.7224 34.6419C28.7586 36.6384 28.4827 37.0655 28.4803 38.1121C28.4789 38.7067 28.5993 39.1218 28.9973 39.8942C29.3365 40.5527 30.1041 41.6881 30.5272 42.1571C30.6081 42.2468 30.6604 42.3344 30.6434 42.3519C30.5486 42.4494 29.3538 41.667 28.8967 41.208C28.2115 40.5199 27.7799 39.7144 27.5486 38.6919C27.4527 38.268 27.4539 37.9456 27.5529 37.5356C27.7474 36.7293 28.2599 35.9952 29.5127 34.7283L30.2167 34.0164L29.8669 33.8272C29.3522 33.5488 28.5422 32.9782 28.2034 32.6553L27.9069 32.3728L27.6532 32.4644C26.0861 33.0302 24.7905 34.3488 23.7275 36.4596L23.4934 36.9245L23.6051 37.2079C23.8871 37.923 24.8466 39.2623 25.7343 40.1797C27.4196 41.9214 29.6735 43.1782 31.783 43.5525C32.0954 43.608 33.6321 43.5401 33.9624 43.4563ZM36.45 42.5586C36.6022 42.4912 36.6025 42.4385 36.4533 41.7923C36.3426 41.3126 36.0027 40.0954 35.9113 39.8514C35.8957 39.8098 35.8342 39.6371 35.7746 39.4676C35.622 39.0338 35.5624 38.8941 35.2831 38.3182C34.9431 37.6168 34.4594 36.7275 34.4174 36.7265C34.3776 36.7256 33.9339 37.2035 33.8732 37.3127C33.8475 37.359 33.8764 37.4618 33.9534 37.5974C34.2236 38.0735 34.3416 38.3097 34.6051 38.9025C35.0508 39.9049 35.4191 40.8683 35.8063 42.0444C35.9159 42.3771 36.0149 42.6655 36.0264 42.6852C36.0467 42.72 36.1665 42.6843 36.45 42.5586ZM37.62 42.1131C37.62 42.1131 37.8107 42.0696 37.9426 42.0696C38.0746 42.0696 38.1957 42.0561 38.2117 42.0396C38.2277 42.0231 38.1984 41.938 38.1466 41.8505C38.022 41.6403 38.0227 41.3144 38.148 41.1758C38.2955 41.0129 38.428 41.0827 38.5887 41.4082C38.7229 41.6799 38.8926 41.876 39.1972 42.1116C39.3995 42.268 39.7626 42.2625 39.946 42.1002C40.0544 42.0041 40.0822 41.9366 40.0822 41.7695C40.0822 41.5705 40.0595 41.5374 39.6507 41.1424C39.2742 40.7785 39.2213 40.7066 39.2356 40.5782C39.2517 40.4325 39.2547 40.4312 39.5457 40.4416C39.7073 40.4473 40.0402 40.4665 40.2855 40.4841C40.6848 40.5129 40.7536 40.5046 40.9431 40.4051C41.1908 40.2751 41.635 39.8563 41.7781 39.6179C41.8332 39.5263 41.9297 39.3162 41.9925 39.151C42.0926 38.8883 42.0983 38.8381 42.0388 38.7506C41.9435 38.6106 41.5078 38.2886 41.4136 38.2886C41.3707 38.2886 41.2134 38.3566 41.064 38.4398C40.9146 38.523 40.7568 38.591 40.7133 38.591C40.6698 38.591 40.5367 38.4985 40.4176 38.3856C40.188 38.1677 39.8597 37.989 39.6857 37.9872C39.628 37.9865 39.4705 38.0881 39.3357 38.2129C38.9679 38.5532 38.8766 38.5081 38.9176 38.0062C38.9288 37.8704 38.9156 37.7252 38.8885 37.6836C38.8229 37.5832 38.4401 37.5933 38.1499 37.7029C38.0287 37.7487 37.7918 37.8005 37.6234 37.8178L37.3172 37.8494L37.3177 38.1572C37.3185 38.5531 37.4013 38.8608 37.6583 39.4219C37.8858 39.9187 37.8808 40.0166 37.6267 40.043C37.5045 40.0557 37.4145 39.9964 37.0718 39.6775C36.7014 39.3328 36.5335 39.2265 36.5335 39.3366C36.5335 39.3584 36.5972 39.5683 36.6751 39.8029C36.7529 40.0375 36.854 40.3656 36.8999 40.532C36.9458 40.6983 37.0115 40.9366 37.0461 41.0614C37.0806 41.1861 37.1488 41.4974 37.1976 41.7531C37.2848 42.2105 37.2884 42.2176 37.4119 42.1873C37.481 42.1704 37.5747 42.1369 37.62 42.1131ZM36.4784 36.802C36.4286 36.5556 36.378 36.459 36.2029 36.2762C35.711 35.7626 35.6949 35.4318 36.1353 34.8862C36.3456 34.6258 36.3644 34.5445 36.2212 34.5159C36.0948 34.4908 35.8181 34.733 35.6675 35.0008C35.491 35.3148 35.2298 35.7031 35.0569 35.9083C34.9802 35.9993 34.9175 36.0993 34.9175 36.1304C34.9175 36.1615 35.0824 36.4545 35.2841 36.7816C35.4858 37.1086 35.7614 37.6028 35.8967 37.8797C36.1373 38.3726 36.1465 38.3837 36.3259 38.3989L36.5092 38.4146L36.5242 37.7592C36.5331 37.369 36.5146 36.9817 36.4784 36.802ZM37.8648 37.0232C38.1651 36.9443 38.5636 36.6349 38.9741 36.1617C39.0808 36.0388 39.0834 36.0209 39.015 35.8865C38.9208 35.7013 38.5971 35.3141 38.5364 35.3141C38.5107 35.3141 38.4761 35.3538 38.4594 35.4023C38.393 35.5961 38.2341 35.7175 38.0467 35.7175C37.8878 35.7175 37.8378 35.6862 37.6813 35.4897C37.4375 35.1834 37.0662 35.008 36.8794 35.111C36.7876 35.1615 36.5337 35.4992 36.5337 35.5707C36.5337 35.5881 36.6544 35.6849 36.802 35.7857C37.1638 36.033 37.2684 36.25 37.2684 36.7534V37.1379L37.4765 37.1042C37.591 37.0857 37.7657 37.0492 37.8648 37.0232ZM41.2132 35.9065C42.2372 34.8478 42.8106 34.0034 43.2585 32.8943C43.9181 31.2612 44.2186 30.0399 44.4003 28.2544C44.4802 27.4701 44.4803 27.3882 44.4029 26.8729C44.2838 26.081 44.2263 26.0481 43.8934 26.5827C43.6093 27.039 43.3363 27.139 42.922 26.9386L42.6995 26.8309L42.5675 26.9581C42.4091 27.1105 42.1557 27.2479 42.033 27.2479C41.984 27.2479 41.7019 27.4994 41.406 27.8068C40.7729 28.4647 40.0394 29.1343 39.4547 29.5883C38.6888 30.1828 37.5424 30.8271 36.8031 31.0786C36.6145 31.1427 36.4136 31.2126 36.3566 31.2339C36.2777 31.2635 36.2459 31.3304 36.2227 31.5163C36.1549 32.0586 36.1372 32.0124 36.4112 32.009C37.1121 32.0004 37.9087 31.8005 38.5959 31.4605C39.6989 30.9151 40.0192 30.6571 42.1267 28.6169C42.2801 28.4684 42.4297 28.3551 42.4591 28.3652C42.519 28.3857 42.0975 29.2705 41.8044 29.7394C41.7018 29.9035 41.4456 30.2187 41.235 30.4399L40.8521 30.842L40.8202 31.2002C40.8026 31.3972 40.7552 31.6801 40.7149 31.8289C40.6186 32.1845 40.6442 32.2389 40.9079 32.2389C41.2733 32.2389 42.1934 32.6346 42.0852 32.7452C42.0623 32.7687 41.8783 32.8105 41.6762 32.8382C40.718 32.9696 40.3879 33.0756 40.1264 33.336C40.0495 33.4126 39.8016 33.7085 39.5756 33.9935C39.3495 34.2787 39.1224 34.5422 39.0708 34.5794C38.9822 34.6432 38.9942 34.6673 39.2902 35.0183C39.7008 35.5057 39.9693 35.8877 40.1861 36.2938C40.2887 36.486 40.3955 36.6249 40.4406 36.6249C40.4833 36.6249 40.831 36.3016 41.2132 35.9065ZM22.3953 34.9486C22.8462 34.0181 23.6266 33.0356 24.3998 32.4253C24.7779 32.1267 24.7668 32.2035 24.5553 31.3536C24.3984 30.7233 24.309 30.4571 24.1138 30.0387L23.9457 29.6786L23.6401 29.7748C23.2118 29.9095 22.1555 30.458 21.5568 30.8566C21.2794 31.0413 21.0436 31.1832 21.0327 31.172C20.9872 31.1251 21.5586 30.4117 22.0366 29.9186C23.0745 28.8477 24.1578 28.2236 25.4894 27.9293C25.7049 27.8817 25.9143 27.8257 25.9547 27.8048C25.9951 27.784 26.0678 27.6104 26.1162 27.4191C26.3156 26.6316 26.5101 25.9497 26.7433 25.2209C27.5134 22.8139 27.5148 22.808 27.8392 20.3916C27.9443 19.6086 28.0535 18.9267 28.1417 18.5011C28.182 18.307 28.2481 17.9894 28.2885 17.7953C28.3865 17.3254 28.6318 16.2905 28.7788 15.7284C28.9839 14.943 29.3485 13.6879 29.486 13.294C29.5371 13.1474 29.579 13.0173 29.579 13.0048C29.579 12.9408 28.4029 12.5222 27.9594 12.4282C27.4127 12.3124 26.5519 12.2087 26.1017 12.2041L25.6364 12.1994L25.4578 12.7539C25.3595 13.0589 25.2306 13.4787 25.1711 13.6866C25.1116 13.8946 25.0305 14.1668 24.9909 14.2915C24.7996 14.8939 24.3398 16.6929 24.147 17.5937C24.0876 17.871 24.0183 18.1886 23.9929 18.2995C23.9478 18.4967 23.8599 18.9536 23.7504 19.5598C23.6109 20.3324 23.4563 21.4665 23.4863 21.4974C23.4988 21.5103 23.7343 21.2928 24.0095 21.0141C24.5887 20.4275 25.474 19.7288 25.5452 19.8021C25.5761 19.8339 25.3633 20.1503 24.7716 20.952C22.9617 23.4043 22.7235 23.7386 22.0953 24.7094C21.4008 25.7825 21.0512 26.3942 20.5436 27.4244C19.5843 29.3709 19.191 30.4416 19.0759 31.4193C18.9539 32.4549 19.1132 33.1845 19.6048 33.8422C20.0768 34.4736 20.6848 34.8936 21.9386 35.4542C22.006 35.4843 22.0744 35.5105 22.0908 35.5124C22.1071 35.5142 22.2442 35.2606 22.3953 34.9486ZM38.5457 34.0075C38.8652 33.5393 39.905 32.0761 39.9712 31.6478C39.985 31.5588 39.7871 31.6503 39.7038 31.6844C39.2874 31.8542 37.8827 32.476 37.4725 32.667C37.3872 32.7068 37.2128 32.7091 37.2425 32.8308C37.2596 32.901 37.8375 34.261 38.0548 34.4571C38.2195 34.6058 38.4207 34.1908 38.5457 34.0075ZM34.7247 33.2179C34.8316 33.0751 35.0134 32.7682 35.1288 32.5357C35.6953 31.3936 35.6363 30.8 34.8723 29.9523C34.6732 29.7314 34.3459 29.5003 34.286 29.5383C34.264 29.5524 34.2337 29.7404 34.2185 29.9561C34.1993 30.2304 34.1435 30.4697 34.0333 30.7517C33.766 31.435 33.6661 31.4847 33.2727 31.1305C33.1244 30.9968 32.9467 30.873 32.878 30.8553C32.7436 30.8205 32.6155 30.8961 32.6155 31.0102C32.6155 31.1215 32.8375 31.5644 32.9975 31.7723C33.1838 32.0143 33.263 32.3167 33.2433 32.7101L33.2278 33.0196L33.4978 33.1712C33.6462 33.2546 33.8878 33.4074 34.0344 33.5108L34.301 33.6989L34.4157 33.588C34.4787 33.5271 34.6177 33.3605 34.7247 33.2179ZM31.0381 33.1822C31.1515 33.0633 31.4341 32.6832 31.5098 32.5792C31.6254 32.4207 31.6767 32.3902 31.8279 32.3902C31.9271 32.3902 32.195 32.5012 32.3095 32.52C32.5059 32.5523 32.5174 32.5475 32.514 32.4344C32.5121 32.3684 32.468 32.2464 32.4161 32.1632C32.3641 32.0801 32.294 31.9553 32.2603 31.886C32.0714 31.4981 32.0475 31.4827 31.6333 31.4827C31.4225 31.4827 31.2393 31.5005 31.2263 31.5222C31.1958 31.5729 31.328 32.021 31.3441 32.15C31.4065 32.6478 29.3299 32.3921 29.1749 32.3795C28.8591 32.3538 28.8052 32.4189 29.0409 32.5413C29.121 32.583 29.4896 32.7728 29.8602 32.9632C30.2308 33.1536 30.5671 33.3281 30.6075 33.3509C30.7481 33.4305 30.8333 33.3971 31.0381 33.1822ZM26.0902 31.2842C26.3398 31.1716 26.5657 31.0794 26.5922 31.0794C26.6202 31.0794 26.641 30.8842 26.6419 30.6131C26.6428 30.3566 26.6738 29.795 26.711 29.3653C26.748 28.9355 26.7737 28.5789 26.7679 28.5727C26.7419 28.545 25.7516 28.7478 25.4405 28.8447C25.0018 28.9813 24.9198 29.0232 24.9473 29.0971C24.9617 29.1357 25.0084 29.297 25.051 29.4554C25.0937 29.6138 25.1474 29.8001 25.1703 29.8694C25.2089 29.986 25.3266 30.5354 25.4653 31.2469C25.502 31.4352 25.5429 31.5312 25.5794 31.5147C25.6107 31.5006 25.8406 31.3968 26.0902 31.2842ZM31.5124 30.6038C31.917 30.5406 31.9637 30.5212 32.1001 30.3591C32.1816 30.2623 32.2964 30.1578 32.3552 30.1271C32.4989 30.0519 32.8916 30.06 33.1169 30.1427C33.2976 30.2091 33.301 30.2079 33.3741 30.0572C33.6584 29.4705 33.1306 27.4474 32.5013 26.7115L32.3133 26.4917H32.5158C32.6273 26.4917 32.7889 26.5289 32.8751 26.5742C33.0466 26.6646 33.4139 26.9468 33.4402 27.0087C33.4493 27.03 33.4977 27.07 33.5478 27.0976C33.6353 27.1458 33.6377 27.1146 33.6093 26.2637C33.5838 25.5005 33.5895 25.3836 33.6514 25.408C33.7509 25.4473 34.0597 26.0137 34.1614 26.3438C34.2079 26.4944 34.2632 26.6377 34.2844 26.6621C34.3456 26.7326 35.6912 25.3047 36.0685 24.7689C36.4018 24.2955 36.5746 24.12 36.52 24.3106C36.506 24.3595 36.4358 24.6037 36.3642 24.8533C36.0289 26.0203 35.3537 27.0838 34.5176 27.7618C34.3065 27.9329 34.139 28.0811 34.1338 28.0864C33.7146 28.5197 35.3209 29.5193 36.0353 29.0136C36.49 28.6916 37.4981 28.2953 37.6319 28.1917C37.7299 28.1158 37.8541 27.7635 37.8553 27.5576C37.8572 27.2794 38.4075 24.9951 38.6678 24.1866C38.9117 23.4287 39.2797 22.4503 39.4577 22.087C39.5238 21.9519 39.5597 21.8229 39.5374 21.8004C39.4614 21.7236 38.7119 21.5335 37.7581 21.3493C37.1347 21.2289 36.979 21.2261 36.549 21.327C35.1338 21.6593 33.0828 22.858 31.7707 24.12C31.071 24.793 30.526 25.6753 30.3421 26.4328C30.1781 27.1088 30.2744 28.1867 30.6088 29.4157C30.6559 29.5886 30.8865 30.4138 30.9365 30.5878C30.9663 30.6919 30.9514 30.6915 31.5124 30.6038ZM36.592 30.3925C37.7111 29.9791 38.7312 29.3429 39.7662 28.4129C40.3201 27.9151 40.9908 27.2366 40.989 27.1758C40.9881 27.1461 40.8927 27.0628 40.7769 26.9905L40.5663 26.859L40.3009 27.1081C39.6596 27.7099 38.9657 28.2467 38.1989 28.734C37.6897 29.0576 36.2121 29.8174 36.09 29.8184C36.048 29.8187 35.9737 29.8491 35.9248 29.8859C35.84 29.9497 35.8414 29.9616 35.9558 30.1505C36.0216 30.2593 36.0898 30.388 36.1072 30.4366C36.1481 30.5509 36.1681 30.5491 36.592 30.3925ZM19.3502 27.9285C19.7216 26.9518 20.2219 25.9665 20.7732 25.1265C20.9293 24.8885 21.057 24.6617 21.057 24.6223C21.0569 24.4653 20.7624 23.9252 20.4819 23.5677C20.0154 22.9733 19.5062 22.5703 17.933 21.5502C17.2812 21.1275 15.9907 20.2032 15.5274 19.8273C15.1765 19.5427 15.1615 19.536 15.0691 19.6221C14.954 19.7291 14.088 20.8987 13.6687 21.5133C13.5031 21.7559 13.2354 22.1481 13.0738 22.3849C12.9122 22.6216 12.78 22.8251 12.78 22.8371C12.78 22.8731 14.6547 24.0718 14.7111 24.0718C14.7199 24.0718 14.9006 24.17 15.1126 24.2901C15.3247 24.4102 15.7615 24.6512 16.0833 24.8257C16.9339 25.287 17.4255 25.6376 17.8185 26.0635C18.1872 26.463 18.4106 26.8644 18.8002 27.8277C18.9123 28.1049 19.0275 28.3885 19.056 28.4579C19.1077 28.5832 19.1083 28.5827 19.1811 28.3822C19.2214 28.2713 19.2975 28.0671 19.3502 27.9285ZM39.1349 27.0587C39.3399 26.8994 39.6525 26.6328 39.8295 26.4665L40.1513 26.1641L40.0793 25.8868C39.9834 25.5176 39.9832 25.2818 40.0784 25.0924C40.2456 24.7596 40.4916 24.857 40.5999 25.2991C40.6827 25.6368 40.8022 25.952 40.9052 26.1038C41.1233 26.4253 41.6266 26.6069 41.9338 26.4749C42.0213 26.4372 42.177 26.3008 42.2797 26.1718C42.5012 25.8936 42.6242 25.8742 42.9695 26.0632C43.0961 26.1325 43.2264 26.1892 43.2589 26.1892C43.342 26.1892 43.4131 26.0565 43.506 25.7277C43.5759 25.48 43.6108 25.4311 43.7796 25.3451L43.9732 25.2466L43.7431 25.0499C43.4068 24.7626 43.1946 24.5286 43.1946 24.4453C43.1946 24.4051 43.2516 24.3454 43.3214 24.3127C43.4291 24.2622 43.4805 24.2709 43.663 24.3705C43.7812 24.435 43.9901 24.5986 44.1272 24.734L44.3766 24.9801L44.6382 24.8015C45.0858 24.4957 45.0951 24.5435 44.4594 23.8797C44.149 23.5556 43.7894 23.1487 43.6601 22.9754C43.5308 22.8021 43.4017 22.6602 43.3731 22.6602C43.3445 22.6602 43.2431 22.7382 43.1477 22.8335C42.7087 23.2719 42.1288 23.4267 41.7233 23.2138C41.4784 23.0852 41.4661 22.9199 41.679 22.6219C41.9325 22.267 41.9374 21.8508 41.6889 21.7655C41.2683 21.6212 40.6453 22.2454 40.6486 22.8079C40.6495 22.974 40.6969 23.0471 40.8187 23.0709C40.9621 23.0989 40.9631 23.2312 40.8211 23.405C40.5037 23.7933 40.0853 23.6555 40.0524 23.1517C40.0456 23.0478 40.017 22.9632 39.9888 22.9639C39.9342 22.9651 39.57 23.9011 39.3321 24.6516C39.1914 25.0956 38.7756 26.7851 38.7149 27.1597C38.6981 27.2637 38.7018 27.3487 38.7233 27.3486C38.7447 27.3486 38.9299 27.2181 39.1349 27.0587ZM21.8141 23.6559C21.865 23.5658 22.4702 22.6956 22.5212 22.6383C22.5987 22.5513 22.6185 22.4266 22.6414 21.8788C22.6564 21.5183 22.7026 21.0079 22.7441 20.7445C22.7855 20.4811 22.8443 20.1068 22.8747 19.9127C23.0837 18.5791 23.4687 16.8106 23.9587 14.9325C23.9861 14.8276 23.995 14.7279 23.9786 14.711C23.8944 14.6243 22.1914 15.4395 21.0589 16.1087C20.1016 16.6743 18.7679 17.6247 18.1184 18.2039C18.0511 18.2639 17.8196 18.4686 17.6042 18.6588C17.3886 18.8489 17.0944 19.1237 16.9503 19.2692L16.6882 19.5338L16.9503 19.7498C17.0944 19.8686 17.2599 19.9993 17.3181 20.0401C17.3762 20.0809 17.6076 20.2496 17.8323 20.4148C18.0571 20.58 18.5495 20.9294 18.9265 21.1911C19.3036 21.4528 19.7775 21.7826 19.9795 21.9237C20.6453 22.3889 21.4592 23.2907 21.6112 23.7316C21.6557 23.8605 21.7099 23.8404 21.8141 23.6559ZM13.2289 20.7323C13.4533 20.4205 13.6641 20.1281 13.6971 20.0826C13.7474 20.0133 13.7274 19.9598 13.5747 19.7546C13.3638 19.4713 13.2493 19.2786 13.1442 19.0305C13.1031 18.9334 13.05 18.8086 13.0264 18.7532C12.7579 18.1244 12.6234 16.9664 12.6427 15.4524C12.6509 14.8139 12.6428 14.2915 12.625 14.2915C12.5122 14.2917 11.9326 15.3224 11.7319 15.8796C11.6819 16.0182 11.6124 16.1997 11.5774 16.2829C11.5232 16.4115 11.2925 17.1393 11.1059 17.7701C11.0045 18.1131 10.8609 18.387 10.5731 18.7864C10.0849 19.4642 10.1668 19.6558 11.1594 20.1575C11.8884 20.5259 12.2359 20.7566 12.533 21.0693C12.6531 21.1957 12.767 21.2991 12.786 21.2991C12.8051 21.2991 13.0043 21.044 13.2289 20.7323ZM29.1864 11.5306C29.4707 10.8549 30.3697 9.64346 31.1717 8.85534C31.7019 8.33425 32.223 7.95213 33.2348 7.34241C33.9837 6.89117 34.159 6.74581 34.077 6.64407C34.0169 6.56955 33.7888 6.57324 33.3417 6.65596C33.1711 6.68744 33.1552 6.67842 33.035 6.48248C32.8817 6.23268 32.7224 6.2107 32.4488 6.40181C32.3496 6.47108 32.225 6.52782 32.1721 6.52782C32.0793 6.52782 32.0486 6.50003 31.8391 6.22562L31.7431 6.09986L31.5304 6.21464C31.4134 6.27768 31.1634 6.41812 30.9749 6.52659C30.5544 6.76852 29.6292 7.08957 28.9496 7.22936C28.3873 7.34503 28.0119 7.52515 27.8523 7.75577C27.7234 7.94221 27.6887 8.3263 27.7676 8.69564C27.8539 9.10007 27.8807 9.59099 27.8249 9.74569C27.5889 10.3991 27.3157 11.3771 27.3572 11.4197C27.3839 11.4473 27.5807 11.5025 27.7945 11.5425C28.0083 11.5824 28.3374 11.6585 28.526 11.7113C29.0515 11.8589 29.0478 11.86 29.1864 11.5306Z" fill="#0F1B20"/>
<path d="M70.2386 14.9091H73.7415V23.8835C73.7372 24.7358 73.522 25.4858 73.0959 26.1335C72.674 26.777 72.0902 27.2798 71.3445 27.642C70.603 28 69.7486 28.179 68.7812 28.179C67.9418 28.179 67.1747 28.0341 66.4801 27.7443C65.7855 27.4503 65.2315 26.9901 64.8182 26.3636C64.4048 25.733 64.2003 24.9148 64.2045 23.9091H67.7585C67.7713 24.2372 67.8267 24.5142 67.9247 24.7401C68.027 24.9659 68.1676 25.1364 68.3466 25.2514C68.5298 25.3622 68.7514 25.4176 69.0114 25.4176C69.2756 25.4176 69.4972 25.3601 69.6761 25.245C69.8594 25.13 69.9979 24.9595 70.0916 24.7337C70.1854 24.5036 70.2344 24.2202 70.2386 23.8835V14.9091ZM83.1729 14.9091H86.7269V23.2955C86.7269 24.2926 86.4883 25.1555 86.011 25.8842C85.538 26.6087 84.8775 27.169 84.0295 27.5653C83.1815 27.9574 82.1971 28.1534 81.0763 28.1534C79.9471 28.1534 78.9585 27.9574 78.1104 27.5653C77.2624 27.169 76.6019 26.6087 76.1289 25.8842C75.6602 25.1555 75.4258 24.2926 75.4258 23.2955V14.9091H78.9798V22.9886C78.9798 23.3935 79.0692 23.7557 79.2482 24.0753C79.4272 24.3906 79.6744 24.6378 79.9897 24.8168C80.3093 24.9957 80.6715 25.0852 81.0763 25.0852C81.4854 25.0852 81.8477 24.9957 82.163 24.8168C82.4783 24.6378 82.7255 24.3906 82.9045 24.0753C83.0835 23.7557 83.1729 23.3935 83.1729 22.9886V14.9091ZM93.4529 28H88.416V14.9091H93.4018C94.7484 14.9091 95.9118 15.1712 96.8919 15.6953C97.8762 16.2152 98.6348 16.9652 99.1674 17.9453C99.7044 18.9212 99.9728 20.0909 99.9728 21.4545C99.9728 22.8182 99.7065 23.9901 99.1738 24.9702C98.6412 25.946 97.8869 26.696 96.911 27.2202C95.9352 27.7401 94.7825 28 93.4529 28ZM91.97 24.983H93.3251C93.9728 24.983 94.5247 24.8786 94.9806 24.6697C95.4409 24.4609 95.7903 24.1009 96.0289 23.5895C96.2718 23.0781 96.3933 22.3665 96.3933 21.4545C96.3933 20.5426 96.2697 19.831 96.0226 19.3196C95.7797 18.8082 95.4217 18.4482 94.9487 18.2393C94.4799 18.0305 93.9047 17.9261 93.2228 17.9261H91.97V24.983ZM114.299 21.4545C114.299 22.9119 114.016 24.1413 113.449 25.1428C112.882 26.1399 112.117 26.8963 111.154 27.4119C110.191 27.9233 109.117 28.179 107.933 28.179C106.739 28.179 105.661 27.9212 104.698 27.4055C103.739 26.8857 102.977 26.1271 102.41 25.13C101.847 24.1286 101.566 22.9034 101.566 21.4545C101.566 19.9972 101.847 18.7699 102.41 17.7727C102.977 16.7713 103.739 16.0149 104.698 15.5036C105.661 14.9879 106.739 14.7301 107.933 14.7301C109.117 14.7301 110.191 14.9879 111.154 15.5036C112.117 16.0149 112.882 16.7713 113.449 17.7727C114.016 18.7699 114.299 19.9972 114.299 21.4545ZM110.643 21.4545C110.643 20.6705 110.538 20.0099 110.33 19.473C110.125 18.9318 109.82 18.5227 109.415 18.2457C109.015 17.9645 108.521 17.8239 107.933 17.8239C107.344 17.8239 106.848 17.9645 106.443 18.2457C106.043 18.5227 105.738 18.9318 105.529 19.473C105.325 20.0099 105.222 20.6705 105.222 21.4545C105.222 22.2386 105.325 22.9013 105.529 23.4425C105.738 23.9794 106.043 24.3885 106.443 24.6697C106.848 24.9467 107.344 25.0852 107.933 25.0852C108.521 25.0852 109.015 24.9467 109.415 24.6697C109.82 24.3885 110.125 23.9794 110.33 23.4425C110.538 22.9013 110.643 22.2386 110.643 21.4545ZM131.751 19.8182H128.146C128.12 19.5199 128.052 19.2493 127.941 19.0064C127.835 18.7635 127.686 18.5547 127.494 18.38C127.306 18.201 127.078 18.0646 126.81 17.9709C126.541 17.8729 126.237 17.8239 125.896 17.8239C125.299 17.8239 124.794 17.9687 124.381 18.2585C123.972 18.5483 123.661 18.9638 123.448 19.505C123.239 20.0462 123.134 20.696 123.134 21.4545C123.134 22.2557 123.241 22.9268 123.454 23.468C123.671 24.005 123.985 24.4098 124.394 24.6825C124.803 24.951 125.295 25.0852 125.87 25.0852C126.198 25.0852 126.492 25.0447 126.752 24.9638C127.012 24.8786 127.238 24.7571 127.43 24.5994C127.622 24.4418 127.777 24.2521 127.896 24.0305C128.02 23.8047 128.103 23.5511 128.146 23.2699L131.751 23.2955C131.708 23.8494 131.553 24.4141 131.284 24.9893C131.016 25.5604 130.634 26.0888 130.14 26.5746C129.65 27.0561 129.043 27.4439 128.318 27.7379C127.594 28.032 126.752 28.179 125.794 28.179C124.592 28.179 123.514 27.9212 122.559 27.4055C121.609 26.8899 120.857 26.1314 120.303 25.13C119.753 24.1286 119.478 22.9034 119.478 21.4545C119.478 19.9972 119.759 18.7699 120.322 17.7727C120.884 16.7713 121.643 16.0149 122.597 15.5036C123.552 14.9879 124.617 14.7301 125.794 14.7301C126.62 14.7301 127.381 14.843 128.075 15.0689C128.77 15.2947 129.379 15.625 129.904 16.0597C130.428 16.4901 130.85 17.0206 131.169 17.6513C131.489 18.282 131.683 19.0043 131.751 19.8182ZM133.363 28V14.9091H136.917V25.1364H142.21V28H133.363ZM151.394 14.9091H154.948V23.2955C154.948 24.2926 154.709 25.1555 154.232 25.8842C153.759 26.6087 153.098 27.169 152.25 27.5653C151.402 27.9574 150.418 28.1534 149.297 28.1534C148.168 28.1534 147.179 27.9574 146.331 27.5653C145.483 27.169 144.823 26.6087 144.35 25.8842C143.881 25.1555 143.646 24.2926 143.646 23.2955V14.9091H147.2V22.9886C147.2 23.3935 147.29 23.7557 147.469 24.0753C147.648 24.3906 147.895 24.6378 148.21 24.8168C148.53 24.9957 148.892 25.0852 149.297 25.0852C149.706 25.0852 150.068 24.9957 150.384 24.8168C150.699 24.6378 150.946 24.3906 151.125 24.0753C151.304 23.7557 151.394 23.3935 151.394 22.9886V14.9091ZM156.637 28V14.9091H162.313C163.31 14.9091 164.147 15.0433 164.825 15.3118C165.507 15.5803 166.02 15.9595 166.365 16.4496C166.715 16.9396 166.89 17.517 166.89 18.1818C166.89 18.6634 166.783 19.1023 166.57 19.4986C166.361 19.8949 166.067 20.2273 165.688 20.4957C165.309 20.7599 164.865 20.9432 164.358 21.0455V21.1733C164.921 21.1946 165.432 21.3374 165.892 21.6016C166.353 21.8615 166.719 22.2216 166.992 22.6818C167.265 23.1378 167.401 23.6747 167.401 24.2926C167.401 25.0085 167.213 25.6456 166.838 26.2038C166.468 26.7621 165.939 27.201 165.253 27.5206C164.567 27.8402 163.749 28 162.799 28H156.637ZM160.191 25.1619H161.853C162.449 25.1619 162.897 25.0511 163.195 24.8295C163.493 24.6037 163.642 24.2713 163.642 23.8324C163.642 23.5256 163.572 23.2656 163.431 23.0526C163.291 22.8395 163.091 22.6776 162.831 22.5668C162.575 22.456 162.266 22.4006 161.904 22.4006H160.191V25.1619ZM160.191 20.2017H161.648C161.959 20.2017 162.234 20.1527 162.473 20.0547C162.711 19.9567 162.897 19.8161 163.029 19.6328C163.165 19.4453 163.233 19.2173 163.233 18.9489C163.233 18.544 163.088 18.2351 162.799 18.022C162.509 17.8047 162.142 17.696 161.699 17.696H160.191V20.2017ZM71.9006 41C71.8665 40.5739 71.7067 40.2415 71.4212 40.0028C71.1399 39.7642 70.7116 39.6449 70.1364 39.6449C69.7699 39.6449 69.4695 39.6896 69.2351 39.7791C69.005 39.8643 68.8345 39.9815 68.7237 40.1307C68.6129 40.2798 68.5554 40.4503 68.5511 40.642C68.5426 40.7997 68.5703 40.9425 68.6342 41.0703C68.7024 41.1939 68.8089 41.3068 68.9538 41.4091C69.0987 41.5071 69.2841 41.5966 69.5099 41.6776C69.7358 41.7585 70.0043 41.831 70.3153 41.8949L71.3892 42.125C72.1136 42.2784 72.7337 42.4808 73.2493 42.7322C73.7649 42.9837 74.1868 43.2798 74.5149 43.6207C74.843 43.9574 75.0838 44.3366 75.2372 44.7585C75.3949 45.1804 75.4759 45.6406 75.4801 46.1392C75.4759 47 75.2607 47.7287 74.8345 48.3253C74.4084 48.9219 73.799 49.3757 73.0064 49.6868C72.218 49.9979 71.2699 50.1534 70.1619 50.1534C69.0241 50.1534 68.0313 49.9851 67.1832 49.6484C66.3395 49.3118 65.6832 48.794 65.2145 48.0952C64.75 47.392 64.5156 46.4929 64.5114 45.3977H67.8864C67.9077 45.7983 68.0078 46.1349 68.1868 46.4077C68.3658 46.6804 68.6172 46.8871 68.9411 47.0277C69.2692 47.1683 69.6591 47.2386 70.1108 47.2386C70.4901 47.2386 70.8075 47.1918 71.0632 47.098C71.3189 47.0043 71.5128 46.8743 71.6449 46.7081C71.777 46.5419 71.8452 46.3523 71.8494 46.1392C71.8452 45.9389 71.7791 45.7642 71.6513 45.6151C71.5277 45.4616 71.3232 45.3253 71.0376 45.206C70.7521 45.0824 70.3665 44.9673 69.8807 44.8608L68.5767 44.5795C67.4176 44.3281 66.5036 43.9084 65.8345 43.3203C65.1697 42.728 64.8395 41.9205 64.8438 40.8977C64.8395 40.0668 65.0611 39.3402 65.5085 38.718C65.9602 38.0916 66.5845 37.6037 67.3814 37.2543C68.1825 36.9048 69.1009 36.7301 70.1364 36.7301C71.1932 36.7301 72.1072 36.907 72.8786 37.2607C73.6499 37.6143 74.2443 38.1129 74.6619 38.7564C75.0838 39.3956 75.2969 40.1435 75.3011 41H71.9006ZM80.386 36.9091V50H76.832V36.9091H80.386ZM93.397 36.9091V50H90.4311L85.701 43.1222H85.6243V50H82.0703V36.9091H85.0874L89.7408 43.7614H89.843V36.9091H93.397ZM95.1293 50V48.0312L101.317 39.7727H95.1548V36.9091H105.842V38.8778L99.6548 47.1364H105.817V50H95.1293ZM107.576 50V36.9091H111.13V42.0227H115.835V36.9091H119.389V50H115.835V44.8864H111.13V50H107.576ZM121.076 50V36.9091H130.511V39.7727H124.63V42.0227H130.025V44.8864H124.63V47.1364H130.485V50H121.076ZM135.827 36.9091V50H132.273V36.9091H135.827ZM137.512 36.9091H141.935L144.978 44.3239H145.131L148.174 36.9091H152.597V50H149.12V42.4318H149.017L146.103 49.8977H144.006L141.091 42.3807H140.989V50H137.512V36.9091ZM162.623 50.179C161.575 50.179 160.671 49.9787 159.913 49.5781C159.158 49.1733 158.577 48.5937 158.168 47.8395C157.763 47.081 157.56 46.1733 157.56 45.1165C157.56 44.1023 157.765 43.2159 158.174 42.4574C158.583 41.6989 159.161 41.1087 159.906 40.6868C160.652 40.2649 161.532 40.054 162.546 40.054C163.288 40.054 163.959 40.169 164.56 40.3991C165.161 40.6293 165.674 40.9638 166.1 41.4027C166.526 41.8374 166.854 42.3658 167.085 42.9879C167.315 43.6101 167.43 44.3111 167.43 45.0909V45.9091H158.66V43.9659H164.183C164.178 43.6847 164.106 43.4375 163.965 43.2244C163.829 43.0071 163.643 42.8388 163.409 42.7195C163.179 42.5959 162.917 42.5341 162.623 42.5341C162.337 42.5341 162.075 42.5959 161.837 42.7195C161.598 42.8388 161.406 43.005 161.261 43.218C161.121 43.4311 161.046 43.6804 161.038 43.9659V46.0625C161.038 46.3778 161.104 46.6591 161.236 46.9062C161.368 47.1534 161.558 47.3473 161.805 47.4879C162.052 47.6286 162.35 47.6989 162.7 47.6989C162.942 47.6989 163.164 47.6648 163.364 47.5966C163.569 47.5284 163.744 47.4304 163.888 47.3026C164.033 47.1705 164.14 47.0128 164.208 46.8295H167.43C167.319 47.5114 167.057 48.1037 166.643 48.6065C166.23 49.1051 165.683 49.4929 165.001 49.7699C164.323 50.0426 163.531 50.179 162.623 50.179ZM170.787 50.2045C170.293 50.2045 169.869 50.032 169.515 49.6868C169.166 49.3374 168.993 48.9134 168.997 48.4148C168.993 47.929 169.166 47.5135 169.515 47.1683C169.869 46.8232 170.293 46.6506 170.787 46.6506C171.256 46.6506 171.669 46.8232 172.027 47.1683C172.389 47.5135 172.573 47.929 172.577 48.4148C172.573 48.7472 172.485 49.0497 172.315 49.3224C172.149 49.5909 171.931 49.8061 171.663 49.968C171.394 50.1257 171.102 50.2045 170.787 50.2045ZM178.023 36.9091L180.708 46.1392H180.81L183.494 36.9091H187.509L183.188 50H178.33L174.009 36.9091H178.023ZM188.998 50.2045C188.504 50.2045 188.08 50.032 187.726 49.6868C187.377 49.3374 187.204 48.9134 187.208 48.4148C187.204 47.929 187.377 47.5135 187.726 47.1683C188.08 46.8232 188.504 46.6506 188.998 46.6506C189.467 46.6506 189.88 46.8232 190.238 47.1683C190.6 47.5135 190.784 47.929 190.788 48.4148C190.784 48.7472 190.696 49.0497 190.526 49.3224C190.36 49.5909 190.142 49.8061 189.874 49.968C189.605 50.1257 189.313 50.2045 188.998 50.2045Z" fill="#0F1B20"/>
</g>
<defs>
<clipPath id="clip0_6029_144">
<rect width="197" height="64" fill="white"/>
</clipPath>
</defs>
</svg>
