<svg width="809" height="128" viewBox="0 0 809 128" fill="none" xmlns="http://www.w3.org/2000/svg">
<g clip-path="url(#clip0_6028_114)">
<path d="M63.9998 90.8882C79.8158 90.8882 92.6372 78.0667 92.6372 62.2507C92.6372 46.4347 79.8158 33.6133 63.9998 33.6133C48.1837 33.6133 35.3623 46.4347 35.3623 62.2507C35.3623 78.0667 48.1837 90.8882 63.9998 90.8882Z" fill="#C22B26"/>
<path fill-rule="evenodd" clip-rule="evenodd" d="M79.7609 42.9858L71.2928 42.151L63.9998 46.9197C60.2925 49.4506 59.0601 53.6103 60.2238 59.3472C58.7738 61.3898 56.5863 61.9569 54.588 62.9021L54.4434 56.3704L52.8828 56.197L54.3857 50.8792C54.3857 50.8792 56.2353 42.0643 56.3509 41.8042C56.4665 41.5441 58.5763 31.5153 58.5763 31.5153L60.3393 25.3304L58.663 24.1455L60.9752 20.793L64.7612 16.6023L69.0966 13.452L67.9695 12.3826L63.0563 11.5156L58.7497 13.5676L55.1949 14.8104L54.7903 19.1167L53.6053 23.0183L50.8019 23.8276L49.5591 27.2669L45.82 44.4974L44.5556 47.9746L43.0654 48.8327L40.6268 45.2651L30.7823 38.3108L28.2986 40.4332L26.3568 34.6078L26.0407 27.5179L23.8279 29.4146L22.5635 32.4402L21.8861 34.2917L20.5314 37.0011L19.7637 38.9429L20.4862 40.5235L23.1506 41.517L25.5891 43.8201L24.2795 46.3038L28.5244 48.4714L34.5756 52.1744L38.0076 59.3999L37.3302 65.9178L40.8978 70.4636L45.7297 73.3086L51.1035 81.4823L42.5235 89.5202L43.3814 91.6429L40.2204 94.3972L37.6012 95.7519L38.956 99.3199L39.9494 102.932L45.1878 104.964L45.9555 102.662L44.6459 100.72L44.4653 97.0615L45.82 94.7137L48.7553 96.2491L58.645 86.54L65.1926 87.804L71.6507 86.54L70.2961 95.1652L71.6057 96.3391L68.8958 103.294L71.56 104.694L77.5666 105.552L82.0821 105.912L81.8563 103.294L77.8824 101.939L75.9405 99.2743L76.4371 96.8357L78.9663 96.2034L81.6756 87.6239L84.7464 76.7854L82.8952 75.9729L81.4949 76.108L80.5017 74.6633L83.256 72.4055L86.6433 67.3928L88.856 62.2514L89.8042 56.1483L89.2626 51.6325L91.5203 48.2004L89.7592 42.6008L84.1592 41.3364L81.9014 42.9858H79.7609Z" fill="white"/>
<path d="M61.7528 116.599C60.3689 116.53 58.2752 116.334 57.8837 116.237C57.7489 116.204 57.2421 116.115 56.7572 116.041C55.5084 115.85 54.7537 115.711 54.3572 115.601C54.1686 115.548 53.5736 115.404 53.035 115.279C52.4962 115.155 52.0134 115.016 51.9623 114.97C51.9111 114.925 51.7973 114.888 51.7094 114.888C51.4922 114.888 48.972 114.088 48.2351 113.785C48.1274 113.741 47.7749 113.603 47.4515 113.479C47.1283 113.355 46.725 113.19 46.5551 113.113C46.3854 113.035 46.2213 112.972 46.1904 112.972C46.0063 112.972 42.1145 111.013 41.1335 110.427C36.7654 107.815 33.344 105.013 30.2162 101.486C27.8983 98.8724 26.381 96.7808 24.6703 93.8417C23.7859 92.3219 22.3161 89.29 21.6631 87.6385C18.0963 78.6156 17.3593 68.672 19.5501 59.13C19.8396 57.8686 20.4934 55.5058 20.7734 54.7088C21.5984 52.3613 22.2219 50.8511 23.1656 48.916C23.6199 47.9841 23.9916 47.2059 23.9916 47.1866C23.9916 47.1672 23.8373 47.0577 23.6488 46.9433C23.1326 46.6298 23.1811 46.3346 23.9428 45.1539C24.2928 44.611 24.5795 44.1128 24.5795 44.0468C24.5795 43.8661 23.5106 42.8839 22.7517 42.3677C22.3831 42.1169 21.6066 41.672 21.0259 41.3792C19.4169 40.5674 18.9014 39.8507 19.0259 38.5993C19.0877 37.9773 19.2977 37.5364 19.9926 36.5692C20.5718 35.7628 20.7256 35.3904 21.3968 33.1668C22.3293 30.0778 23.9775 27.2883 25.0586 26.969C25.7015 26.7793 26.4779 27.0944 26.6968 27.6339C26.8132 27.9205 26.8284 28.3463 26.7788 29.9211C26.6994 32.4331 26.8665 34.3895 27.3182 36.2421C27.4632 36.8368 28.3045 38.5612 28.4494 38.5612C28.5116 38.5612 28.699 38.3456 28.8658 38.0823C29.2155 37.53 29.926 36.7463 30.077 36.7463C30.1334 36.7463 30.3759 36.8912 30.6156 37.0685L31.0516 37.3908L32.101 36.3285C35.2415 33.1493 39.2597 30.279 43.6803 28.0571C44.5693 27.6103 45.3847 27.2073 45.4924 27.1613C45.6002 27.1154 45.8868 26.9907 46.1291 26.8842C46.3716 26.7778 46.7904 26.607 47.0598 26.5045C47.329 26.4022 49.1653 25.6807 49.6025 24.0924C49.8056 23.3542 50.035 22.7242 50.1276 22.6501C50.2488 22.5532 50.6543 22.525 51.6635 22.543L53.035 22.5676L54.1978 18.9803L54.0252 17.7473C53.9217 17.0089 53.8804 16.3557 53.922 16.1191C54.0525 15.3788 54.3551 14.7081 54.724 14.3412C55.3594 13.7092 55.8034 13.5172 58.2962 12.7963C59.9115 12.3291 61.0233 11.8753 62.0078 11.2812C62.9647 10.7037 63.4865 10.6145 64.1579 10.9134C64.5126 11.0712 64.7457 11.1015 65.295 11.061C66.0447 11.0059 66.5436 11.1246 66.9003 11.4429C67.0593 11.5849 67.2656 11.6401 67.6368 11.6401C68.2642 11.6401 68.8987 11.9084 69.2952 12.3409C69.5626 12.6328 69.589 12.7236 69.589 13.3503C69.589 13.8967 69.5485 14.0854 69.3932 14.2639C69.2853 14.3877 68.4258 15.0136 67.483 15.6549C66.5402 16.2962 65.43 17.0844 65.0156 17.4066C64.0567 18.1521 62.6966 19.5304 61.9124 20.5511C61.2919 21.359 60.1856 23.0308 60.2487 23.0653C60.2679 23.0756 60.3937 23.1522 60.5283 23.2353C60.7279 23.3586 61.4185 23.3989 64.2505 23.4532C68.1028 23.5272 70.0107 23.7 72.9195 24.2389C73.7369 24.3904 75.1457 24.7384 76.8377 25.2065C77.1069 25.281 77.5257 25.3964 77.7682 25.463C78.0106 25.5295 78.2531 25.6174 78.3069 25.6584C78.3608 25.6992 78.5577 25.7665 78.7445 25.8076C78.9313 25.8488 79.1516 25.9181 79.2343 25.9618C79.3169 26.0054 79.7811 26.187 80.266 26.3654C80.7508 26.5438 81.3326 26.7745 81.5585 26.8783C81.7845 26.982 81.9909 27.0667 82.017 27.0667C82.1704 27.0667 85.5382 28.7382 86.2901 29.1878C86.5326 29.3326 87.1055 29.6694 87.5635 29.936C89.5943 31.1184 92.3407 33.1655 94.5182 35.1195C95.5812 36.0733 97.6687 38.2333 98.7214 39.4686C100.291 41.3108 102.588 44.6259 103.577 46.4761C103.785 46.8644 104.063 47.3861 104.197 47.6357C104.714 48.6036 105.628 50.573 106.022 51.568C106.165 51.9284 106.32 52.314 106.368 52.425C106.713 53.2298 107.453 55.4442 107.834 56.811C107.95 57.2268 108.109 57.7879 108.187 58.0577C108.266 58.3274 108.33 58.6343 108.33 58.7396C108.33 58.8449 108.372 59.0098 108.423 59.1062C108.475 59.2025 108.565 59.5535 108.624 59.8862C108.684 60.2189 108.797 60.8315 108.876 61.2473C109.4 63.9974 109.755 68.1345 109.672 70.5297C109.598 72.6974 109.433 75.0836 109.315 75.7162C109.263 75.9935 109.174 76.5606 109.118 76.9765C108.941 78.2826 108.62 79.9945 108.342 81.1104C107.998 82.4905 107.642 83.7659 107.553 83.9369C107.509 84.022 107.44 84.2473 107.399 84.4378C107.359 84.6282 107.29 84.8536 107.248 84.9386C107.205 85.0235 107.073 85.388 106.955 85.7486C106.754 86.363 106.575 86.8383 106.367 87.3114C106.318 87.4222 106.194 87.7398 106.09 88.0171C105.433 89.7814 104.047 92.5549 102.718 94.7678C100.176 98.9993 96.5193 103.204 92.5591 106.451C91.0806 107.663 88.3461 109.551 86.7092 110.49C85.2883 111.305 82.4103 112.77 82.23 112.77C82.1998 112.77 81.9466 112.884 81.6675 113.022C81.3883 113.161 81.113 113.276 81.0558 113.278C80.9986 113.28 80.7754 113.369 80.5598 113.476C80.3443 113.583 80.0935 113.673 80.0025 113.674C79.9113 113.676 79.8119 113.719 79.7814 113.77C79.7511 113.82 79.5504 113.893 79.3354 113.93C79.1205 113.967 78.9229 114.034 78.8963 114.078C78.8696 114.123 78.682 114.191 78.4794 114.23C78.2769 114.269 78.067 114.335 78.013 114.378C77.9592 114.42 77.7389 114.504 77.5233 114.563C77.3078 114.623 76.889 114.746 76.5927 114.838C73.6062 115.76 69.973 116.373 66.1606 116.599C64.474 116.699 63.7349 116.7 61.7528 116.599ZM80.8146 105.091C80.9185 104.918 80.8292 104.516 80.6178 104.206C80.4952 104.027 80.2805 103.923 79.8193 103.819C78.2205 103.459 77.1501 102.962 76.1545 102.117C75.3695 101.45 74.9818 100.916 74.762 100.199C74.6048 99.6852 74.6048 99.6065 74.7635 98.8265C74.8558 98.3715 74.956 97.904 74.986 97.7879C75.0377 97.5879 74.9898 97.5723 74.0781 97.4931C73.5487 97.4472 72.81 97.4061 72.4365 97.4018L71.7575 97.3941L71.6757 97.7469C71.4663 98.6484 71.1949 99.536 70.9511 100.116C70.5825 100.994 70.1417 102.187 70.0358 102.595C69.883 103.183 70.0657 103.695 70.5384 104.004C70.8396 104.2 70.9547 104.211 72.1528 104.155C72.8969 104.12 73.7467 104.141 74.1608 104.203C74.7825 104.296 75.1843 104.426 76.7188 105.028C77.213 105.222 78.0922 105.297 79.4232 105.26C80.3727 105.234 80.757 105.187 80.8149 105.091H80.8146ZM44.5942 103.703C44.7852 103.506 44.5531 103.09 44.0625 102.75C43.4082 102.297 43.3062 102.128 43.1372 101.218C42.9545 100.236 42.9563 99.1177 43.1424 97.8422C43.3113 96.6853 43.5707 96.0758 44.161 95.4496C44.3816 95.2158 44.5619 94.9957 44.5619 94.9606C44.5619 94.9256 44.4586 94.8009 44.3325 94.6835C44.0684 94.4379 43.15 93.2973 43.0121 93.0438C42.9321 92.8964 42.8143 92.9673 42.1517 93.5622C41.0905 94.5148 40.3929 94.9559 39.446 95.2727C38.5884 95.5596 38.2929 95.7979 38.2929 96.202C38.2929 96.5233 38.3915 96.7041 39.1024 97.6866C39.9069 98.7983 40.203 99.5016 40.4012 100.772C40.5893 101.976 40.8443 102.553 41.4655 103.181C42.027 103.748 42.533 103.903 43.6268 103.844C44.1092 103.817 44.5445 103.754 44.5942 103.703ZM93.9635 101.229C99.4886 95.5585 103.275 88.875 105.275 81.2616C106.569 76.3375 107.018 70.9969 106.567 65.8855C105.927 58.6181 103.381 51.2938 99.4336 45.367C99.0273 44.7571 98.56 44.0764 98.3949 43.8546C97.4319 42.5602 96.546 41.4495 95.982 40.8297C95.6286 40.4416 95.2759 40.0448 95.1982 39.9481C94.5556 39.1474 91.5333 36.4032 89.7676 35.0172C86.9385 32.7964 82.56 30.3649 79.0906 29.088C78.6056 28.9094 78.1414 28.7277 78.0588 28.6841C77.9763 28.6405 77.7559 28.5711 77.569 28.53C77.3823 28.4888 77.1853 28.4203 77.1315 28.3775C77.0776 28.3349 76.8353 28.2517 76.5927 28.1927C76.3502 28.1337 75.8875 28.0117 75.5642 27.9217C72.6669 27.1146 70.1063 26.6821 66.9444 26.4658C65.2991 26.3533 61.0143 26.3338 60.8589 26.4382C60.7213 26.5304 59.8847 29.0878 59.5151 30.5453C59.4871 30.6563 59.3922 30.9966 59.3044 31.3015C59.1028 32.0022 58.8904 32.8082 58.7204 33.5197C58.6474 33.8248 58.5141 34.3466 58.4241 34.6793C58.259 35.2897 58.2257 35.454 57.9333 37.0991C57.6387 38.7575 57.4862 39.7101 57.3444 40.7794C57.031 43.1408 56.9471 44.0004 56.761 44.7117C54.9285 51.7157 53.8676 55.3994 53.8676 55.3994H54.4854C55.3774 55.3994 55.4264 55.465 55.3143 56.5085C55.2636 56.9799 55.0078 58.6339 54.9745 59.7401C54.9153 61.7096 54.9181 61.7515 55.1113 61.7515C55.2198 61.7515 55.8214 61.4846 56.4483 61.1585C57.0753 60.8323 57.6656 60.541 57.7604 60.511C57.8551 60.4808 58.2411 60.3403 58.6182 60.1986C58.9954 60.0568 59.3859 59.9399 59.4863 59.9387C59.6437 59.9369 59.6219 59.689 59.5999 59.5585C59.4937 58.9264 58.9721 57.1716 58.8484 56.1463C58.7392 55.2396 58.6437 54.2943 58.8583 53.4067C59.1383 52.2494 59.7072 50.4678 60.5283 49.2034C61.3586 47.9251 62.9645 46.4361 63.84 45.7369C64.6837 45.0632 65.7618 44.1743 66.8463 43.5918C68.2984 42.8121 70.479 41.2401 72.5521 41.0583C74.8222 40.8592 80.2717 42.2302 80.4675 42.3972C80.6547 42.5574 80.7806 42.445 81.4946 41.4797C83.0268 39.4076 84.6096 38.4637 86.5712 38.4517C87.5488 38.4459 87.7822 38.4786 88.5431 38.7275C89.9942 39.2025 91.4176 40.3819 92.2363 41.7876C93.4778 43.92 93.5615 46.1656 92.484 48.4423C92.1177 49.2164 91.8887 49.5453 91.2908 50.1564C90.884 50.5722 90.4298 50.9984 90.2818 51.1031C89.9783 51.3178 89.9538 51.5299 90.164 52.1225C90.2428 52.3444 90.3739 53.1317 90.4556 53.8724C90.5889 55.0835 90.5884 55.3776 90.4502 56.7964C90.3657 57.664 90.2737 58.4418 90.246 58.525C90.2182 58.6083 90.1334 59.0166 90.0575 59.4325C89.7668 61.0242 89.641 61.9065 89.1783 63.0623C87.9782 66.0598 87.4064 68.3481 83.0577 73.602C82.8624 73.8378 82.7906 73.9568 82.4641 74.3028C82.1378 74.6489 81.7999 75.0361 81.7135 75.1631L81.5561 75.3943L81.9886 75.3232C83.6411 75.2622 83.6365 75.3343 84.4617 75.9062L84.9351 76.298L85.354 76.0827C85.8727 75.8161 86.6086 75.7059 87.0434 76.0637C87.6917 76.597 88.8654 78.1439 89.244 79.2832C89.6225 80.4222 89.4916 82.1255 89.3147 82.8987C88.9577 84.4585 88.4275 85.3396 87.4864 86.4659C85.7033 88.6002 82.7553 88.7995 82.225 88.7364C81.4964 88.6495 81.5747 88.5108 81.1501 90.6386C81.0615 91.0823 80.9471 91.6268 80.8958 91.8485C80.8444 92.0704 80.6905 92.8417 80.5537 93.5626C80.0694 96.116 79.8341 97.0293 79.6319 97.1406C79.2995 97.3237 78.1253 97.5454 77.4878 97.5454C76.8464 97.5454 76.5927 97.6479 76.5927 97.9075C76.5927 97.978 76.9471 98.0996 77.4498 98.2021C78.3182 98.379 81.426 98.9774 84.3425 99.7975C87.3812 100.652 90.2257 101.73 90.796 101.953C91.6829 102.301 92.4337 102.572 92.5265 102.579C92.5895 102.583 93.236 101.976 93.9635 101.229ZM35.6742 101.639C37.0943 100.957 37.7407 100.666 37.9578 100.61C38.0893 100.576 38.7394 99.8662 37.7523 98.5032C36.9276 97.3642 36.7305 96.9319 36.7279 96.2558C36.7231 95.1066 37.2835 94.5497 39.2867 93.7138C40.1253 93.3639 40.8494 92.7748 41.5559 91.8674L42.0122 91.2814L41.7799 90.8088C41.3644 89.9637 41.3065 89.5915 41.5321 89.2159C41.6402 89.0358 41.7681 88.8738 41.8161 88.8561C41.8641 88.8382 42.138 88.5969 42.4248 88.3196C42.7115 88.0423 43.2987 87.4983 43.7296 87.1105C44.1604 86.7229 44.535 86.3804 44.5619 86.3492C44.5888 86.3182 45.4483 85.524 46.472 84.5843C47.4956 83.6444 48.7059 82.5066 49.1614 82.056L49.9896 81.2365L48.892 80.0466C48.2882 79.3922 47.7944 78.8109 47.7944 78.7549C47.7944 78.6989 42.8116 72.4893 41.6928 71.9205C40.7329 71.4324 40.5414 71.3171 39.9515 70.8724C37.7125 69.1847 36.6426 67.4586 36.4225 65.1796C36.2658 63.5558 36.4958 61.7443 37.0346 60.359L37.243 59.8236L36.8267 58.6496C36.5977 58.0039 36.3097 57.2467 36.1866 56.967C36.0636 56.6871 35.8236 56.1414 35.6532 55.7544C35.1957 54.7147 34.7865 54.1339 33.7774 53.0922C32.8633 52.1486 32.19 51.6198 31.2892 51.1381C30.5582 50.7472 26.5638 48.7448 26.5149 48.7448C26.3944 48.7448 24.61 52.6243 24.1266 53.9373C23.9428 54.4364 23.7519 54.9356 23.7022 55.0466C23.6526 55.1574 23.5166 55.5657 23.4 55.954C23.2835 56.3421 23.1493 56.7505 23.1019 56.8614C23.0544 56.9724 22.9734 57.2446 22.9219 57.4664C22.7242 58.3164 22.6007 58.7844 22.5227 58.9788C22.4782 59.0897 22.3889 59.4527 22.3242 59.7854C22.2596 60.1181 22.1427 60.6853 22.0645 61.0457C21.8573 61.9996 21.6625 63.2299 21.4736 64.7764C21.1611 67.3343 21.2571 73.8506 21.6423 76.2202C22.098 79.0241 22.3349 80.1884 22.7506 81.665C22.8286 81.9422 22.9878 82.5094 23.1044 82.9254C23.221 83.3412 23.3525 83.7511 23.3966 83.8361C23.4409 83.9212 23.5088 84.1397 23.5476 84.3217C23.5865 84.5039 23.6799 84.7748 23.7554 84.9235C23.8308 85.0722 23.8928 85.2513 23.8931 85.3213C23.8934 85.3915 23.9359 85.5276 23.9875 85.6238C24.0392 85.7202 24.2992 86.3435 24.5654 87.0088C25.4649 89.2577 26.8847 92.0064 28.2894 94.218C28.8174 95.0493 30.38 97.2362 30.8111 97.7469C30.928 97.8857 31.2528 98.2713 31.5329 98.604C31.8129 98.9367 32.6205 99.8366 33.3273 100.604C34.7688 102.168 34.6671 102.123 35.6742 101.639ZM45.9333 98.4136C49.2248 97.7269 65.1106 96.7674 67.5811 96.9738C68.6854 97.0662 69.6441 97.1417 69.7115 97.1419C69.7789 97.1419 69.834 97.0337 69.834 96.901C69.834 96.7026 69.7563 96.6366 69.3932 96.5262C68.9046 96.3776 68.8966 96.3536 69.0558 95.5173C69.1125 95.2187 69.2227 94.5999 69.3006 94.1424C69.3785 93.685 69.511 92.9137 69.5952 92.4283C69.8546 90.9341 70.0384 89.6615 70.0975 88.9497C70.1614 88.1807 70.1293 88.1533 69.4687 88.416C68.4084 88.8374 66.1237 89.0537 64.3812 88.8976C62.8685 88.7622 61.2624 88.4552 60.5773 88.1706C60.4696 88.1258 59.9985 87.9638 59.5304 87.8106L58.6792 87.5319L56.9802 89.1862C56.0457 90.0959 54.9081 91.1807 54.4523 91.5965C53.9963 92.0125 53.3111 92.6477 52.9295 93.0081C52.5478 93.3685 51.9105 93.9585 51.513 94.3189C51.1157 94.6793 50.2734 95.4847 49.6415 96.1086C49.0096 96.7325 48.4247 97.2429 48.342 97.2429C48.1241 97.2429 47.179 96.7973 46.5112 96.3798C45.8499 95.9663 45.693 95.9799 45.2589 96.4887C44.9117 96.8958 44.7592 97.3952 44.7584 98.127C44.7579 98.6245 44.772 98.6553 44.9782 98.6125C45.0994 98.5874 45.5292 98.4979 45.9333 98.4136ZM77.9742 95.6359C78.4207 95.5199 78.4261 95.5135 78.5489 94.9441C78.7371 94.0719 78.9073 93.2631 79.137 92.151C79.2515 91.5965 79.385 90.9839 79.4333 90.7899C79.6947 89.7442 79.9388 88.4568 79.897 88.3458C79.8708 88.276 79.6455 88.1415 79.3963 88.0471C78.9462 87.8766 78.1436 87.3584 77.05 86.5327C76.4817 86.1036 76.4747 86.1014 75.6786 86.1151C74.8417 86.1295 73.993 86.3825 72.5567 87.0459L71.9213 87.3392L71.8559 87.9807C71.7745 88.7782 71.5524 90.4346 71.3576 91.6973C71.2762 92.2242 71.1446 93.0863 71.0649 93.6131C70.9852 94.14 70.8912 94.7349 70.856 94.9354C70.7781 95.3799 70.763 95.3742 72.7236 95.6329C74.2657 95.8364 77.195 95.8382 77.9742 95.6359ZM49.3352 94.105C53.8991 89.8657 54.8212 88.9983 55.8472 87.9802C56.4824 87.3499 57.0013 86.8054 57.0005 86.7703C56.9997 86.7352 56.5913 86.4866 56.0925 86.218C54.9693 85.6131 53.2896 84.4375 52.0605 83.396L51.1285 82.6065L49.9214 83.6985C48.7206 84.7848 44.939 88.2645 43.8383 89.2957L43.2618 89.836L43.6083 90.6079C44.2374 92.0099 45.1571 93.2044 46.2529 94.0431C46.9785 94.5986 47.9898 95.2251 48.1108 95.1941C48.15 95.1841 48.7011 94.694 49.3352 94.105ZM67.9239 86.9087C68.5585 86.7475 69.8089 86.3079 70.4472 86.0213C70.6292 85.9398 70.6979 85.8504 70.6571 85.7486C70.6238 85.6653 70.472 85.2116 70.3198 84.7402C69.6079 82.5355 68.7597 80.1884 68.2428 78.9931C67.7363 77.8216 66.8771 76.0691 66.8093 76.0691C66.7676 76.0691 66.5026 76.3621 66.2203 76.7203L65.7069 77.3716L65.9594 77.8148C66.3831 78.5592 66.9344 80.4124 66.7284 80.3999C66.6855 80.3972 66.3198 79.9826 65.9158 79.4783C65.1297 78.4971 64.1143 77.6399 63.32 77.2869C63.0506 77.1672 62.7089 77.0145 62.5607 76.9478C62.4125 76.8809 62.3052 76.7807 62.3226 76.7249C62.3398 76.6692 62.6815 76.4231 63.0819 76.1781C63.6394 75.8367 64.2802 75.2469 65.8204 73.6573C66.9262 72.516 68.0874 71.2774 68.4007 70.9051L68.9705 70.2279L68.7649 69.9308C68.4683 69.502 67.6642 68.7807 66.9112 68.268C66.1088 67.7216 64.7497 66.9457 64.3227 66.7904L64.0057 66.6752L61.4437 69.28C57.5162 73.2729 56.9645 74.127 56.9595 76.2202C56.9567 77.4095 57.1976 78.2397 57.9935 79.7846C58.672 81.1016 60.2073 83.3724 61.0533 84.3103C61.2152 84.4896 61.3198 84.6649 61.2858 84.6998C61.0963 84.895 58.7066 83.3301 57.7925 82.4122C56.4221 81.036 55.5588 79.425 55.0962 77.3798C54.9044 76.5321 54.9068 75.8874 55.1047 75.0672C55.4938 73.4548 56.5188 71.9864 59.0244 69.4526L60.4324 68.0289L59.7329 67.6504C58.7035 67.0938 57.0835 65.9524 56.4058 65.3067L55.8129 64.7417L55.3054 64.9248C52.1712 66.0565 49.58 68.6936 47.454 72.9153L46.9859 73.8452L47.2092 74.4118C47.7732 75.8421 49.6923 78.5207 51.4676 80.3555C54.8383 83.8388 59.3459 86.3525 63.565 87.1012C64.1899 87.2122 67.2633 87.0762 67.9239 86.9087ZM72.899 85.1134C73.2035 84.9786 73.204 84.8732 72.9056 83.5808C72.6842 82.6214 72.0044 80.187 71.8216 79.6988C71.7904 79.6157 71.6675 79.2702 71.5483 78.9313C71.2431 78.0637 71.1238 77.7843 70.5653 76.6325C69.8853 75.2297 68.9179 73.4511 68.8338 73.4492C68.7543 73.4472 67.8669 74.4031 67.7454 74.6216C67.694 74.714 67.7519 74.9196 67.9059 75.1908C68.4462 76.143 68.6823 76.6156 69.2093 77.8011C70.1006 79.8059 70.8371 81.7327 71.6116 84.0848C71.8308 84.7503 72.0289 85.327 72.0518 85.3665C72.0925 85.4361 72.332 85.3647 72.899 85.1134ZM75.239 84.2222C75.239 84.2222 75.6204 84.1353 75.8842 84.1353C76.1482 84.1353 76.3904 84.1083 76.4224 84.0753C76.4545 84.0423 76.3958 83.8721 76.2922 83.6972C76.043 83.2766 76.0444 82.6248 76.295 82.3477C76.59 82.0219 76.8549 82.1615 77.1765 82.8124C77.4449 83.3558 77.7843 83.748 78.3934 84.2193C78.7981 84.5321 79.5242 84.5211 79.891 84.1965C80.1079 84.0043 80.1635 83.8693 80.1635 83.535C80.1635 83.1371 80.1181 83.071 79.3005 82.2808C78.5474 81.5531 78.4416 81.4093 78.4702 81.1526C78.5025 80.8612 78.5084 80.8586 79.0905 80.8792C79.4136 80.8907 80.0795 80.9291 80.5701 80.9643C81.3686 81.0219 81.5062 81.0053 81.8853 80.8063C82.3806 80.5462 83.269 79.7087 83.5553 79.2318C83.6653 79.0487 83.8583 78.6284 83.9841 78.298C84.1841 77.7727 84.1956 77.6723 84.0766 77.4972C83.886 77.2173 83.0145 76.5733 82.8263 76.5733C82.7404 76.5733 82.4257 76.7094 82.127 76.8756C81.8282 77.042 81.5126 77.1781 81.4255 77.1781C81.3386 77.1781 81.0725 76.9932 80.8343 76.7672C80.375 76.3316 79.7185 75.9741 79.3704 75.9705C79.2551 75.969 78.9399 76.1724 78.6704 76.4219C77.9348 77.1026 77.7523 77.0124 77.8343 76.0084C77.8566 75.7369 77.8302 75.4465 77.7759 75.3633C77.6448 75.1625 76.8792 75.1827 76.2987 75.4019C76.0564 75.4935 75.5825 75.597 75.2457 75.6318L74.6335 75.6949L74.6345 76.3106C74.6359 77.1022 74.8017 77.7178 75.3156 78.84C75.7706 79.8334 75.7606 80.0292 75.2525 80.0822C75.008 80.1074 74.828 79.9889 74.1426 79.351C73.4018 78.6617 73.0661 78.4491 73.0661 78.6693C73.0661 78.7129 73.1934 79.1326 73.3491 79.6019C73.5047 80.0712 73.7071 80.7274 73.7989 81.0601C73.8905 81.3928 74.0221 81.8693 74.0912 82.1188C74.1603 82.3684 74.2967 82.991 74.3943 83.5024C74.5687 84.417 74.5758 84.4313 74.8229 84.3706C74.9611 84.3368 75.1483 84.2699 75.239 84.2222ZM72.9558 73.6C72.8562 73.1073 72.7551 72.9142 72.4048 72.5485C71.421 71.5212 71.3887 70.8596 72.2696 69.7686C72.6901 69.2477 72.7279 69.0852 72.4414 69.0279C72.1886 68.9776 71.6352 69.4621 71.3341 69.9977C70.9811 70.6256 70.4585 71.4022 70.1129 71.8126C69.9594 71.9948 69.834 72.1947 69.834 72.257C69.834 72.3191 70.1639 72.9051 70.5672 73.5592C70.9706 74.2133 71.5219 75.2017 71.7924 75.7556C72.2737 76.7413 72.292 76.7635 72.6508 76.794L73.0174 76.8253L73.0474 75.5145C73.0653 74.734 73.0282 73.9594 72.9558 73.6ZM75.7286 74.0424C76.3292 73.8847 77.1261 73.2659 77.9473 72.3194C78.1606 72.0737 78.1659 72.0379 78.0291 71.769C77.8407 71.3986 77.1932 70.6243 77.0719 70.6243C77.0204 70.6243 76.9512 70.7037 76.9179 70.8008C76.7851 71.1882 76.4671 71.4311 76.0925 71.4311C75.7747 71.4311 75.6747 71.3686 75.3617 70.9756C74.874 70.3628 74.1314 70.0121 73.7577 70.218C73.5743 70.319 73.0664 70.9946 73.0664 71.1376C73.0664 71.1723 73.3078 71.3658 73.6029 71.5675C74.3265 72.062 74.5358 72.496 74.5358 73.5028V74.2718L74.9521 74.2044C75.181 74.1675 75.5304 74.0946 75.7286 74.0424ZM82.4254 71.809C84.4734 69.6917 85.6202 68.003 86.5161 65.7847C87.8352 62.5186 88.4363 60.0759 88.7997 56.5049C88.9594 54.9364 88.9597 54.7726 88.8048 53.7419C88.5667 52.1581 88.4516 52.0923 87.7859 53.1614C87.2175 54.0741 86.6715 54.2741 85.843 53.8734L85.398 53.6579L85.134 53.9122C84.8172 54.217 84.3104 54.4919 84.0649 54.4919C83.967 54.4919 83.4028 54.9949 82.8111 55.6098C81.5449 56.9255 80.0779 58.2646 78.9085 59.1727C77.3767 60.3617 75.0839 61.6504 73.6052 62.1533C73.2281 62.2815 72.8262 62.4213 72.7123 62.464C72.5544 62.523 72.4908 62.657 72.4443 63.0287C72.3087 64.1133 72.2735 64.0209 72.8215 64.0141C74.2232 63.9969 75.8165 63.597 77.1909 62.9172C79.3968 61.8263 80.0374 61.3103 84.2523 57.23C84.5593 56.9328 84.8584 56.7062 84.9172 56.7264C85.0371 56.7676 84.194 58.5371 83.6078 59.4748C83.4027 59.8031 82.8903 60.4336 82.469 60.876L81.7033 61.68L81.6393 62.3964C81.6043 62.7904 81.5095 63.3563 81.4288 63.6539C81.2363 64.3652 81.2875 64.4739 81.8148 64.4739C82.5456 64.4739 84.3858 65.2654 84.1694 65.4866C84.1236 65.5335 83.7557 65.6171 83.3515 65.6725C81.435 65.9353 80.7749 66.1474 80.2519 66.6681C80.0981 66.8213 79.6022 67.413 79.1501 67.9831C78.6979 68.5534 78.2437 69.0806 78.1406 69.1549C77.9635 69.2826 77.9875 69.3306 78.5794 70.0327C79.4007 71.0075 79.9375 71.7715 80.3712 72.5838C80.5765 72.9681 80.79 73.2459 80.8802 73.2459C80.9656 73.2459 81.661 72.5993 82.4254 71.809ZM44.7897 69.8934C45.6915 68.0323 47.2523 66.0673 48.7985 64.8466C49.5549 64.2494 49.5326 64.4031 49.1096 62.7034C48.7957 61.4426 48.617 60.9102 48.2266 60.0735L47.8905 59.3533L47.2792 59.5457C46.4226 59.8151 44.3101 60.912 43.1126 61.7092C42.5579 62.0787 42.0862 62.3625 42.0645 62.34C41.9735 62.2464 43.1162 60.8195 44.0721 59.8333C46.148 57.6915 48.3146 56.4432 50.9778 55.8548C51.4089 55.7595 51.8277 55.6475 51.9085 55.6057C51.9892 55.564 52.1346 55.2169 52.2314 54.8344C52.6303 53.2593 53.0192 51.8954 53.4855 50.4379C55.0259 45.6238 55.0287 45.612 55.6775 40.7794C55.8877 39.2133 56.1059 37.8494 56.2825 36.9983C56.363 36.6102 56.4952 35.975 56.576 35.5867C56.772 34.6468 57.2627 32.577 57.5565 31.4529C57.9668 29.8821 58.6961 27.3719 58.9709 26.584C59.0732 26.2908 59.157 26.0306 59.157 26.0057C59.157 25.8776 56.8048 25.0404 55.9179 24.8525C54.8244 24.621 53.1028 24.4134 52.2023 24.4042L51.2718 24.3949L50.9145 25.504C50.7181 26.1139 50.4602 26.9534 50.3411 27.3693C50.2223 27.7852 50.0601 28.3296 49.9809 28.5792C49.5982 29.7838 48.6787 33.382 48.293 35.1835C48.1743 35.738 48.0356 36.3732 47.9849 36.5951C47.8946 36.9894 47.7188 37.9032 47.4999 39.1158C47.2208 40.6608 46.9116 42.9292 46.9716 42.991C46.9967 43.0167 47.4676 42.5817 48.018 42.0242C49.1765 40.851 50.947 39.4537 51.0895 39.6003C51.1513 39.6639 50.7256 40.2967 49.5423 41.9001C45.9224 46.8047 45.446 47.4734 44.1895 49.4149C42.8006 51.5611 42.1014 52.7845 41.0861 54.8449C39.1677 58.738 38.381 60.8794 38.1508 62.8347C37.9068 64.906 38.2254 66.3651 39.2085 67.6805C40.1527 68.9433 41.3686 69.7833 43.8762 70.9046C44.011 70.9647 44.1479 71.017 44.1807 71.0208C44.2133 71.0246 44.4875 70.5173 44.7897 69.8934ZM77.0904 68.011C77.7294 67.0746 79.809 64.1483 79.9415 63.2917C79.969 63.1138 79.5732 63.2968 79.4066 63.3648C78.5738 63.7046 75.7644 64.9481 74.944 65.3301C74.7734 65.4097 74.4246 65.4143 74.484 65.6577C74.5182 65.7981 75.674 68.518 76.1085 68.9102C76.438 69.2077 76.8403 68.3776 77.0904 68.011ZM69.4483 66.4318C69.6621 66.1464 70.0258 65.5325 70.2565 65.0675C71.3895 62.7832 71.2717 61.5961 69.7436 59.9007C69.3454 59.4589 68.6908 58.9967 68.5711 59.0728C68.527 59.1008 68.4663 59.4768 68.436 59.9084C68.3976 60.4568 68.2861 60.9355 68.0656 61.4995C67.531 62.866 67.3312 62.9656 66.5445 62.2571C66.2478 61.9898 65.8925 61.742 65.7551 61.7066C65.4862 61.6371 65.2301 61.7883 65.2301 62.0165C65.2301 62.2392 65.6739 63.1249 65.994 63.5408C66.3665 64.0248 66.5249 64.6295 66.4856 65.4162L66.4546 66.0352L66.9945 66.3385C67.2915 66.5053 67.7745 66.8109 68.0679 67.0177L68.6011 67.3938L68.8303 67.1722C68.9564 67.0503 69.2345 66.7171 69.4483 66.4318ZM62.0752 66.3605C62.3019 66.1228 62.8671 65.3624 63.0187 65.1545C63.2498 64.8374 63.3525 64.7764 63.6548 64.7764C63.8532 64.7764 64.3889 64.9984 64.618 65.0361C65.0109 65.1007 65.0338 65.0911 65.0271 64.8648C65.0233 64.733 64.9349 64.489 64.8312 64.3226C64.7272 64.1563 64.587 63.9067 64.5196 63.768C64.1418 62.9923 64.094 62.9615 63.2656 62.9615C62.844 62.9615 62.4777 62.997 62.4516 63.0405C62.3907 63.142 62.655 64.0381 62.6873 64.296C62.8121 65.2916 58.6587 64.7804 58.3488 64.7551C57.7172 64.7038 57.6095 64.8338 58.0809 65.0788C58.2409 65.1621 58.9783 65.5417 59.7194 65.9224C60.4606 66.3033 61.1332 66.6522 61.214 66.698C61.4952 66.857 61.6656 66.7903 62.0752 66.3605ZM52.1794 62.5645C52.6787 62.3392 53.1304 62.1549 53.1834 62.1549C53.2394 62.1549 53.2811 61.7645 53.2829 61.2223C53.2847 60.7092 53.3467 59.5862 53.4209 58.7267C53.4951 57.8671 53.5464 57.1539 53.5349 57.1416C53.4828 57.086 51.5022 57.4916 50.8799 57.6855C50.0025 57.9586 49.8386 58.0426 49.8937 58.1903C49.9224 58.2675 50.0158 58.5901 50.1011 58.9069C50.1863 59.2236 50.2937 59.5963 50.3397 59.7349C50.4169 59.9681 50.6522 61.0668 50.9296 62.4899C51.0031 62.8665 51.0849 63.0585 51.1579 63.0256C51.2205 62.9972 51.6803 62.7896 52.1794 62.5645ZM63.0237 61.2037C63.8331 61.0773 63.9264 61.0384 64.1992 60.7143C64.3622 60.5206 64.5918 60.3117 64.7095 60.2502C64.9968 60.0999 65.7822 60.1161 66.2329 60.2816C66.5941 60.4144 66.601 60.4119 66.7473 60.1105C67.3158 58.9372 66.2603 54.891 65.0017 53.419L64.6257 52.9796H65.0307C65.2535 52.9796 65.5769 53.0539 65.7492 53.1445C66.0922 53.3252 66.8268 53.8898 66.8794 54.0134C66.8976 54.056 66.9944 54.136 67.0946 54.1913C67.2697 54.2877 67.2744 54.2252 67.2175 52.5236C67.1665 50.997 67.178 50.7632 67.3018 50.8121C67.5009 50.8908 68.1184 52.0235 68.3219 52.6836C68.4148 52.985 68.5255 53.2714 68.5678 53.3203C68.6901 53.4613 71.3813 50.6055 72.1359 49.534C72.8026 48.587 73.1483 48.2362 73.0391 48.6172C73.011 48.7151 72.8707 49.2036 72.7274 49.7027C72.0567 52.0368 70.7065 54.1638 69.0341 55.5196C68.6121 55.8618 68.2771 56.1583 68.2666 56.1689C67.4282 57.0355 70.6409 59.0348 72.0697 58.0232C72.9791 57.3793 74.9952 56.5867 75.2628 56.3795C75.4587 56.2278 75.7071 55.523 75.7096 55.1113C75.7134 54.5548 76.8141 49.9863 77.3345 48.3693C77.8223 46.8534 78.5584 44.8966 78.9144 44.1701C79.0467 43.8999 79.1183 43.6419 79.0737 43.5968C78.9219 43.4432 77.4227 43.0631 75.5153 42.6947C74.2685 42.454 73.957 42.4482 73.0969 42.6501C70.2665 43.3146 66.1647 45.7122 63.5404 48.2362C62.1411 49.582 61.051 51.3468 60.6833 52.8617C60.3552 54.2138 60.5478 56.3695 61.2166 58.8275C61.3108 59.1733 61.772 60.8236 61.872 61.1717C61.9315 61.3798 61.9019 61.379 63.0237 61.2037ZM73.183 60.7812C75.4212 59.9543 77.4614 58.6819 79.5314 56.8218C80.6393 55.8262 81.9806 54.4692 81.9771 54.3477C81.9752 54.2884 81.7845 54.1216 81.5528 53.977L81.1315 53.7142L80.6008 54.2123C79.3182 55.416 77.9304 56.4895 76.3968 57.4641C75.3784 58.1113 72.4232 59.6309 72.1791 59.6329C72.0951 59.6334 71.9464 59.6942 71.8487 59.7679C71.6791 59.8954 71.6819 59.9194 71.9106 60.2971C72.0423 60.5147 72.1786 60.7722 72.2135 60.8692C72.2953 61.098 72.3353 61.0944 73.183 60.7812ZM38.6994 55.8531C39.4422 53.8996 40.4429 51.929 41.5454 50.249C41.8576 49.7732 42.1131 49.3195 42.1131 49.2408C42.1129 48.9266 41.5238 47.8464 40.9628 47.1315C40.0298 45.9427 39.0114 45.1367 35.865 43.0964C34.5615 42.2512 31.9803 40.4026 31.0537 39.6508C30.352 39.0815 30.3221 39.068 30.1372 39.2402C29.9071 39.4544 28.1751 41.7935 27.3364 43.0228C27.0052 43.508 26.4699 44.2924 26.1467 44.7659C25.8233 45.2393 25.559 45.6463 25.559 45.6702C25.559 45.7424 29.3085 48.1397 29.4213 48.1397C29.4388 48.1397 29.8002 48.3362 30.2242 48.5764C30.6484 48.8164 31.522 49.2985 32.1656 49.6476C33.8668 50.5701 34.8501 51.2714 35.636 52.123C36.3734 52.922 36.8202 53.725 37.5993 55.6514C37.8237 56.206 38.054 56.7731 38.1111 56.9119C38.2144 57.1624 38.2157 57.1616 38.3613 56.7605C38.4418 56.5387 38.594 56.1304 38.6994 55.8531ZM78.2688 54.1136C78.6787 53.7948 79.304 53.2618 79.658 52.9291L80.3015 52.3242L80.1576 51.7697C79.9659 51.0313 79.9654 50.5597 80.1558 50.181C80.4903 49.5153 80.9822 49.7101 81.1988 50.5943C81.3644 51.2697 81.6034 51.9 81.8094 52.2037C82.2457 52.8468 83.2523 53.21 83.8665 52.9458C84.0416 52.8705 84.353 52.5977 84.5585 52.3396C85.0013 51.7833 85.2475 51.7446 85.9379 52.1225C86.1913 52.2611 86.4518 52.3745 86.5167 52.3745C86.683 52.3745 86.8252 52.1091 87.0109 51.4514C87.1508 50.9561 87.2207 50.8583 87.5583 50.6863L87.9454 50.4892L87.4851 50.0959C86.8127 49.5213 86.3882 49.0532 86.3882 48.8866C86.3882 48.8063 86.5023 48.6869 86.6418 48.6215C86.8573 48.5205 86.9599 48.5379 87.3249 48.7371C87.5614 48.8661 87.9792 49.1932 88.2535 49.4641L88.7523 49.9563L89.2753 49.5991C90.1706 48.9875 90.1891 49.083 88.9179 47.7556C88.2971 47.1072 87.5778 46.2935 87.3192 45.9468C87.0606 45.6002 86.8024 45.3165 86.7451 45.3165C86.6881 45.3165 86.4853 45.4725 86.2944 45.6632C85.4164 46.5399 84.2566 46.8495 83.4456 46.4236C82.9559 46.1665 82.9313 45.836 83.3571 45.2398C83.8641 44.5301 83.8737 43.6977 83.3769 43.5272C82.5356 43.2386 81.2896 44.4869 81.2962 45.6118C81.298 45.944 81.3927 46.0903 81.6364 46.1379C81.9232 46.1939 81.9251 46.4586 81.6412 46.806C81.0064 47.5827 80.1697 47.3071 80.1038 46.2995C80.0902 46.0916 80.0331 45.9226 79.9767 45.9239C79.8675 45.9263 79.139 47.7984 78.6632 49.2993C78.3818 50.1872 77.5503 53.5663 77.4288 54.3154C77.3952 54.5235 77.4026 54.6935 77.4455 54.6934C77.4883 54.6934 77.8589 54.4323 78.2688 54.1136ZM43.6273 47.3079C43.7291 47.1277 44.9394 45.3872 45.0414 45.2728C45.1965 45.0988 45.236 44.8494 45.2817 43.7538C45.3117 43.0328 45.4042 42.0119 45.4872 41.4851C45.57 40.9583 45.6876 40.2098 45.7484 39.8215C46.1665 37.1544 46.9365 33.6173 47.9164 29.8611C47.9711 29.6512 47.989 29.4518 47.9562 29.418C47.7878 29.2447 44.3819 30.8751 42.1168 32.2135C40.2022 33.3447 37.5347 35.2455 36.2358 36.4039C36.1012 36.5239 35.6383 36.9333 35.2074 37.3137C34.7763 37.694 34.1878 38.2434 33.8996 38.5345L33.3754 39.0638L33.8996 39.4957C34.1878 39.7333 34.5189 39.9946 34.6351 40.0763C34.7514 40.1579 35.2143 40.4952 35.6637 40.8256C36.1131 41.1562 37.0979 41.8548 37.852 42.3784C38.6063 42.9018 39.554 43.5613 39.958 43.8434C41.2896 44.774 42.9175 46.5774 43.2215 47.4593C43.3105 47.7172 43.4189 47.6769 43.6273 47.3079ZM26.4567 41.4607C26.9057 40.8371 27.3272 40.2524 27.3933 40.1614C27.4938 40.0227 27.4538 39.9156 27.1485 39.5053C26.7266 38.9387 26.4976 38.5533 26.2874 38.057C26.2052 37.8629 26.0991 37.6133 26.0517 37.5025C25.5149 36.2448 25.2458 33.929 25.2844 30.9008C25.3008 29.6238 25.2847 28.579 25.2489 28.5792C25.0235 28.5795 23.8642 30.6409 23.4628 31.7552C23.3628 32.0325 23.2238 32.3955 23.1538 32.562C23.0454 32.8191 22.584 34.2748 22.2108 35.5363C22.008 36.2222 21.7208 36.77 21.1453 37.5689C20.1689 38.9244 20.3327 39.3078 22.3179 40.3111C23.7759 41.048 24.4709 41.5094 25.065 42.1347C25.3052 42.3874 25.5329 42.5943 25.571 42.5943C25.6092 42.5943 26.0076 42.0841 26.4567 41.4607ZM58.3718 23.0572C58.9404 21.706 60.7385 19.283 62.3424 17.7068C63.4028 16.6646 64.445 15.9003 66.4687 14.6809C67.9664 13.7784 68.3169 13.4877 68.153 13.2842C68.0328 13.1352 67.5766 13.1426 66.6824 13.308C66.3413 13.371 66.3093 13.3529 66.0689 12.9611C65.7625 12.4614 65.4437 12.4175 64.8966 12.7997C64.6982 12.9383 64.4491 13.0517 64.3432 13.0517C64.1576 13.0517 64.0962 12.9961 63.6773 12.4473L63.4851 12.1958L63.0598 12.4254C62.8258 12.5515 62.3259 12.8323 61.9488 13.0493C61.1078 13.5331 59.2574 14.1752 57.8982 14.4548C56.7736 14.6862 56.0228 15.0464 55.7037 15.5076C55.4458 15.8805 55.3764 16.6487 55.5342 17.3874C55.7068 18.1962 55.7604 19.1781 55.6488 19.4875C55.1769 20.7943 54.6304 22.7503 54.7133 22.8355C54.7668 22.8906 55.1605 23.0011 55.5879 23.081C56.0156 23.1608 56.6739 23.313 57.051 23.4188C58.1021 23.7139 58.0945 23.716 58.3718 23.0572Z" fill="#0F1B20"/>
<path d="M144.636 46.0909H153.977V70.0227C153.966 72.2955 153.392 74.2955 152.256 76.0227C151.131 77.7386 149.574 79.0795 147.585 80.0455C145.608 81 143.33 81.4773 140.75 81.4773C138.511 81.4773 136.466 81.0909 134.614 80.3182C132.761 79.5341 131.284 78.3068 130.182 76.6364C129.08 74.9545 128.534 72.7727 128.545 70.0909H138.023C138.057 70.9659 138.205 71.7045 138.466 72.3068C138.739 72.9091 139.114 73.3636 139.591 73.6705C140.08 73.9659 140.67 74.1136 141.364 74.1136C142.068 74.1136 142.659 73.9602 143.136 73.6534C143.625 73.3466 143.994 72.892 144.244 72.2898C144.494 71.6761 144.625 70.9205 144.636 70.0227V46.0909ZM179.128 46.0909H188.605V68.4545C188.605 71.1136 187.969 73.4148 186.696 75.358C185.435 77.2898 183.673 78.7841 181.412 79.8409C179.151 80.8864 176.526 81.4091 173.537 81.4091C170.526 81.4091 167.889 80.8864 165.628 79.8409C163.366 78.7841 161.605 77.2898 160.344 75.358C159.094 73.4148 158.469 71.1136 158.469 68.4545V46.0909H167.946V67.6364C167.946 68.7159 168.185 69.6818 168.662 70.5341C169.139 71.375 169.798 72.0341 170.639 72.5114C171.491 72.9886 172.457 73.2273 173.537 73.2273C174.628 73.2273 175.594 72.9886 176.435 72.5114C177.276 72.0341 177.935 71.375 178.412 70.5341C178.889 69.6818 179.128 68.7159 179.128 67.6364V46.0909ZM206.541 81H193.109V46.0909H206.405C209.996 46.0909 213.098 46.7898 215.712 48.1875C218.337 49.5739 220.359 51.5739 221.78 54.1875C223.212 56.7898 223.928 59.9091 223.928 63.5455C223.928 67.1818 223.217 70.3068 221.797 72.9205C220.376 75.5227 218.365 77.5227 215.763 78.9205C213.161 80.3068 210.087 81 206.541 81ZM202.587 72.9545H206.2C207.928 72.9545 209.399 72.6761 210.615 72.1193C211.842 71.5625 212.774 70.6023 213.411 69.2386C214.058 67.875 214.382 65.9773 214.382 63.5455C214.382 61.1136 214.053 59.2159 213.393 57.8523C212.746 56.4886 211.791 55.5284 210.53 54.9716C209.28 54.4148 207.746 54.1364 205.928 54.1364H202.587V72.9545ZM262.131 63.5455C262.131 67.4318 261.375 70.7102 259.864 73.3807C258.352 76.0398 256.313 78.0568 253.744 79.4318C251.176 80.7955 248.313 81.4773 245.153 81.4773C241.972 81.4773 239.097 80.7898 236.528 79.4148C233.972 78.0284 231.938 76.0057 230.426 73.3466C228.926 70.6761 228.176 67.4091 228.176 63.5455C228.176 59.6591 228.926 56.3864 230.426 53.7273C231.938 51.0568 233.972 49.0398 236.528 47.6761C239.097 46.3011 241.972 45.6136 245.153 45.6136C248.313 45.6136 251.176 46.3011 253.744 47.6761C256.313 49.0398 258.352 51.0568 259.864 53.7273C261.375 56.3864 262.131 59.6591 262.131 63.5455ZM252.381 63.5455C252.381 61.4545 252.102 59.6932 251.545 58.2614C251 56.8182 250.188 55.7273 249.108 54.9886C248.04 54.2386 246.722 53.8636 245.153 53.8636C243.585 53.8636 242.261 54.2386 241.182 54.9886C240.114 55.7273 239.301 56.8182 238.744 58.2614C238.199 59.6932 237.926 61.4545 237.926 63.5455C237.926 65.6364 238.199 67.4034 238.744 68.8466C239.301 70.2784 240.114 71.3693 241.182 72.1193C242.261 72.858 243.585 73.2273 245.153 73.2273C246.722 73.2273 248.04 72.858 249.108 72.1193C250.188 71.3693 251 70.2784 251.545 68.8466C252.102 67.4034 252.381 65.6364 252.381 63.5455ZM308.669 59.1818H299.055C298.987 58.3864 298.805 57.6648 298.51 57.017C298.226 56.3693 297.828 55.8125 297.317 55.3466C296.817 54.8693 296.209 54.5057 295.493 54.2557C294.777 53.9943 293.964 53.8636 293.055 53.8636C291.464 53.8636 290.118 54.25 289.016 55.0227C287.925 55.7955 287.095 56.9034 286.527 58.3466C285.97 59.7898 285.692 61.5227 285.692 63.5455C285.692 65.6818 285.976 67.4716 286.544 68.9148C287.124 70.3466 287.959 71.4261 289.05 72.1534C290.141 72.8693 291.453 73.2273 292.987 73.2273C293.862 73.2273 294.646 73.1193 295.339 72.9034C296.033 72.6761 296.635 72.3523 297.146 71.9318C297.658 71.5114 298.072 71.0057 298.391 70.4148C298.72 69.8125 298.942 69.1364 299.055 68.3864L308.669 68.4545C308.555 69.9318 308.141 71.4375 307.425 72.9716C306.709 74.4943 305.692 75.9034 304.374 77.1989C303.067 78.483 301.447 79.517 299.516 80.3011C297.584 81.0852 295.339 81.4773 292.783 81.4773C289.578 81.4773 286.703 80.7898 284.158 79.4148C281.624 78.0398 279.618 76.017 278.141 73.3466C276.675 70.6761 275.942 67.4091 275.942 63.5455C275.942 59.6591 276.692 56.3864 278.192 53.7273C279.692 51.0568 281.714 49.0398 284.26 47.6761C286.805 46.3011 289.646 45.6136 292.783 45.6136C294.987 45.6136 297.016 45.9148 298.868 46.517C300.72 47.1193 302.345 48 303.743 49.1591C305.141 50.3068 306.266 51.7216 307.118 53.4034C307.97 55.0852 308.487 57.0114 308.669 59.1818ZM312.969 81V46.0909H322.446V73.3636H336.56V81H312.969ZM361.05 46.0909H370.527V68.4545C370.527 71.1136 369.891 73.4148 368.618 75.358C367.357 77.2898 365.595 78.7841 363.334 79.8409C361.072 80.8864 358.447 81.4091 355.459 81.4091C352.447 81.4091 349.811 80.8864 347.55 79.8409C345.288 78.7841 343.527 77.2898 342.266 75.358C341.016 73.4148 340.391 71.1136 340.391 68.4545V46.0909H349.868V67.6364C349.868 68.7159 350.107 69.6818 350.584 70.5341C351.061 71.375 351.72 72.0341 352.561 72.5114C353.413 72.9886 354.379 73.2273 355.459 73.2273C356.55 73.2273 357.516 72.9886 358.357 72.5114C359.197 72.0341 359.857 71.375 360.334 70.5341C360.811 69.6818 361.05 68.7159 361.05 67.6364V46.0909ZM375.031 81V46.0909H390.168C392.827 46.0909 395.06 46.4489 396.866 47.1648C398.685 47.8807 400.054 48.892 400.974 50.1989C401.906 51.5057 402.372 53.0455 402.372 54.8182C402.372 56.1023 402.088 57.2727 401.52 58.3295C400.963 59.3864 400.179 60.2727 399.168 60.9886C398.156 61.6932 396.974 62.1818 395.622 62.4545V62.7955C397.122 62.8523 398.486 63.233 399.713 63.9375C400.94 64.6307 401.918 65.5909 402.645 66.8182C403.372 68.0341 403.736 69.4659 403.736 71.1136C403.736 73.0227 403.236 74.7216 402.236 76.2102C401.247 77.6989 399.838 78.8693 398.009 79.7216C396.179 80.5739 393.997 81 391.463 81H375.031ZM384.509 73.4318H388.94C390.531 73.4318 391.724 73.1364 392.52 72.5455C393.315 71.9432 393.713 71.0568 393.713 69.8864C393.713 69.0682 393.526 68.375 393.151 67.8068C392.776 67.2386 392.241 66.8068 391.548 66.5114C390.866 66.2159 390.043 66.0682 389.077 66.0682H384.509V73.4318ZM384.509 60.2045H388.395C389.224 60.2045 389.957 60.0739 390.594 59.8125C391.23 59.5511 391.724 59.1761 392.077 58.6875C392.44 58.1875 392.622 57.5795 392.622 56.8636C392.622 55.7841 392.236 54.9602 391.463 54.392C390.69 53.8125 389.713 53.5227 388.531 53.5227H384.509V60.2045ZM435.474 57C435.384 55.8636 434.957 54.9773 434.196 54.3409C433.446 53.7045 432.304 53.3864 430.77 53.3864C429.793 53.3864 428.991 53.5057 428.366 53.7443C427.753 53.9716 427.298 54.2841 427.003 54.6818C426.707 55.0795 426.554 55.5341 426.543 56.0455C426.52 56.4659 426.594 56.8466 426.764 57.1875C426.946 57.517 427.23 57.8182 427.616 58.0909C428.003 58.3523 428.497 58.5909 429.099 58.8068C429.702 59.0227 430.418 59.2159 431.247 59.3864L434.111 60C436.043 60.4091 437.696 60.9489 439.071 61.6193C440.446 62.2898 441.571 63.0795 442.446 63.9886C443.321 64.8864 443.963 65.8977 444.372 67.0227C444.793 68.1477 445.009 69.375 445.02 70.7045C445.009 73 444.435 74.9432 443.298 76.5341C442.162 78.125 440.537 79.3352 438.423 80.1648C436.321 80.9943 433.793 81.4091 430.838 81.4091C427.804 81.4091 425.156 80.9602 422.895 80.0625C420.645 79.1648 418.895 77.7841 417.645 75.9205C416.406 74.0455 415.781 71.6477 415.77 68.7273H424.77C424.827 69.7955 425.094 70.6932 425.571 71.4205C426.048 72.1477 426.719 72.6989 427.582 73.0739C428.457 73.4489 429.497 73.6364 430.702 73.6364C431.713 73.6364 432.56 73.5114 433.241 73.2614C433.923 73.0114 434.44 72.6648 434.793 72.2216C435.145 71.7784 435.327 71.2727 435.338 70.7045C435.327 70.1705 435.151 69.7045 434.81 69.3068C434.48 68.8977 433.935 68.5341 433.173 68.2159C432.412 67.8864 431.384 67.5795 430.088 67.2955L426.611 66.5455C423.52 65.875 421.082 64.7557 419.298 63.1875C417.526 61.608 416.645 59.4545 416.656 56.7273C416.645 54.5114 417.236 52.5739 418.429 50.9148C419.634 49.2443 421.298 47.9432 423.423 47.0114C425.56 46.0795 428.009 45.6136 430.77 45.6136C433.588 45.6136 436.026 46.0852 438.082 47.0284C440.139 47.9716 441.724 49.3011 442.838 51.017C443.963 52.7216 444.531 54.7159 444.543 57H435.474ZM458.102 46.0909V81H448.625V46.0909H458.102ZM492.798 46.0909V81H484.889L472.276 62.6591H472.071V81H462.594V46.0909H470.639L483.048 64.3636H483.321V46.0909H492.798ZM497.418 81V75.75L513.918 53.7273H497.486V46.0909H525.986V51.3409L509.486 73.3636H525.918V81H497.418ZM530.609 81V46.0909H540.087V59.7273H552.632V46.0909H562.109V81H552.632V67.3636H540.087V81H530.609ZM566.609 81V46.0909H591.768V53.7273H576.087V59.7273H590.473V67.3636H576.087V73.3636H591.7V81H566.609ZM605.946 46.0909V81H596.469V46.0909H605.946ZM610.438 46.0909H622.233L630.347 65.8636H630.756L638.869 46.0909H650.665V81H641.392V60.8182H641.119L633.347 80.7273H627.756L619.983 60.6818H619.71V81H610.438V46.0909ZM677.401 81.4773C674.605 81.4773 672.196 80.9432 670.173 79.875C668.162 78.7955 666.611 77.25 665.52 75.2386C664.44 73.2159 663.901 70.7955 663.901 67.9773C663.901 65.2727 664.446 62.9091 665.537 60.8864C666.628 58.8636 668.168 57.2898 670.156 56.1648C672.145 55.0398 674.491 54.4773 677.196 54.4773C679.173 54.4773 680.963 54.7841 682.565 55.3977C684.168 56.0114 685.537 56.9034 686.673 58.0739C687.81 59.233 688.685 60.642 689.298 62.3011C689.912 63.9602 690.219 65.8295 690.219 67.9091V70.0909H666.832V64.9091H681.56C681.548 64.1591 681.355 63.5 680.98 62.9318C680.616 62.3523 680.122 61.9034 679.497 61.5852C678.884 61.2557 678.185 61.0909 677.401 61.0909C676.639 61.0909 675.94 61.2557 675.304 61.5852C674.668 61.9034 674.156 62.3466 673.77 62.9148C673.395 63.483 673.196 64.1477 673.173 64.9091V70.5C673.173 71.3409 673.349 72.0909 673.702 72.75C674.054 73.4091 674.56 73.9261 675.219 74.3011C675.878 74.6761 676.673 74.8636 677.605 74.8636C678.253 74.8636 678.844 74.7727 679.378 74.5909C679.923 74.4091 680.389 74.1477 680.776 73.8068C681.162 73.4545 681.446 73.0341 681.628 72.5455H690.219C689.923 74.3636 689.224 75.9432 688.122 77.2841C687.02 78.6136 685.56 79.6477 683.741 80.3864C681.935 81.1136 679.821 81.4773 677.401 81.4773ZM699.172 81.5455C697.854 81.5455 696.723 81.0852 695.78 80.1648C694.848 79.233 694.388 78.1023 694.399 76.7727C694.388 75.4773 694.848 74.3693 695.78 73.4489C696.723 72.5284 697.854 72.0682 699.172 72.0682C700.422 72.0682 701.524 72.5284 702.479 73.4489C703.445 74.3693 703.933 75.4773 703.945 76.7727C703.933 77.6591 703.7 78.4659 703.246 79.1932C702.803 79.9091 702.223 80.483 701.507 80.9148C700.791 81.3352 700.013 81.5455 699.172 81.5455ZM718.467 46.0909L725.626 70.7045H725.899L733.058 46.0909H743.763L732.24 81H719.286L707.763 46.0909H718.467ZM747.734 81.5455C746.416 81.5455 745.286 81.0852 744.342 80.1648C743.411 79.233 742.95 78.1023 742.962 76.7727C742.95 75.4773 743.411 74.3693 744.342 73.4489C745.286 72.5284 746.416 72.0682 747.734 72.0682C748.984 72.0682 750.087 72.5284 751.041 73.4489C752.007 74.3693 752.496 75.4773 752.507 76.7727C752.496 77.6591 752.263 78.4659 751.808 79.1932C751.365 79.9091 750.786 80.483 750.07 80.9148C749.354 81.3352 748.575 81.5455 747.734 81.5455Z" fill="#0F1B20"/>
</g>
<defs>
<clipPath id="clip0_6028_114">
<rect width="809" height="128" fill="white"/>
</clipPath>
</defs>
</svg>
