<svg width="128" height="128" viewBox="0 0 128 128" fill="none" xmlns="http://www.w3.org/2000/svg">
<g clip-path="url(#clip0_6027_174)">
<g clip-path="url(#clip1_6027_174)">
<path d="M73.8468 14.5971C73.4469 14.5215 73.1243 14.3794 72.8781 14.1706C72.6333 13.9564 72.4486 13.6726 72.3252 13.3191L73.249 12.8725C73.313 13.0692 73.4014 13.223 73.5149 13.334C73.6277 13.4449 73.7524 13.5131 73.8871 13.5387C74.1035 13.5795 74.2777 13.5453 74.4103 13.4361C74.5495 13.3224 74.6518 13.09 74.7185 12.7388L75.3664 9.31055L76.5575 9.53569L75.8917 13.0612C75.827 13.4016 75.7089 13.701 75.5367 13.9595C75.3651 14.218 75.1361 14.407 74.8504 14.5266C74.5707 14.6471 74.2355 14.6706 73.8468 14.5971Z" fill="#0F1B20"/>
<path d="M78.7912 15.782C78.1208 15.5869 77.6662 15.2399 77.428 14.7409C77.1891 14.242 77.1964 13.5596 77.4478 12.6938L78.2548 9.92188L79.4267 10.263L78.5854 13.1536C78.4382 13.6604 78.4118 14.0365 78.5062 14.2817C78.6012 14.5269 78.7939 14.6917 79.0842 14.7762C79.3746 14.8607 79.6279 14.8257 79.845 14.6711C80.0615 14.5166 80.2436 14.1859 80.3914 13.6791L81.2327 10.7885L82.3571 11.1157L81.5507 13.8876C81.2987 14.7534 80.9404 15.3336 80.4772 15.6282C80.0186 15.9243 79.4564 15.9756 78.7912 15.782Z" fill="#0F1B20"/>
<path d="M82.0361 16.6922L84.0671 11.7129L85.4726 12.2862C85.982 12.4939 86.3865 12.7601 86.6881 13.0849C86.989 13.4096 87.1665 13.7968 87.2206 14.2465C87.2819 14.6932 87.1961 15.2016 86.9632 15.7718C86.731 16.342 86.4367 16.7714 86.0817 17.06C85.726 17.3486 85.3281 17.5097 84.8867 17.5434C84.4525 17.5742 83.9913 17.4898 83.5023 17.2904L82.0361 16.6922ZM83.5294 16.2414L83.7432 16.3287C84.0282 16.445 84.2961 16.4948 84.5462 16.4781C84.8016 16.4635 85.0358 16.363 85.2483 16.1766C85.4607 15.9902 85.6481 15.6984 85.8105 15.3013C85.9721 14.9042 86.0401 14.5697 86.015 14.2979C85.9913 14.021 85.891 13.7932 85.7148 13.6143C85.5452 13.4324 85.3182 13.2833 85.0332 13.1669L84.8194 13.0797L83.5294 16.2414Z" fill="#0F1B20"/>
<path d="M88.7588 19.8314C88.3313 19.6045 88.0079 19.3051 87.7882 18.9332C87.5731 18.564 87.4715 18.1458 87.4834 17.6787C87.5018 17.2093 87.6477 16.7172 87.9208 16.2024C88.1973 15.6827 88.52 15.2908 88.8908 15.0268C89.2689 14.7606 89.6681 14.6178 90.0891 14.5985C90.518 14.577 90.9456 14.6797 91.3732 14.9065C91.8007 15.1334 92.1227 15.429 92.3405 15.7935C92.5655 16.1556 92.6711 16.5666 92.6572 17.0262C92.6486 17.4884 92.5074 17.977 92.2343 18.4918C91.9604 19.0066 91.6325 19.4021 91.2498 19.6781C90.8737 19.9518 90.4705 20.1018 90.0396 20.1282C89.6133 20.1572 89.1864 20.0583 88.7588 19.8314ZM89.2498 18.9061C89.5757 19.0789 89.9076 19.0746 90.2468 18.8935C90.5853 18.7124 90.8816 18.3838 91.1343 17.9078C91.3864 17.4319 91.4893 17.01 91.4418 16.6424C91.3943 16.2747 91.2075 16.0045 90.8822 15.8318C90.5569 15.659 90.2283 15.6559 89.8971 15.8225C89.5658 15.9891 89.2742 16.3103 89.0215 16.7864C88.7687 17.2623 88.6618 17.6914 88.7021 18.0737C88.7417 18.4559 88.9245 18.7334 89.2498 18.9061Z" fill="#0F1B20"/>
<path d="M94.9795 23.7043C94.612 23.4427 94.3348 23.1167 94.1468 22.7264C93.9594 22.336 93.8894 21.9082 93.9376 21.4428C93.993 20.9761 94.1949 20.4987 94.5427 20.0105C94.8871 19.5268 95.2751 19.1819 95.7053 18.9755C96.1435 18.7679 96.5836 18.6862 97.0244 18.7304C97.4731 18.7733 97.8815 18.9256 98.2484 19.1873C98.5308 19.3883 98.742 19.6267 98.8832 19.9027C99.027 20.1742 99.1187 20.4387 99.1583 20.6963L98.1844 20.9544C98.1461 20.7716 98.0861 20.6042 98.0056 20.4522C97.9323 20.2989 97.8175 20.1664 97.6605 20.0547C97.4638 19.9144 97.2421 19.8411 96.9966 19.835C96.7558 19.8321 96.511 19.9008 96.2629 20.041C96.0188 20.1845 95.7911 20.404 95.5806 20.6996C95.2619 21.1475 95.1095 21.5654 95.1233 21.9534C95.1372 22.3413 95.3055 22.6502 95.6275 22.8799C95.8069 23.0075 95.9943 23.0805 96.191 23.0989C96.3916 23.1203 96.5856 23.1134 96.773 23.078L96.8561 24.0693C96.1831 24.2376 95.5569 24.1159 94.9795 23.7043Z" fill="#0F1B20"/>
<path d="M97.0889 25.1532L100.575 21.0586L101.499 21.8447L98.6751 25.1605L100.295 26.5401L99.6319 27.3188L97.0889 25.1532Z" fill="#0F1B20"/>
<path d="M101.527 29.3002C101.034 28.8054 100.804 28.282 100.836 27.7299C100.868 27.1779 101.204 26.5836 101.843 25.9472L103.888 23.9102L104.75 24.7751L102.616 26.8995C102.242 27.272 102.038 27.5885 102.002 27.8489C101.966 28.1094 102.055 28.3467 102.269 28.561C102.482 28.7753 102.721 28.8671 102.986 28.8366C103.25 28.806 103.57 28.6045 103.943 28.232L106.077 26.1076L106.903 26.9375L104.858 28.9746C104.218 29.6109 103.625 29.9461 103.077 29.9799C102.532 30.0177 102.016 29.7911 101.527 29.3002Z" fill="#0F1B20"/>
<path d="M103.929 31.6685L108.104 28.2793L109.263 29.7074C109.498 29.9977 109.678 30.2841 109.801 30.5667C109.929 30.8457 109.973 31.1142 109.935 31.3721C109.896 31.63 109.742 31.8681 109.473 32.0864C109.29 32.2355 109.068 32.3337 108.81 32.381C108.558 32.4291 108.331 32.3938 108.129 32.2751L108.103 32.2959C108.22 32.5544 108.255 32.8199 108.208 33.0925C108.168 33.3659 108.009 33.6152 107.731 33.8404C107.445 34.0726 107.153 34.1889 106.856 34.1893C106.56 34.1897 106.267 34.1046 105.98 33.934C105.697 33.76 105.433 33.5214 105.186 33.2183L103.929 31.6685ZM107.197 30.5774L107.555 31.0193C107.743 31.2499 107.923 31.3799 108.095 31.4096C108.272 31.4436 108.434 31.3999 108.584 31.2786C108.746 31.1469 108.818 31 108.8 30.8379C108.781 30.6757 108.682 30.4836 108.502 30.2615L108.138 29.8133L107.197 30.5774ZM105.423 32.0173L105.854 32.5488C106.274 33.0654 106.671 33.1712 107.046 32.8663C107.231 32.7172 107.308 32.5475 107.281 32.3571C107.258 32.1632 107.142 31.936 106.93 31.6755L106.499 31.144L105.423 32.0173Z" fill="#0F1B20"/>
<path d="M108.767 38.3601C108.578 38.0628 108.446 37.7302 108.369 37.3623C108.295 36.999 108.291 36.6336 108.358 36.266L109.432 36.4055C109.396 36.6564 109.397 36.9096 109.435 37.1653C109.474 37.4209 109.552 37.6417 109.669 37.8275C109.804 38.0411 109.944 38.174 110.088 38.2262C110.235 38.283 110.375 38.2688 110.51 38.1835C110.654 38.0923 110.72 37.9657 110.708 37.8037C110.705 37.6435 110.681 37.4369 110.639 37.1842L110.514 36.4331C110.482 36.2386 110.476 36.0378 110.494 35.8308C110.517 35.6208 110.582 35.4202 110.689 35.2289C110.796 35.0377 110.958 34.8729 111.176 34.7346C111.427 34.5758 111.698 34.4989 111.987 34.5042C112.28 34.5141 112.563 34.6015 112.836 34.7666C113.114 34.9363 113.352 35.179 113.552 35.4949C113.717 35.7551 113.83 36.0475 113.893 36.3725C113.956 36.6973 113.951 37.0191 113.88 37.3377L112.9 37.2256C112.922 37.0034 112.916 36.7988 112.883 36.612C112.854 36.4221 112.782 36.2367 112.667 36.0555C112.555 35.8789 112.428 35.7608 112.286 35.7011C112.152 35.643 112.02 35.6551 111.89 35.7375C111.75 35.8258 111.687 35.9571 111.7 36.1313C111.715 36.3101 111.746 36.5221 111.79 36.7672L111.924 37.5026C111.986 37.8473 111.971 38.1627 111.879 38.4489C111.787 38.735 111.581 38.9796 111.26 39.1827C111.009 39.3416 110.734 39.4213 110.435 39.4219C110.136 39.4226 109.841 39.3364 109.548 39.1633C109.257 38.9901 108.996 38.7224 108.767 38.3601Z" fill="#0F1B20"/>
<path d="M110.358 40.8336L115.082 38.2637L115.662 39.3287L110.938 41.8986L110.358 40.8336Z" fill="#0F1B20"/>
<path d="M111.555 43.0121L116.459 40.8047L116.97 41.9404L115.109 44.3159L114.242 45.2849L114.255 45.3149C114.508 45.1775 114.786 45.019 115.091 44.8395C115.396 44.6599 115.694 44.5047 115.985 44.3738L117.714 43.5951L118.189 44.6481L113.285 46.8554L112.773 45.7198L114.642 43.3408L115.494 42.3787L115.48 42.3487C115.221 42.4956 114.942 42.654 114.645 42.8241C114.35 42.9991 114.057 43.1521 113.766 43.283L112.028 44.0651L111.555 43.0121Z" fill="#0F1B20"/>
<path d="M113.619 47.7273L114.314 47.4904L118.508 48.5707L117.813 46.533L118.781 46.2031L119.957 49.6538L119.262 49.8907L115.069 48.8104L115.843 51.0822L114.875 51.4122L113.619 47.7273Z" fill="#0F1B20"/>
<path d="M115.142 52.2962L120.374 51.0527L120.654 52.2323L118.639 52.711L119.068 54.5165L121.083 54.0378L121.365 55.2255L116.133 56.469L115.851 55.2814L118.034 54.7626L117.604 52.9571L115.421 53.4758L115.142 52.2962Z" fill="#0F1B20"/>
<path d="M116.345 57.7171L121.673 56.9863L122.13 60.3202L121.117 60.4594L120.824 58.3268L119.753 58.4733L120.002 60.2872L118.997 60.4251L118.749 58.6112L117.523 58.7788L117.826 60.9939L116.813 61.1325L116.345 57.7171Z" fill="#0F1B20"/>
<path d="M116.889 62.2051L122.253 61.8164L122.34 63.0259L116.976 63.4139L116.889 62.2051Z" fill="#0F1B20"/>
<path d="M117.093 64.6797L122.471 64.7292L122.459 66.0568L120.059 66.9007C119.905 66.9548 119.742 67.0057 119.571 67.0532C119.4 67.1013 119.232 67.1521 119.066 67.2056V67.2386C119.231 67.2953 119.398 67.3461 119.568 67.3917C119.738 67.4425 119.9 67.4959 120.053 67.5527L122.437 68.4243L122.426 69.7434L117.048 69.6945L117.058 68.5893L119.029 68.6071C119.205 68.6091 119.4 68.619 119.615 68.6375C119.834 68.6612 120.054 68.6856 120.274 68.7094C120.494 68.7391 120.688 68.7628 120.858 68.7806L120.859 68.7477L119.584 68.299L117.538 67.5131L117.544 66.8453L119.605 66.097L120.887 65.6794L120.888 65.6464C120.717 65.6668 120.521 65.6873 120.301 65.7071C120.081 65.7275 119.861 65.7447 119.64 65.7592C119.426 65.779 119.231 65.7882 119.055 65.7869L117.083 65.7684L117.093 64.6797Z" fill="#0F1B20"/>
<path d="M116.431 74.3073C116.485 73.9206 116.618 73.5834 116.83 73.297C117.043 73.01 117.319 72.7989 117.66 72.6629C118.001 72.527 118.395 72.4907 118.841 72.5527C119.282 72.6148 119.648 72.7573 119.939 72.981C120.229 73.21 120.438 73.4838 120.566 73.8012C120.699 74.1199 120.743 74.4392 120.698 74.7606C120.645 75.1473 120.513 75.4541 120.304 75.6798C120.099 75.9127 119.841 76.0711 119.53 76.1549C119.223 76.2453 118.884 76.265 118.514 76.2136C118.411 76.1991 118.308 76.1793 118.205 76.1535C118.109 76.1291 118.037 76.108 117.99 76.0902L118.328 73.6639C118.027 73.6771 117.792 73.7695 117.623 73.9404C117.46 74.112 117.361 74.331 117.323 74.5983C117.283 74.8866 117.332 75.1908 117.471 75.5095L116.688 75.8084C116.576 75.5821 116.496 75.3347 116.45 75.0674C116.404 74.8002 116.398 74.5468 116.431 74.3073ZM119.122 73.7662L118.917 75.2284C119.141 75.2594 119.331 75.2304 119.487 75.1413C119.649 75.0588 119.747 74.8972 119.78 74.6577C119.806 74.4722 119.764 74.2974 119.654 74.1318C119.549 73.9675 119.371 73.8454 119.122 73.7662Z" fill="#0F1B20"/>
<path d="M115.892 77.3942C115.934 77.1897 116.04 77.0313 116.208 76.9198C116.382 76.8149 116.573 76.7845 116.783 76.8274C116.999 76.8716 117.162 76.9759 117.275 77.1389C117.391 77.3091 117.429 77.4965 117.387 77.701C117.345 77.9056 117.238 78.06 117.064 78.1649C116.896 78.2764 116.703 78.3101 116.488 78.2659C116.278 78.2223 116.115 78.1161 115.998 77.9465C115.886 77.7829 115.85 77.5988 115.892 77.3942Z" fill="#0F1B20"/>
<path d="M115.512 79.5391L121.126 79.3379L120.799 80.5817L118.21 80.5652C117.907 80.5711 117.612 80.5672 117.326 80.5546C117.038 80.5467 116.74 80.5448 116.432 80.5494L116.423 80.581C116.691 80.7308 116.952 80.874 117.207 81.0093C117.461 81.1446 117.719 81.2864 117.981 81.4349L120.245 82.6873L119.929 83.8842L115.141 80.9512L115.512 79.5391Z" fill="#0F1B20"/>
<path d="M114.416 82.9968C114.48 82.7976 114.602 82.6524 114.783 82.56C114.966 82.4749 115.16 82.4657 115.364 82.5316C115.573 82.5989 115.725 82.7204 115.818 82.8952C115.915 83.0767 115.933 83.2667 115.868 83.466C115.804 83.6646 115.68 83.8065 115.496 83.8916C115.316 83.984 115.122 83.9958 114.913 83.9285C114.709 83.8625 114.558 83.7385 114.461 83.557C114.367 83.3822 114.352 83.1954 114.416 82.9968Z" fill="#0F1B20"/>
<path d="M112.084 88.9491C112.255 88.5802 112.472 88.3018 112.735 88.1144C113.002 87.9296 113.323 87.8201 113.696 87.7871L113.903 88.7921C113.696 88.8053 113.525 88.8534 113.39 88.9366C113.255 89.019 113.159 89.1226 113.1 89.2474C113.008 89.4473 112.999 89.6248 113.072 89.7798C113.148 89.9422 113.349 90.0986 113.673 90.249L116.838 91.7165L116.328 92.8165L113.073 91.3074C112.759 91.1616 112.497 90.9742 112.289 90.7439C112.08 90.5143 111.953 90.2457 111.907 89.9395C111.859 89.6386 111.918 89.3087 112.084 88.9491Z" fill="#0F1B20"/>
<path d="M109.737 93.4387C110.09 92.8356 110.536 92.4793 111.079 92.3697C111.62 92.2602 112.281 92.4331 113.059 92.889L115.551 94.3473L114.934 95.4011L112.336 93.8801C111.88 93.6129 111.522 93.4961 111.261 93.5278C111 93.5601 110.793 93.7066 110.641 93.9679C110.488 94.2285 110.46 94.4832 110.557 94.7307C110.654 94.9788 110.93 95.2361 111.386 95.5027L113.984 97.0237L113.392 98.0345L110.901 96.5763C110.123 96.1203 109.647 95.632 109.475 95.1101C109.299 94.5934 109.386 94.0365 109.737 93.4387Z" fill="#0F1B20"/>
<path d="M108.057 96.3691L112.394 99.5503L111.496 100.774C111.171 101.217 110.814 101.546 110.426 101.758C110.037 101.971 109.619 102.05 109.17 101.993C108.722 101.944 108.249 101.737 107.752 101.373C107.256 101.009 106.911 100.619 106.717 100.204C106.524 99.7891 106.464 99.3635 106.539 98.9274C106.615 98.4991 106.809 98.0715 107.121 97.6459L108.057 96.3691ZM108.132 97.9277L107.995 98.1138C107.813 98.3619 107.7 98.6093 107.655 98.8561C107.607 99.1075 107.647 99.3589 107.777 99.6103C107.906 99.8624 108.144 100.115 108.489 100.368C108.835 100.622 109.143 100.77 109.413 100.811C109.687 100.855 109.933 100.813 110.149 100.686C110.367 100.566 110.567 100.382 110.749 100.134L110.885 99.9468L108.132 97.9277Z" fill="#0F1B20"/>
<path d="M103.394 102.115C103.717 101.755 104.086 101.514 104.5 101.39C104.91 101.271 105.341 101.273 105.791 101.397C106.242 101.529 106.684 101.79 107.118 102.179C107.555 102.573 107.857 102.981 108.024 103.405C108.191 103.836 108.233 104.258 108.15 104.671C108.067 105.092 107.864 105.483 107.541 105.842C107.217 106.202 106.852 106.444 106.446 106.567C106.041 106.697 105.616 106.701 105.174 106.576C104.727 106.456 104.287 106.2 103.853 105.811C103.42 105.421 103.116 105.007 102.941 104.569C102.766 104.138 102.718 103.711 102.796 103.286C102.871 102.866 103.07 102.475 103.394 102.115ZM104.173 102.815C103.927 103.089 103.851 103.413 103.944 103.785C104.038 104.158 104.286 104.524 104.686 104.885C105.087 105.245 105.471 105.446 105.839 105.489C106.208 105.532 106.515 105.416 106.761 105.142C107.008 104.868 107.09 104.55 107.009 104.189C106.927 103.827 106.686 103.466 106.285 103.106C105.884 102.746 105.494 102.539 105.113 102.485C104.732 102.431 104.419 102.542 104.173 102.815Z" fill="#0F1B20"/>
<path d="M98.1293 107.221C98.4717 106.928 98.8551 106.737 99.2787 106.649C99.703 106.561 100.135 106.596 100.575 106.755C101.015 106.921 101.429 107.232 101.819 107.687C102.206 108.139 102.447 108.598 102.544 109.065C102.639 109.541 102.613 109.987 102.464 110.404C102.314 110.829 102.067 111.189 101.725 111.482C101.462 111.708 101.18 111.855 100.878 111.926C100.579 112 100.301 112.026 100.041 112.001L100.026 110.994C100.212 111.001 100.389 110.983 100.556 110.942C100.722 110.908 100.879 110.828 101.025 110.703C101.209 110.546 101.333 110.348 101.398 110.111C101.459 109.879 101.452 109.624 101.375 109.349C101.295 109.078 101.136 108.804 100.9 108.529C100.542 108.111 100.173 107.862 99.7941 107.782C99.414 107.702 99.0735 107.791 98.7733 108.049C98.6057 108.192 98.4902 108.356 98.4249 108.542C98.3556 108.732 98.3153 108.922 98.3048 109.112L97.3223 108.955C97.3216 108.26 97.5902 107.683 98.1293 107.221Z" fill="#0F1B20"/>
<path d="M96.2156 108.92L99.3492 113.29L98.3634 113.997L95.8263 110.457L94.0968 111.697L93.501 110.866L96.2156 108.92Z" fill="#0F1B20"/>
<path d="M91.1151 112.228C91.7142 111.869 92.2777 111.772 92.8056 111.937C93.3342 112.102 93.8297 112.571 94.2929 113.345L95.7756 115.822L94.7278 116.449L93.1817 113.865C92.9105 113.413 92.6532 113.138 92.4091 113.04C92.1649 112.943 91.9129 112.972 91.6535 113.127C91.3942 113.283 91.2471 113.492 91.2128 113.756C91.1784 114.02 91.2972 114.379 91.5684 114.831L93.1144 117.415L92.1095 118.016L90.6268 115.539C90.1636 114.765 89.9815 114.109 90.0811 113.568C90.1761 113.031 90.5206 112.584 91.1151 112.228Z" fill="#0F1B20"/>
<path d="M88.2417 113.984L90.5182 118.857L88.8514 119.635C88.5129 119.794 88.1915 119.898 87.8874 119.949C87.5858 120.005 87.3146 119.983 87.0738 119.883C86.8329 119.783 86.6389 119.577 86.4924 119.263C86.3921 119.049 86.3506 118.81 86.3677 118.547C86.3816 118.292 86.4707 118.08 86.6356 117.912L86.6211 117.882C86.342 117.934 86.0761 117.904 85.8233 117.791C85.5673 117.686 85.3641 117.472 85.213 117.148C85.0573 116.814 85.015 116.503 85.0863 116.214C85.1582 115.926 85.3113 115.663 85.5462 115.426C85.7838 115.193 86.0794 114.995 86.433 114.83L88.2417 113.984ZM88.5083 117.42L87.9923 117.66C87.7237 117.786 87.5535 117.93 87.4829 118.09C87.407 118.252 87.4103 118.421 87.4914 118.595C87.5799 118.785 87.7052 118.89 87.8669 118.911C88.0286 118.933 88.2391 118.884 88.4984 118.762L89.0216 118.518L88.5083 117.42ZM87.5409 115.35L86.9207 115.639C86.3182 115.921 86.119 116.281 86.3242 116.719C86.4238 116.934 86.5696 117.051 86.761 117.07C86.955 117.096 87.2038 117.037 87.5073 116.895L88.1275 116.605L87.5409 115.35Z" fill="#0F1B20"/>
<path d="M80.5656 117.055C80.9001 116.945 81.2551 116.898 81.6305 116.913C82.0007 116.929 82.3564 117.015 82.6962 117.17L82.299 118.177C82.0647 118.081 81.8186 118.02 81.5619 117.995C81.3046 117.97 81.0717 117.992 80.8625 118.06C80.6223 118.14 80.4593 118.243 80.3735 118.369C80.2825 118.498 80.2627 118.638 80.3122 118.789C80.3656 118.951 80.4725 119.046 80.6322 119.075C80.7886 119.11 80.9945 119.137 81.2498 119.157L82.0086 119.22C82.2053 119.236 82.4019 119.278 82.5979 119.347C82.7958 119.42 82.9747 119.533 83.1343 119.682C83.2934 119.833 83.4141 120.031 83.4946 120.276C83.5877 120.558 83.5962 120.838 83.5204 121.118C83.4399 121.4 83.2861 121.653 83.0591 121.878C82.8269 122.105 82.5332 122.277 82.1782 122.394C81.8859 122.491 81.5745 122.53 81.2445 122.512C80.914 122.493 80.6032 122.41 80.3115 122.263L80.6586 121.341C80.8691 121.416 81.0684 121.461 81.2577 121.474C81.4491 121.492 81.6471 121.467 81.8503 121.4C82.0489 121.335 82.1941 121.24 82.2871 121.117C82.3762 121.001 82.3966 120.869 82.3485 120.724C82.2963 120.566 82.1848 120.473 82.0126 120.443C81.8351 120.415 81.6226 120.392 81.3739 120.376L80.6282 120.326C80.2785 120.303 79.9763 120.211 79.721 120.052C79.4663 119.893 79.2795 119.633 79.1607 119.273C79.0677 118.991 79.0571 118.705 79.1291 118.415C79.2017 118.124 79.3574 117.859 79.5962 117.618C79.8351 117.377 80.1584 117.189 80.5656 117.055Z" fill="#0F1B20"/>
<path d="M77.7702 118L79.1071 123.209L77.9332 123.51L76.5957 118.302L77.7702 118Z" fill="#0F1B20"/>
<path d="M75.3646 118.627L76.3056 123.922L75.0789 124.14L73.2313 121.754L72.5035 120.676L72.4712 120.682C72.5431 120.96 72.6282 121.269 72.7279 121.609C72.8275 121.948 72.9047 122.275 72.9608 122.589L73.2927 124.457L72.1558 124.659L71.2148 119.364L72.4415 119.146L74.2911 121.54L75.0156 122.601L75.0479 122.595C74.9687 122.308 74.8836 121.999 74.7912 121.67C74.6936 121.34 74.617 121.019 74.5609 120.705L74.2277 118.829L75.3646 118.627Z" fill="#0F1B20"/>
<path d="M70.294 119.475L70.354 120.206L68.2834 124.01L70.4286 123.833L70.5124 124.852L66.8793 125.151L66.8185 124.42L68.8898 120.616L66.4979 120.813L66.4141 119.793L70.294 119.475Z" fill="#0F1B20"/>
<path d="M65.4978 119.835L65.4384 125.212L64.2256 125.199L64.2487 123.129L62.3932 123.108L62.3701 125.178L61.1494 125.165L61.2095 119.787L62.4295 119.801L62.4051 122.044L64.2606 122.065L64.2857 119.821L65.4978 119.835Z" fill="#0F1B20"/>
<path d="M59.9468 119.692L59.3734 125.039L56.0273 124.68L56.1369 123.663L58.2768 123.893L58.3922 122.819L56.5717 122.623L56.6799 121.615L58.5005 121.81L58.6324 120.58L56.4101 120.342L56.5189 119.324L59.9468 119.692Z" fill="#0F1B20"/>
<path d="M55.4598 119.14L54.5446 124.439L53.3496 124.233L54.2648 118.934L55.4598 119.14Z" fill="#0F1B20"/>
<path d="M53.002 118.743L51.6496 123.948L50.3644 123.614L50.1277 121.081C50.1132 120.918 50.1034 120.749 50.0984 120.571C50.0933 120.394 50.0849 120.218 50.0732 120.045L50.0412 120.036C49.9465 120.182 49.8565 120.332 49.771 120.486C49.6803 120.638 49.5889 120.782 49.497 120.918L48.0732 123.019L46.7959 122.687L48.1483 117.482L49.2181 117.76L48.7223 119.668C48.6781 119.838 48.621 120.025 48.5511 120.229C48.4745 120.436 48.3979 120.643 48.3213 120.851C48.2394 121.057 48.169 121.24 48.1101 121.401L48.1421 121.409L48.8867 120.282L50.1456 118.487L50.7922 118.655L51.0181 120.836L51.1118 122.181L51.1437 122.189C51.1653 122.018 51.1931 121.824 51.2271 121.606C51.2612 121.387 51.2978 121.17 51.3372 120.953C51.3698 120.739 51.4082 120.547 51.4525 120.377L51.9483 118.47L53.002 118.743Z" fill="#0F1B20"/>
<path d="M43.8338 115.759C44.1956 115.905 44.4896 116.116 44.716 116.392C44.9423 116.668 45.0796 116.988 45.1278 117.351C45.176 117.715 45.1154 118.106 44.9459 118.524C44.7784 118.936 44.5506 119.256 44.2626 119.484C43.9694 119.709 43.6532 119.845 43.314 119.891C42.9727 119.943 42.6518 119.908 42.3512 119.786C41.9894 119.638 41.7244 119.436 41.5562 119.178C41.3808 118.923 41.2903 118.634 41.2848 118.311C41.2721 117.991 41.336 117.658 41.4765 117.312C41.5159 117.215 41.5602 117.12 41.6097 117.028C41.6571 116.94 41.6952 116.876 41.724 116.834L43.9939 117.755C44.0546 117.459 44.0227 117.209 43.8981 117.004C43.7714 116.804 43.5833 116.653 43.3336 116.552C43.0636 116.443 42.7568 116.416 42.4135 116.472L42.315 115.64C42.5624 115.586 42.8213 115.57 43.0918 115.591C43.3623 115.611 43.6096 115.667 43.8338 115.759ZM43.7008 118.5L42.3327 117.944C42.2479 118.153 42.2296 118.344 42.2778 118.518C42.3188 118.696 42.4513 118.829 42.6755 118.92C42.8488 118.99 43.029 118.992 43.2162 118.926C43.4013 118.864 43.5628 118.723 43.7008 118.5Z" fill="#0F1B20"/>
<path d="M40.9573 114.474C41.1455 114.565 41.2729 114.706 41.3395 114.897C41.3988 115.09 41.3817 115.283 41.2886 115.477C41.193 115.675 41.0522 115.808 40.8663 115.877C40.6729 115.948 40.4822 115.939 40.2941 115.848C40.1059 115.758 39.9821 115.615 39.9229 115.422C39.8562 115.231 39.8708 115.036 39.9663 114.838C40.0595 114.645 40.2028 114.513 40.3961 114.441C40.582 114.372 40.7691 114.383 40.9573 114.474Z" fill="#0F1B20"/>
<path d="M38.9786 113.586L37.8027 119.079L36.6762 118.458L37.3245 115.952C37.3931 115.657 37.4686 115.372 37.5512 115.097C37.6289 114.82 37.7034 114.531 37.7747 114.232L37.7458 114.216C37.5349 114.438 37.3328 114.657 37.1396 114.87C36.9463 115.084 36.7455 115.3 36.5373 115.518L34.7697 117.406L33.6865 116.808L37.7004 112.881L38.9786 113.586Z" fill="#0F1B20"/>
<path d="M35.891 111.678C36.0681 111.789 36.1794 111.943 36.2248 112.14C36.2626 112.339 36.2246 112.529 36.1109 112.711C35.9942 112.898 35.8397 113.015 35.6474 113.063C35.4474 113.113 35.2589 113.083 35.0817 112.972C34.9046 112.861 34.7971 112.706 34.7593 112.508C34.7139 112.31 34.7496 112.119 34.8662 111.932C34.9799 111.751 35.1368 111.635 35.3367 111.584C35.5291 111.536 35.7138 111.567 35.891 111.678Z" fill="#0F1B20"/>
<path d="M30.6955 107.976C31.0122 108.232 31.2297 108.51 31.3478 108.81C31.4624 109.114 31.4907 109.451 31.4325 109.822L30.4073 109.778C30.4442 109.575 30.4389 109.397 30.3914 109.246C30.344 109.095 30.2667 108.976 30.1598 108.89C29.9886 108.752 29.8188 108.7 29.6503 108.733C29.4741 108.768 29.2738 108.924 29.0494 109.202L26.8587 111.917L25.915 111.156L28.1679 108.364C28.3854 108.094 28.631 107.886 28.9047 107.74C29.1784 107.593 29.4693 107.534 29.7775 107.564C30.0814 107.59 30.3874 107.727 30.6955 107.976Z" fill="#0F1B20"/>
<path d="M26.8965 104.6C27.396 105.088 27.6334 105.608 27.6086 106.16C27.5839 106.713 27.2564 107.312 26.6261 107.957L24.6085 110.021L23.7354 109.168L25.8395 107.015C26.2084 106.638 26.4089 106.318 26.4409 106.058C26.4729 105.796 26.3807 105.56 26.1644 105.349C25.9481 105.138 25.7079 105.049 25.4439 105.083C25.1799 105.117 24.8634 105.323 24.4945 105.701L22.3904 107.854L21.5527 107.035L23.5704 104.971C24.2006 104.325 24.7896 103.982 25.3374 103.941C25.8813 103.896 26.401 104.116 26.8965 104.6Z" fill="#0F1B20"/>
<path d="M24.4655 102.271L20.3328 105.712L19.3617 104.546C19.0099 104.123 18.7773 103.698 18.6642 103.27C18.551 102.841 18.5761 102.416 18.7397 101.994C18.8954 101.571 19.2099 101.162 19.6832 100.768C20.1565 100.374 20.6177 100.133 21.0669 100.046C21.5162 99.9577 21.9435 100.003 22.349 100.18C22.7466 100.357 23.1144 100.648 23.4522 101.054L24.4655 102.271ZM22.9354 101.967L22.7876 101.789C22.5906 101.553 22.3777 101.383 22.1489 101.28C21.9166 101.173 21.6628 101.152 21.3875 101.217C21.1122 101.281 20.8097 101.451 20.4801 101.725C20.1505 102 19.9333 102.263 19.8282 102.515C19.719 102.771 19.7003 103.019 19.772 103.26C19.8359 103.5 19.9664 103.738 20.1635 103.974L20.3113 104.152L22.9354 101.967Z" fill="#0F1B20"/>
<path d="M20.004 96.3457C20.2752 96.7469 20.4205 97.1633 20.4402 97.5942C20.4568 98.0211 20.3505 98.4388 20.1214 98.8459C19.8847 99.251 19.5249 99.6173 19.0421 99.9439C18.5548 100.274 18.0856 100.468 17.6345 100.528C17.1759 100.586 16.7561 100.525 16.3751 100.344C15.9865 100.162 15.6567 99.8706 15.3856 99.4701C15.1145 99.0689 14.9683 98.6565 14.9472 98.2329C14.9185 97.8073 15.0178 97.3949 15.2455 96.9957C15.47 96.5912 15.8237 96.2263 16.3065 95.8997C16.7893 95.5731 17.2645 95.3777 17.7324 95.3137C18.1925 95.2477 18.6191 95.3045 19.0123 95.4833C19.4024 95.6575 19.733 95.9452 20.004 96.3457ZM19.1364 96.933C18.9299 96.6275 18.6346 96.4757 18.2503 96.4764C17.866 96.4777 17.4506 96.6295 17.0042 96.931C16.5579 97.2332 16.2696 97.5579 16.1392 97.905C16.0088 98.2514 16.0469 98.578 16.2533 98.8828C16.4597 99.1884 16.7482 99.3447 17.1189 99.3533C17.4895 99.3612 17.898 99.2141 18.3444 98.9125C18.7907 98.6103 19.0859 98.2817 19.23 97.9254C19.374 97.5684 19.3428 97.2378 19.1364 96.933Z" fill="#0F1B20"/>
<path d="M16.3276 90.0089C16.5292 90.4127 16.6214 90.8304 16.6041 91.2633C16.5868 91.6961 16.4479 92.1065 16.1872 92.4952C15.9191 92.8812 15.517 93.2085 14.9808 93.4764C14.4497 93.7416 13.9455 93.865 13.4685 93.8452C12.984 93.8228 12.5574 93.6889 12.1885 93.4427C11.8123 93.1946 11.5234 92.8687 11.3218 92.4655C11.1669 92.1554 11.092 91.8452 11.0969 91.5358C11.097 91.2283 11.14 90.9518 11.2261 90.7057L12.2072 90.9347C12.1556 91.1141 12.1298 91.2896 12.1298 91.4619C12.1223 91.6315 12.1616 91.8024 12.2478 91.9746C12.3559 92.191 12.517 92.3599 12.7309 92.48C12.9424 92.5955 13.1907 92.6496 13.476 92.6423C13.7587 92.6305 14.0625 92.5427 14.3871 92.381C14.879 92.1349 15.2097 91.8373 15.3795 91.4883C15.5492 91.1392 15.5455 90.7875 15.3685 90.4332C15.2702 90.2365 15.1386 90.0841 14.9738 89.9759C14.8066 89.8624 14.6321 89.7779 14.4501 89.7212L14.8412 88.8066C15.515 88.9736 16.0105 89.3748 16.3276 90.0089Z" fill="#0F1B20"/>
<path d="M15.1424 87.7355L10.1408 89.7117L9.69531 88.584L13.7457 86.9839L12.9638 85.005L13.915 84.6289L15.1424 87.7355Z" fill="#0F1B20"/>
<path d="M13.1758 81.99C13.3775 82.6584 13.334 83.2285 13.0456 83.7003C12.7571 84.1721 12.1812 84.5383 11.3177 84.799L8.55383 85.6323L8.20141 84.4638L11.0838 83.5941C11.5891 83.4416 11.9189 83.2589 12.0729 83.0464C12.2269 82.8333 12.2602 82.5819 12.1729 82.2922C12.0856 82.0025 11.9181 81.8092 11.6704 81.7115C11.4227 81.6139 11.0462 81.6416 10.5408 81.794L7.65842 82.663L7.32031 81.5419L10.0842 80.7079C10.9476 80.4479 11.6291 80.4314 12.1287 80.6604C12.6267 80.8834 12.9758 81.3268 13.1758 81.99Z" fill="#0F1B20"/>
<path d="M12.1743 78.7705L6.89318 79.7854L6.54597 77.9794C6.47543 77.6118 6.4526 77.2746 6.47754 76.9678C6.49707 76.6616 6.58477 76.4036 6.74049 76.1951C6.89628 75.986 7.14432 75.8487 7.48447 75.7834C7.71667 75.7385 7.95811 75.7563 8.20878 75.8368C8.45299 75.9134 8.63637 76.0513 8.7589 76.2519L8.7913 76.2459C8.80958 75.9622 8.9042 75.7115 9.07517 75.4944C9.23967 75.272 9.4974 75.1275 9.84838 75.0602C10.2102 74.9902 10.5221 75.0259 10.7842 75.1658C11.0463 75.3057 11.2636 75.5188 11.4362 75.8045C11.6034 76.0915 11.7238 76.4267 11.7975 76.8101L12.1743 78.7705ZM8.77837 78.1885L8.67094 77.6296C8.61486 77.338 8.51773 77.1381 8.37942 77.0305C8.24006 76.917 8.07589 76.8787 7.88691 76.915C7.6817 76.9546 7.54887 77.0503 7.48843 77.2021C7.42799 77.3532 7.42475 77.5696 7.47873 77.8507L7.58767 78.4175L8.77837 78.1885ZM11.022 77.757L10.8928 77.0846C10.7672 76.4314 10.4668 76.1503 9.99163 76.242C9.75943 76.2862 9.6103 76.399 9.54425 76.5798C9.47279 76.7613 9.4687 77.0173 9.53205 77.3466L9.66124 78.0189L11.022 77.757Z" fill="#0F1B20"/>
<path d="M11.0735 70.5818C11.0989 70.9329 11.0584 71.2885 10.9522 71.6488C10.8455 72.0038 10.6759 72.3278 10.4434 72.6201L9.56258 71.9893C9.71329 71.7854 9.8322 71.5617 9.91936 71.3182C10.0065 71.0747 10.0422 70.8438 10.0264 70.6241C10.0082 70.372 9.94807 70.1886 9.84612 70.0751C9.74378 69.9556 9.61306 69.9015 9.45404 69.9128C9.284 69.9253 9.16575 70.0051 9.09924 70.1536C9.02692 70.2968 8.94985 70.4895 8.86816 70.7323L8.6225 71.4535C8.55882 71.6396 8.46981 71.8197 8.35559 71.9933C8.23583 72.1675 8.08373 72.3133 7.8993 72.4314C7.71488 72.5495 7.49376 72.6181 7.23602 72.6366C6.93982 72.6584 6.66532 72.5977 6.41253 72.4565C6.15935 72.3093 5.95117 72.0982 5.78799 71.8237C5.62441 71.5432 5.52913 71.2166 5.50221 70.8431C5.48004 70.5363 5.51818 70.2249 5.61662 69.9088C5.71514 69.5927 5.87119 69.3116 6.08492 69.0648L6.89455 69.6264C6.77011 69.8118 6.67858 69.9946 6.61999 70.1754C6.55585 70.3568 6.5315 70.5541 6.54701 70.7679C6.56206 70.9764 6.61801 71.1401 6.71487 71.2602C6.8058 71.375 6.92807 71.4271 7.08169 71.4159C7.24619 71.404 7.36404 71.3182 7.43523 71.1586C7.50603 70.9936 7.57967 70.7923 7.65628 70.5555L7.88611 69.8441C7.99439 69.5109 8.15671 69.2404 8.37321 69.0319C8.5897 68.8233 8.88716 68.7052 9.26558 68.6782C9.56172 68.6564 9.8417 68.7165 10.1055 68.857C10.3692 68.9975 10.5888 69.2133 10.7642 69.5043C10.9395 69.7946 11.0426 70.1536 11.0735 70.5818Z" fill="#0F1B20"/>
<path d="M10.8395 67.6444L5.46182 67.6781L5.4541 66.466L10.8318 66.4316L10.8395 67.6444Z" fill="#0F1B20"/>
<path d="M10.8146 65.1547L5.44922 64.7905L5.53348 63.548L8.29468 62.3299L9.5154 61.8839L9.51765 61.8509C9.23088 61.8535 8.91059 61.8621 8.55691 61.8766C8.20316 61.8911 7.86723 61.8878 7.54905 61.866L5.65635 61.738L5.73447 60.5859L11.0999 60.9495L11.0156 62.192L8.24618 63.4101L7.04196 63.8575L7.03972 63.8898C7.33784 63.8825 7.65806 63.874 8.00046 63.8641C8.34318 63.8489 8.67363 63.8522 8.99181 63.874L10.8928 64.0026L10.8146 65.1547Z" fill="#0F1B20"/>
<path d="M11.2134 60.0264L10.4889 59.9083L7.29687 56.9817L6.95084 59.1066L5.94141 58.9423L6.52735 55.3438L7.25193 55.4618L10.4439 58.388L10.8298 56.0194L11.8392 56.1838L11.2134 60.0264Z" fill="#0F1B20"/>
<path d="M12.0161 55.3018L6.81348 53.9403L7.12044 52.7673L9.12328 53.2915L9.59315 51.4961L7.59032 50.972L7.89939 49.791L13.1019 51.1525L12.7929 52.3335L10.6225 51.7655L10.1526 53.5609L12.323 54.1289L12.0161 55.3018Z" fill="#0F1B20"/>
<path d="M13.505 49.9409L8.45996 48.079L9.62512 44.9219L10.5846 45.276L9.83924 47.2956L10.8529 47.6697L11.4869 45.9519L12.4386 46.3031L11.8047 48.021L12.9653 48.4494L13.7393 46.3524L14.6988 46.7065L13.505 49.9409Z" fill="#0F1B20"/>
<path d="M15.1345 45.7286L10.2197 43.5456L10.7119 42.4375L15.6267 44.6205L15.1345 45.7286Z" fill="#0F1B20"/>
<path d="M16.1225 43.4421L11.4053 40.8598L12.043 39.6949L14.557 40.0839C14.7184 40.1096 14.8858 40.1416 15.0591 40.1801C15.2324 40.2186 15.4045 40.2533 15.5756 40.2842L15.5915 40.2553C15.4732 40.1278 15.3499 40.0039 15.2215 39.8834C15.0957 39.7582 14.9785 39.6345 14.8699 39.5123L13.1797 37.6185L13.8135 36.4609L18.5306 39.0433L17.9999 40.0128L16.2707 39.0662C16.1164 38.9817 15.9491 38.8807 15.7689 38.7633C15.5865 38.6384 15.4042 38.5135 15.2218 38.3886C15.0421 38.2588 14.8814 38.1458 14.7398 38.0495L14.724 38.0784L15.6355 39.0757L17.0686 40.7348L16.7478 41.3209L14.578 41.0075L13.2506 40.7698L13.2347 40.7987C13.3948 40.8613 13.5766 40.9357 13.7801 41.022C13.9836 41.1084 14.1857 41.1971 14.3866 41.2883C14.5853 41.3719 14.7618 41.4561 14.9161 41.5405L16.6453 42.4871L16.1225 43.4421Z" fill="#0F1B20"/>
<path d="M21.2553 35.2702C21.025 35.5855 20.7485 35.8193 20.426 35.9718C20.1034 36.1243 19.7598 36.1797 19.3953 36.1381C19.0307 36.0965 18.6664 35.9426 18.3024 35.6766C17.9427 35.4139 17.6877 35.1151 17.5373 34.7804C17.3901 34.4413 17.3352 34.1016 17.3728 33.7613C17.4059 33.4178 17.5181 33.1149 17.7096 32.8531C17.9398 32.5378 18.2007 32.33 18.492 32.2296C18.7821 32.1215 19.0844 32.1039 19.3987 32.177C19.7119 32.2424 20.0194 32.3854 20.3213 32.606C20.4056 32.6676 20.4868 32.7337 20.5647 32.8042C20.6381 32.8715 20.6915 32.9242 20.725 32.9623L19.2797 34.9402C19.5519 35.0709 19.8025 35.1008 20.0315 35.0298C20.256 34.9555 20.4478 34.8096 20.6068 34.592C20.7786 34.3567 20.8789 34.0657 20.9076 33.7188L21.7388 33.8256C21.7309 34.0787 21.6841 34.3339 21.5982 34.5912C21.5123 34.8486 21.398 35.0749 21.2553 35.2702ZM18.6289 34.4748L19.4999 33.2827C19.3179 33.1497 19.1367 33.0855 18.9564 33.0899C18.7749 33.0866 18.6128 33.1827 18.47 33.3781C18.3597 33.529 18.314 33.7033 18.333 33.9011C18.3475 34.0956 18.4461 34.2868 18.6289 34.4748Z" fill="#0F1B20"/>
<path d="M23.1928 32.8009C23.0591 32.9614 22.8916 33.0509 22.6902 33.0693C22.4882 33.0799 22.3047 33.0167 22.14 32.8794C21.9709 32.7387 21.8754 32.5697 21.8535 32.3726C21.831 32.1678 21.8865 31.985 22.0202 31.8244C22.1539 31.6639 22.3218 31.5783 22.5238 31.5676C22.7252 31.5493 22.9103 31.6105 23.0794 31.7512C23.2442 31.8884 23.3379 32.0594 23.3605 32.2643C23.3824 32.4615 23.3265 32.6403 23.1928 32.8009Z" fill="#0F1B20"/>
<path d="M24.5372 31.0918L19.4912 28.6224L20.3669 27.6796L22.6419 28.9148C22.9115 29.0527 23.1697 29.1949 23.4163 29.3414C23.6667 29.484 23.9287 29.626 24.2024 29.7677L24.2249 29.7435C24.0597 29.485 23.8968 29.2362 23.7363 28.9969C23.5757 28.7577 23.4149 28.5108 23.2537 28.2561L21.8488 26.0842L22.6909 25.1777L25.5308 30.0222L24.5372 31.0918Z" fill="#0F1B20"/>
<path d="M27.1366 28.5555C26.9862 28.7007 26.81 28.7715 26.6078 28.7679C26.4058 28.7567 26.2303 28.6738 26.0814 28.5196C25.9286 28.3613 25.852 28.183 25.8516 27.9848C25.8513 27.7786 25.9263 27.603 26.0766 27.4579C26.227 27.3127 26.4031 27.2458 26.6051 27.2571C26.8073 27.2606 26.9847 27.3415 27.1375 27.4998C27.2865 27.654 27.3611 27.8342 27.3614 28.0403C27.3618 28.2387 27.2869 28.4104 27.1366 28.5555Z" fill="#0F1B20"/>
<path d="M30.6861 25.4203C30.3695 25.6759 30.0521 25.8298 29.7337 25.8818C29.4118 25.9297 29.0763 25.8861 28.727 25.7511L28.9854 24.7581C29.1764 24.8371 29.3508 24.8694 29.5088 24.8549C29.6667 24.8405 29.7992 24.7901 29.9062 24.7038C30.0773 24.5656 30.1642 24.4106 30.1668 24.2388C30.1703 24.0593 30.0598 23.8305 29.8353 23.5524L27.6436 20.8378L28.5869 20.0762L30.8408 22.8678C31.0585 23.1373 31.21 23.4213 31.2955 23.7198C31.381 24.0182 31.3768 24.315 31.2827 24.61C31.193 24.9015 30.9941 25.1716 30.6861 25.4203Z" fill="#0F1B20"/>
<path d="M34.7883 22.4194C34.2056 22.8045 33.647 22.9265 33.1123 22.7856C32.5775 22.6447 32.0615 22.198 31.5643 21.4457L29.9727 19.0373L30.9911 18.3643L32.6509 20.8759C32.942 21.3163 33.2117 21.5796 33.4599 21.6661C33.7081 21.7524 33.9584 21.7123 34.2107 21.5455C34.463 21.3788 34.6004 21.1628 34.6228 20.8975C34.6452 20.6322 34.5109 20.2794 34.2198 19.839L32.5599 17.3274L33.537 16.6816L35.1287 19.09C35.626 19.8423 35.8369 20.4906 35.7615 21.0347C35.6907 21.5759 35.3663 22.0374 34.7883 22.4194Z" fill="#0F1B20"/>
<path d="M37.5721 20.5397L35.085 15.7717L36.4305 15.0698C36.9181 14.8155 37.383 14.6784 37.8254 14.6584C38.2677 14.6386 38.678 14.7533 39.0561 15.0026C39.4365 15.2445 39.7692 15.6385 40.054 16.1845C40.3388 16.7305 40.4766 17.2323 40.4672 17.6899C40.4578 18.1476 40.3234 18.5557 40.064 18.9143C39.8068 19.2655 39.4443 19.5632 38.9762 19.8073L37.5721 20.5397ZM38.1932 19.1087L38.3979 19.0019C38.671 18.8595 38.882 18.6874 39.031 18.4856C39.1849 18.2813 39.2594 18.0378 39.2545 17.7551C39.2497 17.4722 39.1481 17.1407 38.9498 16.7605C38.7514 16.3802 38.5402 16.112 38.3162 15.956C38.0896 15.7952 37.851 15.7242 37.6005 15.7433C37.3523 15.7549 37.0917 15.8319 36.8186 15.9744L36.6139 16.0811L38.1932 19.1087Z" fill="#0F1B20"/>
<path d="M44.3142 17.4363C43.8648 17.6158 43.4273 17.6693 43.0015 17.5966C42.5808 17.5219 42.1959 17.3293 41.8469 17.0187C41.5009 16.701 41.2198 16.2715 41.0035 15.7302C40.7852 15.1838 40.6951 14.684 40.7331 14.2306C40.774 13.7701 40.9233 13.373 41.1808 13.0392C41.4413 12.6982 41.7962 12.4381 42.2456 12.2585C42.6949 12.079 43.1289 12.024 43.5475 12.0936C43.9692 12.1561 44.351 12.3411 44.6929 12.6486C45.04 12.9541 45.3217 13.3774 45.5379 13.9186C45.7541 14.4599 45.8438 14.9659 45.8068 15.4366C45.7729 15.9002 45.6268 16.305 45.3683 16.651C45.1149 16.995 44.7636 17.2568 44.3142 17.4363ZM43.9255 16.4635C44.2677 16.3269 44.4792 16.0707 44.56 15.6949C44.6408 15.3192 44.5812 14.8812 44.3813 14.3807C44.1814 13.8803 43.9257 13.5295 43.6144 13.3282C43.303 13.1269 42.9764 13.0946 42.6342 13.2313C42.2921 13.3679 42.0776 13.6165 41.9906 13.9769C41.9036 14.3373 41.9602 14.7677 42.1601 15.2682C42.36 15.7686 42.6187 16.1271 42.9362 16.3437C43.2536 16.5603 43.5834 16.6003 43.9255 16.4635Z" fill="#0F1B20"/>
<path d="M51.2958 15.1959C50.8586 15.3064 50.4306 15.3069 50.0115 15.1975C49.5925 15.0879 49.221 14.8642 48.8974 14.5264C48.5777 14.1819 48.3443 13.7191 48.1973 13.1381C48.0516 12.5623 48.0395 12.0436 48.1609 11.5818C48.2863 11.1133 48.5086 10.7253 48.8278 10.4176C49.151 10.1033 49.5312 9.89089 49.9683 9.7803C50.3042 9.69531 50.6229 9.68845 50.9245 9.75958C51.2247 9.82543 51.4858 9.92672 51.7075 10.0635L51.2739 10.9729C51.1096 10.884 50.9434 10.8211 50.7753 10.7843C50.6111 10.7407 50.4358 10.7426 50.2492 10.7897C50.0146 10.8491 49.8156 10.9703 49.6521 11.1535C49.4939 11.3353 49.3878 11.5663 49.3339 11.8465C49.2854 12.1254 49.3056 12.4407 49.3946 12.7926C49.5294 13.3257 49.7493 13.7125 50.054 13.953C50.3587 14.1936 50.703 14.2653 51.0869 14.1682C51.3001 14.1142 51.4772 14.0184 51.6182 13.8807C51.7645 13.7415 51.8848 13.5891 51.979 13.4235L52.7888 14.0013C52.4811 14.6237 51.9835 15.0219 51.2958 15.1959Z" fill="#0F1B20"/>
<path d="M53.7565 14.5279L52.8965 9.21939L54.093 9.02539L54.7898 13.3243L56.8907 12.984L57.0544 13.9935L53.7565 14.5279Z" fill="#0F1B20"/>
<path d="M59.7987 13.834C59.1025 13.8882 58.5548 13.7241 58.1556 13.3416C57.7558 12.9591 57.5215 12.3183 57.4509 11.4193L57.2266 8.54115L58.444 8.44627L58.6776 11.4477C58.7191 11.974 58.8267 12.3351 59.0022 12.531C59.1777 12.7269 59.4159 12.8131 59.7175 12.7897C60.019 12.7661 60.2434 12.6438 60.3919 12.4226C60.5403 12.2015 60.5938 11.8278 60.5529 11.3015L60.3186 8.30004L61.4865 8.20898L61.7109 11.0871C61.7808 11.9862 61.6508 12.6554 61.3216 13.0948C60.9969 13.5337 60.4895 13.7801 59.7987 13.834Z" fill="#0F1B20"/>
<path d="M63.1553 13.5424L63.2787 8.16602L65.1177 8.20831C65.4911 8.21689 65.8257 8.26585 66.1206 8.35513C66.4156 8.43893 66.6492 8.57902 66.8207 8.77545C66.9923 8.97195 67.0735 9.24335 67.0662 9.58964C67.0603 9.82606 66.9916 10.0582 66.8603 10.2862C66.7343 10.5088 66.5601 10.6588 66.3384 10.7362L66.3377 10.7692C66.6109 10.847 66.8359 10.9924 67.0121 11.2055C67.1942 11.4132 67.2813 11.6957 67.2734 12.053C67.2648 12.4213 67.1645 12.7188 66.9718 12.9454C66.7798 13.172 66.5258 13.3394 66.2097 13.4476C65.8943 13.5503 65.5406 13.5972 65.1507 13.5883L63.1553 13.5424ZM64.4413 10.3461L65.0101 10.3592C65.307 10.366 65.5228 10.3132 65.6574 10.2008C65.7973 10.0885 65.8699 9.93619 65.8745 9.74378C65.8791 9.53487 65.8138 9.38482 65.6785 9.29376C65.5433 9.20264 65.3321 9.15374 65.0464 9.14721L64.469 9.13395L64.4413 10.3461ZM64.3892 12.6302L65.0735 12.6459C65.7386 12.6612 66.0764 12.427 66.0876 11.9433C66.0929 11.7068 66.0144 11.5373 65.8521 11.4346C65.6891 11.3263 65.4403 11.2684 65.1051 11.2606L64.4209 11.2449L64.3892 12.6302Z" fill="#0F1B20"/>
</g>
<path d="M64.0001 89.8284C81.546 89.8284 95.7698 75.6046 95.7698 58.0587C95.7698 40.5128 81.546 26.2891 64.0001 26.2891C46.4542 26.2891 32.2305 40.5128 32.2305 58.0587C32.2305 75.6046 46.4542 89.8284 64.0001 89.8284Z" fill="#C22B26"/>
<path fill-rule="evenodd" clip-rule="evenodd" d="M81.4853 36.6856L72.0909 35.7596L64.0002 41.0498C59.8875 43.8575 58.5202 48.4722 59.8112 54.8365C58.2027 57.1026 55.7759 57.7318 53.559 58.7803L53.3986 51.5342L51.6673 51.3419L53.3345 45.4424C53.3345 45.4424 55.3865 35.6634 55.5148 35.3748C55.643 35.0862 57.9836 23.9606 57.9836 23.9606L59.9394 17.0992L58.0798 15.7847L60.6448 12.0655L64.845 7.41643L69.6546 3.92158L68.4042 2.73529L62.9536 1.77344L58.176 4.04984L54.2323 5.42856L53.7834 10.2059L52.4689 14.5342L49.3588 15.432L47.9801 19.2475L43.8321 38.3626L42.4293 42.2202L40.7761 43.172L38.0709 39.2143L27.1496 31.4993L24.3942 33.8539L22.24 27.3913L21.8894 19.526L19.4345 21.6301L18.0318 24.9866L17.2804 27.0406L15.7775 30.0464L14.9258 32.2006L15.7274 33.9541L18.6831 35.0562L21.3884 37.6112L19.9356 40.3665L24.6447 42.7712L31.3577 46.8792L35.1652 54.895L34.4137 62.1259L38.3714 67.1688L43.7319 70.3251L49.6934 79.3927L40.175 88.3097L41.1268 90.6646L37.6199 93.7202L34.7143 95.223L36.2172 99.1813L37.3194 103.189L43.1307 105.443L43.9823 102.888L42.5295 100.734L42.3292 96.6759L43.8321 94.0713L47.0884 95.7746L58.0597 85.0036L65.3236 86.4059L72.488 85.0036L70.9851 94.5722L72.438 95.8745L69.4317 103.59L72.3874 105.143L79.0509 106.095L84.0603 106.495L83.8098 103.59L79.4013 102.086L77.247 99.1307L77.7979 96.4254L80.6037 95.724L83.6093 86.206L87.016 74.1821L84.9623 73.2808L83.4088 73.4306L82.307 71.8279L85.3626 69.3232L89.1204 63.7622L91.5751 58.0585L92.627 51.2878L92.0261 46.2781L94.5309 42.4706L92.577 36.2585L86.3645 34.8558L83.8598 36.6856H81.4853Z" fill="white"/>
<path d="M61.5067 118.353C59.9715 118.276 57.6487 118.058 57.2144 117.951C57.0648 117.914 56.5026 117.816 55.9647 117.734C54.5793 117.521 53.742 117.367 53.3022 117.245C53.093 117.187 52.4329 117.026 51.8353 116.888C51.2376 116.75 50.7021 116.596 50.6453 116.546C50.5886 116.495 50.4623 116.454 50.3648 116.454C50.1238 116.454 47.328 115.567 46.5105 115.231C46.391 115.182 45.9999 115.029 45.6412 114.891C45.2827 114.754 44.8352 114.571 44.6468 114.485C44.4585 114.399 44.2764 114.329 44.2422 114.329C44.0379 114.329 39.7205 112.156 38.6322 111.505C33.7863 108.608 29.9907 105.5 26.5208 101.587C23.9494 98.687 22.2661 96.3667 20.3683 93.1061C19.3871 91.42 17.7565 88.0565 17.0322 86.2244C13.0753 76.2147 12.2576 65.1834 14.688 54.5978C15.0093 53.1984 15.7345 50.5772 16.0452 49.693C16.9604 47.0887 17.6521 45.4134 18.699 43.2666C19.203 42.2328 19.6154 41.3695 19.6154 41.348C19.6154 41.3266 19.4442 41.2051 19.235 41.0781C18.6624 40.7303 18.7163 40.4029 19.5612 39.093C19.9496 38.4907 20.2675 37.9381 20.2675 37.8648C20.2675 37.6644 19.0817 36.5748 18.2399 36.0021C17.8309 35.7238 16.9695 35.2303 16.3253 34.9054C14.5403 34.0048 13.9684 33.2098 14.1065 31.8215C14.1751 31.1315 14.4081 30.6424 15.179 29.5693C15.8215 28.6748 15.9921 28.2617 16.7368 25.7949C17.7713 22.368 19.5998 19.2733 20.799 18.9192C21.5123 18.7087 22.3736 19.0583 22.6164 19.6568C22.7456 19.9747 22.7625 20.4471 22.7074 22.1941C22.6193 24.9809 22.8047 27.1513 23.3058 29.2065C23.4666 29.8662 24.4 31.7793 24.5608 31.7793C24.6297 31.7793 24.8376 31.5401 25.0226 31.2479C25.4106 30.6353 26.1988 29.7658 26.3663 29.7658C26.4289 29.7658 26.6979 29.9266 26.9639 30.1232L27.4476 30.4809L28.6117 29.3023C32.0957 25.7754 36.5534 22.5912 41.4575 20.1263C42.4437 19.6306 43.3483 19.1835 43.4678 19.1325C43.5874 19.0816 43.9053 18.9432 44.1742 18.8251C44.4432 18.7071 44.9078 18.5175 45.2067 18.4038C45.5053 18.2903 47.5424 17.49 48.0274 15.7279C48.2528 14.909 48.5073 14.2101 48.61 14.1279C48.7445 14.0204 49.1943 13.9891 50.3139 14.0091L51.8353 14.0364L53.1254 10.0567L52.9338 8.68882C52.8191 7.86971 52.7732 7.14502 52.8194 6.88253C52.9642 6.06124 53.2998 5.31726 53.7091 4.91017C54.414 4.20912 54.9066 3.99611 57.672 3.19629C59.4639 2.67805 60.6974 2.17454 61.7896 1.51551C62.8511 0.874853 63.43 0.775898 64.1748 1.10751C64.5683 1.2825 64.827 1.31615 65.4363 1.27122C66.268 1.2101 66.8215 1.3418 67.2172 1.69487C67.3936 1.85239 67.6224 1.9137 68.0343 1.9137C68.7302 1.9137 69.4342 2.21129 69.874 2.69114C70.1707 3.01493 70.2 3.1157 70.2 3.81093C70.2 4.41703 70.1551 4.6264 69.9828 4.82449C69.8631 4.96183 68.9096 5.65615 67.8636 6.36757C66.8177 7.07898 65.586 7.95339 65.1264 8.31082C64.0626 9.13793 62.5537 10.667 61.6837 11.7993C60.9954 12.6956 59.7681 14.5502 59.8381 14.5884C59.8594 14.5999 59.9989 14.6849 60.1483 14.7771C60.3696 14.9139 61.1358 14.9586 64.2776 15.0188C68.5512 15.1009 70.6678 15.2926 73.8948 15.8905C74.8016 16.0586 76.3645 16.4446 78.2415 16.9639C78.5402 17.0465 79.0048 17.1745 79.2738 17.2484C79.5427 17.3223 79.8117 17.4198 79.8714 17.4652C79.9312 17.5105 80.1497 17.5851 80.3568 17.6308C80.564 17.6764 80.8085 17.7534 80.9002 17.8017C80.9919 17.8501 81.5068 18.0517 82.0447 18.2496C82.5826 18.4475 83.228 18.7034 83.4787 18.8186C83.7293 18.9335 83.9583 19.0276 83.9872 19.0276C84.1575 19.0276 87.8936 20.8819 88.7278 21.3807C88.9968 21.5413 89.6324 21.9149 90.1404 22.2107C92.3933 23.5224 95.4402 25.7934 97.8558 27.9612C99.0351 29.0193 101.351 31.4155 102.519 32.7859C104.26 34.8296 106.809 38.5073 107.906 40.5599C108.136 40.9906 108.445 41.5694 108.593 41.8463C109.167 42.92 110.181 45.1049 110.618 46.2087C110.776 46.6085 110.949 47.0363 111.002 47.1595C111.385 48.0522 112.206 50.5088 112.628 52.0251C112.757 52.4865 112.933 53.1089 113.02 53.4081C113.107 53.7074 113.178 54.0479 113.178 54.1647C113.178 54.2815 113.225 54.4645 113.282 54.5714C113.339 54.6782 113.439 55.0676 113.505 55.4367C113.571 55.8058 113.696 56.4854 113.784 56.9467C114.366 59.9975 114.759 64.5871 114.668 67.2443C114.584 69.6491 114.402 72.2963 114.271 72.9981C114.213 73.3057 114.115 73.9349 114.052 74.3962C113.856 75.8452 113.5 77.7443 113.191 78.9823C112.81 80.5134 112.415 81.9282 112.317 82.1179C112.268 82.2123 112.191 82.4623 112.146 82.6736C112.101 82.8848 112.025 83.1349 111.977 83.2292C111.93 83.3234 111.784 83.7278 111.653 84.1278C111.429 84.8093 111.231 85.3367 111 85.8615C110.946 85.9844 110.808 86.3368 110.694 86.6444C109.964 88.6016 108.427 91.6785 106.952 94.1335C104.132 98.8278 100.076 103.493 95.6825 107.094C94.0422 108.439 91.0087 110.533 89.1927 111.575C87.6164 112.48 84.4236 114.105 84.2235 114.105C84.1901 114.105 83.9092 114.231 83.5996 114.385C83.2898 114.539 82.9844 114.666 82.9209 114.668C82.8575 114.67 82.6099 114.769 82.3707 114.888C82.1317 115.007 81.8534 115.106 81.7524 115.108C81.6513 115.11 81.541 115.158 81.5072 115.214C81.4735 115.27 81.2509 115.35 81.0124 115.391C80.774 115.433 80.5548 115.507 80.5253 115.556C80.4956 115.605 80.2875 115.681 80.0627 115.724C79.8381 115.767 79.6052 115.841 79.5454 115.888C79.4857 115.935 79.2412 116.028 79.002 116.094C78.763 116.16 78.2984 116.297 77.9698 116.398C74.6566 117.421 70.626 118.102 66.3966 118.353C64.5256 118.464 63.7055 118.464 61.5067 118.353ZM82.6534 105.586C82.7687 105.394 82.6696 104.948 82.4351 104.604C82.299 104.405 82.0609 104.29 81.5492 104.174C79.7755 103.776 78.588 103.224 77.4835 102.286C76.6128 101.547 76.1826 100.954 75.9388 100.158C75.7644 99.5887 75.7644 99.5014 75.9405 98.6361C76.0429 98.1313 76.154 97.6127 76.1873 97.4839C76.2446 97.262 76.1915 97.2447 75.1801 97.1569C74.5927 97.1059 73.7733 97.0603 73.3589 97.0555L72.6056 97.047L72.5149 97.4384C72.2826 98.4385 71.9815 99.4232 71.711 100.067C71.3021 101.04 70.8132 102.365 70.6957 102.817C70.5261 103.469 70.7288 104.037 71.2532 104.38C71.5874 104.598 71.715 104.61 73.0442 104.548C73.8697 104.509 74.8125 104.531 75.2718 104.6C75.9616 104.704 76.4072 104.848 78.1096 105.516C78.6579 105.731 79.6332 105.814 81.1097 105.774C82.1631 105.744 82.5895 105.692 82.6537 105.586H82.6534ZM42.4714 104.046C42.6833 103.828 42.4257 103.366 41.8815 102.989C41.1557 102.486 41.0425 102.298 40.855 101.289C40.6524 100.2 40.6544 98.9591 40.8608 97.5441C41.0482 96.2606 41.336 95.5845 41.9908 94.8898C42.2355 94.6304 42.4356 94.3863 42.4356 94.3474C42.4356 94.3085 42.321 94.1702 42.1811 94.04C41.888 93.7675 40.8692 92.5022 40.7162 92.2209C40.6274 92.0574 40.4968 92.136 39.7618 92.7959C38.5845 93.8528 37.8105 94.3421 36.76 94.6935C35.8087 95.0119 35.4809 95.2762 35.4809 95.7246C35.4809 96.0809 35.5902 96.2815 36.3789 97.3715C37.2714 98.6048 37.5999 99.385 37.8198 100.794C38.0284 102.13 38.3113 102.77 39.0005 103.466C39.6233 104.096 40.1847 104.268 41.3982 104.202C41.9333 104.173 42.4163 104.103 42.4714 104.046ZM97.2404 101.301C103.37 95.0106 107.57 87.5961 109.789 79.15C111.224 73.6873 111.722 67.7626 111.223 62.0922C110.513 54.0299 107.688 45.9045 103.309 39.3295C102.858 38.6528 102.34 37.8977 102.157 37.6516C101.088 36.2157 100.105 34.9835 99.4797 34.2959C99.0877 33.8653 98.6964 33.4251 98.6102 33.3178C97.8973 32.4296 94.5445 29.3853 92.5856 27.8476C89.447 25.384 84.5897 22.6865 80.7408 21.2699C80.2028 21.0718 79.6878 20.8702 79.5961 20.8219C79.5046 20.7735 79.2602 20.6965 79.0528 20.6509C78.8456 20.6052 78.6271 20.5292 78.5675 20.4817C78.5076 20.4344 78.2388 20.3422 77.9698 20.2767C77.7007 20.2112 77.1874 20.0759 76.8287 19.976C73.6145 19.0807 70.7739 18.6008 67.2661 18.3609C65.4409 18.2361 60.6874 18.2145 60.515 18.3304C60.3624 18.4326 59.4343 21.2697 59.0243 22.8866C58.9932 23.0098 58.8879 23.3872 58.7905 23.7256C58.5668 24.5028 58.3312 25.3971 58.1426 26.1863C58.0617 26.5249 57.9138 27.1037 57.8139 27.4727C57.6307 28.15 57.5938 28.3322 57.2695 30.1573C56.9426 31.997 56.7734 33.0539 56.6161 34.24C56.2685 36.8598 56.1753 37.8133 55.9689 38.6024C53.9359 46.3725 52.759 50.4592 52.759 50.4592H53.4444C54.434 50.4592 54.4884 50.5319 54.364 51.6895C54.3078 52.2125 54.024 54.0474 53.9871 55.2746C53.9214 57.4595 53.9245 57.506 54.1388 57.506C54.2592 57.506 54.9266 57.2099 55.622 56.8481C56.3176 56.4863 56.9724 56.1631 57.0776 56.1298C57.1827 56.0963 57.6109 55.9404 58.0293 55.7832C58.4477 55.6259 58.881 55.4962 58.9923 55.4949C59.1669 55.4929 59.1427 55.2179 59.1183 55.0731C59.0005 54.3719 58.4218 52.4252 58.2847 51.2877C58.1635 50.2818 58.0575 49.2331 58.2956 48.2485C58.6063 46.9646 59.2373 44.9881 60.1483 43.5854C61.0694 42.1673 62.851 40.5155 63.8221 39.7399C64.7582 38.9924 65.9542 38.0063 67.1573 37.36C68.7682 36.4951 71.1874 34.7512 73.4871 34.5495C76.0056 34.3286 82.0511 35.8495 82.2683 36.0349C82.476 36.2126 82.6157 36.0878 83.4077 35.0169C85.1076 32.7183 86.8635 31.671 89.0396 31.6578C90.1241 31.6514 90.3831 31.6876 91.2271 31.9637C92.837 32.4907 94.4161 33.7991 95.3243 35.3586C96.7017 37.7242 96.7944 40.2153 95.5991 42.7411C95.1928 43.5998 94.9387 43.9647 94.2754 44.6427C93.8241 45.104 93.3203 45.5767 93.156 45.693C92.8193 45.9311 92.7922 46.1665 93.0254 46.8238C93.1127 47.07 93.2582 47.9434 93.3488 48.7651C93.4967 50.1086 93.4962 50.435 93.3428 52.009C93.2492 52.9714 93.1471 53.8343 93.1164 53.9266C93.0854 54.019 92.9914 54.4719 92.9072 54.9334C92.5847 56.6991 92.4452 57.6779 91.9318 58.9602C90.6005 62.2855 89.9662 64.8241 85.1418 70.6526C84.9251 70.9142 84.8455 71.0463 84.4833 71.4301C84.1213 71.8141 83.7464 72.2436 83.6506 72.3845L83.4759 72.641L83.9558 72.5621C85.789 72.4944 85.7839 72.5744 86.6994 73.2089L87.2246 73.6435L87.6893 73.4046C88.2647 73.1089 89.0811 72.9866 89.5635 73.3835C90.2827 73.9753 91.5847 75.6913 92.0048 76.9552C92.4246 78.2189 92.2794 80.1085 92.0832 80.9661C91.6872 82.6966 91.0989 83.6741 90.055 84.9236C88.0768 87.2912 84.8064 87.5124 84.2181 87.4424C83.4097 87.346 83.4967 87.1921 83.0255 89.5526C82.9273 90.0448 82.8003 90.6489 82.7434 90.8949C82.6865 91.141 82.5157 91.9967 82.364 92.7965C81.8266 95.6291 81.5656 96.6423 81.3413 96.7658C80.9726 96.969 79.67 97.2149 78.9628 97.2149C78.2512 97.2149 77.9698 97.3286 77.9698 97.6165C77.9698 97.6947 78.3628 97.8297 78.9206 97.9434C79.8839 98.1397 83.3317 98.8034 86.5672 99.7133C89.9382 100.661 93.0938 101.857 93.7265 102.105C94.7104 102.49 95.5433 102.791 95.6463 102.799C95.7161 102.804 96.4334 102.13 97.2404 101.301ZM32.5757 101.756C34.1512 101 34.8682 100.676 35.1091 100.614C35.255 100.576 35.9762 99.7895 34.8812 98.2774C33.9662 97.0139 33.7476 96.5342 33.7446 95.7842C33.7394 94.5093 34.3611 93.8915 36.5834 92.9642C37.5137 92.576 38.3169 91.9224 39.1007 90.9158L39.607 90.2657L39.3492 89.7414C38.8883 88.8039 38.8241 88.391 39.0744 87.9743C39.1942 87.7745 39.3361 87.5948 39.3894 87.5752C39.4427 87.5553 39.7465 87.2876 40.0646 86.98C40.3828 86.6724 41.0342 86.0688 41.5122 85.6386C41.9901 85.2086 42.4057 84.8286 42.4356 84.7941C42.4654 84.7597 43.4189 83.8786 44.5545 82.8361C45.6901 81.7934 47.0328 80.5312 47.5381 80.0313L48.4569 79.1222L47.2392 77.8021C46.5695 77.0761 46.0216 76.4313 46.0216 76.3691C46.0216 76.3071 40.4938 69.4183 39.2526 68.7872C38.1878 68.2457 37.9753 68.1178 37.3208 67.6245C34.837 65.7522 33.6501 63.8373 33.4059 61.3091C33.232 59.5077 33.4873 57.498 34.085 55.9611L34.3162 55.3672L33.8543 54.0648C33.6002 53.3485 33.2808 52.5085 33.1442 52.1981C33.0077 51.8876 32.7414 51.2823 32.5525 50.853C32.0449 49.6995 31.5909 49.0552 30.4715 47.8996C29.4574 46.8528 28.7105 46.2661 27.7111 45.7317C26.9002 45.2981 22.4689 43.0767 22.4147 43.0767C22.281 43.0767 20.3014 47.3805 19.7651 48.8371C19.5612 49.3908 19.3495 49.9446 19.2943 50.0677C19.2392 50.1907 19.0884 50.6436 18.9591 51.0743C18.8298 51.5049 18.681 51.958 18.6284 52.081C18.5756 52.2041 18.4858 52.5061 18.4287 52.7522C18.2093 53.6952 18.0723 54.2143 17.9857 54.4301C17.9365 54.553 17.8373 54.9558 17.7656 55.3249C17.694 55.6939 17.5643 56.3231 17.4775 56.723C17.2476 57.7813 17.0315 59.1461 16.8219 60.8618C16.4752 63.6994 16.5818 70.9284 17.0091 73.5573C17.5146 76.6678 17.7775 77.9595 18.2386 79.5975C18.3252 79.9051 18.5018 80.5343 18.6311 80.9958C18.7605 81.4571 18.9063 81.9118 18.9553 82.0061C19.0044 82.1005 19.0797 82.3429 19.1228 82.5448C19.1659 82.7469 19.2696 83.0474 19.3533 83.2124C19.437 83.3774 19.5057 83.5761 19.5061 83.6537C19.5064 83.7316 19.5536 83.8826 19.6109 83.9893C19.6682 84.0963 19.9566 84.7877 20.2519 85.5259C21.2498 88.0206 22.8249 91.0701 24.3832 93.5235C24.969 94.4458 26.7025 96.8718 27.1807 97.4384C27.3104 97.5923 27.6708 98.0202 27.9814 98.3892C28.2921 98.7583 29.188 99.7566 29.9722 100.608C31.5713 102.343 31.4585 102.293 32.5757 101.756ZM43.957 98.1781C47.6085 97.4163 65.2317 96.3518 67.9724 96.5808C69.1975 96.6832 70.2611 96.767 70.3359 96.7672C70.4106 96.7672 70.4717 96.6472 70.4717 96.5C70.4717 96.2799 70.3855 96.2066 69.9828 96.0842C69.4407 95.9194 69.4318 95.8926 69.6084 94.9649C69.6714 94.6337 69.7936 93.9472 69.88 93.4397C69.9664 92.9322 70.1134 92.0765 70.2069 91.5381C70.4947 89.8804 70.6986 88.4687 70.7641 87.679C70.835 86.8259 70.7994 86.7955 70.0665 87.0869C68.8903 87.5544 66.3557 87.7944 64.4226 87.6212C62.7444 87.4709 60.9626 87.1304 60.2027 86.8146C60.0831 86.765 59.5605 86.5853 59.0412 86.4154L58.097 86.1061L56.2121 87.9413C55.1754 88.9505 53.9134 90.154 53.4077 90.6153C52.9018 91.0768 52.1417 91.7815 51.7184 92.1813C51.2949 92.5811 50.5879 93.2356 50.1469 93.6354C49.7062 94.0352 48.7717 94.9287 48.0707 95.6209C47.3696 96.313 46.7208 96.8793 46.6291 96.8793C46.3874 96.8793 45.3389 96.3849 44.598 95.9218C43.8644 95.463 43.6903 95.4781 43.2088 96.0425C42.8235 96.4942 42.6544 97.0483 42.6535 97.8601C42.6529 98.412 42.6686 98.4462 42.8974 98.3987C43.0318 98.3709 43.5086 98.2716 43.957 98.1781ZM79.5023 95.0965C79.9976 94.9678 80.0036 94.9608 80.1398 94.329C80.3487 93.3615 80.5375 92.4641 80.7923 91.2305C80.9193 90.6153 81.0674 89.9357 81.121 89.7205C81.411 88.5603 81.6818 87.1322 81.6354 87.0091C81.6063 86.9316 81.3564 86.7824 81.0799 86.6777C80.5806 86.4885 79.6902 85.9137 78.4771 84.9976C77.8466 84.5216 77.8388 84.5192 76.9556 84.5343C76.0272 84.5503 75.0857 84.831 73.4922 85.567L72.7874 85.8924L72.7148 86.604C72.6246 87.4888 72.3781 89.3263 72.162 90.7272C72.0718 91.3116 71.9257 92.2681 71.8373 92.8525C71.7489 93.437 71.6447 94.0969 71.6055 94.3194C71.5191 94.8125 71.5024 94.8061 73.6774 95.0932C75.3882 95.3189 78.6379 95.3209 79.5023 95.0965ZM47.7309 93.3982C52.794 88.6951 53.817 87.7329 54.9551 86.6034C55.6598 85.9042 56.2355 85.3001 56.2346 85.2612C56.2337 85.2223 55.7806 84.9465 55.2273 84.6485C53.9812 83.9775 52.1178 82.6733 50.7543 81.5178L49.7204 80.642L48.3812 81.8534C47.0491 83.0585 42.8539 86.9189 41.6328 88.0628L40.9933 88.6622L41.3776 89.5186C42.0756 91.0739 43.0959 92.399 44.3115 93.3295C45.1164 93.9457 46.2384 94.6408 46.3726 94.6064C46.4161 94.5953 47.0275 94.0516 47.7309 93.3982ZM68.3528 85.4147C69.0567 85.2359 70.4439 84.7482 71.1521 84.4303C71.354 84.3399 71.4302 84.2407 71.3849 84.1278C71.348 84.0354 71.1795 83.532 71.0107 83.0091C70.2209 80.5632 69.2799 77.9595 68.7066 76.6334C68.1447 75.3337 67.1915 73.3895 67.1162 73.3895C67.07 73.3895 66.776 73.7146 66.4628 74.1121L65.8933 74.8346L66.1734 75.3263C66.6434 76.1521 67.255 78.2079 67.0265 78.1941C66.9789 78.191 66.5732 77.7312 66.125 77.1716C65.253 76.0831 64.1265 75.1322 63.2453 74.7405C62.9465 74.6077 62.5674 74.4384 62.4029 74.3644C62.2385 74.2901 62.1195 74.179 62.1388 74.1171C62.1579 74.0553 62.537 73.7823 62.9812 73.5105C63.5997 73.1318 64.3105 72.4775 66.0192 70.7139C67.2459 69.4479 68.5341 68.0738 68.8817 67.6607L69.5139 66.9095L69.2858 66.5799C68.9567 66.1042 68.0646 65.304 67.2293 64.7352C66.3391 64.1291 64.8313 63.2683 64.3577 63.0961L64.006 62.9682L61.1638 65.8579C56.8067 70.2876 56.1946 71.2351 56.1892 73.5573C56.1861 74.8766 56.4533 75.7976 57.3362 77.5114C58.089 78.9725 59.7921 81.4916 60.7307 82.5321C60.9103 82.7311 61.0263 82.9256 60.9887 82.9643C60.7784 83.1808 58.1273 81.4447 57.1132 80.4264C55.5929 78.8997 54.6352 77.1125 54.122 74.8437C53.9092 73.9032 53.9119 73.188 54.1315 72.2781C54.5631 70.4893 55.7002 68.8604 58.4799 66.0494L60.0419 64.47L59.2659 64.0501C58.1239 63.4326 56.3267 62.1664 55.5749 61.45L54.9171 60.8232L54.3541 61.0264C50.8771 62.2819 48.0025 65.2074 45.6439 69.8908L45.1246 70.9224L45.3724 71.5511C45.9981 73.1378 48.1271 76.1093 50.0965 78.1448C53.8359 82.0091 58.8366 84.7977 63.5171 85.6283C64.2103 85.7514 67.6199 85.6006 68.3528 85.4147ZM73.872 83.4231C74.2098 83.2735 74.2104 83.1566 73.8793 81.7228C73.6338 80.6585 72.8796 77.9578 72.6768 77.4163C72.6422 77.3241 72.5058 76.9408 72.3735 76.5648C72.035 75.6024 71.9026 75.2924 71.283 74.0146C70.5287 72.4584 69.4555 70.4853 69.3621 70.4831C69.2739 70.4809 68.2895 71.5414 68.1547 71.7837C68.0977 71.8863 68.162 72.1144 68.3328 72.4153C68.9321 73.4716 69.1941 73.9958 69.7787 75.311C70.7675 77.5351 71.5846 79.6726 72.4438 82.282C72.687 83.0203 72.9067 83.6601 72.9322 83.7039C72.9773 83.7811 73.243 83.7019 73.872 83.4231ZM76.468 82.4344C76.468 82.4344 76.8911 82.338 77.1837 82.338C77.4766 82.338 77.7453 82.308 77.7808 82.2715C77.8164 82.2349 77.7513 82.0461 77.6363 81.852C77.3598 81.3854 77.3615 80.6623 77.6394 80.3549C77.9667 79.9935 78.2606 80.1483 78.6173 80.8704C78.9151 81.4733 79.2916 81.9084 79.9674 82.4312C80.4163 82.7782 81.2218 82.766 81.6287 82.4059C81.8694 82.1927 81.931 82.043 81.931 81.6721C81.931 81.2306 81.8806 81.1573 80.9737 80.2807C80.1382 79.4734 80.0209 79.3139 80.0525 79.029C80.0884 78.7058 80.0949 78.7029 80.7407 78.7258C81.0992 78.7386 81.8379 78.7811 82.3821 78.8202C83.268 78.8841 83.4206 78.8657 83.8412 78.6449C84.3907 78.3564 85.3763 77.4272 85.6939 76.8982C85.8159 76.6951 86.03 76.2288 86.1695 75.8623C86.3915 75.2795 86.4042 75.1682 86.2721 74.9739C86.0608 74.6634 85.0939 73.9489 84.8851 73.9489C84.7898 73.9489 84.4407 74.0999 84.1093 74.2843C83.7779 74.4689 83.4277 74.6199 83.3311 74.6199C83.2347 74.6199 82.9395 74.4147 82.6752 74.1641C82.1657 73.6808 81.4373 73.2842 81.0512 73.2802C80.9233 73.2786 80.5737 73.5041 80.2746 73.781C79.4586 74.5361 79.2562 74.436 79.3471 73.3222C79.3718 73.021 79.3426 72.6989 79.2824 72.6066C79.1368 72.3838 78.2875 72.4062 77.6436 72.6494C77.3747 72.7511 76.8491 72.8658 76.4754 72.9044L75.7962 72.9744L75.7973 73.6575C75.7989 74.5357 75.9828 75.2186 76.5529 76.4635C77.0577 77.5656 77.0466 77.7828 76.4829 77.8416C76.2117 77.8696 76.0119 77.7381 75.2516 77.0305C74.4298 76.2658 74.0574 76.0298 74.0574 76.2741C74.0574 76.3225 74.1986 76.7882 74.3714 77.3088C74.544 77.8294 74.7685 78.5574 74.8703 78.9265C74.972 79.2955 75.1179 79.8241 75.1947 80.101C75.2712 80.3779 75.4226 81.0685 75.5308 81.6359C75.7244 82.6505 75.7322 82.6664 76.0063 82.5991C76.1596 82.5616 76.3674 82.4874 76.468 82.4344ZM73.935 70.6505C73.8246 70.1038 73.7123 69.8896 73.3238 69.4839C72.2324 68.3443 72.1965 67.6103 73.1737 66.4C73.6403 65.822 73.6821 65.6418 73.3644 65.5783C73.0839 65.5225 72.4699 66.06 72.136 66.6541C71.7443 67.3508 71.1646 68.2122 70.7812 68.6675C70.6109 68.8696 70.4717 69.0914 70.4717 69.1605C70.4717 69.2294 70.8377 69.8796 71.2852 70.6052C71.7327 71.3308 72.3442 72.4273 72.6444 73.0417C73.1783 74.1353 73.1986 74.1599 73.5966 74.1937L74.0034 74.2285L74.0367 72.7743C74.0565 71.9085 74.0154 71.0492 73.935 70.6505ZM77.0111 71.1412C77.6774 70.9662 78.5615 70.2797 79.4724 69.2298C79.7091 68.9571 79.7149 68.9175 79.5632 68.6192C79.3542 68.2082 78.6359 67.3493 78.5013 67.3493C78.4442 67.3493 78.3674 67.4373 78.3305 67.545C78.1831 67.9749 77.8304 68.2443 77.4148 68.2443C77.0622 68.2443 76.9513 68.175 76.604 67.7389C76.0631 67.0592 75.2392 66.6701 74.8247 66.8986C74.6211 67.0106 74.0578 67.76 74.0578 67.9187C74.0578 67.9572 74.3255 68.1719 74.6529 68.3956C75.4557 68.9442 75.6878 69.4257 75.6878 70.5426V71.3957L76.1496 71.3209C76.4036 71.28 76.7912 71.1991 77.0111 71.1412ZM84.4404 68.6635C86.7123 66.3146 87.9845 64.4412 88.9785 61.9803C90.4419 58.357 91.1087 55.6472 91.5118 51.6855C91.689 49.9455 91.6893 49.7637 91.5174 48.6203C91.2533 46.8633 91.1256 46.7904 90.3871 47.9764C89.7566 48.9888 89.1509 49.2108 88.2318 48.7662L87.7381 48.5272L87.4452 48.8093C87.0938 49.1475 86.5315 49.4523 86.2592 49.4523C86.1506 49.4523 85.5247 50.0104 84.8682 50.6925C83.4636 52.1521 81.8361 53.6377 80.5388 54.6451C78.8394 55.9642 76.2959 57.3938 74.6555 57.9517C74.2371 58.0939 73.7913 58.2491 73.6649 58.2964C73.4897 58.3619 73.4191 58.5105 73.3676 58.9229C73.2172 60.1262 73.1781 60.0236 73.786 60.0161C75.3411 59.997 77.1086 59.5533 78.6333 58.7992C81.0805 57.589 81.7911 57.0165 86.4671 52.4899C86.8076 52.1603 87.1394 51.9089 87.2047 51.9313C87.3377 51.9769 86.4024 53.94 85.7521 54.9803C85.5245 55.3445 84.9561 56.0439 84.4888 56.5347L83.6393 57.4267L83.5683 58.2215C83.5294 58.6586 83.4243 59.2863 83.3348 59.6165C83.1212 60.4056 83.178 60.5262 83.763 60.5262C84.5737 60.5262 86.6152 61.4042 86.3751 61.6496C86.3243 61.7016 85.9161 61.7944 85.4678 61.8559C83.3417 62.1474 82.6093 62.3826 82.0291 62.9604C81.8585 63.1303 81.3084 63.7868 80.8069 64.4192C80.3052 65.0519 79.8013 65.6367 79.6869 65.7191C79.4905 65.8608 79.517 65.9141 80.1737 66.693C81.0848 67.7744 81.6804 68.6219 82.1615 69.523C82.3892 69.9494 82.6261 70.2575 82.7261 70.2575C82.8209 70.2575 83.5923 69.5403 84.4404 68.6635ZM42.6882 66.5384C43.6887 64.4738 45.4202 62.2939 47.1355 60.9396C47.9747 60.2771 47.9499 60.4476 47.4806 58.562C47.1324 57.1633 46.9342 56.5727 46.5011 55.6445L46.1282 54.8455L45.45 55.0589C44.4998 55.3578 42.1562 56.5747 40.8277 57.4591C40.2124 57.8689 39.689 58.1838 39.665 58.1589C39.564 58.055 40.8317 56.4721 41.8922 55.378C44.1951 53.002 46.5987 51.6171 49.5532 50.9643C50.0314 50.8586 50.496 50.7344 50.5857 50.688C50.6752 50.6418 50.8365 50.2567 50.9438 49.8323C51.3864 48.085 51.8179 46.5719 52.3352 44.955C54.044 39.6143 54.0471 39.6012 54.7669 34.24C55.0001 32.5027 55.2422 30.9896 55.4381 30.0454C55.5274 29.6148 55.674 28.9101 55.7637 28.4794C55.9811 27.4367 56.5255 25.1406 56.8515 23.8935C57.3066 22.1508 58.1157 19.3661 58.4206 18.4921C58.5341 18.1668 58.627 17.8781 58.627 17.8505C58.627 17.7084 56.0175 16.7796 55.0335 16.5712C53.8204 16.3143 51.9106 16.084 50.9116 16.0739L49.8793 16.0635L49.483 17.2939C49.2651 17.9705 48.9789 18.9019 48.8469 19.3632C48.715 19.8247 48.5351 20.4286 48.4472 20.7054C48.0227 22.0419 47.0026 26.0335 46.5747 28.0321C46.443 28.6473 46.2891 29.352 46.2329 29.5981C46.1327 30.0356 45.9377 31.0493 45.6949 32.3945C45.3853 34.1085 45.0422 36.625 45.1088 36.6935C45.1366 36.7221 45.659 36.2395 46.2697 35.621C47.5548 34.3195 49.519 32.7694 49.6771 32.932C49.7457 33.0026 49.2734 33.7045 47.9606 35.4833C43.9448 40.9244 43.4164 41.6662 42.0225 43.8201C40.4816 46.201 39.7059 47.5582 38.5796 49.844C36.4513 54.1629 35.5786 56.5385 35.3232 58.7077C35.0525 61.0055 35.406 62.6242 36.4966 64.0834C37.544 65.4844 38.893 66.4163 41.6748 67.6602C41.8244 67.7269 41.9763 67.785 42.0126 67.7891C42.0488 67.7933 42.353 67.2305 42.6882 66.5384ZM78.5218 64.4501C79.2307 63.4113 81.5378 60.1649 81.6847 59.2146C81.7153 59.0173 81.2762 59.2203 81.0914 59.2958C80.1675 59.6727 77.0508 61.0522 76.1407 61.476C75.9514 61.5643 75.5645 61.5694 75.6303 61.8395C75.6683 61.9952 76.9506 65.0126 77.4326 65.4477C77.798 65.7777 78.2444 64.8569 78.5218 64.4501ZM70.0439 62.6983C70.2811 62.3816 70.6846 61.7005 70.9405 61.1846C72.1975 58.6506 72.0667 57.3336 70.3715 55.4527C69.9297 54.9627 69.2035 54.4499 69.0707 54.5343C69.0218 54.5654 68.9545 54.9825 68.9209 55.4613C68.8783 56.0697 68.7546 56.6007 68.5099 57.2265C67.9169 58.7424 67.6952 58.8528 66.8224 58.0668C66.4934 57.7703 66.0992 57.4955 65.9468 57.4562C65.6484 57.3791 65.3643 57.5468 65.3643 57.8C65.3643 58.047 65.8567 59.0296 66.2118 59.491C66.6251 60.0279 66.8008 60.6988 66.7571 61.5716L66.7227 62.2582L67.3217 62.5947C67.6512 62.7797 68.1871 63.1188 68.5125 63.3482L69.104 63.7655L69.3583 63.5195C69.4982 63.3844 69.8067 63.0148 70.0439 62.6983ZM61.8643 62.6191C62.1159 62.3554 62.7429 61.5119 62.911 61.2812C63.1675 60.9294 63.2813 60.8618 63.6168 60.8618C63.8369 60.8618 64.4311 61.1081 64.6853 61.1499C65.1211 61.2216 65.1466 61.2108 65.1391 60.9598C65.1349 60.8136 65.0369 60.5429 64.9217 60.3583C64.8064 60.1738 64.6509 59.897 64.5761 59.7431C64.157 58.8825 64.1039 58.8483 63.1849 58.8483C62.7173 58.8483 62.3109 58.8878 62.282 58.936C62.2143 59.0486 62.5075 60.0427 62.5434 60.3288C62.6818 61.4333 58.0742 60.8661 57.7304 60.8381C57.0297 60.7812 56.9102 60.9254 57.4332 61.1972C57.6107 61.2896 58.4287 61.7107 59.2509 62.1331C60.0731 62.5556 60.8193 62.9427 60.909 62.9935C61.2209 63.1699 61.4099 63.0959 61.8643 62.6191ZM50.8862 58.4079C51.4401 58.158 51.9412 57.9535 52 57.9535C52.0622 57.9535 52.1084 57.5204 52.1104 56.9189C52.1124 56.3497 52.1811 55.1038 52.2635 54.1503C52.3458 53.1968 52.4027 52.4055 52.39 52.3919C52.3321 52.3302 50.1349 52.7802 49.4446 52.9952C48.4712 53.2983 48.2893 53.3914 48.3505 53.5553C48.3823 53.641 48.486 53.9988 48.5806 54.3502C48.6752 54.7017 48.7943 55.1151 48.8452 55.2688C48.9309 55.5275 49.1919 56.7464 49.4997 58.3251C49.5812 58.743 49.672 58.956 49.7529 58.9194C49.8224 58.8879 50.3325 58.6577 50.8862 58.4079ZM62.9166 56.8983C63.8145 56.7581 63.918 56.7149 64.2207 56.3553C64.4015 56.1405 64.6562 55.9088 64.7868 55.8405C65.1055 55.6737 65.9768 55.6917 66.4768 55.8753C66.8775 56.0226 66.8852 56.0199 67.0474 55.6856C67.6781 54.3839 66.5072 49.8951 65.1109 48.2621L64.6938 47.7746H65.1431C65.3903 47.7746 65.749 47.857 65.9402 47.9576C66.3207 48.1581 67.1357 48.7844 67.1941 48.9215C67.2142 48.9688 67.3216 49.0576 67.4327 49.1189C67.627 49.2259 67.6323 49.1566 67.5691 47.2688C67.5126 45.5753 67.5253 45.3159 67.6626 45.3701C67.8835 45.4574 68.5685 46.714 68.7942 47.4463C68.8974 47.7806 69.0202 48.0984 69.0671 48.1526C69.2028 48.3091 72.1884 45.1409 73.0255 43.9522C73.7651 42.9017 74.1485 42.5124 74.0274 42.9351C73.9963 43.0437 73.8406 43.5856 73.6816 44.1393C72.9376 46.7287 71.4397 49.0883 69.5844 50.5925C69.1162 50.9721 68.7446 51.301 68.733 51.3128C67.8029 52.2742 71.3669 54.4921 72.952 53.37C73.9608 52.6556 76.1975 51.7763 76.4943 51.5464C76.7117 51.3781 76.9873 50.5963 76.99 50.1396C76.9942 49.5222 78.2153 44.454 78.7927 42.6601C79.3338 40.9784 80.1504 38.8076 80.5453 38.0016C80.6921 37.7018 80.7716 37.4157 80.7221 37.3657C80.5537 37.1952 78.8905 36.7736 76.7745 36.3648C75.3913 36.0978 75.0457 36.0914 74.0916 36.3154C70.9516 37.0526 66.4011 39.7124 63.4898 42.5124C61.9375 44.0055 60.7282 45.9633 60.3202 47.6439C59.9562 49.1438 60.1699 51.5353 60.9119 54.2622C61.0163 54.6458 61.528 56.4767 61.6389 56.8628C61.705 57.0937 61.6721 57.0928 62.9166 56.8983ZM74.1871 56.4295C76.6701 55.5122 78.9335 54.1007 81.2298 52.0372C82.4589 50.9326 83.9469 49.4272 83.943 49.2924C83.9409 49.2266 83.7293 49.0416 83.4723 48.8812L83.005 48.5896L82.4162 49.1422C80.9933 50.4775 79.4537 51.6684 77.7524 52.7497C76.6226 53.4676 73.3442 55.1535 73.0733 55.1557C72.9802 55.1562 72.8152 55.2237 72.7068 55.3054C72.5187 55.4469 72.5218 55.4735 72.7755 55.8926C72.9216 56.134 73.0728 56.4195 73.1115 56.5272C73.2023 56.781 73.2467 56.777 74.1871 56.4295ZM35.9318 50.9625C36.7558 48.7953 37.866 46.6092 39.0891 44.7454C39.4354 44.2176 39.7189 43.7142 39.7189 43.6269C39.7187 43.2784 39.0651 42.08 38.4428 41.2869C37.4078 39.9681 36.278 39.0739 32.7875 36.8105C31.3413 35.8728 28.4779 33.822 27.4499 32.988C26.6714 32.3565 26.6383 32.3415 26.4331 32.5325C26.1779 32.7701 24.2564 35.3651 23.326 36.7288C22.9586 37.2671 22.3647 38.1373 22.0061 38.6626C21.6474 39.1878 21.3542 39.6393 21.3542 39.6658C21.3542 39.7459 25.5138 42.4054 25.6389 42.4054C25.6584 42.4054 26.0593 42.6234 26.5297 42.8899C27.0003 43.1562 27.9694 43.6909 28.6834 44.0782C30.5706 45.1016 31.6615 45.8796 32.5334 46.8244C33.3514 47.7108 33.8471 48.6016 34.7114 50.7387C34.9603 51.3539 35.2159 51.9831 35.2792 52.137C35.3938 52.415 35.3952 52.4141 35.5567 51.9691C35.6461 51.723 35.8149 51.2701 35.9318 50.9625ZM79.8292 49.0327C80.2839 48.6791 80.9775 48.0877 81.3702 47.7186L82.0842 47.0476L81.9245 46.4324C81.7118 45.6133 81.7113 45.0901 81.9225 44.6699C82.2936 43.9314 82.8393 44.1475 83.0796 45.1285C83.2633 45.8778 83.5285 46.577 83.757 46.9139C84.241 47.6273 85.3577 48.0302 86.0391 47.7372C86.2334 47.6537 86.5788 47.351 86.8067 47.0647C87.298 46.4475 87.5711 46.4046 88.3371 46.8238C88.6181 46.9776 88.9072 47.1034 88.9792 47.1034C89.1636 47.1034 89.3213 46.8089 89.5274 46.0793C89.6826 45.5298 89.7601 45.4214 90.1346 45.2306L90.5641 45.0119L90.0535 44.5755C89.3075 43.9382 88.8366 43.4188 88.8366 43.234C88.8366 43.1449 88.9632 43.0125 89.118 42.9399C89.357 42.8278 89.4709 42.8471 89.8758 43.0681C90.1381 43.2113 90.6016 43.5742 90.9059 43.8747L91.4592 44.4207L92.0395 44.0244C93.0327 43.3459 93.0532 43.4519 91.643 41.9793C90.9543 41.26 90.1563 40.3572 89.8694 39.9727C89.5826 39.5881 89.2961 39.2735 89.2326 39.2735C89.1693 39.2735 88.9443 39.4464 88.7325 39.658C87.7584 40.6306 86.4719 40.9741 85.5722 40.5017C85.0288 40.2164 85.0015 39.8497 85.4739 39.1883C86.0364 38.4011 86.0471 37.4775 85.4959 37.2884C84.5626 36.9682 83.1803 38.353 83.1876 39.6011C83.1896 39.9696 83.2948 40.1319 83.5651 40.1846C83.8832 40.2468 83.8854 40.5404 83.5703 40.9259C82.8662 41.7875 81.9379 41.4817 81.8648 40.364C81.8497 40.1333 81.7864 39.9458 81.7238 39.9472C81.6027 39.95 80.7945 42.0267 80.2666 43.6919C79.9545 44.6769 79.0321 48.4255 78.8973 49.2566C78.86 49.4874 78.8682 49.6761 78.9158 49.6759C78.9633 49.6759 79.3744 49.3863 79.8292 49.0327ZM41.3987 41.4827C41.5117 41.2827 42.8543 39.3519 42.9674 39.2249C43.1395 39.0319 43.1834 38.7552 43.2341 37.5397C43.2674 36.7399 43.37 35.6074 43.462 35.023C43.5539 34.4385 43.6843 33.6081 43.7518 33.1774C44.2156 30.2186 45.0699 26.2946 46.1569 22.1276C46.2177 21.8947 46.2375 21.6735 46.2011 21.6361C46.0143 21.4438 42.2358 23.2524 39.723 24.7373C37.599 25.9922 34.6398 28.1009 33.1988 29.386C33.0494 29.5191 32.5359 29.9734 32.0579 30.3954C31.5796 30.8172 30.9268 31.4268 30.607 31.7496L30.0255 32.3368L30.607 32.8159C30.9268 33.0795 31.2941 33.3695 31.423 33.4601C31.552 33.5506 32.0655 33.9248 32.5641 34.2913C33.0627 34.6581 34.1552 35.4331 34.9918 36.014C35.8285 36.5946 36.8799 37.3262 37.3281 37.6392C38.8053 38.6715 40.6113 40.6723 40.9485 41.6506C41.0473 41.9367 41.1675 41.8919 41.3987 41.4827ZM22.3501 34.9958C22.8482 34.3041 23.3158 33.6554 23.3891 33.5545C23.5006 33.4006 23.4563 33.2818 23.1176 32.8267C22.6495 32.198 22.3954 31.7705 22.1622 31.2199C22.0711 31.0046 21.9534 30.7277 21.9008 30.6047C21.3053 29.2095 21.0068 26.6404 21.0495 23.281C21.0677 21.8643 21.0499 20.7053 21.0102 20.7054C20.7601 20.7058 19.4741 22.9927 19.0288 24.2289C18.9178 24.5365 18.7636 24.9392 18.6859 25.1238C18.5657 25.4091 18.0538 27.024 17.6398 28.4235C17.4147 29.1844 17.0962 29.7922 16.4578 30.6784C15.3745 32.1822 15.5563 32.6075 17.7585 33.7205C19.376 34.538 20.1471 35.0499 20.8061 35.7436C21.0726 36.024 21.3253 36.2535 21.3675 36.2535C21.4099 36.2535 21.8519 35.6874 22.3501 34.9958ZM57.7559 14.5795C58.3867 13.0805 60.3815 10.3925 62.1608 8.64389C63.3372 7.48772 64.4934 6.63987 66.7384 5.28707C68.3999 4.28588 68.7888 3.96337 68.6069 3.73763C68.4736 3.57228 67.9675 3.58046 66.9754 3.764C66.5971 3.83385 66.5616 3.81384 66.2949 3.3791C65.9549 2.82484 65.6013 2.77609 64.9943 3.20011C64.7742 3.35381 64.4979 3.47969 64.3804 3.47969C64.1745 3.47969 64.1065 3.41802 63.6417 2.8092L63.4285 2.53016L62.9567 2.78482C62.6971 2.92471 62.1425 3.2363 61.7241 3.47696C60.7911 4.01375 58.7383 4.72608 57.2305 5.03623C55.9829 5.29289 55.15 5.69253 54.796 6.20422C54.5098 6.61786 54.4329 7.47007 54.6079 8.28954C54.7994 9.18687 54.8589 10.2761 54.735 10.6193C54.2115 12.0691 53.6053 14.239 53.6973 14.3336C53.7566 14.3947 54.1933 14.5173 54.6676 14.6059C55.142 14.6945 55.8723 14.8633 56.2907 14.9806C57.4567 15.308 57.4483 15.3104 57.7559 14.5795Z" fill="#0F1B20"/>
</g>
<defs>
<clipPath id="clip0_6027_174">
<rect width="128" height="128" fill="white"/>
</clipPath>
<clipPath id="clip1_6027_174">
<rect width="117.057" height="117.057" fill="white" transform="translate(5.44922 8.16602)"/>
</clipPath>
</defs>
</svg>
