<svg width="1024" height="1024" viewBox="0 0 1024 1024" fill="none" xmlns="http://www.w3.org/2000/svg">
<g clip-path="url(#clip0_6027_177)">
<g clip-path="url(#clip1_6027_177)">
<path d="M591.347 119.958C588.145 119.353 585.561 118.215 583.591 116.544C581.63 114.829 580.151 112.556 579.163 109.726L586.56 106.149C587.072 107.724 587.78 108.956 588.689 109.845C589.593 110.733 590.591 111.279 591.669 111.484C593.402 111.811 594.797 111.537 595.859 110.662C596.974 109.752 597.792 107.891 598.326 105.079L603.514 77.6289L613.051 79.4316L607.72 107.66C607.202 110.386 606.256 112.784 604.878 114.853C603.504 116.923 601.67 118.437 599.383 119.394C597.143 120.359 594.459 120.547 591.347 119.958Z" fill="#0F1B20"/>
<path d="M630.936 129.444C625.568 127.881 621.927 125.103 620.02 121.108C618.107 117.113 618.165 111.649 620.178 104.716L626.64 82.5215L636.023 85.2525L629.287 108.398C628.109 112.456 627.898 115.467 628.653 117.431C629.414 119.394 630.957 120.714 633.281 121.39C635.606 122.067 637.635 121.786 639.373 120.549C641.106 119.312 642.564 116.664 643.748 112.605L650.484 89.4602L659.487 92.0803L653.031 114.275C651.013 121.208 648.144 125.854 644.435 128.213C640.763 130.583 636.261 130.994 630.936 129.444Z" fill="#0F1B20"/>
<path d="M656.914 136.735L673.176 96.8652L684.43 101.455C688.509 103.119 691.748 105.251 694.162 107.851C696.572 110.451 697.993 113.551 698.426 117.152C698.917 120.728 698.231 124.799 696.365 129.365C694.506 133.931 692.149 137.369 689.307 139.68C686.459 141.991 683.273 143.281 679.739 143.551C676.262 143.797 672.569 143.121 668.654 141.525L656.914 136.735ZM668.87 133.125L670.582 133.824C672.865 134.755 675.01 135.154 677.012 135.021C679.057 134.904 680.933 134.099 682.634 132.607C684.335 131.114 685.836 128.778 687.135 125.598C688.43 122.418 688.974 119.74 688.773 117.564C688.583 115.347 687.78 113.522 686.369 112.09C685.011 110.633 683.194 109.439 680.911 108.508L679.2 107.809L668.87 133.125Z" fill="#0F1B20"/>
<path d="M710.742 161.864C707.318 160.047 704.729 157.65 702.97 154.672C701.247 151.716 700.434 148.367 700.529 144.627C700.677 140.869 701.845 136.928 704.032 132.806C706.246 128.645 708.829 125.507 711.798 123.393C714.826 121.261 718.022 120.118 721.393 119.964C724.827 119.792 728.251 120.614 731.675 122.43C735.098 124.247 737.677 126.614 739.42 129.532C741.222 132.432 742.067 135.722 741.956 139.403C741.888 143.104 740.757 147.015 738.57 151.138C736.377 155.26 733.751 158.426 730.687 160.636C727.675 162.828 724.447 164.029 720.997 164.241C717.584 164.472 714.165 163.68 710.742 161.864ZM714.673 154.455C717.283 155.838 719.94 155.804 722.656 154.354C725.366 152.904 727.739 150.273 729.762 146.462C731.78 142.651 732.605 139.273 732.224 136.329C731.844 133.385 730.349 131.222 727.744 129.839C725.139 128.455 722.508 128.43 719.856 129.765C717.203 131.098 714.868 133.671 712.845 137.482C710.821 141.293 709.965 144.729 710.287 147.79C710.604 150.85 712.068 153.072 714.673 154.455Z" fill="#0F1B20"/>
<path d="M760.554 192.885C757.611 190.79 755.392 188.18 753.887 185.054C752.386 181.928 751.826 178.503 752.212 174.776C752.656 171.039 754.272 167.217 757.057 163.308C759.815 159.435 762.921 156.673 766.366 155.021C769.874 153.358 773.398 152.704 776.928 153.058C780.52 153.402 783.791 154.621 786.728 156.716C788.99 158.326 790.68 160.235 791.811 162.445C792.963 164.619 793.697 166.737 794.014 168.799L786.216 170.866C785.909 169.402 785.429 168.062 784.784 166.845C784.198 165.617 783.278 164.556 782.021 163.662C780.446 162.538 778.671 161.952 776.706 161.903C774.777 161.879 772.817 162.429 770.831 163.553C768.876 164.701 767.053 166.459 765.368 168.826C762.816 172.412 761.595 175.758 761.706 178.864C761.817 181.971 763.164 184.444 765.743 186.283C767.18 187.305 768.68 187.89 770.255 188.037C771.861 188.208 773.414 188.153 774.915 187.87L775.58 195.807C770.191 197.155 765.177 196.18 760.554 192.885Z" fill="#0F1B20"/>
<path d="M777.445 204.485L805.358 171.699L812.755 177.993L790.147 204.544L803.117 215.59L797.808 221.825L777.445 204.485Z" fill="#0F1B20"/>
<path d="M812.977 237.684C809.03 233.722 807.186 229.531 807.445 225.11C807.704 220.69 810.388 215.932 815.507 210.836L831.886 194.525L838.781 201.451L821.699 218.461C818.704 221.444 817.066 223.978 816.781 226.063C816.495 228.149 817.209 230.049 818.92 231.765C820.627 233.481 822.54 234.216 824.658 233.971C826.777 233.727 829.334 232.113 832.324 229.131L849.406 212.12L856.026 218.765L839.647 235.076C834.528 240.172 829.778 242.855 825.387 243.126C821.028 243.429 816.892 241.615 812.977 237.684Z" fill="#0F1B20"/>
<path d="M832.208 256.648L865.642 229.51L874.919 240.945C876.805 243.269 878.243 245.562 879.231 247.825C880.25 250.059 880.604 252.209 880.298 254.274C879.986 256.339 878.755 258.246 876.605 259.994C875.136 261.187 873.361 261.973 871.29 262.352C869.277 262.738 867.459 262.455 865.837 261.504L865.631 261.671C866.571 263.741 866.851 265.867 866.471 268.049C866.149 270.238 864.875 272.234 862.656 274.038C860.363 275.897 858.028 276.828 855.651 276.831C853.273 276.835 850.932 276.153 848.634 274.787C846.368 273.394 844.249 271.483 842.278 269.056L832.208 256.648ZM858.377 247.911L861.246 251.449C862.746 253.295 864.189 254.337 865.568 254.574C866.984 254.846 868.283 254.497 869.483 253.526C870.782 252.471 871.358 251.295 871.21 249.996C871.062 248.698 870.27 247.16 868.828 245.382L865.911 241.793L858.377 247.911ZM844.17 259.44L847.625 263.696C850.985 267.833 854.166 268.68 857.172 266.238C858.646 265.045 859.27 263.686 859.053 262.161C858.868 260.608 857.933 258.789 856.242 256.704L852.787 252.448L844.17 259.44Z" fill="#0F1B20"/>
<path d="M870.946 310.238C869.44 307.858 868.378 305.195 867.76 302.249C867.168 299.34 867.142 296.414 867.676 293.471L876.277 294.588C875.987 296.596 875.997 298.624 876.298 300.671C876.61 302.718 877.233 304.486 878.174 305.973C879.257 307.684 880.377 308.748 881.524 309.166C882.702 309.621 883.827 309.507 884.905 308.824C886.057 308.094 886.59 307.08 886.495 305.783C886.464 304.5 886.279 302.846 885.935 300.823L884.942 294.808C884.683 293.251 884.63 291.644 884.778 289.986C884.963 288.304 885.481 286.698 886.337 285.167C887.193 283.636 888.492 282.316 890.241 281.209C892.249 279.937 894.415 279.322 896.735 279.363C899.075 279.443 901.342 280.143 903.534 281.465C905.753 282.823 907.661 284.767 909.262 287.296C910.582 289.38 911.491 291.721 911.993 294.323C912.495 296.924 912.458 299.501 911.887 302.052L904.047 301.154C904.221 299.375 904.174 297.737 903.904 296.241C903.672 294.721 903.096 293.236 902.177 291.785C901.284 290.371 900.264 289.426 899.128 288.947C898.05 288.482 896.993 288.579 895.953 289.239C894.838 289.946 894.331 290.997 894.431 292.392C894.558 293.824 894.801 295.521 895.155 297.484L896.227 303.372C896.724 306.132 896.602 308.657 895.868 310.949C895.128 313.24 893.48 315.199 890.912 316.824C888.905 318.097 886.701 318.735 884.308 318.74C881.915 318.745 879.548 318.055 877.207 316.669C874.872 315.283 872.785 313.139 870.946 310.238Z" fill="#0F1B20"/>
<path d="M883.695 330.032L921.519 309.455L926.164 317.983L888.334 338.56L883.695 330.032Z" fill="#0F1B20"/>
<path d="M893.269 347.483L932.535 329.809L936.63 338.902L921.725 357.923L914.788 365.682L914.894 365.922C916.912 364.822 919.142 363.553 921.583 362.115C924.023 360.678 926.412 359.434 928.742 358.387L942.589 352.152L946.388 360.583L907.122 378.257L903.027 369.164L917.99 350.115L924.811 342.412L924.7 342.171C922.623 343.348 920.394 344.616 918.011 345.978C915.649 347.38 913.303 348.604 910.973 349.653L897.062 355.915L893.269 347.483Z" fill="#0F1B20"/>
<path d="M909.806 385.228L915.369 383.331L948.951 391.981L943.387 375.665L951.138 373.023L960.553 400.653L954.99 402.55L921.413 393.9L927.616 412.091L919.86 414.733L909.806 385.228Z" fill="#0F1B20"/>
<path d="M921.989 421.826L963.882 411.869L966.127 421.314L949.997 425.147L953.431 439.604L969.561 435.771L971.823 445.28L929.93 455.237L927.669 445.728L945.147 441.574L941.707 427.117L924.229 431.271L921.989 421.826Z" fill="#0F1B20"/>
<path d="M931.627 465.226L974.291 459.375L977.947 486.07L969.837 487.184L967.496 470.108L958.921 471.281L960.913 485.805L952.866 486.91L950.874 472.385L941.058 473.727L943.488 491.464L935.378 492.573L931.627 465.226Z" fill="#0F1B20"/>
<path d="M935.985 501.165L978.934 498.053L979.637 507.737L936.688 510.844L935.985 501.165Z" fill="#0F1B20"/>
<path d="M937.623 520.979L980.683 521.375L980.588 532.005L961.372 538.763C960.136 539.196 958.831 539.603 957.463 539.983C956.094 540.369 954.747 540.776 953.421 541.204V541.468C954.736 541.922 956.078 542.329 957.442 542.693C958.799 543.1 960.094 543.528 961.325 543.983L980.414 550.962L980.319 561.524L937.259 561.133L937.338 552.283L953.125 552.426C954.53 552.441 956.094 552.521 957.811 552.669C959.571 552.859 961.33 553.054 963.089 553.244C964.849 553.482 966.407 553.672 967.771 553.815L967.776 553.551L957.568 549.958L941.184 543.666L941.232 538.319L957.732 532.327L967.998 528.983L968.003 528.719C966.635 528.883 965.071 529.046 963.306 529.205C961.547 529.369 959.782 529.506 958.017 529.622C956.3 529.781 954.736 529.855 953.331 529.844L937.544 529.696L937.623 520.979Z" fill="#0F1B20"/>
<path d="M932.318 598.063C932.752 594.967 933.819 592.267 935.515 589.974C937.216 587.675 939.43 585.985 942.156 584.896C944.888 583.808 948.042 583.517 951.619 584.014C955.148 584.511 958.081 585.652 960.405 587.443C962.73 589.276 964.405 591.469 965.424 594.01C966.492 596.562 966.846 599.119 966.486 601.692C966.058 604.788 965.002 607.245 963.327 609.052C961.689 610.917 959.623 612.185 957.129 612.856C954.673 613.58 951.962 613.739 948.993 613.326C948.169 613.21 947.345 613.052 946.526 612.846C945.754 612.65 945.178 612.481 944.798 612.338L947.508 592.911C945.094 593.017 943.213 593.757 941.866 595.125C940.561 596.499 939.763 598.253 939.462 600.393C939.139 602.701 939.536 605.137 940.645 607.689L934.379 610.082C933.476 608.27 932.836 606.289 932.472 604.149C932.102 602.009 932.054 599.98 932.318 598.063ZM953.864 593.73L952.226 605.438C954.018 605.687 955.539 605.454 956.791 604.741C958.086 604.08 958.868 602.786 959.137 600.868C959.343 599.383 959.005 597.983 958.123 596.657C957.283 595.342 955.861 594.364 953.864 593.73Z" fill="#0F1B20"/>
<path d="M928.002 622.785C928.34 621.147 929.185 619.879 930.533 618.986C931.922 618.146 933.455 617.903 935.135 618.246C936.862 618.6 938.173 619.435 939.076 620.74C940.006 622.103 940.307 623.604 939.969 625.242C939.636 626.879 938.775 628.116 937.385 628.956C936.038 629.849 934.495 630.118 932.773 629.764C931.087 629.415 929.783 628.565 928.847 627.207C927.949 625.897 927.664 624.423 928.002 622.785Z" fill="#0F1B20"/>
<path d="M924.959 639.955L969.91 638.344L967.29 648.303L946.563 648.171C944.138 648.218 941.776 648.187 939.483 648.086C937.174 648.023 934.791 648.007 932.324 648.044L932.255 648.298C934.395 649.497 936.487 650.644 938.527 651.727C940.561 652.81 942.632 653.946 944.73 655.135L962.852 665.162L960.326 674.747L921.984 651.262L924.959 639.955Z" fill="#0F1B20"/>
<path d="M916.188 667.646C916.701 666.051 917.678 664.888 919.121 664.149C920.589 663.467 922.143 663.393 923.775 663.921C925.45 664.46 926.665 665.432 927.416 666.833C928.192 668.286 928.33 669.807 927.812 671.403C927.299 672.993 926.306 674.129 924.837 674.811C923.395 675.55 921.836 675.645 920.161 675.106C918.529 674.578 917.319 673.585 916.542 672.132C915.792 670.732 915.67 669.236 916.188 667.646Z" fill="#0F1B20"/>
<path d="M897.517 715.296C898.885 712.343 900.623 710.113 902.726 708.613C904.866 707.133 907.434 706.256 910.419 705.992L912.078 714.039C910.424 714.145 909.056 714.53 907.973 715.196C906.889 715.856 906.118 716.686 905.653 717.684C904.913 719.285 904.839 720.707 905.426 721.948C906.034 723.248 907.64 724.5 910.234 725.705L935.579 737.455L931.5 746.262L905.431 734.179C902.916 733.012 900.824 731.511 899.154 729.667C897.485 727.829 896.465 725.678 896.095 723.227C895.71 720.817 896.185 718.176 897.517 715.296Z" fill="#0F1B20"/>
<path d="M878.713 751.24C881.54 746.411 885.116 743.558 889.459 742.681C893.797 741.804 899.086 743.188 905.315 746.839L925.265 758.515L920.325 766.953L899.524 754.775C895.879 752.635 893.01 751.7 890.918 751.953C888.831 752.212 887.172 753.385 885.951 755.477C884.725 757.564 884.504 759.604 885.28 761.585C886.057 763.572 888.271 765.632 891.916 767.767L912.722 779.945L907.983 788.039L888.033 776.363C881.804 772.712 877.994 768.802 876.615 764.623C875.21 760.486 875.907 756.027 878.713 751.24Z" fill="#0F1B20"/>
<path d="M865.272 774.703L899.994 800.175L892.804 809.97C890.204 813.521 887.346 816.152 884.239 817.853C881.127 819.559 877.778 820.188 874.18 819.734C870.592 819.338 866.809 817.684 862.831 814.767C858.858 811.851 856.094 808.734 854.541 805.41C852.993 802.087 852.517 798.679 853.114 795.187C853.722 791.758 855.275 788.334 857.775 784.927L865.272 774.703ZM865.869 787.183L864.775 788.673C863.317 790.659 862.408 792.64 862.049 794.616C861.668 796.629 861.991 798.642 863.026 800.655C864.062 802.674 865.964 804.697 868.732 806.726C871.501 808.755 873.963 809.938 876.124 810.266C878.322 810.62 880.287 810.287 882.02 809.267C883.764 808.306 885.365 806.832 886.823 804.845L887.916 803.35L865.869 787.183Z" fill="#0F1B20"/>
<path d="M827.929 820.722C830.518 817.837 833.471 815.903 836.784 814.915C840.07 813.964 843.515 813.98 847.123 814.973C850.732 816.03 854.272 818.117 857.743 821.234C861.246 824.383 863.666 827.654 865.002 831.046C866.339 834.496 866.672 837.877 866.006 841.184C865.346 844.555 863.719 847.683 861.13 850.563C858.541 853.447 855.619 855.381 852.365 856.364C849.121 857.41 845.723 857.436 842.178 856.438C838.601 855.476 835.077 853.431 831.606 850.314C828.135 847.192 825.699 843.879 824.299 840.371C822.899 836.921 822.513 833.497 823.142 830.095C823.744 826.729 825.335 823.601 827.929 820.722ZM834.163 826.327C832.192 828.52 831.585 831.109 832.335 834.094C833.085 837.079 835.067 840.012 838.274 842.896C841.486 845.781 844.561 847.392 847.509 847.736C850.462 848.079 852.919 847.149 854.89 844.957C856.866 842.764 857.521 840.218 856.871 837.322C856.216 834.427 854.288 831.537 851.075 828.652C847.868 825.767 844.741 824.114 841.692 823.68C838.643 823.252 836.134 824.135 834.163 826.327Z" fill="#0F1B20"/>
<path d="M785.777 861.6C788.519 859.254 791.589 857.727 794.981 857.019C798.378 856.316 801.839 856.596 805.363 857.87C808.881 859.201 812.2 861.689 815.322 865.335C818.418 868.949 820.352 872.626 821.123 876.367C821.889 880.176 821.678 883.748 820.484 887.092C819.285 890.495 817.309 893.374 814.572 895.72C812.464 897.527 810.202 898.711 807.783 899.276C805.394 899.868 803.165 900.074 801.088 899.878L800.962 891.816C802.457 891.868 803.873 891.726 805.21 891.393C806.541 891.123 807.793 890.484 808.961 889.48C810.435 888.223 811.428 886.643 811.951 884.746C812.437 882.881 812.379 880.847 811.766 878.644C811.122 876.473 809.854 874.28 807.962 872.077C805.099 868.732 802.145 866.735 799.107 866.096C796.064 865.457 793.338 866.165 790.934 868.23C789.592 869.377 788.667 870.692 788.144 872.182C787.589 873.699 787.267 875.22 787.182 876.747L779.315 875.485C779.31 869.921 781.461 865.298 785.777 861.6Z" fill="#0F1B20"/>
<path d="M770.45 875.199L795.541 910.191L787.648 915.85L767.333 887.51L753.485 897.437L748.714 890.785L770.45 875.199Z" fill="#0F1B20"/>
<path d="M729.615 901.702C734.412 898.828 738.924 898.051 743.151 899.372C747.383 900.687 751.351 904.449 755.06 910.641L766.932 930.475L758.542 935.495L746.162 914.81C743.991 911.186 741.93 908.982 739.976 908.2C738.021 907.424 736.002 907.656 733.926 908.898C731.85 910.145 730.671 911.82 730.397 913.938C730.122 916.052 731.073 918.921 733.244 922.545L745.624 943.23L737.577 948.048L725.705 928.214C721.996 922.017 720.538 916.76 721.336 912.433C722.096 908.127 724.854 904.55 729.615 901.702Z" fill="#0F1B20"/>
<path d="M706.605 915.762L724.833 954.775L711.487 961.009C708.777 962.277 706.204 963.112 703.768 963.524C701.354 963.968 699.182 963.793 697.254 962.996C695.325 962.193 693.772 960.539 692.599 958.024C691.796 956.312 691.463 954.399 691.6 952.297C691.711 950.252 692.425 948.556 693.746 947.214L693.629 946.971C691.394 947.388 689.265 947.145 687.242 946.242C685.192 945.402 683.564 943.685 682.354 941.091C681.108 938.417 680.769 935.929 681.34 933.614C681.916 931.306 683.142 929.203 685.023 927.306C686.925 925.441 689.292 923.851 692.124 922.53L706.605 915.762ZM708.74 943.267L704.608 945.196C702.458 946.205 701.095 947.351 700.529 948.635C699.922 949.935 699.948 951.288 700.598 952.682C701.306 954.199 702.31 955.044 703.604 955.213C704.899 955.387 706.584 954.991 708.661 954.019L712.85 952.064L708.74 943.267ZM700.994 926.693L696.028 929.013C691.204 931.269 689.609 934.153 691.252 937.662C692.05 939.379 693.217 940.314 694.749 940.472C696.303 940.673 698.295 940.203 700.725 939.067L705.691 936.748L700.994 926.693Z" fill="#0F1B20"/>
<path d="M645.143 940.355C647.822 939.472 650.664 939.092 653.671 939.213C656.635 939.346 659.483 940.032 662.203 941.269L659.023 949.337C657.147 948.565 655.177 948.079 653.121 947.878C651.061 947.678 649.196 947.852 647.521 948.401C645.598 949.035 644.293 949.86 643.606 950.874C642.877 951.904 642.718 953.024 643.114 954.234C643.542 955.534 644.398 956.295 645.677 956.522C646.929 956.802 648.578 957.024 650.622 957.182L656.698 957.684C658.273 957.816 659.847 958.155 661.416 958.704C663.001 959.291 664.433 960.189 665.712 961.388C666.985 962.593 667.952 964.178 668.596 966.138C669.341 968.399 669.41 970.645 668.802 972.885C668.158 975.141 666.927 977.17 665.109 978.971C663.25 980.789 660.898 982.168 658.056 983.103C655.715 983.88 653.222 984.191 650.58 984.043C647.933 983.895 645.444 983.23 643.109 982.052L645.888 974.671C647.574 975.273 649.169 975.627 650.686 975.733C652.218 975.875 653.803 975.68 655.43 975.141C657.02 974.618 658.183 973.862 658.928 972.874C659.641 971.944 659.805 970.893 659.419 969.725C659.002 968.468 658.109 967.723 656.73 967.48C655.309 967.253 653.607 967.073 651.615 966.941L645.645 966.545C642.845 966.354 640.425 965.62 638.381 964.347C636.341 963.073 634.846 960.997 633.895 958.112C633.15 955.851 633.065 953.563 633.641 951.239C634.222 948.914 635.469 946.79 637.382 944.861C639.295 942.933 641.883 941.427 645.143 940.355Z" fill="#0F1B20"/>
<path d="M622.757 947.91L633.461 989.618L624.062 992.032L613.353 950.325L622.757 947.91Z" fill="#0F1B20"/>
<path d="M603.499 952.924L611.033 995.323L601.211 997.067L586.418 977.962L580.59 969.334L580.331 969.382C580.907 971.606 581.589 974.079 582.386 976.8C583.184 979.515 583.802 982.136 584.251 984.651L586.909 999.603L577.806 1001.22L570.271 958.825L580.093 957.082L594.903 976.25L600.704 984.746L600.963 984.698C600.329 982.4 599.647 979.927 598.908 977.286C598.126 974.649 597.513 972.076 597.064 969.561L594.396 954.541L603.499 952.924Z" fill="#0F1B20"/>
<path d="M562.896 959.719L563.377 965.578L546.797 996.032L563.974 994.616L564.644 1002.78L535.554 1005.17L535.068 999.313L551.653 968.859L532.5 970.434L531.829 962.271L562.896 959.719Z" fill="#0F1B20"/>
<path d="M524.491 962.599L524.015 1005.66L514.304 1005.55L514.489 988.974L499.632 988.81L499.447 1005.38L489.673 1005.28L490.154 962.219L499.923 962.33L499.727 980.293L514.584 980.457L514.785 962.493L524.491 962.599Z" fill="#0F1B20"/>
<path d="M480.047 961.468L475.455 1004.28L448.663 1001.41L449.54 993.263L466.674 995.102L467.599 986.501L453.022 984.937L453.888 976.858L468.465 978.422L469.522 968.574L451.727 966.667L452.599 958.52L480.047 961.468Z" fill="#0F1B20"/>
<path d="M444.119 957.046L436.791 999.478L427.223 997.824L434.551 955.393L444.119 957.046Z" fill="#0F1B20"/>
<path d="M424.44 953.86L413.612 995.536L403.321 992.863L401.426 972.58C401.309 971.275 401.231 969.917 401.191 968.495C401.15 967.074 401.083 965.669 400.989 964.279L400.734 964.211C399.975 965.378 399.254 966.583 398.57 967.814C397.844 969.034 397.112 970.186 396.376 971.269L384.975 988.097L374.748 985.439L385.577 943.764L394.142 945.988L390.173 961.262C389.819 962.626 389.362 964.126 388.802 965.753C388.189 967.412 387.575 969.071 386.962 970.736C386.306 972.384 385.742 973.853 385.271 975.137L385.527 975.205L391.489 966.176L401.569 951.805L406.747 953.152L408.556 970.614L409.305 981.382L409.561 981.45C409.734 980.082 409.956 978.529 410.229 976.78C410.502 975.031 410.795 973.288 411.11 971.549C411.371 969.843 411.679 968.305 412.034 966.942L416.003 951.668L424.44 953.86Z" fill="#0F1B20"/>
<path d="M351.027 929.968C353.923 931.141 356.277 932.831 358.09 935.04C359.902 937.248 361.001 939.811 361.387 942.722C361.774 945.633 361.288 948.766 359.931 952.111C358.59 955.413 356.766 957.975 354.46 959.798C352.112 961.6 349.581 962.688 346.864 963.058C344.132 963.47 341.562 963.19 339.155 962.213C336.258 961.034 334.136 959.412 332.789 957.347C331.385 955.307 330.661 952.993 330.616 950.409C330.514 947.847 331.026 945.179 332.152 942.405C332.466 941.634 332.822 940.873 333.218 940.133C333.597 939.43 333.903 938.913 334.133 938.58L352.308 945.95C352.794 943.583 352.539 941.581 351.541 939.938C350.527 938.342 349.021 937.132 347.021 936.324C344.859 935.447 342.403 935.235 339.654 935.685L338.865 929.022C340.846 928.589 342.919 928.457 345.085 928.626C347.251 928.79 349.231 929.239 351.027 929.968ZM349.961 951.915L339.007 947.467C338.328 949.141 338.182 950.674 338.567 952.063C338.895 953.484 339.957 954.552 341.752 955.281C343.139 955.846 344.582 955.862 346.081 955.328C347.563 954.837 348.857 953.701 349.961 951.915Z" fill="#0F1B20"/>
<path d="M327.998 919.687C329.505 920.411 330.525 921.542 331.058 923.069C331.533 924.617 331.397 926.165 330.651 927.713C329.885 929.298 328.758 930.365 327.269 930.92C325.721 931.49 324.194 931.416 322.687 930.687C321.181 929.963 320.19 928.822 319.715 927.274C319.182 925.747 319.298 924.189 320.063 922.604C320.81 921.056 321.957 919.994 323.504 919.423C324.993 918.868 326.491 918.958 327.998 919.687Z" fill="#0F1B20"/>
<path d="M312.152 912.564L302.737 956.549L293.717 951.572L298.907 931.505C299.457 929.143 300.062 926.861 300.723 924.663C301.345 922.444 301.942 920.13 302.512 917.731L302.281 917.604C300.592 919.385 298.975 921.134 297.427 922.846C295.88 924.557 294.272 926.285 292.605 928.029L278.452 943.15L269.778 938.363L301.917 906.916L312.152 912.564Z" fill="#0F1B20"/>
<path d="M287.43 897.289C288.848 898.177 289.739 899.408 290.103 900.988C290.405 902.578 290.101 904.1 289.191 905.558C288.257 907.053 287.019 907.994 285.479 908.379C283.878 908.781 282.369 908.538 280.95 907.65C279.532 906.763 278.671 905.521 278.368 903.931C278.005 902.351 278.291 900.819 279.224 899.323C280.135 897.871 281.391 896.941 282.992 896.539C284.532 896.153 286.011 896.402 287.43 897.289Z" fill="#0F1B20"/>
<path d="M245.826 867.65C248.362 869.7 250.103 871.924 251.049 874.328C251.967 876.764 252.193 879.464 251.727 882.428L243.518 882.079C243.814 880.452 243.771 879.031 243.392 877.821C243.012 876.611 242.393 875.66 241.537 874.968C240.166 873.863 238.806 873.446 237.457 873.715C236.047 873.99 234.443 875.242 232.646 877.467L215.105 899.208L207.549 893.116L225.588 870.757C227.329 868.596 229.295 866.932 231.487 865.759C233.679 864.58 236.008 864.115 238.476 864.353C240.909 864.559 243.359 865.658 245.826 867.65Z" fill="#0F1B20"/>
<path d="M215.409 840.621C219.408 844.525 221.309 848.694 221.111 853.116C220.913 857.538 218.291 862.335 213.244 867.497L197.089 884.029L190.098 877.198L206.945 859.958C209.899 856.936 211.505 854.379 211.761 852.292C212.017 850.199 211.279 848.308 209.547 846.617C207.815 844.927 205.892 844.213 203.778 844.488C201.664 844.763 199.13 846.411 196.176 849.433L179.328 866.673L172.621 860.122L188.776 843.59C193.822 838.423 198.539 835.675 202.925 835.348C207.28 834.983 211.441 836.743 215.409 840.621Z" fill="#0F1B20"/>
<path d="M195.942 821.969L162.851 849.522L155.076 840.186C152.259 836.8 150.397 833.397 149.491 829.968C148.584 826.539 148.786 823.137 150.095 819.755C151.342 816.369 153.861 813.093 157.65 809.939C161.44 806.785 165.133 804.856 168.73 804.153C172.327 803.451 175.748 803.81 178.995 805.231C182.179 806.647 185.124 808.977 187.828 812.227L195.942 821.969ZM183.69 819.539L182.507 818.118C180.93 816.221 179.225 814.863 177.393 814.039C175.533 813.183 173.501 813.014 171.296 813.532C169.092 814.049 166.67 815.407 164.031 817.605C161.392 819.803 159.652 821.906 158.811 823.924C157.937 825.974 157.787 827.961 158.361 829.889C158.873 831.812 159.918 833.72 161.496 835.611L162.679 837.032L183.69 819.539Z" fill="#0F1B20"/>
<path d="M160.225 774.529C162.396 777.742 163.56 781.075 163.718 784.525C163.85 787.944 163 791.288 161.165 794.548C159.269 797.792 156.389 800.724 152.523 803.34C148.621 805.981 144.864 807.54 141.252 808.016C137.58 808.481 134.219 807.989 131.168 806.541C128.056 805.089 125.416 802.753 123.245 799.546C121.074 796.334 119.904 793.032 119.735 789.64C119.505 786.232 120.3 782.93 122.123 779.733C123.921 776.495 126.753 773.573 130.619 770.958C134.484 768.342 138.29 766.778 142.036 766.266C145.72 765.738 149.136 766.192 152.284 767.624C155.408 769.019 158.055 771.322 160.225 774.529ZM153.278 779.231C151.625 776.785 149.26 775.57 146.183 775.575C143.106 775.586 139.78 776.801 136.206 779.216C132.632 781.635 130.323 784.235 129.279 787.014C128.235 789.788 128.54 792.403 130.193 794.844C131.845 797.29 134.155 798.542 137.123 798.611C140.091 798.674 143.362 797.496 146.936 795.082C150.51 792.662 152.874 790.031 154.027 787.178C155.18 784.319 154.931 781.672 153.278 779.231Z" fill="#0F1B20"/>
<path d="M130.782 723.787C132.396 727.02 133.134 730.364 132.996 733.83C132.857 737.296 131.745 740.583 129.657 743.695C127.511 746.785 124.291 749.406 119.998 751.551C115.745 753.675 111.708 754.663 107.888 754.504C104.009 754.325 100.593 753.252 97.6397 751.282C94.6276 749.295 92.3145 746.685 90.6999 743.457C89.4599 740.974 88.8597 738.49 88.8993 736.012C88.8998 733.55 89.2443 731.337 89.9338 729.366L97.7897 731.199C97.3766 732.636 97.1695 734.042 97.1695 735.421C97.1098 736.779 97.4247 738.147 98.1141 739.526C98.9801 741.259 100.27 742.611 101.983 743.573C103.676 744.498 105.665 744.931 107.949 744.873C110.213 744.778 112.645 744.075 115.244 742.781C119.182 740.81 121.831 738.427 123.19 735.632C124.549 732.837 124.52 730.021 123.102 727.184C122.315 725.609 121.261 724.389 119.942 723.522C118.603 722.614 117.206 721.937 115.749 721.483L118.88 714.16C124.275 715.497 128.242 718.709 130.782 723.787Z" fill="#0F1B20"/>
<path d="M121.294 705.585L81.2461 721.409L77.6787 712.38L110.11 699.568L103.85 683.723L111.466 680.711L121.294 705.585Z" fill="#0F1B20"/>
<path d="M105.552 659.579C107.167 664.931 106.819 669.496 104.509 673.273C102.199 677.051 97.5879 679.983 90.6746 682.07L68.5438 688.743L65.722 679.386L88.8011 672.423C92.8476 671.202 95.4878 669.739 96.7209 668.038C97.9541 666.331 98.2209 664.318 97.5219 661.999C96.8229 659.679 95.4814 658.131 93.4986 657.349C91.5152 656.567 88.5004 656.789 84.4533 658.01L61.3742 664.968L58.667 655.991L80.7977 649.313C87.7106 647.231 93.1673 647.099 97.1679 648.933C101.156 650.718 103.951 654.269 105.552 659.579Z" fill="#0F1B20"/>
<path d="M97.5311 633.794L55.2451 641.92L52.465 627.459C51.9002 624.516 51.7174 621.816 51.9171 619.36C52.0735 616.908 52.7756 614.842 54.0225 613.173C55.27 611.498 57.256 610.399 59.9796 609.876C61.8388 609.517 63.772 609.659 65.7792 610.304C67.7346 610.917 69.2029 612.021 70.184 613.627L70.4434 613.58C70.5898 611.308 71.3474 609.3 72.7164 607.562C74.0335 605.781 76.0972 604.624 78.9075 604.085C81.8044 603.525 84.3024 603.811 86.401 604.931C88.4996 606.051 90.2394 607.757 91.621 610.045C92.9599 612.343 93.9241 615.027 94.5142 618.097L97.5311 633.794ZM70.3399 629.134L69.4798 624.659C69.0307 622.324 68.2529 620.723 67.1455 619.862C66.0297 618.953 64.7151 618.646 63.202 618.937C61.5588 619.254 60.4953 620.02 60.0113 621.235C59.5273 622.445 59.5014 624.178 59.9336 626.429L60.8059 630.967L70.3399 629.134ZM88.3051 625.679L87.2701 620.295C86.2647 615.064 83.8591 612.813 80.0545 613.548C78.1953 613.902 77.0012 614.805 76.4724 616.253C75.9002 617.706 75.8674 619.756 76.3746 622.392L77.4091 627.776L88.3051 625.679Z" fill="#0F1B20"/>
<path d="M88.7162 568.233C88.9196 571.043 88.5952 573.891 87.7445 576.776C86.8902 579.618 85.5324 582.213 83.671 584.553L76.6182 579.502C77.8249 577.87 78.777 576.079 79.4749 574.129C80.1729 572.179 80.4587 570.33 80.3319 568.571C80.1861 566.552 79.7047 565.084 78.8885 564.175C78.069 563.219 77.0224 562.785 75.7491 562.875C74.3875 562.976 73.4407 563.615 72.9081 564.804C72.3291 565.95 71.712 567.493 71.0579 569.437L69.0909 575.212C68.581 576.702 67.8683 578.144 66.9537 579.534C65.9948 580.929 64.7769 582.096 63.3002 583.042C61.8235 583.988 60.053 584.537 57.9893 584.685C55.6176 584.86 53.4197 584.373 51.3956 583.243C49.3683 582.065 47.7014 580.374 46.3948 578.176C45.0851 575.931 44.3221 573.315 44.1066 570.325C43.929 567.868 44.2344 565.374 45.0227 562.844C45.8115 560.313 47.0611 558.062 48.7724 556.086L55.2551 560.582C54.2587 562.067 53.5259 563.53 53.0567 564.978C52.5431 566.431 52.3482 568.011 52.4724 569.723C52.5928 571.392 53.0408 572.702 53.8165 573.664C54.5445 574.583 55.5235 575.001 56.7535 574.911C58.0707 574.816 59.0143 574.129 59.5844 572.85C60.1513 571.53 60.7409 569.918 61.3543 568.021L63.1945 562.326C64.0616 559.658 65.3613 557.491 67.0948 555.822C68.8283 554.152 71.21 553.207 74.2401 552.99C76.6113 552.816 78.8531 553.296 80.9654 554.422C83.0772 555.547 84.8355 557.275 86.2393 559.605C87.6431 561.929 88.4689 564.804 88.7162 568.233Z" fill="#0F1B20"/>
<path d="M86.8375 544.711L43.7786 544.98L43.7168 535.275L86.7763 535L86.8375 544.711Z" fill="#0F1B20"/>
<path d="M86.6418 524.782L43.6807 521.865L44.3554 511.917L66.4644 502.163L76.2388 498.592L76.2567 498.328C73.9606 498.349 71.396 498.417 68.5641 498.534C65.7316 498.65 63.0418 498.623 60.4941 498.449L45.3391 497.424L45.9647 488.199L88.9259 491.11L88.2512 501.059L66.0761 510.812L56.4338 514.395L56.4159 514.653C58.8029 514.595 61.367 514.527 64.1085 514.447C66.8527 514.326 69.4987 514.352 72.0464 514.527L87.2674 515.557L86.6418 524.782Z" fill="#0F1B20"/>
<path d="M89.8341 483.719L84.0329 482.773L58.4743 459.34L55.7037 476.354L47.6211 475.038L52.3128 446.225L58.1145 447.17L83.6731 470.6L86.7624 451.634L94.8449 452.951L89.8341 483.719Z" fill="#0F1B20"/>
<path d="M96.2637 445.883L54.6064 434.982L57.0643 425.589L73.1011 429.786L76.8634 415.411L60.8266 411.214L63.3014 401.758L104.958 412.66L102.484 422.115L85.1051 417.567L81.3433 431.943L98.7215 436.491L96.2637 445.883Z" fill="#0F1B20"/>
<path d="M108.182 402.959L67.7861 388.051L77.1156 362.771L84.7983 365.607L78.8301 381.778L86.9465 384.774L92.0228 371.019L99.6436 373.831L94.5673 387.586L103.861 391.016L110.058 374.225L117.74 377.061L108.182 402.959Z" fill="#0F1B20"/>
<path d="M121.234 369.225L81.8818 351.746L85.8227 342.873L125.175 360.353L121.234 369.225Z" fill="#0F1B20"/>
<path d="M129.14 350.918L91.3691 330.241L96.4751 320.914L116.605 324.029C117.898 324.234 119.238 324.491 120.626 324.799C122.013 325.107 123.391 325.385 124.761 325.633L124.889 325.401C123.942 324.381 122.954 323.388 121.926 322.424C120.919 321.421 119.981 320.43 119.11 319.452L105.577 304.288L110.652 295.02L148.422 315.697L144.172 323.46L130.327 315.88C129.091 315.203 127.752 314.395 126.309 313.455C124.849 312.454 123.388 311.454 121.929 310.454C120.489 309.415 119.203 308.51 118.069 307.739L117.942 307.97L125.241 315.956L136.716 329.241L134.147 333.933L116.773 331.424L106.145 329.52L106.017 329.752C107.299 330.253 108.755 330.849 110.384 331.54C112.014 332.232 113.632 332.942 115.241 333.672C116.832 334.342 118.245 335.016 119.481 335.692L133.326 343.272L129.14 350.918Z" fill="#0F1B20"/>
<path d="M170.243 285.494C168.398 288.019 166.185 289.891 163.602 291.112C161.02 292.333 158.268 292.777 155.349 292.444C152.43 292.11 149.513 290.878 146.598 288.748C143.719 286.645 141.677 284.252 140.472 281.572C139.294 278.857 138.854 276.137 139.155 273.412C139.42 270.662 140.319 268.237 141.852 266.14C143.696 263.616 145.784 261.952 148.117 261.148C150.439 260.282 152.86 260.142 155.377 260.727C157.884 261.251 160.347 262.396 162.764 264.162C163.439 264.655 164.089 265.184 164.713 265.749C165.301 266.288 165.729 266.71 165.997 267.014L154.424 282.852C156.604 283.899 158.61 284.138 160.444 283.569C162.242 282.975 163.777 281.806 165.05 280.064C166.426 278.18 167.229 275.849 167.459 273.072L174.114 273.927C174.051 275.954 173.676 277.997 172.989 280.058C172.301 282.118 171.386 283.93 170.243 285.494ZM149.213 279.126L156.187 269.581C154.73 268.515 153.279 268.001 151.835 268.036C150.382 268.01 149.084 268.78 147.941 270.344C147.058 271.552 146.692 272.948 146.844 274.532C146.96 276.089 147.75 277.62 149.213 279.126Z" fill="#0F1B20"/>
<path d="M185.754 265.715C184.684 267 183.342 267.716 181.73 267.864C180.112 267.949 178.643 267.442 177.324 266.343C175.97 265.216 175.206 263.864 175.03 262.286C174.85 260.645 175.295 259.182 176.365 257.896C177.435 256.611 178.779 255.925 180.397 255.84C182.01 255.693 183.492 256.183 184.846 257.31C186.166 258.408 186.916 259.778 187.097 261.418C187.272 262.997 186.825 264.429 185.754 265.715Z" fill="#0F1B20"/>
<path d="M196.521 252.038L156.117 232.265L163.129 224.716L181.345 234.606C183.504 235.711 185.571 236.849 187.546 238.023C189.55 239.164 191.648 240.301 193.84 241.436L194.02 241.242C192.698 239.172 191.393 237.18 190.108 235.264C188.822 233.349 187.534 231.371 186.244 229.332L174.995 211.942L181.737 204.684L204.476 243.474L196.521 252.038Z" fill="#0F1B20"/>
<path d="M217.331 231.727C216.127 232.889 214.716 233.456 213.097 233.428C211.48 233.337 210.075 232.674 208.882 231.439C207.659 230.172 207.045 228.744 207.042 227.157C207.04 225.506 207.641 224.1 208.844 222.938C210.048 221.775 211.458 221.24 213.076 221.33C214.695 221.359 216.115 222.006 217.339 223.273C218.531 224.509 219.129 225.951 219.131 227.602C219.135 229.19 218.535 230.564 217.331 231.727Z" fill="#0F1B20"/>
<path d="M245.754 206.619C243.219 208.665 240.677 209.898 238.127 210.314C235.55 210.697 232.864 210.349 230.067 209.268L232.135 201.317C233.665 201.949 235.062 202.208 236.327 202.092C237.591 201.976 238.652 201.572 239.508 200.881C240.878 199.775 241.574 198.534 241.595 197.159C241.623 195.722 240.738 193.889 238.941 191.663L221.392 169.927L228.945 163.828L246.992 186.181C248.735 188.339 249.949 190.613 250.633 193.003C251.317 195.392 251.284 197.768 250.531 200.131C249.812 202.465 248.22 204.627 245.754 206.619Z" fill="#0F1B20"/>
<path d="M278.598 182.599C273.933 185.682 269.46 186.659 265.178 185.531C260.896 184.403 256.765 180.826 252.784 174.802L240.039 155.518L248.193 150.129L261.484 170.24C263.815 173.766 265.974 175.875 267.961 176.567C269.949 177.258 271.953 176.937 273.973 175.601C275.993 174.266 277.093 172.537 277.273 170.413C277.452 168.289 276.377 165.464 274.046 161.937L260.755 141.827L268.579 136.656L281.324 155.94C285.305 161.964 286.994 167.155 286.391 171.512C285.824 175.845 283.226 179.54 278.598 182.599Z" fill="#0F1B20"/>
<path d="M300.889 167.545L280.974 129.367L291.748 123.747C295.652 121.711 299.374 120.613 302.916 120.453C306.458 120.294 309.743 121.212 312.77 123.209C315.817 125.145 318.48 128.3 320.761 132.672C323.041 137.044 324.145 141.062 324.07 144.726C323.995 148.391 322.918 151.659 320.841 154.53C318.782 157.342 315.879 159.725 312.131 161.68L300.889 167.545ZM305.861 156.087L307.501 155.231C309.687 154.091 311.377 152.713 312.57 151.098C313.802 149.462 314.399 147.512 314.36 145.248C314.321 142.983 313.507 140.329 311.919 137.284C310.331 134.239 308.64 132.092 306.846 130.843C305.032 129.555 303.122 128.987 301.116 129.14C299.128 129.233 297.042 129.849 294.855 130.99L293.216 131.845L305.861 156.087Z" fill="#0F1B20"/>
<path d="M354.872 142.692C351.274 144.13 347.77 144.558 344.361 143.976C340.993 143.377 337.911 141.835 335.116 139.348C332.345 136.804 330.095 133.365 328.363 129.031C326.615 124.657 325.893 120.654 326.198 117.024C326.526 113.337 327.721 110.157 329.782 107.484C331.868 104.754 334.71 102.671 338.308 101.234C341.906 99.796 345.381 99.3559 348.733 99.9133C352.11 100.414 355.167 101.895 357.905 104.357C360.684 106.803 362.939 110.193 364.67 114.526C366.401 118.86 367.119 122.912 366.823 126.681C366.552 130.392 365.382 133.634 363.312 136.404C361.283 139.159 358.47 141.255 354.872 142.692ZM351.76 134.903C354.499 133.809 356.193 131.758 356.84 128.749C357.487 125.741 357.01 122.233 355.409 118.226C353.809 114.219 351.761 111.41 349.269 109.799C346.775 108.187 344.16 107.928 341.42 109.022C338.681 110.117 336.963 112.107 336.267 114.993C335.57 117.879 336.023 121.325 337.624 125.332C339.224 129.339 341.296 132.209 343.838 133.944C346.38 135.678 349.02 135.998 351.76 134.903Z" fill="#0F1B20"/>
<path d="M410.777 124.752C407.276 125.637 403.849 125.641 400.493 124.765C397.138 123.888 394.164 122.097 391.572 119.392C389.013 116.633 387.144 112.927 385.967 108.275C384.801 103.665 384.703 99.5115 385.676 95.8137C386.68 92.063 388.459 88.9558 391.016 86.4926C393.603 83.9756 396.647 82.2749 400.147 81.3894C402.837 80.7089 405.389 80.6539 407.804 81.2235C410.208 81.7507 412.298 82.5618 414.074 83.657L410.602 90.9386C409.286 90.227 407.955 89.7235 406.609 89.4281C405.295 89.0794 403.891 89.0942 402.397 89.472C400.518 89.9469 398.925 90.918 397.616 92.3847C396.349 93.8403 395.5 95.69 395.068 97.9339C394.679 100.167 394.841 102.692 395.554 105.509C396.633 109.777 398.394 112.874 400.834 114.801C403.274 116.727 406.031 117.301 409.104 116.523C410.811 116.091 412.229 115.324 413.358 114.221C414.529 113.107 415.493 111.887 416.247 110.561L422.731 115.187C420.268 120.171 416.283 123.359 410.777 124.752Z" fill="#0F1B20"/>
<path d="M430.483 119.402L423.597 76.8971L433.177 75.3438L438.756 109.765L455.579 107.04L456.889 115.124L430.483 119.402Z" fill="#0F1B20"/>
<path d="M478.858 113.854C473.283 114.288 468.898 112.974 465.702 109.912C462.5 106.849 460.624 101.718 460.059 94.5194L458.263 71.4741L468.011 70.7144L469.881 94.7471C470.214 98.9612 471.075 101.852 472.48 103.421C473.886 104.99 475.793 105.68 478.208 105.492C480.622 105.303 482.419 104.324 483.607 102.553C484.796 100.782 485.224 97.7904 484.897 93.5763L483.021 69.5436L492.373 68.8145L494.169 91.8597C494.729 99.0584 493.688 104.417 491.052 107.935C488.452 111.45 484.389 113.422 478.858 113.854Z" fill="#0F1B20"/>
<path d="M505.734 111.514L506.722 68.4648L521.447 68.8035C524.438 68.8722 527.116 69.2642 529.478 69.9791C531.84 70.6501 533.71 71.7717 535.084 73.3446C536.458 74.918 537.107 77.0911 537.049 79.8638C537.002 81.7569 536.452 83.6156 535.401 85.441C534.392 87.2237 532.997 88.4246 531.222 89.0443L531.216 89.3085C533.404 89.9314 535.205 91.0959 536.616 92.8019C538.074 94.4651 538.772 96.727 538.708 99.588C538.64 102.537 537.837 104.919 536.294 106.733C534.756 108.548 532.722 109.888 530.191 110.755C527.666 111.577 524.834 111.953 521.711 111.881L505.734 111.514ZM516.032 85.9208L520.586 86.0254C522.964 86.0803 524.691 85.6577 525.769 84.7574C526.889 83.8581 527.47 82.6387 527.507 81.0981C527.544 79.4253 527.021 78.2239 525.938 77.4948C524.855 76.7651 523.164 76.3736 520.877 76.3213L516.254 76.2151L516.032 85.9208ZM515.614 104.21L521.093 104.336C526.419 104.458 529.124 102.583 529.214 98.7093C529.256 96.8163 528.627 95.459 527.328 94.6363C526.023 93.7693 524.031 93.3054 521.347 93.2436L515.868 93.1173L515.614 104.21Z" fill="#0F1B20"/>
</g>
<path d="M512.497 722.338C652.988 722.338 766.878 608.448 766.878 467.957C766.878 327.466 652.988 213.576 512.497 213.576C372.007 213.576 258.116 327.466 258.116 467.957C258.116 608.448 372.007 722.338 512.497 722.338Z" fill="#C22B26"/>
<path fill-rule="evenodd" clip-rule="evenodd" d="M652.504 296.823L577.283 289.408L512.5 331.767C479.57 354.248 468.622 391.199 478.959 442.158C466.079 460.302 446.648 465.34 428.897 473.736L427.613 415.716L413.75 414.176L427.1 366.939C427.1 366.939 443.53 288.638 444.557 286.327C445.584 284.016 464.325 194.933 464.325 194.933L479.985 139.994L465.095 129.468L485.634 99.6881L519.265 62.463L557.775 34.4796L547.763 24.9809L504.12 17.2793L465.866 35.5066L434.289 46.546L430.694 84.7982L420.169 119.456L395.266 126.644L384.227 157.195L351.013 310.251L339.782 341.138L326.544 348.76L304.883 317.07L217.436 255.296L195.374 274.149L178.125 222.403L175.317 159.425L155.661 176.272L144.43 203.148L138.413 219.595L126.379 243.662L119.56 260.911L125.978 274.951L149.645 283.776L171.306 304.234L159.673 326.296L197.379 345.55L251.131 378.443L281.617 442.626L275.6 500.524L307.29 540.903L350.211 566.175L397.946 638.78L321.731 710.179L329.352 729.034L301.273 753.501L278.007 765.534L290.041 797.228L298.866 829.317L345.397 847.367L352.217 826.911L340.584 809.661L338.98 777.167L351.013 756.312L377.087 769.951L464.935 683.707L523.097 694.935L580.463 683.707L568.429 760.323L580.062 770.751L555.991 832.528L579.657 844.961L633.012 852.583L673.123 855.789L671.117 832.528L635.818 820.489L618.568 796.823L622.979 775.162L645.445 769.545L669.512 693.335L696.789 597.058L680.345 589.841L667.906 591.042L659.084 578.208L683.55 558.153L713.639 513.626L733.294 467.956L741.716 413.743L736.905 373.63L756.961 343.144L741.316 293.403L691.573 282.171L671.517 296.823H652.504Z" fill="white"/>
<path d="M492.539 950.731C480.246 950.112 461.648 948.369 458.17 947.509C456.972 947.214 452.47 946.431 448.163 945.772C437.071 944.07 430.367 942.84 426.845 941.86C425.17 941.392 419.884 940.107 415.099 939.003C410.313 937.899 406.026 936.666 405.571 936.261C405.117 935.856 404.106 935.525 403.325 935.525C401.395 935.525 379.009 928.422 372.463 925.733C371.507 925.34 368.375 924.115 365.503 923.014C362.632 921.911 359.049 920.446 357.54 919.759C356.033 919.071 354.575 918.509 354.301 918.509C352.665 918.509 318.095 901.108 309.381 895.898C270.58 872.702 240.189 847.813 212.405 816.481C191.816 793.265 178.337 774.686 163.141 748.578C155.285 735.078 142.229 708.146 136.429 693.476C104.746 613.328 98.1992 525 117.659 440.24C120.232 429.036 126.039 408.047 128.526 400.967C135.854 380.115 141.393 366.7 149.775 349.511C153.811 341.234 157.113 334.321 157.113 334.149C157.113 333.977 155.743 333.004 154.068 331.988C149.482 329.203 149.914 326.581 156.679 316.093C159.789 311.271 162.335 306.846 162.335 306.259C162.335 304.654 152.84 295.929 146.099 291.344C142.825 289.116 135.927 285.164 130.769 282.563C116.477 275.352 111.898 268.986 113.003 257.87C113.552 252.345 115.418 248.428 121.591 239.837C126.735 232.674 128.101 229.366 134.064 209.614C142.347 182.175 156.988 157.396 166.591 154.56C172.301 152.875 179.198 155.674 181.142 160.466C182.176 163.012 182.312 166.795 181.871 180.783C181.166 203.096 182.65 220.475 186.662 236.931C187.95 242.214 195.423 257.532 196.711 257.532C197.263 257.532 198.928 255.616 200.409 253.277C203.516 248.372 209.827 241.41 211.168 241.41C211.669 241.41 213.823 242.697 215.953 244.272L219.825 247.135L229.147 237.698C257.043 209.458 292.736 183.962 332.003 164.225C339.901 160.257 347.144 156.676 348.101 156.269C349.058 155.861 351.603 154.752 353.756 153.807C355.91 152.862 359.63 151.344 362.023 150.434C364.415 149.525 380.726 143.116 384.609 129.007C386.414 122.45 388.451 116.854 389.274 116.196C390.351 115.335 393.953 115.085 402.917 115.245L415.099 115.463L425.429 83.5982L423.895 72.6453C422.976 66.0867 422.609 60.284 422.979 58.1823C424.138 51.6062 426.826 45.6491 430.103 42.3895C435.747 36.7762 439.691 35.0706 461.834 28.6664C476.182 24.5168 486.059 20.4852 494.803 15.2084C503.303 10.0786 507.938 9.28624 513.902 11.9414C517.053 13.3426 519.124 13.612 524.003 13.2523C530.662 12.7629 535.094 13.8174 538.262 16.6445C539.675 17.9058 541.507 18.3966 544.805 18.3966C550.378 18.3966 556.014 20.7795 559.536 24.6217C561.911 27.2143 562.146 28.0212 562.146 33.5879C562.146 38.4409 561.786 40.1174 560.407 41.7035C559.449 42.8031 551.814 48.3626 543.439 54.059C535.064 59.7553 525.202 66.7567 521.521 69.6187C513.004 76.2414 500.922 88.4847 493.956 97.5514C488.444 104.728 478.617 119.578 479.178 119.884C479.348 119.976 480.466 120.656 481.661 121.394C483.434 122.49 489.569 122.848 514.725 123.33C548.944 123.987 565.892 125.522 591.73 130.309C598.991 131.655 611.505 134.746 626.535 138.904C628.926 139.566 632.646 140.591 634.8 141.182C636.953 141.774 639.107 142.554 639.585 142.918C640.064 143.281 641.813 143.878 643.472 144.244C645.131 144.609 647.089 145.225 647.823 145.613C648.557 146 652.68 147.614 656.987 149.199C661.294 150.783 666.462 152.833 668.469 153.755C670.476 154.675 672.31 155.428 672.541 155.428C673.904 155.428 703.819 170.276 710.499 174.269C712.653 175.556 717.742 178.547 721.81 180.915C739.849 191.418 764.245 209.603 783.587 226.96C793.03 235.432 811.573 254.619 820.923 265.592C834.868 281.956 855.273 311.403 864.056 327.838C865.898 331.287 868.374 335.922 869.559 338.139C874.154 346.736 882.272 364.23 885.772 373.068C887.041 376.27 888.423 379.695 888.847 380.681C891.913 387.83 898.489 407.5 901.87 419.641C902.899 423.335 904.311 428.319 905.007 430.715C905.703 433.111 906.273 435.837 906.273 436.772C906.273 437.708 906.645 439.173 907.103 440.029C907.559 440.884 908.363 444.003 908.89 446.958C909.416 449.913 910.422 455.354 911.127 459.048C915.782 483.476 918.934 520.225 918.2 541.502C917.534 560.757 916.073 581.953 915.022 587.572C914.562 590.035 913.775 595.073 913.274 598.767C911.702 610.369 908.848 625.575 906.379 635.488C903.326 647.748 900.165 659.076 899.376 660.595C898.984 661.351 898.367 663.352 898.007 665.045C897.646 666.736 897.04 668.739 896.66 669.493C896.281 670.247 895.111 673.485 894.061 676.688C892.271 682.146 890.682 686.368 888.835 690.57C888.403 691.555 887.297 694.376 886.38 696.839C880.538 712.511 868.23 737.147 856.421 756.804C833.841 794.392 801.363 831.743 766.185 860.581C753.052 871.348 728.762 888.119 714.222 896.46C701.6 903.702 676.035 916.717 674.433 916.717C674.165 916.717 671.916 917.725 669.437 918.956C666.957 920.188 664.512 921.209 664.003 921.225C663.495 921.243 661.513 922.035 659.597 922.986C657.683 923.939 655.455 924.731 654.647 924.747C653.837 924.765 652.954 925.146 652.683 925.596C652.414 926.045 650.631 926.686 648.722 927.018C646.812 927.348 645.057 927.943 644.821 928.337C644.584 928.731 642.918 929.337 641.117 929.683C639.319 930.028 637.454 930.62 636.975 930.997C636.497 931.373 634.54 932.114 632.624 932.643C630.711 933.172 626.991 934.268 624.359 935.081C597.83 943.272 565.557 948.722 531.692 950.731C516.711 951.618 510.145 951.619 492.539 950.731ZM661.861 848.502C662.784 846.964 661.99 843.396 660.113 840.646C659.023 839.05 657.117 838.125 653.02 837.203C638.817 834.009 629.309 829.593 620.466 822.083C613.493 816.164 610.049 811.419 608.097 805.046C606.7 800.485 606.7 799.786 608.11 792.857C608.93 788.815 609.82 784.663 610.087 783.631C610.545 781.855 610.12 781.716 602.022 781.013C597.319 780.605 590.757 780.239 587.44 780.201L581.408 780.133L580.681 783.267C578.821 791.275 576.411 799.159 574.245 804.315C570.971 812.107 567.056 822.711 566.115 826.333C564.757 831.557 566.38 836.106 570.579 838.846C573.255 840.592 574.277 840.688 584.92 840.19C591.529 839.881 599.078 840.061 602.756 840.613C608.279 841.443 611.847 842.595 625.479 847.942C629.869 849.663 637.678 850.335 649.501 850.007C657.935 849.772 661.349 849.357 661.864 848.502H661.861ZM340.122 836.173C341.819 834.425 339.756 830.729 335.398 827.709C329.587 823.681 328.681 822.179 327.179 814.103C325.557 805.376 325.573 795.444 327.226 784.114C328.726 773.836 331.03 768.423 336.274 762.86C338.233 760.783 339.835 758.829 339.835 758.517C339.835 758.205 338.917 757.098 337.797 756.056C335.451 753.874 327.293 743.742 326.068 741.491C325.357 740.181 324.312 740.81 318.426 746.095C308.999 754.557 302.802 758.475 294.391 761.289C286.773 763.838 284.149 765.954 284.149 769.544C284.149 772.397 285.024 774.004 291.339 782.731C298.485 792.606 301.115 798.853 302.876 810.137C304.547 820.835 306.812 825.959 312.33 831.534C317.318 836.574 321.812 837.952 331.529 837.423C335.814 837.19 339.681 836.628 340.122 836.173ZM778.66 814.199C827.738 763.827 861.369 704.459 879.138 636.831C890.63 593.091 894.618 545.651 890.618 500.248C884.932 435.693 862.311 370.633 827.25 317.986C823.641 312.568 819.49 306.522 818.023 304.552C809.469 293.054 801.6 283.188 796.59 277.682C793.451 274.235 790.318 270.71 789.628 269.851C783.92 262.739 757.073 238.363 741.388 226.051C716.258 206.324 677.365 184.726 646.547 173.382C642.239 171.796 638.115 170.183 637.381 169.795C636.649 169.408 634.691 168.792 633.031 168.426C631.372 168.06 629.623 167.452 629.145 167.071C628.666 166.693 626.513 165.954 624.359 165.43C622.205 164.906 618.094 163.822 615.222 163.022C589.486 155.854 566.741 152.011 538.654 150.09C524.04 149.091 485.978 148.918 484.598 149.845C483.376 150.664 475.945 173.381 472.662 186.328C472.413 187.314 471.569 190.336 470.79 193.045C468.999 199.269 467.112 206.429 465.602 212.749C464.954 215.459 463.77 220.094 462.97 223.049C461.503 228.472 461.208 229.931 458.611 244.544C455.994 259.275 454.639 267.737 453.379 277.235C450.596 298.212 449.85 305.847 448.197 312.165C431.919 374.381 422.496 407.102 422.496 407.102H427.984C435.907 407.102 436.342 407.685 435.346 416.954C434.896 421.141 432.624 435.833 432.328 445.66C431.803 463.154 431.827 463.527 433.543 463.527C434.507 463.527 439.851 461.156 445.419 458.259C450.989 455.362 456.232 452.774 457.074 452.507C457.916 452.239 461.345 450.991 464.695 449.732C468.045 448.473 471.514 447.434 472.405 447.424C473.804 447.408 473.61 445.206 473.415 444.046C472.471 438.431 467.838 422.844 466.74 413.737C465.77 405.682 464.92 397.285 466.827 389.401C469.315 379.121 474.367 363.295 481.661 352.064C489.037 340.709 503.302 327.483 511.078 321.272C518.573 315.288 528.15 307.392 537.783 302.217C550.682 295.291 570.052 281.328 588.466 279.713C608.632 277.944 657.038 290.122 658.777 291.606C660.441 293.029 661.559 292.03 667.901 283.456C681.512 265.05 695.571 256.665 712.995 256.559C721.679 256.508 723.753 256.798 730.511 259.008C743.401 263.228 756.045 273.705 763.317 286.191C774.346 305.133 775.089 325.08 765.518 345.303C762.264 352.179 760.23 355.101 754.919 360.529C751.306 364.223 747.271 368.008 745.956 368.939C743.26 370.846 743.043 372.73 744.91 377.994C745.609 379.965 746.774 386.959 747.5 393.538C748.684 404.295 748.68 406.908 747.452 419.512C746.702 427.218 745.885 434.127 745.638 434.866C745.391 435.606 744.638 439.232 743.963 442.928C741.381 457.066 740.264 464.903 736.154 475.17C725.494 501.796 720.415 522.123 681.786 568.792C680.051 570.887 679.413 571.944 676.513 575.017C673.615 578.092 670.613 581.531 669.845 582.66L668.447 584.713L672.289 584.081C686.968 583.539 686.927 584.18 694.258 589.26L698.462 592.74L702.184 590.828C706.791 588.459 713.327 587.481 717.19 590.659C722.949 595.397 733.375 609.137 736.738 619.257C740.099 629.375 738.937 644.505 737.365 651.373C734.195 665.228 729.484 673.056 721.126 683.06C705.286 702.018 679.1 703.789 674.389 703.228C667.917 702.456 668.613 701.224 664.841 720.125C664.054 724.067 663.038 728.904 662.582 730.873C662.126 732.843 660.758 739.695 659.543 746.099C655.241 768.78 653.151 776.892 651.355 777.881C648.403 779.508 637.973 781.477 632.31 781.477C626.612 781.477 624.359 782.388 624.359 784.693C624.359 785.32 627.506 786.4 631.972 787.311C639.686 788.882 667.292 794.197 693.199 801.482C720.191 809.072 745.458 818.649 750.524 820.632C758.402 823.717 765.071 826.128 765.895 826.186C766.455 826.227 772.198 820.832 778.66 814.199ZM260.887 817.84C273.502 811.783 279.243 809.194 281.172 808.696C282.34 808.393 288.115 802.093 279.347 789.985C272.02 779.868 270.27 776.027 270.246 770.022C270.204 759.813 275.183 754.867 292.977 747.442C300.425 744.334 306.857 739.101 313.133 731.04L317.187 725.835L315.123 721.637C311.432 714.13 310.918 710.824 312.922 707.487C313.882 705.888 315.018 704.449 315.444 704.292C315.871 704.133 318.304 701.989 320.851 699.526C323.398 697.063 328.614 692.23 332.442 688.786C336.268 685.343 339.596 682.3 339.835 682.023C340.074 681.748 347.709 674.693 356.802 666.346C365.895 657.997 376.645 647.89 380.691 643.888L388.048 636.608L378.298 626.038C372.935 620.226 368.548 615.062 368.548 614.564C368.548 614.068 324.287 558.909 314.349 553.856C305.823 549.52 304.122 548.496 298.881 544.546C278.993 529.554 269.489 514.222 267.534 493.978C266.142 479.554 268.186 463.463 272.972 451.157L274.823 446.401L271.125 435.973C269.09 430.237 266.532 423.511 265.439 421.026C264.346 418.54 262.214 413.693 260.701 410.255C256.637 401.02 253.002 395.861 244.038 386.608C235.918 378.226 229.938 373.528 221.936 369.249C215.443 365.777 179.961 347.99 179.527 347.99C178.457 347.99 162.606 382.451 158.312 394.115C156.679 398.548 154.984 402.982 154.542 403.968C154.101 404.952 152.894 408.579 151.858 412.028C150.822 415.476 149.631 419.104 149.21 420.088C148.788 421.074 148.068 423.492 147.611 425.463C145.854 433.013 144.758 437.17 144.064 438.898C143.67 439.882 142.876 443.107 142.302 446.062C141.728 449.017 140.69 454.055 139.995 457.257C138.154 465.731 136.424 476.659 134.746 490.396C131.97 513.118 132.823 571 136.244 592.05C140.292 616.956 142.397 627.298 146.089 640.414C146.782 642.877 148.196 647.915 149.232 651.61C150.268 655.304 151.436 658.945 151.827 659.7C152.221 660.455 152.824 662.397 153.169 664.014C153.514 665.632 154.344 668.038 155.014 669.359C155.684 670.68 156.235 672.271 156.238 672.893C156.241 673.516 156.618 674.725 157.077 675.58C157.535 676.436 159.845 681.972 162.209 687.883C170.2 707.859 182.812 732.275 195.289 751.921C199.979 759.305 213.86 778.73 217.689 783.267C218.727 784.5 221.613 787.925 224.1 790.88C226.588 793.836 233.761 801.829 240.04 808.642C252.844 822.536 251.941 822.137 260.887 817.84ZM352.017 789.189C381.255 783.09 522.365 774.566 544.31 776.4C554.119 777.22 562.635 777.891 563.234 777.893C563.833 777.893 564.322 776.932 564.322 775.753C564.322 773.991 563.632 773.404 560.407 772.424C556.067 771.104 555.995 770.89 557.409 763.462C557.913 760.81 558.892 755.313 559.584 751.249C560.276 747.186 561.453 740.334 562.201 736.023C564.506 722.75 566.138 711.446 566.663 705.123C567.231 698.292 566.945 698.049 561.077 700.382C551.659 704.126 531.364 706.047 515.886 704.66C502.449 703.457 488.182 700.731 482.097 698.202C481.14 697.804 476.955 696.365 472.797 695.005L465.236 692.529L450.144 707.224C441.844 715.304 431.738 724.94 427.689 728.634C423.639 732.329 417.552 737.972 414.163 741.173C410.772 744.374 405.111 749.615 401.58 752.816C398.051 756.018 390.569 763.172 384.956 768.714C379.343 774.256 374.147 778.79 373.413 778.79C371.477 778.79 363.082 774.831 357.15 771.123C351.276 767.45 349.882 767.571 346.027 772.09C342.942 775.707 341.587 780.143 341.58 786.643C341.576 791.062 341.701 791.336 343.533 790.956C344.609 790.733 348.427 789.938 352.017 789.189ZM636.63 764.515C640.596 763.485 640.644 763.428 641.735 758.37C643.407 750.623 644.919 743.438 646.959 733.56C647.976 728.634 649.162 723.193 649.591 721.47C651.913 712.18 654.082 700.745 653.71 699.759C653.477 699.139 651.476 697.944 649.262 697.105C645.264 695.591 638.134 690.988 628.421 683.653C623.373 679.841 623.31 679.823 616.239 679.943C608.805 680.072 601.266 682.319 588.507 688.212L582.863 690.818L582.282 696.515C581.56 703.6 579.586 718.313 577.856 729.53C577.133 734.21 575.964 741.868 575.256 746.548C574.548 751.227 573.713 756.512 573.4 758.293C572.709 762.241 572.574 762.19 589.99 764.489C603.688 766.296 629.709 766.312 636.63 764.515ZM382.235 750.917C422.775 713.259 430.967 705.554 440.08 696.511C445.722 690.912 450.332 686.075 450.325 685.764C450.318 685.452 446.689 683.244 442.259 680.858C432.282 675.485 417.361 665.042 406.444 655.79L398.165 648.777L387.442 658.478C376.776 668.127 343.185 699.037 333.407 708.197L328.286 712.996L331.364 719.853C336.953 732.306 345.122 742.916 354.856 750.366C361.301 755.301 370.285 760.866 371.359 760.591C371.708 760.502 376.603 756.149 382.235 750.917ZM547.355 686.993C552.992 685.561 564.099 681.656 569.769 679.11C571.386 678.386 571.996 677.593 571.634 676.688C571.338 675.948 569.989 671.918 568.638 667.731C562.314 648.147 554.779 627.298 550.188 616.68C545.689 606.274 538.057 590.707 537.454 590.707C537.084 590.707 534.73 593.309 532.222 596.492L527.662 602.277L529.905 606.214C533.669 612.827 538.565 629.288 536.736 629.177C536.354 629.152 533.106 625.47 529.518 620.99C522.535 612.275 513.515 604.66 506.46 601.524C504.067 600.461 501.031 599.105 499.715 598.512C498.398 597.918 497.445 597.028 497.6 596.533C497.753 596.038 500.788 593.851 504.345 591.675C509.297 588.643 514.989 583.404 528.67 569.283C538.492 559.146 548.807 548.144 551.591 544.836L556.652 538.821L554.826 536.181C552.191 532.373 545.048 525.965 538.36 521.411C531.232 516.558 519.159 509.666 515.366 508.286L512.551 507.263L489.793 530.4C454.906 565.869 450.004 573.456 449.961 592.05C449.936 602.614 452.076 609.988 459.145 623.711C465.172 635.41 478.81 655.581 486.325 663.912C487.763 665.505 488.692 667.062 488.39 667.372C486.707 669.106 465.48 655.205 457.36 647.051C445.186 634.827 437.518 620.517 433.409 602.35C431.705 594.82 431.727 589.093 433.485 581.808C436.941 567.484 446.046 554.441 468.302 531.934L480.809 519.287L474.596 515.926C465.452 510.981 451.062 500.842 445.042 495.107L439.775 490.088L435.268 491.714C407.427 501.767 384.41 525.192 365.525 562.692L361.366 570.952L363.35 575.986C368.36 588.691 385.407 612.484 401.177 628.782C431.118 659.724 471.159 682.052 508.636 688.703C514.186 689.689 541.487 688.481 547.355 686.993ZM591.548 671.046C594.253 669.848 594.257 668.912 591.607 657.432C589.64 648.91 583.602 627.285 581.978 622.949C581.701 622.211 580.609 619.142 579.55 616.131C576.839 608.425 575.779 605.943 570.818 595.711C564.778 583.251 556.185 567.452 555.437 567.435C554.731 567.417 546.848 575.909 545.769 577.849C545.313 578.67 545.827 580.497 547.195 582.906C551.994 591.364 554.092 595.561 558.773 606.092C566.69 623.9 573.233 641.016 580.112 661.909C582.059 667.821 583.819 672.943 584.023 673.295C584.384 673.912 586.512 673.278 591.548 671.046ZM612.334 663.13C612.334 663.13 615.722 662.358 618.065 662.358C620.41 662.358 622.561 662.117 622.846 661.825C623.131 661.532 622.61 660.02 621.689 658.466C619.475 654.73 619.488 648.94 621.714 646.479C624.334 643.585 626.688 644.824 629.544 650.607C631.928 655.433 634.943 658.917 640.354 663.103C643.949 665.882 650.398 665.785 653.656 662.901C655.583 661.194 656.077 659.995 656.077 657.025C656.077 653.49 655.674 652.904 648.411 645.885C641.722 639.421 640.782 638.143 641.036 635.863C641.323 633.274 641.375 633.251 646.546 633.435C649.416 633.536 655.331 633.877 659.689 634.19C666.782 634.702 668.004 634.555 671.372 632.786C675.772 630.476 683.663 623.037 686.206 618.801C687.183 617.174 688.898 613.441 690.015 610.506C691.792 605.84 691.894 604.948 690.836 603.393C689.144 600.907 681.403 595.185 679.73 595.185C678.967 595.185 676.172 596.394 673.518 597.871C670.865 599.35 668.061 600.559 667.288 600.559C666.516 600.559 664.152 598.916 662.035 596.909C657.956 593.039 652.124 589.863 649.032 589.831C648.008 589.818 645.209 591.624 642.814 593.841C636.28 599.887 634.659 599.086 635.387 590.168C635.585 587.756 635.351 585.176 634.869 584.438C633.704 582.654 626.903 582.833 621.747 584.78C619.595 585.594 615.385 586.514 612.394 586.822L606.955 587.383L606.964 592.852C606.977 599.884 608.449 605.352 613.014 615.32C617.056 624.145 616.967 625.884 612.453 626.355C610.282 626.579 608.683 625.526 602.594 619.86C596.014 613.737 593.032 611.848 593.032 613.804C593.032 614.191 594.163 617.92 595.546 622.088C596.929 626.257 598.726 632.086 599.542 635.041C600.356 637.996 601.524 642.229 602.138 644.446C602.752 646.662 603.964 652.193 604.83 656.736C606.38 664.86 606.442 664.987 608.637 664.448C609.865 664.148 611.529 663.553 612.334 663.13ZM592.052 568.775C591.168 564.398 590.269 562.682 587.158 559.434C578.419 550.309 578.133 544.432 585.957 534.741C589.693 530.114 590.028 528.67 587.483 528.162C585.237 527.715 580.322 532.019 577.647 536.776C574.512 542.354 569.87 549.252 566.799 552.898C565.436 554.516 564.322 556.291 564.322 556.845C564.322 557.397 567.252 562.602 570.835 568.412C574.418 574.222 579.315 583.002 581.718 587.922C585.993 596.678 586.156 596.875 589.343 597.146L592.6 597.424L592.866 585.781C593.025 578.848 592.696 571.967 592.052 568.775ZM616.683 572.704C622.018 571.303 629.097 565.806 636.391 557.4C638.286 555.216 638.332 554.899 637.118 552.51C635.444 549.22 629.693 542.342 628.615 542.342C628.157 542.342 627.543 543.047 627.247 543.909C626.067 547.351 623.243 549.508 619.915 549.508C617.092 549.508 616.204 548.953 613.423 545.462C609.092 540.019 602.495 536.904 599.176 538.733C597.546 539.63 593.035 545.631 593.035 546.901C593.035 547.21 595.179 548.929 597.801 550.72C604.229 555.113 606.087 558.968 606.087 567.911V574.742L609.785 574.143C611.818 573.816 614.922 573.168 616.683 572.704ZM676.169 552.865C694.361 534.058 704.548 519.057 712.506 499.352C724.224 470.34 729.563 448.643 732.791 416.922C734.209 402.989 734.212 401.534 732.836 392.378C730.721 378.31 729.699 377.726 723.785 387.222C718.737 395.329 713.887 397.106 706.527 393.547L702.574 391.633L700.229 393.892C697.415 396.599 692.913 399.04 690.733 399.04C689.863 399.04 684.852 403.509 679.595 408.971C668.348 420.658 655.317 432.553 644.929 440.619C631.322 451.182 610.956 462.628 597.821 467.095C594.471 468.234 590.902 469.477 589.889 469.855C588.487 470.38 587.922 471.57 587.509 474.872C586.305 484.506 585.992 483.685 590.859 483.625C603.311 483.472 617.464 479.92 629.672 473.881C649.266 464.191 654.957 459.607 692.398 423.363C695.124 420.723 697.781 418.71 698.304 418.89C699.368 419.255 691.879 434.974 686.672 443.303C684.85 446.219 680.298 451.82 676.557 455.749L669.755 462.892L669.187 469.255C668.875 472.755 668.033 477.782 667.317 480.425C665.607 486.743 666.061 487.709 670.745 487.709C677.237 487.709 693.583 494.74 691.661 496.704C691.254 497.121 687.986 497.864 684.396 498.356C667.372 500.691 661.508 502.574 656.862 507.2C655.496 508.56 651.091 513.817 647.076 518.881C643.059 523.947 639.024 528.629 638.108 529.289C636.535 530.424 636.748 530.851 642.006 537.087C649.301 545.746 654.07 552.532 657.922 559.747C659.746 563.161 661.642 565.629 662.443 565.629C663.202 565.629 669.379 559.886 676.169 552.865ZM341.858 535.849C349.869 519.318 363.733 501.863 377.468 491.02C384.187 485.715 383.989 487.08 380.231 471.982C377.443 460.783 375.856 456.054 372.388 448.621L369.402 442.224L363.972 443.933C356.363 446.326 337.598 456.07 326.961 463.151C322.034 466.433 317.843 468.954 317.651 468.754C316.843 467.923 326.993 455.248 335.484 446.487C353.924 427.463 373.17 416.374 396.826 411.147C400.655 410.301 404.375 409.306 405.093 408.934C405.81 408.565 407.102 405.481 407.961 402.083C411.505 388.092 414.96 375.977 419.102 363.03C432.784 320.267 432.809 320.162 438.572 277.235C440.44 263.324 442.378 251.209 443.947 243.648C444.662 240.201 445.836 234.558 446.554 231.109C448.295 222.761 452.654 204.375 455.264 194.39C458.908 180.436 465.386 158.139 467.828 151.14C468.736 148.536 469.481 146.225 469.481 146.003C469.481 144.866 448.586 137.429 440.708 135.76C430.994 133.703 415.702 131.859 407.703 131.778L399.438 131.695L396.264 141.546C394.519 146.965 392.228 154.422 391.171 158.115C390.115 161.811 388.674 166.646 387.971 168.863C384.571 179.564 376.403 211.525 372.978 227.528C371.923 232.454 370.691 238.096 370.241 240.067C369.438 243.57 367.877 251.687 365.932 262.457C363.454 276.182 360.707 296.331 361.24 296.88C361.463 297.109 365.646 293.245 370.535 288.293C380.825 277.872 396.552 265.459 397.818 266.761C398.367 267.327 394.586 272.947 384.075 287.19C351.92 330.757 347.688 336.697 336.527 353.943C324.189 373.007 317.979 383.874 308.96 402.176C291.919 436.758 284.931 455.78 282.886 473.148C280.719 491.547 283.549 504.508 292.282 516.192C300.668 527.41 311.47 534.872 333.744 544.831C334.941 545.366 336.157 545.831 336.449 545.864C336.738 545.898 339.174 541.391 341.858 535.849ZM628.779 519.129C634.455 510.811 652.928 484.817 654.105 477.208C654.35 475.627 650.834 477.253 649.354 477.857C641.956 480.875 617.001 491.921 609.714 495.315C608.198 496.021 605.1 496.062 605.627 498.225C605.931 499.472 616.198 523.632 620.058 527.116C622.984 529.758 626.558 522.385 628.779 519.129ZM560.896 505.101C562.796 502.565 566.026 497.112 568.075 492.982C578.14 472.691 577.093 462.146 563.519 447.086C559.982 443.162 554.167 439.056 553.104 439.732C552.712 439.981 552.173 443.321 551.904 447.154C551.563 452.026 550.573 456.278 548.614 461.288C543.865 473.427 542.09 474.311 535.102 468.017C532.467 465.643 529.311 463.442 528.09 463.128C525.702 462.51 523.426 463.853 523.426 465.881C523.426 467.858 527.369 475.726 530.212 479.42C533.521 483.72 534.928 489.091 534.579 496.08L534.304 501.578L539.1 504.272C541.738 505.754 546.028 508.469 548.634 510.305L553.371 513.646L555.407 511.677C556.527 510.595 558.997 507.635 560.896 505.101ZM495.402 504.468C497.416 502.356 502.437 495.602 503.783 493.755C505.836 490.938 506.748 490.396 509.434 490.396C511.196 490.396 515.955 492.368 517.989 492.703C521.479 493.277 521.683 493.191 521.623 491.181C521.59 490.01 520.805 487.843 519.883 486.365C518.959 484.888 517.714 482.671 517.115 481.439C513.76 474.548 513.334 474.274 505.976 474.274C502.232 474.274 498.978 474.59 498.746 474.976C498.204 475.878 500.552 483.838 500.839 486.129C501.948 494.973 465.054 490.431 462.302 490.207C456.691 489.751 455.734 490.906 459.922 493.082C461.343 493.822 467.893 497.194 474.476 500.576C481.06 503.959 487.034 507.059 487.752 507.465C490.25 508.878 491.764 508.285 495.402 504.468ZM407.499 470.748C411.934 468.747 415.947 467.11 416.418 467.11C416.916 467.11 417.286 463.642 417.302 458.825C417.318 454.268 417.868 444.292 418.528 436.657C419.186 429.022 419.642 422.687 419.54 422.577C419.077 422.084 401.484 425.687 395.957 427.409C388.163 429.835 386.706 430.581 387.196 431.893C387.451 432.579 388.281 435.444 389.038 438.258C389.796 441.072 390.75 444.383 391.158 445.613C391.844 447.685 393.934 457.445 396.398 470.085C397.051 473.431 397.777 475.137 398.426 474.844C398.982 474.592 403.066 472.748 407.499 470.748ZM503.828 458.661C511.017 457.538 511.846 457.193 514.269 454.313C515.717 452.593 517.756 450.737 518.802 450.191C521.354 448.856 528.33 449 532.334 450.469C535.543 451.649 535.604 451.627 536.903 448.95C541.953 438.528 532.578 402.586 521.398 389.511L518.058 385.607H521.655C523.635 385.607 526.507 386.267 528.038 387.072C531.085 388.677 537.61 393.692 538.077 394.79C538.239 395.169 539.098 395.88 539.988 396.371C541.544 397.227 541.586 396.672 541.081 381.557C540.628 367.997 540.73 365.92 541.829 366.354C543.598 367.053 549.083 377.114 550.89 382.978C551.716 385.655 552.699 388.2 553.075 388.634C554.161 389.886 578.067 364.519 584.77 355C590.692 346.589 593.762 343.472 592.792 346.857C592.543 347.727 591.296 352.066 590.023 356.499C584.066 377.232 572.072 396.126 557.217 408.17C553.468 411.21 550.493 413.843 550.399 413.938C542.952 421.635 571.489 439.394 584.181 430.409C592.259 424.689 610.168 417.649 612.545 415.808C614.286 414.46 616.492 408.2 616.514 404.543C616.548 399.6 626.325 359.019 630.948 344.655C635.281 331.19 641.819 313.808 644.981 307.354C646.157 304.954 646.793 302.663 646.397 302.262C645.048 300.897 631.732 297.521 614.788 294.248C603.713 292.11 600.946 292.059 593.306 293.852C568.164 299.755 531.729 321.052 508.417 343.472C495.988 355.427 486.305 371.103 483.038 384.56C480.123 396.57 481.835 415.719 487.776 437.553C488.612 440.625 492.709 455.285 493.597 458.377C494.126 460.225 493.863 460.218 503.828 458.661ZM594.071 454.907C613.952 447.562 632.075 436.26 650.462 419.737C660.304 410.893 672.218 398.839 672.187 397.76C672.17 397.233 670.476 395.752 668.418 394.467L664.676 392.132L659.961 396.557C648.569 407.249 636.241 416.785 622.618 425.442C613.572 431.191 587.322 444.69 585.153 444.707C584.407 444.712 583.086 445.252 582.218 445.906C580.712 447.039 580.737 447.252 582.769 450.608C583.938 452.541 585.148 454.827 585.459 455.689C586.185 457.721 586.541 457.689 594.071 454.907ZM287.759 411.132C294.357 393.78 303.246 376.275 313.04 361.352C315.813 357.125 318.082 353.095 318.082 352.396C318.081 349.606 312.848 340.01 307.865 333.66C299.577 323.1 290.531 315.94 262.582 297.817C251.003 290.309 228.075 273.888 219.844 267.21C213.611 262.153 213.345 262.034 211.703 263.563C209.659 265.465 194.274 286.244 186.824 297.163C183.882 301.473 179.127 308.441 176.256 312.647C173.384 316.852 171.036 320.467 171.036 320.679C171.036 321.32 204.341 342.616 205.344 342.616C205.499 342.616 208.709 344.361 212.476 346.494C216.244 348.627 224.004 352.909 229.721 356.01C244.832 364.204 253.567 370.433 260.548 377.998C267.098 385.096 271.066 392.228 277.988 409.341C279.98 414.267 282.027 419.305 282.533 420.537C283.451 422.762 283.463 422.755 284.756 419.193C285.471 417.222 286.823 413.595 287.759 411.132ZM639.247 395.68C642.888 392.849 648.442 388.114 651.587 385.159L657.303 379.786L656.025 374.86C654.322 368.301 654.318 364.112 656.009 360.748C658.98 354.834 663.349 356.565 665.273 364.42C666.744 370.419 668.868 376.018 670.697 378.715C674.573 384.427 683.514 387.654 688.97 385.307C690.526 384.639 693.292 382.215 695.117 379.923C699.051 374.981 701.237 374.637 707.37 377.994C709.621 379.225 711.935 380.233 712.512 380.233C713.989 380.233 715.252 377.875 716.902 372.033C718.144 367.633 718.765 366.765 721.764 365.237L725.202 363.486L721.114 359.992C715.141 354.888 711.37 350.73 711.37 349.25C711.37 348.536 712.384 347.476 713.623 346.895C715.537 345.998 716.449 346.152 719.691 347.922C721.791 349.068 725.502 351.974 727.939 354.38L732.37 358.752L737.016 355.579C744.968 350.146 745.133 350.995 733.841 339.203C728.326 333.444 721.937 326.216 719.64 323.137C717.343 320.058 715.049 317.538 714.541 317.538C714.034 317.538 712.232 318.923 710.537 320.617C702.737 328.405 692.435 331.155 685.232 327.372C680.881 325.088 680.663 322.152 684.445 316.856C688.949 310.552 689.035 303.158 684.621 301.643C677.148 299.08 666.08 310.168 666.138 320.161C666.154 323.112 666.996 324.411 669.161 324.833C671.708 325.332 671.726 327.682 669.203 330.769C663.565 337.668 656.132 335.22 655.547 326.27C655.426 324.423 654.919 322.921 654.418 322.933C653.448 322.955 646.977 339.583 642.75 352.916C640.251 360.803 632.865 390.819 631.785 397.473C631.487 399.322 631.552 400.832 631.934 400.831C632.314 400.831 635.606 398.512 639.247 395.68ZM331.533 335.227C332.437 333.626 343.188 318.166 344.094 317.149C345.472 315.604 345.823 313.388 346.229 303.656C346.496 297.252 347.317 288.184 348.054 283.504C348.79 278.824 349.834 272.175 350.374 268.726C354.088 245.035 360.928 213.615 369.632 180.25C370.119 178.386 370.277 176.614 369.986 176.314C368.49 174.775 338.236 189.257 318.116 201.146C301.108 211.195 277.414 228.078 265.876 238.368C264.68 239.435 260.568 243.071 256.74 246.451C252.911 249.828 247.684 254.709 245.123 257.294L240.467 261.996L245.123 265.832C247.684 267.943 250.625 270.264 251.657 270.99C252.69 271.715 256.802 274.711 260.794 277.646C264.786 280.582 273.534 286.788 280.232 291.439C286.932 296.088 295.351 301.946 298.939 304.453C310.768 312.718 325.228 328.738 327.928 336.571C328.719 338.862 329.682 338.504 331.533 335.227ZM179.01 283.287C182.998 277.748 186.743 272.554 187.33 271.746C188.222 270.513 187.867 269.562 185.155 265.918C181.407 260.884 179.373 257.462 177.505 253.053C176.776 251.328 175.833 249.112 175.412 248.127C170.644 236.956 168.254 216.384 168.596 189.486C168.742 178.142 168.599 168.862 168.281 168.863C166.279 168.866 155.981 187.177 152.416 197.075C151.527 199.538 150.292 202.763 149.67 204.241C148.708 206.525 144.609 219.456 141.294 230.662C139.492 236.755 136.942 241.621 131.83 248.717C123.156 260.758 124.611 264.163 142.245 273.075C155.196 279.621 161.37 283.719 166.647 289.275C168.781 291.519 170.804 293.357 171.142 293.357C171.481 293.357 175.021 288.824 179.01 283.287ZM462.506 119.813C467.557 107.81 483.529 86.2869 497.776 72.2856C507.195 63.0281 516.453 56.2393 534.429 45.4074C547.733 37.3908 550.846 34.8084 549.39 33.0009C548.322 31.677 544.27 31.7425 536.327 33.2121C533.297 33.7714 533.013 33.6112 530.878 30.1302C528.156 25.6922 525.324 25.3019 520.464 28.697C518.702 29.9277 516.489 30.9356 515.548 30.9356C513.9 30.9356 513.355 30.4419 509.633 25.567L507.926 23.3327L504.148 25.3718C502.07 26.4918 497.629 28.9868 494.279 30.9138C486.809 35.2119 470.372 40.9155 458.299 43.3989C448.309 45.454 441.64 48.6539 438.805 52.751C436.514 56.0631 435.898 62.8868 437.299 69.4483C438.833 76.6332 439.309 85.3547 438.317 88.1031C434.126 99.7114 429.271 117.086 430.008 117.843C430.483 118.333 433.98 119.314 437.777 120.024C441.576 120.733 447.423 122.085 450.773 123.024C460.11 125.646 460.043 125.665 462.506 119.813Z" fill="#0F1B20"/>
</g>
<defs>
<clipPath id="clip0_6027_177">
<rect width="1024" height="1024" fill="white"/>
</clipPath>
<clipPath id="clip1_6027_177">
<rect width="937.281" height="937.281" fill="white" transform="translate(43.6807 68.4648)"/>
</clipPath>
</defs>
</svg>
