<svg width="256" height="256" viewBox="0 0 256 256" fill="none" xmlns="http://www.w3.org/2000/svg">
<g clip-path="url(#clip0_6027_175)">
<g clip-path="url(#clip1_6027_175)">
<path d="M148.263 29.3739C147.46 29.2223 146.813 28.937 146.319 28.518C145.827 28.0881 145.457 27.5185 145.209 26.8091L147.063 25.9126C147.192 26.3074 147.369 26.6161 147.597 26.8389C147.823 27.0615 148.074 27.1984 148.344 27.2497C148.778 27.3316 149.128 27.263 149.394 27.0437C149.673 26.8157 149.879 26.3492 150.012 25.6443L151.313 18.7637L153.703 19.2155L152.367 26.2914C152.237 26.9746 152 27.5756 151.655 28.0943C151.31 28.6132 150.851 28.9925 150.277 29.2325C149.716 29.4743 149.043 29.5214 148.263 29.3739Z" fill="#0F1B20"/>
<path d="M158.186 31.7517C156.841 31.3601 155.928 30.6636 155.45 29.6623C154.971 28.661 154.985 27.2913 155.49 25.5535L157.109 19.9902L159.461 20.6748L157.773 26.4765C157.478 27.4937 157.425 28.2484 157.614 28.7406C157.805 29.2327 158.191 29.5635 158.774 29.733C159.357 29.9027 159.865 29.8324 160.301 29.5222C160.735 29.212 161.101 28.5484 161.398 27.531L163.086 21.7295L165.343 22.3862L163.724 27.9495C163.219 29.6873 162.499 30.8518 161.57 31.4432C160.649 32.0374 159.521 32.1403 158.186 31.7517Z" fill="#0F1B20"/>
<path d="M164.698 33.5796L168.775 23.5859L171.595 24.7365C172.618 25.1534 173.43 25.6878 174.035 26.3396C174.639 26.9914 174.995 27.7685 175.104 28.671C175.227 29.5675 175.055 30.5879 174.587 31.7324C174.121 32.8767 173.53 33.7386 172.818 34.3178C172.104 34.897 171.305 35.2204 170.419 35.2881C169.548 35.3498 168.622 35.1804 167.641 34.7802L164.698 33.5796ZM167.695 32.6749L168.124 32.85C168.696 33.0835 169.234 33.1835 169.736 33.1499C170.249 33.1207 170.719 32.919 171.145 32.5449C171.572 32.1707 171.948 31.5851 172.273 30.788C172.598 29.991 172.734 29.3197 172.684 28.7742C172.636 28.2185 172.435 27.7612 172.081 27.4022C171.741 27.037 171.286 26.7377 170.713 26.5043L170.284 26.3292L167.695 32.6749Z" fill="#0F1B20"/>
<path d="M178.191 39.8773C177.333 39.422 176.684 38.8212 176.243 38.0748C175.811 37.3337 175.607 36.4943 175.631 35.5568C175.668 34.6148 175.961 33.6271 176.509 32.5938C177.064 31.5508 177.711 30.7643 178.456 30.2344C179.214 29.7 180.016 29.4134 180.861 29.3747C181.721 29.3316 182.58 29.5376 183.438 29.993C184.296 30.4483 184.942 31.0417 185.379 31.7731C185.831 32.4999 186.043 33.3247 186.015 34.2473C185.998 35.175 185.714 36.1555 185.166 37.1888C184.616 38.222 183.958 39.0157 183.19 39.5697C182.435 40.119 181.626 40.4202 180.761 40.4731C179.906 40.5313 179.049 40.3328 178.191 39.8773ZM179.176 38.0203C179.83 38.367 180.496 38.3586 181.177 37.995C181.857 37.6315 182.451 36.972 182.958 36.0167C183.464 35.0615 183.671 34.2148 183.576 33.4769C183.48 32.739 183.105 32.1967 182.452 31.8499C181.8 31.5032 181.14 31.497 180.475 31.8314C179.81 32.1657 179.225 32.8105 178.718 33.7659C178.211 34.7211 177.996 35.5823 178.077 36.3495C178.156 37.1167 178.523 37.6736 179.176 38.0203Z" fill="#0F1B20"/>
<path d="M190.676 47.6528C189.939 47.1277 189.383 46.4734 189.005 45.6899C188.629 44.9065 188.489 44.0478 188.585 43.1137C188.696 42.177 189.102 41.2188 189.8 40.2391C190.491 39.2683 191.27 38.576 192.133 38.1618C193.013 37.7451 193.896 37.5811 194.781 37.6699C195.681 37.7561 196.501 38.0616 197.237 38.5868C197.804 38.9902 198.228 39.4688 198.511 40.0228C198.8 40.5676 198.984 41.0986 199.063 41.6155L197.109 42.1336C197.032 41.7667 196.911 41.4307 196.75 41.1256C196.603 40.8179 196.372 40.552 196.057 40.3278C195.663 40.0461 195.218 39.8991 194.725 39.8868C194.242 39.881 193.75 40.0188 193.252 40.3004C192.762 40.5883 192.305 41.0289 191.883 41.6222C191.243 42.5211 190.937 43.3598 190.965 44.1385C190.993 44.9172 191.331 45.5371 191.977 45.9981C192.337 46.2542 192.713 46.4007 193.108 46.4375C193.51 46.4806 193.9 46.4667 194.276 46.3957L194.443 48.3852C193.092 48.7231 191.835 48.4789 190.676 47.6528Z" fill="#0F1B20"/>
<path d="M194.91 50.5618L201.907 42.3438L203.761 43.9214L198.094 50.5765L201.345 53.3453L200.014 54.9083L194.91 50.5618Z" fill="#0F1B20"/>
<path d="M203.816 58.8825C202.827 57.8894 202.365 56.8389 202.43 55.7308C202.495 54.6229 203.167 53.4302 204.451 52.153L208.556 48.0645L210.284 49.8004L206.003 54.0643C205.252 54.8119 204.841 55.447 204.77 55.9697C204.698 56.4924 204.877 56.9688 205.306 57.399C205.734 57.829 206.213 58.0133 206.745 57.952C207.276 57.8907 207.917 57.4862 208.666 56.7386L212.948 52.4748L214.607 54.1404L210.502 58.2289C209.218 59.5061 208.028 60.1788 206.927 60.2467C205.835 60.3226 204.798 59.8678 203.816 58.8825Z" fill="#0F1B20"/>
<path d="M208.638 63.6363L217.018 56.834L219.344 59.7003C219.816 60.283 220.177 60.8577 220.424 61.4248C220.68 61.9849 220.769 62.5238 220.692 63.0414C220.614 63.559 220.305 64.037 219.766 64.475C219.398 64.7742 218.953 64.9713 218.434 65.0662C217.929 65.1629 217.474 65.0921 217.067 64.8537L217.015 64.8954C217.251 65.4143 217.321 65.9472 217.226 66.4943C217.145 67.0429 216.826 67.5433 216.27 67.9954C215.695 68.4615 215.11 68.6948 214.514 68.6956C213.918 68.6964 213.331 68.5255 212.755 68.1832C212.187 67.834 211.656 67.3551 211.162 66.7467L208.638 63.6363ZM215.197 61.4464L215.916 62.3333C216.292 62.796 216.654 63.0571 217 63.1167C217.355 63.1849 217.68 63.0972 217.981 62.8538C218.307 62.5894 218.451 62.2946 218.414 61.9691C218.377 61.6436 218.178 61.2581 217.817 60.8124L217.086 59.9128L215.197 61.4464ZM211.636 64.3364L212.502 65.4031C213.344 66.44 214.142 66.6523 214.895 66.0403C215.265 65.7411 215.421 65.4005 215.367 65.0183C215.32 64.6291 215.086 64.1731 214.662 63.6504L213.796 62.5836L211.636 64.3364Z" fill="#0F1B20"/>
<path d="M218.348 77.0696C217.97 76.473 217.704 75.8054 217.549 75.067C217.401 74.3379 217.394 73.6045 217.528 72.8667L219.684 73.1467C219.611 73.6502 219.614 74.1585 219.689 74.6715C219.768 75.1846 219.924 75.6277 220.16 76.0006C220.431 76.4295 220.712 76.6962 220.999 76.8009C221.294 76.915 221.577 76.8864 221.847 76.7151C222.135 76.5321 222.269 76.278 222.245 75.9528C222.237 75.6313 222.191 75.2168 222.105 74.7095L221.856 73.202C221.791 72.8116 221.778 72.4088 221.815 71.9932C221.861 71.5718 221.991 71.1692 222.206 70.7852C222.42 70.4014 222.746 70.0708 223.184 69.7932C223.688 69.4743 224.231 69.3201 224.812 69.3306C225.399 69.3504 225.967 69.526 226.516 69.8573C227.073 70.1979 227.551 70.6851 227.952 71.3191C228.283 71.8413 228.511 72.4282 228.637 73.0803C228.762 73.7323 228.753 74.3782 228.61 75.0177L226.645 74.7927C226.689 74.3467 226.677 73.9361 226.609 73.5611C226.551 73.18 226.406 72.8078 226.176 72.4441C225.952 72.0898 225.697 71.8528 225.412 71.7328C225.142 71.6163 224.877 71.6406 224.616 71.806C224.337 71.9832 224.209 72.2466 224.235 72.5963C224.266 72.9552 224.327 73.3807 224.416 73.8727L224.685 75.3485C224.809 76.0404 224.779 76.6734 224.595 77.2478C224.409 77.8221 223.996 78.3131 223.353 78.7206C222.849 79.0395 222.297 79.1994 221.697 79.2008C221.097 79.2021 220.504 79.029 219.917 78.6816C219.332 78.3341 218.809 77.7968 218.348 77.0696Z" fill="#0F1B20"/>
<path d="M221.543 82.031L231.024 76.873L232.188 79.0107L222.706 84.1686L221.543 82.031Z" fill="#0F1B20"/>
<path d="M223.942 86.4049L233.785 81.9746L234.811 84.2541L231.075 89.0218L229.336 90.9665L229.363 91.0269C229.869 90.751 230.428 90.4329 231.04 90.0726C231.651 89.7122 232.25 89.4006 232.834 89.138L236.305 87.5751L237.257 89.6885L227.415 94.1187L226.388 91.8394L230.139 87.0647L231.849 85.1337L231.821 85.0734C231.3 85.3684 230.742 85.6863 230.144 86.0276C229.552 86.379 228.964 86.686 228.38 86.9487L224.893 88.5183L223.942 86.4049Z" fill="#0F1B20"/>
<path d="M228.088 95.8657L229.482 95.3903L237.9 97.5585L236.505 93.4688L238.448 92.8066L240.808 99.7323L239.414 100.208L230.997 98.0395L232.552 102.599L230.608 103.262L228.088 95.8657Z" fill="#0F1B20"/>
<path d="M231.142 105.041L241.642 102.545L242.205 104.912L238.162 105.873L239.023 109.497L243.066 108.536L243.633 110.92L233.132 113.416L232.565 111.032L236.946 109.991L236.084 106.367L231.703 107.408L231.142 105.041Z" fill="#0F1B20"/>
<path d="M233.558 115.92L244.252 114.453L245.168 121.144L243.135 121.424L242.549 117.144L240.399 117.438L240.898 121.078L238.881 121.355L238.382 117.714L235.922 118.051L236.531 122.497L234.498 122.775L233.558 115.92Z" fill="#0F1B20"/>
<path d="M234.65 124.927L245.416 124.146L245.592 126.574L234.827 127.353L234.65 124.927Z" fill="#0F1B20"/>
<path d="M235.06 129.893L245.854 129.992L245.83 132.656L241.013 134.35C240.703 134.459 240.376 134.561 240.033 134.656C239.69 134.753 239.352 134.855 239.02 134.962V135.028C239.35 135.142 239.686 135.244 240.028 135.336C240.368 135.438 240.693 135.545 241.001 135.659L245.786 137.408L245.762 140.056L234.969 139.958L234.989 137.739L238.946 137.775C239.298 137.779 239.69 137.799 240.12 137.836C240.561 137.884 241.002 137.933 241.443 137.98C241.884 138.04 242.275 138.088 242.617 138.123L242.618 138.057L240.06 137.157L235.953 135.579L235.965 134.239L240.101 132.737L242.674 131.899L242.675 131.833C242.332 131.874 241.94 131.915 241.498 131.955C241.057 131.996 240.614 132.03 240.172 132.059C239.742 132.099 239.35 132.117 238.997 132.115L235.04 132.078L235.06 129.893Z" fill="#0F1B20"/>
<path d="M233.731 149.215C233.84 148.439 234.107 147.762 234.533 147.187C234.959 146.611 235.514 146.188 236.197 145.915C236.882 145.642 237.673 145.569 238.569 145.694C239.454 145.818 240.189 146.104 240.772 146.553C241.354 147.013 241.774 147.562 242.03 148.199C242.297 148.839 242.386 149.48 242.296 150.125C242.189 150.901 241.924 151.517 241.504 151.97C241.093 152.437 240.576 152.755 239.95 152.923C239.335 153.105 238.655 153.144 237.911 153.041C237.704 153.012 237.498 152.972 237.293 152.921C237.099 152.872 236.955 152.829 236.859 152.793L237.539 147.924C236.934 147.95 236.462 148.136 236.124 148.479C235.797 148.823 235.597 149.263 235.522 149.799C235.441 150.378 235.54 150.988 235.819 151.628L234.248 152.228C234.021 151.774 233.861 151.277 233.77 150.741C233.677 150.204 233.665 149.696 233.731 149.215ZM239.132 148.129L238.721 151.064C239.17 151.126 239.552 151.068 239.866 150.889C240.19 150.723 240.386 150.399 240.454 149.918C240.505 149.546 240.421 149.195 240.199 148.863C239.989 148.533 239.633 148.288 239.132 148.129Z" fill="#0F1B20"/>
<path d="M232.649 155.412C232.734 155.001 232.945 154.683 233.283 154.459C233.631 154.249 234.016 154.188 234.437 154.274C234.87 154.363 235.198 154.572 235.425 154.899C235.658 155.241 235.733 155.617 235.648 156.027C235.565 156.438 235.349 156.748 235.001 156.959C234.663 157.182 234.276 157.25 233.845 157.161C233.422 157.074 233.095 156.861 232.861 156.52C232.636 156.192 232.564 155.822 232.649 155.412Z" fill="#0F1B20"/>
<path d="M231.886 159.716L243.154 159.312L242.497 161.809L237.301 161.776C236.694 161.788 236.102 161.78 235.527 161.755C234.948 161.739 234.351 161.735 233.732 161.744L233.715 161.808C234.251 162.108 234.776 162.396 235.287 162.667C235.797 162.939 236.316 163.223 236.842 163.521L241.384 166.035L240.751 168.437L231.141 162.551L231.886 159.716Z" fill="#0F1B20"/>
<path d="M229.687 166.657C229.816 166.257 230.061 165.966 230.422 165.781C230.791 165.61 231.18 165.591 231.589 165.724C232.009 165.859 232.314 166.103 232.502 166.453C232.696 166.818 232.731 167.199 232.601 167.599C232.473 167.998 232.224 168.282 231.855 168.453C231.494 168.639 231.103 168.662 230.683 168.527C230.274 168.395 229.971 168.146 229.776 167.782C229.588 167.431 229.558 167.056 229.687 166.657Z" fill="#0F1B20"/>
<path d="M225.008 178.602C225.351 177.861 225.787 177.303 226.314 176.926C226.85 176.556 227.494 176.336 228.242 176.27L228.658 178.287C228.243 178.313 227.9 178.41 227.629 178.577C227.357 178.742 227.164 178.95 227.047 179.2C226.862 179.602 226.843 179.958 226.99 180.269C227.143 180.595 227.545 180.909 228.196 181.211L234.548 184.156L233.526 186.364L226.992 183.335C226.361 183.042 225.837 182.666 225.418 182.204C225 181.743 224.744 181.204 224.652 180.59C224.555 179.986 224.674 179.323 225.008 178.602Z" fill="#0F1B20"/>
<path d="M220.294 187.612C221.003 186.401 221.899 185.686 222.988 185.466C224.075 185.246 225.401 185.593 226.962 186.509L231.963 189.435L230.725 191.55L225.511 188.498C224.597 187.961 223.878 187.727 223.353 187.791C222.83 187.855 222.414 188.149 222.108 188.674C221.801 189.197 221.746 189.708 221.94 190.205C222.135 190.703 222.69 191.219 223.604 191.754L228.819 194.807L227.631 196.836L222.63 193.909C221.069 192.994 220.114 192.014 219.768 190.966C219.416 189.929 219.591 188.812 220.294 187.612Z" fill="#0F1B20"/>
<path d="M216.925 193.492L225.629 199.877L223.826 202.332C223.175 203.222 222.458 203.882 221.68 204.308C220.9 204.736 220.06 204.893 219.158 204.78C218.259 204.68 217.311 204.266 216.313 203.535C215.317 202.804 214.625 202.022 214.235 201.189C213.847 200.356 213.728 199.502 213.878 198.627C214.03 197.767 214.42 196.909 215.046 196.055L216.925 193.492ZM217.075 196.62L216.801 196.994C216.435 197.492 216.207 197.988 216.117 198.484C216.022 198.988 216.103 199.493 216.362 199.997C216.622 200.503 217.099 201.01 217.793 201.519C218.487 202.028 219.104 202.324 219.645 202.406C220.196 202.495 220.689 202.412 221.123 202.156C221.56 201.915 221.962 201.546 222.327 201.048L222.601 200.673L217.075 196.62Z" fill="#0F1B20"/>
<path d="M207.564 205.027C208.213 204.304 208.953 203.82 209.784 203.572C210.607 203.334 211.471 203.338 212.375 203.587C213.28 203.851 214.167 204.375 215.037 205.156C215.915 205.945 216.522 206.765 216.857 207.615C217.192 208.48 217.276 209.328 217.109 210.157C216.943 211.002 216.535 211.786 215.886 212.507C215.237 213.23 214.505 213.715 213.689 213.962C212.876 214.224 212.025 214.23 211.136 213.98C210.239 213.739 209.356 213.226 208.486 212.445C207.616 211.662 207.005 210.832 206.654 209.953C206.303 209.088 206.207 208.23 206.364 207.377C206.515 206.533 206.914 205.749 207.564 205.027ZM209.127 206.433C208.633 206.982 208.481 207.631 208.669 208.379C208.857 209.128 209.353 209.863 210.157 210.586C210.962 211.309 211.733 211.713 212.472 211.799C213.212 211.885 213.828 211.652 214.322 211.102C214.818 210.553 214.982 209.914 214.819 209.189C214.655 208.463 214.171 207.738 213.366 207.015C212.562 206.292 211.778 205.878 211.014 205.769C210.25 205.662 209.621 205.883 209.127 206.433Z" fill="#0F1B20"/>
<path d="M196.999 215.274C197.686 214.686 198.455 214.303 199.306 214.126C200.157 213.949 201.025 214.02 201.908 214.339C202.79 214.673 203.622 215.296 204.404 216.21C205.18 217.116 205.665 218.038 205.858 218.975C206.05 219.93 205.997 220.825 205.698 221.664C205.398 222.517 204.902 223.238 204.216 223.826C203.688 224.279 203.121 224.576 202.514 224.718C201.916 224.866 201.357 224.918 200.837 224.869L200.805 222.848C201.18 222.861 201.534 222.825 201.87 222.742C202.203 222.674 202.517 222.514 202.81 222.262C203.179 221.947 203.428 221.551 203.559 221.076C203.681 220.608 203.667 220.098 203.513 219.546C203.351 219.002 203.034 218.452 202.559 217.9C201.842 217.062 201.101 216.561 200.34 216.401C199.577 216.241 198.894 216.418 198.291 216.936C197.955 217.223 197.723 217.553 197.592 217.926C197.453 218.307 197.372 218.688 197.351 219.071L195.379 218.754C195.378 217.36 195.917 216.201 196.999 215.274Z" fill="#0F1B20"/>
<path d="M193.157 218.684L199.447 227.455L197.468 228.873L192.376 221.769L188.905 224.258L187.709 222.59L193.157 218.684Z" fill="#0F1B20"/>
<path d="M182.921 225.326C184.124 224.606 185.255 224.411 186.314 224.742C187.375 225.072 188.37 226.015 189.299 227.567L192.275 232.539L190.172 233.797L187.069 228.612C186.525 227.704 186.008 227.151 185.518 226.955C185.028 226.761 184.522 226.819 184.002 227.13C183.481 227.443 183.186 227.862 183.117 228.394C183.048 228.923 183.287 229.642 183.831 230.551L186.934 235.736L184.917 236.943L181.941 231.972C181.012 230.418 180.646 229.101 180.846 228.016C181.037 226.937 181.728 226.04 182.921 225.326Z" fill="#0F1B20"/>
<path d="M177.153 228.85L181.722 238.629L178.377 240.191C177.698 240.509 177.053 240.718 176.442 240.822C175.837 240.933 175.293 240.889 174.809 240.689C174.326 240.488 173.936 240.073 173.642 239.443C173.441 239.014 173.358 238.535 173.392 238.007C173.42 237.495 173.599 237.07 173.93 236.733L173.901 236.673C173.341 236.777 172.807 236.716 172.3 236.49C171.786 236.279 171.378 235.849 171.075 235.199C170.762 234.528 170.677 233.905 170.82 233.325C170.965 232.746 171.272 232.219 171.743 231.743C172.22 231.276 172.813 230.877 173.523 230.546L177.153 228.85ZM177.688 235.744L176.653 236.228C176.114 236.48 175.772 236.768 175.63 237.09C175.478 237.415 175.485 237.754 175.648 238.104C175.825 238.484 176.077 238.696 176.401 238.738C176.726 238.782 177.148 238.683 177.668 238.439L178.719 237.949L177.688 235.744ZM175.747 231.59L174.502 232.171C173.293 232.737 172.893 233.46 173.305 234.339C173.505 234.769 173.797 235.004 174.181 235.044C174.571 235.094 175.07 234.976 175.679 234.691L176.924 234.11L175.747 231.59Z" fill="#0F1B20"/>
<path d="M161.748 235.014C162.419 234.793 163.132 234.698 163.885 234.728C164.628 234.761 165.342 234.933 166.024 235.243L165.227 237.266C164.757 237.072 164.263 236.95 163.748 236.9C163.231 236.85 162.764 236.893 162.344 237.031C161.862 237.19 161.535 237.397 161.363 237.651C161.18 237.909 161.14 238.19 161.239 238.493C161.347 238.819 161.561 239.01 161.882 239.067C162.196 239.137 162.609 239.193 163.121 239.232L164.644 239.358C165.039 239.391 165.434 239.476 165.827 239.614C166.224 239.761 166.583 239.986 166.904 240.286C167.223 240.588 167.465 240.986 167.627 241.477C167.813 242.044 167.831 242.607 167.678 243.168C167.517 243.734 167.208 244.242 166.753 244.694C166.287 245.149 165.697 245.495 164.985 245.73C164.398 245.924 163.773 246.002 163.111 245.965C162.447 245.928 161.823 245.761 161.238 245.466L161.935 243.616C162.357 243.767 162.757 243.856 163.137 243.882C163.521 243.918 163.919 243.869 164.327 243.734C164.725 243.603 165.016 243.413 165.203 243.166C165.382 242.933 165.423 242.669 165.326 242.376C165.222 242.061 164.998 241.874 164.652 241.813C164.296 241.756 163.87 241.711 163.37 241.678L161.874 241.579C161.172 241.531 160.565 241.347 160.053 241.028C159.542 240.709 159.167 240.188 158.928 239.465C158.742 238.899 158.721 238.325 158.865 237.742C159.011 237.16 159.323 236.627 159.803 236.144C160.282 235.661 160.931 235.283 161.748 235.014Z" fill="#0F1B20"/>
<path d="M156.137 236.908L158.82 247.363L156.464 247.968L153.779 237.513L156.137 236.908Z" fill="#0F1B20"/>
<path d="M151.309 238.166L153.198 248.794L150.736 249.231L147.028 244.442L145.567 242.279L145.502 242.291C145.646 242.849 145.817 243.469 146.017 244.151C146.217 244.831 146.372 245.488 146.485 246.119L147.151 249.867L144.869 250.273L142.98 239.645L145.442 239.208L149.155 244.013L150.609 246.143L150.674 246.131C150.515 245.555 150.344 244.935 150.158 244.273C149.962 243.612 149.809 242.967 149.696 242.336L149.027 238.571L151.309 238.166Z" fill="#0F1B20"/>
<path d="M141.132 239.869L141.252 241.338L137.097 248.971L141.402 248.616L141.57 250.663L134.278 251.262L134.157 249.794L138.314 242.16L133.513 242.555L133.345 240.509L141.132 239.869Z" fill="#0F1B20"/>
<path d="M131.505 240.589L131.386 251.383L128.951 251.355L128.998 247.201L125.274 247.16L125.227 251.314L122.777 251.288L122.898 240.494L125.347 240.522L125.298 245.025L129.022 245.066L129.072 240.563L131.505 240.589Z" fill="#0F1B20"/>
<path d="M120.365 240.307L119.214 251.038L112.498 250.318L112.718 248.277L117.013 248.738L117.244 246.582L113.591 246.19L113.808 244.165L117.462 244.557L117.727 242.089L113.266 241.611L113.485 239.568L120.365 240.307Z" fill="#0F1B20"/>
<path d="M111.359 239.198L109.522 249.834L107.124 249.419L108.961 238.783L111.359 239.198Z" fill="#0F1B20"/>
<path d="M106.427 238.4L103.712 248.846L101.133 248.176L100.658 243.092C100.629 242.765 100.609 242.425 100.599 242.068C100.589 241.712 100.572 241.36 100.548 241.012L100.484 240.994C100.294 241.287 100.113 241.589 99.9419 241.898C99.7598 242.203 99.5764 242.492 99.3919 242.764L96.5342 246.982L93.9707 246.316L96.6851 235.869L98.8321 236.427L97.8371 240.255C97.7483 240.597 97.6337 240.973 97.4935 241.381C97.3397 241.797 97.1859 242.213 97.0322 242.63C96.8678 243.043 96.7265 243.411 96.6084 243.733L96.6725 243.75L98.167 241.487L100.694 237.885L101.991 238.223L102.445 242.599L102.633 245.298L102.697 245.316C102.74 244.973 102.796 244.583 102.864 244.145C102.933 243.707 103.006 243.27 103.085 242.834C103.151 242.406 103.228 242.021 103.317 241.679L104.312 237.85L106.427 238.4Z" fill="#0F1B20"/>
<path d="M88.0245 232.411C88.7505 232.705 89.3407 233.129 89.795 233.682C90.2493 234.236 90.5248 234.878 90.6216 235.608C90.7184 236.338 90.5967 237.123 90.2564 237.961C89.9203 238.789 89.4632 239.431 88.8851 239.888C88.2967 240.34 87.6621 240.613 86.9812 240.705C86.2963 240.809 85.6521 240.738 85.0487 240.493C84.3226 240.198 83.7907 239.791 83.4532 239.274C83.1011 238.762 82.9196 238.182 82.9085 237.535C82.8829 236.892 83.0112 236.224 83.2933 235.528C83.3722 235.335 83.4612 235.144 83.5606 234.959C83.6557 234.783 83.7322 234.653 83.7899 234.57L88.3458 236.417C88.4677 235.824 88.4036 235.322 88.1535 234.91C87.8992 234.51 87.5217 234.207 87.0205 234.004C86.4786 233.784 85.8629 233.731 85.1739 233.844L84.9762 232.174C85.4726 232.065 85.9923 232.032 86.5352 232.074C87.078 232.116 87.5745 232.228 88.0245 232.411ZM87.7574 237.912L85.0116 236.797C84.8415 237.217 84.8048 237.601 84.9015 237.949C84.9837 238.306 85.2498 238.573 85.6998 238.756C86.0474 238.897 86.4092 238.901 86.7848 238.768C87.1564 238.645 87.4806 238.36 87.7574 237.912Z" fill="#0F1B20"/>
<path d="M82.2522 229.834C82.6299 230.015 82.8856 230.299 83.0192 230.681C83.1383 231.069 83.1041 231.457 82.9171 231.845C82.7252 232.243 82.4428 232.51 82.0696 232.649C81.6815 232.792 81.2988 232.774 80.9211 232.591C80.5434 232.41 80.2951 232.124 80.1761 231.736C80.0424 231.353 80.0715 230.962 80.2633 230.565C80.4504 230.177 80.7379 229.911 81.1258 229.768C81.499 229.629 81.8745 229.651 82.2522 229.834Z" fill="#0F1B20"/>
<path d="M78.2805 228.049L75.9206 239.074L73.6595 237.826L74.9607 232.796C75.0984 232.204 75.2501 231.632 75.4157 231.081C75.5717 230.525 75.7213 229.945 75.8643 229.344L75.8063 229.312C75.383 229.758 74.9775 230.197 74.5896 230.626C74.2017 231.055 73.7987 231.488 73.3809 231.925L69.8332 235.715L67.6592 234.515L75.7152 226.633L78.2805 228.049Z" fill="#0F1B20"/>
<path d="M72.083 224.22C72.4386 224.443 72.6619 224.751 72.753 225.147C72.8289 225.546 72.7526 225.927 72.5244 226.293C72.2903 226.668 71.9801 226.904 71.5941 227C71.1928 227.101 70.8144 227.04 70.4589 226.817C70.1033 226.595 69.8875 226.284 69.8116 225.885C69.7207 225.489 69.7922 225.105 70.0262 224.73C70.2545 224.366 70.5693 224.133 70.9706 224.032C71.3566 223.936 71.7274 223.998 72.083 224.22Z" fill="#0F1B20"/>
<path d="M61.6551 216.791C62.2908 217.305 62.7272 217.862 62.9643 218.465C63.1944 219.075 63.2511 219.752 63.1343 220.495L61.0767 220.407C61.1508 220 61.1401 219.643 61.0449 219.34C60.9497 219.037 60.7946 218.798 60.5799 218.625C60.2364 218.348 59.8955 218.244 59.5574 218.311C59.2038 218.38 58.8017 218.694 58.3513 219.251L53.9545 224.701L52.0605 223.174L56.5821 217.569C57.0186 217.028 57.5115 216.611 58.0609 216.317C58.6102 216.021 59.1941 215.905 59.8127 215.964C60.4226 216.016 61.0368 216.291 61.6551 216.791Z" fill="#0F1B20"/>
<path d="M54.0309 210.015C55.0333 210.994 55.5098 212.039 55.4601 213.147C55.4104 214.256 54.7532 215.458 53.4881 216.752L49.4387 220.896L47.6865 219.184L51.9094 214.862C52.6498 214.105 53.0522 213.464 53.1164 212.941C53.1806 212.416 52.9956 211.942 52.5615 211.518C52.1274 211.094 51.6453 210.916 51.1155 210.985C50.5856 211.053 49.9503 211.467 49.2099 212.224L44.9869 216.545L43.3057 214.903L47.3551 210.759C48.62 209.464 49.8022 208.776 50.9017 208.693C51.9932 208.602 53.0363 209.043 54.0309 210.015Z" fill="#0F1B20"/>
<path d="M49.151 205.34L40.8565 212.247L38.9075 209.907C38.2014 209.058 37.7347 208.205 37.5075 207.345C37.2804 206.486 37.3309 205.633 37.659 204.785C37.9716 203.936 38.6029 203.115 39.5527 202.325C40.5027 201.534 41.4284 201.051 42.33 200.875C43.2316 200.698 44.0893 200.788 44.9031 201.145C45.7012 201.5 46.4393 202.084 47.1172 202.898L49.151 205.34ZM46.08 204.731L45.7835 204.375C45.388 203.899 44.9607 203.559 44.5015 203.352C44.0353 203.138 43.5259 203.095 42.9734 203.225C42.4208 203.355 41.8138 203.695 41.1523 204.246C40.4907 204.797 40.0546 205.324 39.8438 205.83C39.6246 206.344 39.587 206.842 39.731 207.325C39.8593 207.807 40.1213 208.286 40.5167 208.76L40.8134 209.116L46.08 204.731Z" fill="#0F1B20"/>
<path d="M40.198 193.449C40.7422 194.254 41.0339 195.09 41.0734 195.955C41.1067 196.811 40.8934 197.65 40.4336 198.467C39.9584 199.28 39.2364 200.015 38.2674 200.671C37.2894 201.333 36.3476 201.723 35.4423 201.843C34.5218 201.959 33.6792 201.836 32.9147 201.473C32.1346 201.109 31.4727 200.524 30.9285 199.72C30.3845 198.914 30.0912 198.087 30.0488 197.237C29.991 196.382 30.1905 195.555 30.6474 194.753C31.0981 193.942 31.8079 193.209 32.7769 192.554C33.7458 191.898 34.6997 191.506 35.6387 191.378C36.5622 191.245 37.4185 191.359 38.2075 191.718C38.9905 192.068 39.654 192.645 40.198 193.449ZM38.4566 194.628C38.0423 194.014 37.4495 193.71 36.6782 193.711C35.9069 193.714 35.0732 194.018 34.1773 194.624C33.2815 195.23 32.7028 195.882 32.4411 196.578C32.1794 197.274 32.2558 197.929 32.6701 198.541C33.0843 199.154 33.6633 199.468 34.4073 199.485C35.1512 199.501 35.9711 199.206 36.867 198.601C37.7628 197.994 38.3553 197.335 38.6444 196.619C38.9334 195.903 38.8709 195.239 38.4566 194.628Z" fill="#0F1B20"/>
<path d="M32.818 180.729C33.2227 181.54 33.4076 182.378 33.373 183.247C33.3383 184.116 33.0594 184.939 32.5362 185.719C31.9981 186.494 31.191 187.151 30.115 187.689C29.0489 188.221 28.0371 188.469 27.0796 188.429C26.1073 188.384 25.251 188.115 24.5107 187.621C23.7556 187.123 23.1759 186.469 22.7711 185.66C22.4603 185.037 22.3099 184.415 22.3198 183.794C22.3199 183.177 22.4063 182.622 22.5791 182.128L24.5483 182.587C24.4447 182.948 24.3928 183.3 24.3928 183.646C24.3778 183.986 24.4568 184.329 24.6296 184.675C24.8466 185.109 25.1699 185.448 25.5993 185.689C26.0237 185.921 26.5222 186.029 27.0947 186.015C27.6622 185.991 28.2718 185.815 28.9234 185.49C29.9105 184.996 30.5744 184.399 30.9151 183.699C31.2557 182.998 31.2484 182.292 30.8931 181.581C30.6957 181.186 30.4317 180.88 30.101 180.663C29.7654 180.435 29.4151 180.266 29.0498 180.152L29.8348 178.316C31.1871 178.651 32.1815 179.457 32.818 180.729Z" fill="#0F1B20"/>
<path d="M30.4394 176.167L20.401 180.133L19.5068 177.87L27.6361 174.658L26.0668 170.687L27.976 169.932L30.4394 176.167Z" fill="#0F1B20"/>
<path d="M26.4944 164.635C26.8991 165.977 26.812 167.121 26.233 168.068C25.654 169.015 24.4981 169.75 22.7652 170.273L17.2179 171.945L16.5106 169.6L22.2956 167.854C23.3099 167.549 23.9717 167.182 24.2808 166.755C24.5899 166.327 24.6568 165.823 24.4815 165.242C24.3063 164.66 23.9701 164.272 23.4731 164.076C22.9759 163.88 22.2202 163.936 21.2058 164.242L15.4208 165.986L14.7422 163.736L20.2895 162.062C22.0222 161.54 23.39 161.507 24.3928 161.966C25.3924 162.414 26.093 163.304 26.4944 164.635Z" fill="#0F1B20"/>
<path d="M24.4835 158.173L13.8841 160.21L13.1872 156.585C13.0456 155.847 12.9998 155.171 13.0499 154.555C13.0891 153.94 13.2651 153.422 13.5776 153.004C13.8903 152.584 14.3881 152.309 15.0708 152.178C15.5369 152.088 16.0214 152.123 16.5246 152.285C17.0147 152.438 17.3827 152.715 17.6287 153.118L17.6937 153.106C17.7304 152.536 17.9203 152.033 18.2634 151.598C18.5936 151.151 19.1109 150.861 19.8153 150.726C20.5414 150.586 21.1676 150.657 21.6936 150.938C22.2196 151.219 22.6557 151.647 23.0021 152.22C23.3376 152.796 23.5793 153.469 23.7273 154.238L24.4835 158.173ZM17.6677 157.005L17.4521 155.883C17.3396 155.298 17.1446 154.896 16.867 154.681C16.5873 154.453 16.2578 154.376 15.8785 154.449C15.4667 154.528 15.2001 154.72 15.0788 155.025C14.9575 155.328 14.951 155.763 15.0593 156.327L15.278 157.464L17.6677 157.005ZM22.1709 156.139L21.9115 154.789C21.6594 153.478 21.0565 152.914 20.1028 153.098C19.6368 153.187 19.3375 153.413 19.2049 153.776C19.0615 154.14 19.0533 154.654 19.1804 155.315L19.4397 156.664L22.1709 156.139Z" fill="#0F1B20"/>
<path d="M22.2742 141.738C22.3252 142.442 22.2438 143.156 22.0306 143.879C21.8165 144.592 21.4761 145.242 21.0096 145.829L19.2417 144.562C19.5442 144.153 19.7828 143.704 19.9578 143.216C20.1327 142.727 20.2044 142.263 20.1726 141.822C20.136 141.317 20.0154 140.948 19.8108 140.721C19.6054 140.481 19.343 140.372 19.0238 140.395C18.6826 140.42 18.4452 140.58 18.3117 140.878C18.1666 141.166 18.0119 141.552 17.848 142.04L17.3549 143.487C17.2271 143.861 17.0484 144.222 16.8192 144.57C16.5788 144.92 16.2736 145.213 15.9034 145.45C15.5333 145.687 15.0895 145.825 14.5722 145.862C13.9777 145.905 13.4268 145.784 12.9194 145.5C12.4113 145.205 11.9934 144.781 11.6659 144.23C11.3376 143.667 11.1464 143.012 11.0923 142.262C11.0478 141.646 11.1244 141.021 11.322 140.387C11.5197 139.752 11.8329 139.188 12.2619 138.693L13.8868 139.82C13.6371 140.192 13.4534 140.559 13.3358 140.922C13.2071 141.286 13.1582 141.682 13.1893 142.111C13.2195 142.53 13.3318 142.858 13.5262 143.099C13.7087 143.33 13.9541 143.434 14.2624 143.412C14.5926 143.388 14.8291 143.216 14.972 142.895C15.1141 142.564 15.2619 142.16 15.4157 141.685L15.8769 140.257C16.0943 139.588 16.42 139.045 16.8546 138.627C17.2891 138.208 17.8861 137.971 18.6456 137.917C19.24 137.873 19.8019 137.994 20.3314 138.276C20.8607 138.558 21.3014 138.991 21.6533 139.575C22.0052 140.158 22.2122 140.878 22.2742 141.738Z" fill="#0F1B20"/>
<path d="M21.8028 135.842L11.0096 135.91L10.9941 133.477L21.7874 133.408L21.8028 135.842Z" fill="#0F1B20"/>
<path d="M21.754 130.847L10.9854 130.116L11.1545 127.623L16.6963 125.178L19.1464 124.283L19.1509 124.217C18.5753 124.222 17.9325 124.239 17.2226 124.268C16.5126 124.297 15.8384 124.291 15.1998 124.247L11.4011 123.99L11.5579 121.678L22.3265 122.407L22.1574 124.901L16.599 127.346L14.1821 128.244L14.1775 128.309C14.7759 128.294 15.4186 128.277 16.1058 128.257C16.7937 128.227 17.4569 128.233 18.0955 128.277L21.9108 128.535L21.754 130.847Z" fill="#0F1B20"/>
<path d="M22.5538 120.555L21.0996 120.318L14.6931 114.444L13.9986 118.708L11.9727 118.379L13.1487 111.156L14.6029 111.393L21.0094 117.266L21.7838 112.512L23.8098 112.842L22.5538 120.555Z" fill="#0F1B20"/>
<path d="M24.1654 111.07L13.7236 108.338L14.3397 105.983L18.3595 107.035L19.3026 103.432L15.2828 102.38L15.9031 100.01L26.3448 102.742L25.7246 105.113L21.3684 103.973L20.4255 107.576L24.7815 108.716L24.1654 111.07Z" fill="#0F1B20"/>
<path d="M27.153 100.312L17.0273 96.5747L19.3659 90.2383L21.2916 90.9491L19.7956 95.0025L21.8301 95.7534L23.1025 92.3056L25.0127 93.0105L23.7403 96.4583L26.0698 97.3181L27.6231 93.1093L29.5489 93.8201L27.153 100.312Z" fill="#0F1B20"/>
<path d="M30.4247 91.8554L20.5605 87.474L21.5484 85.25L31.4125 89.6315L30.4247 91.8554Z" fill="#0F1B20"/>
<path d="M32.4061 87.2674L22.9385 82.0845L24.2183 79.7466L29.2641 80.5273C29.5881 80.5788 29.9241 80.6432 30.2719 80.7204C30.6197 80.7976 30.9652 80.8673 31.3086 80.9294L31.3405 80.8714C31.1031 80.6155 30.8555 80.3668 30.5978 80.125C30.3454 79.8736 30.1102 79.6253 29.8921 79.3802L26.4999 75.5792L27.7718 73.2559L37.2393 78.4388L36.1741 80.3847L32.7037 78.4848C32.3939 78.3151 32.0582 78.1125 31.6965 77.8768C31.3304 77.6261 30.9644 77.3754 30.5985 77.1247C30.2377 76.8643 29.9153 76.6374 29.631 76.4441L29.5993 76.5021L31.4287 78.5038L34.3051 81.8338L33.6612 83.0099L29.3062 82.381L26.6421 81.9038L26.6102 81.962C26.9315 82.0875 27.2964 82.2369 27.7048 82.4101C28.1132 82.5835 28.519 82.7616 28.9221 82.9445C29.3209 83.1124 29.6751 83.2813 29.9849 83.4508L33.4554 85.3507L32.4061 87.2674Z" fill="#0F1B20"/>
<path d="M42.709 70.8672C42.2466 71.5 41.6917 71.9693 41.0444 72.2754C40.3971 72.5814 39.7075 72.6927 38.9758 72.6091C38.2441 72.5255 37.5129 72.2167 36.7823 71.6829C36.0605 71.1555 35.5486 70.5558 35.2467 69.8841C34.9512 69.2036 34.8412 68.5218 34.9165 67.8387C34.983 67.1492 35.2083 66.5415 35.5925 66.0159C36.0547 65.3831 36.5782 64.9661 37.1629 64.7645C37.7451 64.5476 38.3517 64.5123 38.9827 64.6591C39.6112 64.7903 40.2285 65.0773 40.8344 65.52C41.0036 65.6437 41.1665 65.7763 41.3228 65.9179C41.4702 66.053 41.5774 66.1586 41.6446 66.235L38.7439 70.2048C39.2902 70.4673 39.793 70.5272 40.2527 70.3846C40.7034 70.2356 41.0882 69.9427 41.4073 69.506C41.7523 69.0338 41.9536 68.4496 42.0112 67.7535L43.6793 67.9678C43.6635 68.4758 43.5695 68.988 43.3972 69.5045C43.2248 70.0209 42.9954 70.4752 42.709 70.8672ZM37.4375 69.2708L39.1858 66.8783C38.8204 66.6113 38.4569 66.4823 38.0949 66.4912C37.7306 66.4847 37.4052 66.6775 37.1188 67.0696C36.8973 67.3725 36.8057 67.7224 36.8437 68.1193C36.8728 68.5097 37.0708 68.8935 37.4375 69.2708Z" fill="#0F1B20"/>
<path d="M46.5972 65.9093C46.3289 66.2315 45.9927 66.4111 45.5885 66.448C45.183 66.4694 44.8148 66.3424 44.4841 66.0669C44.1448 65.7844 43.9532 65.4454 43.9092 65.0498C43.8639 64.6386 43.9754 64.2719 44.2438 63.9495C44.5121 63.6273 44.849 63.4554 45.2545 63.4341C45.6587 63.3973 46.0303 63.5201 46.3696 63.8025C46.7004 64.0779 46.8885 64.4211 46.9338 64.8323C46.9777 65.2281 46.8656 65.587 46.5972 65.9093Z" fill="#0F1B20"/>
<path d="M49.2965 62.4812L39.1689 57.5249L40.9265 55.6327L45.4924 58.1117C46.0337 58.3885 46.5518 58.6739 47.0468 58.9681C47.5493 59.2541 48.0752 59.5393 48.6245 59.8236L48.6697 59.775C48.3382 59.2562 48.0112 58.7568 47.689 58.2766C47.3668 57.7966 47.0439 57.3008 46.7205 56.7897L43.9008 52.4307L45.5908 50.6113L51.2907 60.3344L49.2965 62.4812Z" fill="#0F1B20"/>
<path d="M54.5126 57.3897C54.2109 57.6811 53.8572 57.8232 53.4514 57.8161C53.046 57.7934 52.6938 57.6272 52.3949 57.3176C52.0881 57 51.9344 56.6422 51.9336 56.2442C51.9331 55.8305 52.0836 55.4779 52.3853 55.1867C52.687 54.8953 53.0405 54.7611 53.446 54.7837C53.8518 54.7909 54.2079 54.9532 54.5146 55.2708C54.8135 55.5804 54.9633 55.942 54.9638 56.3557C54.9647 56.7538 54.8143 57.0984 54.5126 57.3897Z" fill="#0F1B20"/>
<path d="M61.6368 51.0969C61.0014 51.61 60.3643 51.9188 59.7253 52.0233C59.0792 52.1193 58.4058 52.0319 57.7048 51.761L58.2233 49.768C58.6067 49.9265 58.9569 49.9913 59.2739 49.9623C59.5908 49.9332 59.8568 49.8321 60.0714 49.6588C60.4148 49.3815 60.5893 49.0704 60.5946 48.7257C60.6016 48.3655 60.3798 47.9062 59.9292 47.3481L55.5303 41.8998L57.4237 40.3711L61.9474 45.974C62.3841 46.515 62.6883 47.085 62.8598 47.684C63.0315 48.283 63.023 48.8785 62.8343 49.4707C62.6542 50.0557 62.255 50.5978 61.6368 51.0969Z" fill="#0F1B20"/>
<path d="M69.8693 45.0746C68.6999 45.8474 67.5787 46.0923 66.5055 45.8096C65.4322 45.5267 64.3966 44.6302 63.3987 43.1202L60.2041 38.2865L62.2481 36.9357L65.5795 41.9766C66.1636 42.8605 66.7049 43.3891 67.2031 43.5626C67.7013 43.7359 68.2037 43.6553 68.7101 43.3206C69.2164 42.9859 69.4921 42.5525 69.5371 42.02C69.582 41.4876 69.3125 40.7794 68.7284 39.8956L65.3968 34.8546L67.3579 33.5586L70.5525 38.3923C71.5505 39.9022 71.9738 41.2034 71.8226 42.2954C71.6805 43.3815 71.0293 44.3079 69.8693 45.0746Z" fill="#0F1B20"/>
<path d="M75.4567 41.3026L70.4648 31.7329L73.1654 30.3242C74.144 29.8137 75.0771 29.5385 75.965 29.4986C76.8528 29.4587 77.6762 29.6889 78.435 30.1893C79.1986 30.6747 79.8662 31.4655 80.4379 32.5614C81.0095 33.6573 81.2861 34.6644 81.2673 35.5829C81.2484 36.5014 80.9787 37.3205 80.4579 38.0403C79.9418 38.7451 79.2141 39.3425 78.2748 39.8325L75.4567 41.3026ZM76.7032 38.4305L77.1141 38.216C77.6621 37.9303 78.0856 37.5849 78.3847 37.1799C78.6937 36.7699 78.8432 36.281 78.8334 35.7136C78.8237 35.146 78.6198 34.4806 78.2217 33.7174C77.8236 32.9542 77.3996 32.416 76.95 32.1029C76.4952 31.78 76.0165 31.6376 75.5136 31.6759C75.0154 31.6992 74.4924 31.8538 73.9444 32.1397L73.5335 32.354L76.7032 38.4305Z" fill="#0F1B20"/>
<path d="M88.9886 35.0725C88.0868 35.4329 87.2086 35.5401 86.354 35.3942C85.5097 35.2443 84.7372 34.8577 84.0366 34.2343C83.3422 33.5967 82.778 32.7347 82.3439 31.6483C81.9058 30.5517 81.7249 29.5485 81.8011 28.6386C81.8834 27.7143 82.183 26.9173 82.6997 26.2474C83.2226 25.5631 83.9349 25.0409 84.8368 24.6805C85.7387 24.3202 86.6097 24.2099 87.4499 24.3496C88.2963 24.475 89.0625 24.8462 89.7488 25.4633C90.4454 26.0765 91.0106 26.9262 91.4446 28.0124C91.8786 29.0988 92.0586 30.1144 91.9844 31.0591C91.9164 31.9894 91.623 32.8019 91.1043 33.4964C90.5957 34.1869 89.8905 34.7123 88.9886 35.0725ZM88.2086 33.1202C88.8953 32.8459 89.3197 32.3317 89.4819 31.5776C89.6442 30.8235 89.5246 29.9443 89.1233 28.9399C88.7222 27.9355 88.209 27.2313 87.5842 26.8274C86.9592 26.4234 86.3035 26.3586 85.6168 26.6329C84.9302 26.9071 84.4996 27.406 84.3251 28.1294C84.1505 28.8527 84.264 29.7166 84.6652 30.721C85.0665 31.7254 85.5857 32.4449 86.2229 32.8797C86.86 33.3143 87.5219 33.3946 88.2086 33.1202Z" fill="#0F1B20"/>
<path d="M103.002 30.5749C102.125 30.7967 101.265 30.7978 100.424 30.5781C99.5833 30.3582 98.8378 29.9093 98.1882 29.2312C97.5466 28.5398 97.0781 27.6109 96.7831 26.4448C96.4908 25.2892 96.4664 24.2481 96.7101 23.3212C96.9619 22.3811 97.4079 21.6022 98.0486 20.9848C98.6973 20.3539 99.4602 19.9276 100.338 19.7056C101.012 19.535 101.651 19.5213 102.257 19.664C102.859 19.7962 103.383 19.9995 103.828 20.274L102.958 22.0992C102.628 21.9208 102.295 21.7946 101.957 21.7206C101.628 21.6332 101.276 21.6369 100.901 21.7316C100.431 21.8507 100.031 22.0941 99.703 22.4617C99.3854 22.8266 99.1726 23.2902 99.0644 23.8527C98.9669 24.4123 99.0076 25.0452 99.1862 25.7514C99.4568 26.8213 99.8981 27.5976 100.51 28.0805C101.121 28.5632 101.812 28.7072 102.583 28.5122C103.011 28.404 103.366 28.2116 103.649 27.9352C103.943 27.6559 104.184 27.3501 104.373 27.0177L105.998 28.1774C105.381 29.4266 104.382 30.2257 103.002 30.5749Z" fill="#0F1B20"/>
<path d="M107.941 29.2351L106.215 18.5808L108.616 18.1914L110.015 26.8195L114.231 26.1364L114.56 28.1627L107.941 29.2351Z" fill="#0F1B20"/>
<path d="M120.067 27.8443C118.669 27.9532 117.57 27.6238 116.769 26.8561C115.966 26.0884 115.496 24.8023 115.355 22.9979L114.904 17.2214L117.348 17.0309L117.817 23.055C117.9 24.1113 118.116 24.8359 118.468 25.2291C118.82 25.6223 119.298 25.7954 119.904 25.7483C120.509 25.701 120.959 25.4555 121.257 25.0117C121.555 24.5678 121.662 23.8178 121.58 22.7615L121.11 16.7374L123.454 16.5547L123.905 22.3312C124.045 24.1356 123.784 25.4788 123.123 26.3607C122.472 27.2416 121.453 27.7361 120.067 27.8443Z" fill="#0F1B20"/>
<path d="M126.804 27.2574L127.051 16.4668L130.742 16.5517C131.492 16.5689 132.163 16.6672 132.755 16.8464C133.347 17.0145 133.816 17.2957 134.16 17.69C134.505 18.0844 134.668 18.6291 134.653 19.3241C134.641 19.7986 134.503 20.2645 134.24 20.722C133.987 21.1689 133.637 21.4699 133.192 21.6252L133.191 21.6915C133.739 21.8476 134.191 22.1395 134.545 22.5671C134.91 22.984 135.085 23.551 135.069 24.2681C135.052 25.0074 134.85 25.6044 134.464 26.0592C134.078 26.5139 133.568 26.8499 132.934 27.0671C132.301 27.2733 131.591 27.3675 130.809 27.3495L126.804 27.2574ZM129.385 20.8423L130.526 20.8685C131.122 20.8823 131.555 20.7763 131.826 20.5507C132.106 20.3253 132.252 20.0196 132.261 19.6334C132.271 19.2141 132.139 18.913 131.868 18.7302C131.597 18.5473 131.173 18.4492 130.599 18.4361L129.44 18.4095L129.385 20.8423ZM129.28 25.4266L130.654 25.4582C131.989 25.4889 132.667 25.0187 132.689 24.0479C132.7 23.5734 132.542 23.2331 132.216 23.0269C131.889 22.8096 131.39 22.6933 130.717 22.6778L129.344 22.6462L129.28 25.4266Z" fill="#0F1B20"/>
</g>
<path d="M128.499 180.368C163.715 180.368 192.262 151.82 192.262 116.605C192.262 81.3895 163.715 52.8418 128.499 52.8418C93.284 52.8418 64.7363 81.3895 64.7363 116.605C64.7363 151.82 93.284 180.368 128.499 180.368Z" fill="#C22B26"/>
<path fill-rule="evenodd" clip-rule="evenodd" d="M163.594 73.707L144.739 71.8483L128.5 82.4661C120.246 88.1012 117.502 97.3632 120.093 110.137C116.864 114.685 111.994 115.947 107.544 118.052L107.223 103.509L103.748 103.123L107.094 91.2823C107.094 91.2823 111.212 71.6553 111.47 71.0762C111.727 70.4969 116.425 48.1673 116.425 48.1673L120.35 34.3963L116.618 31.7579L121.766 24.2933L130.196 14.9624L139.849 7.94814L137.339 5.5672L126.4 3.63672L116.811 8.20556L108.896 10.9727L107.995 20.561L105.356 29.2482L99.1144 31.05L96.3473 38.7078L88.022 77.0728L85.2067 84.815L81.8885 86.7254L76.459 78.7821L54.5396 63.2978L49.0094 68.0235L44.6859 55.0528L43.9821 39.2669L39.0551 43.4899L36.2398 50.2266L34.7316 54.349L31.7152 60.3818L30.0059 64.7054L31.6147 68.2246L37.547 70.4366L42.9765 75.5647L40.0607 81.0947L49.5121 85.921L62.9855 94.1659L70.6272 110.254L69.1189 124.767L77.0623 134.888L87.8209 141.223L99.786 159.422L80.682 177.319L82.5923 182.045L75.554 188.178L69.7223 191.194L72.7387 199.138L74.9508 207.182L86.6142 211.706L88.3236 206.579L85.4077 202.255L85.0056 194.11L88.022 188.882L94.5576 192.301L116.578 170.683L131.156 173.498L145.536 170.683L142.519 189.888L145.435 192.502L139.402 207.987L145.334 211.103L158.708 213.014L168.762 213.817L168.259 207.987L159.411 204.969L155.087 199.037L156.193 193.607L161.824 192.199L167.857 173.097L174.694 148.964L170.572 147.155L167.454 147.456L165.243 144.239L171.376 139.212L178.918 128.051L183.844 116.603L185.955 103.014L184.75 92.9594L189.777 85.3177L185.855 72.8498L173.386 70.0345L168.359 73.707H163.594Z" fill="white"/>
<path d="M123.496 237.617C120.415 237.462 115.753 237.025 114.881 236.809C114.581 236.735 113.453 236.539 112.373 236.374C109.593 235.947 107.912 235.639 107.03 235.393C106.61 235.276 105.285 234.954 104.085 234.677C102.886 234.401 101.811 234.091 101.697 233.99C101.583 233.888 101.33 233.805 101.134 233.805C100.65 233.805 95.039 232.025 93.3983 231.351C93.1585 231.252 92.3736 230.945 91.6536 230.669C90.934 230.393 90.0359 230.026 89.6577 229.853C89.2798 229.681 88.9144 229.54 88.8457 229.54C88.4358 229.54 79.7705 225.178 77.5862 223.873C67.8603 218.058 60.2424 211.82 53.2781 203.966C48.1172 198.147 44.7387 193.489 40.9298 186.945C38.9605 183.561 35.6879 176.811 34.2341 173.133C26.2924 153.044 24.6514 130.903 29.5293 109.658C30.174 106.849 31.6296 101.588 32.2532 99.8134C34.0899 94.5865 35.4783 91.2241 37.5794 86.9153C38.5911 84.8405 39.4187 83.1079 39.4187 83.0648C39.4187 83.0217 39.0752 82.7778 38.6553 82.523C37.506 81.8249 37.6141 81.1678 39.3099 78.5388C40.0894 77.33 40.7275 76.2209 40.7275 76.0738C40.7275 75.6714 38.3475 73.4846 36.6579 72.3353C35.8372 71.7767 34.1082 70.7862 32.8154 70.1342C29.2328 68.3267 28.085 66.7309 28.3621 63.9445C28.4997 62.5598 28.9674 61.5781 30.5146 59.4244C31.8041 57.6289 32.1466 56.7998 33.6412 51.8489C35.7175 44.9711 39.3873 38.7599 41.7943 38.0491C43.2258 37.6267 44.9545 38.3284 45.4419 39.5295C45.7011 40.1677 45.735 41.1158 45.6244 44.6221C45.4477 50.2152 45.8197 54.5713 46.8255 58.6961C47.1483 60.0202 49.0215 63.8598 49.3443 63.8598C49.4826 63.8598 49.8999 63.3798 50.2712 62.7934C51.05 61.5638 52.6319 59.8187 52.9681 59.8187C53.0937 59.8187 53.6337 60.1414 54.1674 60.5361L55.1382 61.2539L57.4747 58.8885C64.4672 51.8098 73.414 45.419 83.2567 40.4718C85.2361 39.4769 87.0517 38.5795 87.2916 38.4773C87.5314 38.3751 88.1696 38.0973 88.7092 37.8603C89.2492 37.6234 90.1816 37.243 90.7814 37.0148C91.3809 36.787 95.4695 35.1806 96.4428 31.644C96.8951 30.0004 97.4059 28.5977 97.6122 28.4327C97.882 28.217 98.7848 28.1542 101.032 28.1943L104.085 28.2491L106.675 20.2618L106.29 17.5163C106.06 15.8723 105.968 14.4178 106.061 13.891C106.351 12.2427 107.025 10.7495 107.846 9.93241C109.261 8.52537 110.25 8.09785 115.8 6.49257C119.396 5.45245 121.872 4.44189 124.064 3.11919C126.195 1.83336 127.356 1.63475 128.851 2.3003C129.641 2.65151 130.16 2.71906 131.383 2.62888C133.052 2.50621 134.163 2.77053 134.957 3.47916C135.312 3.79533 135.771 3.91836 136.597 3.91836C137.994 3.91836 139.407 4.51564 140.29 5.47873C140.885 6.12858 140.944 6.33084 140.944 7.7262C140.944 8.94266 140.854 9.36287 140.508 9.76045C140.268 10.0361 138.354 11.4296 136.255 12.8575C134.156 14.2853 131.684 16.0403 130.761 16.7577C128.626 18.4177 125.598 21.4866 123.852 23.7593C122.47 25.558 120.007 29.2805 120.147 29.3571C120.19 29.3801 120.47 29.5506 120.77 29.7357C121.214 30.0103 122.752 30.1001 129.058 30.2209C137.635 30.3856 141.883 30.7704 148.36 31.9704C150.18 32.3077 153.316 33.0824 157.084 34.1248C157.683 34.2905 158.616 34.5475 159.156 34.6958C159.695 34.844 160.235 35.0397 160.355 35.1309C160.475 35.2218 160.914 35.3715 161.329 35.4632C161.745 35.5548 162.236 35.7092 162.42 35.8063C162.604 35.9035 163.637 36.308 164.717 36.7052C165.797 37.1024 167.092 37.6161 167.595 37.8472C168.098 38.0779 168.558 38.2667 168.616 38.2667C168.957 38.2667 176.456 41.9883 178.13 42.9894C178.67 43.3118 179.946 44.0616 180.965 44.6553C185.487 47.2879 191.602 51.846 196.451 56.1967C198.817 58.3204 203.465 63.1297 205.809 65.8802C209.304 69.982 214.419 77.3632 216.621 81.4829C217.083 82.3474 217.703 83.5091 218 84.0647C219.152 86.2198 221.187 90.6049 222.064 92.8202C222.382 93.6227 222.729 94.4813 222.835 94.7285C223.603 96.5203 225.252 101.451 226.099 104.494C226.357 105.42 226.711 106.669 226.885 107.27C227.06 107.87 227.203 108.554 227.203 108.788C227.203 109.023 227.296 109.39 227.411 109.605C227.525 109.819 227.727 110.601 227.859 111.341C227.991 112.082 228.243 113.446 228.42 114.372C229.586 120.495 230.376 129.707 230.192 135.04C230.026 139.866 229.659 145.179 229.396 146.588C229.28 147.205 229.083 148.468 228.958 149.394C228.564 152.302 227.848 156.114 227.229 158.598C226.464 161.671 225.672 164.511 225.474 164.892C225.376 165.081 225.221 165.583 225.131 166.007C225.04 166.431 224.888 166.933 224.793 167.122C224.698 167.311 224.405 168.123 224.142 168.925C223.693 170.293 223.295 171.352 222.832 172.405C222.724 172.652 222.446 173.359 222.216 173.976C220.752 177.905 217.667 184.08 214.707 189.007C209.047 198.429 200.906 207.791 192.089 215.02C188.797 217.719 182.708 221.923 179.063 224.014C175.9 225.829 169.492 229.091 169.09 229.091C169.023 229.091 168.459 229.344 167.838 229.652C167.216 229.961 166.603 230.217 166.476 230.221C166.348 230.225 165.851 230.424 165.371 230.662C164.892 230.901 164.333 231.1 164.13 231.104C163.927 231.108 163.706 231.204 163.638 231.317C163.571 231.429 163.124 231.59 162.645 231.673C162.167 231.756 161.727 231.905 161.667 232.004C161.608 232.102 161.19 232.254 160.739 232.341C160.288 232.428 159.821 232.576 159.701 232.67C159.581 232.765 159.09 232.95 158.61 233.083C158.13 233.215 157.198 233.49 156.538 233.694C149.889 235.747 141.799 237.113 133.311 237.617C129.555 237.839 127.909 237.84 123.496 237.617ZM165.939 211.992C166.17 211.607 165.971 210.712 165.5 210.023C165.227 209.623 164.749 209.391 163.723 209.16C160.163 208.359 157.779 207.252 155.562 205.37C153.815 203.886 152.951 202.697 152.462 201.1C152.112 199.956 152.112 199.781 152.465 198.044C152.671 197.031 152.894 195.99 152.961 195.732C153.076 195.286 152.969 195.252 150.939 195.075C149.761 194.973 148.116 194.882 147.284 194.872L145.772 194.855L145.59 195.641C145.124 197.648 144.52 199.624 143.977 200.916C143.156 202.87 142.175 205.527 141.939 206.435C141.599 207.745 142.005 208.885 143.058 209.572C143.729 210.01 143.985 210.034 146.653 209.909C148.309 209.831 150.202 209.876 151.123 210.015C152.508 210.223 153.402 210.512 156.819 211.852C157.919 212.283 159.877 212.452 162.84 212.369C164.955 212.311 165.81 212.207 165.939 211.992H165.939ZM85.2916 208.902C85.717 208.464 85.2 207.537 84.1077 206.78C82.651 205.771 82.4239 205.394 82.0475 203.37C81.6408 201.182 81.6448 198.693 82.0592 195.853C82.4352 193.277 83.0128 191.92 84.3271 190.525C84.8181 190.005 85.2197 189.515 85.2197 189.437C85.2197 189.359 84.9897 189.081 84.709 188.82C84.1208 188.273 82.076 185.733 81.7689 185.169C81.5908 184.841 81.3286 184.998 79.8533 186.323C77.4905 188.444 75.9371 189.426 73.8287 190.131C71.9193 190.77 71.2614 191.301 71.2614 192.201C71.2614 192.916 71.4808 193.319 73.0638 195.506C74.855 197.981 75.5143 199.547 75.9557 202.376C76.3744 205.057 76.9421 206.342 78.3254 207.739C79.5755 209.002 80.7022 209.348 83.1376 209.215C84.2117 209.157 85.181 209.016 85.2916 208.902ZM195.215 203.394C207.517 190.768 215.947 175.887 220.401 158.935C223.282 147.971 224.281 136.08 223.279 124.699C221.854 108.518 216.183 92.2098 207.395 79.0134C206.49 77.6553 205.45 76.1398 205.082 75.6459C202.938 72.7639 200.966 70.2908 199.71 68.9108C198.923 68.0466 198.138 67.1631 197.965 66.9477C196.534 65.165 189.805 59.055 185.873 55.9689C179.574 51.0242 169.825 45.6103 162.1 42.7671C161.02 42.3695 159.987 41.965 159.803 41.8679C159.619 41.7707 159.128 41.6163 158.712 41.5247C158.296 41.433 157.858 41.2804 157.738 41.1851C157.618 41.0902 157.078 40.9051 156.538 40.7737C155.998 40.6423 154.968 40.3706 154.248 40.1702C147.797 38.3733 142.096 37.4102 135.056 36.9286C131.392 36.6782 121.852 36.6347 121.506 36.8673C121.2 37.0725 119.337 42.7667 118.514 46.0119C118.452 46.2591 118.24 47.0166 118.045 47.6957C117.596 49.2557 117.123 51.0505 116.744 52.6346C116.582 53.314 116.285 54.4757 116.085 55.2165C115.717 56.5757 115.643 56.9415 114.992 60.6044C114.336 64.2969 113.996 66.418 113.681 68.7987C112.983 74.0567 112.796 75.9704 112.382 77.5542C108.301 93.1492 105.939 101.351 105.939 101.351H107.315C109.301 101.351 109.41 101.497 109.161 103.821C109.048 104.87 108.478 108.553 108.404 111.016C108.272 115.401 108.278 115.495 108.709 115.495C108.95 115.495 110.29 114.9 111.685 114.174C113.082 113.448 114.396 112.799 114.607 112.732C114.818 112.665 115.677 112.352 116.517 112.037C117.357 111.721 118.226 111.461 118.45 111.458C118.8 111.454 118.752 110.902 118.703 110.612C118.466 109.204 117.305 105.297 117.03 103.014C116.786 100.995 116.574 98.8905 117.051 96.9143C117.675 94.3375 118.942 90.3705 120.77 87.5553C122.619 84.7091 126.194 81.3938 128.144 79.8371C130.022 78.3369 132.423 76.3578 134.837 75.0607C138.071 73.3247 142.926 69.8246 147.542 69.4197C152.596 68.9765 164.73 72.029 165.166 72.401C165.583 72.7577 165.863 72.5072 167.453 70.358C170.864 65.7444 174.388 63.6426 178.756 63.616C180.933 63.6032 181.452 63.6758 183.146 64.23C186.377 65.2877 189.547 67.9137 191.37 71.0436C194.134 75.7915 194.32 80.7914 191.921 85.8606C191.106 87.5842 190.596 88.3165 189.265 89.6772C188.359 90.603 187.348 91.5519 187.018 91.7852C186.342 92.2631 186.288 92.7355 186.756 94.0549C186.931 94.5489 187.223 96.302 187.405 97.9511C187.702 100.648 187.701 101.303 187.393 104.462C187.205 106.393 187 108.125 186.938 108.31C186.876 108.496 186.687 109.405 186.518 110.331C185.871 113.875 185.591 115.84 184.561 118.413C181.889 125.087 180.616 130.182 170.933 141.88C170.498 142.405 170.338 142.67 169.611 143.441C168.885 144.211 168.132 145.073 167.94 145.356L167.589 145.871L168.553 145.713C172.232 145.577 172.222 145.737 174.059 147.011L175.113 147.883L176.046 147.404C177.201 146.81 178.839 146.565 179.807 147.361C181.251 148.549 183.864 151.993 184.707 154.53C185.55 157.066 185.258 160.859 184.865 162.58C184.07 166.053 182.889 168.015 180.794 170.523C176.824 175.275 170.26 175.719 169.079 175.578C167.457 175.385 167.631 175.076 166.686 179.813C166.488 180.801 166.234 182.014 166.119 182.507C166.005 183.001 165.662 184.719 165.358 186.324C164.279 192.009 163.755 194.043 163.305 194.29C162.565 194.698 159.951 195.192 158.531 195.192C157.103 195.192 156.538 195.42 156.538 195.998C156.538 196.155 157.327 196.426 158.447 196.654C160.38 197.048 167.3 198.38 173.794 200.206C180.559 202.109 186.893 204.509 188.163 205.006C190.138 205.78 191.809 206.384 192.016 206.399C192.156 206.409 193.596 205.056 195.215 203.394ZM65.4306 204.307C68.5926 202.788 70.0318 202.139 70.5152 202.015C70.808 201.939 72.2555 200.359 70.0577 197.324C68.2214 194.788 67.7825 193.826 67.7767 192.32C67.7661 189.762 69.014 188.522 73.4742 186.661C75.3413 185.881 76.9535 184.57 78.5266 182.549L79.5427 181.245L79.0253 180.192C78.1002 178.311 77.9713 177.482 78.4737 176.646C78.7143 176.245 78.999 175.884 79.106 175.845C79.213 175.805 79.8227 175.267 80.4612 174.65C81.0997 174.033 82.4071 172.821 83.3666 171.958C84.3256 171.095 85.1598 170.332 85.2197 170.263C85.2796 170.194 87.1934 168.425 89.4726 166.333C91.7518 164.24 94.4465 161.707 95.4607 160.704L97.3048 158.879L94.8609 156.23C93.5166 154.773 92.417 153.478 92.417 153.353C92.417 153.229 81.3224 139.403 78.8315 138.136C76.6943 137.05 76.2678 136.793 74.9543 135.803C69.969 132.045 67.5868 128.202 67.0969 123.127C66.7479 119.512 67.2601 115.478 68.4598 112.394L68.9238 111.202L67.9968 108.588C67.4868 107.15 66.8457 105.464 66.5715 104.841C66.2977 104.218 65.7632 103.003 65.3839 102.142C64.3653 99.8265 63.4541 98.5334 61.2073 96.214C59.172 94.113 57.673 92.9356 55.6672 91.863C54.0396 90.9926 45.1458 86.5342 45.037 86.5342C44.7687 86.5342 40.7954 95.1721 39.7192 98.0957C39.3099 99.207 38.8849 100.318 38.7743 100.565C38.6637 100.812 38.361 101.721 38.1015 102.586C37.8419 103.45 37.5433 104.359 37.4377 104.606C37.3319 104.853 37.1515 105.459 37.0369 105.953C36.5966 107.846 36.3217 108.888 36.1479 109.321C36.049 109.568 35.85 110.376 35.7062 111.117C35.5623 111.858 35.302 113.12 35.1279 113.923C34.6664 116.047 34.2327 118.786 33.8121 122.23C33.1162 127.925 33.3302 142.434 34.1878 147.71C35.2023 153.953 35.7299 156.545 36.6554 159.833C36.8291 160.45 37.1837 161.713 37.4432 162.639C37.7028 163.565 37.9956 164.478 38.0938 164.667C38.1924 164.857 38.3435 165.343 38.4301 165.748C38.5166 166.154 38.7247 166.757 38.8926 167.088C39.0606 167.419 39.1986 167.818 39.1993 167.974C39.2 168.13 39.2946 168.433 39.4096 168.648C39.5246 168.862 40.1036 170.25 40.6961 171.732C42.699 176.739 45.8603 182.859 48.988 187.783C50.1635 189.634 53.6428 194.503 54.6026 195.641C54.8629 195.949 55.5861 196.808 56.2097 197.549C56.8333 198.29 58.6313 200.293 60.2052 202.001C63.4146 205.484 63.1883 205.384 65.4306 204.307ZM88.2733 197.125C95.602 195.596 130.973 193.46 136.473 193.919C138.932 194.125 141.067 194.293 141.217 194.293C141.367 194.293 141.49 194.052 141.49 193.757C141.49 193.315 141.317 193.168 140.508 192.922C139.42 192.592 139.402 192.538 139.757 190.676C139.883 190.011 140.129 188.633 140.302 187.615C140.475 186.596 140.77 184.879 140.958 183.798C141.536 180.471 141.945 177.638 142.076 176.053C142.219 174.341 142.147 174.28 140.676 174.865C138.316 175.803 133.228 176.284 129.349 175.937C125.98 175.635 122.404 174.952 120.879 174.318C120.639 174.218 119.59 173.858 118.548 173.517L116.653 172.896L112.87 176.579C110.789 178.605 108.256 181.02 107.241 181.946C106.226 182.872 104.7 184.287 103.851 185.089C103.001 185.892 101.582 187.205 100.697 188.008C99.8122 188.81 97.9367 190.603 96.5297 191.993C95.1227 193.382 93.8204 194.518 93.6364 194.518C93.1512 194.518 91.0468 193.526 89.5599 192.596C88.0875 191.676 87.7381 191.706 86.7717 192.839C85.9984 193.745 85.6589 194.857 85.6571 196.487C85.656 197.594 85.6874 197.663 86.1467 197.568C86.4165 197.512 87.3734 197.313 88.2733 197.125ZM159.614 190.94C160.608 190.682 160.62 190.668 160.894 189.4C161.313 187.458 161.692 185.657 162.203 183.181C162.458 181.946 162.755 180.582 162.863 180.15C163.445 177.822 163.989 174.956 163.896 174.708C163.837 174.553 163.336 174.254 162.781 174.043C161.778 173.664 159.991 172.51 157.557 170.671C156.291 169.716 156.275 169.711 154.503 169.741C152.64 169.774 150.75 170.337 147.552 171.814L146.137 172.467L145.991 173.895C145.81 175.671 145.316 179.359 144.882 182.171C144.701 183.344 144.408 185.263 144.23 186.436C144.053 187.609 143.844 188.934 143.765 189.38C143.592 190.37 143.558 190.357 147.923 190.934C151.357 191.387 157.879 191.391 159.614 190.94ZM95.8477 187.532C106.009 178.092 108.063 176.161 110.347 173.894C111.761 172.491 112.917 171.278 112.915 171.2C112.913 171.122 112.004 170.569 110.893 169.971C108.392 168.624 104.652 166.006 101.916 163.687L99.8406 161.929L97.1529 164.361C94.4794 166.779 86.0594 174.527 83.6086 176.823L82.325 178.026L83.0964 179.745C84.4972 182.867 86.545 185.526 88.9848 187.394C90.6003 188.631 92.8522 190.026 93.1216 189.957C93.2089 189.934 94.4359 188.843 95.8477 187.532ZM137.237 171.508C138.65 171.15 141.434 170.171 142.855 169.533C143.26 169.351 143.413 169.152 143.322 168.925C143.248 168.74 142.91 167.73 142.571 166.68C140.986 161.771 139.098 156.545 137.947 153.884C136.819 151.275 134.906 147.373 134.755 147.373C134.662 147.373 134.072 148.026 133.443 148.824L132.3 150.274L132.863 151.26C133.806 152.918 135.033 157.044 134.575 157.016C134.479 157.01 133.665 156.087 132.765 154.964C131.015 152.78 128.754 150.871 126.986 150.085C126.386 149.818 125.625 149.478 125.295 149.33C124.965 149.181 124.726 148.958 124.765 148.834C124.803 148.71 125.564 148.162 126.456 147.616C127.697 146.856 129.124 145.543 132.553 142.003C135.015 139.462 137.601 136.705 138.298 135.875L139.567 134.368L139.109 133.706C138.449 132.751 136.658 131.145 134.982 130.004C133.195 128.787 130.169 127.06 129.218 126.714L128.513 126.457L122.808 132.257C114.063 141.148 112.835 143.049 112.824 147.71C112.818 150.358 113.354 152.206 115.126 155.646C116.637 158.579 120.055 163.635 121.939 165.723C122.299 166.122 122.532 166.513 122.457 166.59C122.035 167.025 116.714 163.54 114.678 161.497C111.627 158.433 109.705 154.846 108.675 150.292C108.248 148.404 108.253 146.969 108.694 145.143C109.56 141.552 111.842 138.283 117.421 132.641L120.556 129.471L118.999 128.629C116.707 127.389 113.1 124.848 111.591 123.41L110.271 122.152L109.141 122.56C102.162 125.08 96.3928 130.952 91.6591 140.351L90.6168 142.422L91.114 143.683C92.3699 146.868 96.6429 152.832 100.596 156.917C108.101 164.673 118.137 170.27 127.531 171.937C128.923 172.184 135.766 171.882 137.237 171.508ZM148.314 167.511C148.992 167.211 148.993 166.976 148.329 164.099C147.836 161.963 146.322 156.542 145.915 155.455C145.846 155.27 145.572 154.501 145.307 153.746C144.627 151.815 144.361 151.193 143.118 148.628C141.604 145.505 139.45 141.544 139.263 141.54C139.085 141.536 137.11 143.664 136.839 144.15C136.725 144.356 136.854 144.814 137.197 145.418C138.399 147.538 138.925 148.59 140.099 151.23C142.083 155.694 143.723 159.984 145.447 165.221C145.936 166.703 146.377 167.987 146.428 168.075C146.518 168.23 147.052 168.071 148.314 167.511ZM153.524 165.527C153.524 165.527 154.373 165.333 154.961 165.333C155.549 165.333 156.088 165.273 156.159 165.2C156.231 165.126 156.1 164.747 155.869 164.358C155.314 163.421 155.318 161.97 155.875 161.353C156.532 160.628 157.122 160.938 157.838 162.388C158.436 163.598 159.191 164.471 160.548 165.52C161.449 166.217 163.065 166.192 163.882 165.47C164.365 165.042 164.489 164.741 164.489 163.997C164.489 163.111 164.388 162.964 162.567 161.204C160.891 159.584 160.655 159.264 160.719 158.692C160.79 158.043 160.804 158.038 162.1 158.084C162.819 158.109 164.302 158.195 165.394 158.273C167.172 158.401 167.478 158.364 168.323 157.921C169.425 157.342 171.404 155.477 172.041 154.416C172.286 154.008 172.716 153.072 172.996 152.336C173.441 151.167 173.467 150.943 173.202 150.553C172.777 149.93 170.837 148.496 170.418 148.496C170.226 148.496 169.526 148.799 168.861 149.169C168.196 149.54 167.493 149.843 167.299 149.843C167.105 149.843 166.513 149.431 165.982 148.928C164.96 147.958 163.498 147.162 162.723 147.154C162.466 147.151 161.765 147.603 161.164 148.159C159.527 149.675 159.12 149.474 159.303 147.238C159.352 146.634 159.294 145.987 159.173 145.802C158.881 145.355 157.176 145.4 155.884 145.888C155.344 146.092 154.289 146.322 153.539 146.4L152.176 146.54L152.178 147.911C152.181 149.674 152.551 151.044 153.695 153.543C154.708 155.755 154.686 156.191 153.554 156.309C153.01 156.365 152.609 156.101 151.083 154.681C149.433 153.146 148.686 152.673 148.686 153.163C148.686 153.26 148.969 154.195 149.316 155.24C149.663 156.284 150.113 157.745 150.318 158.486C150.522 159.227 150.815 160.288 150.969 160.844C151.122 161.399 151.426 162.785 151.643 163.924C152.032 165.961 152.047 165.992 152.598 165.857C152.905 165.782 153.322 165.633 153.524 165.527ZM148.44 141.876C148.219 140.779 147.994 140.349 147.214 139.535C145.023 137.247 144.951 135.774 146.913 133.345C147.849 132.185 147.933 131.823 147.295 131.696C146.732 131.584 145.5 132.663 144.83 133.855C144.044 135.253 142.88 136.982 142.111 137.896C141.769 138.302 141.49 138.747 141.49 138.886C141.49 139.024 142.224 140.329 143.122 141.785C144.02 143.241 145.248 145.442 145.85 146.675C146.922 148.87 146.963 148.92 147.761 148.987L148.578 149.057L148.644 146.139C148.684 144.401 148.602 142.676 148.44 141.876ZM154.614 142.861C155.952 142.51 157.726 141.132 159.554 139.025C160.029 138.477 160.041 138.398 159.737 137.799C159.317 136.974 157.875 135.25 157.605 135.25C157.49 135.25 157.336 135.427 157.262 135.643C156.967 136.506 156.259 137.047 155.424 137.047C154.717 137.047 154.494 136.908 153.797 136.032C152.712 134.668 151.058 133.887 150.226 134.346C149.818 134.571 148.687 136.075 148.687 136.393C148.687 136.471 149.224 136.901 149.881 137.35C151.493 138.451 151.958 139.418 151.958 141.659V143.372L152.885 143.222C153.395 143.14 154.173 142.977 154.614 142.861ZM169.525 137.888C174.085 133.174 176.638 129.414 178.633 124.475C181.57 117.202 182.909 111.764 183.718 103.813C184.073 100.32 184.074 99.9554 183.729 97.6605C183.199 94.1341 182.943 93.9877 181.461 96.3681C180.195 98.4002 178.979 98.8456 177.135 97.9533L176.144 97.4736L175.556 98.0398C174.851 98.7185 173.722 99.3304 173.176 99.3304C172.958 99.3304 171.701 100.45 170.384 101.82C167.565 104.749 164.298 107.731 161.694 109.752C158.284 112.4 153.179 115.269 149.887 116.389C149.047 116.674 148.152 116.986 147.898 117.081C147.547 117.212 147.405 117.511 147.302 118.338C147 120.753 146.921 120.547 148.141 120.532C151.263 120.494 154.81 119.604 157.87 118.09C162.782 115.661 164.208 114.512 173.593 105.427C174.276 104.765 174.942 104.261 175.073 104.306C175.34 104.397 173.463 108.337 172.158 110.425C171.701 111.156 170.56 112.56 169.622 113.545L167.917 115.335L167.775 116.93C167.697 117.808 167.486 119.068 167.306 119.73C166.878 121.314 166.991 121.556 168.166 121.556C169.793 121.556 173.89 123.318 173.408 123.811C173.306 123.915 172.487 124.101 171.587 124.225C167.32 124.81 165.85 125.282 164.686 126.442C164.343 126.783 163.239 128.1 162.233 129.37C161.226 130.639 160.214 131.813 159.985 131.978C159.59 132.263 159.644 132.37 160.962 133.933C162.79 136.104 163.986 137.805 164.951 139.613C165.408 140.469 165.884 141.087 166.085 141.087C166.275 141.087 167.823 139.648 169.525 137.888ZM85.7268 133.623C87.7348 129.479 91.21 125.104 94.6528 122.386C96.3369 121.056 96.2873 121.398 95.3453 117.614C94.6466 114.807 94.2486 113.621 93.3794 111.758L92.6309 110.155L91.2699 110.583C89.3627 111.183 84.659 113.625 81.9927 115.4C80.7577 116.223 79.7073 116.855 79.6591 116.805C79.4565 116.596 82.0008 113.419 84.1292 111.223C88.7512 106.455 93.5754 103.675 99.5051 102.365C100.465 102.153 101.397 101.904 101.577 101.81C101.757 101.718 102.081 100.945 102.296 100.093C103.184 96.5861 104.05 93.5493 105.089 90.304C108.518 79.5851 108.525 79.5589 109.969 68.7987C110.437 65.3118 110.923 62.275 111.316 60.3799C111.496 59.5157 111.79 58.1014 111.97 57.2368C112.406 55.1442 113.499 50.5357 114.153 48.0327C115.067 44.5352 116.69 38.9461 117.302 37.1918C117.53 36.5391 117.717 35.9597 117.717 35.9042C117.717 35.6191 112.479 33.7549 110.504 33.3365C108.07 32.821 104.237 32.3588 102.232 32.3384L100.16 32.3176L99.3642 34.787C98.9268 36.1451 98.3526 38.0144 98.0875 38.9402C97.8228 39.8665 97.4618 41.0785 97.2854 41.6342C96.4333 44.3165 94.3859 52.3279 93.5272 56.3391C93.2629 57.5738 92.954 58.9881 92.8412 59.4821C92.6401 60.3601 92.2487 62.3948 91.7613 65.0946C91.1399 68.5348 90.4514 73.5853 90.585 73.723C90.6409 73.7803 91.6894 72.8117 92.915 71.5704C95.4943 68.9583 99.4365 65.847 99.7538 66.1734C99.8914 66.315 98.9436 67.7239 96.3088 71.2941C88.2488 82.2145 87.1883 83.7033 84.3906 88.0263C81.298 92.8049 79.7413 95.5288 77.4806 100.116C73.2092 108.785 71.4575 113.553 70.9449 117.906C70.4016 122.518 71.111 125.767 73.3001 128.696C75.4022 131.508 78.1097 133.378 83.6929 135.874C83.993 136.008 84.2979 136.125 84.3709 136.133C84.4435 136.142 85.054 135.012 85.7268 133.623ZM157.646 129.432C159.069 127.347 163.7 120.831 163.994 118.924C164.056 118.528 163.175 118.935 162.804 119.087C160.949 119.843 154.694 122.612 152.867 123.463C152.487 123.64 151.711 123.65 151.843 124.192C151.919 124.504 154.493 130.561 155.46 131.434C156.194 132.096 157.09 130.248 157.646 129.432ZM140.631 125.916C141.107 125.28 141.917 123.913 142.43 122.878C144.953 117.792 144.691 115.148 141.288 111.373C140.402 110.39 138.944 109.361 138.678 109.53C138.579 109.593 138.444 110.43 138.377 111.391C138.291 112.612 138.043 113.678 137.552 114.933C136.362 117.976 135.917 118.198 134.165 116.62C133.505 116.025 132.714 115.473 132.408 115.395C131.809 115.24 131.239 115.576 131.239 116.085C131.239 116.58 132.227 118.552 132.94 119.478C133.769 120.556 134.122 121.903 134.034 123.654L133.965 125.032L135.167 125.708C135.829 126.079 136.904 126.76 137.557 127.22L138.744 128.057L139.255 127.564C139.536 127.293 140.155 126.551 140.631 125.916ZM124.214 125.757C124.719 125.227 125.977 123.534 126.315 123.072C126.83 122.365 127.058 122.23 127.731 122.23C128.173 122.23 129.366 122.724 129.876 122.808C130.751 122.952 130.802 122.93 130.787 122.426C130.778 122.133 130.582 121.59 130.35 121.219C130.119 120.849 129.807 120.293 129.657 119.984C128.816 118.257 128.709 118.189 126.865 118.189C125.926 118.189 125.11 118.268 125.052 118.364C124.917 118.59 125.505 120.586 125.577 121.16C125.855 123.377 116.607 122.238 115.917 122.182C114.511 122.068 114.271 122.357 115.321 122.903C115.677 123.088 117.319 123.933 118.969 124.781C120.619 125.629 122.117 126.406 122.297 126.508C122.923 126.862 123.302 126.714 124.214 125.757ZM102.18 117.305C103.292 116.803 104.298 116.393 104.416 116.393C104.541 116.393 104.633 115.523 104.638 114.316C104.642 113.174 104.78 110.673 104.945 108.759C105.11 106.846 105.224 105.258 105.199 105.23C105.083 105.106 100.673 106.01 99.2872 106.441C97.3336 107.049 96.9685 107.236 97.0912 107.565C97.1551 107.737 97.3632 108.455 97.553 109.161C97.7429 109.866 97.982 110.696 98.0842 111.004C98.2562 111.524 98.7801 113.97 99.3978 117.139C99.5613 117.977 99.7435 118.405 99.906 118.331C100.045 118.268 101.069 117.806 102.18 117.305ZM126.326 114.275C128.128 113.993 128.336 113.907 128.943 113.185C129.306 112.754 129.817 112.289 130.08 112.152C130.719 111.817 132.468 111.853 133.472 112.222C134.276 112.517 134.291 112.512 134.617 111.841C135.883 109.228 133.533 100.219 130.73 96.9417L129.893 95.9632H130.795C131.291 95.9632 132.011 96.1286 132.395 96.3305C133.158 96.7328 134.794 97.9898 134.911 98.2651C134.952 98.36 135.167 98.5382 135.39 98.6612C135.78 98.8759 135.791 98.7368 135.664 94.9479C135.55 91.549 135.576 91.0284 135.852 91.1372C136.295 91.3124 137.67 93.8344 138.123 95.3042C138.33 95.9753 138.576 96.6131 138.67 96.7219C138.943 97.0358 144.935 90.6772 146.615 88.2913C148.099 86.183 148.869 85.4017 148.626 86.2501C148.563 86.4681 148.251 87.5557 147.932 88.667C146.439 93.864 143.432 98.5999 139.709 101.619C138.769 102.381 138.023 103.041 138 103.064C136.133 104.994 143.286 109.445 146.467 107.193C148.492 105.76 152.981 103.995 153.577 103.533C154.013 103.196 154.567 101.626 154.572 100.71C154.58 99.4706 157.031 89.2986 158.19 85.6981C159.276 82.3229 160.915 77.966 161.708 76.3483C162.002 75.7466 162.162 75.1724 162.062 75.072C161.724 74.7299 158.386 73.8836 154.139 73.0633C151.363 72.5273 150.67 72.5145 148.755 72.964C142.453 74.4437 133.32 79.7819 127.476 85.4017C124.361 88.3983 121.934 92.3277 121.115 95.7007C120.384 98.7112 120.813 103.511 122.303 108.984C122.512 109.754 123.539 113.429 123.762 114.204C123.894 114.667 123.828 114.665 126.326 114.275ZM148.946 113.334C153.93 111.493 158.473 108.66 163.081 104.518C165.548 102.301 168.535 99.28 168.527 99.0095C168.523 98.8773 168.098 98.506 167.582 98.184L166.644 97.5988L165.462 98.7079C162.607 101.388 159.517 103.778 156.102 105.948C153.835 107.389 147.255 110.773 146.711 110.777C146.524 110.778 146.193 110.914 145.975 111.078C145.598 111.362 145.604 111.415 146.113 112.256C146.407 112.741 146.71 113.314 146.788 113.53C146.97 114.039 147.059 114.031 148.946 113.334ZM72.1665 102.361C73.8203 98.0117 76.0484 93.6241 78.5032 89.8835C79.1984 88.824 79.7672 87.8138 79.7672 87.6386C79.7668 86.9391 78.4551 84.5339 77.2061 82.9421C75.1288 80.2952 72.8612 78.5005 65.8556 73.9577C62.9532 72.0757 57.206 67.9597 55.1429 66.2858C53.5804 65.0183 53.5139 64.9883 53.1021 65.3717C52.5899 65.8485 48.7335 71.0568 46.8661 73.7938C46.1286 74.8741 44.9366 76.6207 44.217 77.675C43.4971 78.729 42.9086 79.6352 42.9086 79.6885C42.9086 79.8491 51.257 85.187 51.5081 85.187C51.5472 85.187 52.3518 85.6244 53.296 86.1592C54.2404 86.6937 56.1856 87.7671 57.6186 88.5443C61.4063 90.5983 63.5957 92.1598 65.3456 94.056C66.9874 95.8351 67.9822 97.6229 69.7171 101.912C70.2165 103.147 70.7295 104.41 70.8565 104.719C71.0865 105.277 71.0895 105.275 71.4137 104.382C71.5929 103.888 71.9317 102.979 72.1665 102.361ZM160.27 98.4882C161.183 97.7784 162.575 96.5915 163.363 95.8508L164.796 94.504L164.476 93.2693C164.049 91.6253 164.048 90.5753 164.472 89.732C165.216 88.2497 166.312 88.6834 166.794 90.6523C167.163 92.1561 167.695 93.5595 168.154 94.2356C169.125 95.6675 171.366 96.4762 172.734 95.888C173.124 95.7204 173.817 95.1129 174.275 94.5383C175.261 93.2996 175.809 93.2134 177.346 94.0549C177.91 94.3634 178.49 94.6161 178.635 94.6161C179.005 94.6161 179.321 94.025 179.735 92.5606C180.047 91.4577 180.202 91.2401 180.954 90.8571L181.816 90.4183L180.791 89.5425C179.294 88.2632 178.349 87.2209 178.349 86.85C178.349 86.6711 178.603 86.4053 178.913 86.2596C179.393 86.0347 179.622 86.0734 180.434 86.517C180.961 86.8043 181.891 87.5327 182.502 88.1358L183.612 89.2318L184.777 88.4363C186.77 87.0745 186.812 87.2873 183.981 84.3316C182.599 82.8881 180.997 81.0762 180.421 80.3044C179.846 79.5326 179.271 78.901 179.143 78.901C179.016 78.901 178.565 79.2482 178.14 79.6728C176.185 81.6249 173.602 82.3142 171.797 81.366C170.706 80.7936 170.651 80.0576 171.6 78.7301C172.728 77.15 172.75 75.2965 171.644 74.9168C169.77 74.2743 166.996 77.0536 167.011 79.5585C167.015 80.2982 167.226 80.6238 167.768 80.7297C168.407 80.8546 168.411 81.4438 167.779 82.2174C166.366 83.9468 164.503 83.3331 164.356 81.0897C164.326 80.6267 164.199 80.2503 164.073 80.2533C163.83 80.2587 162.208 84.4269 161.148 87.7689C160.522 89.7458 158.67 97.2695 158.4 98.9376C158.325 99.4009 158.342 99.7795 158.437 99.7791C158.532 99.7791 159.358 99.1979 160.27 98.4882ZM83.1387 83.3349C83.3655 82.9337 86.0602 79.0583 86.2872 78.8035C86.6326 78.4161 86.7206 77.8609 86.8225 75.4214C86.8893 73.8161 87.0952 71.5431 87.2799 70.37C87.4643 69.197 87.726 67.5304 87.8615 66.6659C88.7924 60.7274 90.5069 52.8518 92.6886 44.4884C92.8106 44.0211 92.8504 43.5772 92.7773 43.502C92.4024 43.1161 84.8189 46.7461 79.7756 49.7263C75.5125 52.245 69.5733 56.4771 66.6811 59.0564C66.3813 59.3237 65.3507 60.2353 64.3912 61.0823C63.4314 61.9289 62.1211 63.1523 61.4793 63.8003L60.3122 64.9788L61.4793 65.9405C62.1211 66.4695 62.8583 67.0514 63.1171 67.2332C63.3759 67.415 64.4066 68.166 65.4073 68.9017C66.408 69.6377 68.6007 71.1933 70.2797 72.359C71.9591 73.5244 74.0693 74.9927 74.9689 75.6211C77.9337 77.6929 81.5583 81.7085 82.2352 83.6719C82.4334 84.2462 82.6747 84.1564 83.1387 83.3349ZM44.9074 70.3156C45.907 68.9272 46.8456 67.6253 46.9928 67.4227C47.2166 67.1138 47.1275 66.8754 46.4477 65.962C45.5083 64.7003 44.9983 63.8423 44.5303 62.7372C44.3473 62.3049 44.1111 61.7493 44.0056 61.5025C42.8103 58.7023 42.2112 53.5458 42.297 46.8034C42.3335 43.9602 42.2978 41.6338 42.2182 41.6342C41.7162 41.6349 39.135 46.2248 38.2413 48.7059C38.0186 49.3233 37.709 50.1316 37.5531 50.5021C37.3118 51.0746 36.2844 54.3158 35.4535 57.1248C35.0019 58.6519 34.3626 59.8717 33.0812 61.6503C30.9071 64.6685 31.2718 65.5221 35.6919 67.756C38.9383 69.3967 40.4859 70.4241 41.8086 71.8165C42.3434 72.3791 42.8505 72.8398 42.9352 72.8398C43.0203 72.8398 43.9074 71.7037 44.9074 70.3156ZM115.968 29.3392C117.234 26.3306 121.238 20.9357 124.809 17.4261C127.17 15.1057 129.491 13.404 133.997 10.6889C137.331 8.67943 138.112 8.03214 137.747 7.57907C137.479 7.2472 136.463 7.26363 134.472 7.632C133.713 7.7722 133.642 7.73204 133.106 6.85948C132.424 5.74707 131.714 5.64923 130.496 6.50024C130.054 6.80874 129.5 7.06138 129.264 7.06138C128.851 7.06138 128.714 6.93761 127.781 5.71567L127.353 5.15563L126.406 5.66675C125.885 5.9475 124.772 6.57289 123.933 7.0559C122.06 8.13327 117.94 9.56294 114.914 10.1854C112.41 10.7005 110.738 11.5026 110.028 12.5296C109.453 13.3598 109.299 15.0702 109.65 16.715C110.035 18.5159 110.154 20.702 109.905 21.391C108.855 24.3007 107.638 28.6558 107.823 28.8456C107.942 28.9683 108.818 29.2144 109.77 29.3922C110.722 29.57 112.188 29.9088 113.028 30.1442C115.368 30.8014 115.351 30.8061 115.968 29.3392Z" fill="#0F1B20"/>
</g>
<defs>
<clipPath id="clip0_6027_175">
<rect width="256" height="256" fill="white"/>
</clipPath>
<clipPath id="clip1_6027_175">
<rect width="234.939" height="234.939" fill="white" transform="translate(10.9854 16.4668)"/>
</clipPath>
</defs>
</svg>
