<svg width="512" height="512" viewBox="0 0 512 512" fill="none" xmlns="http://www.w3.org/2000/svg">
<g clip-path="url(#clip0_6027_176)">
<g clip-path="url(#clip1_6027_176)">
<path d="M295.944 57.8306C294.322 57.5241 293.013 56.9476 292.014 56.1007C291.021 55.2319 290.272 54.0807 289.771 52.6469L293.519 50.8351C293.778 51.633 294.137 52.2569 294.597 52.7071C295.055 53.157 295.561 53.4338 296.107 53.5374C296.985 53.703 297.691 53.5644 298.229 53.1212C298.794 52.6603 299.209 51.7176 299.479 50.2928L302.108 36.3867L306.939 37.3L304.238 51.6006C303.976 52.9814 303.497 54.1961 302.798 55.2445C302.102 56.2932 301.174 57.0597 300.015 57.5447C298.88 58.0335 297.52 58.1287 295.944 57.8306Z" fill="#0F1B20"/>
<path d="M316 62.6358C313.28 61.8444 311.436 60.4368 310.47 58.413C309.501 56.3893 309.53 53.6211 310.55 50.109L313.824 38.8652L318.577 40.2488L315.165 51.9743C314.568 54.0301 314.461 55.5555 314.843 56.5501C315.229 57.5447 316.01 58.2133 317.188 58.5559C318.366 58.8988 319.394 58.7567 320.274 58.1298C321.152 57.503 321.891 56.1617 322.49 54.1056L325.903 42.3804L330.464 43.7077L327.193 54.9514C326.171 58.4636 324.717 60.8171 322.838 62.0122C320.978 63.2132 318.698 63.4211 316 62.6358Z" fill="#0F1B20"/>
<path d="M329.16 66.3285L337.399 46.1309L343.1 48.4563C345.166 49.2988 346.807 50.3788 348.03 51.6962C349.25 53.0134 349.97 54.584 350.19 56.4081C350.439 58.2198 350.091 60.2821 349.146 62.5952C348.204 64.9081 347.01 66.65 345.57 67.8204C344.128 68.9912 342.514 69.6448 340.723 69.7815C338.962 69.9063 337.091 69.5639 335.107 68.7551L329.16 66.3285ZM335.217 64.5001L336.084 64.854C337.241 65.3259 338.327 65.5279 339.342 65.4602C340.378 65.4011 341.328 64.9934 342.19 64.2373C343.052 63.4812 343.812 62.2976 344.47 60.6866C345.126 59.0758 345.402 57.7191 345.3 56.6166C345.204 55.4935 344.797 54.5693 344.082 53.8437C343.394 53.1057 342.473 52.5008 341.317 52.0289L340.45 51.6751L335.217 64.5001Z" fill="#0F1B20"/>
<path d="M356.429 79.0598C354.694 78.1396 353.383 76.9253 352.491 75.4168C351.619 73.919 351.207 72.2226 351.255 70.3278C351.33 68.424 351.921 66.4278 353.029 64.3395C354.151 62.2315 355.46 60.6419 356.964 59.571C358.498 58.491 360.117 57.9118 361.825 57.8336C363.564 57.7463 365.299 58.1628 367.033 59.083C368.768 60.0032 370.074 61.2026 370.957 62.6809C371.87 64.1498 372.298 65.8167 372.242 67.6812C372.207 69.5562 371.634 71.5379 370.526 73.6262C369.415 75.7144 368.085 77.3185 366.533 78.4381C365.007 79.5483 363.372 80.157 361.624 80.264C359.895 80.3815 358.163 79.9803 356.429 79.0598ZM358.42 75.3068C359.742 76.0075 361.088 75.9904 362.464 75.2556C363.837 74.5209 365.039 73.188 366.064 71.2574C367.087 69.3268 367.504 67.6157 367.311 66.1243C367.119 64.6329 366.361 63.5368 365.042 62.8361C363.722 62.1354 362.389 62.1228 361.046 62.7986C359.702 63.4742 358.519 64.7774 357.494 66.7083C356.469 68.6389 356.035 70.3795 356.198 71.93C356.359 73.4806 357.1 74.606 358.42 75.3068Z" fill="#0F1B20"/>
<path d="M381.663 94.774C380.172 93.7127 379.048 92.3905 378.285 90.807C377.525 89.2236 377.241 87.4881 377.437 85.6003C377.662 83.7072 378.481 81.7707 379.891 79.7905C381.288 77.8286 382.862 76.4293 384.607 75.5924C386.385 74.75 388.17 74.4187 389.958 74.598C391.778 74.7723 393.435 75.3897 394.923 76.4513C396.068 77.2665 396.925 78.2339 397.498 79.3535C398.081 80.4546 398.453 81.5276 398.614 82.5723L394.663 83.6194C394.508 82.878 394.264 82.1989 393.938 81.5822C393.641 80.9605 393.175 80.423 392.538 79.9699C391.74 79.4006 390.841 79.1035 389.845 79.0786C388.868 79.0668 387.875 79.3454 386.869 79.9145C385.879 80.4964 384.955 81.3869 384.101 82.586C382.809 84.4025 382.19 86.0976 382.247 87.6714C382.303 89.2453 382.985 90.4982 384.291 91.4299C385.019 91.9475 385.78 92.2436 386.577 92.318C387.391 92.4049 388.178 92.3768 388.938 92.2334L389.275 96.2544C386.545 96.9372 384.005 96.4436 381.663 94.774Z" fill="#0F1B20"/>
<path d="M390.221 100.652L404.361 84.043L408.108 87.2316L396.655 100.682L403.226 106.278L400.536 109.437L390.221 100.652Z" fill="#0F1B20"/>
<path d="M408.221 117.469C406.221 115.462 405.287 113.339 405.418 111.1C405.55 108.86 406.909 106.45 409.503 103.869L417.8 95.6055L421.293 99.1139L412.64 107.731C411.122 109.242 410.292 110.526 410.148 111.582C410.003 112.639 410.365 113.602 411.232 114.471C412.096 115.34 413.065 115.713 414.139 115.589C415.212 115.465 416.507 114.647 418.022 113.136L426.676 104.519L430.029 107.885L421.732 116.148C419.138 118.73 416.732 120.089 414.508 120.226C412.3 120.38 410.204 119.461 408.221 117.469Z" fill="#0F1B20"/>
<path d="M417.963 127.076L434.9 113.328L439.6 119.121C440.556 120.299 441.284 121.46 441.784 122.606C442.301 123.738 442.48 124.827 442.325 125.874C442.167 126.92 441.543 127.886 440.454 128.771C439.71 129.376 438.811 129.774 437.761 129.966C436.742 130.161 435.821 130.018 434.999 129.536L434.895 129.621C435.371 130.669 435.513 131.746 435.32 132.852C435.157 133.961 434.512 134.972 433.388 135.886C432.226 136.828 431.043 137.299 429.839 137.301C428.634 137.303 427.449 136.957 426.284 136.265C425.136 135.56 424.063 134.592 423.064 133.362L417.963 127.076ZM431.22 122.65L432.673 124.443C433.433 125.378 434.164 125.905 434.863 126.026C435.58 126.164 436.239 125.986 436.846 125.494C437.505 124.96 437.796 124.364 437.721 123.707C437.646 123.049 437.245 122.269 436.514 121.369L435.037 119.551L431.22 122.65ZM424.023 128.491L425.773 130.647C427.475 132.742 429.087 133.171 430.61 131.935C431.356 131.33 431.672 130.641 431.563 129.869C431.469 129.082 430.995 128.161 430.139 127.104L428.388 124.948L424.023 128.491Z" fill="#0F1B20"/>
<path d="M437.588 154.226C436.825 153.02 436.287 151.671 435.974 150.179C435.674 148.705 435.661 147.223 435.931 145.732L440.289 146.298C440.141 147.315 440.147 148.342 440.299 149.379C440.457 150.416 440.773 151.312 441.25 152.066C441.798 152.932 442.366 153.471 442.946 153.683C443.543 153.913 444.113 153.856 444.659 153.51C445.243 153.14 445.513 152.626 445.465 151.969C445.449 151.319 445.355 150.481 445.181 149.456L444.678 146.409C444.547 145.62 444.52 144.806 444.595 143.966C444.689 143.115 444.951 142.301 445.385 141.525C445.818 140.749 446.477 140.081 447.363 139.52C448.38 138.875 449.477 138.564 450.652 138.585C451.838 138.625 452.986 138.98 454.097 139.649C455.221 140.338 456.187 141.323 456.998 142.604C457.668 143.659 458.128 144.845 458.382 146.163C458.636 147.481 458.618 148.786 458.329 150.079L454.357 149.624C454.445 148.723 454.421 147.893 454.284 147.135C454.167 146.365 453.875 145.613 453.409 144.878C452.957 144.162 452.44 143.683 451.865 143.44C451.319 143.204 450.783 143.254 450.256 143.588C449.691 143.946 449.434 144.479 449.485 145.185C449.55 145.91 449.673 146.77 449.852 147.765L450.395 150.748C450.647 152.146 450.585 153.425 450.213 154.586C449.839 155.747 449.004 156.739 447.703 157.563C446.686 158.207 445.569 158.531 444.357 158.533C443.145 158.536 441.945 158.186 440.76 157.484C439.577 156.782 438.519 155.696 437.588 154.226Z" fill="#0F1B20"/>
<path d="M444.046 164.253L463.207 153.828L465.56 158.148L446.396 168.573L444.046 164.253Z" fill="#0F1B20"/>
<path d="M448.896 173.095L468.789 164.141L470.863 168.748L463.313 178.383L459.798 182.314L459.852 182.436C460.874 181.878 462.004 181.235 463.24 180.507C464.477 179.779 465.687 179.149 466.867 178.618L473.882 175.46L475.807 179.731L455.914 188.684L453.84 184.078L461.42 174.428L464.876 170.525L464.819 170.404C463.768 171 462.638 171.642 461.431 172.332C460.234 173.042 459.046 173.663 457.866 174.194L450.818 177.366L448.896 173.095Z" fill="#0F1B20"/>
<path d="M457.273 192.214L460.092 191.253L477.104 195.635L474.286 187.37L478.212 186.031L482.982 200.028L480.163 200.989L463.154 196.607L466.296 205.823L462.367 207.161L457.273 192.214Z" fill="#0F1B20"/>
<path d="M463.446 210.755L484.669 205.711L485.806 210.496L477.635 212.437L479.375 219.761L487.546 217.819L488.692 222.637L467.469 227.681L466.324 222.864L475.178 220.759L473.435 213.436L464.581 215.54L463.446 210.755Z" fill="#0F1B20"/>
<path d="M468.328 232.742L489.941 229.777L491.794 243.301L487.685 243.865L486.499 235.215L482.155 235.809L483.164 243.167L479.088 243.726L478.079 236.368L473.106 237.048L474.337 246.033L470.228 246.596L468.328 232.742Z" fill="#0F1B20"/>
<path d="M470.536 250.948L492.294 249.371L492.65 254.277L470.892 255.851L470.536 250.948Z" fill="#0F1B20"/>
<path d="M471.366 260.986L493.18 261.187L493.132 266.572L483.397 269.996C482.771 270.215 482.11 270.421 481.417 270.614C480.724 270.809 480.041 271.015 479.369 271.232V271.366C480.036 271.596 480.716 271.802 481.406 271.987C482.094 272.193 482.75 272.41 483.373 272.64L493.044 276.176L492.996 281.526L471.182 281.328L471.222 276.845L479.219 276.917C479.931 276.925 480.724 276.965 481.593 277.04C482.485 277.137 483.376 277.236 484.267 277.332C485.159 277.453 485.948 277.549 486.639 277.621L486.641 277.487L481.47 275.667L473.17 272.48L473.194 269.771L481.553 266.736L486.754 265.041L486.757 264.908C486.063 264.99 485.271 265.073 484.377 265.154C483.486 265.237 482.592 265.306 481.698 265.365C480.828 265.445 480.036 265.483 479.324 265.478L471.326 265.403L471.366 260.986Z" fill="#0F1B20"/>
<path d="M468.678 300.037C468.898 298.468 469.439 297.1 470.298 295.939C471.16 294.774 472.281 293.918 473.662 293.367C475.046 292.815 476.644 292.668 478.456 292.92C480.244 293.171 481.729 293.749 482.907 294.657C484.085 295.586 484.933 296.696 485.45 297.984C485.99 299.276 486.17 300.572 485.988 301.875C485.771 303.444 485.236 304.689 484.387 305.604C483.557 306.549 482.511 307.191 481.248 307.531C480.003 307.898 478.63 307.978 477.126 307.769C476.708 307.71 476.291 307.63 475.876 307.526C475.485 307.427 475.193 307.341 475 307.269L476.374 297.427C475.15 297.481 474.198 297.855 473.515 298.548C472.854 299.244 472.45 300.133 472.297 301.217C472.134 302.387 472.335 303.621 472.897 304.913L469.722 306.126C469.265 305.208 468.941 304.204 468.756 303.12C468.569 302.036 468.545 301.008 468.678 300.037ZM479.593 297.842L478.764 303.773C479.671 303.899 480.442 303.781 481.076 303.42C481.732 303.085 482.128 302.429 482.265 301.458C482.369 300.706 482.198 299.996 481.751 299.325C481.325 298.658 480.605 298.163 479.593 297.842Z" fill="#0F1B20"/>
<path d="M466.492 312.561C466.663 311.731 467.091 311.089 467.774 310.637C468.478 310.211 469.254 310.088 470.105 310.262C470.98 310.441 471.644 310.864 472.102 311.525C472.573 312.216 472.725 312.976 472.554 313.806C472.385 314.635 471.949 315.262 471.245 315.687C470.563 316.14 469.781 316.276 468.909 316.097C468.055 315.92 467.394 315.489 466.92 314.801C466.465 314.138 466.32 313.391 466.492 312.561Z" fill="#0F1B20"/>
<path d="M464.95 321.26L487.722 320.443L486.395 325.489L475.895 325.422C474.666 325.446 473.47 325.43 472.308 325.379C471.138 325.347 469.931 325.339 468.681 325.358L468.647 325.486C469.731 326.094 470.791 326.674 471.824 327.223C472.854 327.772 473.903 328.347 474.966 328.949L484.147 334.03L482.867 338.885L463.443 326.988L464.95 321.26Z" fill="#0F1B20"/>
<path d="M460.507 335.287C460.767 334.479 461.262 333.89 461.993 333.516C462.737 333.17 463.524 333.133 464.351 333.4C465.199 333.673 465.815 334.166 466.195 334.875C466.589 335.611 466.658 336.382 466.396 337.19C466.136 337.996 465.633 338.572 464.889 338.917C464.158 339.292 463.369 339.34 462.52 339.067C461.693 338.799 461.08 338.296 460.687 337.56C460.307 336.851 460.245 336.093 460.507 335.287Z" fill="#0F1B20"/>
<path d="M451.048 359.426C451.742 357.93 452.622 356.801 453.687 356.04C454.771 355.291 456.072 354.847 457.585 354.713L458.425 358.789C457.587 358.843 456.894 359.038 456.345 359.375C455.797 359.71 455.406 360.13 455.17 360.636C454.796 361.447 454.758 362.167 455.055 362.796C455.363 363.455 456.177 364.089 457.491 364.699L470.33 370.652L468.264 375.114L455.058 368.992C453.784 368.401 452.724 367.641 451.878 366.707C451.032 365.775 450.516 364.686 450.328 363.444C450.133 362.223 450.374 360.885 451.048 359.426Z" fill="#0F1B20"/>
<path d="M441.522 377.635C442.954 375.189 444.766 373.743 446.966 373.299C449.164 372.855 451.843 373.556 454.998 375.406L465.105 381.321L462.603 385.595L452.065 379.426C450.218 378.342 448.765 377.868 447.705 377.997C446.648 378.128 445.807 378.722 445.189 379.782C444.568 380.839 444.455 381.872 444.849 382.876C445.242 383.882 446.364 384.926 448.211 386.007L458.751 392.177L456.35 396.277L446.243 390.362C443.088 388.513 441.158 386.532 440.459 384.415C439.747 382.319 440.101 380.06 441.522 377.635Z" fill="#0F1B20"/>
<path d="M434.713 389.521L452.303 402.425L448.66 407.388C447.344 409.186 445.895 410.519 444.322 411.381C442.745 412.246 441.048 412.564 439.225 412.334C437.408 412.133 435.492 411.295 433.476 409.818C431.463 408.34 430.064 406.761 429.277 405.078C428.492 403.394 428.252 401.668 428.554 399.899C428.862 398.161 429.649 396.427 430.915 394.701L434.713 389.521ZM435.015 395.844L434.461 396.598C433.722 397.605 433.262 398.608 433.08 399.609C432.887 400.629 433.051 401.649 433.575 402.669C434.1 403.691 435.063 404.716 436.466 405.744C437.868 406.772 439.116 407.372 440.21 407.537C441.324 407.717 442.32 407.548 443.198 407.032C444.081 406.544 444.892 405.798 445.631 404.791L446.185 404.034L435.015 395.844Z" fill="#0F1B20"/>
<path d="M415.795 412.835C417.106 411.374 418.602 410.394 420.281 409.894C421.945 409.412 423.691 409.42 425.519 409.923C427.347 410.459 429.14 411.516 430.899 413.095C432.673 414.69 433.899 416.347 434.576 418.065C435.253 419.813 435.422 421.526 435.085 423.202C434.75 424.909 433.926 426.494 432.614 427.953C431.303 429.414 429.823 430.394 428.174 430.892C426.53 431.421 424.809 431.435 423.013 430.929C421.201 430.442 419.416 429.406 417.658 427.827C415.899 426.245 414.665 424.567 413.956 422.79C413.247 421.042 413.051 419.307 413.37 417.584C413.675 415.879 414.481 414.294 415.795 412.835ZM418.953 415.675C417.955 416.786 417.647 418.098 418.027 419.61C418.407 421.122 419.411 422.608 421.035 424.069C422.663 425.53 424.221 426.347 425.714 426.521C427.21 426.695 428.455 426.224 429.453 425.113C430.454 424.002 430.786 422.712 430.457 421.245C430.125 419.778 429.148 418.314 427.521 416.853C425.896 415.392 424.312 414.554 422.767 414.334C421.223 414.117 419.951 414.564 418.953 415.675Z" fill="#0F1B20"/>
<path d="M394.441 433.544C395.831 432.356 397.386 431.583 399.104 431.224C400.825 430.868 402.578 431.01 404.363 431.655C406.146 432.329 407.827 433.59 409.409 435.437C410.977 437.268 411.957 439.13 412.348 441.025C412.736 442.955 412.629 444.765 412.024 446.459C411.416 448.183 410.415 449.641 409.029 450.83C407.961 451.745 406.815 452.345 405.589 452.631C404.38 452.931 403.25 453.035 402.198 452.936L402.134 448.852C402.891 448.879 403.609 448.806 404.286 448.638C404.96 448.501 405.595 448.177 406.186 447.669C406.933 447.032 407.436 446.231 407.701 445.27C407.947 444.326 407.918 443.295 407.607 442.179C407.281 441.079 406.639 439.968 405.68 438.852C404.23 437.158 402.733 436.146 401.194 435.822C399.653 435.498 398.272 435.857 397.054 436.904C396.374 437.484 395.905 438.151 395.641 438.906C395.359 439.674 395.196 440.445 395.153 441.218L391.168 440.578C391.165 437.76 392.255 435.418 394.441 433.544Z" fill="#0F1B20"/>
<path d="M386.676 440.434L399.387 458.16L395.389 461.027L385.097 446.67L378.082 451.699L375.665 448.329L386.676 440.434Z" fill="#0F1B20"/>
<path d="M365.99 453.86C368.42 452.404 370.706 452.01 372.847 452.679C374.991 453.346 377.001 455.251 378.88 458.388L384.894 468.436L380.644 470.979L374.373 460.5C373.273 458.664 372.229 457.548 371.239 457.152C370.248 456.758 369.226 456.876 368.174 457.505C367.122 458.137 366.525 458.985 366.386 460.059C366.247 461.129 366.729 462.583 367.829 464.419L374.1 474.897L370.023 477.339L364.009 467.291C362.13 464.151 361.392 461.488 361.796 459.296C362.181 457.114 363.578 455.302 365.99 453.86Z" fill="#0F1B20"/>
<path d="M354.333 460.98L363.567 480.744L356.806 483.903C355.433 484.545 354.13 484.968 352.896 485.177C351.672 485.401 350.572 485.313 349.595 484.909C348.618 484.502 347.832 483.664 347.237 482.39C346.831 481.523 346.662 480.554 346.731 479.489C346.788 478.453 347.149 477.594 347.818 476.914L347.759 476.791C346.627 477.002 345.548 476.879 344.523 476.422C343.485 475.996 342.66 475.126 342.048 473.812C341.416 472.458 341.245 471.197 341.534 470.025C341.825 468.855 342.446 467.79 343.399 466.829C344.363 465.884 345.562 465.078 346.996 464.409L354.333 460.98ZM355.414 474.915L353.321 475.892C352.232 476.403 351.541 476.984 351.255 477.634C350.947 478.293 350.96 478.978 351.29 479.684C351.648 480.452 352.157 480.881 352.813 480.966C353.468 481.055 354.322 480.854 355.374 480.362L357.497 479.371L355.414 474.915ZM351.49 466.518L348.974 467.693C346.531 468.836 345.722 470.298 346.555 472.075C346.959 472.945 347.551 473.418 348.327 473.499C349.114 473.6 350.123 473.362 351.354 472.787L353.87 471.612L351.49 466.518Z" fill="#0F1B20"/>
<path d="M323.196 473.441C324.553 472.994 325.993 472.801 327.516 472.863C329.018 472.93 330.461 473.278 331.839 473.904L330.228 477.991C329.278 477.6 328.279 477.354 327.238 477.252C326.194 477.151 325.249 477.239 324.401 477.517C323.427 477.838 322.765 478.256 322.418 478.77C322.048 479.292 321.968 479.859 322.169 480.472C322.385 481.131 322.819 481.516 323.467 481.631C324.101 481.773 324.936 481.885 325.972 481.966L329.05 482.22C329.848 482.287 330.645 482.458 331.44 482.737C332.243 483.034 332.969 483.489 333.616 484.096C334.261 484.707 334.751 485.51 335.078 486.503C335.455 487.648 335.49 488.786 335.182 489.92C334.856 491.063 334.232 492.091 333.311 493.004C332.369 493.925 331.178 494.623 329.738 495.097C328.552 495.49 327.289 495.648 325.951 495.573C324.61 495.498 323.349 495.161 322.166 494.564L323.574 490.825C324.428 491.13 325.236 491.31 326.004 491.363C326.78 491.435 327.583 491.336 328.408 491.063C329.213 490.798 329.802 490.416 330.18 489.915C330.541 489.444 330.624 488.911 330.428 488.32C330.217 487.683 329.765 487.305 329.066 487.182C328.346 487.067 327.484 486.976 326.475 486.909L323.451 486.709C322.032 486.612 320.806 486.24 319.77 485.595C318.737 484.95 317.98 483.898 317.498 482.437C317.121 481.291 317.078 480.132 317.37 478.955C317.664 477.777 318.296 476.701 319.265 475.724C320.233 474.747 321.545 473.984 323.196 473.441Z" fill="#0F1B20"/>
<path d="M311.856 477.268L317.279 498.396L312.517 499.62L307.092 478.491L311.856 477.268Z" fill="#0F1B20"/>
<path d="M302.1 479.809L305.916 501.288L300.941 502.171L293.446 492.493L290.494 488.122L290.363 488.146C290.655 489.273 291 490.526 291.404 491.904C291.808 493.28 292.121 494.607 292.349 495.881L293.695 503.456L289.083 504.278L285.267 482.798L290.242 481.915L297.745 491.626L300.684 495.93L300.815 495.905C300.494 494.741 300.148 493.489 299.774 492.15C299.377 490.815 299.067 489.511 298.839 488.237L297.488 480.628L302.1 479.809Z" fill="#0F1B20"/>
<path d="M281.53 483.25L281.774 486.218L273.375 501.646L282.076 500.929L282.416 505.064L267.679 506.277L267.433 503.308L275.834 487.88L266.132 488.678L265.792 484.543L281.53 483.25Z" fill="#0F1B20"/>
<path d="M262.074 484.708L261.833 506.522L256.914 506.466L257.007 498.07L249.481 497.987L249.387 506.383L244.436 506.33L244.679 484.516L249.628 484.572L249.529 493.672L257.056 493.755L257.157 484.655L262.074 484.708Z" fill="#0F1B20"/>
<path d="M239.559 484.136L237.233 505.824L223.66 504.368L224.104 500.244L232.785 501.175L233.253 496.818L225.868 496.025L226.307 491.933L233.692 492.725L234.227 487.736L225.213 486.77L225.654 482.643L239.559 484.136Z" fill="#0F1B20"/>
<path d="M221.358 481.896L217.646 503.392L212.799 502.554L216.511 481.059L221.358 481.896Z" fill="#0F1B20"/>
<path d="M211.39 480.283L205.904 501.396L200.691 500.041L199.731 489.766C199.672 489.105 199.632 488.417 199.612 487.697C199.591 486.977 199.557 486.265 199.51 485.561L199.38 485.526C198.996 486.118 198.631 486.728 198.284 487.352C197.916 487.97 197.545 488.553 197.172 489.102L191.397 497.627L186.216 496.281L191.702 475.168L196.041 476.295L194.03 484.033C193.85 484.723 193.619 485.483 193.335 486.308C193.025 487.148 192.714 487.989 192.403 488.832C192.071 489.667 191.785 490.411 191.547 491.061L191.676 491.096L194.697 486.522L199.803 479.242L202.426 479.924L203.343 488.77L203.722 494.225L203.852 494.26C203.94 493.567 204.052 492.78 204.19 491.894C204.328 491.008 204.477 490.125 204.637 489.244C204.769 488.38 204.925 487.601 205.105 486.91L207.116 479.172L211.39 480.283Z" fill="#0F1B20"/>
<path d="M174.198 468.179C175.665 468.773 176.858 469.629 177.776 470.748C178.694 471.867 179.251 473.165 179.447 474.64C179.642 476.115 179.396 477.702 178.709 479.396C178.029 481.069 177.105 482.367 175.937 483.291C174.748 484.203 173.465 484.755 172.089 484.942C170.705 485.151 169.403 485.009 168.184 484.514C166.716 483.917 165.641 483.095 164.959 482.049C164.247 481.016 163.88 479.843 163.858 478.534C163.806 477.236 164.066 475.885 164.636 474.479C164.795 474.089 164.975 473.703 165.176 473.328C165.368 472.973 165.523 472.71 165.64 472.542L174.847 476.275C175.093 475.076 174.964 474.062 174.459 473.229C173.945 472.421 173.182 471.808 172.169 471.399C171.073 470.954 169.829 470.847 168.437 471.075L168.037 467.7C169.04 467.48 170.091 467.413 171.188 467.499C172.285 467.582 173.288 467.809 174.198 468.179ZM173.658 479.297L168.109 477.044C167.765 477.892 167.691 478.668 167.886 479.372C168.052 480.092 168.59 480.633 169.499 481.002C170.202 481.289 170.933 481.297 171.692 481.026C172.443 480.777 173.099 480.202 173.658 479.297Z" fill="#0F1B20"/>
<path d="M162.532 462.97C163.296 463.336 163.812 463.909 164.083 464.683C164.323 465.467 164.254 466.251 163.876 467.035C163.488 467.838 162.917 468.379 162.163 468.66C161.379 468.949 160.605 468.912 159.842 468.542C159.079 468.176 158.577 467.598 158.336 466.813C158.066 466.04 158.125 465.25 158.513 464.447C158.891 463.663 159.472 463.125 160.256 462.836C161.01 462.555 161.769 462.6 162.532 462.97Z" fill="#0F1B20"/>
<path d="M154.504 459.361L149.735 481.644L145.165 479.122L147.795 468.957C148.073 467.76 148.38 466.604 148.714 465.491C149.03 464.366 149.332 463.194 149.621 461.979L149.504 461.915C148.648 462.817 147.829 463.703 147.045 464.57C146.261 465.437 145.446 466.312 144.602 467.196L137.432 474.856L133.038 472.431L149.32 456.5L154.504 459.361Z" fill="#0F1B20"/>
<path d="M141.98 451.623C142.699 452.073 143.15 452.697 143.334 453.497C143.488 454.303 143.334 455.074 142.872 455.812C142.399 456.57 141.772 457.046 140.992 457.242C140.181 457.445 139.416 457.322 138.698 456.872C137.979 456.423 137.543 455.794 137.39 454.988C137.206 454.188 137.35 453.411 137.823 452.654C138.285 451.918 138.921 451.447 139.732 451.243C140.512 451.048 141.262 451.174 141.98 451.623Z" fill="#0F1B20"/>
<path d="M120.904 436.609C122.189 437.647 123.071 438.774 123.55 439.992C124.015 441.226 124.129 442.594 123.893 444.095L119.735 443.919C119.885 443.094 119.863 442.374 119.671 441.761C119.478 441.148 119.165 440.667 118.731 440.316C118.036 439.757 117.348 439.545 116.664 439.682C115.95 439.821 115.137 440.455 114.227 441.582L105.34 452.596L101.513 449.51L110.651 438.183C111.533 437.088 112.529 436.245 113.64 435.651C114.75 435.054 115.93 434.818 117.18 434.939C118.413 435.043 119.654 435.6 120.904 436.609Z" fill="#0F1B20"/>
<path d="M105.495 422.916C107.52 424.894 108.483 427.005 108.383 429.246C108.283 431.486 106.954 433.916 104.398 436.531L96.2135 444.906L92.6722 441.446L101.207 432.712C102.703 431.181 103.517 429.885 103.646 428.828C103.776 427.768 103.402 426.81 102.525 425.954C101.648 425.097 100.673 424.736 99.6023 424.875C98.5315 425.014 97.2475 425.849 95.751 427.38L87.2163 436.114L83.8184 432.795L92.0025 424.42C94.5589 421.802 96.9483 420.41 99.1703 420.244C101.376 420.06 103.484 420.951 105.495 422.916Z" fill="#0F1B20"/>
<path d="M95.6331 413.468L78.8695 427.426L74.9304 422.696C73.5033 420.981 72.56 419.257 72.101 417.52C71.642 415.783 71.744 414.059 72.4072 412.346C73.0389 410.631 74.3148 408.971 76.2344 407.373C78.1543 405.775 80.0253 404.798 81.8475 404.442C83.6697 404.086 85.403 404.268 87.0478 404.988C88.6609 405.706 90.1526 406.886 91.5227 408.532L95.6331 413.468ZM89.4264 412.236L88.8272 411.516C88.0279 410.556 87.1642 409.868 86.2362 409.45C85.2941 409.017 84.2644 408.931 83.1477 409.193C82.0311 409.455 80.8041 410.143 79.4672 411.257C78.1302 412.37 77.2488 413.436 76.8227 414.458C76.3798 415.497 76.3038 416.503 76.5947 417.48C76.8541 418.454 77.3835 419.42 78.1827 420.379L78.7823 421.099L89.4264 412.236Z" fill="#0F1B20"/>
<path d="M77.5386 389.435C78.6384 391.062 79.2281 392.751 79.3078 394.499C79.375 396.231 78.9441 397.925 78.0148 399.576C77.0544 401.22 75.5952 402.705 73.6367 404.03C71.6601 405.368 69.7568 406.158 67.9271 406.399C66.0666 406.634 64.3638 406.385 62.8186 405.652C61.2421 404.916 59.9043 403.733 58.8045 402.108C57.705 400.481 57.1121 398.808 57.0265 397.09C56.9098 395.363 57.3129 393.69 58.2363 392.071C59.1471 390.43 60.5818 388.95 62.5402 387.625C64.4984 386.3 66.4263 385.508 68.324 385.249C70.1904 384.981 71.921 385.211 73.5157 385.936C75.0981 386.643 76.4391 387.81 77.5386 389.435ZM74.0192 391.817C73.1817 390.578 71.9837 389.962 70.4248 389.965C68.866 389.97 67.1811 390.586 65.3704 391.809C63.56 393.035 62.3903 394.352 61.8614 395.759C61.3325 397.165 61.487 398.49 62.3242 399.726C63.1614 400.965 64.3316 401.6 65.8353 401.635C67.3388 401.667 68.9958 401.07 70.8065 399.847C72.617 398.621 73.8145 397.288 74.3987 395.842C74.9828 394.394 74.8564 393.053 74.0192 391.817Z" fill="#0F1B20"/>
<path d="M62.6227 363.728C63.4406 365.366 63.8143 367.061 63.7444 368.816C63.6743 370.572 63.1106 372.237 62.0531 373.814C60.9656 375.379 59.3345 376.707 57.1598 377.794C55.0051 378.87 52.9602 379.37 51.0251 379.29C49.0599 379.199 47.3293 378.655 45.8331 377.657C44.3072 376.651 43.1354 375.329 42.3174 373.693C41.6892 372.435 41.3852 371.177 41.4052 369.922C41.4055 368.675 41.58 367.553 41.9293 366.555L45.9091 367.483C45.6998 368.212 45.5949 368.923 45.5949 369.622C45.5646 370.31 45.7241 371.003 46.0734 371.702C46.5121 372.58 47.1655 373.265 48.0332 373.752C48.8911 374.22 49.8985 374.44 51.0556 374.41C52.2025 374.362 53.4345 374.006 54.7514 373.351C56.7465 372.352 58.0883 371.145 58.7767 369.729C59.4651 368.313 59.4504 366.887 58.7323 365.449C58.3335 364.652 57.7997 364.033 57.1314 363.594C56.4532 363.134 55.7452 362.791 55.007 362.561L56.5934 358.852C59.3265 359.529 61.3363 361.156 62.6227 363.728Z" fill="#0F1B20"/>
<path d="M57.816 354.508L37.5279 362.524L35.7207 357.95L52.1503 351.459L48.9788 343.432L52.8374 341.906L57.816 354.508Z" fill="#0F1B20"/>
<path d="M49.8417 331.2C50.6597 333.911 50.4836 336.224 49.3134 338.138C48.1432 340.052 45.8071 341.537 42.3048 342.594L31.0934 345.975L29.6639 341.235L41.3556 337.707C43.4056 337.089 44.7431 336.347 45.3678 335.485C45.9925 334.621 46.1277 333.601 45.7736 332.426C45.4195 331.251 44.7399 330.467 43.7354 330.071C42.7306 329.674 41.2034 329.787 39.1531 330.405L27.4613 333.93L26.0898 329.383L37.3012 326C40.8032 324.945 43.5676 324.878 45.5943 325.807C47.6145 326.712 49.0304 328.51 49.8417 331.2Z" fill="#0F1B20"/>
<path d="M45.7784 318.139L24.3565 322.255L22.948 314.93C22.6619 313.439 22.5693 312.071 22.6705 310.826C22.7497 309.584 23.1054 308.538 23.7371 307.692C24.369 306.844 25.3752 306.287 26.7549 306.022C27.6968 305.84 28.6762 305.912 29.693 306.239C30.6836 306.549 31.4274 307.109 31.9244 307.922L32.0559 307.898C32.13 306.747 32.5138 305.73 33.2073 304.85C33.8746 303.948 34.9201 303.361 36.3437 303.088C37.8113 302.805 39.0768 302.949 40.1399 303.517C41.203 304.084 42.0844 304.949 42.7844 306.108C43.4626 307.272 43.9511 308.632 44.25 310.187L45.7784 318.139ZM32.0034 315.778L31.5677 313.511C31.3402 312.328 30.9462 311.517 30.3852 311.081C29.8199 310.62 29.1539 310.465 28.3874 310.612C27.555 310.773 27.0162 311.161 26.771 311.777C26.5258 312.389 26.5127 313.267 26.7316 314.408L27.1735 316.707L32.0034 315.778ZM41.1045 314.028L40.5802 311.3C40.0709 308.65 38.8522 307.51 36.9248 307.882C35.9829 308.061 35.378 308.519 35.1101 309.253C34.8202 309.989 34.8036 311.027 35.0606 312.363L35.5847 315.09L41.1045 314.028Z" fill="#0F1B20"/>
<path d="M41.3123 284.925C41.4154 286.349 41.251 287.792 40.8201 289.253C40.3873 290.693 39.6994 292.007 38.7565 293.193L35.1835 290.634C35.7949 289.807 36.2772 288.9 36.6308 287.912C36.9843 286.924 37.1291 285.988 37.0649 285.096C36.991 284.074 36.7472 283.33 36.3337 282.869C35.9185 282.385 35.3883 282.166 34.7432 282.211C34.0535 282.262 33.5738 282.586 33.304 283.188C33.0107 283.769 32.6981 284.55 32.3667 285.535L31.3702 288.461C31.1119 289.216 30.7509 289.946 30.2876 290.65C29.8018 291.357 29.1848 291.948 28.4367 292.428C27.6886 292.907 26.7917 293.185 25.7462 293.26C24.5447 293.348 23.4313 293.102 22.4059 292.529C21.3789 291.932 20.5344 291.076 19.8725 289.962C19.209 288.825 18.8225 287.5 18.7133 285.985C18.6233 284.74 18.778 283.477 19.1774 282.195C19.577 280.913 20.21 279.773 21.0769 278.772L24.3611 281.049C23.8563 281.802 23.4851 282.543 23.2474 283.276C22.9872 284.012 22.8885 284.813 22.9514 285.68C23.0124 286.526 23.2393 287.189 23.6323 287.677C24.0011 288.142 24.4971 288.354 25.1202 288.308C25.7874 288.26 26.2655 287.912 26.5543 287.264C26.8415 286.595 27.1402 285.779 27.4509 284.818L28.3832 281.933C28.8224 280.581 29.4808 279.484 30.359 278.638C31.2372 277.792 32.4438 277.313 33.9788 277.203C35.18 277.115 36.3157 277.358 37.3858 277.929C38.4556 278.499 39.3464 279.374 40.0576 280.554C40.7687 281.732 41.1871 283.188 41.3123 284.925Z" fill="#0F1B20"/>
<path d="M40.3614 273.009L18.5479 273.146L18.5166 268.229L40.3304 268.09L40.3614 273.009Z" fill="#0F1B20"/>
<path d="M40.262 262.913L18.498 261.436L18.8398 256.396L30.0402 251.455L34.9919 249.646L35.001 249.512C33.8377 249.523 32.5385 249.557 31.1039 249.616C29.669 249.675 28.3063 249.662 27.0157 249.573L19.3382 249.054L19.6551 244.381L41.4191 245.856L41.0773 250.896L29.8435 255.837L24.9587 257.651L24.9496 257.782C26.1589 257.753 27.4579 257.718 28.8467 257.678C30.2369 257.616 31.5774 257.63 32.868 257.718L40.5789 258.24L40.262 262.913Z" fill="#0F1B20"/>
<path d="M41.8791 242.11L38.9402 241.631L25.9923 229.759L24.5888 238.379L20.4941 237.712L22.8709 223.115L25.8101 223.594L38.758 235.464L40.323 225.856L44.4176 226.523L41.8791 242.11Z" fill="#0F1B20"/>
<path d="M45.1366 222.942L24.0332 217.419L25.2783 212.661L33.4025 214.787L35.3085 207.504L27.1843 205.378L28.438 200.588L49.5412 206.111L48.2877 210.901L39.4837 208.597L37.578 215.88L46.3817 218.184L45.1366 222.942Z" fill="#0F1B20"/>
<path d="M51.1745 201.197L30.71 193.644L35.4362 180.838L39.3282 182.274L36.3048 190.467L40.4165 191.984L42.9882 185.016L46.8489 186.441L44.2772 193.409L48.9853 195.147L52.1246 186.64L56.0166 188.077L51.1745 201.197Z" fill="#0F1B20"/>
<path d="M57.7865 184.108L37.8506 175.253L39.847 170.758L59.7829 179.613L57.7865 184.108Z" fill="#0F1B20"/>
<path d="M61.7908 174.834L42.6562 164.359L45.2429 159.634L55.4406 161.212C56.0956 161.316 56.7746 161.446 57.4775 161.602C58.1803 161.758 58.8787 161.899 59.5727 162.024L59.6372 161.907C59.1573 161.39 58.657 160.887 58.1362 160.398C57.626 159.89 57.1507 159.389 56.7098 158.893L49.8541 151.211L52.4247 146.516L71.5589 156.991L69.4061 160.923L62.3922 157.084C61.7661 156.741 61.0876 156.331 60.3567 155.855C59.6169 155.348 58.8771 154.841 58.1375 154.335C57.4084 153.808 56.7567 153.35 56.1823 152.959L56.118 153.076L59.8155 157.122L65.6287 163.852L64.3273 166.229L55.5257 164.958L50.1415 163.994L50.077 164.111C50.7264 164.365 51.4638 164.667 52.2892 165.017C53.1147 165.367 53.9348 165.727 54.7495 166.097C55.5554 166.436 56.2714 166.778 56.8975 167.12L63.9114 170.96L61.7908 174.834Z" fill="#0F1B20"/>
<path d="M82.6137 141.691C81.6793 142.97 80.5578 143.919 79.2495 144.537C77.9412 145.156 76.5475 145.381 75.0687 145.212C73.5899 145.043 72.1122 144.419 70.6355 143.34C69.1768 142.274 68.1423 141.062 67.532 139.704C66.9349 138.329 66.7125 136.951 66.8648 135.57C66.9991 134.177 67.4544 132.949 68.2309 131.886C69.165 130.608 70.2231 129.765 71.4048 129.357C72.5814 128.919 73.8075 128.848 75.0826 129.144C76.3529 129.409 77.6005 129.989 78.825 130.884C79.1671 131.134 79.4963 131.402 79.8121 131.688C80.11 131.961 80.3268 132.175 80.4625 132.329L74.6001 140.352C75.7041 140.883 76.7204 141.004 77.6495 140.716C78.5603 140.415 79.3381 139.823 79.9829 138.94C80.6802 137.986 81.087 136.805 81.2034 135.398L84.5748 135.831C84.543 136.858 84.3529 137.893 84.0047 138.937C83.6562 139.981 83.1926 140.899 82.6137 141.691ZM71.9599 138.465L75.4932 133.629C74.7548 133.09 74.0201 132.829 73.2885 132.847C72.5522 132.834 71.8946 133.224 71.3156 134.016C70.8681 134.628 70.6829 135.335 70.7597 136.138C70.8186 136.927 71.2188 137.702 71.9599 138.465Z" fill="#0F1B20"/>
<path d="M90.472 131.67C89.9297 132.321 89.2501 132.684 88.4332 132.759C87.6137 132.802 86.8696 132.545 86.2013 131.988C85.5155 131.417 85.1282 130.732 85.0394 129.933C84.9478 129.101 85.1732 128.36 85.7155 127.709C86.2577 127.058 86.9387 126.71 87.7582 126.667C88.5751 126.593 89.3262 126.841 90.0119 127.412C90.6805 127.968 91.0606 128.662 91.1521 129.493C91.241 130.293 91.0143 131.018 90.472 131.67Z" fill="#0F1B20"/>
<path d="M95.9263 124.741L75.458 114.725L79.0101 110.9L88.2381 115.911C89.332 116.47 90.3791 117.047 91.3796 117.641C92.3951 118.22 93.4579 118.796 94.5682 119.37L94.6594 119.272C93.9895 118.224 93.3286 117.214 92.6774 116.244C92.0262 115.274 91.3737 114.272 90.7201 113.239L85.0214 104.429L88.437 100.752L99.9566 120.403L95.9263 124.741Z" fill="#0F1B20"/>
<path d="M106.468 114.452C105.858 115.04 105.144 115.328 104.323 115.313C103.504 115.267 102.792 114.931 102.188 114.306C101.568 113.664 101.257 112.941 101.256 112.136C101.255 111.3 101.559 110.588 102.169 109.999C102.779 109.41 103.493 109.139 104.312 109.185C105.133 109.199 105.852 109.527 106.472 110.169C107.076 110.795 107.379 111.526 107.38 112.362C107.382 113.166 107.078 113.863 106.468 114.452Z" fill="#0F1B20"/>
<path d="M120.868 101.732C119.584 102.769 118.296 103.393 117.005 103.604C115.699 103.799 114.338 103.622 112.921 103.074L113.969 99.0463C114.744 99.3667 115.452 99.4975 116.092 99.4389C116.733 99.3803 117.27 99.1758 117.704 98.8257C118.398 98.2652 118.751 97.6365 118.762 96.9398C118.776 96.2118 118.327 95.2835 117.417 94.1556L108.526 83.1442L112.353 80.0547L121.496 91.3784C122.378 92.4718 122.993 93.6238 123.34 94.8344C123.687 96.045 123.67 97.2487 123.288 98.4454C122.924 99.6279 122.117 100.723 120.868 101.732Z" fill="#0F1B20"/>
<path d="M137.507 89.5634C135.143 91.1255 132.877 91.6204 130.708 91.0489C128.539 90.4772 126.446 88.6654 124.429 85.6136L117.973 75.8444L122.104 73.1143L128.837 83.3024C130.017 85.0887 131.111 86.157 132.118 86.5076C133.125 86.8579 134.14 86.6949 135.164 86.0186C136.187 85.3422 136.744 84.4662 136.835 83.3899C136.926 82.3139 136.381 80.8828 135.201 79.0964L128.467 68.9084L132.431 66.2891L138.887 76.0583C140.904 79.1098 141.76 81.7396 141.454 83.9466C141.167 86.1417 139.851 88.014 137.507 89.5634Z" fill="#0F1B20"/>
<path d="M148.799 81.9377L138.71 62.5968L144.168 59.7498C146.146 58.7182 148.032 58.162 149.826 58.0812C151.62 58.0006 153.284 58.4658 154.818 59.4773C156.361 60.4582 157.711 62.0564 158.866 64.2713C160.021 66.4861 160.58 68.5217 160.542 70.3779C160.504 72.2343 159.959 73.8898 158.907 75.3445C157.863 76.769 156.393 77.9764 154.494 78.9667L148.799 81.9377ZM151.318 76.133L152.148 75.6997C153.256 75.1221 154.112 74.424 154.716 73.6055C155.341 72.7769 155.643 71.789 155.623 70.6421C155.604 69.4949 155.191 68.1502 154.387 66.6077C153.582 65.0652 152.726 63.9774 151.817 63.3447C150.898 62.6921 149.93 62.4044 148.914 62.4817C147.907 62.5288 146.85 62.8412 145.742 63.4191L144.912 63.8521L151.318 76.133Z" fill="#0F1B20"/>
<path d="M176.147 69.3466C174.324 70.0749 172.549 70.2917 170.822 69.9968C169.115 69.6938 167.554 68.9125 166.138 67.6526C164.735 66.3638 163.594 64.6217 162.717 62.4261C161.832 60.2099 161.466 58.1824 161.62 56.3433C161.786 54.4753 162.392 52.8646 163.436 51.5105C164.493 50.1275 165.933 49.0722 167.755 48.3439C169.578 47.6156 171.339 47.3926 173.037 47.675C174.747 47.9285 176.296 48.6787 177.683 49.926C179.091 51.1652 180.233 52.8825 181.11 55.0778C181.987 57.2734 182.351 59.3261 182.201 61.2353C182.064 63.1156 181.471 64.7576 180.422 66.1612C179.395 67.5568 177.969 68.6186 176.147 69.3466ZM174.57 65.4008C175.958 64.8465 176.816 63.8072 177.144 62.2832C177.471 60.7591 177.23 58.9821 176.419 56.9522C175.608 54.9223 174.571 53.4992 173.308 52.6828C172.045 51.8662 170.72 51.7353 169.332 52.2897C167.944 52.844 167.074 53.8522 166.721 55.3142C166.368 56.7761 166.598 58.522 167.409 60.5519C168.22 62.5819 169.269 64.036 170.557 64.9148C171.844 65.7932 173.182 65.9554 174.57 65.4008Z" fill="#0F1B20"/>
<path d="M204.468 60.2585C202.695 60.7068 200.958 60.709 199.259 60.2649C197.559 59.8206 196.052 58.9133 194.739 57.5429C193.442 56.1454 192.496 54.2681 191.899 51.9114C191.309 49.5758 191.259 47.4717 191.752 45.5984C192.261 43.6983 193.162 42.1242 194.457 40.8764C195.768 39.6013 197.31 38.7397 199.083 38.2911C200.446 37.9464 201.738 37.9185 202.962 38.2071C204.18 38.4742 205.239 38.8851 206.138 39.4399L204.379 43.1287C203.713 42.7682 203.039 42.5131 202.357 42.3635C201.691 42.1869 200.98 42.1944 200.223 42.3857C199.271 42.6264 198.464 43.1183 197.801 43.8613C197.159 44.5987 196.729 45.5358 196.51 46.6725C196.313 47.8036 196.395 49.0828 196.756 50.5099C197.303 52.6723 198.195 54.2413 199.431 55.2172C200.667 56.1928 202.064 56.4837 203.621 56.0898C204.485 55.8711 205.204 55.4822 205.776 54.9236C206.369 54.3591 206.857 53.7411 207.239 53.0693L210.524 55.4131C209.276 57.9377 207.257 59.5527 204.468 60.2585Z" fill="#0F1B20"/>
<path d="M214.45 57.5484L210.962 36.0154L215.815 35.2285L218.642 52.6664L227.164 51.2858L227.828 55.3809L214.45 57.5484Z" fill="#0F1B20"/>
<path d="M238.957 54.7388C236.133 54.9588 233.911 54.2932 232.292 52.7416C230.67 51.19 229.72 48.5907 229.433 44.9439L228.523 33.2693L233.462 32.8844L234.409 45.0593C234.578 47.1941 235.014 48.6587 235.726 49.4534C236.438 50.2481 237.404 50.5979 238.627 50.5026C239.851 50.4071 240.761 49.9108 241.363 49.0139C241.965 48.1167 242.182 46.601 242.016 44.4662L241.066 32.2912L245.803 31.9219L246.713 43.5965C246.997 47.2434 246.47 49.9579 245.134 51.7403C243.817 53.5207 241.759 54.5201 238.957 54.7388Z" fill="#0F1B20"/>
<path d="M252.572 53.5525L253.073 31.7441L260.532 31.9157C262.047 31.9505 263.404 32.1491 264.601 32.5112C265.797 32.8512 266.745 33.4194 267.441 34.2162C268.137 35.0133 268.466 36.1142 268.436 37.5188C268.412 38.4778 268.134 39.4195 267.601 40.3442C267.09 41.2473 266.383 41.8557 265.484 42.1696L265.481 42.3035C266.589 42.619 267.502 43.209 268.217 44.0732C268.956 44.9158 269.309 46.0616 269.277 47.511C269.242 49.0051 268.835 50.2117 268.054 51.1308C267.275 52.0499 266.244 52.729 264.962 53.1679C263.683 53.5847 262.248 53.775 260.666 53.7386L252.572 53.5525ZM257.789 40.5872L260.096 40.6403C261.301 40.6681 262.176 40.454 262.722 39.9979C263.289 39.5423 263.584 38.9246 263.602 38.1441C263.621 37.2967 263.356 36.688 262.807 36.3187C262.259 35.949 261.402 35.7507 260.243 35.7242L257.901 35.6704L257.789 40.5872ZM257.577 49.8525L260.353 49.9162C263.051 49.9783 264.421 49.0281 264.467 47.0659C264.488 46.1069 264.17 45.4193 263.511 45.0025C262.85 44.5633 261.841 44.3283 260.482 44.297L257.706 44.233L257.577 49.8525Z" fill="#0F1B20"/>
</g>
<path d="M255.998 362.995C327.17 362.995 384.867 305.298 384.867 234.126C384.867 162.954 327.17 105.258 255.998 105.258C184.826 105.258 127.13 162.954 127.13 234.126C127.13 305.298 184.826 362.995 255.998 362.995Z" fill="#C22B26"/>
<path fill-rule="evenodd" clip-rule="evenodd" d="M326.925 147.43L288.819 143.674L256 165.133C239.317 176.522 233.771 195.241 239.008 221.056C232.483 230.248 222.639 232.8 213.647 237.054L212.996 207.661L205.973 206.881L212.736 182.951C212.736 182.951 221.06 143.284 221.58 142.113C222.1 140.942 231.595 95.8131 231.595 95.8131L239.528 67.9811L231.985 62.6489L242.389 47.5625L259.427 28.7043L278.936 14.5281L273.864 9.71606L251.755 5.81445L232.375 15.0483L216.378 20.6409L214.557 40.0193L209.225 57.5766L196.609 61.2182L191.017 76.695L174.191 154.233L168.501 169.88L161.795 173.741L150.822 157.687L106.521 126.393L95.3447 135.944L86.6066 109.729L85.1842 77.8248L75.2266 86.3598L69.5367 99.975L66.4884 108.307L60.3922 120.499L56.9375 129.237L60.189 136.35L72.1786 140.821L83.1519 151.185L77.2588 162.361L96.3607 172.115L123.591 188.779L139.035 221.294L135.987 250.624L152.041 271.08L173.785 283.883L197.967 320.664L159.357 356.835L163.217 366.387L148.993 378.782L137.207 384.878L143.303 400.934L147.773 417.19L171.346 426.334L174.801 415.971L168.908 407.232L168.095 390.771L174.191 380.206L187.4 387.115L231.903 343.424L261.368 349.112L290.429 343.424L284.333 382.238L290.227 387.52L278.032 418.816L290.021 425.115L317.051 428.976L337.371 430.6L336.355 418.816L318.472 412.718L309.733 400.728L311.968 389.755L323.349 386.91L335.541 348.302L349.36 299.528L341.029 295.872L334.728 296.48L330.259 289.979L342.653 279.819L357.896 257.262L367.853 234.126L372.12 206.661L369.683 186.34L379.843 170.896L371.917 145.698L346.717 140.008L336.557 147.43H326.925Z" fill="white"/>
<path d="M245.888 478.698C239.661 478.384 230.239 477.501 228.477 477.066C227.87 476.916 225.59 476.52 223.408 476.185C217.788 475.324 214.392 474.7 212.608 474.203C211.759 473.967 209.082 473.316 206.658 472.757C204.233 472.197 202.061 471.572 201.831 471.367C201.601 471.162 201.088 470.995 200.693 470.995C199.715 470.995 188.374 467.396 185.059 466.034C184.574 465.835 182.987 465.214 181.532 464.656C180.078 464.098 178.263 463.356 177.498 463.007C176.735 462.659 175.996 462.374 175.858 462.374C175.029 462.374 157.516 453.559 153.101 450.92C133.445 439.169 118.049 426.56 103.973 410.687C93.543 398.926 86.7149 389.514 79.0168 376.288C75.0368 369.449 68.4227 355.805 65.4846 348.373C49.434 307.77 46.1173 263.024 55.9758 220.085C57.2789 214.409 60.2207 203.776 61.481 200.19C65.1931 189.626 67.9992 182.83 72.2455 174.122C74.2901 169.929 75.9629 166.427 75.9629 166.34C75.9629 166.253 75.2685 165.76 74.42 165.245C72.0972 163.834 72.3156 162.506 75.743 157.192C77.3183 154.749 78.6081 152.508 78.6081 152.21C78.6081 151.397 73.798 146.978 70.3832 144.655C68.7245 143.526 65.23 141.524 62.6172 140.206C55.3767 136.553 53.0568 133.328 53.6169 127.697C53.895 124.898 54.8402 122.914 57.9673 118.561C60.5734 114.932 61.2655 113.257 64.2863 103.251C68.4825 89.3503 75.8994 76.7971 80.7641 75.3605C83.6572 74.5068 87.151 75.925 88.136 78.3525C88.6599 79.6423 88.7285 81.5585 88.5049 88.6449C88.1478 99.9488 88.8997 108.753 90.9325 117.089C91.5847 119.765 95.3707 127.525 96.023 127.525C96.3026 127.525 97.146 126.555 97.8964 125.37C99.4702 122.885 102.667 119.358 103.347 119.358C103.601 119.358 104.692 120.01 105.771 120.808L107.733 122.259L112.455 117.478C126.587 103.172 144.669 90.2556 164.562 80.2569C168.562 78.2463 172.232 76.4326 172.716 76.226C173.201 76.0194 174.491 75.4579 175.582 74.9791C176.673 74.5002 178.557 73.7313 179.77 73.2702C180.981 72.8098 189.244 69.5632 191.212 62.4156C192.126 59.0938 193.158 56.2589 193.575 55.9254C194.12 55.4893 195.945 55.3624 200.486 55.4436L206.658 55.5543L211.891 39.4114L211.114 33.8628C210.648 30.5402 210.462 27.6006 210.65 26.5359C211.237 23.2044 212.598 20.1866 214.258 18.5353C217.118 15.6916 219.116 14.8276 230.333 11.5832C237.602 9.48105 242.605 7.43867 247.036 4.76541C251.342 2.16668 253.69 1.76529 256.711 3.1104C258.307 3.82022 259.356 3.95672 261.828 3.77447C265.202 3.52655 267.447 4.06076 269.052 5.49294C269.767 6.13192 270.696 6.38058 272.366 6.38058C275.189 6.38058 278.045 7.58771 279.829 9.53418C281.032 10.8476 281.151 11.2563 281.151 14.0764C281.151 16.535 280.969 17.3842 280.27 18.1878C279.785 18.7448 275.917 21.5612 271.674 24.447C267.431 27.3327 262.435 30.8796 260.571 32.3295C256.256 35.6845 250.135 41.8869 246.606 46.4801C243.814 50.1155 238.836 57.6387 239.12 57.7937C239.206 57.8401 239.772 58.1847 240.378 58.5588C241.276 59.1137 244.384 59.2952 257.128 59.5394C274.463 59.8722 283.049 60.6499 296.138 63.0752C299.817 63.757 306.156 65.3227 313.77 67.4293C314.982 67.7643 316.866 68.2838 317.958 68.5833C319.048 68.8829 320.139 69.2784 320.381 69.4628C320.624 69.6466 321.51 69.9491 322.351 70.1343C323.191 70.3195 324.183 70.6316 324.555 70.8279C324.927 71.0241 327.015 71.8417 329.197 72.6445C331.379 73.4473 333.997 74.4854 335.014 74.9525C336.031 75.4188 336.96 75.8003 337.077 75.8003C337.767 75.8003 352.922 83.322 356.306 85.3452C357.397 85.9967 359.975 87.5123 362.036 88.712C371.175 94.0327 383.534 103.245 393.332 112.038C398.116 116.33 407.51 126.05 412.247 131.609C419.311 139.899 429.648 154.817 434.098 163.143C435.031 164.89 436.285 167.238 436.885 168.361C439.213 172.716 443.326 181.579 445.099 186.056C445.742 187.678 446.442 189.413 446.657 189.913C448.21 193.534 451.541 203.499 453.254 209.65C453.775 211.521 454.49 214.046 454.843 215.259C455.196 216.473 455.484 217.855 455.484 218.328C455.484 218.802 455.673 219.544 455.905 219.978C456.136 220.411 456.543 221.991 456.81 223.488C457.077 224.985 457.586 227.742 457.944 229.613C460.302 241.988 461.898 260.605 461.527 271.384C461.189 281.138 460.449 291.876 459.917 294.723C459.683 295.971 459.285 298.523 459.031 300.394C458.235 306.272 456.789 313.975 455.538 318.997C453.992 325.207 452.39 330.946 451.991 331.716C451.792 332.099 451.479 333.113 451.297 333.97C451.114 334.827 450.807 335.841 450.614 336.224C450.423 336.606 449.83 338.246 449.298 339.869C448.391 342.633 447.586 344.772 446.651 346.901C446.432 347.4 445.871 348.829 445.407 350.077C442.447 358.016 436.212 370.497 430.23 380.455C418.791 399.497 402.337 418.419 384.517 433.028C377.863 438.482 365.558 446.979 358.192 451.204C351.798 454.873 338.847 461.467 338.035 461.467C337.9 461.467 336.76 461.977 335.504 462.601C334.248 463.225 333.009 463.742 332.752 463.75C332.494 463.759 331.49 464.161 330.52 464.642C329.55 465.125 328.421 465.526 328.012 465.534C327.601 465.543 327.154 465.737 327.017 465.965C326.88 466.192 325.977 466.516 325.01 466.685C324.043 466.852 323.154 467.153 323.034 467.353C322.914 467.552 322.07 467.859 321.158 468.035C320.246 468.21 319.302 468.509 319.059 468.701C318.817 468.891 317.825 469.266 316.855 469.534C315.886 469.802 314.001 470.358 312.668 470.769C299.229 474.919 282.879 477.68 265.723 478.698C258.134 479.147 254.807 479.148 245.888 478.698ZM331.666 426.909C332.134 426.13 331.732 424.322 330.781 422.929C330.229 422.12 329.263 421.652 327.187 421.185C319.993 419.567 315.176 417.33 310.696 413.525C307.163 410.526 305.418 408.123 304.43 404.894C303.722 402.583 303.722 402.229 304.436 398.719C304.852 396.672 305.303 394.568 305.438 394.046C305.67 393.146 305.455 393.075 301.352 392.719C298.97 392.512 295.645 392.327 293.965 392.308L290.909 392.273L290.541 393.861C289.599 397.918 288.378 401.912 287.28 404.524C285.622 408.472 283.638 413.843 283.162 415.678C282.474 418.325 283.296 420.629 285.423 422.017C286.779 422.902 287.297 422.951 292.688 422.698C296.037 422.542 299.861 422.632 301.724 422.912C304.522 423.333 306.33 423.916 313.235 426.625C315.459 427.497 319.416 427.837 325.405 427.671C329.678 427.553 331.407 427.342 331.668 426.909H331.666ZM168.674 420.663C169.534 419.778 168.489 417.905 166.282 416.375C163.338 414.335 162.879 413.574 162.118 409.482C161.296 405.061 161.304 400.03 162.142 394.29C162.902 389.084 164.069 386.341 166.725 383.523C167.717 382.471 168.529 381.481 168.529 381.323C168.529 381.165 168.064 380.604 167.497 380.076C166.308 378.971 162.175 373.838 161.555 372.697C161.195 372.034 160.665 372.353 157.683 375.03C152.908 379.317 149.768 381.301 145.507 382.727C141.648 384.018 140.319 385.09 140.319 386.909C140.319 388.355 140.762 389.168 143.961 393.59C147.581 398.592 148.914 401.757 149.806 407.473C150.652 412.893 151.8 415.489 154.595 418.313C157.122 420.866 159.399 421.564 164.321 421.296C166.492 421.178 168.451 420.893 168.674 420.663ZM390.836 409.531C415.699 384.013 432.736 353.937 441.738 319.677C447.56 297.519 449.58 273.486 447.554 250.485C444.673 217.781 433.214 184.822 415.452 158.152C413.623 155.407 411.521 152.344 410.778 151.346C406.444 145.521 402.458 140.523 399.919 137.734C398.329 135.987 396.742 134.202 396.392 133.766C393.501 130.163 379.901 117.815 371.955 111.577C359.224 101.584 339.521 90.6423 323.908 84.8958C321.726 84.0923 319.637 83.2748 319.265 83.0785C318.894 82.8822 317.902 82.5701 317.061 82.3849C316.221 82.1997 315.334 81.8913 315.092 81.6987C314.85 81.5069 313.759 81.1328 312.668 80.8672C311.577 80.6015 309.494 80.0526 308.039 79.6475C295.001 76.0157 283.479 74.0693 269.25 73.096C261.846 72.5899 242.565 72.5021 241.865 72.9721C241.246 73.3868 237.482 84.8951 235.819 91.4539C235.692 91.9534 235.265 93.4845 234.87 94.8569C233.963 98.0098 233.007 101.637 232.242 104.839C231.914 106.212 231.314 108.56 230.909 110.057C230.166 112.804 230.016 113.543 228.701 120.946C227.375 128.409 226.688 132.696 226.05 137.507C224.64 148.134 224.262 152.002 223.425 155.202C215.179 186.721 210.405 203.297 210.405 203.297H213.185C217.199 203.297 217.419 203.593 216.915 208.288C216.687 210.41 215.536 217.852 215.386 222.831C215.12 231.693 215.132 231.882 216.001 231.882C216.49 231.882 219.197 230.681 222.018 229.213C224.839 227.745 227.496 226.434 227.922 226.299C228.349 226.164 230.085 225.531 231.783 224.894C233.48 224.255 235.237 223.729 235.689 223.724C236.397 223.716 236.299 222.6 236.2 222.013C235.722 219.169 233.375 211.272 232.818 206.658C232.327 202.578 231.897 198.324 232.863 194.33C234.123 189.122 236.683 181.105 240.378 175.415C244.114 169.663 251.341 162.962 255.28 159.816C259.077 156.784 263.929 152.785 268.809 150.163C275.343 146.654 285.156 139.581 294.485 138.762C304.7 137.867 329.223 144.036 330.104 144.788C330.947 145.509 331.513 145.002 334.726 140.659C341.621 131.334 348.744 127.086 357.571 127.033C361.97 127.007 363.021 127.154 366.444 128.274C372.974 130.411 379.38 135.719 383.064 142.044C388.651 151.64 389.027 161.745 384.179 171.99C382.53 175.474 381.499 176.954 378.809 179.704C376.979 181.575 374.935 183.493 374.268 183.964C372.903 184.93 372.793 185.885 373.739 188.551C374.093 189.55 374.683 193.093 375.051 196.426C375.65 201.876 375.648 203.199 375.026 209.584C374.646 213.488 374.232 216.988 374.108 217.362C373.982 217.737 373.601 219.574 373.259 221.446C371.951 228.609 371.385 232.579 369.303 237.78C363.902 251.269 361.329 261.567 341.76 285.209C340.881 286.27 340.558 286.806 339.089 288.363C337.621 289.92 336.1 291.662 335.711 292.234L335.003 293.275L336.949 292.954C344.385 292.68 344.365 293.004 348.078 295.578L350.208 297.341L352.094 296.372C354.428 295.172 357.739 294.676 359.696 296.286C362.613 298.687 367.895 305.648 369.599 310.774C371.302 315.9 370.713 323.565 369.917 327.044C368.31 334.063 365.924 338.028 361.689 343.097C353.665 352.701 340.399 353.598 338.013 353.314C334.734 352.923 335.087 352.299 333.176 361.874C332.777 363.87 332.262 366.321 332.031 367.318C331.8 368.317 331.108 371.788 330.492 375.032C328.313 386.522 327.254 390.632 326.344 391.133C324.848 391.957 319.565 392.954 316.696 392.954C313.809 392.954 312.668 393.416 312.668 394.584C312.668 394.901 314.262 395.448 316.525 395.91C320.432 396.706 334.418 399.398 347.542 403.089C361.216 406.934 374.016 411.785 376.582 412.79C380.573 414.353 383.952 415.574 384.37 415.604C384.653 415.624 387.562 412.891 390.836 409.531ZM128.534 411.376C134.925 408.307 137.834 406.996 138.81 406.744C139.402 406.59 142.328 403.398 137.886 397.264C134.175 392.139 133.288 390.193 133.276 387.151C133.254 381.98 135.776 379.474 144.791 375.712C148.564 374.138 151.823 371.486 155.002 367.403L157.055 364.766L156.01 362.64C154.14 358.837 153.88 357.162 154.895 355.471C155.381 354.661 155.957 353.932 156.173 353.852C156.389 353.772 157.621 352.686 158.912 351.438C160.202 350.19 162.845 347.742 164.784 345.997C166.722 344.253 168.408 342.712 168.529 342.571C168.65 342.432 172.518 338.858 177.124 334.629C181.731 330.4 187.177 325.28 189.227 323.252L192.954 319.564L188.014 314.21C185.298 311.265 183.075 308.649 183.075 308.397C183.075 308.145 160.653 280.202 155.618 277.642C151.299 275.446 150.437 274.927 147.782 272.926C137.707 265.331 132.892 257.564 131.902 247.308C131.197 240.001 132.232 231.849 134.656 225.615L135.594 223.206L133.721 217.923C132.69 215.017 131.394 211.61 130.84 210.351C130.287 209.092 129.207 206.636 128.44 204.895C126.381 200.216 124.54 197.603 119.999 192.915C115.885 188.669 112.856 186.289 108.802 184.121C105.513 182.362 87.5376 173.352 87.3177 173.352C86.7754 173.352 78.7453 190.809 76.5701 196.718C75.743 198.964 74.8841 201.21 74.6605 201.71C74.437 202.208 73.8253 204.046 73.3007 205.793C72.776 207.539 72.1725 209.377 71.9592 209.876C71.7453 210.376 71.3808 211.6 71.1491 212.599C70.2592 216.424 69.7036 218.53 69.3524 219.405C69.1525 219.904 68.7503 221.537 68.4596 223.034C68.1689 224.531 67.6428 227.084 67.2908 228.705C66.3582 232.998 65.4816 238.534 64.6316 245.494C63.2253 257.004 63.6576 286.328 65.3909 296.991C67.4414 309.608 68.5075 314.848 70.378 321.492C70.7292 322.74 71.4457 325.292 71.9703 327.164C72.4949 329.035 73.0867 330.88 73.2852 331.262C73.4844 331.645 73.7899 332.629 73.9647 333.448C74.1396 334.268 74.5602 335.487 74.8996 336.156C75.239 336.825 75.5179 337.631 75.5194 337.946C75.5209 338.262 75.712 338.874 75.9444 339.307C76.1768 339.741 77.3471 342.546 78.5446 345.54C82.5925 355.659 88.9816 368.029 95.3028 377.981C97.6787 381.722 104.71 391.563 106.65 393.861C107.176 394.485 108.638 396.221 109.898 397.718C111.159 399.215 114.793 403.264 117.973 406.716C124.46 413.755 124.002 413.552 128.534 411.376ZM174.701 396.861C189.512 393.771 260.998 389.453 272.115 390.382C277.085 390.798 281.399 391.138 281.702 391.139C282.005 391.139 282.253 390.652 282.253 390.055C282.253 389.162 281.904 388.864 280.27 388.368C278.071 387.699 278.035 387.591 278.752 383.828C279.007 382.484 279.503 379.7 279.853 377.641C280.204 375.582 280.8 372.111 281.179 369.927C282.346 363.203 283.173 357.477 283.439 354.274C283.727 350.813 283.582 350.69 280.609 351.872C275.838 353.768 265.557 354.742 257.716 354.039C250.909 353.43 243.681 352.048 240.598 350.767C240.114 350.566 237.994 349.837 235.887 349.148L232.057 347.894L224.411 355.338C220.206 359.431 215.087 364.313 213.036 366.184C210.984 368.056 207.9 370.915 206.183 372.536C204.466 374.158 201.598 376.813 199.809 378.435C198.021 380.057 194.231 383.681 191.387 386.489C188.543 389.296 185.912 391.593 185.54 391.593C184.559 391.593 180.306 389.588 177.301 387.709C174.325 385.848 173.619 385.909 171.666 388.199C170.103 390.031 169.417 392.279 169.413 395.572C169.411 397.81 169.474 397.949 170.403 397.756C170.948 397.643 172.882 397.241 174.701 396.861ZM318.884 384.361C320.893 383.84 320.918 383.811 321.47 381.248C322.317 377.324 323.083 373.684 324.117 368.68C324.632 366.184 325.233 363.428 325.45 362.555C326.627 357.849 327.725 352.056 327.537 351.556C327.419 351.242 326.405 350.637 325.284 350.212C323.258 349.445 319.646 347.113 314.726 343.397C312.168 341.466 312.137 341.456 308.554 341.518C304.788 341.583 300.969 342.721 294.506 345.707L291.646 347.027L291.352 349.913C290.986 353.502 289.986 360.956 289.11 366.638C288.744 369.009 288.151 372.888 287.792 375.259C287.434 377.63 287.011 380.307 286.852 381.209C286.502 383.21 286.434 383.184 295.257 384.348C302.196 385.264 315.378 385.272 318.884 384.361ZM190.009 377.473C210.546 358.395 214.696 354.492 219.313 349.911C222.171 347.075 224.507 344.624 224.503 344.466C224.499 344.308 222.661 343.19 220.417 341.981C215.362 339.259 207.804 333.969 202.273 329.282L198.079 325.729L192.647 330.643C187.243 335.532 170.226 351.19 165.273 355.831L162.679 358.262L164.238 361.736C167.069 368.044 171.208 373.42 176.139 377.194C179.404 379.694 183.955 382.513 184.499 382.374C184.676 382.329 187.156 380.123 190.009 377.473ZM273.658 345.089C276.514 344.364 282.14 342.385 285.013 341.096C285.832 340.729 286.141 340.327 285.957 339.869C285.808 339.494 285.124 337.452 284.44 335.331C281.236 325.41 277.419 314.848 275.093 309.469C272.814 304.197 268.948 296.311 268.642 296.311C268.455 296.311 267.262 297.629 265.992 299.242L263.682 302.172L264.818 304.167C266.724 307.517 269.205 315.856 268.278 315.8C268.085 315.787 266.44 313.922 264.622 311.652C261.084 307.237 256.515 303.379 252.941 301.791C251.728 301.252 250.191 300.565 249.524 300.265C248.857 299.964 248.374 299.513 248.452 299.262C248.53 299.011 250.067 297.904 251.869 296.801C254.378 295.265 257.261 292.611 264.192 285.458C269.168 280.322 274.394 274.748 275.804 273.073L278.368 270.025L277.443 268.688C276.108 266.759 272.489 263.513 269.101 261.206C265.49 258.747 259.374 255.256 257.453 254.557L256.026 254.038L244.497 265.76C226.823 283.728 224.341 287.572 224.318 296.991C224.306 302.343 225.39 306.079 228.971 313.031C232.025 318.957 238.933 329.176 242.74 333.396C243.469 334.203 243.939 334.992 243.787 335.149C242.934 336.027 232.18 328.985 228.067 324.855C221.9 318.662 218.015 311.412 215.933 302.209C215.07 298.394 215.081 295.493 215.972 291.802C217.723 284.546 222.335 277.939 233.61 266.537L239.946 260.13L236.798 258.427C232.166 255.922 224.876 250.786 221.827 247.88L219.159 245.337L216.875 246.162C202.771 251.254 191.11 263.121 181.543 282.119L179.437 286.303L180.442 288.853C182.98 295.29 191.616 307.343 199.605 315.6C214.773 331.275 235.057 342.586 254.043 345.955C256.855 346.455 270.685 345.843 273.658 345.089ZM296.046 337.01C297.416 336.404 297.419 335.929 296.076 330.113C295.08 325.796 292.02 314.841 291.198 312.645C291.057 312.271 290.504 310.716 289.968 309.191C288.595 305.287 288.057 304.029 285.544 298.846C282.484 292.534 278.131 284.53 277.752 284.521C277.395 284.512 273.401 288.814 272.855 289.797C272.624 290.213 272.884 291.138 273.577 292.359C276.008 296.644 277.071 298.77 279.442 304.105C283.453 313.127 286.768 321.797 290.252 332.382C291.239 335.377 292.13 337.972 292.234 338.149C292.417 338.462 293.495 338.141 296.046 337.01ZM306.576 333C306.576 333 308.292 332.609 309.48 332.609C310.667 332.609 311.757 332.487 311.901 332.339C312.046 332.19 311.782 331.425 311.315 330.637C310.194 328.745 310.2 325.812 311.328 324.565C312.655 323.099 313.848 323.727 315.295 326.656C316.502 329.101 318.03 330.866 320.771 332.987C322.592 334.394 325.859 334.345 327.51 332.884C328.486 332.019 328.736 331.412 328.736 329.908C328.736 328.117 328.532 327.819 324.853 324.264C321.464 320.989 320.988 320.342 321.116 319.187C321.262 317.875 321.288 317.864 323.908 317.957C325.362 318.008 328.358 318.181 330.566 318.339C334.159 318.598 334.778 318.524 336.484 317.628C338.713 316.458 342.711 312.689 343.999 310.543C344.494 309.719 345.363 307.828 345.929 306.341C346.829 303.977 346.881 303.526 346.345 302.737C345.488 301.478 341.566 298.58 340.719 298.58C340.332 298.58 338.916 299.192 337.572 299.94C336.228 300.689 334.807 301.302 334.415 301.302C334.024 301.302 332.827 300.469 331.755 299.453C329.688 297.492 326.734 295.884 325.167 295.867C324.648 295.861 323.23 296.776 322.017 297.899C318.707 300.961 317.886 300.556 318.255 296.038C318.355 294.816 318.236 293.509 317.992 293.135C317.402 292.231 313.957 292.322 311.345 293.308C310.254 293.721 308.122 294.186 306.606 294.343L303.851 294.627L303.856 297.398C303.862 300.96 304.608 303.73 306.921 308.78C308.968 313.25 308.923 314.131 306.637 314.37C305.536 314.483 304.726 313.95 301.642 311.08C298.308 307.978 296.798 307.021 296.798 308.012C296.798 308.208 297.371 310.097 298.072 312.209C298.772 314.32 299.682 317.273 300.095 318.77C300.508 320.267 301.1 322.412 301.411 323.535C301.722 324.658 302.336 327.459 302.775 329.761C303.56 333.876 303.591 333.941 304.703 333.668C305.325 333.516 306.168 333.215 306.576 333ZM296.301 285.2C295.854 282.983 295.398 282.114 293.822 280.468C289.395 275.846 289.25 272.868 293.214 267.959C295.106 265.614 295.276 264.883 293.987 264.626C292.849 264.399 290.359 266.58 289.004 268.989C287.415 271.815 285.064 275.31 283.508 277.157C282.818 277.977 282.253 278.876 282.253 279.156C282.253 279.436 283.738 282.073 285.553 285.016C287.368 287.96 289.849 292.407 291.066 294.9C293.232 299.336 293.315 299.436 294.929 299.573L296.579 299.714L296.714 293.815C296.794 290.303 296.628 286.818 296.301 285.2ZM308.779 287.191C311.482 286.481 315.068 283.696 318.763 279.437C319.723 278.331 319.747 278.171 319.131 276.96C318.284 275.294 315.37 271.81 314.824 271.81C314.592 271.81 314.281 272.167 314.131 272.603C313.533 274.347 312.103 275.44 310.417 275.44C308.987 275.44 308.537 275.159 307.128 273.39C304.934 270.633 301.592 269.054 299.91 269.981C299.085 270.436 296.799 273.476 296.799 274.119C296.799 274.275 297.886 275.146 299.214 276.054C302.47 278.279 303.411 280.232 303.411 284.763V288.223L305.285 287.92C306.315 287.754 307.887 287.425 308.779 287.191ZM338.915 277.141C348.131 267.613 353.291 260.013 357.323 250.031C363.259 235.334 365.964 224.342 367.599 208.272C368.318 201.214 368.319 200.477 367.622 195.838C366.55 188.711 366.033 188.416 363.037 193.226C360.479 197.333 358.022 198.233 354.294 196.43L352.291 195.461L351.103 196.605C349.678 197.977 347.397 199.213 346.293 199.213C345.852 199.213 343.313 201.477 340.65 204.244C334.953 210.165 328.351 216.191 323.089 220.277C316.196 225.628 305.878 231.427 299.224 233.69C297.527 234.267 295.719 234.896 295.206 235.088C294.495 235.354 294.209 235.956 294 237.629C293.39 242.51 293.231 242.094 295.697 242.064C302.005 241.986 309.175 240.186 315.36 237.127C325.286 232.218 328.169 229.896 347.136 211.535C348.517 210.198 349.863 209.178 350.128 209.269C350.667 209.454 346.873 217.417 344.236 221.637C343.312 223.114 341.007 225.951 339.111 227.942L335.665 231.56L335.378 234.784C335.22 236.557 334.793 239.103 334.43 240.443C333.564 243.643 333.794 244.133 336.167 244.133C339.456 244.133 347.737 247.694 346.763 248.69C346.557 248.901 344.901 249.277 343.082 249.526C334.458 250.709 331.488 251.663 329.134 254.007C328.442 254.696 326.21 257.359 324.176 259.924C322.141 262.49 320.097 264.863 319.633 265.197C318.836 265.772 318.944 265.988 321.608 269.147C325.304 273.534 327.719 276.972 329.671 280.627C330.595 282.356 331.555 283.606 331.961 283.606C332.346 283.606 335.475 280.697 338.915 277.141ZM169.554 268.52C173.612 260.145 180.636 251.303 187.594 245.81C190.998 243.122 190.897 243.814 188.994 236.165C187.581 230.492 186.777 228.096 185.02 224.331L183.508 221.09L180.757 221.956C176.902 223.168 167.396 228.104 162.007 231.692C159.511 233.354 157.388 234.631 157.291 234.53C156.881 234.109 162.023 227.688 166.325 223.25C175.666 213.612 185.416 207.995 197.401 205.346C199.34 204.918 201.225 204.414 201.589 204.226C201.952 204.038 202.606 202.476 203.042 200.755C204.837 193.667 206.587 187.529 208.685 180.971C215.617 159.307 215.629 159.254 218.549 137.507C219.495 130.46 220.477 124.322 221.272 120.492C221.634 118.746 222.229 115.887 222.593 114.14C223.474 109.911 225.683 100.597 227.005 95.5379C228.851 88.4693 232.133 77.1734 233.37 73.628C233.83 72.3088 234.207 71.1378 234.207 71.0256C234.207 70.4494 223.622 66.6819 219.631 65.8363C214.71 64.7944 206.963 63.8603 202.911 63.819L198.724 63.7769L197.116 68.7678C196.232 71.5126 195.071 75.2904 194.536 77.1616C194.001 79.0336 193.271 81.4833 192.915 82.6063C191.192 88.0273 187.054 104.219 185.319 112.326C184.785 114.821 184.161 117.68 183.933 118.678C183.526 120.452 182.735 124.564 181.75 130.021C180.494 136.974 179.103 147.181 179.373 147.459C179.486 147.575 181.605 145.618 184.082 143.109C189.295 137.83 197.262 131.542 197.903 132.201C198.181 132.488 196.266 135.335 190.941 142.55C174.651 164.621 172.508 167.63 166.853 176.367C160.603 186.025 157.457 191.53 152.888 200.802C144.255 218.321 140.715 227.957 139.679 236.756C138.581 246.077 140.015 252.643 144.439 258.562C148.687 264.245 154.159 268.025 165.443 273.071C166.05 273.341 166.666 273.577 166.814 273.594C166.96 273.611 168.194 271.328 169.554 268.52ZM314.907 260.05C317.783 255.836 327.141 242.667 327.737 238.813C327.861 238.012 326.08 238.835 325.33 239.142C321.583 240.671 308.94 246.266 305.249 247.986C304.481 248.343 302.911 248.364 303.178 249.46C303.332 250.091 308.534 262.331 310.489 264.096C311.971 265.434 313.782 261.699 314.907 260.05ZM280.518 252.943C281.48 251.659 283.117 248.896 284.155 246.804C289.253 236.525 288.723 231.182 281.847 223.553C280.055 221.565 277.109 219.485 276.57 219.828C276.372 219.954 276.099 221.646 275.962 223.588C275.79 226.056 275.288 228.21 274.296 230.748C271.89 236.897 270.991 237.345 267.451 234.157C266.116 232.954 264.517 231.839 263.898 231.68C262.688 231.367 261.536 232.047 261.536 233.074C261.536 234.076 263.533 238.062 264.974 239.933C266.65 242.112 267.363 244.833 267.186 248.373L267.046 251.158L269.476 252.523C270.812 253.274 272.986 254.649 274.306 255.58L276.705 257.272L277.737 256.275C278.304 255.726 279.556 254.227 280.518 252.943ZM247.339 252.622C248.359 251.552 250.903 248.131 251.584 247.195C252.625 245.768 253.087 245.494 254.447 245.494C255.34 245.494 257.751 246.493 258.781 246.663C260.549 246.953 260.653 246.91 260.622 245.892C260.605 245.298 260.208 244.2 259.741 243.451C259.273 242.703 258.642 241.58 258.339 240.956C256.639 237.465 256.423 237.327 252.696 237.327C250.799 237.327 249.15 237.487 249.033 237.682C248.758 238.139 249.948 242.171 250.093 243.332C250.655 247.812 231.965 245.512 230.57 245.398C227.728 245.167 227.243 245.752 229.365 246.854C230.085 247.229 233.403 248.937 236.738 250.651C240.073 252.365 243.1 253.935 243.464 254.141C244.729 254.857 245.496 254.556 247.339 252.622ZM202.808 235.54C205.054 234.526 207.087 233.697 207.326 233.697C207.578 233.697 207.765 231.94 207.773 229.5C207.782 227.191 208.06 222.138 208.395 218.27C208.728 214.402 208.959 211.192 208.908 211.137C208.673 210.887 199.76 212.712 196.96 213.585C193.012 214.814 192.274 215.192 192.522 215.856C192.651 216.204 193.072 217.655 193.455 219.081C193.839 220.506 194.322 222.184 194.529 222.807C194.876 223.856 195.935 228.801 197.184 235.204C197.514 236.899 197.882 237.763 198.211 237.615C198.493 237.487 200.562 236.553 202.808 235.54ZM251.607 229.417C255.249 228.848 255.669 228.673 256.897 227.214C257.63 226.343 258.663 225.403 259.193 225.126C260.486 224.449 264.02 224.523 266.049 225.267C267.674 225.865 267.705 225.854 268.363 224.497C270.921 219.217 266.172 201.009 260.508 194.386L258.816 192.408H260.639C261.641 192.408 263.096 192.742 263.872 193.15C265.416 193.963 268.721 196.504 268.958 197.06C269.04 197.252 269.475 197.612 269.926 197.861C270.714 198.295 270.735 198.014 270.479 190.356C270.25 183.487 270.302 182.435 270.859 182.654C271.754 183.009 274.533 188.106 275.449 191.076C275.867 192.432 276.365 193.721 276.556 193.941C277.106 194.576 289.217 181.725 292.612 176.903C295.612 172.642 297.168 171.063 296.676 172.777C296.55 173.218 295.918 175.416 295.274 177.662C292.256 188.165 286.18 197.737 278.654 203.838C276.755 205.378 275.247 206.712 275.2 206.76C271.428 210.66 285.884 219.656 292.314 215.105C296.406 212.207 305.479 208.64 306.683 207.708C307.565 207.025 308.683 203.854 308.694 202.001C308.711 199.497 313.664 178.939 316.006 171.662C318.201 164.84 321.513 156.035 323.115 152.765C323.711 151.549 324.033 150.389 323.832 150.186C323.149 149.494 316.403 147.784 307.819 146.126C302.209 145.043 300.807 145.017 296.937 145.925C284.2 148.916 265.742 159.705 253.932 171.063C247.635 177.119 242.73 185.061 241.075 191.878C239.599 197.962 240.466 207.663 243.475 218.724C243.899 220.28 245.974 227.706 246.425 229.273C246.692 230.209 246.559 230.206 251.607 229.417ZM297.324 227.515C307.396 223.794 316.577 218.069 325.892 209.698C330.877 205.218 336.913 199.112 336.898 198.565C336.889 198.298 336.031 197.547 334.988 196.896L333.092 195.714L330.704 197.955C324.932 203.372 318.687 208.203 311.786 212.588C307.203 215.501 293.905 222.339 292.806 222.348C292.428 222.35 291.759 222.624 291.319 222.955C290.556 223.529 290.569 223.637 291.598 225.337C292.191 226.316 292.804 227.475 292.961 227.912C293.329 228.941 293.509 228.925 297.324 227.515ZM142.148 205.339C145.49 196.548 149.993 187.681 154.955 180.121C156.36 177.979 157.509 175.938 157.509 175.584C157.509 174.17 154.857 169.309 152.333 166.092C148.135 160.742 143.552 157.115 129.393 147.934C123.527 144.13 111.912 135.812 107.742 132.429C104.584 129.867 104.45 129.806 103.618 130.581C102.582 131.545 94.7885 142.071 91.0144 147.603C89.5239 149.786 87.1148 153.316 85.6605 155.447C84.2055 157.577 83.016 159.408 83.016 159.516C83.016 159.841 99.8886 170.629 100.396 170.629C100.475 170.629 102.101 171.513 104.009 172.594C105.918 173.674 109.85 175.843 112.746 177.414C120.401 181.565 124.826 184.721 128.362 188.554C131.681 192.149 133.691 195.762 137.198 204.431C138.207 206.927 139.244 209.479 139.5 210.103C139.965 211.231 139.971 211.227 140.626 209.422C140.989 208.424 141.673 206.587 142.148 205.339ZM320.21 197.511C322.055 196.077 324.868 193.678 326.461 192.181L329.357 189.459L328.71 186.963C327.847 183.641 327.845 181.519 328.701 179.814C330.207 176.819 332.42 177.695 333.395 181.675C334.14 184.714 335.216 187.55 336.143 188.917C338.106 191.81 342.636 193.445 345.4 192.256C346.188 191.917 347.589 190.69 348.514 189.528C350.507 187.025 351.614 186.851 354.721 188.551C355.861 189.175 357.034 189.685 357.326 189.685C358.074 189.685 358.714 188.491 359.55 185.531C360.179 183.302 360.493 182.862 362.013 182.088L363.755 181.202L361.684 179.431C358.658 176.846 356.747 174.739 356.747 173.99C356.747 173.628 357.261 173.091 357.889 172.797C358.858 172.342 359.32 172.42 360.963 173.317C362.027 173.898 363.907 175.37 365.141 176.588L367.386 178.804L369.74 177.196C373.768 174.444 373.852 174.874 368.131 168.9C365.337 165.983 362.1 162.321 360.937 160.761C359.773 159.201 358.611 157.924 358.354 157.924C358.097 157.924 357.184 158.626 356.325 159.484C352.374 163.43 347.155 164.823 343.506 162.906C341.302 161.749 341.191 160.262 343.107 157.579C345.389 154.386 345.432 150.64 343.197 149.872C339.411 148.574 333.804 154.191 333.833 159.253C333.841 160.748 334.268 161.406 335.364 161.62C336.655 161.873 336.664 163.064 335.386 164.627C332.529 168.122 328.764 166.882 328.468 162.348C328.406 161.412 328.15 160.652 327.896 160.657C327.404 160.668 324.126 169.093 321.985 175.847C320.719 179.842 316.977 195.048 316.43 198.419C316.279 199.356 316.312 200.121 316.505 200.12C316.698 200.12 318.366 198.946 320.21 197.511ZM164.323 166.886C164.782 166.075 170.228 158.242 170.687 157.727C171.385 156.945 171.562 155.822 171.768 150.892C171.903 147.648 172.319 143.054 172.693 140.683C173.065 138.312 173.594 134.944 173.868 133.197C175.75 121.195 179.215 105.278 183.624 88.3748C183.871 87.4304 183.951 86.5331 183.803 86.3811C183.046 85.6012 167.719 92.9377 157.526 98.9609C148.91 104.051 136.907 112.605 131.062 117.818C130.456 118.358 128.373 120.2 126.434 121.912C124.494 123.623 121.846 126.096 120.549 127.405L118.19 129.787L120.549 131.731C121.846 132.8 123.335 133.976 123.859 134.343C124.382 134.711 126.465 136.228 128.487 137.715C130.51 139.203 134.941 142.347 138.335 144.703C141.729 147.058 145.994 150.026 147.812 151.296C153.804 155.483 161.129 163.599 162.497 167.567C162.898 168.727 163.386 168.546 164.323 166.886ZM87.0558 140.573C89.076 137.767 90.973 135.136 91.2704 134.726C91.7227 134.102 91.5427 133.62 90.1688 131.774C88.2703 129.224 87.2395 127.49 86.2936 125.257C85.9239 124.383 85.4465 123.26 85.2333 122.761C82.8175 117.102 81.6067 106.68 81.7801 93.0536C81.8539 87.3072 81.7816 82.6055 81.6207 82.6063C80.6062 82.6077 75.3895 91.8841 73.5833 96.8985C73.1332 98.1463 72.5075 99.7799 72.1924 100.529C71.7047 101.686 69.6284 108.236 67.949 113.914C67.0363 117 65.7443 119.465 63.1544 123.06C58.7605 129.16 59.4976 130.885 68.4308 135.4C74.9918 138.716 78.1196 140.792 80.7929 143.606C81.8738 144.743 82.8987 145.675 83.0699 145.675C83.2418 145.675 85.0348 143.378 87.0558 140.573ZM230.674 57.7575C233.232 51.6768 241.324 40.7735 248.541 33.6805C253.313 28.9907 258.003 25.5516 267.11 20.0641C273.849 16.003 275.427 14.6947 274.689 13.7791C274.148 13.1084 272.095 13.1416 268.071 13.8861C266.536 14.1694 266.392 14.0882 265.311 12.3247C263.932 10.0765 262.497 9.87876 260.035 11.5987C259.142 12.2222 258.021 12.7328 257.545 12.7328C256.71 12.7328 256.434 12.4826 254.548 10.013L253.684 8.88117L251.77 9.91417C250.717 10.4816 248.467 11.7455 246.77 12.7217C242.985 14.8991 234.659 17.7886 228.543 19.0466C223.482 20.0877 220.103 21.7088 218.667 23.7844C217.507 25.4623 217.194 28.9191 217.904 32.2432C218.681 35.883 218.922 40.3013 218.42 41.6936C216.296 47.5743 213.837 56.3762 214.211 56.7599C214.451 57.0078 216.223 57.5052 218.146 57.8645C220.071 58.2238 223.033 58.9086 224.73 59.3845C229.46 60.7126 229.426 60.7222 230.674 57.7575Z" fill="#0F1B20"/>
</g>
<defs>
<clipPath id="clip0_6027_176">
<rect width="512" height="512" fill="white"/>
</clipPath>
<clipPath id="clip1_6027_176">
<rect width="474.823" height="474.823" fill="white" transform="translate(18.498 31.7441)"/>
</clipPath>
</defs>
</svg>
