<svg width="64" height="64" viewBox="0 0 64 64" fill="none" xmlns="http://www.w3.org/2000/svg">
<g clip-path="url(#clip0_6027_173)">
<g clip-path="url(#clip1_6027_173)">
<path d="M37.4239 6.7995C37.224 6.76173 37.0626 6.69066 36.9396 6.58627C36.8172 6.47918 36.7248 6.33728 36.6631 6.16054L37.125 5.93721C37.157 6.03556 37.2012 6.11247 37.2579 6.16796C37.3144 6.22342 37.3767 6.25754 37.444 6.2703C37.5522 6.29073 37.6393 6.27364 37.7056 6.219C37.7753 6.16219 37.8264 6.04599 37.8597 5.87037L38.1837 4.15625L38.7792 4.26882L38.4463 6.03157C38.414 6.20178 38.3549 6.3515 38.2688 6.48073C38.183 6.61 38.0686 6.70449 37.9257 6.76427C37.7858 6.82451 37.6182 6.83626 37.4239 6.7995Z" fill="#0F1B20"/>
<path d="M39.8956 7.39099C39.5604 7.29343 39.3331 7.11993 39.214 6.87047C39.0946 6.62102 39.0982 6.27981 39.2239 5.84688L39.6274 4.46094L40.2133 4.63148L39.7927 6.07681C39.7191 6.33022 39.7059 6.51825 39.7531 6.64085C39.8006 6.76344 39.8969 6.84586 40.0421 6.88809C40.1873 6.93035 40.314 6.91283 40.4225 6.83557C40.5307 6.7583 40.6218 6.59297 40.6957 6.33953L41.1163 4.89423L41.6785 5.05784L41.2754 6.44378C41.1493 6.87671 40.9702 7.16681 40.7386 7.31412C40.5093 7.46216 40.2282 7.48779 39.8956 7.39099Z" fill="#0F1B20"/>
<path d="M41.5176 7.84706L42.5331 5.35742L43.2358 5.64406C43.4905 5.74792 43.6928 5.88104 43.8435 6.04343C43.994 6.20579 44.0827 6.39939 44.1098 6.62423C44.1405 6.84756 44.0976 7.10176 43.9811 7.38688C43.865 7.67197 43.7178 7.88669 43.5403 8.03096C43.3625 8.17527 43.1636 8.25584 42.9429 8.2727C42.7258 8.28807 42.4951 8.24588 42.2507 8.14617L41.5176 7.84706ZM42.2642 7.62169L42.3711 7.66531C42.5136 7.72347 42.6476 7.74838 42.7726 7.74003C42.9003 7.73274 43.0174 7.6825 43.1237 7.58929C43.2299 7.49609 43.3236 7.3502 43.4047 7.15162C43.4856 6.95307 43.5196 6.78583 43.507 6.64993C43.4951 6.5115 43.445 6.39757 43.3569 6.30813C43.2721 6.21717 43.1586 6.14261 43.0161 6.08444L42.9092 6.04083L42.2642 7.62169Z" fill="#0F1B20"/>
<path d="M44.8794 9.41666C44.6656 9.30323 44.504 9.15354 44.3941 8.9676C44.2865 8.78297 44.2357 8.57386 44.2417 8.34031C44.2509 8.10564 44.3238 7.85958 44.4604 7.60217C44.5987 7.34232 44.76 7.14638 44.9454 7.01438C45.1345 6.88125 45.3341 6.80986 45.5445 6.80023C45.759 6.78947 45.9728 6.84081 46.1866 6.95423C46.4004 7.06766 46.5614 7.2155 46.6702 7.39772C46.7828 7.57878 46.8355 7.78426 46.8286 8.01408C46.8243 8.24519 46.7537 8.48947 46.6171 8.74688C46.4802 9.00428 46.3162 9.20201 46.1249 9.34001C45.9368 9.47687 45.7352 9.55189 45.5198 9.56509C45.3067 9.57957 45.0932 9.53012 44.8794 9.41666ZM45.1249 8.95404C45.2879 9.04041 45.4538 9.0383 45.6234 8.94773C45.7927 8.85717 45.9408 8.69287 46.0671 8.45489C46.1932 8.21692 46.2446 8.006 46.2209 7.82217C46.1971 7.63833 46.1038 7.50323 45.9411 7.41685C45.7785 7.33048 45.6142 7.32893 45.4485 7.41223C45.2829 7.49551 45.1371 7.65615 45.0107 7.89416C44.8844 8.13213 44.8309 8.34668 44.851 8.5378C44.8708 8.72893 44.9622 8.86766 45.1249 8.95404Z" fill="#0F1B20"/>
<path d="M47.9893 11.3541C47.8055 11.2233 47.6669 11.0603 47.5729 10.8651C47.4792 10.67 47.4442 10.456 47.4683 10.2233C47.496 9.98998 47.597 9.75128 47.7708 9.5072C47.9431 9.26537 48.1371 9.09288 48.3522 8.98972C48.5712 8.88589 48.7913 8.84504 49.0117 8.86715C49.236 8.88863 49.4403 8.96474 49.6237 9.09559C49.7649 9.19608 49.8705 9.31532 49.9411 9.45333C50.013 9.58906 50.0589 9.72132 50.0787 9.85009L49.5917 9.97916C49.5726 9.88777 49.5425 9.80407 49.5023 9.72805C49.4657 9.65141 49.4083 9.58516 49.3297 9.52931C49.2314 9.45913 49.1206 9.42251 48.9978 9.41944C48.8774 9.41799 48.755 9.45234 48.631 9.52248C48.5089 9.5942 48.3951 9.70397 48.2898 9.85177C48.1305 10.0757 48.0543 10.2846 48.0612 10.4786C48.0681 10.6726 48.1522 10.8271 48.3132 10.9419C48.403 11.0057 48.4967 11.0422 48.595 11.0514C48.6953 11.0621 48.7923 11.0586 48.886 11.041L48.9276 11.5366C48.591 11.6208 48.2779 11.5599 47.9893 11.3541Z" fill="#0F1B20"/>
<path d="M49.0449 12.0786L50.7879 10.0312L51.2498 10.4243L49.8381 12.0822L50.648 12.772L50.3165 13.1614L49.0449 12.0786Z" fill="#0F1B20"/>
<path d="M51.2629 14.1501C51.0165 13.9027 50.9013 13.641 50.9175 13.3649C50.9337 13.0889 51.1013 12.7918 51.421 12.4736L52.4437 11.4551L52.8743 11.8875L51.8076 12.9498C51.6206 13.136 51.5183 13.2942 51.5005 13.4245C51.4827 13.5547 51.5272 13.6734 51.6341 13.7805C51.7407 13.8876 51.8601 13.9336 51.9924 13.9183C52.1247 13.903 52.2844 13.8023 52.4711 13.616L53.5378 12.5538L53.9512 12.9687L52.9284 13.9873C52.6087 14.3055 52.3121 14.473 52.0379 14.49C51.7657 14.5089 51.5074 14.3956 51.2629 14.1501Z" fill="#0F1B20"/>
<path d="M52.4639 15.3352L54.5516 13.6406L55.131 14.3547C55.2488 14.4998 55.3385 14.643 55.4002 14.7843C55.4639 14.9238 55.486 15.0581 55.4668 15.187C55.4474 15.316 55.3705 15.435 55.2362 15.5442C55.1445 15.6187 55.0336 15.6678 54.9043 15.6915C54.7786 15.7155 54.6651 15.6979 54.5638 15.6385L54.551 15.6489C54.6097 15.7782 54.6272 15.9109 54.6034 16.0472C54.5833 16.1839 54.5038 16.3086 54.3652 16.4212C54.222 16.5373 54.0762 16.5954 53.9277 16.5956C53.7793 16.5958 53.6331 16.5533 53.4896 16.468C53.3481 16.381 53.2158 16.2617 53.0927 16.1101L52.4639 15.3352ZM54.098 14.7897L54.2771 15.0106C54.3708 15.1259 54.4609 15.1909 54.547 15.2058C54.6354 15.2228 54.7166 15.2009 54.7915 15.1403C54.8726 15.0744 54.9086 15.001 54.8994 14.9199C54.8901 14.8388 54.8406 14.7428 54.7506 14.6317L54.5685 14.4076L54.098 14.7897ZM53.2108 15.5096L53.4266 15.7754C53.6364 16.0337 53.835 16.0866 54.0228 15.9341C54.1148 15.8596 54.1537 15.7747 54.1402 15.6795C54.1287 15.5826 54.0703 15.469 53.9647 15.3387L53.7489 15.073L53.2108 15.5096Z" fill="#0F1B20"/>
<path d="M54.8833 18.682C54.7892 18.5334 54.7229 18.3671 54.6843 18.1831C54.6474 18.0015 54.6457 17.8188 54.6791 17.635L55.2162 17.7047C55.198 17.8301 55.1987 17.9568 55.2175 18.0846C55.237 18.2124 55.2759 18.3228 55.3346 18.4157C55.4022 18.5225 55.4722 18.589 55.5438 18.6151C55.6174 18.6435 55.6876 18.6363 55.7549 18.5937C55.8269 18.5481 55.8602 18.4848 55.8542 18.4038C55.8523 18.3237 55.8407 18.2204 55.8193 18.0941L55.7572 17.7185C55.7411 17.6212 55.7378 17.5209 55.747 17.4173C55.7586 17.3124 55.7909 17.2121 55.8443 17.1164C55.8978 17.0208 55.979 16.9384 56.0882 16.8693C56.2135 16.7898 56.3488 16.7514 56.4936 16.754C56.6398 16.759 56.7813 16.8027 56.9182 16.8852C57.0568 16.9701 57.1759 17.0915 57.2759 17.2494C57.3584 17.3795 57.4151 17.5257 57.4465 17.6882C57.4778 17.8506 57.4755 18.0115 57.4399 18.1708L56.9502 18.1148C56.9611 18.0037 56.9582 17.9014 56.9413 17.8079C56.9268 17.713 56.8909 17.6203 56.8335 17.5297C56.7777 17.4414 56.714 17.3824 56.6431 17.3525C56.5758 17.3234 56.5098 17.3295 56.4448 17.3707C56.3752 17.4149 56.3435 17.4805 56.3498 17.5676C56.3577 17.657 56.3729 17.763 56.395 17.8856L56.462 18.2532C56.493 18.4256 56.4854 18.5833 56.4395 18.7264C56.3933 18.8695 56.2904 18.9918 56.1301 19.0933C56.0047 19.1727 55.8671 19.2126 55.7177 19.2129C55.5682 19.2133 55.4204 19.1701 55.2742 19.0836C55.1284 18.997 54.9981 18.8632 54.8833 18.682Z" fill="#0F1B20"/>
<path d="M55.6797 19.9178L58.0416 18.6328L58.3316 19.1653L55.9694 20.4503L55.6797 19.9178Z" fill="#0F1B20"/>
<path d="M56.2773 21.008L58.7293 19.9043L58.985 20.4722L58.0543 21.6599L57.6211 22.1444L57.6277 22.1594C57.7538 22.0907 57.893 22.0115 58.0454 21.9217C58.1978 21.8319 58.347 21.7543 58.4925 21.6889L59.3572 21.2995L59.5944 21.826L57.1424 22.9297L56.8867 22.3618L57.8211 21.1724L58.247 20.6913L58.2401 20.6763C58.1104 20.7498 57.9712 20.829 57.8224 20.914C57.6749 21.0015 57.5284 21.078 57.3829 21.1435L56.5142 21.5345L56.2773 21.008Z" fill="#0F1B20"/>
<path d="M57.3096 23.3637L57.657 23.2452L59.754 23.7854L59.4066 22.7665L59.8906 22.6016L60.4785 24.3269L60.1311 24.4453L58.0344 23.9052L58.4217 25.0411L57.9374 25.2061L57.3096 23.3637Z" fill="#0F1B20"/>
<path d="M58.0703 25.6491L60.6863 25.0273L60.8265 25.6171L59.8192 25.8565L60.0337 26.7592L61.0409 26.5199L61.1822 27.1137L58.5662 27.7355L58.425 27.1417L59.5164 26.8823L59.3016 25.9795L58.2102 26.2389L58.0703 25.6491Z" fill="#0F1B20"/>
<path d="M58.6719 28.3595L61.336 27.9941L61.5643 29.6611L61.0579 29.7307L60.9117 28.6644L60.3763 28.7376L60.5006 29.6446L59.9982 29.7135L59.8738 28.8066L59.2608 28.8904L59.4126 29.9979L58.9061 30.0672L58.6719 28.3595Z" fill="#0F1B20"/>
<path d="M58.9443 30.6045L61.6263 30.4102L61.6702 31.0149L58.9882 31.2089L58.9443 30.6045Z" fill="#0F1B20"/>
<path d="M59.0472 31.8418L61.7361 31.8665L61.7301 32.5303L60.5302 32.9523C60.453 32.9794 60.3715 33.0048 60.286 33.0285C60.2006 33.0526 60.1165 33.078 60.0337 33.1047V33.1212C60.1158 33.1496 60.1996 33.175 60.2847 33.1978C60.3695 33.2232 60.4503 33.2499 60.5272 33.2783L61.7192 33.7141L61.7133 34.3736L59.0244 34.3492L59.0294 33.7966L60.0152 33.8055C60.1029 33.8065 60.2006 33.8114 60.3078 33.8207C60.4177 33.8326 60.5275 33.8448 60.6374 33.8566C60.7473 33.8715 60.8446 33.8834 60.9297 33.8923L60.9301 33.8758L60.2926 33.6514L59.2695 33.2585L59.2725 32.9246L60.3029 32.5505L60.9439 32.3416L60.9442 32.3251C60.8588 32.3354 60.7611 32.3456 60.6509 32.3555C60.5411 32.3657 60.4309 32.3743 60.3207 32.3816C60.2135 32.3915 60.1158 32.3961 60.028 32.3954L59.0422 32.3862L59.0472 31.8418Z" fill="#0F1B20"/>
<path d="M58.7155 36.6556C58.7426 36.4623 58.8092 36.2937 58.9151 36.1505C59.0214 36.007 59.1596 35.9014 59.3298 35.8334C59.5004 35.7655 59.6974 35.7473 59.9207 35.7783C60.1411 35.8093 60.3242 35.8806 60.4694 35.9924C60.6146 36.1069 60.7191 36.2438 60.7828 36.4025C60.8495 36.5619 60.8716 36.7216 60.8491 36.8823C60.8224 37.0756 60.7564 37.229 60.6518 37.3418C60.5496 37.4583 60.4206 37.5375 60.2648 37.5794C60.1114 37.6246 59.9422 37.6345 59.7568 37.6087C59.7053 37.6015 59.6538 37.5916 59.6027 37.5787C59.5545 37.5665 59.5185 37.556 59.4948 37.547L59.664 36.3339C59.5133 36.3405 59.3958 36.3867 59.3117 36.4722C59.2302 36.5579 59.1804 36.6675 59.1616 36.8011C59.1414 36.9453 59.1662 37.0974 59.2355 37.2567L58.8442 37.4062C58.7878 37.293 58.7478 37.1693 58.7251 37.0357C58.702 36.902 58.699 36.7754 58.7155 36.6556ZM60.0609 36.3851L59.9587 37.1162C60.0705 37.1317 60.1655 37.1172 60.2437 37.0726C60.3246 37.0314 60.3734 36.9505 60.3902 36.8308C60.4031 36.7381 60.382 36.6506 60.3269 36.5678C60.2744 36.4857 60.1857 36.4246 60.0609 36.3851Z" fill="#0F1B20"/>
<path d="M58.4461 38.1991C58.4672 38.0968 58.52 38.0176 58.6041 37.9618C58.6909 37.9094 58.7866 37.8942 58.8915 37.9157C58.9994 37.9378 59.0812 37.9899 59.1376 38.0714C59.1957 38.1565 59.2145 38.2502 59.1934 38.3525C59.1726 38.4547 59.1188 38.532 59.032 38.5844C58.9479 38.6402 58.8516 38.657 58.744 38.6349C58.6388 38.6131 58.5573 38.56 58.4989 38.4752C58.4428 38.3934 58.425 38.3013 58.4461 38.1991Z" fill="#0F1B20"/>
<path d="M58.2561 39.2706L61.0631 39.1699L60.8994 39.7918L59.6051 39.7836C59.4537 39.7865 59.3062 39.7846 59.163 39.7783C59.0188 39.7743 58.87 39.7734 58.716 39.7757L58.7117 39.7915C58.8453 39.8664 58.976 39.938 59.1033 40.0056C59.2303 40.0733 59.3597 40.1442 59.4906 40.2184L60.6223 40.8446L60.4646 41.4431L58.0703 39.9766L58.2561 39.2706Z" fill="#0F1B20"/>
<path d="M57.7082 41.0004C57.7402 40.9007 57.8012 40.8281 57.8913 40.782C57.983 40.7394 58.08 40.7348 58.1819 40.7678C58.2865 40.8014 58.3624 40.8621 58.4092 40.9496C58.4577 41.0403 58.4663 41.1353 58.434 41.2349C58.402 41.3342 58.34 41.4052 58.2482 41.4477C58.1582 41.4939 58.0608 41.4999 57.9563 41.4662C57.8543 41.4332 57.7788 41.3712 57.7303 41.2805C57.6834 41.193 57.6758 41.0997 57.7082 41.0004Z" fill="#0F1B20"/>
<path d="M56.5422 43.9755C56.6276 43.7911 56.7361 43.6519 56.8675 43.5582C57.0011 43.4658 57.1614 43.411 57.3478 43.3945L57.4514 43.897C57.3482 43.9036 57.2627 43.9277 57.1951 43.9693C57.1274 44.0105 57.0793 44.0623 57.0502 44.1247C57.004 44.2246 56.9994 44.3134 57.036 44.3909C57.074 44.4721 57.1743 44.5503 57.3363 44.6255L58.9189 45.3592L58.6642 45.9092L57.0364 45.1547C56.8793 45.0818 56.7487 44.9881 56.6444 44.8729C56.5402 44.7581 56.4765 44.6238 56.4534 44.4707C56.4293 44.3203 56.459 44.1553 56.5422 43.9755Z" fill="#0F1B20"/>
<path d="M55.3683 46.2203C55.5448 45.9188 55.7682 45.7406 56.0394 45.6859C56.3102 45.6311 56.6405 45.7175 57.0295 45.9455L58.2753 46.6746L57.9668 47.2015L56.6679 46.441C56.4402 46.3074 56.2611 46.249 56.1304 46.2649C56.0001 46.281 55.8965 46.3543 55.8203 46.4849C55.7438 46.6152 55.7299 46.7426 55.7784 46.8663C55.8269 46.9904 55.9651 47.119 56.1928 47.2523L57.492 48.0128L57.1961 48.5182L55.9503 47.7891C55.5613 47.5611 55.3234 47.317 55.2373 47.056C55.1496 46.7977 55.1931 46.5192 55.3683 46.2203Z" fill="#0F1B20"/>
<path d="M54.5286 47.6855L56.6969 49.2761L56.2479 49.8878C56.0855 50.1095 55.9071 50.2738 55.7131 50.38C55.5187 50.4866 55.3096 50.5259 55.0849 50.4975C54.8609 50.4727 54.6246 50.3695 54.3762 50.1874C54.1281 50.0052 53.9555 49.8106 53.8586 49.6031C53.7619 49.3955 53.7322 49.1827 53.7695 48.9647C53.8074 48.7505 53.9044 48.5368 54.0605 48.3239L54.5286 47.6855ZM54.5659 48.4648L54.4976 48.5579C54.4066 48.6819 54.3498 48.8056 54.3274 48.929C54.3036 49.0547 54.3237 49.1804 54.3884 49.3061C54.4531 49.4322 54.5718 49.5585 54.7447 49.6852C54.9176 49.8119 55.0714 49.8858 55.2063 49.9063C55.3435 49.9284 55.4663 49.9076 55.5745 49.8439C55.6834 49.7839 55.7833 49.6918 55.8744 49.5678L55.9427 49.4744L54.5659 48.4648Z" fill="#0F1B20"/>
<path d="M52.197 50.5587C52.3587 50.3785 52.5431 50.2578 52.75 50.1961C52.9552 50.1367 53.1703 50.1377 53.3957 50.1997C53.621 50.2657 53.842 50.396 54.0588 50.5907C54.2775 50.7873 54.4286 50.9915 54.5121 51.2033C54.5956 51.4188 54.6164 51.6299 54.5748 51.8365C54.5336 52.047 54.432 52.2423 54.2703 52.4221C54.1086 52.6022 53.9262 52.723 53.7229 52.7843C53.5204 52.8497 53.3082 52.8513 53.0869 52.789C52.8635 52.7289 52.6434 52.6012 52.4267 52.4066C52.2099 52.2116 52.0578 52.0047 51.9704 51.7857C51.883 51.5702 51.8589 51.3564 51.8981 51.144C51.9357 50.9338 52.0351 50.7385 52.197 50.5587ZM52.5864 50.9087C52.4633 51.0456 52.4254 51.2073 52.4722 51.3937C52.5191 51.5801 52.6428 51.7632 52.843 51.9434C53.0436 52.1235 53.2356 52.2241 53.4197 52.2456C53.6042 52.267 53.7576 52.2089 53.8806 52.072C54.004 51.9351 54.045 51.7761 54.0044 51.5953C53.9635 51.4145 53.843 51.234 53.6424 51.0539C53.4422 50.8737 53.2469 50.7705 53.0565 50.7434C52.8661 50.7167 52.7094 50.7718 52.5864 50.9087Z" fill="#0F1B20"/>
<path d="M49.5646 53.1103C49.7359 52.9638 49.9275 52.8685 50.1394 52.8243C50.3515 52.7804 50.5676 52.7979 50.7877 52.8774C51.0074 52.9605 51.2146 53.1159 51.4096 53.3436C51.6029 53.5693 51.7237 53.7989 51.7718 54.0325C51.8197 54.2703 51.8065 54.4934 51.7319 54.7022C51.657 54.9147 51.5336 55.0945 51.3627 55.241C51.2311 55.3538 51.0899 55.4277 50.9388 55.463C50.7896 55.5 50.6504 55.5128 50.5207 55.5006L50.5128 54.9972C50.6062 55.0005 50.6946 54.9916 50.7781 54.9708C50.8612 54.9539 50.9394 54.914 51.0123 54.8513C51.1044 54.7728 51.1664 54.6742 51.1991 54.5557C51.2294 54.4393 51.2258 54.3122 51.1875 54.1747C51.1473 54.0391 51.0681 53.9021 50.95 53.7646C50.7712 53.5557 50.5867 53.431 50.397 53.3911C50.207 53.3512 50.0368 53.3954 49.8866 53.5244C49.8028 53.596 49.7451 53.6781 49.7124 53.7712C49.6778 53.8659 49.6577 53.9609 49.6524 54.0562L49.1611 53.9774C49.1608 53.63 49.2951 53.3413 49.5646 53.1103Z" fill="#0F1B20"/>
<path d="M48.6073 53.9609L50.1741 56.146L49.6812 56.4994L48.4127 54.7297L47.5479 55.3496L47.25 54.9342L48.6073 53.9609Z" fill="#0F1B20"/>
<path d="M46.0575 55.6161C46.3571 55.4366 46.6389 55.3881 46.9028 55.4706C47.1671 55.5527 47.4149 55.7877 47.6465 56.1743L48.3878 57.4129L47.8639 57.7263L47.0909 56.4346C46.9553 56.2083 46.8266 56.0707 46.7045 56.0219C46.5825 55.9734 46.4564 55.9879 46.3268 56.0654C46.1971 56.1433 46.1235 56.2479 46.1064 56.3802C46.0892 56.5122 46.1486 56.6913 46.2842 56.9176L47.0572 58.2093L46.5547 58.5102L45.8134 57.2717C45.5818 56.8847 45.4907 56.5564 45.5406 56.2862C45.5881 56.0173 45.7603 55.7939 46.0575 55.6161Z" fill="#0F1B20"/>
<path d="M44.6208 56.4941L45.7591 58.9303L44.9257 59.3196C44.7564 59.3988 44.5958 59.4509 44.4437 59.4767C44.2929 59.5044 44.1573 59.4935 44.0369 59.4437C43.9165 59.3935 43.8195 59.2902 43.7462 59.1332C43.6961 59.0263 43.6753 58.9069 43.6839 58.7756C43.6908 58.6479 43.7353 58.542 43.8178 58.4582L43.8106 58.443C43.671 58.4691 43.538 58.4539 43.4117 58.3975C43.2837 58.345 43.182 58.2378 43.1065 58.0758C43.0286 57.9089 43.0075 57.7535 43.0431 57.609C43.0791 57.4648 43.1557 57.3335 43.2731 57.215C43.3919 57.0986 43.5397 56.9993 43.7165 56.9168L44.6208 56.4941ZM44.7541 58.2117L44.4961 58.3322C44.3619 58.3952 44.2767 58.4668 44.2414 58.5469C44.2035 58.6281 44.2051 58.7126 44.2457 58.7997C44.2899 58.8943 44.3526 58.9471 44.4334 58.9577C44.5143 58.9686 44.6195 58.9438 44.7492 58.8831L45.0108 58.7611L44.7541 58.2117ZM44.2705 57.1768L43.9603 57.3216C43.6591 57.4625 43.5595 57.6426 43.6621 57.8617C43.7119 57.9689 43.7848 58.0273 43.8805 58.0372C43.9775 58.0497 44.1019 58.0204 44.2536 57.9494L44.5638 57.8046L44.2705 57.1768Z" fill="#0F1B20"/>
<path d="M40.7828 58.0297C40.95 57.9746 41.1275 57.9508 41.3153 57.9584C41.5004 57.9667 41.6782 58.0095 41.8481 58.0868L41.6495 58.5905C41.5324 58.5424 41.4093 58.512 41.281 58.4995C41.1523 58.4869 41.0358 58.4978 40.9312 58.5321C40.8111 58.5717 40.7297 58.6232 40.6868 58.6866C40.6412 58.7509 40.6313 58.8208 40.6561 58.8964C40.6828 58.9775 40.7363 59.0251 40.8161 59.0392C40.8943 59.0567 40.9972 59.0706 41.1249 59.0805L41.5043 59.1118C41.6026 59.1201 41.701 59.1412 41.7989 59.1755C41.8979 59.2121 41.9873 59.2682 42.0672 59.3431C42.1467 59.4183 42.2071 59.5173 42.2473 59.6397C42.2938 59.7809 42.2981 59.9211 42.2602 60.061C42.2199 60.2019 42.1431 60.3286 42.0296 60.4411C41.9134 60.5546 41.7666 60.6407 41.5891 60.6991C41.443 60.7476 41.2872 60.7671 41.1223 60.7578C40.957 60.7486 40.8016 60.707 40.6558 60.6334L40.8293 60.1725C40.9345 60.2101 41.0342 60.2322 41.1289 60.2388C41.2245 60.2478 41.3235 60.2355 41.4251 60.2019C41.5244 60.1692 41.597 60.1221 41.6436 60.0604C41.6881 60.0023 41.6983 59.9366 41.6742 59.8637C41.6482 59.7852 41.5924 59.7387 41.5063 59.7235C41.4176 59.7093 41.3113 59.6981 41.1869 59.6899L40.8141 59.6651C40.6393 59.6532 40.4882 59.6074 40.3605 59.5279C40.2331 59.4483 40.1398 59.3187 40.0804 59.1385C40.0339 58.9973 40.0286 58.8545 40.0645 58.7093C40.1008 58.5642 40.1787 58.4315 40.2981 58.3111C40.4176 58.1907 40.5792 58.0966 40.7828 58.0297Z" fill="#0F1B20"/>
<path d="M39.3851 58.5L40.0535 61.1044L39.4666 61.2552L38.7979 58.6508L39.3851 58.5Z" fill="#0F1B20"/>
<path d="M38.1823 58.8145L38.6528 61.4621L38.0395 61.571L37.1157 60.378L36.7518 59.8392L36.7356 59.8422C36.7716 59.9811 36.8141 60.1355 36.8639 60.3054C36.9138 60.475 36.9524 60.6386 36.9804 60.7956L37.1464 61.7293L36.5779 61.8306L36.1074 59.183L36.7207 59.0741L37.6455 60.2711L38.0078 60.8016L38.0239 60.7986C37.9844 60.6551 37.9418 60.5007 37.8956 60.3357C37.8468 60.1711 37.8085 60.0104 37.7805 59.8534L37.6139 58.9154L38.1823 58.8145Z" fill="#0F1B20"/>
<path d="M35.647 59.2383L35.677 59.6042L34.6417 61.5058L35.7143 61.4174L35.7562 61.9272L33.9396 62.0766L33.9093 61.7107L34.9449 59.809L33.7489 59.9074L33.707 59.3976L35.647 59.2383Z" fill="#0F1B20"/>
<path d="M33.2484 59.4183L33.2187 62.1072L32.6123 62.1002L32.6239 61.0653L31.6961 61.055L31.6846 62.09L31.0742 62.0834L31.1042 59.3945L31.7143 59.4015L31.7021 60.5232L32.6298 60.5334L32.6423 59.4117L33.2484 59.4183Z" fill="#0F1B20"/>
<path d="M30.4734 59.3482L30.1867 62.0215L28.5137 61.8421L28.5684 61.3336L29.6384 61.4485L29.6961 60.9113L28.7859 60.8137L28.84 60.3092L29.7502 60.4069L29.8162 59.7919L28.705 59.6728L28.7595 59.1641L30.4734 59.3482Z" fill="#0F1B20"/>
<path d="M28.2299 59.072L27.7723 61.7216L27.1748 61.6184L27.6324 58.9688L28.2299 59.072Z" fill="#0F1B20"/>
<path d="M27.0015 58.8727L26.3253 61.4751L25.6827 61.3082L25.5643 60.0416C25.5571 59.9601 25.5522 59.8753 25.5497 59.7866C25.5471 59.6978 25.5429 59.6101 25.5371 59.5233L25.5211 59.519C25.4738 59.5919 25.4287 59.6671 25.386 59.744C25.3406 59.8202 25.2949 59.8921 25.249 59.9598L24.5371 61.0106L23.8984 60.8446L24.5747 58.2422L25.1095 58.3811L24.8617 59.3349C24.8395 59.42 24.811 59.5137 24.776 59.6153C24.7377 59.7189 24.6994 59.8225 24.6611 59.9265C24.6202 60.0294 24.585 60.1211 24.5555 60.2013L24.5715 60.2056L24.9438 59.6417L25.5733 58.7443L25.8966 58.8285L26.0096 59.9189L26.0564 60.5912L26.0723 60.5955C26.0831 60.5101 26.097 60.4131 26.114 60.3039C26.1311 60.1947 26.1494 60.0858 26.1691 59.9773C26.1854 59.8707 26.2046 59.7747 26.2267 59.6896L26.4746 58.7358L27.0015 58.8727Z" fill="#0F1B20"/>
<path d="M22.4169 57.3812C22.5978 57.4545 22.7448 57.56 22.858 57.6979C22.9712 57.8358 23.0398 57.9959 23.0639 58.1776C23.088 58.3594 23.0577 58.5551 22.9729 58.7639C22.8892 58.9701 22.7753 59.1301 22.6313 59.244C22.4847 59.3565 22.3266 59.4244 22.157 59.4475C21.9864 59.4733 21.8259 59.4558 21.6756 59.3947C21.4947 59.3212 21.3622 59.2199 21.2781 59.0909C21.1904 58.9635 21.1452 58.819 21.1424 58.6577C21.136 58.4977 21.168 58.3311 21.2383 58.1579C21.2579 58.1097 21.2801 58.0622 21.3048 58.016C21.3285 57.9721 21.3476 57.9398 21.362 57.919L22.497 58.3792C22.5273 58.2314 22.5113 58.1064 22.4491 58.0038C22.3857 57.9041 22.2917 57.8286 22.1668 57.7781C22.0318 57.7233 21.8784 57.7101 21.7068 57.7382L21.6575 57.3222C21.7812 57.2951 21.9107 57.2869 22.0459 57.2974C22.1811 57.3076 22.3048 57.3357 22.4169 57.3812ZM22.3504 58.7517L21.6663 58.4739C21.624 58.5785 21.6148 58.6742 21.6389 58.761C21.6594 58.8497 21.7257 58.9164 21.8378 58.9619C21.9244 58.9972 22.0145 58.9982 22.1081 58.9648C22.2007 58.9342 22.2814 58.8632 22.3504 58.7517Z" fill="#0F1B20"/>
<path d="M20.9791 56.7381C21.0732 56.7833 21.1369 56.8539 21.1702 56.9493C21.1999 57.0459 21.1914 57.1426 21.1448 57.2393C21.097 57.3382 21.0266 57.4049 20.9336 57.4395C20.837 57.4752 20.7416 57.4705 20.6475 57.425C20.5534 57.3798 20.4916 57.3085 20.4619 57.2119C20.4286 57.1165 20.4359 57.0192 20.4836 56.9202C20.5303 56.8236 20.6019 56.7572 20.6985 56.7216C20.7915 56.687 20.885 56.6926 20.9791 56.7381Z" fill="#0F1B20"/>
<path d="M19.9888 56.2941L19.4009 59.0407L18.8376 58.7299L19.1617 57.4769C19.1961 57.3294 19.2338 57.1869 19.2751 57.0496C19.314 56.9111 19.3512 56.7665 19.3869 56.6168L19.3724 56.6088C19.267 56.72 19.1659 56.8292 19.0693 56.9361C18.9727 57.043 18.8723 57.1509 18.7682 57.2598L17.8844 58.204L17.3428 57.9051L19.3497 55.9414L19.9888 56.2941Z" fill="#0F1B20"/>
<path d="M18.4455 55.3391C18.5341 55.3945 18.5897 55.4714 18.6124 55.57C18.6313 55.6693 18.6123 55.7644 18.5555 55.8554C18.4971 55.9488 18.4199 56.0075 18.3237 56.0316C18.2237 56.0567 18.1295 56.0415 18.0409 55.9861C17.9523 55.9306 17.8985 55.8531 17.8796 55.7538C17.857 55.6551 17.8748 55.5595 17.9331 55.4661C17.99 55.3754 18.0684 55.3173 18.1684 55.2922C18.2645 55.2681 18.3569 55.2837 18.4455 55.3391Z" fill="#0F1B20"/>
<path d="M15.8473 53.4889C16.0056 53.6169 16.1143 53.7558 16.1734 53.906C16.2307 54.0581 16.2449 54.2266 16.2158 54.4117L15.7032 54.39C15.7216 54.2883 15.719 54.1996 15.6952 54.124C15.6715 54.0485 15.6329 53.9891 15.5794 53.9459C15.4938 53.8769 15.4089 53.8509 15.3247 53.8677C15.2366 53.8848 15.1364 53.963 15.0242 54.1019L13.9289 55.4596L13.457 55.0792L14.5835 53.6829C14.6922 53.548 14.815 53.4441 14.9519 53.3708C15.0887 53.2972 15.2342 53.2682 15.3883 53.2831C15.5402 53.2959 15.6932 53.3646 15.8473 53.4889Z" fill="#0F1B20"/>
<path d="M13.9483 51.8009C14.198 52.0448 14.3167 52.3051 14.3043 52.5812C14.2919 52.8574 14.1282 53.1569 13.8131 53.4793L12.8042 54.5116L12.3677 54.085L13.4198 53.0085C13.6042 52.8197 13.7044 52.6601 13.7204 52.5297C13.7364 52.3991 13.6904 52.281 13.5822 52.1754C13.4741 52.0698 13.354 52.0253 13.222 52.0425C13.09 52.0596 12.9317 52.1625 12.7472 52.3513L11.6952 53.4278L11.2764 53.0187L12.2852 51.9864C12.6003 51.6637 12.8948 51.4921 13.1687 51.4717C13.4406 51.4489 13.7005 51.5588 13.9483 51.8009Z" fill="#0F1B20"/>
<path d="M12.7323 50.6362L10.6659 52.3568L10.1804 51.7738C10.0044 51.5623 9.88818 51.3499 9.8316 51.1357C9.77501 50.9216 9.78758 50.7091 9.86934 50.498C9.9472 50.2865 10.1045 50.082 10.3411 49.885C10.5778 49.688 10.8084 49.5676 11.033 49.5237C11.2576 49.4798 11.4713 49.5023 11.674 49.591C11.8728 49.6795 12.0567 49.825 12.2256 50.0279L12.7323 50.6362ZM11.9672 50.4845L11.8933 50.3957C11.7948 50.2773 11.6883 50.1925 11.574 50.141C11.4578 50.0876 11.3309 50.077 11.1933 50.1093C11.0556 50.1417 10.9044 50.2265 10.7396 50.3637C10.5748 50.501 10.4661 50.6323 10.4136 50.7583C10.359 50.8863 10.3496 51.0104 10.3855 51.1308C10.4175 51.2509 10.4827 51.37 10.5812 51.4881L10.6552 51.5768L11.9672 50.4845Z" fill="#0F1B20"/>
<path d="M10.5025 47.6738C10.6381 47.8744 10.7108 48.0826 10.7206 48.2981C10.7289 48.5115 10.6758 48.7204 10.5612 48.9239C10.4428 49.1265 10.2629 49.3096 10.0215 49.4729C9.7779 49.6379 9.54329 49.7352 9.31775 49.7649C9.08842 49.7939 8.87852 49.7633 8.68806 49.6729C8.49373 49.5821 8.32884 49.4363 8.19327 49.236C8.05774 49.0354 7.98466 48.8292 7.9741 48.6174C7.95972 48.4046 8.0094 48.1984 8.12323 47.9988C8.2355 47.7966 8.41234 47.6141 8.65375 47.4508C8.89512 47.2875 9.13276 47.1898 9.36668 47.1578C9.59673 47.1248 9.81006 47.1532 10.0066 47.2426C10.2017 47.3297 10.367 47.4736 10.5025 47.6738ZM10.0687 47.9675C9.96546 47.8147 9.81778 47.7388 9.62564 47.7392C9.43349 47.7398 9.2258 47.8157 9.00261 47.9665C8.77945 48.1176 8.63527 48.2799 8.57008 48.4535C8.50488 48.6267 8.52392 48.79 8.62712 48.9424C8.73032 49.0952 8.87456 49.1733 9.05992 49.1776C9.24523 49.1816 9.44949 49.108 9.67268 48.9572C9.89584 48.8061 10.0435 48.6418 10.1155 48.4637C10.1875 48.2852 10.1719 48.1199 10.0687 47.9675Z" fill="#0F1B20"/>
<path d="M8.66331 44.5054C8.76413 44.7073 8.81019 44.9162 8.80158 45.1326C8.79294 45.349 8.72345 45.5542 8.5931 45.7486C8.45905 45.9416 8.258 46.1052 7.98993 46.2392C7.72434 46.3718 7.47228 46.4335 7.23375 46.4236C6.99152 46.4124 6.77819 46.3454 6.59376 46.2223C6.40567 46.0983 6.26123 45.9353 6.16041 45.7337C6.08297 45.5787 6.04549 45.4236 6.04797 45.2689C6.048 45.1151 6.06951 44.9769 6.11257 44.8538L6.60313 44.9683C6.57733 45.058 6.5644 45.1458 6.5644 45.2319C6.56067 45.3167 6.58033 45.4022 6.62339 45.4883C6.67746 45.5965 6.758 45.6809 6.86496 45.741C6.9707 45.7987 7.09488 45.8258 7.23751 45.8221C7.37888 45.8162 7.53074 45.7723 7.69307 45.6915C7.93899 45.5684 8.10438 45.4196 8.18924 45.2451C8.2741 45.0706 8.27228 44.8947 8.18376 44.7176C8.13461 44.6192 8.06882 44.543 7.98644 44.4889C7.90283 44.4322 7.81557 44.3899 7.72458 44.3616L7.92012 43.9043C8.25701 43.9878 8.50475 44.1884 8.66331 44.5054Z" fill="#0F1B20"/>
<path d="M8.07121 43.3697L5.57042 44.3578L5.34766 43.794L7.37283 42.9939L6.9819 42.0045L7.45752 41.8164L8.07121 43.3697Z" fill="#0F1B20"/>
<path d="M7.0879 40.495C7.18873 40.8292 7.16702 41.1143 7.02278 41.3502C6.87853 41.586 6.59058 41.7692 6.15887 41.8995L4.77692 42.3162L4.6007 41.7319L6.04188 41.297C6.29457 41.2208 6.45943 41.1294 6.53644 41.0232C6.61344 40.9166 6.6301 40.7909 6.58645 40.6461C6.5428 40.5013 6.45904 40.4046 6.33522 40.3558C6.21136 40.3069 6.02311 40.3208 5.77038 40.397L4.32921 40.8315L4.16016 40.271L5.54211 39.8539C5.97378 39.724 6.31453 39.7157 6.56435 39.8302C6.81337 39.9417 6.9879 40.1634 7.0879 40.495Z" fill="#0F1B20"/>
<path d="M6.58763 38.8862L3.94708 39.3937L3.77347 38.4907C3.7382 38.3069 3.72679 38.1383 3.73926 37.9849C3.74902 37.8318 3.79287 37.7028 3.87073 37.5985C3.94863 37.494 4.07265 37.4253 4.24272 37.3927C4.35882 37.3702 4.47954 37.3791 4.60488 37.4194C4.72699 37.4577 4.81867 37.5266 4.87994 37.6269L4.89614 37.6239C4.90528 37.4821 4.95259 37.3567 5.03807 37.2482C5.12032 37.137 5.24919 37.0647 5.42468 37.0311C5.60557 36.9961 5.76156 37.0139 5.89261 37.0839C6.02365 37.1538 6.1323 37.2604 6.21857 37.4032C6.30218 37.5467 6.36239 37.7143 6.39924 37.906L6.58763 38.8862ZM4.88967 38.5952L4.83596 38.3158C4.80792 38.17 4.75935 38.07 4.6902 38.0162C4.62052 37.9595 4.53843 37.9403 4.44394 37.9585C4.34134 37.9783 4.27492 38.0261 4.2447 38.102C4.21448 38.1776 4.21287 38.2858 4.23985 38.4263L4.29432 38.7097L4.88967 38.5952ZM6.01151 38.3795L5.94688 38.0433C5.8841 37.7167 5.73388 37.5761 5.4963 37.622C5.3802 37.6441 5.30564 37.7005 5.27261 37.7909C5.23688 37.8816 5.23484 38.0096 5.26651 38.1743L5.33111 38.5105L6.01151 38.3795Z" fill="#0F1B20"/>
<path d="M6.03675 34.7919C6.04945 34.9674 6.0292 35.1452 5.97608 35.3254C5.92273 35.5029 5.83794 35.6649 5.72171 35.811L5.28129 35.4956C5.35665 35.3937 5.4161 35.2818 5.45968 35.1601C5.50326 35.0384 5.52111 34.9229 5.51319 34.813C5.50409 34.687 5.47403 34.5953 5.42306 34.5385C5.37189 34.4788 5.30653 34.4517 5.22702 34.4574C5.142 34.4636 5.08287 34.5035 5.04962 34.5778C5.01346 34.6494 4.97492 34.7457 4.93408 34.8671L4.81125 35.2277C4.77941 35.3208 4.7349 35.4108 4.67779 35.4976C4.61791 35.5847 4.54187 35.6576 4.44965 35.7167C4.35744 35.7757 4.24688 35.81 4.11801 35.8193C3.96991 35.8302 3.83266 35.7998 3.70627 35.7292C3.57967 35.6556 3.47558 35.5501 3.39399 35.4128C3.3122 35.2726 3.26456 35.1093 3.2511 34.9225C3.24002 34.7691 3.25909 34.6134 3.30831 34.4554C3.35757 34.2973 3.4356 34.1568 3.54246 34.0334L3.94728 34.3142C3.88505 34.4069 3.83929 34.4983 3.80999 34.5887C3.77793 34.6794 3.76575 34.778 3.77351 34.8849C3.78103 34.9892 3.809 35.071 3.85744 35.1311C3.9029 35.1885 3.96404 35.2145 4.04084 35.2089C4.12309 35.203 4.18202 35.1601 4.21762 35.0803C4.25302 34.9978 4.28984 34.8971 4.32814 34.7787L4.44305 34.423C4.49719 34.2564 4.57836 34.1212 4.6866 34.0169C4.79485 33.9126 4.94358 33.8536 5.13279 33.8401C5.28086 33.8292 5.42085 33.8592 5.55275 33.9295C5.68462 33.9998 5.79442 34.1076 5.88208 34.2531C5.96974 34.3983 6.02131 34.5778 6.03675 34.7919Z" fill="#0F1B20"/>
<path d="M5.91924 33.3232L3.23042 33.34L3.22656 32.734L5.91541 32.7168L5.91924 33.3232Z" fill="#0F1B20"/>
<path d="M5.90732 32.0793L3.22461 31.8972L3.26674 31.276L4.64734 30.6669L5.2577 30.4439L5.25882 30.4274C5.11544 30.4287 4.95529 30.433 4.77845 30.4403C4.60158 30.4475 4.43362 30.4459 4.27453 30.435L3.32817 30.371L3.36724 29.7949L6.04995 29.9767L6.00782 30.598L4.62309 31.207L4.02098 31.4307L4.01986 31.4469C4.16892 31.4432 4.32903 31.4389 4.50023 31.434C4.67159 31.4264 4.83682 31.428 4.99591 31.4389L5.94639 31.5033L5.90732 32.0793Z" fill="#0F1B20"/>
<path d="M6.1067 29.5152L5.74444 29.4561L4.14843 27.9928L3.97542 29.0553L3.4707 28.9731L3.76368 27.1738L4.12597 27.2329L5.72197 28.696L5.91488 27.5116L6.4196 27.5939L6.1067 29.5152Z" fill="#0F1B20"/>
<path d="M6.50851 27.1519L3.90723 26.4711L4.06071 25.8846L5.06213 26.1467L5.29707 25.249L4.29565 24.987L4.45018 24.3965L7.05144 25.0772L6.89693 25.6677L5.81171 25.3837L5.57681 26.2814L6.66199 26.5654L6.50851 27.1519Z" fill="#0F1B20"/>
<path d="M7.25203 24.4705L4.72949 23.5395L5.31207 21.9609L5.79182 22.138L5.41913 23.1478L5.92596 23.3349L6.24295 22.4759L6.71884 22.6516L6.40184 23.5105L6.98218 23.7247L7.36915 22.6762L7.84889 22.8533L7.25203 24.4705Z" fill="#0F1B20"/>
<path d="M8.06773 22.3643L5.61035 21.2728L5.85644 20.7188L8.31382 21.8103L8.06773 22.3643Z" fill="#0F1B20"/>
<path d="M8.56074 21.2211L6.20215 19.9299L6.52099 19.3475L7.778 19.542C7.85873 19.5548 7.94243 19.5708 8.02907 19.5901C8.11571 19.6093 8.20179 19.6266 8.28733 19.6421L8.29529 19.6277C8.23613 19.5639 8.17447 19.502 8.11026 19.4417C8.04738 19.3791 7.98879 19.3172 7.93445 19.2562L7.08938 18.3093L7.40624 17.7305L9.7648 19.0217L9.49944 19.5064L8.63488 19.0331C8.55771 18.9908 8.47407 18.9404 8.38397 18.8816C8.29278 18.8192 8.20159 18.7567 8.11043 18.6943C8.02056 18.6294 7.94022 18.5729 7.86942 18.5247L7.8615 18.5392L8.31726 19.0379L9.03382 19.8674L8.87341 20.1604L7.78849 20.0037L7.12481 19.8849L7.11686 19.8994C7.1969 19.9306 7.2878 19.9679 7.38955 20.011C7.49129 20.0542 7.59238 20.0986 7.69281 20.1441C7.79215 20.186 7.88041 20.228 7.95758 20.2703L8.82214 20.7436L8.56074 21.2211Z" fill="#0F1B20"/>
<path d="M11.1277 17.1371C11.0125 17.2947 10.8742 17.4116 10.713 17.4879C10.5517 17.5641 10.3799 17.5918 10.1976 17.571C10.0154 17.5502 9.8332 17.4733 9.65118 17.3403C9.47137 17.2089 9.34386 17.0595 9.26864 16.8922C9.19503 16.7226 9.16761 16.5528 9.18639 16.3826C9.20295 16.2108 9.25907 16.0594 9.35478 15.9285C9.46992 15.7708 9.60034 15.6669 9.746 15.6167C9.89104 15.5627 10.0422 15.5539 10.1994 15.5905C10.3559 15.6232 10.5097 15.6947 10.6607 15.805C10.7028 15.8358 10.7434 15.8688 10.7823 15.9041C10.819 15.9377 10.8458 15.964 10.8625 15.9831L10.1399 16.972C10.276 17.0374 10.4012 17.0524 10.5157 17.0168C10.628 16.9797 10.7239 16.9067 10.8034 16.798C10.8893 16.6803 10.9395 16.5348 10.9538 16.3614L11.3694 16.4148C11.3655 16.5413 11.342 16.6689 11.2991 16.7976C11.2562 16.9262 11.199 17.0394 11.1277 17.1371ZM9.81443 16.7394L10.25 16.1433C10.1589 16.0768 10.0684 16.0447 9.9782 16.0469C9.88744 16.0453 9.80638 16.0933 9.73502 16.191C9.67985 16.2665 9.65702 16.3536 9.66649 16.4525C9.67375 16.5498 9.72307 16.6454 9.81443 16.7394Z" fill="#0F1B20"/>
<path d="M12.0959 15.9014C12.0291 15.9817 11.9453 16.0264 11.8446 16.0356C11.7436 16.0409 11.6519 16.0093 11.5695 15.9407C11.485 15.8703 11.4372 15.7858 11.4263 15.6873C11.415 15.5849 11.4428 15.4935 11.5096 15.4132C11.5765 15.3329 11.6604 15.2901 11.7614 15.2848C11.8621 15.2756 11.9547 15.3062 12.0392 15.3766C12.1216 15.4452 12.1685 15.5307 12.1798 15.6331C12.1907 15.7317 12.1628 15.8211 12.0959 15.9014Z" fill="#0F1B20"/>
<path d="M12.7691 15.0469L10.2461 13.8122L10.6839 13.3408L11.8214 13.9584C11.9563 14.0273 12.0853 14.0984 12.2086 14.1717C12.3338 14.243 12.4648 14.314 12.6017 14.3848L12.6129 14.3727C12.5304 14.2435 12.4489 14.1191 12.3686 13.9994C12.2884 13.8798 12.2079 13.7564 12.1274 13.629L11.4249 12.5431L11.8459 12.0898L13.2659 14.5121L12.7691 15.0469Z" fill="#0F1B20"/>
<path d="M14.0683 13.7787C13.9931 13.8513 13.905 13.8867 13.8039 13.8849C13.7029 13.8793 13.6152 13.8379 13.5407 13.7608C13.4643 13.6816 13.426 13.5925 13.4258 13.4934C13.4256 13.3903 13.4632 13.3025 13.5383 13.2299C13.6135 13.1573 13.7015 13.1239 13.8026 13.1295C13.9036 13.1313 13.9924 13.1717 14.0688 13.2509C14.1432 13.328 14.1805 13.4181 14.1807 13.5211C14.1809 13.6203 14.1434 13.7062 14.0683 13.7787Z" fill="#0F1B20"/>
<path d="M15.8426 12.2111C15.6843 12.3389 15.5255 12.4159 15.3664 12.4419C15.2054 12.4658 15.0377 12.444 14.863 12.3765L14.9922 11.88C15.0877 11.9195 15.1749 11.9357 15.2539 11.9284C15.3329 11.9212 15.3991 11.896 15.4526 11.8529C15.5381 11.7838 15.5816 11.7063 15.5829 11.6204C15.5847 11.5306 15.5294 11.4162 15.4172 11.2772L14.3213 9.91989L14.793 9.53906L15.9199 10.9349C16.0287 11.0696 16.1045 11.2116 16.1473 11.3609C16.19 11.5101 16.1879 11.6585 16.1409 11.806C16.096 11.9517 15.9966 12.0868 15.8426 12.2111Z" fill="#0F1B20"/>
<path d="M17.8941 10.7107C17.6028 10.9032 17.3235 10.9642 17.0561 10.8938C16.7888 10.8233 16.5308 10.6 16.2822 10.2238L15.4863 9.01963L15.9955 8.6831L16.8255 9.93893C16.971 10.1591 17.1058 10.2908 17.2299 10.334C17.3541 10.3772 17.4792 10.3571 17.6054 10.2737C17.7315 10.1904 17.8002 10.0824 17.8114 9.94971C17.8226 9.81709 17.7554 9.64068 17.6099 9.42048L16.78 8.16466L17.2685 7.8418L18.0644 9.04599C18.313 9.42213 18.4184 9.74628 18.3808 10.0183C18.3454 10.2889 18.1831 10.5197 17.8941 10.7107Z" fill="#0F1B20"/>
<path d="M19.2856 9.77182L18.042 7.38779L18.7148 7.03685C18.9586 6.9097 19.191 6.84114 19.4122 6.83118C19.6334 6.82125 19.8385 6.87859 20.0275 7.00327C20.2178 7.12418 20.3841 7.32118 20.5265 7.59419C20.6689 7.86721 20.7378 8.11811 20.7331 8.34692C20.7284 8.57575 20.6612 8.77981 20.5315 8.95912C20.4029 9.13471 20.2216 9.28354 19.9876 9.40561L19.2856 9.77182ZM19.5961 9.05632L19.6985 9.0029C19.835 8.93171 19.9405 8.84566 20.015 8.74477C20.092 8.64263 20.1292 8.52085 20.1268 8.37948C20.1244 8.23807 20.0736 8.07232 19.9744 7.88218C19.8752 7.69205 19.7696 7.55797 19.6576 7.47997C19.5443 7.39954 19.425 7.36407 19.2998 7.37361C19.1756 7.37941 19.0454 7.41792 18.9088 7.48915L18.8065 7.54253L19.5961 9.05632Z" fill="#0F1B20"/>
<path d="M22.6571 8.21912C22.4324 8.30889 22.2136 8.33562 22.0007 8.29926C21.7904 8.26191 21.598 8.16561 21.4234 8.01031C21.2504 7.85145 21.1099 7.63671 21.0017 7.36607C20.8926 7.09289 20.8475 6.84297 20.8665 6.61628C20.887 6.38603 20.9617 6.18748 21.0904 6.02057C21.2206 5.8501 21.3981 5.72001 21.6228 5.63024C21.8475 5.54047 22.0645 5.51298 22.2738 5.54779C22.4846 5.57903 22.6755 5.67151 22.8465 5.82526C23.02 5.97801 23.1608 6.18969 23.2689 6.46029C23.3771 6.73093 23.4219 6.98395 23.4034 7.21929C23.3865 7.45106 23.3134 7.65347 23.1842 7.82648C23.0575 7.9985 22.8818 8.12938 22.6571 8.21912ZM22.4628 7.73275C22.6338 7.66442 22.7396 7.53631 22.78 7.34845C22.8204 7.16059 22.7906 6.94155 22.6906 6.69134C22.5907 6.44113 22.4629 6.26571 22.3072 6.16508C22.1515 6.06442 21.9882 6.04829 21.8171 6.11661C21.646 6.18494 21.5388 6.30922 21.4953 6.48943C21.4518 6.66963 21.4801 6.88484 21.58 7.13506C21.68 7.38527 21.8094 7.56452 21.9681 7.67283C22.1268 7.78111 22.2917 7.80111 22.4628 7.73275Z" fill="#0F1B20"/>
<path d="M26.1479 7.09794C25.9293 7.1532 25.7153 7.15346 25.5058 7.09873C25.2962 7.04396 25.1105 6.93212 24.9487 6.7632C24.7888 6.59094 24.6721 6.35953 24.5986 6.06903C24.5258 5.78114 24.5197 5.52179 24.5805 5.29088C24.6432 5.05666 24.7543 4.86263 24.9139 4.70882C25.0755 4.55165 25.2656 4.44545 25.4842 4.39015C25.6521 4.34766 25.8114 4.34422 25.9622 4.37979C26.1124 4.41272 26.2429 4.46336 26.3538 4.53175L26.137 4.98645C26.0548 4.94201 25.9717 4.91057 25.8876 4.89213C25.8056 4.87035 25.7179 4.87128 25.6246 4.89487C25.5073 4.92453 25.4078 4.98517 25.3261 5.07675C25.2469 5.16765 25.1939 5.28316 25.167 5.42327C25.1427 5.5627 25.1528 5.72037 25.1973 5.89629C25.2647 6.16283 25.3746 6.35623 25.527 6.47652C25.6794 6.59678 25.8515 6.63264 26.0434 6.58408C26.15 6.55712 26.2386 6.50919 26.3091 6.44033C26.3822 6.37075 26.4424 6.29457 26.4895 6.21176L26.8944 6.50067C26.7406 6.81186 26.4917 7.01094 26.1479 7.09794Z" fill="#0F1B20"/>
<path d="M27.3782 6.76491L26.9482 4.11067L27.5465 4.01367L27.8949 6.16313L28.9454 5.99295L29.0272 6.49774L27.3782 6.76491Z" fill="#0F1B20"/>
<path d="M30.3993 6.41797C30.0513 6.44509 29.7774 6.36304 29.5778 6.17178C29.3779 5.98053 29.2608 5.66014 29.2255 5.21062L29.1133 3.77155L29.722 3.72411L29.8388 5.22484C29.8596 5.48798 29.9133 5.66852 30.0011 5.76647C30.0889 5.86443 30.208 5.90755 30.3587 5.8958C30.5095 5.88402 30.6217 5.82286 30.6959 5.7123C30.7702 5.60171 30.7969 5.41487 30.7764 5.15172L30.6593 3.651L31.2433 3.60547L31.3554 5.04453C31.3904 5.49405 31.3254 5.82866 31.1608 6.04836C30.9985 6.26782 30.7448 6.39102 30.3993 6.41797Z" fill="#0F1B20"/>
<path d="M32.0771 6.27217L32.1388 3.58398L33.0583 3.60513C33.2451 3.60942 33.4124 3.6339 33.5598 3.67854C33.7073 3.72044 33.8241 3.79048 33.9099 3.8887C33.9957 3.98695 34.0362 4.12265 34.0326 4.2958C34.0296 4.41401 33.9953 4.53007 33.9297 4.64406C33.8667 4.75538 33.7796 4.83037 33.6687 4.86907L33.6684 4.88557C33.805 4.92447 33.9175 4.99718 34.0056 5.10371C34.0966 5.20757 34.1402 5.34881 34.1362 5.52747C34.1319 5.71163 34.0818 5.86036 33.9854 5.97366C33.8894 6.08695 33.7624 6.17066 33.6044 6.22476C33.4467 6.27613 33.2698 6.29959 33.0748 6.2951L32.0771 6.27217ZM32.7202 4.67402L33.0046 4.68055C33.153 4.68398 33.2609 4.65759 33.3282 4.60137C33.3982 4.54522 33.4345 4.46907 33.4368 4.37287C33.4391 4.26841 33.4064 4.19339 33.3388 4.14786C33.2711 4.10229 33.1656 4.07785 33.0227 4.07458L32.734 4.06795L32.7202 4.67402ZM32.6941 5.81609L33.0362 5.82394C33.3688 5.83159 33.5377 5.71447 33.5433 5.4726C33.546 5.35439 33.5067 5.26963 33.4255 5.21826C33.3441 5.16412 33.2197 5.13516 33.0521 5.1313L32.7099 5.12341L32.6941 5.81609Z" fill="#0F1B20"/>
</g>
<path d="M32.5001 44.4142C41.273 44.4142 48.3849 37.3023 48.3849 28.5294C48.3849 19.7564 41.273 12.6445 32.5001 12.6445C23.7271 12.6445 16.6152 19.7564 16.6152 28.5294C16.6152 37.3023 23.7271 44.4142 32.5001 44.4142Z" fill="#C22B26"/>
<path fill-rule="evenodd" clip-rule="evenodd" d="M41.2426 17.8428L36.5455 17.3798L32.5001 20.0249C30.4437 21.4288 29.7601 23.7361 30.4056 26.9183C29.6013 28.0513 28.3879 28.3659 27.2795 28.8902L27.1993 25.2671L26.3336 25.1709L27.1673 22.2212C27.1673 22.2212 28.1933 17.3317 28.2574 17.1874C28.3215 17.0431 29.4918 11.4803 29.4918 11.4803L30.4697 8.04962L29.5399 7.39235L30.8224 5.53274L32.9225 3.20821L35.3273 1.46079L34.7021 0.867645L31.9768 0.386719L29.588 1.52492L27.6162 2.21428L27.3917 4.60294L26.7344 6.76712L25.1794 7.216L24.49 9.12373L22.416 18.6813L21.7147 20.6101L20.888 21.086L19.5354 19.1071L14.0748 15.2496L12.6971 16.4269L11.62 13.1956L11.4447 9.263L10.2173 10.315L9.51592 11.9933L9.14018 13.0203L8.38873 14.5232L7.96289 15.6003L8.36368 16.477L9.84156 17.0281L11.1942 18.3056L10.4678 19.6833L12.8223 20.8856L16.1789 22.9396L18.0826 26.9475L17.7069 30.5629L19.6857 33.0844L22.3659 34.6625L25.3467 39.1963L20.5875 43.6549L21.0634 44.8323L19.31 46.3601L17.8572 47.1115L18.6086 49.0906L19.1597 51.0944L22.0653 52.2215L22.4912 50.9442L21.7648 49.867L21.6646 47.838L22.416 46.5356L24.0442 47.3873L29.5299 42.0018L33.1618 42.7029L36.744 42.0018L35.9926 46.7861L36.719 47.4373L35.2158 51.2949L36.6937 52.0713L40.0254 52.5473L42.5302 52.7475L42.4049 51.2949L40.2006 50.5432L39.1235 49.0653L39.3989 47.7127L40.8018 47.362L42.3047 42.603L44.008 36.591L42.9811 36.1404L42.2044 36.2153L41.6535 35.4139L43.1813 34.1616L45.0602 31.3811L46.2876 28.5292L46.8135 25.1439L46.5131 22.639L47.7654 20.7353L46.7885 17.6293L43.6823 16.9279L42.4299 17.8428H41.2426Z" fill="white"/>
<path d="M31.2534 58.6765C30.4857 58.6378 29.3244 58.529 29.1072 58.4753C29.0324 58.4568 28.7513 58.408 28.4823 58.3668C27.7897 58.2606 27.371 58.1837 27.1511 58.1225C27.0465 58.0933 26.7164 58.0131 26.4177 57.9442C26.1188 57.8752 25.851 57.7982 25.8227 57.7729C25.7943 57.7476 25.7312 57.727 25.6824 57.727C25.5619 57.727 24.164 57.2834 23.7553 57.1155C23.6955 57.0909 23.5 57.0145 23.3206 56.9457C23.1413 56.8768 22.9176 56.7854 22.8234 56.7424C22.7292 56.6995 22.6382 56.6644 22.6211 56.6644C22.519 56.6644 20.3602 55.5778 19.8161 55.2525C17.3931 53.804 15.4954 52.2498 13.7604 50.2933C12.4747 48.8435 11.633 47.6833 10.6841 46.053C10.1936 45.21 9.37827 43.5282 9.01611 42.6122C7.03765 37.6073 6.62882 32.0917 7.84402 26.7989C8.00464 26.0992 8.36726 24.7886 8.52261 24.3465C8.98018 23.0443 9.32607 22.2067 9.84949 21.1333C10.1015 20.6164 10.3077 20.1848 10.3077 20.174C10.3077 20.1633 10.2221 20.1025 10.1175 20.0391C9.83121 19.8652 9.85813 19.7014 10.2806 19.0465C10.4748 18.7454 10.6338 18.4691 10.6338 18.4324C10.6338 18.3322 10.0409 17.7874 9.61993 17.5011C9.41547 17.3619 8.98473 17.1152 8.66267 16.9527C7.77017 16.5024 7.48422 16.1049 7.55325 15.4107C7.58754 15.0658 7.70404 14.8212 8.08949 14.2847C8.41073 13.8374 8.49605 13.6308 8.8684 12.3974C9.38564 10.684 10.2999 9.13667 10.8995 8.95958C11.2561 8.85435 11.6868 9.02916 11.8082 9.32839C11.8728 9.48737 11.8812 9.72357 11.8537 10.5971C11.8097 11.9904 11.9023 13.0757 12.1529 14.1032C12.2333 14.4331 12.7 15.3896 12.7804 15.3896C12.8149 15.3896 12.9188 15.27 13.0113 15.124C13.2053 14.8176 13.5994 14.3829 13.6832 14.3829C13.7145 14.3829 13.849 14.4633 13.9819 14.5616L14.2238 14.7404L14.8059 14.1512C16.5478 12.3877 18.7767 10.7956 21.2287 9.56314C21.7219 9.31529 22.1742 9.09174 22.2339 9.06627C22.2937 9.0408 22.4527 8.97159 22.5871 8.91256C22.7216 8.85354 22.9539 8.75876 23.1033 8.70192C23.2527 8.64517 24.2712 8.24498 24.5137 7.36394C24.6264 6.95448 24.7536 6.60504 24.805 6.56394C24.8722 6.51018 25.0972 6.49454 25.657 6.50454L26.4177 6.51819L27.0627 4.52836L26.9669 3.84441C26.9095 3.43486 26.8866 3.07251 26.9097 2.94127C26.9821 2.53062 27.1499 2.15863 27.3546 1.95508C27.707 1.60456 27.9533 1.49805 29.336 1.09814C30.232 0.839024 30.8487 0.587271 31.3948 0.257756C31.9256 -0.0625736 32.215 -0.112051 32.5874 0.0537528C32.7842 0.141248 32.9135 0.158074 33.2182 0.135609C33.634 0.105049 33.9108 0.170898 34.1086 0.347434C34.1968 0.426197 34.3112 0.456848 34.5171 0.456848C34.8651 0.456848 35.2171 0.605643 35.437 0.845572C35.5854 1.00747 35.6 1.05785 35.6 1.40547C35.6 1.70852 35.5775 1.8132 35.4914 1.91225C35.4316 1.98091 34.9548 2.32807 34.4318 2.68378C33.9089 3.03949 33.293 3.47669 33.0632 3.65541C32.5313 4.06897 31.7769 4.8335 31.3418 5.39967C30.9977 5.84779 30.384 6.77512 30.4191 6.79422C30.4297 6.79995 30.4995 6.84243 30.5741 6.88854C30.6848 6.95693 31.0679 6.97931 32.6388 7.00941C34.7756 7.05043 35.8339 7.14629 37.4474 7.44525C37.9008 7.52929 38.6822 7.72229 39.6208 7.98195C39.7701 8.02324 40.0024 8.08727 40.1369 8.1242C40.2713 8.16113 40.4058 8.20988 40.4357 8.23261C40.4656 8.25526 40.5748 8.29255 40.6784 8.31538C40.782 8.33821 40.9043 8.37668 40.9501 8.40087C40.9959 8.42507 41.2534 8.52584 41.5224 8.62479C41.7913 8.72375 42.114 8.85172 42.2393 8.90929C42.3647 8.96677 42.4792 9.01379 42.4936 9.01379C42.5788 9.01379 44.4468 9.94095 44.8639 10.1903C44.9984 10.2706 45.3162 10.4575 45.5702 10.6053C46.6967 11.2612 48.2201 12.3967 49.4279 13.4806C50.0175 14.0096 51.1754 15.2077 51.7594 15.893C52.6301 16.9148 53.9043 18.7536 54.4528 19.7799C54.5678 19.9953 54.7224 20.2847 54.7964 20.4231C55.0833 20.96 55.5903 22.0524 55.8089 22.6043C55.8881 22.8042 55.9744 23.0182 56.0009 23.0797C56.1923 23.5261 56.6029 24.7544 56.814 25.5126C56.8783 25.7432 56.9665 26.0545 57.0099 26.2041C57.0534 26.3537 57.089 26.5239 57.089 26.5823C57.089 26.6407 57.1123 26.7322 57.1408 26.7857C57.1693 26.8391 57.2195 27.0338 57.2524 27.2184C57.2853 27.4029 57.3481 27.7427 57.3921 27.9733C57.6828 29.4988 57.8796 31.7936 57.8338 33.1222C57.7922 34.3245 57.701 35.6482 57.6353 35.999C57.6066 36.1528 57.5575 36.4674 57.5262 36.6981C57.4281 37.4226 57.2498 38.3721 57.0956 38.9911C56.905 39.7567 56.7076 40.4641 56.6583 40.559C56.6339 40.6062 56.5953 40.7311 56.5728 40.8368C56.5503 40.9424 56.5124 41.0675 56.4887 41.1146C56.4651 41.1617 56.392 41.3639 56.3265 41.5639C56.2147 41.9047 56.1154 42.1683 56.0001 42.4307C55.9731 42.4922 55.9041 42.6684 55.8468 42.8222C55.482 43.8008 54.7134 45.3393 53.976 46.5667C52.566 48.9139 50.5379 51.2463 48.3412 53.0471C47.5211 53.7194 46.0043 54.7667 45.0964 55.2876C44.3082 55.7398 42.7118 56.5525 42.6118 56.5525C42.595 56.5525 42.4546 56.6155 42.2998 56.6923C42.1449 56.7693 41.9922 56.833 41.9605 56.834C41.9287 56.8351 41.8049 56.8846 41.6853 56.944C41.5658 57.0035 41.4267 57.0529 41.3762 57.0539C41.3256 57.055 41.2705 57.0789 41.2536 57.107C41.2368 57.135 41.1254 57.175 41.0062 57.1957C40.887 57.2164 40.7774 57.2535 40.7626 57.2781C40.7478 57.3027 40.6438 57.3405 40.5314 57.3622C40.419 57.3837 40.3026 57.4206 40.2727 57.4442C40.2429 57.4677 40.1206 57.514 40.001 57.547C39.8815 57.58 39.6492 57.6485 39.4849 57.6992C37.8283 58.2107 35.813 58.5511 33.6983 58.6765C32.7628 58.7319 32.3528 58.732 31.2534 58.6765ZM41.8267 52.2928C41.8843 52.1968 41.8348 51.974 41.7175 51.8022C41.6495 51.7026 41.5305 51.6448 41.2746 51.5872C40.3877 51.3878 39.794 51.112 39.2418 50.6431C38.8064 50.2734 38.5913 49.9771 38.4694 49.5792C38.3822 49.2944 38.3822 49.2507 38.4702 48.818C38.5214 48.5657 38.577 48.3064 38.5936 48.242C38.6223 48.131 38.5957 48.1224 38.0901 48.0784C37.7964 48.053 37.3866 48.0301 37.1795 48.0278L36.8028 48.0235L36.7574 48.2192C36.6413 48.7193 36.4908 49.2116 36.3555 49.5336C36.1511 50.0201 35.9066 50.6823 35.8478 50.9085C35.7631 51.2347 35.8644 51.5187 36.1266 51.6898C36.2937 51.7989 36.3575 51.8049 37.0221 51.7738C37.4348 51.7545 37.9062 51.7657 38.1359 51.8001C38.4808 51.852 38.7036 51.9239 39.5548 52.2578C39.8289 52.3653 40.3166 52.4072 41.0549 52.3868C41.5816 52.3721 41.7948 52.3462 41.8269 52.2928H41.8267ZM21.7357 51.5229C21.8416 51.4138 21.7129 51.183 21.4407 50.9944C21.0778 50.7428 21.0213 50.6491 20.9275 50.1447C20.8262 49.5998 20.8272 48.9796 20.9304 48.2721C21.0241 47.6303 21.168 47.2922 21.4954 46.9449C21.6177 46.8152 21.7178 46.6932 21.7178 46.6737C21.7178 46.6542 21.6605 46.5851 21.5905 46.52C21.444 46.3837 20.9346 45.7511 20.8581 45.6105C20.8137 45.5287 20.7484 45.568 20.3809 45.898C19.7923 46.4264 19.4053 46.6711 18.88 46.8468C18.4043 47.0059 18.2404 47.1381 18.2404 47.3623C18.2404 47.5405 18.2951 47.6408 18.6895 48.1858C19.1357 48.8024 19.2999 49.1925 19.4099 49.8971C19.5142 50.5651 19.6556 50.8851 20.0003 51.2332C20.3117 51.5479 20.5924 51.634 21.1991 51.601C21.4667 51.5864 21.7081 51.5513 21.7357 51.5229ZM49.1202 50.1507C52.1849 47.0053 54.285 43.298 55.3946 39.075C56.1122 36.3437 56.3612 33.3813 56.1114 30.5461C55.7564 26.5149 54.3438 22.4523 52.1544 19.1647C51.9291 18.8264 51.6699 18.4489 51.5783 18.3258C51.0441 17.6078 50.5527 16.9917 50.2398 16.6479C50.0438 16.4327 49.8482 16.2126 49.8051 16.1589C49.4486 15.7148 47.7722 14.1926 46.7928 13.4238C45.2235 12.192 42.7949 10.8433 40.8704 10.1349C40.6014 10.0359 40.3439 9.93512 40.2981 9.91093C40.2523 9.88674 40.1301 9.84827 40.0264 9.82544C39.9228 9.80261 39.8136 9.76459 39.7837 9.74085C39.7538 9.71721 39.6194 9.67109 39.4849 9.63835C39.3504 9.60561 39.0937 9.53794 38.9143 9.48801C37.3072 9.04035 35.8869 8.80042 34.133 8.68046C33.2204 8.61806 30.8437 8.60724 30.7575 8.66518C30.6812 8.71629 30.2171 10.1349 30.0121 10.9433C29.9966 11.0049 29.9439 11.1936 29.8953 11.3628C29.7834 11.7514 29.6656 12.1985 29.5713 12.5932C29.5308 12.7624 29.4569 13.0518 29.407 13.2364C29.3154 13.575 29.2969 13.6661 29.1347 14.5786C28.9713 15.4985 28.8867 16.0269 28.808 16.62C28.6342 17.9299 28.5877 18.4067 28.4844 18.8012C27.468 22.6863 26.8795 24.7296 26.8795 24.7296H27.2222C27.717 24.7296 27.7442 24.766 27.682 25.3448C27.6539 25.6063 27.512 26.5237 27.4935 27.1373C27.4607 28.2297 27.4622 28.253 27.5694 28.253C27.6296 28.253 27.9633 28.105 28.311 27.924C28.6588 27.7431 28.9862 27.5815 29.0388 27.5649C29.0914 27.5481 29.3055 27.4702 29.5146 27.3916C29.7238 27.3129 29.9405 27.2481 29.9961 27.2475C30.0835 27.2465 30.0714 27.1089 30.0592 27.0365C30.0002 26.6859 29.7109 25.7126 29.6423 25.1439C29.5818 24.6409 29.5287 24.1166 29.6478 23.6242C29.8031 22.9823 30.1187 21.994 30.5741 21.2927C31.0347 20.5837 31.9255 19.7577 32.4111 19.3699C32.8791 18.9962 33.4771 18.5032 34.0787 18.18C34.8841 17.7475 36.0937 16.8756 37.2436 16.7747C38.5028 16.6643 41.5255 17.4248 41.6341 17.5174C41.738 17.6063 41.8079 17.5439 42.2039 17.0085C43.0538 15.8591 43.9317 15.3355 45.0198 15.3289C45.562 15.3257 45.6916 15.3438 46.1136 15.4819C46.9185 15.7453 47.708 16.3996 48.1621 17.1793C48.8508 18.3621 48.8972 19.6077 48.2996 20.8705C48.0964 21.2999 47.9693 21.4824 47.6377 21.8213C47.4121 22.052 47.1601 22.2884 47.078 22.3465C46.9097 22.4655 46.8961 22.5832 47.0127 22.9119C47.0564 23.035 47.1291 23.4717 47.1744 23.8826C47.2484 24.5543 47.2481 24.7175 47.1714 25.5045C47.1246 25.9857 47.0736 26.4172 47.0582 26.4633C47.0427 26.5095 46.9957 26.736 46.9536 26.9667C46.7923 27.8496 46.7226 28.339 46.4659 28.9801C45.8002 30.6428 45.4831 31.9121 43.0709 34.8263C42.9626 34.9571 42.9227 35.0231 42.7416 35.215C42.5607 35.407 42.3732 35.6218 42.3253 35.6923L42.238 35.8205L42.4779 35.781C43.3945 35.7472 43.3919 35.7872 43.8497 36.1045L44.1123 36.3217L44.3447 36.2023C44.6323 36.0544 45.0405 35.9933 45.2817 36.1918C45.6413 36.4876 46.2924 37.3457 46.5024 37.9776C46.7123 38.6094 46.6397 39.5542 46.5416 39.9831C46.3436 40.8483 46.0494 41.337 45.5275 41.9618C44.5384 43.1456 42.9032 43.2562 42.609 43.2212C42.2049 43.173 42.2483 43.096 42.0128 44.2763C41.9637 44.5224 41.9002 44.8245 41.8717 44.9474C41.8432 45.0705 41.7578 45.4983 41.682 45.8982C41.4133 47.3145 41.2828 47.8211 41.1707 47.8829C40.9863 47.9845 40.335 48.1074 39.9814 48.1074C39.6256 48.1074 39.4849 48.1643 39.4849 48.3083C39.4849 48.3474 39.6814 48.4149 39.9603 48.4717C40.442 48.5698 42.1658 48.9017 43.7836 49.3567C45.4691 49.8306 47.0469 50.4286 47.3632 50.5525C47.8552 50.7451 48.2717 50.8956 48.3231 50.8993C48.3581 50.9018 48.7167 50.5649 49.1202 50.1507ZM16.7879 50.3781C17.5756 49.9999 17.9341 49.8382 18.0545 49.8071C18.1275 49.7882 18.4881 49.3948 17.9406 48.6387C17.4831 48.0069 17.3738 47.7671 17.3723 47.3921C17.3697 46.7546 17.6806 46.4458 18.7917 45.9821C19.2568 45.788 19.6585 45.4612 20.0504 44.9579L20.3035 44.6328L20.1746 44.3707C19.9441 43.902 19.912 43.6955 20.0372 43.4871C20.0971 43.3873 20.1681 43.2974 20.1947 43.2876C20.2214 43.2777 20.3732 43.1438 20.5323 42.99C20.6914 42.8362 21.0171 42.5344 21.2561 42.3193C21.495 42.1043 21.7029 41.9143 21.7178 41.897C21.7327 41.8798 22.2095 41.4393 22.7773 40.918C23.3451 40.3967 24.0164 39.7656 24.269 39.5157L24.7284 39.0611L24.1196 38.4011C23.7847 38.0381 23.5108 37.7157 23.5108 37.6845C23.5108 37.6535 20.7469 34.2091 20.1263 33.8936C19.5939 33.6229 19.4877 33.5589 19.1604 33.3123C17.9185 32.3761 17.325 31.4187 17.203 30.1545C17.116 29.2538 17.2436 28.249 17.5425 27.4806L17.6581 27.1836L17.4272 26.5324C17.3001 26.1742 17.1404 25.7542 17.0721 25.5991C17.0039 25.4438 16.8707 25.1411 16.7762 24.9265C16.5225 24.3498 16.2955 24.0276 15.7357 23.4498C15.2287 22.9264 14.8553 22.6331 14.3556 22.3659C13.9501 22.149 11.7344 21.0383 11.7073 21.0383C11.6405 21.0383 10.6507 23.1902 10.3826 23.9186C10.2806 24.1954 10.1747 24.4723 10.1472 24.5339C10.1196 24.5953 10.0442 24.8218 9.97955 25.0372C9.91488 25.2525 9.84048 25.479 9.8142 25.5405C9.78782 25.6021 9.7429 25.753 9.71434 25.8761C9.60465 26.3476 9.53617 26.6072 9.49287 26.715C9.46823 26.7765 9.41866 26.9779 9.38282 27.1624C9.34699 27.347 9.28214 27.6616 9.23876 27.8615C9.12379 28.3906 9.01574 29.073 8.91097 29.9309C8.73762 31.3497 8.79091 34.9642 9.00456 36.2786C9.25731 37.8339 9.38873 38.4797 9.61929 39.2987C9.66258 39.4525 9.7509 39.7671 9.81557 39.9979C9.88023 40.2285 9.95317 40.4559 9.97764 40.503C10.0022 40.5502 10.0399 40.6715 10.0614 40.7724C10.083 40.8735 10.1348 41.0237 10.1766 41.1062C10.2185 41.1887 10.2529 41.288 10.253 41.3269C10.2532 41.3658 10.2768 41.4413 10.3054 41.4947C10.3341 41.5481 10.4783 41.8939 10.6259 42.2629C11.1249 43.5103 11.9124 45.035 12.6916 46.2618C12.9845 46.7229 13.8512 47.9359 14.0904 48.2192C14.1552 48.2962 14.3354 48.5101 14.4907 48.6946C14.6461 48.8792 15.094 49.3783 15.4861 49.8038C16.2856 50.6714 16.2292 50.6464 16.7879 50.3781ZM22.4785 48.589C24.3042 48.2081 33.1159 47.6759 34.4862 47.7904C35.0988 47.8416 35.6306 47.8835 35.6679 47.8836C35.7053 47.8836 35.7359 47.8236 35.7359 47.75C35.7359 47.64 35.6928 47.6033 35.4914 47.5421C35.2204 47.4597 35.2159 47.4463 35.3042 46.9825C35.3357 46.8169 35.3968 46.4736 35.44 46.2198C35.4832 45.9661 35.5567 45.5383 35.6035 45.269C35.7473 44.4402 35.8493 43.7343 35.882 43.3395C35.9175 42.913 35.8997 42.8978 35.5332 43.0435C34.9451 43.2772 33.6778 43.3972 32.7113 43.3106C31.8722 43.2355 30.9813 43.0652 30.6013 42.9073C30.5416 42.8825 30.2803 42.7926 30.0206 42.7077L29.5485 42.5531L28.606 43.4707C28.0877 43.9753 27.4567 44.577 27.2038 44.8076C26.9509 45.0384 26.5708 45.3907 26.3592 45.5906C26.1475 45.7906 25.7939 46.1178 25.5735 46.3177C25.3531 46.5176 24.8859 46.9644 24.5353 47.3104C24.1848 47.6565 23.8604 47.9396 23.8146 47.9396C23.6937 47.9396 23.1694 47.6924 22.799 47.4609C22.4322 47.2315 22.3452 47.239 22.1044 47.5213C21.9118 47.7471 21.8272 48.0241 21.8267 48.43C21.8265 48.706 21.8343 48.7231 21.9487 48.6994C22.0159 48.6854 22.2543 48.6358 22.4785 48.589ZM40.2511 47.0482C40.4988 46.9839 40.5018 46.9804 40.5699 46.6645C40.6743 46.1807 40.7687 45.7321 40.8962 45.1152C40.9596 44.8076 41.0337 44.4679 41.0605 44.3603C41.2055 43.7802 41.3409 43.0661 41.3177 43.0045C41.3032 42.9658 41.1782 42.8912 41.04 42.8388C40.7903 42.7442 40.3451 42.4568 39.7385 41.9988C39.4233 41.7608 39.4194 41.7596 38.9778 41.7672C38.5136 41.7752 38.0428 41.9155 37.2461 42.2835L36.8937 42.4462L36.8574 42.802C36.8123 43.2444 36.689 44.1632 36.581 44.8636C36.5359 45.1558 36.4628 45.634 36.4186 45.9263C36.3744 46.2185 36.3223 46.5485 36.3028 46.6597C36.2596 46.9063 36.2512 46.9031 37.3387 47.0466C38.1941 47.1595 39.8189 47.1605 40.2511 47.0482ZM24.3654 46.1991C26.897 43.8476 27.4085 43.3664 27.9776 42.8017C28.3299 42.4521 28.6178 42.1501 28.6173 42.1306C28.6169 42.1111 28.3903 41.9733 28.1136 41.8243C27.4906 41.4888 26.5589 40.8366 25.8771 40.2589L25.3602 39.821L24.6906 40.4267C24.0246 41.0293 21.927 42.9594 21.3164 43.5314L20.9966 43.8311L21.1888 44.2593C21.5378 45.0369 22.0479 45.6995 22.6558 46.1647C23.0582 46.4729 23.6192 46.8204 23.6863 46.8032C23.7081 46.7977 24.0137 46.5258 24.3654 46.1991ZM34.6764 42.2074C35.0284 42.118 35.722 41.8741 36.076 41.7151C36.177 41.6699 36.2151 41.6204 36.1924 41.5639C36.174 41.5177 36.0898 41.266 36.0054 41.0045C35.6105 39.7816 35.14 38.4797 34.8533 37.8167C34.5723 37.1669 34.0958 36.1948 34.0581 36.1948C34.035 36.1948 33.888 36.3573 33.7314 36.556L33.4466 36.9173L33.5867 37.1631C33.8217 37.576 34.1275 38.604 34.0133 38.5971C33.9894 38.5955 33.7866 38.3656 33.5625 38.0858C33.1265 37.5416 32.5632 37.0661 32.1227 36.8703C31.9732 36.8039 31.7837 36.7192 31.7015 36.6822C31.6193 36.6451 31.5598 36.5895 31.5694 36.5586C31.579 36.5277 31.7685 36.3911 31.9906 36.2553C32.2998 36.0659 32.6553 35.7387 33.5096 34.857C34.123 34.224 34.7671 33.5369 34.9409 33.3304L35.2569 32.9547L35.1429 32.7899C34.9783 32.5521 34.5323 32.152 34.1147 31.8676C33.6696 31.5645 32.9157 31.1342 32.6788 31.048L32.503 30.9841L31.0819 32.4289C28.9034 34.6438 28.5973 35.1175 28.5946 36.2786C28.593 36.9383 28.7266 37.3988 29.1681 38.2557C29.5445 38.9862 30.3961 40.2458 30.8654 40.7661C30.9551 40.8656 31.0132 40.9628 30.9943 40.9822C30.8892 41.0904 29.5637 40.2224 29.0566 39.7132C28.2964 38.9499 27.8176 38.0563 27.561 36.9218C27.4546 36.4516 27.456 36.094 27.5657 35.6391C27.7816 34.7446 28.3501 33.9302 29.7399 32.5247L30.5209 31.735L30.1329 31.5251C29.5619 31.2163 28.6633 30.5832 28.2874 30.225L27.9586 29.9116L27.6771 30.0132C25.9385 30.6409 24.5012 32.1037 23.322 34.4454L23.0623 34.9612L23.1862 35.2755C23.499 36.0689 24.5635 37.5547 25.5483 38.5724C27.4179 40.5046 29.9183 41.8989 32.2585 42.3141C32.6052 42.3757 34.3099 42.3003 34.6764 42.2074ZM37.436 41.2115C37.6049 41.1368 37.6052 41.0783 37.4397 40.3614C37.3169 39.8293 36.9398 38.4789 36.8384 38.2082C36.8211 38.162 36.7529 37.9704 36.6868 37.7824C36.5175 37.3012 36.4513 37.1462 36.1415 36.5073C35.7643 35.7292 35.2277 34.7426 35.1811 34.7416C35.137 34.7405 34.6447 35.2707 34.5773 35.3919C34.5489 35.4432 34.581 35.5572 34.6664 35.7076C34.9661 36.2358 35.097 36.4979 35.3894 37.1555C35.8838 38.2675 36.2923 39.3363 36.7219 40.641C36.8435 41.0102 36.9533 41.33 36.9661 41.352C36.9886 41.3905 37.1215 41.351 37.436 41.2115ZM38.734 40.7172C38.734 40.7172 38.9455 40.669 39.0919 40.669C39.2383 40.669 39.3726 40.654 39.3904 40.6357C39.4082 40.6174 39.3756 40.523 39.3182 40.426C39.1799 40.1927 39.1807 39.8312 39.3197 39.6775C39.4833 39.4967 39.6303 39.5741 39.8087 39.9352C39.9575 40.2366 40.1458 40.4542 40.4837 40.7156C40.7082 40.8891 41.1109 40.883 41.3144 40.7029C41.4347 40.5963 41.4655 40.5215 41.4655 40.336C41.4655 40.1153 41.4403 40.0787 40.9868 39.6404C40.5691 39.2367 40.5104 39.157 40.5263 39.0145C40.5442 38.8529 40.5475 38.8514 40.8703 38.8629C41.0496 38.8693 41.4189 38.8906 41.6911 38.9101C42.134 38.942 42.2103 38.9328 42.4206 38.8224C42.6954 38.6782 43.1881 38.2136 43.3469 37.9491C43.408 37.8475 43.515 37.6144 43.5848 37.4312C43.6957 37.1398 43.7021 37.0841 43.6361 36.987C43.5304 36.8317 43.047 36.4744 42.9426 36.4744C42.8949 36.4744 42.7204 36.5499 42.5547 36.6422C42.3889 36.7345 42.2139 36.81 42.1656 36.81C42.1174 36.81 41.9697 36.7074 41.8376 36.582C41.5828 36.3404 41.2187 36.1421 41.0256 36.1401C40.9616 36.1393 40.7868 36.2521 40.6373 36.3905C40.2293 36.768 40.1281 36.718 40.1736 36.1611C40.1859 36.0105 40.1713 35.8494 40.1412 35.8033C40.0684 35.6919 39.6438 35.7031 39.3218 35.8247C39.1874 35.8755 38.9245 35.9329 38.7377 35.9522L38.3981 35.9872L38.3986 36.3287C38.3995 36.7679 38.4914 37.1093 38.7765 37.7317C39.0288 38.2828 39.0233 38.3914 38.7414 38.4208C38.6058 38.4348 38.506 38.369 38.1258 38.0152C37.7149 37.6329 37.5287 37.5149 37.5287 37.6371C37.5287 37.6613 37.5993 37.8941 37.6857 38.1544C37.772 38.4147 37.8842 38.7787 37.9352 38.9632C37.986 39.1478 38.0589 39.4121 38.0973 39.5505C38.1356 39.6889 38.2113 40.0343 38.2654 40.3179C38.3622 40.8253 38.3661 40.8332 38.5031 40.7995C38.5798 40.7808 38.6837 40.7437 38.734 40.7172ZM37.4675 34.8252C37.4123 34.5519 37.3562 34.4448 37.1619 34.242C36.6162 33.6722 36.5983 33.3052 37.0869 32.7C37.3202 32.411 37.3411 32.3209 37.1822 32.2892C37.0419 32.2612 36.735 32.53 36.568 32.827C36.3722 33.1754 36.0823 33.6061 35.8906 33.8338C35.8055 33.9348 35.7359 34.0457 35.7359 34.0803C35.7359 34.1147 35.9189 34.4398 36.1426 34.8026C36.3663 35.1654 36.6721 35.7136 36.8222 36.0209C37.0891 36.5677 37.0993 36.5799 37.2983 36.5969L37.5017 36.6142L37.5183 35.8872C37.5282 35.4542 37.5077 35.0246 37.4675 34.8252ZM39.0056 35.0706C39.3387 34.9831 39.7807 34.6399 40.2362 34.1149C40.3545 33.9786 40.3575 33.9587 40.2816 33.8096C40.1771 33.6041 39.8179 33.1747 39.7506 33.1747C39.7221 33.1747 39.6837 33.2187 39.6652 33.2725C39.5916 33.4874 39.4152 33.6221 39.2074 33.6221C39.0311 33.6221 38.9756 33.5875 38.802 33.3695C38.5315 33.0296 38.1196 32.835 37.9123 32.9493C37.8106 33.0053 37.5289 33.38 37.5289 33.4593C37.5289 33.4786 37.6628 33.5859 37.8265 33.6978C38.2278 33.9721 38.3439 34.2129 38.3439 34.7713V35.1979L38.5748 35.1605C38.7018 35.14 38.8956 35.0995 39.0056 35.0706ZM42.7202 33.8318C43.8562 32.6573 44.4923 31.7206 44.9892 30.4901C45.7209 28.6785 46.0544 27.3236 46.2559 25.3428C46.3445 24.4727 46.3447 24.3819 46.2587 23.8102C46.1267 22.9317 46.0628 22.8952 45.6936 23.4882C45.3783 23.9944 45.0755 24.1054 44.6159 23.8831L44.369 23.7636L44.2226 23.9047C44.0469 24.0737 43.7658 24.2262 43.6296 24.2262C43.5753 24.2262 43.2623 24.5052 42.9341 24.8463C42.2318 25.5761 41.418 26.3189 40.7694 26.8225C39.9197 27.4821 38.6479 28.1969 37.8277 28.4758C37.6186 28.547 37.3956 28.6246 37.3324 28.6482C37.2448 28.6809 37.2096 28.7553 37.1838 28.9614C37.1086 29.5631 37.089 29.5118 37.393 29.5081C38.1705 29.4985 39.0543 29.2767 39.8167 28.8996C41.0402 28.2945 41.3956 28.0083 43.7336 25.745C43.9038 25.5802 44.0697 25.4545 44.1024 25.4656C44.1689 25.4885 43.7012 26.47 43.376 26.9902C43.2623 27.1722 42.978 27.522 42.7444 27.7673L42.3196 28.2134L42.2842 28.6107C42.2647 28.8293 42.2121 29.1432 42.1674 29.3082C42.0606 29.7028 42.089 29.7631 42.3815 29.7631C42.7869 29.7631 43.8076 30.2021 43.6875 30.3248C43.6622 30.3508 43.4581 30.3972 43.2339 30.4279C42.1708 30.5737 41.8047 30.6913 41.5145 30.9802C41.4292 31.0651 41.1542 31.3934 40.9034 31.7096C40.6526 32.0259 40.4007 32.3183 40.3435 32.3595C40.2452 32.4304 40.2585 32.457 40.5868 32.8465C41.0424 33.3872 41.3402 33.8109 41.5808 34.2615C41.6946 34.4747 41.813 34.6288 41.8631 34.6288C41.9104 34.6288 42.2962 34.2702 42.7202 33.8318ZM21.8441 32.7692C22.3443 31.7369 23.2101 30.6469 24.0678 29.9698C24.4873 29.6386 24.475 29.7238 24.2403 28.781C24.0662 28.0817 23.9671 27.7863 23.7505 27.3222L23.5641 26.9228L23.225 27.0295C22.7499 27.1789 21.5781 27.7874 20.9139 28.2296C20.6062 28.4345 20.3445 28.5919 20.3325 28.5794C20.282 28.5275 20.9159 27.7361 21.4461 27.189C22.5975 26.001 23.7994 25.3086 25.2766 24.9821C25.5157 24.9293 25.748 24.8672 25.7928 24.844C25.8376 24.8209 25.9183 24.6283 25.9719 24.4162C26.1932 23.5425 26.4089 22.786 26.6676 21.9775C27.522 19.3072 27.5235 19.3006 27.8834 16.62C28 15.7514 28.1211 14.9948 28.219 14.5227C28.2637 14.3074 28.337 13.9551 28.3818 13.7397C28.4905 13.2184 28.7627 12.0703 28.9257 11.4467C29.1533 10.5754 29.5578 9.18305 29.7103 8.74603C29.767 8.58341 29.8135 8.43907 29.8135 8.42525C29.8135 8.35421 28.5087 7.88982 28.0168 7.78559C27.4102 7.65717 26.4553 7.54202 25.9558 7.53693L25.4397 7.53174L25.2415 8.14694C25.1325 8.48527 24.9895 8.95094 24.9234 9.1816C24.8575 9.41234 24.7675 9.7143 24.7236 9.85272C24.5113 10.5209 24.0013 12.5168 23.7874 13.516C23.7215 13.8236 23.6446 14.176 23.6165 14.299C23.5664 14.5178 23.4689 15.0247 23.3474 15.6972C23.1926 16.5543 23.0211 17.8125 23.0544 17.8468C23.0683 17.8611 23.3295 17.6198 23.6348 17.3105C24.2774 16.6598 25.2595 15.8847 25.3385 15.966C25.3728 16.0013 25.1367 16.3523 24.4803 17.2417C22.4724 19.9622 22.2082 20.3331 21.5112 21.41C20.7408 22.6005 20.353 23.2791 19.7898 24.422C18.7257 26.5814 18.2893 27.7692 18.1616 28.8538C18.0263 30.0027 18.203 30.8121 18.7483 31.5417C19.272 32.2422 19.9465 32.7082 21.3374 33.3301C21.4122 33.3635 21.4881 33.3925 21.5063 33.3946C21.5244 33.3967 21.6765 33.1153 21.8441 32.7692ZM39.7609 31.7251C40.1153 31.2057 41.2689 29.5825 41.3424 29.1073C41.3576 29.0086 41.1381 29.1101 41.0457 29.1479C40.5837 29.3363 39.0254 30.0261 38.5704 30.238C38.4757 30.2821 38.2822 30.2847 38.3152 30.4197C38.3342 30.4976 38.9753 32.0063 39.2163 32.2238C39.399 32.3888 39.6222 31.9284 39.7609 31.7251ZM35.522 30.8491C35.6406 30.6908 35.8423 30.3503 35.9703 30.0923C36.5987 28.8253 36.5333 28.1668 35.6858 27.2264C35.4648 26.9813 35.1018 26.725 35.0354 26.7672C35.0109 26.7827 34.9773 26.9913 34.9604 27.2306C34.9391 27.5349 34.8773 27.8004 34.755 28.1132C34.4585 28.8712 34.3476 28.9264 33.9112 28.5334C33.7467 28.3852 33.5496 28.2477 33.4734 28.2281C33.3242 28.1895 33.1822 28.2734 33.1822 28.4C33.1822 28.5235 33.4284 29.0148 33.6059 29.2455C33.8125 29.514 33.9004 29.8494 33.8786 30.2858L33.8614 30.6291L34.1609 30.7974C34.3256 30.8899 34.5935 31.0594 34.7562 31.1741L35.052 31.3827L35.1792 31.2598C35.2491 31.1922 35.4034 31.0074 35.522 30.8491ZM31.4322 30.8096C31.5579 30.6777 31.8715 30.2559 31.9555 30.1406C32.0837 29.9647 32.1407 29.9309 32.3084 29.9309C32.4184 29.9309 32.7156 30.054 32.8426 30.0749C33.0606 30.1108 33.0733 30.1054 33.0696 29.9799C33.0675 29.9068 33.0184 29.7714 32.9609 29.6791C32.9032 29.5869 32.8254 29.4485 32.7881 29.3715C32.5785 28.9412 32.552 28.9241 32.0925 28.9241C31.8586 28.9241 31.6554 28.9439 31.641 28.968C31.6072 29.0243 31.7538 29.5213 31.7717 29.6644C31.8409 30.2167 29.5371 29.9331 29.3652 29.9191C29.0149 29.8906 28.9551 29.9627 29.2166 30.0986C29.3054 30.1448 29.7144 30.3554 30.1255 30.5665C30.5366 30.7778 30.9096 30.9714 30.9545 30.9967C31.1105 31.085 31.205 31.0479 31.4322 30.8096ZM25.9431 28.704C26.22 28.579 26.4706 28.4768 26.5 28.4768C26.5311 28.4768 26.5542 28.2602 26.5552 27.9594C26.5562 27.6748 26.5906 27.0519 26.6318 26.5752C26.6729 26.0984 26.7013 25.7028 26.695 25.6959C26.6661 25.6651 25.5675 25.8901 25.2223 25.9976C24.7356 26.1491 24.6447 26.1957 24.6752 26.2777C24.6911 26.3205 24.743 26.4994 24.7903 26.6751C24.8376 26.8508 24.8972 27.0576 24.9226 27.1344C24.9655 27.2637 25.096 27.8732 25.2499 28.6626C25.2906 28.8715 25.336 28.978 25.3765 28.9597C25.4112 28.944 25.6662 28.8288 25.9431 28.704ZM31.9583 27.9492C32.4073 27.879 32.459 27.8575 32.6103 27.6777C32.7007 27.5703 32.8281 27.4544 32.8934 27.4203C33.0527 27.3369 33.4884 27.3459 33.7384 27.4376C33.9388 27.5113 33.9426 27.51 34.0237 27.3428C34.339 26.6919 33.7536 24.4475 33.0555 23.6311L32.8469 23.3873H33.0716C33.1952 23.3873 33.3745 23.4285 33.4701 23.4788C33.6604 23.579 34.0678 23.8922 34.097 23.9608C34.1071 23.9844 34.1608 24.0288 34.2164 24.0595C34.3135 24.1129 34.3161 24.0783 34.2846 23.1344C34.2563 22.2876 34.2627 22.1579 34.3313 22.185C34.4417 22.2287 34.7843 22.857 34.8971 23.2232C34.9487 23.3903 35.0101 23.5492 35.0335 23.5763C35.1014 23.6545 36.5942 22.0704 37.0127 21.4761C37.3825 20.9508 37.5743 20.7562 37.5137 20.9676C37.4981 21.0219 37.4203 21.2928 37.3408 21.5697C36.9688 22.8644 36.2198 24.0442 35.2922 24.7962C35.0581 24.9861 34.8723 25.1505 34.8665 25.1564C34.4014 25.6371 36.1834 26.7461 36.976 26.185C37.4804 25.8278 38.5987 25.3882 38.7472 25.2732C38.8559 25.1891 38.9936 24.7982 38.995 24.5698C38.9971 24.2611 39.6077 21.727 39.8963 20.8301C40.1669 19.9892 40.5752 18.9038 40.7727 18.5008C40.846 18.3509 40.8858 18.2078 40.8611 18.1828C40.7768 18.0976 39.9453 17.8868 38.8872 17.6824C38.1956 17.5489 38.0228 17.5457 37.5458 17.6577C35.9758 18.0263 33.7006 19.3562 32.2449 20.7562C31.4687 21.5027 30.8641 22.4816 30.6601 23.3219C30.4781 24.0719 30.585 25.2676 30.9559 26.6311C31.0082 26.8229 31.264 27.7383 31.3195 27.9314C31.3525 28.0468 31.336 28.0464 31.9583 27.9492ZM37.5935 27.7148C38.835 27.2561 39.9667 26.5503 41.1149 25.5186C41.7295 24.9663 42.4734 24.2136 42.4715 24.1462C42.4704 24.1133 42.3647 24.0208 42.2361 23.9406L42.0025 23.7948L41.7081 24.0711C40.9967 24.7388 40.2269 25.3342 39.3762 25.8748C38.8113 26.2338 37.1721 27.0768 37.0367 27.0778C36.9901 27.0781 36.9076 27.1119 36.8534 27.1527C36.7593 27.2235 36.7609 27.2367 36.8878 27.4463C36.9608 27.567 37.0364 27.7098 37.0558 27.7636C37.1011 27.8905 37.1233 27.8885 37.5935 27.7148ZM18.4659 24.9812C18.8779 23.8976 19.433 22.8046 20.0445 21.8727C20.2177 21.6088 20.3594 21.3571 20.3594 21.3135C20.3593 21.1392 20.0325 20.54 19.7214 20.1435C19.2039 19.4841 18.639 19.037 16.8937 17.9053C16.1707 17.4364 14.7389 16.411 14.225 15.994C13.8357 15.6782 13.8191 15.6708 13.7165 15.7663C13.5889 15.885 12.6282 17.1826 12.163 17.8644C11.9793 18.1335 11.6823 18.5686 11.5031 18.8313C11.3237 19.0939 11.1771 19.3196 11.1771 19.3329C11.1771 19.3729 13.2569 20.7027 13.3195 20.7027C13.3292 20.7027 13.5296 20.8117 13.7648 20.9449C14.0001 21.0781 14.4847 21.3455 14.8417 21.5391C15.7853 22.0508 16.3307 22.4398 16.7667 22.9122C17.1757 23.3554 17.4235 23.8008 17.8557 24.8694C17.9801 25.177 18.1079 25.4916 18.1396 25.5685C18.1969 25.7075 18.1976 25.707 18.2784 25.4846C18.323 25.3615 18.4074 25.135 18.4659 24.9812ZM40.4146 24.0163C40.642 23.8395 40.9888 23.5438 41.1851 23.3593L41.5421 23.0238L41.4622 22.7162C41.3559 22.3066 41.3556 22.0451 41.4612 21.835C41.6468 21.4657 41.9196 21.5738 42.0398 22.0643C42.1316 22.4389 42.2642 22.7885 42.3785 22.9569C42.6205 23.3137 43.1788 23.5151 43.5196 23.3686C43.6167 23.3268 43.7894 23.1755 43.9034 23.0323C44.149 22.7237 44.2855 22.7023 44.6685 22.9119C44.8091 22.9888 44.9536 23.0517 44.9896 23.0517C45.0818 23.0517 45.1607 22.9045 45.2637 22.5397C45.3413 22.2649 45.38 22.2107 45.5673 22.1153L45.782 22.006L45.5267 21.7878C45.1538 21.4691 44.9183 21.2094 44.9183 21.117C44.9183 21.0724 44.9816 21.0062 45.059 20.9699C45.1785 20.9139 45.2354 20.9236 45.4379 21.0341C45.569 21.1056 45.8008 21.2871 45.9529 21.4373L46.2296 21.7104L46.5198 21.5122C47.0163 21.1729 47.0266 21.226 46.3215 20.4896C45.9771 20.13 45.5781 19.6786 45.4347 19.4863C45.2913 19.2941 45.148 19.1367 45.1163 19.1367C45.0846 19.1367 44.9721 19.2232 44.8663 19.329C44.3792 19.8153 43.7359 19.987 43.2861 19.7508C43.0144 19.6082 43.0008 19.4249 43.237 19.0942C43.5182 18.7005 43.5236 18.2388 43.248 18.1442C42.7813 17.9841 42.0902 18.6765 42.0938 19.3005C42.0948 19.4848 42.1474 19.5659 42.2825 19.5923C42.4416 19.6234 42.4427 19.7702 42.2852 19.9629C41.9331 20.3938 41.469 20.2409 41.4324 19.682C41.4249 19.5667 41.3932 19.4729 41.3619 19.4736C41.3013 19.475 40.8973 20.5134 40.6333 21.3459C40.4772 21.8384 40.016 23.7127 39.9486 24.1283C39.93 24.2437 39.9341 24.338 39.9579 24.3379C39.9816 24.3379 40.1872 24.1931 40.4146 24.0163ZM21.1994 20.2413C21.2558 20.1414 21.9271 19.1759 21.9837 19.1124C22.0698 19.0159 22.0917 18.8776 22.1171 18.2699C22.1337 17.87 22.185 17.3037 22.231 17.0115C22.2769 16.7193 22.3422 16.3041 22.3759 16.0887C22.6078 14.6093 23.0349 12.6473 23.5785 10.5638C23.6088 10.4474 23.6187 10.3368 23.6006 10.318C23.5071 10.2219 21.6179 11.1262 20.3615 11.8687C19.2995 12.4961 17.8199 13.5504 17.0994 14.193C17.0247 14.2596 16.7679 14.4867 16.5289 14.6977C16.2898 14.9086 15.9634 15.2134 15.8035 15.3748L15.5127 15.6684L15.8035 15.908C15.9634 16.0398 16.147 16.1847 16.2115 16.23C16.276 16.2753 16.5328 16.4624 16.782 16.6457C17.0313 16.829 17.5776 17.2166 17.9959 17.507C18.4143 17.7973 18.94 18.1631 19.1641 18.3196C19.9027 18.8358 20.8056 19.8361 20.9743 20.3253C21.0236 20.4683 21.0838 20.446 21.1994 20.2413ZM11.6751 16.9979C11.9241 16.652 12.1579 16.3277 12.1946 16.2772C12.2503 16.2003 12.2281 16.1409 12.0588 15.9133C11.8248 15.599 11.6977 15.3853 11.5811 15.11C11.5355 15.0023 11.4767 14.8639 11.4504 14.8024C11.1526 14.1048 11.0034 12.8202 11.0248 11.1405C11.0339 10.4322 11.0249 9.85263 11.0051 9.85272C10.8801 9.8529 10.237 10.9963 10.0144 11.6144C9.9589 11.7682 9.88178 11.9696 9.84294 12.0619C9.78283 12.2045 9.52689 13.012 9.31988 13.7118C9.20737 14.0922 9.04812 14.3961 8.72888 14.8392C8.18727 15.5911 8.27813 15.8037 9.37927 16.3603C10.188 16.769 10.5736 17.0249 10.9031 17.3718C11.0363 17.512 11.1626 17.6268 11.1837 17.6268C11.2049 17.6268 11.4259 17.3437 11.6751 16.9979ZM29.3779 6.78977C29.6934 6.04024 30.6907 4.69626 31.5804 3.82194C32.1686 3.24386 32.7467 2.81994 33.8692 2.14353C34.6999 1.64294 34.8944 1.48168 34.8034 1.36881C34.7368 1.28614 34.4838 1.29023 33.9877 1.382C33.7985 1.41693 33.7808 1.40692 33.6475 1.18955C33.4775 0.912421 33.3007 0.888046 32.9972 1.10005C32.8871 1.17691 32.749 1.23984 32.6902 1.23984C32.5872 1.23984 32.5532 1.20901 32.3208 0.904599L32.2143 0.765081L31.9783 0.892412C31.8485 0.962353 31.5712 1.11815 31.362 1.23848C30.8956 1.50688 29.8692 1.86304 29.1153 2.01811C28.4914 2.14644 28.075 2.34626 27.898 2.60211C27.7549 2.80893 27.7165 3.23504 27.8039 3.64477C27.8997 4.09343 27.9295 4.63805 27.8675 4.80967C27.6058 5.53455 27.3026 6.61951 27.3486 6.6668C27.3783 6.69736 27.5967 6.75866 27.8338 6.80295C28.071 6.84725 28.4361 6.93165 28.6453 6.99031C29.2283 7.15402 29.2241 7.15521 29.3779 6.78977Z" fill="#0F1B20"/>
</g>
<defs>
<clipPath id="clip0_6027_173">
<rect width="64" height="64" fill="white"/>
</clipPath>
<clipPath id="clip1_6027_173">
<rect width="58.5285" height="58.5285" fill="white" transform="translate(3.22461 3.58398)"/>
</clipPath>
</defs>
</svg>
