<svg width="2625" height="1901" viewBox="0 0 2625 1901" fill="none" xmlns="http://www.w3.org/2000/svg">
<mask id="mask0_6019_37" style="mask-type:luminance" maskUnits="userSpaceOnUse" x="0" y="247" width="1933" height="1654">
<path d="M1932.91 247H0V1900.89H1932.91V247Z" fill="white"/>
</mask>
<g mask="url(#mask0_6019_37)">
<path fill-rule="evenodd" clip-rule="evenodd" d="M1932.03 1900.9L855.254 3154.22L-1043.2 1520.86L0.00315889 258.281C0.00315889 258.281 280.041 711.29 375.157 916.031C471.35 1123.12 650.435 1564.85 909.918 1728.99C1169.39 1893.14 1932.03 1900.9 1932.03 1900.9Z" fill="#E10000"/>
<path fill-rule="evenodd" clip-rule="evenodd" d="M1309.13 1900.89L617.446 2704.84L-678.629 1589.74L0.000624449 777.512C0.000624449 777.512 189.805 1077.67 256.945 1214.88C324.846 1353.67 452.989 1648.2 628.356 1762.53C803.72 1876.87 1309.13 1900.89 1309.13 1900.89Z" fill="#B30000"/>
<path fill-rule="evenodd" clip-rule="evenodd" d="M1097.04 1963.78L405.349 2767.73L-821.846 1711.9L-130.157 907.951C-130.157 907.951 104.246 1504.43 314.322 1673.75C548.338 1862.35 1097.04 1963.78 1097.04 1963.78Z" fill="#8A0000"/>
</g>
</svg>
