<svg width="2625" height="1901" viewBox="0 0 2625 1901" fill="none" xmlns="http://www.w3.org/2000/svg">
<mask id="mask0_6019_38" style="mask-type:luminance" maskUnits="userSpaceOnUse" x="1048" y="0" width="1577" height="1519">
<path d="M1049 1518.85L2624.85 1518.85L2624.85 -0.000976562L1049 -0.000976563L1049 1518.85Z" fill="white"/>
</mask>
<g mask="url(#mask0_6019_38)">
<path fill-rule="evenodd" clip-rule="evenodd" d="M1049.88 -4.85334L2137.48 -1144.37L4025.55 317.879L3045.14 1489.7C3045.14 1489.7 2694.61 1058.27 2600.95 873.994C2506.24 687.602 2330.34 289.837 2071.82 143.367C1813.31 -3.11051 1049.88 -4.85334 1049.88 -4.85334Z" fill="#E10000"/>
<path fill-rule="evenodd" clip-rule="evenodd" d="M1672.78 -8.37728L2371.48 -739.414L3660.6 258.979L2974.91 997.409C2974.91 997.409 2787.17 727.569 2721 604.077C2654.08 479.171 2528.04 213.985 2353.33 111.913C2178.63 9.8353 1672.78 -8.37728 1672.78 -8.37728Z" fill="#B30000"/>
<path fill-rule="evenodd" clip-rule="evenodd" d="M1884.87 -65.2288L2583.42 -796.09L3803.76 149.014L3105.21 879.875C3105.21 879.875 2875.14 342.784 2666.15 191.316C2433.35 22.5897 1884.87 -65.2288 1884.87 -65.2288Z" fill="#8A0000"/>
</g>
</svg>
