<svg width="285" height="200" viewBox="0 0 285 200" fill="none" xmlns="http://www.w3.org/2000/svg">
<path d="M158.11 121.861C157.119 121.497 156.489 120.495 155.805 119.693C155.073 118.835 154.258 117.571 153.726 116.718C153.299 116.034 152.925 115.302 152.614 114.574C152.304 113.853 152.064 113.103 151.855 112.348C151.636 111.56 151.48 110.618 151.302 109.847C151.139 109.137 150.967 108.429 150.792 107.723C150.611 107.002 150.334 106.273 150.225 105.524C149.974 103.808 149.371 99.5985 149.285 97.4277C149.222 95.7799 149.577 93.6523 149.719 92.4998C149.801 91.8282 149.848 91.1257 150.136 90.5129C150.605 89.5088 151.654 87.5084 152.54 86.4754C153.329 85.557 154.603 84.8239 155.461 84.3151C156.148 83.9071 156.92 83.6492 157.686 83.4222C158.497 83.1821 159.459 83.102 160.329 82.8737C162.754 82.2381 169.95 80.3994 172.227 79.6094C172.952 79.3582 173.443 78.6706 173.993 78.1342C174.568 77.5698 175.079 76.8191 175.686 76.2233C176.354 75.569 177.23 74.8815 178.001 74.2073C179.27 73.0953 182.469 71.6248 183.303 69.5511C184.137 67.4774 183.122 63.4968 183.007 61.7655C182.947 60.8899 182.741 59.8867 182.61 59.1631C182.506 58.5787 182.621 57.8696 182.229 57.4236C181.636 56.7481 179.947 55.7163 179.051 55.1106C178.342 54.6318 177.086 54.6127 176.849 53.7902C176.581 52.857 177.178 50.7949 177.443 49.5106C177.681 48.3463 178.251 46.9238 178.432 46.0847C178.545 45.5596 178.675 44.9917 178.524 44.476C178.319 43.7702 177.728 42.6751 177.198 41.8495C176.403 40.6083 174.953 38.3594 173.751 37.0288C172.654 35.8134 171.033 34.6524 169.992 33.8662C169.211 33.2769 168.442 32.585 167.502 32.3123C166.314 31.9672 164.409 31.9471 162.859 31.796C161.038 31.6183 158.127 31.6647 156.573 31.2465C155.406 30.933 154.402 29.8645 153.526 29.2866C152.782 28.7955 151.985 28.24 151.317 27.7791C150.714 27.3636 150.086 26.9816 149.517 26.521C148.468 25.6722 146.45 23.3367 145.027 22.6859C143.8 22.125 142.241 22.1405 140.979 22.6173C139.34 23.2362 136.582 25.6102 135.194 26.3997C134.408 26.847 133.545 27.1973 132.655 27.3545C131.734 27.517 130.662 27.4022 129.667 27.3749C128.589 27.3452 127.308 26.8797 126.184 27.1768C125.033 27.4811 123.732 28.5439 122.759 29.2007C121.909 29.7754 121.142 30.4739 120.35 31.118C119.559 31.7594 118.719 32.5062 117.999 33.0658C117.363 33.561 116.633 33.9355 116.035 34.4765C115.292 35.1496 114.137 36.3991 113.541 37.1044C113.126 37.5969 112.789 38.1866 112.463 38.7087C112.152 39.2072 111.758 39.676 111.585 40.2374C111.271 41.2529 110.952 43.4618 110.58 44.8017C110.252 45.9854 110.057 47.2793 109.355 48.2771C108.654 49.2746 107.338 49.9174 106.372 50.7876C105.119 51.9182 102.956 53.5207 101.831 55.0607C100.762 56.5237 99.7213 58.2182 99.6215 60.0272C99.5131 62.0178 99.9931 65.0227 101.176 67.0039C102.359 68.9854 105.466 70.8445 106.717 71.9154C107.346 72.4536 108.038 72.9135 108.686 73.4291C109.357 73.9636 110.072 74.5412 110.745 75.1219C111.474 75.7514 112.26 76.5411 113.058 77.2059C113.855 77.8709 114.725 78.5766 115.529 79.1125C116.277 79.6102 117.153 80.0666 117.882 80.4212C118.537 80.7393 119.229 80.9721 119.906 81.2397C120.655 81.5356 121.641 81.8257 122.374 82.1968C123.061 82.5444 123.663 83.0381 124.302 83.4662C125.004 83.9368 125.779 84.5823 126.592 85.0205C127.42 85.4677 128.649 85.9179 129.273 86.1497C129.614 86.2765 130.022 86.2209 130.332 86.4111C131.1 86.8814 133.059 87.7658 133.879 88.9714C134.757 90.2613 135.536 92.3328 135.597 94.1507C135.684 96.781 134.701 102.6 134.406 104.753C134.297 105.54 134.054 106.305 133.826 107.066C133.528 108.062 132.937 109.778 132.62 110.729C132.393 111.411 132.192 112.124 131.926 112.77C131.668 113.399 131.356 114.005 131.029 114.601C130.666 115.265 130.199 116.051 129.747 116.752C129.216 117.576 128.365 118.824 127.843 119.544C127.459 120.072 126.987 120.71 126.615 121.069C126.332 121.344 125.986 121.568 125.613 121.699C125.078 121.888 124.153 122.308 123.407 122.199C122.189 122.019 119.581 121.076 118.311 120.624C117.445 120.316 116.618 119.867 115.795 119.493C114.99 119.125 114.143 118.758 113.382 118.379C112.655 118.015 111.946 117.616 111.238 117.216C110.514 116.807 109.752 116.358 109.04 115.929C108.345 115.508 107.649 115.087 106.971 114.639C106.221 114.144 105.314 113.528 104.54 112.958C103.787 112.402 103.024 111.853 102.335 111.219C100.644 109.665 96.0343 105.266 94.3961 103.632C93.7093 102.946 93.1135 102.173 92.5077 101.415C91.886 100.638 91.2238 99.7308 90.6729 98.9699C90.1668 98.2729 89.668 97.5562 89.1981 96.8494C88.7354 96.1522 88.2828 95.4471 87.8534 94.729C87.3907 93.9578 86.8701 93.0583 86.4277 92.2229C85.9925 91.401 85.5544 90.4769 85.2016 89.717C84.8878 89.0402 84.6015 88.3442 84.3109 87.6637C84.0232 86.9889 83.7325 86.3151 83.4607 85.6338C83.173 84.9122 82.8578 84.108 82.5845 83.3345C82.3083 82.5507 82.0264 81.6879 81.8008 80.9307C81.5897 80.2235 81.3931 79.4533 81.2282 78.7916C81.0779 78.1842 80.9318 77.5751 80.8161 76.9602C80.6701 76.1788 80.4503 75.0624 80.3462 74.1027C80.1163 71.9704 79.4483 67.4928 79.4339 64.1669C79.418 60.5525 80.0469 54.7762 80.2494 52.4161C80.3188 51.6049 80.5125 50.7616 80.6484 50.0065C80.7757 49.2978 80.9073 48.5896 81.0605 47.8861C81.2196 47.158 81.396 46.3814 81.6013 45.6384C81.8138 44.86 82.0871 43.9833 82.3445 43.2151C82.5903 42.4794 82.8607 41.7516 83.1455 41.0294C83.439 40.282 83.8048 39.4745 84.1085 38.7301C84.4034 38.0102 84.6666 37.2739 84.9717 36.5624C85.2753 35.8539 85.5876 35.1473 85.9404 34.4614C86.2976 33.7657 86.7082 33.0693 87.1174 32.3876C87.6162 31.5557 88.4635 30.2373 88.9334 29.4701C89.2747 28.9124 89.5812 28.3343 89.934 27.7836C90.3808 27.0841 91.0763 26.019 91.6156 25.2731C92.1043 24.5964 92.6234 23.9397 93.1699 23.3081C94.2457 22.065 96.8483 19.1026 98.0657 17.815C98.8176 17.0193 99.7343 16.2407 100.476 15.5819C101.141 14.9913 101.855 14.4075 102.516 13.8627C103.154 13.3383 103.784 12.8037 104.448 12.3133C105.187 11.7669 106.174 11.1152 106.954 10.5844C107.674 10.0942 108.392 9.59147 109.124 9.12854C109.85 8.66821 110.597 8.2219 111.341 7.80667C112.077 7.39535 112.826 7.00601 113.585 6.6369C114.383 6.24843 115.419 5.7826 116.129 5.47581C116.695 5.23176 117.282 5.03918 117.847 4.79601C118.587 4.47765 119.753 3.89905 120.576 3.56566C121.297 3.27304 122.037 3.02696 122.781 2.79564C123.558 2.55362 124.534 2.29439 125.24 2.11396C125.827 1.96375 126.42 1.84057 127.011 1.71247C127.616 1.58134 128.247 1.44703 128.868 1.32746C129.621 1.18231 130.632 0.912383 131.531 0.841541C134.332 0.621061 142.763 0.100006 145.669 0.00429645C146.772 -0.0321369 148.081 0.172441 148.97 0.266849C149.651 0.339282 150.325 0.463617 151 0.570748C151.732 0.686699 152.573 0.820144 153.358 0.962552C154.142 1.10525 154.927 1.26356 155.709 1.42636C156.525 1.59566 157.491 1.8037 158.244 1.97864C158.911 2.13305 159.577 2.28716 160.234 2.47584C160.967 2.68649 161.849 2.96032 162.644 3.24224C163.451 3.52865 164.304 3.87043 165.076 4.19442C165.818 4.50555 166.729 4.92425 167.274 5.18622C167.641 5.36231 167.975 5.60173 168.348 5.76597C169.013 6.0599 170.391 6.52804 171.266 6.94919C172.074 7.33825 172.832 7.82489 173.597 8.29317C174.399 8.78445 175.264 9.35379 176.082 9.89668C176.895 10.4372 177.757 11.0306 178.5 11.5508C179.188 12.0315 179.889 12.4956 180.547 13.0178C181.232 13.5636 181.974 14.1743 182.619 14.8252C184.331 16.5498 189.181 21.6177 190.813 23.3657C191.386 23.9798 191.9 24.647 192.411 25.3138C192.927 25.9887 193.429 26.7034 193.913 27.4151C194.431 28.176 195.058 29.1491 195.519 29.8785C195.917 30.5089 196.309 31.1435 196.676 31.792C197.068 32.4829 197.492 33.27 197.869 34.0247C198.284 34.856 198.806 35.9671 199.169 36.7797C199.483 37.4788 199.778 38.2141 200.052 38.901C200.317 39.5638 200.561 40.234 200.814 40.9013C201.086 41.6171 201.403 42.4259 201.678 43.1952C201.968 44.0081 202.312 44.9032 202.56 45.7791C202.815 46.6895 203.106 47.6795 203.219 48.6571C203.551 51.5143 204.441 58.7936 204.556 62.9221C204.655 66.4293 204.098 71.2111 203.911 73.4279C203.833 74.3694 203.631 75.2971 203.443 76.2232C203.254 77.1548 202.989 78.1914 202.779 79.0183C202.596 79.744 202.411 80.4705 202.184 81.1845C201.957 81.9034 201.672 82.6174 201.412 83.3327C201.14 84.0826 200.839 84.9339 200.553 85.6841C200.276 86.4051 199.993 87.1228 199.692 87.8337C199.39 88.5482 199.082 89.2699 198.741 89.9711C198.372 90.7306 197.889 91.6202 197.476 92.3897C197.081 93.1272 196.672 93.88 196.266 94.5889C195.869 95.281 195.47 95.9725 195.039 96.6435C194.567 97.3787 193.981 98.2419 193.433 99.0001C192.892 99.7467 192.327 100.475 191.749 101.192C191.13 101.958 190.415 102.809 189.726 103.596C189.017 104.402 188.231 105.275 187.502 106.03C186.805 106.751 186.085 107.448 185.349 108.126C184.546 108.864 183.495 109.779 182.69 110.456C181.98 111.052 181.25 111.623 180.515 112.19C179.752 112.78 178.874 113.458 178.106 113.997C177.389 114.5 176.539 115.021 175.903 115.425C175.369 115.764 174.839 116.109 174.291 116.424C173.532 116.86 172.174 117.608 171.353 118.039C170.699 118.382 170.034 118.703 169.363 119.011C168.623 119.35 167.71 119.724 166.909 120.077C166.124 120.423 165.359 120.816 164.561 121.129C163.75 121.448 162.925 121.887 162.044 121.987C160.97 122.109 159.149 122.244 158.11 121.861Z" fill="#CADB39"/>
<path d="M0 179.974V137.391H26.8459V145.489H9.60181V155.352H24.3638V163.45H9.60181V179.974H0Z" fill="black"/>
<path d="M33.0039 179.975V147.769H44.6133C46.8858 147.769 48.9606 148.065 50.8379 148.707C52.7151 149.3 54.1972 150.337 55.3334 151.77C56.4697 153.202 57.0131 155.228 57.0131 157.796C57.0131 160.167 56.4697 162.143 55.4322 163.674C54.3948 165.206 53.0116 166.342 51.2825 167.083L58.5939 179.975H50.4427L44.2675 168.367H40.2659V179.975H33.0039ZM40.2659 162.588H44.0205C45.9471 162.588 47.3798 162.193 48.3678 161.402C49.4052 160.562 49.8993 159.377 49.8993 157.796C49.8993 156.215 49.4052 155.129 48.3678 154.487C47.3798 153.844 45.9471 153.548 44.0205 153.548H40.2659V162.588Z" fill="black"/>
<path d="M70.4478 163.674L69.6574 166.638H76.5242L75.7832 163.674C75.3386 162.044 74.894 160.365 74.4494 158.537C74.0048 156.709 73.6095 154.981 73.1649 153.301H72.9673C72.5721 155.03 72.1769 156.759 71.7323 158.587C71.3371 160.365 70.8925 162.044 70.4478 163.674ZM58.7891 179.975L68.867 147.769H77.6111L87.689 179.975H79.9823L78.0063 172.319H68.1754L66.1993 179.975H58.7891Z" fill="black"/>
<path d="M91.1953 179.975V147.769H98.655L107.053 163.773L110.215 170.886H110.413C110.264 169.157 110.116 167.28 109.869 165.156C109.622 163.032 109.523 161.056 109.523 159.13V147.769H116.44V179.975H108.98L100.582 163.921L97.4199 156.907H97.2223C97.3705 158.685 97.5681 160.612 97.7657 162.637C98.0127 164.662 98.1115 166.638 98.1115 168.565V179.975H91.1953Z" fill="black"/>
<path d="M122.023 179.975V175.579L136.251 153.894H123.357V147.769H145.193V152.165L130.965 173.85H145.341V179.975H122.023Z" fill="black"/>
<path d="M183.872 180.759C180.018 180.759 176.491 179.91 173.29 178.277C170.155 176.644 167.673 174.162 165.779 170.962C163.95 167.696 163.035 163.712 163.035 158.944C163.035 154.242 163.95 150.258 165.844 146.927C167.738 143.596 170.286 141.049 173.421 139.285C176.556 137.522 180.018 136.607 183.806 136.607C186.876 136.607 189.554 137.195 191.775 138.306C193.996 139.416 195.825 140.722 197.197 142.159L192.167 148.298C191.057 147.319 189.946 146.535 188.705 145.882C187.464 145.229 185.962 144.902 184.133 144.902C180.802 144.902 178.124 146.143 176.034 148.56C173.943 150.976 172.898 154.372 172.898 158.618C172.898 162.994 173.878 166.39 175.903 168.806C177.928 171.223 180.867 172.464 184.852 172.464C185.701 172.464 186.55 172.333 187.399 172.137C188.248 171.941 188.901 171.615 189.424 171.158V163.843H182.369V156.005H197.915V175.599C196.413 177.036 194.453 178.277 191.971 179.256C189.554 180.236 186.811 180.759 183.872 180.759Z" fill="black"/>
<path d="M205.512 179.975V147.769H217.121C219.394 147.769 221.468 148.065 223.346 148.707C225.223 149.3 226.705 150.337 227.841 151.77C228.977 153.202 229.521 155.228 229.521 157.796C229.521 160.167 228.977 162.143 227.94 163.674C226.903 165.206 225.519 166.342 223.79 167.083L231.102 179.975H222.95L216.775 168.367H212.774V179.975H205.512ZM212.774 162.588H216.528C218.455 162.588 219.888 162.193 220.876 161.402C221.913 160.562 222.407 159.377 222.407 157.796C222.407 156.215 221.913 155.129 220.876 154.487C219.888 153.844 218.455 153.548 216.528 153.548H212.774V162.588Z" fill="black"/>
<path d="M242.96 163.674L242.169 166.638H249.036L248.295 163.674C247.85 162.044 247.406 160.365 246.961 158.537C246.516 156.709 246.121 154.981 245.677 153.301H245.479C245.084 155.03 244.689 156.759 244.244 158.587C243.849 160.365 243.404 162.044 242.96 163.674ZM231.301 179.975L241.379 147.769H250.123L260.201 179.975H252.494L250.518 172.319H240.687L238.711 179.975H231.301Z" fill="black"/>
<path d="M263.707 179.975V147.769H284.011V153.894H270.969V161.353H282.134V167.478H270.969V179.975H263.707Z" fill="black"/>
<path d="M5.60595 199.998C4.53208 199.998 3.58562 199.762 2.73017 199.289C1.87472 198.815 1.21948 198.124 0.728045 197.214C0.236615 196.286 0 195.176 0 193.865C0 192.573 0.254816 191.463 0.746246 190.535C1.23768 189.607 1.91112 188.897 2.76657 188.405C3.62202 187.914 4.56848 187.659 5.62415 187.659C6.4796 187.659 7.18944 187.823 7.77188 188.132C8.37252 188.442 8.84575 188.788 9.22797 189.17L8.0995 190.535C7.79008 190.244 7.46246 190.007 7.08024 189.807C6.71621 189.607 6.26119 189.497 5.69695 189.497C4.64129 189.497 3.78583 189.88 3.13059 190.662C2.49355 191.426 2.16593 192.482 2.16593 193.811C2.16593 195.176 2.47535 196.231 3.09419 197.014C3.71303 197.778 4.62309 198.16 5.80616 198.16C6.15198 198.16 6.4614 198.124 6.77082 198.033C7.08024 197.942 7.31685 197.796 7.51706 197.632V195.066H5.26013V193.337H9.40998L9.40998 198.579C9.00956 198.979 8.48172 199.325 7.80828 199.598C7.15304 199.871 6.425 199.998 5.60595 199.998Z" fill="#CADB39"/>
<path d="M14.3806 193.448L13.962 194.904H17.0015L16.5829 193.448C16.3827 192.811 16.2007 192.174 16.0187 191.501C15.8549 190.827 15.6729 190.172 15.509 189.517H15.4362C15.2724 190.19 15.1086 190.845 14.9266 191.519C14.7628 192.174 14.5808 192.811 14.3806 193.448ZM10.3945 199.781L14.2714 187.879H16.7467L20.6236 199.781H18.403L17.4748 196.56H13.4705L12.5423 199.781H10.3945Z" fill="#CADB39"/>
<path d="M22.0977 199.781V187.879H26.1201C26.9392 187.879 27.6854 187.988 28.3406 188.206C29.0141 188.425 29.5237 188.789 29.9059 189.317C30.2882 189.826 30.4884 190.518 30.4884 191.41C30.4884 192.32 30.27 193.048 29.8331 193.612C29.4145 194.176 28.8321 194.576 28.1222 194.813L30.9616 199.781H28.5955L26.0291 195.122H24.209V199.781H22.0977ZM24.209 193.448H25.9017C26.7207 193.448 27.3396 193.284 27.7582 192.938C28.195 192.593 28.4134 192.083 28.4134 191.41C28.4134 190.736 28.195 190.263 27.7582 189.99C27.3396 189.717 26.7207 189.571 25.9017 189.571H24.209V193.448Z" fill="#CADB39"/>
<path d="M34.983 199.781V189.662H31.543V187.879H40.5343V189.662H37.0943V199.781H34.983Z" fill="#CADB39"/>
<path d="M42.5195 199.781V187.879H49.6908V189.662H44.6309V192.702H48.9081V194.485H44.6309V197.998H49.8728V199.781H42.5195Z" fill="#CADB39"/>
<path d="M52.3125 199.781V187.879H54.4784L58.1915 194.576L59.4109 197.106H59.4837C59.4291 196.505 59.3745 195.832 59.3017 195.122C59.2471 194.413 59.2107 193.721 59.2107 193.048V187.879H61.2311V199.781H59.0651L55.3521 193.084L54.1326 190.554H54.0598C54.1144 191.191 54.169 191.846 54.2236 192.538C54.2964 193.23 54.3328 193.903 54.3328 194.576V199.781H52.3125Z" fill="#CADB39"/>
<path d="M67.8358 194.432H63.5039V195.96H67.8358V194.432Z" fill="#CADB39"/>
<path d="M78.2092 200C77.2991 200 76.4983 199.818 75.8248 199.454C75.1514 199.09 74.6236 198.507 74.2413 197.707C73.8773 196.906 73.6953 195.85 73.6953 194.558V187.879H75.8066V194.722C75.8066 195.577 75.8976 196.269 76.0979 196.778C76.2981 197.27 76.5893 197.634 76.9533 197.852C77.3173 198.052 77.736 198.162 78.2092 198.162C78.7006 198.162 79.1192 198.052 79.4833 197.852C79.8655 197.634 80.1567 197.27 80.3569 196.778C80.5753 196.269 80.6845 195.577 80.6845 194.722V187.879H82.7049V194.558C82.7049 195.85 82.5229 196.906 82.1588 197.707C81.7948 198.507 81.267 199.09 80.5935 199.454C79.9201 199.818 79.1374 200 78.2092 200Z" fill="#CADB39"/>
<path d="M85.6719 199.781V187.879H87.8378L91.5508 194.576L92.7703 197.106H92.8431C92.7885 196.505 92.7339 195.832 92.6611 195.122C92.6065 194.413 92.5701 193.721 92.5701 193.048V187.879H94.5904V199.781H92.4245L88.7115 193.084L87.492 190.554H87.4192C87.4738 191.191 87.5284 191.846 87.583 192.538C87.6558 193.23 87.6922 193.903 87.6922 194.576V199.781H85.6719Z" fill="#CADB39"/>
<path d="M97.6172 199.781V187.879H100.802C102.622 187.879 104.042 188.37 105.061 189.353C106.081 190.336 106.59 191.81 106.59 193.776C106.59 195.759 106.081 197.252 105.08 198.271C104.079 199.272 102.677 199.781 100.912 199.781H97.6172ZM99.7285 198.071H100.657C101.858 198.071 102.786 197.725 103.442 197.033C104.097 196.323 104.424 195.25 104.424 193.776C104.424 192.32 104.097 191.264 103.442 190.591C102.786 189.917 101.858 189.59 100.657 189.59H99.7285V198.071Z" fill="#CADB39"/>
<path d="M112.629 199.781V187.879H114.74V197.998H119.691V199.781H112.629Z" fill="#CADB39"/>
<path d="M124.205 193.448L123.786 194.904H126.826L126.407 193.448C126.207 192.811 126.025 192.174 125.843 191.501C125.679 190.827 125.497 190.172 125.333 189.517H125.26C125.097 190.19 124.933 190.845 124.751 191.519C124.587 192.174 124.405 192.811 124.205 193.448ZM120.219 199.781L124.096 187.879H126.571L130.448 199.781H128.227L127.299 196.56H123.295L122.366 199.781H120.219Z" fill="#CADB39"/>
<path d="M131.922 199.781V187.879H134.088L137.801 194.576L139.02 197.106H139.093C139.039 196.505 138.984 195.832 138.911 195.122C138.857 194.413 138.82 193.721 138.82 193.048V187.879H140.84V199.781H138.674L134.961 193.084L133.742 190.554H133.669C133.724 191.191 133.778 191.846 133.833 192.538C133.906 193.23 133.942 193.903 133.942 194.576V199.781H131.922Z" fill="#CADB39"/>
<path d="M143.863 199.781V187.879H147.048C148.869 187.879 150.288 188.37 151.308 189.353C152.327 190.336 152.836 191.81 152.836 193.776C152.836 195.759 152.327 197.252 151.326 198.271C150.325 199.272 148.923 199.781 147.158 199.781H143.863ZM145.975 198.071H146.903C148.104 198.071 149.032 197.725 149.688 197.033C150.343 196.323 150.671 195.25 150.671 193.776C150.671 192.32 150.343 191.264 149.688 190.591C149.032 189.917 148.104 189.59 146.903 189.59H145.975V198.071Z" fill="#CADB39"/>
<path d="M158.713 199.998C157.913 199.998 157.13 199.853 156.384 199.543C155.637 199.234 154.982 198.815 154.418 198.251L155.656 196.814C156.074 197.214 156.566 197.541 157.112 197.796C157.658 198.033 158.204 198.16 158.75 198.16C159.423 198.16 159.951 198.015 160.297 197.742C160.643 197.469 160.825 197.087 160.825 196.632C160.825 196.14 160.643 195.776 160.297 195.558C159.951 195.339 159.514 195.121 158.986 194.884L157.348 194.175C156.966 194.011 156.584 193.792 156.202 193.519C155.838 193.246 155.528 192.919 155.292 192.5C155.055 192.082 154.946 191.59 154.946 191.008C154.946 190.371 155.11 189.807 155.455 189.315C155.801 188.806 156.274 188.405 156.875 188.114C157.476 187.805 158.167 187.659 158.95 187.659C159.642 187.659 160.315 187.805 160.952 188.078C161.589 188.351 162.153 188.715 162.608 189.17L161.535 190.516C161.152 190.207 160.752 189.952 160.333 189.77C159.915 189.588 159.46 189.497 158.95 189.497C158.386 189.497 157.931 189.625 157.585 189.88C157.239 190.116 157.075 190.462 157.075 190.899C157.075 191.208 157.166 191.463 157.33 191.663C157.512 191.863 157.749 192.027 158.04 192.173C158.331 192.3 158.641 192.446 158.968 192.573L160.588 193.246C161.298 193.556 161.862 193.956 162.317 194.448C162.772 194.939 162.991 195.612 162.991 196.468C162.991 197.105 162.827 197.705 162.481 198.233C162.135 198.761 161.644 199.198 161.007 199.525C160.37 199.835 159.605 199.998 158.713 199.998Z" fill="#CADB39"/>
<path d="M169.908 199.998C168.907 199.998 168.015 199.762 167.196 199.289C166.377 198.815 165.74 198.124 165.249 197.214C164.776 196.286 164.539 195.176 164.539 193.865C164.539 192.573 164.776 191.463 165.267 190.535C165.759 189.607 166.432 188.897 167.251 188.405C168.07 187.914 168.98 187.659 169.981 187.659C170.727 187.659 171.401 187.805 171.983 188.114C172.566 188.424 173.039 188.769 173.421 189.17L172.293 190.535C171.983 190.225 171.656 189.971 171.273 189.789C170.909 189.588 170.491 189.497 170.036 189.497C169.399 189.497 168.816 189.679 168.307 190.025C167.815 190.371 167.415 190.862 167.124 191.499C166.851 192.136 166.705 192.919 166.705 193.811C166.705 195.176 166.996 196.231 167.597 197.014C168.197 197.778 168.98 198.16 169.981 198.16C170.509 198.16 170.982 198.051 171.401 197.833C171.82 197.596 172.184 197.305 172.529 196.941L173.658 198.269C173.166 198.834 172.62 199.252 171.983 199.562C171.364 199.853 170.673 199.998 169.908 199.998Z" fill="#CADB39"/>
<path d="M175.645 199.781V187.879H177.756V192.665H182.579V187.879H184.69V199.781H182.579V194.504H177.756V199.781H175.645Z" fill="#CADB39"/>
<path d="M190.146 193.448L189.728 194.904H192.767L192.349 193.448C192.148 192.811 191.966 192.174 191.784 191.501C191.62 190.827 191.438 190.172 191.275 189.517H191.202C191.038 190.19 190.874 190.845 190.692 191.519C190.528 192.174 190.346 192.811 190.146 193.448ZM186.16 199.781L190.037 187.879H192.512L196.389 199.781H194.169L193.24 196.56H189.236L188.308 199.781H186.16Z" fill="#CADB39"/>
<path d="M197.863 199.781V187.879H205.053V189.662H199.975V193.029H204.306V194.813H199.975V199.781H197.863Z" fill="#CADB39"/>
<path d="M209.553 199.781V189.662H206.113V187.879H215.105V189.662H211.665V199.781H209.553Z" fill="#CADB39"/>
<path d="M219.975 199.998C219.174 199.998 218.392 199.853 217.645 199.543C216.899 199.234 216.244 198.815 215.68 198.251L216.917 196.814C217.336 197.214 217.827 197.541 218.373 197.796C218.919 198.033 219.466 198.16 220.012 198.16C220.685 198.16 221.213 198.015 221.559 197.742C221.904 197.469 222.086 197.087 222.086 196.632C222.086 196.14 221.904 195.776 221.559 195.558C221.213 195.339 220.776 195.121 220.248 194.884L218.61 194.175C218.228 194.011 217.846 193.792 217.463 193.519C217.099 193.246 216.79 192.919 216.553 192.5C216.317 192.082 216.208 191.59 216.208 191.008C216.208 190.371 216.371 189.807 216.717 189.315C217.063 188.806 217.536 188.405 218.137 188.114C218.737 187.805 219.429 187.659 220.212 187.659C220.903 187.659 221.577 187.805 222.214 188.078C222.851 188.351 223.415 188.715 223.87 189.17L222.796 190.516C222.414 190.207 222.014 189.952 221.595 189.77C221.176 189.588 220.721 189.497 220.212 189.497C219.648 189.497 219.193 189.625 218.847 189.88C218.501 190.116 218.337 190.462 218.337 190.899C218.337 191.208 218.428 191.463 218.592 191.663C218.774 191.863 219.01 192.027 219.302 192.173C219.593 192.3 219.902 192.446 220.23 192.573L221.85 193.246C222.56 193.556 223.124 193.956 223.579 194.448C224.034 194.939 224.252 195.612 224.252 196.468C224.252 197.105 224.089 197.705 223.743 198.233C223.397 198.761 222.906 199.198 222.268 199.525C221.631 199.835 220.867 199.998 219.975 199.998Z" fill="#CADB39"/>
<path d="M226.418 199.781V187.879H230.167C231.059 187.879 231.842 187.988 232.534 188.225C233.225 188.461 233.771 188.843 234.172 189.371C234.572 189.899 234.772 190.627 234.772 191.555C234.772 192.429 234.572 193.157 234.172 193.721C233.771 194.285 233.225 194.722 232.552 194.995C231.878 195.268 231.096 195.413 230.24 195.413H228.529V199.781H226.418ZM228.529 193.721H230.076C231.824 193.721 232.697 192.993 232.697 191.555C232.697 190.809 232.461 190.281 232.006 190.008C231.551 189.717 230.895 189.571 230.004 189.571H228.529V193.721Z" fill="#CADB39"/>
<path d="M237.016 199.781V187.879H244.205V189.662H239.127V193.029H243.459V194.813H239.127V199.781H237.016Z" fill="#CADB39"/>
<path d="M246.297 199.781V187.879H248.408V197.998H253.359V199.781H246.297Z" fill="#CADB39"/>
<path d="M255.434 199.781V187.879H262.605V189.662H257.545V192.702H261.822V194.485H257.545V197.998H262.787V199.781H255.434Z" fill="#CADB39"/>
<path d="M270.211 199.998C269.138 199.998 268.191 199.762 267.336 199.289C266.48 198.815 265.825 198.124 265.334 197.214C264.842 196.286 264.605 195.176 264.605 193.865C264.605 192.573 264.86 191.463 265.352 190.535C265.843 189.607 266.517 188.897 267.372 188.405C268.227 187.914 269.174 187.659 270.23 187.659C271.085 187.659 271.795 187.823 272.377 188.132C272.978 188.442 273.451 188.788 273.833 189.17L272.705 190.535C272.396 190.244 272.068 190.007 271.686 189.807C271.322 189.607 270.867 189.497 270.302 189.497C269.247 189.497 268.391 189.88 267.736 190.662C267.099 191.426 266.771 192.482 266.771 193.811C266.771 195.176 267.081 196.231 267.7 197.014C268.318 197.778 269.229 198.16 270.412 198.16C270.757 198.16 271.067 198.124 271.376 198.033C271.686 197.942 271.922 197.796 272.123 197.632V195.066H269.866V193.337H274.015V198.579C273.615 198.979 273.087 199.325 272.414 199.598C271.759 199.871 271.03 199.998 270.211 199.998Z" fill="#CADB39"/>
<path d="M276.66 199.781V187.879H283.831V189.662H278.771V192.702H283.049V194.485H278.771V197.998H284.013V199.781H276.66Z" fill="#CADB39"/>
</svg>
