<svg width="588" height="200" viewBox="0 0 588 200" fill="none" xmlns="http://www.w3.org/2000/svg">
<path d="M47.054 100.287C46.7694 99.9934 48.1482 98.5655 48.5543 98.0917C48.8113 97.7948 49.2009 97.7214 49.4883 97.4678C50.4084 96.6505 53.1273 94.0582 54.0695 93.2008C54.4149 92.8872 54.7852 92.6203 55.1444 92.33C55.6915 91.8863 56.7387 91.0656 57.3549 90.5418C57.8633 90.1081 58.5126 89.4876 58.8442 89.1873C59.01 89.0405 59.1647 88.8771 59.3416 88.7503C59.7616 88.4567 60.6955 87.8628 61.3642 87.4158C62.0301 86.9754 62.6877 86.5117 63.3536 86.0746C64.0334 85.6275 64.7463 85.1838 65.4398 84.7401C66.1306 84.2997 67.0176 83.7426 67.5122 83.4123C67.8161 83.2121 68.1035 82.9752 68.4074 82.7684C68.855 82.4681 69.5956 81.9677 70.2034 81.6007C70.8196 81.2304 71.4827 80.9035 72.1072 80.5398C72.7261 80.1762 73.3368 79.7891 73.9502 79.4088C74.5636 79.0318 75.1688 78.6315 75.7905 78.2711C76.4895 77.8708 77.3654 77.4371 78.1446 76.9934C78.9902 76.5163 80.0981 75.8057 80.8635 75.392C81.4797 75.0617 82.1152 74.7881 82.748 74.5145C83.4139 74.231 84.1572 73.9841 84.848 73.6771C85.5968 73.3435 86.445 72.9032 87.2436 72.5128C88.0974 72.0958 89.0562 71.5987 89.9763 71.1783C90.9296 70.7446 92.0376 70.2709 92.966 69.9039C93.8198 69.5636 94.8118 69.2333 95.544 68.9631C96.1547 68.7395 96.7653 68.5327 97.3704 68.2925C98.5282 67.8354 101.324 66.6644 102.49 66.2207C103.107 65.9838 103.737 65.797 104.367 65.6202C105.356 65.3432 107.08 64.9362 108.428 64.5616C111.25 63.7766 118.287 61.7284 121.291 60.9101C123.001 60.444 124.883 60.0166 126.45 59.6526C127.859 59.325 129.271 59.0248 130.685 58.7262C132.282 58.3889 134.242 57.9568 136.027 57.6285C138.024 57.2619 140.445 56.8605 142.658 56.5259C145.145 56.1499 148.179 55.6845 150.947 55.3729C154.603 54.9622 160.03 54.37 164.581 54.0611C170.168 53.6814 177.838 53.2531 184.475 53.0959C191.167 52.9371 198.136 52.9438 204.737 53.1096C211.189 53.2718 218.674 53.7468 224.079 54.0911C228.442 54.369 233.319 54.7757 237.157 55.1751C240.481 55.5207 244.095 56.0789 247.104 56.4862C249.809 56.8525 252.97 57.2786 255.211 57.6199C256.996 57.8918 258.773 58.2157 260.552 58.535C262.448 58.8753 264.57 59.2826 266.579 59.661C268.72 60.064 271.121 60.5364 273.395 60.9541C275.735 61.3845 278.319 61.8379 280.632 62.2426C282.839 62.6292 285.113 63.0082 287.263 63.3816C289.352 63.7442 291.438 64.1195 293.524 64.4818C295.674 64.8562 297.945 65.2532 300.156 65.6202C302.643 66.0305 305.809 66.551 308.445 66.958C310.957 67.3483 313.621 67.732 315.983 68.069C318.191 68.3826 320.401 68.6828 322.615 68.9731C325.162 69.3067 328.389 69.7137 331.277 70.074C334.195 70.4377 337.171 70.8314 340.119 71.1583C343.775 71.5653 349.124 72.0958 353.208 72.5161C357.015 72.9065 360.815 73.4069 364.631 73.6738C371.671 74.1609 385.169 75.4587 395.453 75.452C410.073 75.4454 441.531 74.1075 452.346 73.6171C455.026 73.4937 457.684 72.9299 460.34 72.5095C462.99 72.0925 466.137 71.5153 468.273 71.1083C469.903 70.798 471.563 70.4077 473.147 70.0674C474.686 69.7371 476.46 69.3934 477.764 69.0698C478.842 68.8029 479.905 68.456 480.972 68.1257C482.212 67.742 483.959 67.2182 485.208 66.7678C486.31 66.3708 487.623 65.8036 488.474 65.4166C489.095 65.1331 490.06 64.8662 490.303 64.4458C490.546 64.0265 490.212 63.2981 489.93 62.9008C489.651 62.5034 489.024 62.3503 488.617 62.0621C488.233 61.7885 487.88 61.4535 487.496 61.1726C487.092 60.876 486.639 60.5614 486.2 60.2829C485.705 59.9696 485.075 59.6503 484.528 59.2933C482.873 58.2107 477.946 54.8908 476.261 53.7862C475.656 53.3902 475.034 53.0322 474.418 52.6656C472.945 51.7905 468.983 49.4638 467.419 48.5343C466.617 48.0592 465.833 47.5411 465.023 47.0894C463.749 46.3784 460.983 44.9168 459.77 44.2689C459.096 43.9093 458.419 43.5633 457.745 43.2027C456.985 42.7953 455.96 42.1988 455.209 41.8245C454.562 41.5022 453.885 41.2673 453.233 40.9564C452.537 40.6234 451.76 40.2067 451.022 39.8274C450.133 39.3687 448.834 38.649 447.895 38.203C447.074 37.8126 446.118 37.4743 445.394 37.1517C444.772 36.8748 444.164 36.5555 443.548 36.2656C442.78 35.9047 441.647 35.3805 440.788 34.9855C439.989 34.6192 439.196 34.2329 438.387 33.8966C437.491 33.5232 436.392 33.1206 435.405 32.7452C434.424 32.3726 433.438 32.0183 432.462 31.6433C431.49 31.2693 430.526 30.8709 429.553 30.4943C428.486 30.0802 427.204 29.5718 426.055 29.1585C424.927 28.7534 423.792 28.3751 422.656 28.0145C421.476 27.6405 420.197 27.2882 418.97 26.9132C417.677 26.5172 416.213 26.0371 414.886 25.6391C413.599 25.2527 412.308 24.8907 411.018 24.5251C409.683 24.1471 408.247 23.7481 406.882 23.3711C405.53 22.9984 404.099 22.5947 402.828 22.2641C401.643 21.9549 400.454 21.6456 399.261 21.386C397.713 21.0494 395.456 20.6214 393.549 20.2457C391.463 19.834 389.007 19.3256 386.736 18.9149C384.467 18.5049 382.199 18.0845 379.919 17.7816C377.156 17.4142 373.412 17.0389 370.157 16.7113C366.471 16.3403 361.937 15.7872 357.814 15.557C353.037 15.2901 346.267 15.0692 341.489 15.1099C337.372 15.1453 332.844 15.5386 329.149 15.8025C325.867 16.0367 322.59 16.368 319.315 16.6936C315.925 17.0302 311.272 17.5253 308.816 17.8226C307.398 17.9937 305.989 18.2333 304.577 18.4762C302.09 18.9049 296.442 19.9168 293.895 20.3945C292.356 20.6831 290.734 21.0324 289.289 21.343C287.932 21.6352 286.575 21.9482 285.219 22.2595C283.599 22.6318 281.262 23.1652 279.568 23.5766C278.059 23.9429 276.454 24.3483 275.056 24.7286C273.757 25.0812 272.467 25.4642 271.179 25.8582C269.875 26.2566 268.388 26.7594 267.233 27.12C266.236 27.4306 265.233 27.7069 264.235 28.0208C263.18 28.3544 262 28.7361 260.889 29.1218C259.726 29.5251 258.411 30.0299 257.258 30.4419C256.162 30.8332 254.984 31.2126 253.968 31.5946C253.023 31.9499 252.056 32.3576 251.152 32.7356C250.284 33.0995 249.395 33.5002 248.555 33.8619C247.737 34.2122 246.919 34.5545 246.101 34.9041C245.175 35.3005 244.07 35.9544 242.995 36.2406C241.893 36.5349 239.884 37.0363 239.483 36.6693C239.085 36.302 240.13 34.6309 240.6 34.0374C241.036 33.4919 241.749 33.4345 242.316 33.1086C242.91 32.7669 243.542 32.3582 244.158 31.9879C244.833 31.5816 245.62 31.0845 246.369 30.6698C248.027 29.7493 252.503 27.3606 254.106 26.4644C254.741 26.1075 255.338 25.6504 255.974 25.2918C256.767 24.8454 257.889 24.2619 258.861 23.7858C260.066 23.1936 261.84 22.3789 263.219 21.7383C264.517 21.1338 265.94 20.4932 267.12 19.9418C268.176 19.4463 269.408 18.8228 270.281 18.4288C270.964 18.1209 271.66 17.8626 272.351 17.5791C273.064 17.2851 273.826 16.9669 274.567 16.6659C275.49 16.2899 276.791 15.7655 277.896 15.3231C278.996 14.883 280.214 14.3776 281.195 14.0123C282.055 13.6933 282.922 13.4184 283.784 13.1309C285.011 12.7225 287.125 12.0042 288.551 11.5628C289.814 11.1728 291.132 10.8499 292.353 10.4809C293.53 10.1249 294.696 9.71389 295.87 9.34857C297.081 8.97224 298.365 8.56588 299.623 8.22225C300.982 7.85059 302.554 7.4646 304.024 7.1183C305.588 6.75065 307.34 6.36863 308.998 6.01633C310.902 5.61198 313.358 5.09286 315.447 4.69318C317.47 4.30584 319.495 3.9382 321.526 3.61725C323.828 3.25393 326.679 2.82789 329.263 2.51161C332.363 2.13195 336.753 1.69458 340.13 1.33927C343.261 1.00998 346.386 0.582949 349.525 0.380773C352.962 0.159247 357.107 -0.0479332 360.762 0.00978362C364.329 0.0658324 367.886 0.467518 371.444 0.72641C375.014 0.985969 378.877 1.28889 382.171 1.56713C385.185 1.82202 388.206 2.04054 391.215 2.39685C394.677 2.80654 400.253 3.60657 402.944 4.0256C404.428 4.25647 405.89 4.63247 407.365 4.91238C409.106 5.242 411.457 5.64368 413.383 6.00399C415.232 6.34962 417.163 6.70661 418.926 7.07393C420.609 7.42457 422.28 7.83525 423.96 8.20824C425.657 8.58556 427.453 8.96455 429.108 9.33621C430.705 9.69486 432.393 10.0715 433.897 10.4382C435.314 10.7838 436.723 11.1638 438.135 11.5378C439.688 11.9495 441.791 12.5023 443.219 12.909C444.391 13.2423 445.554 13.6209 446.72 13.9786C447.903 14.3409 449.116 14.7196 450.315 15.0836C451.65 15.4892 453.338 15.962 454.736 16.4114C456.065 16.8384 457.469 17.3572 458.701 17.7796C459.848 18.1719 461.111 18.6096 462.141 18.9469C463.05 19.2452 464.015 19.5384 464.882 19.8033C465.7 20.0529 466.529 20.2517 467.339 20.535C469.389 21.2519 474.957 23.2653 477.181 24.1061C478.361 24.5518 479.607 25.147 480.682 25.579C481.657 25.972 482.768 26.3604 483.627 26.699C484.37 26.9909 485.111 27.2922 485.846 27.6111C486.614 27.9444 487.44 28.3424 488.239 28.6994C489.093 29.0794 490.054 29.4984 490.961 29.8921C491.925 30.3088 493.005 30.7739 494.011 31.1996C495.003 31.6199 496.117 32.0777 496.992 32.4456C497.755 32.7649 498.52 33.0779 499.278 33.4062C500.09 33.7568 501.165 34.2222 501.858 34.5495C502.389 34.801 502.9 35.1096 503.431 35.3705C504.157 35.7302 505.296 36.262 506.23 36.7067C507.161 37.1517 508.194 37.6415 509.031 38.0412C509.772 38.3945 510.507 38.7571 511.247 39.1048C512.118 39.5125 513.35 40.0633 514.248 40.4873C515.052 40.865 515.939 41.3127 516.646 41.648C517.257 41.9382 517.884 42.1808 518.487 42.4977C519.18 42.8617 520.026 43.3978 520.802 43.8322C521.592 44.2756 522.543 44.7917 523.239 45.1587C523.814 45.4616 524.394 45.7486 524.977 46.0335C525.671 46.3734 526.644 46.8185 527.403 47.1992C528.116 47.5571 528.851 47.9438 529.531 48.3171C530.186 48.6778 530.83 49.0684 531.482 49.4401C532.2 49.8508 533.164 50.3846 533.852 50.7833C534.444 51.1249 535.021 51.5062 535.618 51.8312C536.505 52.3136 538.022 53.0115 539.183 53.6781C540.335 54.3414 541.44 55.1257 542.576 55.8313C544.891 57.2709 551.028 61.0435 553.087 62.315C553.703 62.6946 554.482 63.0436 554.93 63.4603C555.297 63.8052 556.029 64.3491 555.767 64.8161C555.427 65.4233 553.932 66.5176 552.89 67.0914C551.849 67.6686 550.647 67.9055 549.517 68.2691C548.279 68.6661 546.759 69.0798 545.463 69.4668C544.225 69.8372 542.888 70.2175 541.747 70.5845C540.697 70.9248 539.669 71.3485 538.616 71.6754C537.464 72.0357 536.099 72.3927 534.839 72.7364C533.502 73.1 531.799 73.5237 530.6 73.854C529.617 74.1275 528.639 74.4345 527.655 74.718C525.997 75.2018 522.322 76.2594 520.661 76.7465C519.669 77.0401 518.686 77.357 517.694 77.6439C516.583 77.9676 515.235 78.3412 514.002 78.6782C512.56 79.0718 510.664 79.5923 509.048 80.006C507.47 80.4097 505.685 80.8134 504.306 81.157C503.127 81.4506 501.952 81.7809 500.772 82.0678C499.551 82.3647 498.244 82.6583 496.976 82.9352C495.304 83.2989 492.823 83.8227 490.745 84.2564C488.595 84.7034 486.197 85.2072 484.072 85.6209C482.047 86.0146 480.021 86.3982 477.993 86.7318C475.739 87.1022 473.031 87.4825 470.549 87.8428C467.988 88.2132 465.266 88.6602 462.614 88.9471C458.582 89.3875 450.177 90.1348 446.364 90.4851C444.153 90.6853 441.948 91.0222 439.732 91.0456C430.255 91.1457 400.711 91.2458 389.499 91.0856C383.807 91.0022 377.623 90.4284 372.447 90.0714C367.778 89.7545 362.544 89.3308 358.447 88.9605C354.915 88.6368 351.395 88.1998 347.867 87.8395C343.893 87.4358 338.533 86.9353 334.604 86.5283C331.164 86.1747 327.298 85.731 324.289 85.3973C321.708 85.1138 319.13 84.8369 316.552 84.5266C313.192 84.1229 307.55 83.4123 304.129 82.9752C301.424 82.6283 298.725 82.2646 296.022 81.8976C293.303 81.524 290.41 81.0903 287.816 80.7467C285.362 80.423 282.9 80.1595 280.447 79.8359C277.899 79.4956 275.164 79.1219 272.525 78.7215C269.825 78.3112 267.004 77.7841 264.235 77.3804C261.447 76.9734 258.524 76.6464 255.788 76.2794C253.133 75.9258 250.481 75.5154 247.825 75.1785C244.896 74.8081 241.423 74.3978 238.221 74.0608C234.355 73.6538 229.174 72.7997 224.632 72.7464C208.213 72.5562 155.443 72.703 139.712 72.9232C136.543 72.9665 133.034 73.6771 130.249 74.0508C127.826 74.3778 125.203 74.7948 122.993 75.1651C120.984 75.5054 118.986 75.9158 116.983 76.2894C114.98 76.6598 112.62 77.0634 110.976 77.3971C109.68 77.6573 108.392 77.9742 107.108 78.2878C105.381 78.7082 102.449 79.4789 100.614 79.9193C99.1139 80.2796 97.6025 80.5732 96.0994 80.9235C94.5769 81.2771 92.7311 81.6908 91.4877 82.0411C90.5234 82.3147 89.5895 82.7183 88.6334 83.0253C87.3707 83.439 85.326 84.0429 83.8974 84.5099C82.6153 84.9303 81.0818 85.4507 80.0678 85.8311C79.3051 86.118 78.5674 86.5017 77.8076 86.7986C76.9344 87.1389 75.8153 87.5092 74.8206 87.8695C73.7209 88.2699 72.1376 88.8203 71.1981 89.1873C70.5239 89.4542 69.8691 89.7979 69.1976 90.0848C68.5262 90.3784 67.8327 90.6319 67.1585 90.9322C66.2549 91.3325 64.7739 92.0131 63.7819 92.5002C62.9116 92.9306 61.8339 93.5311 61.2012 93.868C60.7977 94.0816 60.3888 94.2918 59.9909 94.522C58.648 95.296 54.4619 97.7815 53.1412 98.5255C52.793 98.7223 52.4144 98.8157 52.058 98.9825C51.5772 99.206 50.9002 99.7098 50.2702 99.8733C49.4358 100.09 47.3414 100.584 47.054 100.287Z" fill="#C42C33"/>
<path d="M6.34375 162.148V126.058H15.2288C17.2792 126.058 19.0563 126.333 20.5599 126.938C22.1091 127.543 23.2938 128.478 24.1595 129.744C25.0252 131.009 25.4809 132.714 25.4809 134.86C25.4809 136.676 25.1164 138.271 24.3418 139.756C23.6127 141.187 22.5192 142.177 21.1067 142.727V142.947C22.8837 143.332 24.3418 144.268 25.4809 145.698C26.62 147.128 27.2123 149.109 27.2123 151.585C27.2123 153.95 26.7111 155.876 25.7543 157.471C24.7974 159.067 23.476 160.222 21.7901 160.992C20.1043 161.763 18.0994 162.148 15.8667 162.148H6.34375ZM10.1256 141.407H14.5454C17.097 141.407 18.9196 140.857 20.0587 139.811C21.1978 138.766 21.7446 137.281 21.7446 135.465C21.7446 133.375 21.1522 131.889 19.9676 131.009C18.8284 130.129 17.0514 129.689 14.7276 129.689H10.1256V141.407ZM10.1256 158.517H15.32C17.9172 158.517 19.922 157.967 21.3345 156.811C22.747 155.656 23.476 153.84 23.476 151.42C23.476 149.164 22.747 147.569 21.3345 146.523C19.922 145.478 17.9172 144.928 15.32 144.928H10.1256V158.517Z" fill="black"/>
<path d="M38.2848 141.957L36.8723 147.459H45.8485L44.436 141.957C43.8892 139.921 43.388 137.941 42.8868 135.96C42.3856 133.925 41.93 131.889 41.4288 129.799H41.2465C40.7908 131.889 40.3352 133.925 39.834 135.96C39.3328 137.941 38.8316 139.921 38.2848 141.957ZM29.1719 162.148L39.2872 126.058H43.5703L53.6856 162.148H49.6304L46.8054 151.145H35.9154L33.0449 162.148H29.1719Z" fill="black"/>
<path d="M67.8548 162.808C65.8044 162.808 63.9818 162.313 62.3415 161.322C60.7467 160.332 59.4709 158.682 58.5141 156.426C57.5572 154.17 57.1016 151.09 57.1016 147.239V126.058H60.8834V147.349C60.8834 150.264 61.2024 152.52 61.7947 154.225C62.4326 155.876 63.2528 157.031 64.3008 157.746C65.3488 158.462 66.5334 158.792 67.8548 158.792C69.1762 158.792 70.4064 158.462 71.4544 157.746C72.5024 157.031 73.3681 155.876 73.9605 154.225C74.5984 152.52 74.9173 150.264 74.9173 147.349V126.058H78.5625V147.239C78.5625 151.09 78.1068 154.17 77.15 156.426C76.1931 158.682 74.9173 160.332 73.3226 161.322C71.7278 162.313 69.9052 162.808 67.8548 162.808Z" fill="black"/>
<path d="M94.4681 162.808C92.3722 162.808 90.4129 162.313 88.6359 161.377C86.8588 160.387 85.3097 159.067 83.9883 157.471L86.2665 154.281C87.3145 155.656 88.5903 156.756 90.0028 157.581C91.4609 158.407 92.9645 158.792 94.5137 158.792C96.473 158.792 98.0222 158.242 99.1157 157.196C100.209 156.096 100.756 154.666 100.756 152.905C100.756 151.64 100.528 150.649 100.073 149.934C99.6625 149.219 99.0702 148.559 98.2956 148.064C97.5665 147.569 96.7464 147.018 95.7895 146.523L91.5064 144.268C90.5496 143.773 89.6383 143.167 88.6814 142.397C87.7701 141.627 86.9955 140.637 86.3576 139.426C85.7653 138.216 85.4463 136.731 85.4463 134.97C85.4463 133.155 85.8564 131.504 86.631 130.074C87.4512 128.588 88.5903 127.488 90.0028 126.663C91.4153 125.838 93.0556 125.397 94.8327 125.397C96.6097 125.397 98.2956 125.838 99.7992 126.663C101.303 127.488 102.624 128.533 103.672 129.854L101.622 132.825C100.71 131.779 99.7081 130.954 98.5689 130.349C97.4754 129.744 96.2452 129.414 94.8327 129.414C93.1468 129.414 91.8254 129.909 90.7774 130.844C89.775 131.779 89.2738 133.1 89.2738 134.695C89.2738 135.85 89.5016 136.786 90.0028 137.556C90.504 138.271 91.1419 138.876 91.9165 139.371C92.6911 139.866 93.4657 140.307 94.2403 140.692L98.4778 142.892C99.6169 143.498 100.665 144.213 101.576 145.038C102.533 145.863 103.262 146.853 103.809 148.064C104.356 149.219 104.629 150.705 104.629 152.52C104.629 154.446 104.219 156.151 103.399 157.746C102.579 159.287 101.394 160.497 99.8903 161.433C98.3867 162.368 96.5641 162.808 94.4681 162.808Z" fill="black"/>
<path d="M121.809 162.808C119.303 162.808 117.07 162.093 115.111 160.607C113.152 159.122 111.602 156.976 110.463 154.17C109.324 151.365 108.777 148.009 108.777 144.103C108.777 140.197 109.37 136.896 110.509 134.09C111.648 131.284 113.243 129.139 115.248 127.653C117.252 126.168 119.531 125.397 122.037 125.397C123.859 125.397 125.454 125.838 126.866 126.773C128.279 127.653 129.373 128.698 130.238 129.854L128.188 132.825C127.413 131.779 126.502 130.954 125.5 130.349C124.497 129.744 123.358 129.414 122.082 129.414C120.214 129.414 118.528 130.019 117.116 131.229C115.703 132.384 114.61 134.09 113.835 136.235C113.06 138.381 112.696 140.967 112.696 143.993C112.696 147.018 113.06 149.604 113.835 151.86C114.61 154.06 115.658 155.766 117.025 156.976C118.437 158.187 120.077 158.792 121.946 158.792C123.358 158.792 124.634 158.407 125.773 157.691C126.912 156.976 127.914 155.986 128.871 154.721L130.967 157.581C129.783 159.232 128.461 160.497 126.958 161.433C125.454 162.368 123.768 162.808 121.809 162.808Z" fill="black"/>
<path d="M136.523 162.148V126.058H140.305V141.187H154.202V126.058H158.03V162.148H154.202V145.148H140.305V162.148H136.523Z" fill="black"/>
<path d="M171.382 141.957L169.97 147.459H178.946L177.534 141.957C176.987 139.921 176.486 137.941 175.984 135.96C175.483 133.925 175.028 131.889 174.526 129.799H174.344C173.889 131.889 173.433 133.925 172.932 135.96C172.43 137.941 171.929 139.921 171.382 141.957ZM162.27 162.148L172.385 126.058H176.668L186.783 162.148H182.728L179.903 151.145H169.013L166.143 162.148H162.27Z" fill="black"/>
<path d="M194.709 162.148V129.909H185.688V126.058H207.558V129.909H198.537V162.148H194.709Z" fill="black"/>
<path d="M208.426 162.148V159.397L224.146 129.909H209.838V126.058H228.884V128.753L213.119 158.242H229.021V162.148H208.426Z" fill="black"/>
<path d="M248.658 133.87C248.658 134.86 248.794 135.905 249.022 136.951C249.295 137.996 249.66 139.096 250.07 140.197C251.437 139.096 252.622 137.941 253.624 136.786C254.672 135.575 255.173 134.2 255.173 132.604C255.173 131.559 254.945 130.624 254.49 129.854C254.08 129.028 253.351 128.643 252.348 128.643C251.209 128.643 250.343 129.139 249.66 130.129C248.976 131.119 248.658 132.384 248.658 133.87ZM250.617 162.808C248.84 162.808 247.245 162.368 245.833 161.543C244.466 160.662 243.418 159.452 242.643 157.967C241.868 156.481 241.504 154.721 241.504 152.795C241.504 151.2 241.777 149.769 242.324 148.504C242.916 147.239 243.645 146.138 244.511 145.148C245.377 144.158 246.334 143.222 247.382 142.397C246.789 140.912 246.288 139.426 245.924 138.051C245.605 136.621 245.422 135.245 245.422 133.925C245.422 132.329 245.696 130.844 246.288 129.579C246.881 128.313 247.655 127.268 248.703 126.553C249.751 125.783 250.981 125.397 252.348 125.397C254.216 125.397 255.629 126.058 256.677 127.378C257.725 128.698 258.226 130.404 258.226 132.549C258.226 134.145 257.907 135.52 257.224 136.786C256.54 138.051 255.72 139.151 254.672 140.197C253.67 141.242 252.622 142.232 251.483 143.222C252.439 145.038 253.624 146.853 254.945 148.614C256.267 150.319 257.634 151.915 259.046 153.345C259.958 151.86 260.778 150.209 261.461 148.449C262.19 146.633 262.783 144.708 263.238 142.672H266.747C266.154 145.038 265.425 147.294 264.56 149.494C263.694 151.64 262.691 153.675 261.507 155.601C262.555 156.426 263.512 157.141 264.468 157.746C265.425 158.352 266.291 158.792 267.111 159.067L266.109 162.808C265.061 162.423 263.967 161.928 262.783 161.267C261.643 160.552 260.459 159.727 259.229 158.682C258.089 159.947 256.814 160.937 255.401 161.708C253.989 162.423 252.394 162.808 250.617 162.808ZM245.149 152.52C245.149 154.556 245.696 156.151 246.835 157.361C247.974 158.572 249.387 159.177 251.027 159.177C252.075 159.177 253.032 158.902 253.989 158.407C254.945 157.912 255.857 157.196 256.722 156.261C255.264 154.721 253.852 153.015 252.485 151.2C251.164 149.384 249.933 147.459 248.885 145.533C247.837 146.578 246.972 147.624 246.243 148.779C245.514 149.879 245.149 151.145 245.149 152.52Z" fill="black"/>
<path d="M292.764 162.808C290.167 162.808 287.843 162.093 285.793 160.607C283.743 159.122 282.148 156.976 281.009 154.17C279.87 151.365 279.277 148.009 279.277 144.103C279.277 140.197 279.87 136.896 281.054 134.09C282.239 131.284 283.879 129.139 285.93 127.653C287.98 126.168 290.35 125.397 292.992 125.397C295.043 125.397 296.774 125.893 298.187 126.828C299.599 127.763 300.738 128.753 301.604 129.854L299.508 132.825C298.733 131.889 297.868 131.064 296.865 130.404C295.863 129.744 294.587 129.414 293.083 129.414C291.079 129.414 289.347 130.019 287.843 131.229C286.34 132.384 285.201 134.09 284.381 136.235C283.606 138.381 283.196 140.967 283.196 143.993C283.196 148.559 284.062 152.135 285.748 154.831C287.479 157.471 289.939 158.792 293.129 158.792C294.177 158.792 295.225 158.627 296.182 158.242C297.139 157.857 297.913 157.306 298.506 156.646V147.239H292.172V143.442H301.969V158.627C301.012 159.837 299.736 160.827 298.141 161.653C296.546 162.423 294.769 162.808 292.764 162.808Z" fill="black"/>
<path d="M309.121 162.148V126.058H326.345V129.909H312.903V141.242H324.249V145.148H312.903V158.242H326.8V162.148H309.121Z" fill="black"/>
<path d="M333.137 162.148V126.058H342.477C344.528 126.058 346.305 126.388 347.9 127.048C349.494 127.653 350.725 128.753 351.59 130.239C352.502 131.724 352.957 133.705 352.957 136.18C352.957 138.986 352.365 141.242 351.135 142.947C349.904 144.653 348.264 145.808 346.214 146.413L353.823 162.148H349.54L342.341 146.908H336.919V162.148H333.137ZM336.919 143.167H341.931C344.254 143.167 346.077 142.617 347.307 141.462C348.538 140.307 349.175 138.546 349.175 136.18C349.175 133.815 348.538 132.109 347.307 131.174C346.077 130.239 344.254 129.744 341.931 129.744H336.919V143.167Z" fill="black"/>
<path d="M366.718 162.808C364.622 162.808 362.663 162.313 360.886 161.377C359.109 160.387 357.56 159.067 356.238 157.471L358.517 154.281C359.564 155.656 360.84 156.756 362.253 157.581C363.711 158.407 365.215 158.792 366.764 158.792C368.723 158.792 370.272 158.242 371.366 157.196C372.459 156.096 373.006 154.666 373.006 152.905C373.006 151.64 372.778 150.649 372.323 149.934C371.912 149.219 371.32 148.559 370.546 148.064C369.817 147.569 368.996 147.018 368.04 146.523L363.756 144.268C362.8 143.773 361.888 143.167 360.931 142.397C360.02 141.627 359.246 140.637 358.608 139.426C358.015 138.216 357.696 136.731 357.696 134.97C357.696 133.155 358.106 131.504 358.881 130.074C359.701 128.588 360.84 127.488 362.253 126.663C363.665 125.838 365.306 125.397 367.083 125.397C368.86 125.397 370.546 125.838 372.049 126.663C373.553 127.488 374.874 128.533 375.922 129.854L373.872 132.825C372.96 131.779 371.958 130.954 370.819 130.349C369.725 129.744 368.495 129.414 367.083 129.414C365.397 129.414 364.075 129.909 363.027 130.844C362.025 131.779 361.524 133.1 361.524 134.695C361.524 135.85 361.752 136.786 362.253 137.556C362.754 138.271 363.392 138.876 364.167 139.371C364.941 139.866 365.716 140.307 366.49 140.692L370.728 142.892C371.867 143.498 372.915 144.213 373.826 145.038C374.783 145.863 375.512 146.853 376.059 148.064C376.606 149.219 376.879 150.705 376.879 152.52C376.879 154.446 376.469 156.151 375.649 157.746C374.829 159.287 373.644 160.497 372.14 161.433C370.637 162.368 368.814 162.808 366.718 162.808Z" fill="black"/>
<path d="M388.041 162.148V129.909H379.02V126.058H400.891V129.909H391.869V162.148H388.041Z" fill="black"/>
<path d="M406.266 162.148V126.058H423.489V129.909H410.047V141.242H421.393V145.148H410.047V158.242H423.945V162.148H406.266Z" fill="black"/>
<path d="M430.277 162.148V126.058H434.196L444.995 148.724L448.23 156.206H448.412C448.321 154.391 448.23 152.465 448.093 150.539C448.002 148.559 447.956 146.633 447.956 144.708V126.058H451.556V162.148H447.637L436.793 139.426L433.558 131.999H433.376C433.512 133.815 433.604 135.63 433.695 137.556C433.831 139.481 433.877 141.352 433.877 143.277V162.148H430.277Z" fill="black"/>
<path d="M459.758 162.148V126.058H464.314L470.055 145.313C470.42 146.578 470.784 147.844 471.103 149.109C471.468 150.374 471.832 151.585 472.197 152.85H472.379C472.744 151.585 473.063 150.374 473.382 149.109C473.701 147.844 474.065 146.578 474.43 145.313L480.08 126.058H484.682V162.148H481.128V142.287C481.128 140.692 481.173 138.876 481.31 136.951C481.447 134.97 481.538 133.21 481.629 131.614H481.447L479.077 139.811L473.427 158.517H470.921L465.271 139.811L462.902 131.614H462.72C462.811 133.21 462.902 134.97 462.993 136.951C463.13 138.876 463.175 140.692 463.175 142.287V162.148H459.758Z" fill="black"/>
<path d="M498.035 141.957L496.622 147.459H505.599L504.186 141.957C503.639 139.921 503.138 137.941 502.637 135.96C502.136 133.925 501.68 131.889 501.179 129.799H500.996C500.541 131.889 500.085 133.925 499.584 135.96C499.083 137.941 498.582 139.921 498.035 141.957ZM488.922 162.148L499.037 126.058H503.32L513.436 162.148H509.38L506.555 151.145H495.665L492.795 162.148H488.922Z" fill="black"/>
<path d="M521.454 126.058H517.672V162.148H521.454V126.058Z" fill="black"/>
<path d="M529.656 162.148V126.058H546.88V129.909H533.438V141.242H544.784V145.148H533.438V158.242H547.335V162.148H529.656Z" fill="black"/>
<path d="M553.668 162.148V126.058H563.009C565.059 126.058 566.836 126.388 568.431 127.048C570.026 127.653 571.256 128.753 572.122 130.239C573.033 131.724 573.489 133.705 573.489 136.18C573.489 138.986 572.896 141.242 571.666 142.947C570.436 144.653 568.795 145.808 566.745 146.413L574.354 162.148H570.071L562.872 146.908H557.45V162.148H553.668ZM557.45 143.167H562.462C564.786 143.167 566.608 142.617 567.839 141.462C569.069 140.307 569.707 138.546 569.707 136.18C569.707 133.815 569.069 132.109 567.839 131.174C566.608 130.239 564.786 129.744 562.462 129.744H557.45V143.167Z" fill="black"/>
<path d="M226.462 200C224.821 200 223.352 199.548 222.056 198.609C220.76 197.67 219.752 196.314 219.032 194.54C218.312 192.767 217.938 190.646 217.938 188.177C217.938 185.708 218.312 183.621 219.061 181.848C219.81 180.074 220.846 178.718 222.142 177.779C223.438 176.84 224.936 176.354 226.606 176.354C227.902 176.354 228.997 176.666 229.89 177.258C230.782 177.849 231.502 178.475 232.05 179.17L230.725 181.048C230.235 180.457 229.688 179.935 229.054 179.518C228.421 179.101 227.614 178.892 226.664 178.892C225.397 178.892 224.302 179.275 223.352 180.04C222.402 180.77 221.682 181.848 221.163 183.204C220.674 184.56 220.414 186.195 220.414 188.107C220.414 190.993 220.962 193.254 222.027 194.958C223.122 196.627 224.677 197.461 226.693 197.461C227.355 197.461 228.018 197.357 228.622 197.114C229.227 196.87 229.717 196.522 230.091 196.105V190.159H226.088V187.759H232.28V197.357C231.675 198.122 230.869 198.748 229.861 199.27C228.853 199.756 227.73 200 226.462 200Z" fill="black"/>
<path d="M248.324 199.583V176.771H254.228C255.524 176.771 256.648 176.98 257.656 177.397C258.664 177.78 259.441 178.475 259.988 179.414C260.564 180.353 260.852 181.605 260.852 183.17C260.852 184.943 260.478 186.369 259.7 187.447C258.923 188.525 257.886 189.255 256.59 189.638L261.4 199.583H258.692L254.142 189.951H250.715V199.583H248.324ZM250.715 187.586H253.883C255.352 187.586 256.504 187.238 257.281 186.508C258.059 185.778 258.462 184.665 258.462 183.17C258.462 181.675 258.059 180.597 257.281 180.005C256.504 179.414 255.352 179.101 253.883 179.101H250.715V187.586Z" fill="black"/>
<path d="M282.941 200C281.645 200 280.493 199.688 279.457 199.062C278.449 198.436 277.642 197.392 277.037 195.967C276.433 194.541 276.145 192.594 276.145 190.159V176.771H278.535V190.229C278.535 192.072 278.737 193.498 279.111 194.576C279.514 195.619 280.033 196.349 280.695 196.801C281.357 197.253 282.106 197.462 282.941 197.462C283.777 197.462 284.554 197.253 285.217 196.801C285.879 196.349 286.426 195.619 286.801 194.576C287.204 193.498 287.405 192.072 287.405 190.229V176.771H289.709V190.159C289.709 192.594 289.421 194.541 288.817 195.967C288.212 197.392 287.405 198.436 286.397 199.062C285.389 199.688 284.237 200 282.941 200Z" fill="black"/>
<path d="M306.324 199.583V176.771H311.71C313.121 176.771 314.36 176.98 315.425 177.397C316.491 177.815 317.297 178.51 317.902 179.519C318.507 180.492 318.795 181.814 318.795 183.483C318.795 185.882 318.161 187.656 316.865 188.803C315.569 189.951 313.899 190.542 311.825 190.542H308.715V199.583H306.324ZM308.715 188.177H311.537C313.179 188.177 314.417 187.795 315.195 187.065C316.001 186.3 316.404 185.117 316.404 183.483C316.404 181.848 315.972 180.701 315.137 180.075C314.302 179.414 313.063 179.101 311.422 179.101H308.715V188.177Z" fill="black"/>
<path d="M334.148 199.583V176.771H339.534C340.945 176.771 342.184 176.98 343.249 177.397C344.315 177.815 345.121 178.51 345.726 179.519C346.331 180.492 346.619 181.814 346.619 183.483C346.619 185.882 345.985 187.656 344.689 188.803C343.393 189.951 341.723 190.542 339.649 190.542H336.539V199.583H334.148ZM336.539 188.177H339.361C341.003 188.177 342.241 187.795 343.019 187.065C343.825 186.3 344.229 185.117 344.229 183.483C344.229 181.848 343.797 180.701 342.961 180.075C342.126 179.414 340.888 179.101 339.246 179.101H336.539V188.177Z" fill="black"/>
<path d="M361.969 199.583V176.771H372.855V179.206H364.359V186.369H371.53V188.838H364.359V197.114H373.143V199.583H361.969Z" fill="black"/>
<path fill-rule="evenodd" clip-rule="evenodd" d="M201.613 186.335C204.403 186.542 204.441 189.967 201.613 190.019C168.416 190.633 35.63 190.633 2.43339 190.019C-0.394465 189.967 -0.394465 186.388 2.43339 186.335C25.1213 185.916 94.3268 185.783 146.466 185.937C170.617 186.008 192.422 185.655 201.613 186.335Z" fill="black"/>
<path fill-rule="evenodd" clip-rule="evenodd" d="M585.758 186.335C588.547 186.542 588.586 189.967 585.758 190.019C552.561 190.633 419.775 190.633 386.578 190.019C383.75 189.967 383.75 186.388 386.578 186.335C409.266 185.916 478.471 185.783 530.61 185.937C554.761 186.008 576.566 185.655 585.758 186.335Z" fill="black"/>
</svg>
