<svg width="631" height="200" viewBox="0 0 631 200" fill="none" xmlns="http://www.w3.org/2000/svg">
<path d="M341.531 108.717C319.522 97.4725 319.672 54.0887 341.77 39.6113C357.939 29.0184 382.447 33.6858 391.878 49.1542C402.16 66.0161 396.834 94.4153 381.247 105.836C371.996 112.615 351.999 114.066 341.531 108.717ZM373.007 82.9824C377.85 71.3913 375.601 60.0734 367.385 54.6902C361.749 50.9979 360.657 50.9979 355.021 54.6902C345.28 61.0719 343.494 78.9018 351.583 89.011C352.992 90.772 357.521 92.2129 361.647 92.2129C367.841 92.2129 369.822 90.6029 373.007 82.9824ZM156.263 73.0019V35.8606H165.229C171.675 35.8606 174.195 36.9928 174.195 39.8887C174.195 43.2278 175.349 43.0088 180.945 38.6079C189.577 31.8183 204.852 31.6189 212.978 38.1899C218.686 42.8057 219.073 44.9655 219.87 76.6119L220.714 110.143H210.263H199.812V85.6408C199.812 52.024 193.945 42.8783 182.066 57.9785C177.601 63.6536 176.757 68.3411 176.757 87.4354V110.143H166.51H156.263V73.0019ZM268.98 55.0716V0H279.145H289.311L290.033 30.0973L290.755 60.1945L298.44 48.0321C306.043 35.9998 306.272 35.8697 319.82 35.8652L333.515 35.86L324.195 48.027C308.044 69.1132 308.038 69.1608 319.991 86.7602C335.729 109.932 335.738 110.143 321.03 110.143C308.509 110.143 308.474 110.12 299.622 95.4771L290.755 80.8117L289.986 95.4771L289.218 110.143H279.099H268.98V55.0716ZM399.629 73.0019V35.8606H409.876C415.512 35.8606 420.123 37.0428 420.123 38.4878C420.123 39.9938 423.349 39.4472 427.681 37.2071C437.941 31.9024 449.061 32.294 456.345 38.2166C461.756 42.6167 462.843 42.7286 466.677 39.2803C474.078 32.6226 491.151 31.8172 499.173 37.7472C506.025 42.8128 506.279 42.8198 512.1 38.1066C520.235 31.5202 536.404 31.7383 543.192 38.5261L548.42 43.7531L555.066 38.5261C562.159 32.9472 576.169 31.6292 583.975 35.8065C591.479 39.8218 594.323 52.6158 594.323 82.3493V110.143H584.076H573.829V87.2567C573.829 52.8127 567.875 42.9891 556.083 57.9785C551.618 63.6536 550.773 68.3411 550.773 87.4354V110.143H540.526H530.279V83.5614C530.279 55.7571 527.926 49.3444 518.981 52.7763C511.11 55.7964 507.223 67.9442 507.223 89.5242V110.143H496.976H486.729V83.5614C486.729 54.5157 484.168 48.307 474.353 53.559C467.154 57.4114 463.673 69.7176 463.673 91.3144V110.143H453.426H443.179V81.8866C443.179 57.9387 442.532 53.3816 438.933 52.0008C436.141 50.9297 432.631 52.7611 428.686 57.347C423.36 63.5379 422.685 66.899 422.685 87.2328V110.143H411.157H399.629V73.0019ZM225.43 73.0019V64.0367H244.643H263.856V73.0019V81.967H244.643H225.43V73.0019Z" fill="black"/>
<path d="M0.988281 72.0355V136.018V200L17.4526 188.494C35.6531 175.774 67.7995 158.976 89.4261 150.886L103.459 145.636V103.556C103.459 61.6175 103.439 61.4748 97.6946 61.5004C91.5731 61.5266 30.1867 67.9809 11.8757 70.5236L0.988281 72.0355Z" fill="#FF5F00"/>
<path d="M108.582 78.5587C108.582 101.819 108.723 102.372 115.627 106.117C129.285 113.526 129.257 113.611 128.498 67.4548L127.795 24.766L91.9306 16.6872L56.066 8.6084L55.3323 34.095C54.9287 48.1125 54.9287 59.8425 55.3323 60.1615C55.7359 60.4805 67.8821 59.4095 82.324 57.7816L108.582 54.8218V78.5587Z" fill="#FF5F00"/>
<path d="M608.638 85.9547C602.365 90.3476 600.923 101.975 606.018 107.07C610.371 111.422 622.334 110.882 627.098 106.118C632.581 100.636 632.154 93.2436 626 87.0902C619.834 80.9249 616.162 80.6848 608.638 85.9547Z" fill="#FF5F00"/>
<path d="M173.52 130.455H179.978V150.292C179.978 152.519 179.446 154.468 178.382 156.138C177.328 157.809 175.851 159.111 173.952 160.046C172.053 160.971 169.841 161.433 167.315 161.433C164.779 161.433 162.562 160.971 160.663 160.046C158.764 159.111 157.287 157.809 156.233 156.138C155.179 154.468 154.652 152.519 154.652 150.292V130.455H161.11V149.74C161.11 150.903 161.364 151.937 161.871 152.842C162.388 153.747 163.114 154.458 164.049 154.975C164.983 155.492 166.072 155.751 167.315 155.751C168.568 155.751 169.657 155.492 170.581 154.975C171.516 154.458 172.237 153.747 172.744 152.842C173.261 151.937 173.52 150.903 173.52 149.74V130.455Z" fill="#1DA7E3"/>
<path d="M191.525 147.756V161.001H185.172V138.091H191.227V142.133H191.496C192.003 140.801 192.853 139.747 194.046 138.971C195.239 138.186 196.686 137.793 198.386 137.793C199.977 137.793 201.364 138.141 202.547 138.837C203.731 139.533 204.65 140.528 205.307 141.82C205.963 143.103 206.291 144.634 206.291 146.414V161.001H199.937V147.547C199.947 146.145 199.589 145.052 198.863 144.266C198.138 143.471 197.138 143.073 195.866 143.073C195.01 143.073 194.255 143.257 193.599 143.625C192.952 143.993 192.445 144.53 192.077 145.236C191.719 145.932 191.535 146.772 191.525 147.756Z" fill="#1DA7E3"/>
<path d="M230.36 144.624L224.543 144.982C224.444 144.485 224.23 144.037 223.902 143.64C223.574 143.232 223.141 142.909 222.604 142.67C222.077 142.422 221.446 142.297 220.71 142.297C219.725 142.297 218.895 142.506 218.219 142.924C217.543 143.331 217.205 143.878 217.205 144.564C217.205 145.111 217.424 145.574 217.861 145.952C218.299 146.329 219.049 146.633 220.113 146.861L224.26 147.697C226.487 148.154 228.147 148.89 229.241 149.904C230.335 150.918 230.882 152.251 230.882 153.901C230.882 155.403 230.439 156.72 229.554 157.854C228.679 158.987 227.476 159.872 225.945 160.508C224.424 161.135 222.669 161.448 220.68 161.448C217.647 161.448 215.231 160.817 213.431 159.554C211.642 158.281 210.593 156.551 210.284 154.363L216.534 154.035C216.723 154.96 217.18 155.666 217.906 156.153C218.632 156.631 219.561 156.869 220.695 156.869C221.809 156.869 222.703 156.655 223.38 156.228C224.066 155.79 224.414 155.229 224.424 154.542C224.414 153.966 224.17 153.493 223.693 153.126C223.216 152.748 222.48 152.459 221.485 152.26L217.518 151.47C215.281 151.023 213.615 150.247 212.522 149.143C211.438 148.04 210.896 146.633 210.896 144.922C210.896 143.451 211.294 142.183 212.089 141.119C212.895 140.055 214.023 139.235 215.475 138.658C216.936 138.081 218.647 137.793 220.605 137.793C223.499 137.793 225.776 138.405 227.436 139.628C229.107 140.851 230.081 142.516 230.36 144.624Z" fill="#1DA7E3"/>
<path d="M245.323 161.448C242.966 161.448 240.938 160.971 239.238 160.016C237.547 159.052 236.245 157.689 235.33 155.93C234.415 154.16 233.958 152.067 233.958 149.65C233.958 147.294 234.415 145.226 235.33 143.446C236.245 141.666 237.532 140.279 239.193 139.285C240.863 138.29 242.822 137.793 245.069 137.793C246.581 137.793 247.988 138.037 249.29 138.524C250.603 139.001 251.746 139.722 252.721 140.687C253.705 141.651 254.471 142.864 255.018 144.326C255.564 145.778 255.838 147.478 255.838 149.427V151.172H236.493V147.234H249.857C249.857 146.319 249.658 145.509 249.26 144.803C248.863 144.097 248.311 143.545 247.605 143.148C246.909 142.74 246.099 142.536 245.174 142.536C244.209 142.536 243.354 142.76 242.608 143.207C241.873 143.645 241.296 144.236 240.878 144.982C240.461 145.718 240.247 146.538 240.237 147.443V151.187C240.237 152.32 240.446 153.3 240.863 154.125C241.291 154.95 241.893 155.586 242.668 156.034C243.444 156.481 244.363 156.705 245.427 156.705C246.133 156.705 246.78 156.606 247.366 156.407C247.953 156.208 248.455 155.91 248.873 155.512C249.29 155.114 249.608 154.627 249.827 154.05L255.704 154.438C255.405 155.85 254.794 157.083 253.869 158.137C252.954 159.181 251.771 159.996 250.319 160.583C248.878 161.16 247.212 161.448 245.323 161.448Z" fill="#1DA7E3"/>
<path d="M259.984 161.001V138.091H266.144V142.089H266.383C266.8 140.667 267.501 139.593 268.486 138.867C269.47 138.131 270.604 137.763 271.886 137.763C272.204 137.763 272.547 137.783 272.915 137.823C273.283 137.863 273.606 137.917 273.885 137.987V143.625C273.586 143.535 273.174 143.456 272.647 143.386C272.12 143.317 271.638 143.282 271.2 143.282C270.265 143.282 269.43 143.486 268.694 143.893C267.969 144.291 267.392 144.848 266.964 145.564C266.547 146.28 266.338 147.105 266.338 148.04V161.001H259.984Z" fill="#1DA7E3"/>
<path d="M293.468 130.455V161.001H287.01V130.455H293.468Z" fill="#1DA7E3"/>
<path d="M297.618 135.78V130.455H322.705V135.78H313.353V161.001H306.969V135.78H297.618Z" fill="#1DA7E3"/>
<path d="M336.557 161.001V130.455H348.608C350.925 130.455 352.898 130.898 354.529 131.782C356.16 132.657 357.403 133.876 358.258 135.437C359.123 136.988 359.555 138.778 359.555 140.806C359.555 142.834 359.118 144.624 358.243 146.175C357.368 147.726 356.1 148.934 354.439 149.8C352.789 150.665 350.79 151.097 348.444 151.097H340.763V145.922H347.4C348.643 145.922 349.667 145.708 350.472 145.28C351.287 144.843 351.894 144.241 352.292 143.476C352.699 142.7 352.903 141.81 352.903 140.806C352.903 139.792 352.699 138.907 352.292 138.151C351.894 137.385 351.287 136.794 350.472 136.376C349.657 135.949 348.623 135.735 347.37 135.735H343.015V161.001H336.557Z" fill="#1DA7E3"/>
<path d="M369.548 161.433C368.086 161.433 366.784 161.18 365.64 160.672C364.497 160.155 363.592 159.395 362.926 158.39C362.27 157.376 361.942 156.113 361.942 154.602C361.942 153.329 362.175 152.26 362.643 151.395C363.11 150.53 363.746 149.834 364.552 149.307C365.357 148.78 366.272 148.383 367.296 148.114C368.33 147.846 369.414 147.657 370.547 147.547C371.88 147.408 372.954 147.279 373.769 147.16C374.584 147.03 375.176 146.841 375.544 146.593C375.912 146.344 376.096 145.976 376.096 145.489V145.4C376.096 144.455 375.797 143.724 375.201 143.207C374.614 142.69 373.779 142.432 372.695 142.432C371.552 142.432 370.642 142.685 369.966 143.192C369.29 143.689 368.842 144.316 368.623 145.072L362.747 144.594C363.045 143.202 363.632 141.999 364.507 140.985C365.382 139.961 366.51 139.175 367.893 138.628C369.285 138.072 370.895 137.793 372.725 137.793C373.998 137.793 375.216 137.942 376.379 138.241C377.552 138.539 378.591 139.001 379.496 139.628C380.411 140.254 381.132 141.059 381.659 142.044C382.186 143.018 382.449 144.187 382.449 145.549V161.001H376.424V157.824H376.245C375.877 158.54 375.385 159.171 374.768 159.718C374.152 160.255 373.411 160.677 372.546 160.986C371.681 161.284 370.682 161.433 369.548 161.433ZM371.368 157.048C372.302 157.048 373.128 156.864 373.844 156.496C374.559 156.118 375.121 155.611 375.529 154.975C375.937 154.339 376.14 153.618 376.14 152.812V150.381C375.942 150.51 375.668 150.63 375.32 150.739C374.982 150.839 374.599 150.933 374.172 151.023C373.744 151.102 373.317 151.177 372.889 151.246C372.461 151.306 372.074 151.361 371.726 151.41C370.98 151.52 370.329 151.694 369.772 151.932C369.215 152.171 368.783 152.494 368.474 152.902C368.166 153.3 368.012 153.797 368.012 154.393C368.012 155.258 368.325 155.92 368.952 156.377C369.588 156.824 370.393 157.048 371.368 157.048Z" fill="#1DA7E3"/>
<path d="M387.379 161.001V138.091H393.539V142.089H393.777C394.195 140.667 394.896 139.593 395.88 138.867C396.865 138.131 397.998 137.763 399.281 137.763C399.599 137.763 399.942 137.783 400.31 137.823C400.678 137.863 401.001 137.917 401.279 137.987V143.625C400.981 143.535 400.568 143.456 400.041 143.386C399.514 143.317 399.032 143.282 398.595 143.282C397.66 143.282 396.825 143.486 396.089 143.893C395.363 144.291 394.786 144.848 394.359 145.564C393.941 146.28 393.732 147.105 393.732 148.04V161.001H387.379Z" fill="#1DA7E3"/>
<path d="M417.898 138.091V142.864H404.102V138.091H417.898ZM407.234 132.603H413.588V153.961C413.588 154.547 413.677 155.005 413.856 155.333C414.035 155.651 414.284 155.875 414.602 156.004C414.93 156.133 415.308 156.198 415.735 156.198C416.034 156.198 416.332 156.173 416.63 156.123C416.929 156.064 417.157 156.019 417.316 155.989L418.316 160.717C417.998 160.817 417.55 160.931 416.973 161.06C416.397 161.199 415.696 161.284 414.87 161.314C413.339 161.373 411.997 161.17 410.843 160.702C409.7 160.235 408.81 159.509 408.174 158.525C407.537 157.54 407.224 156.297 407.234 154.796V132.603Z" fill="#1DA7E3"/>
<path d="M428.391 147.756V161.001H422.037V138.091H428.092V142.133H428.361C428.868 140.801 429.718 139.747 430.911 138.971C432.104 138.186 433.551 137.793 435.251 137.793C436.842 137.793 438.229 138.141 439.413 138.837C440.596 139.533 441.516 140.528 442.172 141.82C442.828 143.103 443.156 144.634 443.156 146.414V161.001H436.803V147.547C436.812 146.145 436.455 145.052 435.729 144.266C435.003 143.471 434.004 143.073 432.731 143.073C431.876 143.073 431.12 143.257 430.464 143.625C429.817 143.993 429.31 144.53 428.942 145.236C428.585 145.932 428.401 146.772 428.391 147.756Z" fill="#1DA7E3"/>
<path d="M458.604 161.448C456.248 161.448 454.219 160.971 452.519 160.016C450.829 159.052 449.526 157.689 448.611 155.93C447.697 154.16 447.239 152.067 447.239 149.65C447.239 147.294 447.697 145.226 448.611 143.446C449.526 141.666 450.814 140.279 452.474 139.285C454.145 138.29 456.104 137.793 458.351 137.793C459.862 137.793 461.269 138.037 462.572 138.524C463.884 139.001 465.028 139.722 466.002 140.687C466.986 141.651 467.752 142.864 468.299 144.326C468.846 145.778 469.119 147.478 469.119 149.427V151.172H449.775V147.234H463.138C463.138 146.319 462.939 145.509 462.542 144.803C462.144 144.097 461.592 143.545 460.886 143.148C460.19 142.74 459.38 142.536 458.455 142.536C457.491 142.536 456.635 142.76 455.89 143.207C455.154 143.645 454.577 144.236 454.16 144.982C453.742 145.718 453.528 146.538 453.518 147.443V151.187C453.518 152.32 453.727 153.3 454.145 154.125C454.572 154.95 455.174 155.586 455.949 156.034C456.725 156.481 457.645 156.705 458.709 156.705C459.415 156.705 460.061 156.606 460.648 156.407C461.234 156.208 461.736 155.91 462.154 155.512C462.572 155.114 462.89 154.627 463.108 154.05L468.985 154.438C468.687 155.85 468.075 157.083 467.15 158.137C466.236 159.181 465.052 159.996 463.601 160.583C462.159 161.16 460.493 161.448 458.604 161.448Z" fill="#1DA7E3"/>
<path d="M473.265 161.001V138.091H479.425V142.089H479.664C480.081 140.667 480.783 139.593 481.767 138.867C482.751 138.131 483.885 137.763 485.167 137.763C485.486 137.763 485.829 137.783 486.197 137.823C486.564 137.863 486.888 137.917 487.166 137.987V143.625C486.868 143.535 486.455 143.456 485.928 143.386C485.401 143.317 484.919 143.282 484.481 143.282C483.547 143.282 482.711 143.486 481.976 143.893C481.25 144.291 480.673 144.848 480.246 145.564C479.828 146.28 479.619 147.105 479.619 148.04V161.001H473.265Z" fill="#1DA7E3"/>
</svg>
