<svg width="649" height="200" viewBox="0 0 649 200" fill="none" xmlns="http://www.w3.org/2000/svg">
<path d="M198.504 177.64L198.504 172.458H183.139L198.209 148.197L198.209 143.165H176.122L176.122 148.398L190.699 148.398L175.477 172.556L175.477 177.64L198.504 177.64ZM226.397 177.64L226.397 152.254H220.079L220.08 169.588C217.904 171.916 216.421 173.15 213.849 173.15C210.733 173.15 209.699 170.783 209.699 166.978L209.699 152.254H203.373L203.374 168.259C203.374 174.286 205.942 178.328 212.366 178.328C215.977 178.328 218.302 177.148 221.02 174.432L221.614 177.64L226.397 177.64ZM246.474 177.64C249.88 169.144 252.598 160.75 254.774 152.254H248.598C247.457 157.393 245.978 162.822 244.251 168.008C243.905 168.999 243.559 170.084 243.26 171.122H243.213L242.222 168.008C240.444 162.972 238.91 157.684 237.627 152.254H231.007C233.08 160.801 235.849 169.293 239.311 177.64H246.474ZM279.327 172.305C276.711 173.005 273.946 173.394 270.98 173.394C265.741 173.394 263.908 170.779 263.908 166.329H280.708C280.759 165.342 280.81 164.006 280.81 163.369C280.81 156.103 277.455 151.562 269.89 151.562C261.834 151.562 257.39 156.795 257.39 165.193C257.39 174.086 261.437 178.328 269.989 178.328C273.698 178.328 277.006 177.789 279.968 176.901L279.327 172.305ZM263.908 162.232C264.006 159.17 265.741 156.052 269.544 156.052C273.053 156.052 274.686 158.474 274.54 162.232H263.908ZM293.229 177.64L293.228 161.93C295.6 158.918 297.083 157.538 298.712 157.538C299.459 157.538 300.793 157.731 301.332 157.88L302.075 151.908C301.139 151.665 300.344 151.563 299.058 151.563C296.442 151.563 294.912 153.096 292.438 156.496L291.848 152.254H286.911L286.911 177.64H293.229ZM316.535 173.099H314.808C313.325 173.099 312.83 172.262 312.83 170.579L312.829 140.598H306.512L306.512 172.211C306.512 176.802 309.077 178.179 312.582 178.179C314.218 178.179 315.595 177.888 316.535 177.64V173.099ZM342.217 177.64L342.217 160.404C342.217 154.818 339.204 151.563 331.593 151.563C328.277 151.563 324.725 152.254 322.156 153.194L323.242 157.778C325.464 156.894 328.233 156.3 330.708 156.3C334.81 156.3 335.998 157.829 335.998 160.998L335.998 162.335H332.934C324.921 162.335 320.229 164.8 320.229 170.579C320.229 175.717 323.738 178.328 328.922 178.328C332.191 178.328 334.661 177.298 336.935 175.226L337.43 177.64H342.217ZM335.998 171.22C334.366 172.706 332.635 173.74 330.409 173.74C327.836 173.74 326.55 172.36 326.55 170.233C326.55 167.713 328.481 166.427 332.832 166.427H335.998L335.998 171.22ZM337.379 147.556C339.251 147.556 340.585 146.224 340.585 144.301C340.585 142.422 339.251 141.089 337.379 141.089C335.4 141.089 334.118 142.422 334.118 144.301C334.118 146.224 335.4 147.556 337.379 147.556ZM327.097 147.556C329.067 147.556 330.354 146.224 330.354 144.301C330.354 142.422 329.067 141.089 327.097 141.089C325.169 141.089 323.887 142.422 323.887 144.301C323.887 146.224 325.169 147.556 327.097 147.556ZM347.925 177.345C350.348 177.986 353.011 178.328 355.434 178.328C361.96 178.328 365.811 175.124 365.811 170.233C365.811 161.289 354.644 163.514 354.644 159.017C354.644 157.389 355.832 156.3 358.404 156.3C359.934 156.3 361.862 156.642 363.593 157.137L364.328 152.306C362.208 151.81 359.985 151.563 358.105 151.563C351.874 151.563 348.071 154.672 348.071 159.512C348.071 168.307 359.144 166.231 359.144 170.78C359.144 172.411 357.909 173.496 355.234 173.496C353.161 173.496 350.84 173.052 348.814 172.36L347.925 177.345ZM369.65 177.345C372.073 177.986 374.736 178.328 377.156 178.328C383.685 178.328 387.54 175.124 387.54 170.233C387.54 161.289 376.369 163.514 376.369 159.017C376.369 157.389 377.557 156.3 380.129 156.3C381.663 156.3 383.587 156.642 385.318 157.137L386.057 152.306C383.933 151.81 381.711 151.563 379.834 151.563C373.603 151.563 369.8 154.672 369.8 159.512C369.8 168.307 380.877 166.231 380.877 170.78C380.877 172.411 379.634 173.496 376.963 173.496C374.886 173.496 372.565 173.052 370.543 172.36L369.65 177.345ZM397.48 148.496C399.75 148.496 401.382 146.967 401.382 144.694C401.382 142.422 399.75 140.896 397.48 140.896C395.211 140.896 393.578 142.422 393.578 144.694C393.578 146.967 395.211 148.496 397.48 148.496ZM400.789 177.64L400.789 152.254H390.467L390.467 157.039H394.471L394.471 177.64H400.789ZM424.548 177.691C424.548 182.086 422.522 183.376 417.676 183.376C415.201 183.376 412.534 183.227 410.261 182.928L410.064 187.622C412.534 188.113 415.496 188.357 417.923 188.357C426.621 188.357 430.865 184.905 430.865 176.803L430.865 153.489C427.659 152.455 423.855 151.81 420.346 151.81C410.906 151.81 406.555 157.68 406.555 165.59C406.555 172.36 409.765 177.836 417.03 177.837C420 177.837 422.372 176.803 424.547 174.731L424.548 177.691ZM424.547 169.348C422.62 171.57 420.689 172.706 418.368 172.706C414.411 172.706 413.223 169.246 413.223 164.945C413.223 159.807 415.547 156.744 419.8 156.744C421.629 156.744 423.312 157.137 424.547 157.68L424.547 169.348ZM461.268 177.64L451.083 161.191L460.28 152.254H452.519C449.899 155.219 447.083 158.234 444.412 161.096L444.412 140.598H438.091L438.091 177.64H444.412L444.412 167.465L446.489 165.393L453.656 177.64H461.268ZM485.07 172.305C482.45 173.005 479.689 173.394 476.719 173.394C471.479 173.394 469.65 170.78 469.65 166.329H486.45C486.501 165.342 486.549 164.006 486.549 163.369C486.549 156.103 483.193 151.563 475.633 151.563C467.573 151.563 463.128 156.795 463.128 165.193C463.128 174.086 467.18 178.328 475.731 178.328C479.441 178.328 482.749 177.789 485.711 176.901L485.07 172.305ZM469.65 162.233C469.748 159.17 471.479 156.052 475.283 156.052C478.796 156.052 480.432 158.474 480.282 162.233H469.65ZM497.11 148.496C499.384 148.496 501.012 146.967 501.012 144.694C501.012 142.422 499.384 140.897 497.11 140.897C494.841 140.897 493.208 142.422 493.208 144.694C493.208 146.967 494.841 148.496 497.11 148.496ZM500.422 177.64L500.422 152.255H490.097V157.039H494.101L494.101 177.64H500.422ZM520.586 173.15H518.564C515.992 173.15 515.004 172.454 515.004 169.097L515.004 157.039H520.586L520.586 152.255H515.004L515.004 144.895H510.166L508.683 152.255H505.025V157.039H508.683L508.683 171.023C508.683 176.409 511.499 178.179 515.645 178.179C517.478 178.179 519.453 177.986 520.586 177.593L520.586 173.15ZM553.306 173.15H551.28C548.711 173.15 547.724 172.454 547.724 169.097L547.724 157.039H553.306L553.306 152.255L547.724 152.255L547.724 144.895H542.881L541.402 152.255H537.744V157.039H541.402L541.403 171.023C541.403 176.409 544.219 178.179 548.365 178.179C550.194 178.179 552.173 177.986 553.306 177.593V173.15ZM565.114 177.64L565.114 161.93C567.49 158.918 568.969 157.538 570.602 157.538C571.345 157.538 572.678 157.731 573.225 157.88L573.965 151.909C573.025 151.665 572.238 151.563 570.952 151.563C568.328 151.563 566.798 153.096 564.327 156.497L563.733 152.255H558.797L558.797 177.64L565.114 177.64ZM598.585 177.64L598.585 160.404C598.585 154.818 595.572 151.563 587.956 151.563C584.648 151.563 581.089 152.255 578.52 153.194L579.609 157.778C581.828 156.894 584.593 156.3 587.071 156.3C591.174 156.3 592.362 157.829 592.362 160.998L592.362 162.335H589.294C581.281 162.335 576.596 164.8 576.596 170.579C576.596 175.717 580.101 178.328 585.29 178.328C588.551 178.328 591.025 177.298 593.298 175.226L593.794 177.64H598.585ZM592.362 171.22C590.73 172.706 588.999 173.74 586.773 173.74C584.204 173.74 582.914 172.36 582.914 170.233C582.914 167.713 584.845 166.427 589.196 166.427H592.362V171.22ZM593.743 147.556C595.619 147.556 596.953 146.224 596.953 144.301C596.953 142.422 595.619 141.089 593.743 141.089C591.764 141.089 590.482 142.422 590.482 144.301C590.482 146.224 591.764 147.556 593.743 147.556ZM583.46 147.556C585.439 147.556 586.721 146.224 586.721 144.301C586.721 142.422 585.439 141.089 583.46 141.089C581.537 141.089 580.254 142.422 580.255 144.301C580.255 146.224 581.537 147.556 583.46 147.556ZM622.344 177.691C622.344 182.086 620.318 183.376 615.472 183.376C612.994 183.376 610.327 183.227 608.053 182.928L607.861 187.622C610.327 188.113 613.289 188.357 615.716 188.357C624.417 188.357 628.661 184.905 628.661 176.803L628.661 153.489C625.452 152.455 621.648 151.81 618.139 151.81C608.698 151.81 604.352 157.68 604.352 165.59C604.352 172.36 607.562 177.837 614.823 177.837C617.793 177.837 620.169 176.803 622.344 174.731V177.691ZM622.344 169.349C620.413 171.57 618.481 172.706 616.16 172.706C612.203 172.706 611.019 169.246 611.019 164.945C611.019 159.807 613.34 156.744 617.596 156.744C619.421 156.744 621.105 157.137 622.344 157.68L622.344 169.349ZM648.994 173.15H646.964C644.396 173.15 643.412 172.454 643.412 169.097L643.412 157.039H648.994V152.255H643.412V144.895H638.57L637.087 152.255L633.433 152.255L633.433 157.039H637.087L637.087 171.023C637.087 176.409 639.904 178.179 644.054 178.179C645.879 178.179 647.861 177.986 648.994 177.593V173.15Z" fill="#00487D"/>
<path d="M623.519 21.6465L594.633 57.2997V21.6465H575.178V111.123H594.633V84.1824L604.462 72.4434L626.319 111.123H648.999L617.409 57.5815L647.392 21.6465L623.519 21.6465ZM527.809 38.5196C536.634 38.5196 540.014 44.7269 541.292 49.9305L541.524 50.8647H561.179L560.94 49.4325C557.939 31.5751 545.51 20.9092 527.685 20.9092C518.095 20.9092 509.903 24.2406 503.337 30.803C494.407 39.7279 494.411 50.413 494.419 65.1977V67.5679C494.411 82.3526 494.407 93.0378 503.337 101.966C509.907 108.529 518.099 111.86 527.685 111.86C545.506 111.86 557.939 101.194 560.94 83.3331L561.179 81.9048H541.524L541.292 82.8351C540.014 88.0387 536.634 94.246 527.809 94.246C523.688 94.246 520.154 92.7907 517.836 90.131C514.862 86.8266 513.873 82.9317 513.873 66.3828C513.873 49.834 514.862 45.939 517.848 42.6231C520.154 39.9749 523.691 38.5196 527.809 38.5196ZM436.4 41.8193C433.407 45.1391 432.541 48.6403 432.541 65.4594C432.541 82.2784 433.407 85.7797 436.384 89.084C438.733 91.7862 442.406 93.3264 446.48 93.3264C450.532 93.3264 454.07 91.8248 456.441 89.0995C459.477 85.7295 460.416 82.0314 460.416 65.4594C460.416 48.8874 459.477 45.1931 456.453 41.8347L456.441 41.8193C454.07 39.094 450.532 37.5923 446.48 37.5923C442.41 37.5923 438.737 39.1326 436.4 41.8193ZM446.48 20.9092C456.202 20.9092 464.166 24.148 470.829 30.7992C479.874 39.8437 479.87 50.7218 479.87 65.7768V66.9889C479.87 82.0438 479.874 92.9219 470.829 101.966C464.166 108.622 456.202 111.856 446.48 111.856C436.674 111.856 428.671 108.622 422.009 101.966C413.079 93.0339 413.083 82.3526 413.091 67.5679V65.1977C413.083 50.413 413.079 39.7318 422.009 30.7992C428.671 24.148 436.674 20.9092 446.48 20.9092ZM424.952 16.0258H440.981V0.00585938H424.952V16.0258ZM451.98 16.0258H468.009V0.00585938H451.98V16.0258ZM377.425 57.2148H350.404V21.6465H330.95V111.127H350.404V74.7016H377.425V111.127H396.876V21.6465H377.425V57.2148ZM284.488 38.5196C293.313 38.5196 296.693 44.7269 297.971 49.9305L298.203 50.8647H317.855L317.615 49.4325C314.618 31.5751 302.185 20.9092 284.364 20.9092C274.774 20.9092 266.582 24.2406 260.016 30.803C251.087 39.7279 251.09 50.4092 251.098 65.1939V67.5718C251.09 82.3565 251.087 93.0378 260.016 101.966C266.586 108.529 274.778 111.86 284.364 111.86C302.185 111.86 314.618 101.194 317.615 83.3331L317.855 81.9048H298.203L297.971 82.8351C296.693 88.0387 293.313 94.246 284.488 94.246C280.367 94.246 276.829 92.7907 274.516 90.131C271.541 86.8266 270.549 82.9317 270.549 66.3828C270.549 49.834 271.541 45.939 274.527 42.6192C276.829 39.9749 280.367 38.5196 284.488 38.5196ZM214.957 57.8363C222.871 58.9326 228.208 61.102 232.252 64.8735C236.976 69.3513 239.367 75.8597 239.367 84.2287C239.367 100.754 225.899 111.856 205.853 111.856C191.149 111.856 181.381 108.313 173.182 100.002L172.328 99.1331L185.066 86.4097L185.931 87.2744C190.628 91.9646 197.225 94.246 206.1 94.246C212.57 94.246 220.283 92.5977 220.283 84.7189C220.283 81.9087 219.487 79.6852 217.985 78.2839C216.617 77.0178 215.03 76.1608 210.932 75.5432L200.427 74.0763C192.671 72.9336 186.932 70.4669 182.865 66.5334C178.411 62.0825 176.256 56.2034 176.256 48.537C176.256 32.0151 188.936 20.9092 207.811 20.9092C220.352 20.9092 229.29 24.1441 236.794 31.4014L237.694 32.2738L225.192 44.6265L224.331 43.8004C219.116 38.8207 212.809 38.1529 207.325 38.1529C199.782 38.1529 195.097 41.8973 195.097 47.927C195.097 49.1585 195.382 51.4977 197.275 53.2657C198.951 54.8176 201.651 55.9486 204.679 56.3694L214.957 57.8363Z" fill="#00487D"/>
<path d="M0 0V94.1783H94.0462V69.9492L24.7765 69.9454L24.6048 24.5305L129.801 24.5267V0H0Z" fill="#DC9D00"/>
<path d="M35.5945 35.4746L35.6861 59.002H104.998V105.126H0V129.733H129.801V35.4746H35.5945Z" fill="#DC9D00"/>
</svg>
