<svg width="285" height="200" viewBox="0 0 285 200" fill="none" xmlns="http://www.w3.org/2000/svg">
<path d="M158.113 121.86C157.123 121.496 156.492 120.495 155.808 119.692C155.077 118.835 154.261 117.57 153.729 116.717C153.303 116.034 152.928 115.301 152.617 114.573C152.308 113.852 152.068 113.103 151.858 112.347C151.64 111.56 151.484 110.617 151.306 109.846C151.142 109.137 150.97 108.429 150.795 107.722C150.615 107.001 150.337 106.272 150.229 105.523C149.977 103.808 149.374 99.5979 149.289 97.4271C149.225 95.7793 149.581 93.6517 149.723 92.4992C149.805 91.8276 149.851 91.1251 150.139 90.5123C150.609 89.5082 151.657 87.5078 152.543 86.4749C153.333 85.5565 154.607 84.8234 155.464 84.3146C156.151 83.9066 156.923 83.6487 157.689 83.4217C158.501 83.1816 159.462 83.1015 160.332 82.8732C162.757 82.2376 169.953 80.3989 172.231 79.6089C172.955 79.3577 173.447 78.6701 173.996 78.1337C174.572 77.5693 175.082 76.8186 175.689 76.2228C176.357 75.5685 177.234 74.881 178.004 74.2069C179.274 73.0948 182.472 71.6243 183.306 69.5507C184.141 67.477 183.126 63.4964 183.01 61.7651C182.951 60.8896 182.744 59.8863 182.614 59.1627C182.51 58.5784 182.624 57.8692 182.232 57.4232C181.639 56.7477 179.95 55.7159 179.054 55.1103C178.345 54.6314 177.089 54.6124 176.852 53.7899C176.584 52.8566 177.182 50.7945 177.446 49.5103C177.685 48.346 178.254 46.9235 178.435 46.0844C178.548 45.5593 178.678 44.9914 178.528 44.4757C178.322 43.7699 177.731 42.6749 177.202 41.8492C176.407 40.608 174.956 38.3591 173.755 37.0286C172.657 35.8132 171.036 34.6522 169.995 33.866C169.215 33.2767 168.445 32.5848 167.506 32.3121C166.317 31.967 164.413 31.9469 162.863 31.7958C161.041 31.6181 158.13 31.6645 156.576 31.2463C155.409 30.9328 154.406 29.8643 153.53 29.2864C152.785 28.7953 151.988 28.2398 151.32 27.7789C150.717 27.3634 150.09 26.9814 149.52 26.5208C148.472 25.672 146.453 23.3365 145.031 22.6858C143.803 22.1248 142.244 22.1403 140.982 22.6171C139.344 23.2361 136.585 25.61 135.197 26.3995C134.412 26.8468 133.549 27.1971 132.658 27.3543C131.737 27.5168 130.666 27.402 129.671 27.3747C128.592 27.345 127.311 26.8795 126.188 27.1766C125.037 27.4809 123.736 28.5437 122.762 29.2005C121.912 29.7752 121.146 30.4737 120.354 31.1178C119.563 31.7592 118.723 32.506 118.003 33.0656C117.366 33.5608 116.636 33.9353 116.039 34.4763C115.296 35.1494 114.141 36.3988 113.545 37.1042C113.13 37.5966 112.793 38.1864 112.466 38.7084C112.155 39.2069 111.762 39.6758 111.589 40.2372C111.275 41.2527 110.955 43.4615 110.584 44.8014C110.256 45.9851 110.06 47.279 109.359 48.2767C108.658 49.2743 107.342 49.9171 106.376 50.7873C105.123 51.9179 102.96 53.5204 101.835 55.0604C100.766 56.5234 99.7251 58.2178 99.6253 60.0269C99.5169 62.0174 99.9969 65.0223 101.18 67.0035C102.362 68.9849 105.47 70.844 106.72 71.9149C107.349 72.4532 108.042 72.9131 108.69 73.4286C109.36 73.9631 110.076 74.5407 110.749 75.1215C111.477 75.7509 112.264 76.5406 113.062 77.2054C113.859 77.8704 114.729 78.5761 115.533 79.112C116.281 79.6097 117.157 80.0661 117.885 80.4207C118.54 80.7388 119.233 80.9716 119.91 81.2392C120.659 81.5351 121.645 81.8251 122.378 82.1963C123.065 82.5438 123.666 83.0376 124.305 83.4657C125.008 83.9363 125.783 84.5818 126.596 85.02C127.424 85.4672 128.653 85.9174 129.276 86.1491C129.617 86.2759 130.025 86.2204 130.336 86.4105C131.104 86.8808 133.063 87.7652 133.883 88.9708C134.76 90.2607 135.54 92.3322 135.601 94.1501C135.687 96.7804 134.704 102.6 134.409 104.752C134.301 105.54 134.058 106.304 133.829 107.066C133.531 108.061 132.94 109.777 132.623 110.728C132.396 111.41 132.195 112.124 131.929 112.769C131.672 113.398 131.36 114.004 131.033 114.601C130.67 115.264 130.203 116.05 129.75 116.752C129.22 117.575 128.368 118.824 127.846 119.543C127.463 120.071 126.99 120.709 126.619 121.069C126.335 121.343 125.99 121.568 125.617 121.699C125.082 121.887 124.156 122.308 123.41 122.198C122.193 122.019 119.584 121.075 118.315 120.624C117.449 120.316 116.622 119.866 115.799 119.492C114.994 119.124 114.146 118.757 113.386 118.378C112.659 118.015 111.95 117.615 111.242 117.215C110.517 116.807 109.755 116.357 109.044 115.928C108.348 115.508 107.653 115.086 106.975 114.638C106.224 114.143 105.318 113.528 104.544 112.958C103.791 112.402 103.027 111.852 102.339 111.218C100.648 109.664 96.0381 105.265 94.3999 103.631C93.7131 102.945 93.1174 102.173 92.5115 101.414C91.8898 100.637 91.2276 99.7302 90.6767 98.9693C90.1706 98.2723 89.6718 97.5556 89.2019 96.8488C88.7392 96.1516 88.2866 95.4465 87.8572 94.7284C87.3945 93.9572 86.874 93.0577 86.4316 92.2223C85.9963 91.4004 85.5582 90.4763 85.2054 89.7164C84.8917 89.0396 84.6054 88.3436 84.3148 87.6631C84.0271 86.9884 83.7364 86.3145 83.4646 85.6333C83.1769 84.9117 82.8616 84.1074 82.5884 83.3339C82.3122 82.5502 82.0303 81.6874 81.8047 80.9302C81.5936 80.223 81.397 79.4528 81.2321 78.7911C81.0818 78.1837 80.9357 77.5746 80.82 76.9597C80.674 76.1783 80.4542 75.0619 80.3501 74.1022C80.1202 71.97 79.4523 67.4923 79.4378 64.1665C79.4219 60.5521 80.0508 54.7759 80.2533 52.4158C80.3227 51.6046 80.5164 50.7613 80.6523 50.0062C80.7796 49.2975 80.9112 48.5893 81.0644 47.8858C81.2235 47.1577 81.3999 46.3811 81.6052 45.6381C81.8177 44.8597 82.091 43.983 82.3484 43.2149C82.5942 42.4791 82.8645 41.7513 83.1494 41.0292C83.4429 40.2817 83.8087 39.4742 84.1123 38.7298C84.4073 38.01 84.6704 37.2737 84.9755 36.5622C85.2792 35.8536 85.5915 35.1471 85.9443 34.4612C86.3014 33.7655 86.7121 33.0691 87.1212 32.3874C87.6201 31.5555 88.4674 30.2371 88.9373 29.4699C89.2785 28.9123 89.585 28.3341 89.9378 27.7834C90.3846 27.0839 91.0801 26.0189 91.6194 25.273C92.1081 24.5962 92.6272 23.9396 93.1738 23.3079C94.2495 22.0648 96.8521 19.1025 98.0695 17.8149C98.8214 17.0191 99.7381 16.2406 100.48 15.5818C101.145 14.9912 101.859 14.4074 102.52 13.8626C103.158 13.3382 103.788 12.8036 104.452 12.3132C105.191 11.7668 106.178 11.1151 106.957 10.5844C107.677 10.0941 108.396 9.59141 109.128 9.12848C109.854 8.66815 110.601 8.22185 111.344 7.80663C112.08 7.39531 112.829 7.00596 113.588 6.63686C114.386 6.24839 115.423 5.78256 116.133 5.47577C116.698 5.23173 117.285 5.03915 117.851 4.79598C118.591 4.47762 119.756 3.89903 120.579 3.56564C121.301 3.27301 122.041 3.02695 122.784 2.79562C123.562 2.5536 124.538 2.29438 125.244 2.11395C125.831 1.96374 126.423 1.84056 127.015 1.71246C127.619 1.58133 128.251 1.44702 128.871 1.32746C129.625 1.1823 130.635 0.912378 131.535 0.841536C134.335 0.621057 142.766 0.100006 145.673 0.00429642C146.776 -0.0321367 148.084 0.17244 148.974 0.266848C149.655 0.33928 150.328 0.463614 151.004 0.570745C151.735 0.686695 152.577 0.820139 153.362 0.962546C154.146 1.10524 154.931 1.26355 155.713 1.42635C156.528 1.59565 157.494 1.80369 158.248 1.97863C158.914 2.13303 159.581 2.28715 160.237 2.47582C160.97 2.68647 161.852 2.9603 162.647 3.24222C163.454 3.52862 164.307 3.8704 165.079 4.1944C165.821 4.50552 166.732 4.92422 167.277 5.18619C167.644 5.36228 167.978 5.6017 168.351 5.76594C169.017 6.05986 170.394 6.528 171.269 6.94915C172.077 7.3382 172.835 7.82484 173.6 8.29312C174.403 8.78439 175.267 9.35373 176.086 9.89661C176.898 10.4372 177.76 11.0305 178.503 11.5507C179.191 12.0314 179.893 12.4955 180.55 13.0177C181.236 13.5635 181.978 14.1742 182.622 14.8251C184.334 16.5497 189.184 21.6175 190.816 23.3656C191.389 23.9796 191.904 24.6468 192.414 25.3136C192.93 25.9885 193.432 26.7033 193.916 27.4149C194.434 28.1758 195.061 29.1489 195.523 29.8783C195.92 30.5087 196.312 31.1433 196.679 31.7918C197.071 32.4827 197.495 33.2698 197.872 34.0245C198.287 34.8558 198.809 35.9668 199.172 36.7795C199.486 37.4785 199.781 38.2138 200.055 38.9007C200.32 39.5636 200.564 40.2337 200.817 40.9011C201.089 41.6169 201.406 42.4256 201.681 43.1949C201.971 44.0079 202.315 44.9029 202.563 45.7788C202.819 46.6892 203.109 47.6792 203.222 48.6568C203.555 51.5139 204.444 58.7932 204.559 62.9217C204.658 66.4288 204.101 71.2107 203.915 73.4275C203.837 74.3689 203.634 75.2967 203.446 76.2227C203.257 77.1543 202.992 78.1909 202.782 79.0178C202.599 79.7435 202.414 80.47 202.187 81.184C201.96 81.9029 201.675 82.6168 201.415 83.3322C201.143 84.0821 200.842 84.9334 200.556 85.6836C200.28 86.4046 199.996 87.1223 199.695 87.8331C199.393 88.5476 199.085 89.2694 198.744 89.9706C198.375 90.73 197.892 91.6196 197.479 92.3892C197.084 93.1266 196.675 93.8795 196.269 94.5883C195.873 95.2804 195.473 95.9719 195.043 96.6429C194.57 97.378 193.984 98.2413 193.436 98.9995C192.895 99.7461 192.33 100.474 191.752 101.192C191.133 101.958 190.419 102.808 189.729 103.595C189.02 104.402 188.234 105.274 187.505 106.029C186.808 106.75 186.088 107.448 185.352 108.126C184.55 108.863 183.499 109.778 182.693 110.455C181.983 111.052 181.253 111.623 180.519 112.189C179.755 112.78 178.878 113.458 178.11 113.997C177.393 114.499 176.542 115.02 175.906 115.425C175.373 115.764 174.842 116.108 174.294 116.423C173.535 116.859 172.177 117.607 171.356 118.038C170.702 118.381 170.037 118.702 169.366 119.01C168.626 119.349 167.714 119.723 166.913 120.076C166.128 120.422 165.363 120.815 164.565 121.128C163.753 121.447 162.928 121.886 162.047 121.986C160.973 122.108 159.153 122.243 158.113 121.86Z" fill="white"/>
<path d="M0 179.972V137.389H26.8457V145.487H9.60175V155.349H24.3636V163.448H9.60175V179.972H0Z" fill="white"/>
<path d="M33.0039 179.972V147.766H44.6132C46.8857 147.766 48.9605 148.062 50.8378 148.704C52.715 149.297 54.1971 150.334 55.3333 151.767C56.4695 153.199 57.0129 155.225 57.0129 157.793C57.0129 160.164 56.4695 162.14 55.4321 163.671C54.3947 165.203 53.0114 166.339 51.2824 167.08L58.5938 179.972H50.4426L44.2674 168.364H40.2659V179.972H33.0039ZM40.2659 162.585H44.0204C45.947 162.585 47.3797 162.189 48.3677 161.399C49.4051 160.559 49.8991 159.374 49.8991 157.793C49.8991 156.212 49.4051 155.126 48.3677 154.484C47.3797 153.841 45.947 153.545 44.0204 153.545H40.2659V162.585Z" fill="white"/>
<path d="M70.4478 163.671L69.6573 166.635H76.5241L75.7831 163.671C75.3385 162.041 74.8939 160.362 74.4493 158.534C74.0047 156.706 73.6095 154.978 73.1648 153.298H72.9672C72.572 155.027 72.1768 156.756 71.7322 158.584C71.337 160.362 70.8924 162.041 70.4478 163.671ZM58.7891 179.972L68.8669 147.766H77.611L87.6888 179.972H79.9822L78.0062 172.316H68.1753L66.1993 179.972H58.7891Z" fill="white"/>
<path d="M91.1953 179.972V147.766H98.6549L107.053 163.77L110.215 170.883H110.412C110.264 169.154 110.116 167.277 109.869 165.153C109.622 163.029 109.523 161.053 109.523 159.127V147.766H116.439V179.972H108.98L100.582 163.918L97.4199 156.904H97.2223C97.3705 158.682 97.5681 160.609 97.7657 162.634C98.0127 164.659 98.1115 166.635 98.1115 168.562V179.972H91.1953Z" fill="white"/>
<path d="M122.023 179.972V175.576L136.251 153.891H123.357V147.766H145.193V152.162L130.965 173.847H145.341V179.972H122.023Z" fill="white"/>
<path d="M183.872 180.756C180.018 180.756 176.491 179.907 173.29 178.275C170.155 176.642 167.673 174.16 165.779 170.96C163.95 167.694 163.035 163.71 163.035 158.942C163.035 154.24 163.95 150.256 165.844 146.925C167.738 143.594 170.285 141.047 173.421 139.283C176.556 137.52 180.018 136.605 183.806 136.605C186.876 136.605 189.554 137.193 191.775 138.304C193.996 139.414 195.825 140.72 197.196 142.157L192.167 148.296C191.057 147.317 189.946 146.533 188.705 145.88C187.464 145.227 185.962 144.9 184.133 144.9C180.802 144.9 178.124 146.141 176.033 148.558C173.943 150.974 172.898 154.37 172.898 158.616C172.898 162.992 173.878 166.388 175.903 168.804C177.928 171.221 180.867 172.462 184.851 172.462C185.701 172.462 186.55 172.331 187.399 172.135C188.248 171.939 188.901 171.613 189.424 171.156V163.841H182.369V156.003H197.915V175.597C196.413 177.034 194.453 178.275 191.971 179.254C189.554 180.234 186.811 180.756 183.872 180.756Z" fill="white"/>
<path d="M205.512 179.972V147.766H217.121C219.393 147.766 221.468 148.062 223.346 148.704C225.223 149.297 226.705 150.334 227.841 151.767C228.977 153.199 229.521 155.225 229.521 157.793C229.521 160.164 228.977 162.14 227.94 163.671C226.902 165.203 225.519 166.339 223.79 167.08L231.102 179.972H222.95L216.775 168.364H212.774V179.972H205.512ZM212.774 162.585H216.528C218.455 162.585 219.887 162.189 220.876 161.399C221.913 160.559 222.407 159.374 222.407 157.793C222.407 156.212 221.913 155.126 220.876 154.484C219.887 153.841 218.455 153.545 216.528 153.545H212.774V162.585Z" fill="white"/>
<path d="M242.959 163.671L242.169 166.635H249.036L248.295 163.671C247.85 162.041 247.406 160.362 246.961 158.534C246.516 156.706 246.121 154.978 245.677 153.298H245.479C245.084 155.027 244.689 156.756 244.244 158.584C243.849 160.362 243.404 162.041 242.959 163.671ZM231.301 179.972L241.379 147.766H250.123L260.201 179.972H252.494L250.518 172.316H240.687L238.711 179.972H231.301Z" fill="white"/>
<path d="M263.707 179.972V147.766H284.011V153.891H270.969V161.35H282.134V167.475H270.969V179.972H263.707Z" fill="white"/>
<path d="M5.60591 199.997C4.53205 199.997 3.5856 199.761 2.73015 199.288C1.8747 198.814 1.21947 198.123 0.72804 197.213C0.236613 196.285 0 195.175 0 193.864C0 192.572 0.254814 191.462 0.746241 190.534C1.23767 189.606 1.91111 188.896 2.76655 188.404C3.622 187.913 4.56845 187.658 5.62411 187.658C6.47956 187.658 7.1894 187.822 7.77183 188.131C8.37246 188.441 8.84569 188.787 9.22791 189.169L8.09945 190.534C7.79003 190.243 7.46241 190.006 7.08019 189.806C6.71617 189.606 6.26115 189.496 5.69692 189.496C4.64126 189.496 3.78581 189.879 3.13057 190.661C2.49354 191.425 2.16592 192.481 2.16592 193.81C2.16592 195.175 2.47534 196.23 3.09417 197.013C3.71301 197.777 4.62306 198.159 5.80612 198.159C6.15194 198.159 6.46136 198.123 6.77078 198.032C7.08019 197.941 7.31681 197.795 7.51702 197.631V195.065H5.26009V193.336H9.40992L9.40992 198.578C9.0095 198.978 8.48167 199.324 7.80823 199.597C7.153 199.87 6.42496 199.997 5.60591 199.997Z" fill="white"/>
<path d="M14.3806 193.448L13.9619 194.904H17.0015L16.5829 193.448C16.3827 192.811 16.2007 192.174 16.0186 191.501C15.8548 190.827 15.6728 190.172 15.509 189.517H15.4362C15.2724 190.19 15.1086 190.845 14.9266 191.519C14.7628 192.174 14.5808 192.811 14.3806 193.448ZM10.3945 199.781L14.2713 187.879H16.7467L20.6235 199.781H18.403L17.4747 196.56H13.4705L12.5423 199.781H10.3945Z" fill="white"/>
<path d="M22.0977 199.781V187.879H26.1201C26.9391 187.879 27.6854 187.988 28.3406 188.206C29.014 188.425 29.5237 188.789 29.9059 189.317C30.2881 189.826 30.4883 190.518 30.4883 191.41C30.4883 192.32 30.2699 193.048 29.8331 193.612C29.4145 194.176 28.832 194.576 28.1222 194.813L30.9615 199.781H28.5954L26.0291 195.122H24.209V199.781H22.0977ZM24.209 193.448H25.9017C26.7207 193.448 27.3395 193.284 27.7582 192.938C28.195 192.593 28.4134 192.083 28.4134 191.41C28.4134 190.736 28.195 190.263 27.7582 189.99C27.3395 189.717 26.7207 189.571 25.9017 189.571H24.209V193.448Z" fill="white"/>
<path d="M34.983 199.781V189.662H31.543V187.879H40.5343V189.662H37.0943V199.781H34.983Z" fill="white"/>
<path d="M42.5195 199.781V187.879H49.6907V189.662H44.6308V192.702H48.9081V194.485H44.6308V197.998H49.8727V199.781H42.5195Z" fill="white"/>
<path d="M52.3086 199.781V187.879H54.4745L58.1875 194.576L59.407 197.106H59.4798C59.4252 196.505 59.3706 195.832 59.2978 195.122C59.2432 194.412 59.2068 193.721 59.2068 193.048V187.879H61.2271V199.781H59.0612L55.3482 193.084L54.1287 190.554H54.0559C54.1105 191.191 54.1651 191.846 54.2197 192.538C54.2925 193.23 54.3289 193.903 54.3289 194.576V199.781H52.3086Z" fill="white"/>
<path d="M67.8357 194.43H63.5039V195.958H67.8357V194.43Z" fill="white"/>
<path d="M78.2092 200C77.2991 200 76.4983 199.818 75.8248 199.454C75.1514 199.09 74.6236 198.507 74.2413 197.707C73.8773 196.906 73.6953 195.85 73.6953 194.558V187.879H75.8066V194.722C75.8066 195.577 75.8976 196.269 76.0978 196.778C76.2981 197.27 76.5893 197.634 76.9533 197.852C77.3173 198.052 77.7359 198.162 78.2092 198.162C78.7006 198.162 79.1192 198.052 79.4832 197.852C79.8655 197.634 80.1567 197.27 80.3569 196.778C80.5753 196.269 80.6845 195.577 80.6845 194.722V187.879H82.7048V194.558C82.7048 195.85 82.5228 196.906 82.1588 197.707C81.7948 198.507 81.2669 199.09 80.5935 199.454C79.9201 199.818 79.1374 200 78.2092 200Z" fill="white"/>
<path d="M85.6758 199.781V187.879H87.8417L91.5547 194.576L92.7742 197.106H92.847C92.7924 196.505 92.7378 195.832 92.665 195.122C92.6104 194.412 92.574 193.721 92.574 193.048V187.879H94.5943V199.781H92.4284L88.7154 193.084L87.4959 190.554H87.4231C87.4777 191.191 87.5323 191.846 87.5869 192.538C87.6597 193.23 87.6961 193.903 87.6961 194.576V199.781H85.6758Z" fill="white"/>
<path d="M97.6133 199.781V187.879H100.798C102.619 187.879 104.038 188.37 105.057 189.353C106.077 190.336 106.586 191.81 106.586 193.775C106.586 195.759 106.077 197.252 105.076 198.271C104.075 199.272 102.673 199.781 100.908 199.781H97.6133ZM99.7246 198.071H100.653C101.854 198.071 102.782 197.725 103.438 197.033C104.093 196.323 104.42 195.25 104.42 193.775C104.42 192.32 104.093 191.264 103.438 190.591C102.782 189.917 101.854 189.59 100.653 189.59H99.7246V198.071Z" fill="white"/>
<path d="M112.629 199.781V187.879H114.74V197.998H119.691V199.781H112.629Z" fill="white"/>
<path d="M124.201 193.448L123.782 194.904H126.822L126.403 193.448C126.203 192.811 126.021 192.174 125.839 191.501C125.675 190.827 125.493 190.172 125.329 189.517H125.257C125.093 190.19 124.929 190.845 124.747 191.519C124.583 192.174 124.401 192.811 124.201 193.448ZM120.215 199.781L124.092 187.879H126.567L130.444 199.781H128.223L127.295 196.56H123.291L122.363 199.781H120.215Z" fill="white"/>
<path d="M131.918 199.781V187.879H134.084L137.797 194.576L139.016 197.106H139.089C139.035 196.505 138.98 195.832 138.907 195.122C138.853 194.412 138.816 193.721 138.816 193.048V187.879H140.836V199.781H138.671L134.958 193.084L133.738 190.554H133.665C133.72 191.191 133.774 191.846 133.829 192.538C133.902 193.23 133.938 193.903 133.938 194.576V199.781H131.918Z" fill="white"/>
<path d="M143.867 199.781V187.879H147.052C148.872 187.879 150.292 188.37 151.311 189.353C152.331 190.336 152.84 191.81 152.84 193.775C152.84 195.759 152.331 197.252 151.33 198.271C150.329 199.272 148.927 199.781 147.162 199.781H143.867ZM145.979 198.071H146.907C148.108 198.071 149.036 197.725 149.692 197.033C150.347 196.323 150.674 195.25 150.674 193.775C150.674 192.32 150.347 191.264 149.692 190.591C149.036 189.917 148.108 189.59 146.907 189.59H145.979L145.979 198.071Z" fill="white"/>
<path d="M158.713 199.997C157.913 199.997 157.13 199.852 156.384 199.542C155.637 199.233 154.982 198.814 154.418 198.25L155.656 196.812C156.074 197.213 156.566 197.54 157.112 197.795C157.658 198.032 158.204 198.159 158.75 198.159C159.423 198.159 159.951 198.014 160.297 197.741C160.643 197.468 160.825 197.085 160.825 196.63C160.825 196.139 160.643 195.775 160.297 195.557C159.951 195.338 159.514 195.12 158.986 194.883L157.348 194.174C156.966 194.01 156.584 193.791 156.202 193.518C155.838 193.245 155.528 192.918 155.292 192.499C155.055 192.081 154.946 191.589 154.946 191.007C154.946 190.37 155.11 189.806 155.455 189.314C155.801 188.805 156.274 188.404 156.875 188.113C157.476 187.804 158.167 187.658 158.95 187.658C159.642 187.658 160.315 187.804 160.952 188.077C161.589 188.35 162.153 188.714 162.608 189.169L161.535 190.516C161.152 190.206 160.752 189.951 160.333 189.769C159.915 189.587 159.46 189.496 158.95 189.496C158.386 189.496 157.931 189.624 157.585 189.879C157.239 190.115 157.075 190.461 157.075 190.898C157.075 191.207 157.166 191.462 157.33 191.662C157.512 191.862 157.749 192.026 158.04 192.172C158.331 192.299 158.641 192.445 158.968 192.572L160.588 193.245C161.298 193.555 161.862 193.955 162.317 194.447C162.772 194.938 162.991 195.611 162.991 196.467C162.991 197.104 162.827 197.704 162.481 198.232C162.135 198.76 161.644 199.197 161.007 199.524C160.37 199.834 159.605 199.997 158.713 199.997Z" fill="white"/>
<path d="M169.908 199.997C168.907 199.997 168.015 199.761 167.196 199.288C166.377 198.814 165.74 198.123 165.249 197.213C164.776 196.285 164.539 195.175 164.539 193.864C164.539 192.572 164.776 191.462 165.267 190.534C165.759 189.606 166.432 188.896 167.251 188.404C168.07 187.913 168.98 187.658 169.981 187.658C170.727 187.658 171.401 187.804 171.983 188.113C172.566 188.423 173.039 188.768 173.421 189.169L172.293 190.534C171.983 190.224 171.656 189.97 171.273 189.788C170.909 189.587 170.491 189.496 170.036 189.496C169.399 189.496 168.816 189.678 168.307 190.024C167.815 190.37 167.415 190.861 167.124 191.498C166.851 192.135 166.705 192.918 166.705 193.81C166.705 195.175 166.996 196.23 167.597 197.013C168.197 197.777 168.98 198.159 169.981 198.159C170.509 198.159 170.982 198.05 171.401 197.832C171.819 197.595 172.183 197.304 172.529 196.94L173.658 198.268C173.166 198.833 172.62 199.251 171.983 199.561C171.364 199.852 170.673 199.997 169.908 199.997Z" fill="white"/>
<path d="M175.641 199.781V187.879H177.752L177.752 192.665H182.575V187.879H184.687V199.781H182.575V194.503H177.752V199.781H175.641Z" fill="white"/>
<path d="M190.146 193.448L189.728 194.904H192.767L192.349 193.448C192.148 192.811 191.966 192.174 191.784 191.501C191.62 190.827 191.438 190.172 191.275 189.517H191.202C191.038 190.19 190.874 190.845 190.692 191.519C190.528 192.174 190.346 192.811 190.146 193.448ZM186.16 199.781L190.037 187.879H192.512L196.389 199.781H194.169L193.24 196.56H189.236L188.308 199.781H186.16Z" fill="white"/>
<path d="M197.859 199.781V187.879H205.049V189.662H199.971L199.971 193.029H204.303V194.813H199.971V199.781H197.859Z" fill="white"/>
<path d="M209.553 199.781V189.662H206.113V187.879H215.105V189.662H211.665V199.781H209.553Z" fill="white"/>
<path d="M219.979 199.997C219.178 199.997 218.396 199.852 217.649 199.542C216.903 199.233 216.248 198.814 215.684 198.25L216.921 196.812C217.34 197.213 217.831 197.54 218.377 197.795C218.923 198.032 219.469 198.159 220.015 198.159C220.689 198.159 221.217 198.014 221.563 197.741C221.908 197.468 222.09 197.085 222.09 196.63C222.09 196.139 221.908 195.775 221.563 195.557C221.217 195.338 220.78 195.12 220.252 194.883L218.614 194.174C218.232 194.01 217.85 193.791 217.467 193.518C217.103 193.245 216.794 192.918 216.557 192.499C216.321 192.081 216.211 191.589 216.211 191.007C216.211 190.37 216.375 189.806 216.721 189.314C217.067 188.805 217.54 188.404 218.141 188.113C218.741 187.804 219.433 187.658 220.216 187.658C220.907 187.658 221.581 187.804 222.218 188.077C222.855 188.35 223.419 188.714 223.874 189.169L222.8 190.516C222.418 190.206 222.018 189.951 221.599 189.769C221.18 189.587 220.725 189.496 220.216 189.496C219.651 189.496 219.196 189.624 218.851 189.879C218.505 190.115 218.341 190.461 218.341 190.898C218.341 191.207 218.432 191.462 218.596 191.662C218.778 191.862 219.014 192.026 219.306 192.172C219.597 192.299 219.906 192.445 220.234 192.572L221.854 193.245C222.564 193.555 223.128 193.955 223.583 194.447C224.038 194.938 224.256 195.611 224.256 196.467C224.256 197.104 224.092 197.704 223.747 198.232C223.401 198.76 222.909 199.197 222.272 199.524C221.635 199.834 220.871 199.997 219.979 199.997Z" fill="white"/>
<path d="M226.418 199.781V187.879H230.167C231.059 187.879 231.842 187.988 232.534 188.225C233.225 188.461 233.771 188.843 234.172 189.371C234.572 189.899 234.772 190.627 234.772 191.555C234.772 192.429 234.572 193.157 234.172 193.721C233.771 194.285 233.225 194.722 232.552 194.995C231.878 195.268 231.096 195.413 230.24 195.413H228.529V199.781H226.418ZM228.529 193.721H230.076C231.824 193.721 232.697 192.993 232.697 191.555C232.697 190.809 232.461 190.281 232.006 190.008C231.551 189.717 230.895 189.571 230.004 189.571H228.529V193.721Z" fill="white"/>
<path d="M237.012 199.781V187.879H244.201V189.662H239.123L239.123 193.029H243.455V194.813H239.123V199.781H237.012Z" fill="white"/>
<path d="M246.297 199.781V187.879H248.408V197.998H253.359V199.781H246.297Z" fill="white"/>
<path d="M255.43 199.781V187.879H262.601V189.662H257.541V192.702H261.818V194.485H257.541V197.998H262.783V199.781H255.43Z" fill="white"/>
<path d="M270.207 199.997C269.134 199.997 268.187 199.761 267.332 199.288C266.476 198.814 265.821 198.123 265.33 197.213C264.838 196.285 264.602 195.175 264.602 193.864C264.602 192.572 264.856 191.462 265.348 190.534C265.839 189.606 266.513 188.896 267.368 188.404C268.224 187.913 269.17 187.658 270.226 187.658C271.081 187.658 271.791 187.822 272.373 188.131C272.974 188.441 273.447 188.787 273.829 189.169L272.701 190.534C272.392 190.243 272.064 190.006 271.682 189.806C271.318 189.606 270.863 189.496 270.298 189.496C269.243 189.496 268.387 189.879 267.732 190.661C267.095 191.425 266.767 192.481 266.767 193.81C266.767 195.175 267.077 196.23 267.696 197.013C268.315 197.777 269.225 198.159 270.408 198.159C270.754 198.159 271.063 198.123 271.372 198.032C271.682 197.941 271.918 197.795 272.119 197.631V195.065H269.862V193.336H274.011V198.578C273.611 198.978 273.083 199.324 272.41 199.597C271.755 199.87 271.027 199.997 270.207 199.997Z" fill="white"/>
<path d="M276.656 199.781V187.879H283.827V189.662H278.768V192.702H283.045V194.485H278.768V197.998H284.009V199.781H276.656Z" fill="white"/>
</svg>
