<svg width="588" height="200" viewBox="0 0 588 200" fill="none" xmlns="http://www.w3.org/2000/svg">
<path d="M46.7415 100.287C46.4569 99.9935 47.8357 98.5656 48.2418 98.0919C48.4988 97.7949 48.8884 97.7215 49.1758 97.468C50.0959 96.6506 52.8148 94.0583 53.757 93.2009C54.1024 92.8873 54.4727 92.6204 54.8319 92.3302C55.379 91.8865 56.4263 91.0657 57.0424 90.542C57.5508 90.1082 58.2002 89.4877 58.5317 89.1874C58.6975 89.0406 58.8523 88.8772 59.0291 88.7504C59.4491 88.4568 60.3831 87.863 61.0517 87.4159C61.7176 86.9755 62.3753 86.5118 63.0412 86.0747C63.7209 85.6277 64.4338 85.184 65.1273 84.7402C65.8181 84.2998 66.7051 83.7427 67.1997 83.4124C67.5036 83.2122 67.791 82.9754 68.0949 82.7685C68.5426 82.4682 69.2831 81.9678 69.891 81.6008C70.5071 81.2305 71.1703 80.9036 71.7947 80.5399C72.4137 80.1763 73.0243 79.7893 73.6377 79.4089C74.2511 79.0319 74.8563 78.6316 75.478 78.2713C76.1771 77.8709 77.053 77.4372 77.8322 76.9935C78.6777 76.5164 79.7857 75.8058 80.5511 75.3921C81.1672 75.0618 81.8028 74.7882 82.4355 74.5147C83.1014 74.2311 83.8448 73.9842 84.5355 73.6773C85.2843 73.3436 86.1326 72.9033 86.9311 72.5129C87.785 72.0959 88.7437 71.5988 89.6638 71.1784C90.6171 70.7447 91.7252 70.271 92.6536 69.904C93.5074 69.5637 94.4994 69.2334 95.2316 68.9632C95.8422 68.7396 96.4528 68.5328 97.058 68.2926C98.2157 67.8355 101.012 66.6645 102.178 66.2208C102.794 65.9839 103.424 65.7971 104.054 65.6202C105.043 65.3433 106.768 64.9363 108.116 64.5617C110.937 63.7767 117.975 61.7285 120.978 60.9102C122.689 60.4441 124.57 60.0167 126.137 59.6527C127.546 59.3251 128.958 59.0248 130.373 58.7262C131.97 58.389 133.929 57.9569 135.714 57.6286C137.712 57.262 140.132 56.8606 142.346 56.526C144.832 56.15 147.866 55.6846 150.635 55.373C154.291 54.9623 159.717 54.3701 164.268 54.0612C169.855 53.6815 177.526 53.2532 184.163 53.096C190.855 52.9372 197.824 52.9439 204.425 53.1097C210.877 53.2718 218.362 53.7469 223.767 54.0912C228.13 54.3691 233.007 54.7758 236.845 55.1752C240.169 55.5208 243.783 56.0789 246.792 56.4863C249.497 56.8526 252.658 57.2787 254.899 57.62C256.684 57.8919 258.46 58.2158 260.24 58.5351C262.135 58.8754 264.258 59.2827 266.266 59.6611C268.408 60.0641 270.809 60.5365 273.083 60.9542C275.423 61.3846 278.007 61.838 280.32 62.2427C282.527 62.6293 284.801 63.0083 286.951 63.3816C289.04 63.7443 291.126 64.1196 293.212 64.4819C295.362 64.8563 297.633 65.2533 299.844 65.6202C302.331 66.0306 305.497 66.5511 308.133 66.9581C310.645 67.3484 313.309 67.7321 315.671 68.0691C317.879 68.3827 320.089 68.6829 322.303 68.9732C324.85 69.3068 328.077 69.7138 330.965 70.0741C333.883 70.4378 336.859 70.8315 339.807 71.1584C343.462 71.5654 348.812 72.0959 352.896 72.5162C356.703 72.9066 360.503 73.407 364.319 73.6739C371.359 74.161 384.857 75.4588 395.141 75.4522C409.761 75.4455 441.219 74.1077 452.034 73.6172C454.714 73.4938 457.372 72.93 460.028 72.5096C462.678 72.0926 465.825 71.5154 467.961 71.1084C469.591 70.7981 471.252 70.4078 472.835 70.0675C474.374 69.7372 476.148 69.3935 477.452 69.0699C478.53 68.803 479.593 68.4561 480.66 68.1258C481.901 67.7421 483.647 67.2183 484.896 66.7679C485.998 66.3709 487.311 65.8037 488.162 65.4167C488.784 65.1332 489.748 64.8663 489.991 64.4459C490.234 64.0265 489.9 63.2982 489.618 62.9009C489.339 62.5035 488.712 62.3504 488.306 62.0622C487.921 61.7886 487.568 61.4536 487.184 61.1727C486.78 60.8761 486.327 60.5615 485.888 60.2829C485.393 59.9697 484.763 59.6504 484.216 59.2934C482.561 58.2108 477.634 54.8909 475.949 53.7863C475.344 53.3903 474.722 53.0323 474.106 52.6656C472.633 51.7905 468.671 49.4638 467.107 48.5344C466.306 48.0593 465.521 47.5412 464.711 47.0894C463.437 46.3785 460.672 44.9169 459.459 44.269C458.784 43.9093 458.107 43.5634 457.433 43.2027C456.673 42.7954 455.648 42.1988 454.897 41.8245C454.25 41.5022 453.573 41.2674 452.921 40.9564C452.225 40.6235 451.448 40.2068 450.71 39.8275C449.821 39.3687 448.522 38.6491 447.583 38.203C446.762 37.8127 445.806 37.4744 445.082 37.1518C444.46 36.8749 443.852 36.5556 443.236 36.2657C442.468 35.9047 441.335 35.3806 440.476 34.9856C439.677 34.6193 438.884 34.2329 438.075 33.8966C437.179 33.5233 436.08 33.1206 435.093 32.7453C434.112 32.3726 433.126 32.0183 432.151 31.6433C431.178 31.2693 430.214 30.871 429.241 30.4943C428.174 30.0803 426.892 29.5719 425.743 29.1585C424.615 28.7535 423.48 28.3751 422.344 28.0145C421.164 27.6405 419.885 27.2882 418.658 26.9132C417.365 26.5172 415.901 26.0371 414.574 25.6391C413.287 25.2528 411.996 24.8908 410.706 24.5251C409.371 24.1471 407.935 23.7481 406.57 23.3711C405.218 22.9985 403.787 22.5948 402.516 22.2642C401.331 21.9549 400.142 21.6456 398.949 21.3861C397.401 21.0494 395.144 20.6214 393.237 20.2457C391.151 19.834 388.695 19.3256 386.424 18.9149C384.155 18.5049 381.887 18.0845 379.607 17.7816C376.844 17.4143 373.1 17.0389 369.845 16.7113C366.159 16.3403 361.625 15.7872 357.502 15.557C352.724 15.2901 345.955 15.0692 341.177 15.1099C337.06 15.1453 332.532 15.5386 328.837 15.8025C325.555 16.0367 322.278 16.368 319.003 16.6936C315.613 17.0303 310.96 17.5254 308.503 17.8226C307.086 17.9938 305.677 18.2333 304.265 18.4762C301.778 18.9049 296.13 19.9168 293.583 20.3945C292.043 20.6831 290.422 21.0324 288.976 21.343C287.62 21.6353 286.263 21.9482 284.906 22.2595C283.287 22.6318 280.95 23.1653 279.256 23.5766C277.747 23.943 276.142 24.3483 274.744 24.7286C273.445 25.0813 272.155 25.4643 270.867 25.8583C269.563 26.2566 268.076 26.7594 266.921 27.1201C265.924 27.4307 264.921 27.7069 263.923 28.0208C262.868 28.3545 261.688 28.7361 260.577 29.1218C259.414 29.5252 258.099 30.0299 256.946 30.4419C255.849 30.8333 254.672 31.2126 253.655 31.5946C252.71 31.9499 251.743 32.3576 250.84 32.7356C249.972 33.0996 249.082 33.5003 248.242 33.8619C247.425 34.2122 246.607 34.5545 245.789 34.9042C244.863 35.3005 243.758 35.9544 242.683 36.2407C241.581 36.5349 239.572 37.0364 239.171 36.6694C238.773 36.3021 239.818 34.6309 240.287 34.0374C240.724 33.4919 241.437 33.4345 242.003 33.1086C242.597 32.767 243.23 32.3583 243.846 31.988C244.52 31.5816 245.308 31.0845 246.057 30.6698C247.715 29.7493 252.191 27.3606 253.794 26.4645C254.429 26.1075 255.026 25.6504 255.661 25.2918C256.454 24.8454 257.576 24.2619 258.549 23.7858C259.754 23.1936 261.528 22.3789 262.906 21.7384C264.205 21.1338 265.628 20.4933 266.808 19.9418C267.863 19.4464 269.096 18.8228 269.969 18.4288C270.651 18.1209 271.348 17.8627 272.038 17.5791C272.751 17.2852 273.514 16.9669 274.254 16.666C275.177 16.29 276.479 15.7655 277.584 15.3231C278.684 14.8831 279.902 14.3776 280.883 14.0123C281.743 13.6934 282.61 13.4185 283.472 13.1309C284.699 12.7225 286.813 12.0042 288.239 11.5628C289.501 11.1728 290.819 10.8499 292.041 10.4809C293.218 10.1249 294.384 9.7139 295.558 9.34858C296.768 8.97226 298.053 8.56589 299.31 8.22226C300.67 7.8506 302.242 7.46461 303.712 7.11831C305.276 6.75066 307.028 6.36864 308.686 6.01634C310.59 5.61199 313.046 5.09287 315.135 4.69318C317.158 4.30585 319.183 3.9382 321.214 3.61725C323.515 3.25394 326.367 2.82789 328.951 2.51162C332.051 2.13195 336.441 1.69458 339.818 1.33927C342.949 1.00998 346.074 0.582949 349.213 0.380773C352.65 0.159247 356.795 -0.0479333 360.45 0.00978364C364.017 0.0658324 367.574 0.467519 371.132 0.726411C374.702 0.985971 378.565 1.28889 381.859 1.56713C384.873 1.82202 387.894 2.04054 390.903 2.39685C394.365 2.80654 399.941 3.60658 402.632 4.02561C404.116 4.25648 405.578 4.63248 407.053 4.91239C408.794 5.24201 411.145 5.64368 413.071 6.004C414.92 6.34963 416.851 6.70662 418.614 7.07394C420.297 7.42458 421.968 7.83526 423.648 8.20825C425.345 8.58558 427.141 8.96457 428.796 9.33622C430.393 9.69487 432.081 10.0715 433.585 10.4382C435.002 10.7838 436.411 11.1638 437.823 11.5378C439.376 11.9495 441.479 12.5023 442.907 12.909C444.079 13.2423 445.242 13.621 446.408 13.9786C447.591 14.3409 448.804 14.7196 450.003 15.0836C451.338 15.4893 453.026 15.962 454.424 16.4114C455.753 16.8384 457.157 17.3572 458.389 17.7796C459.536 18.1719 460.799 18.6096 461.829 18.9469C462.738 19.2452 463.703 19.5385 464.57 19.8033C465.388 20.0529 466.217 20.2517 467.027 20.535C469.077 21.2519 474.645 23.2654 476.869 24.1061C478.049 24.5518 479.295 25.147 480.37 25.579C481.345 25.9721 482.456 26.3604 483.315 26.699C484.059 26.9909 484.799 27.2922 485.534 27.6112C486.302 27.9444 487.128 28.3424 487.927 28.6994C488.781 29.0794 489.742 29.4985 490.649 29.8921C491.613 30.3088 492.693 30.7739 493.699 31.1996C494.691 31.62 495.805 32.0777 496.681 32.4457C497.443 32.765 498.209 33.0779 498.966 33.4062C499.778 33.7568 500.853 34.2222 501.546 34.5495C502.077 34.8011 502.588 35.1097 503.119 35.3706C503.845 35.7302 504.984 36.262 505.918 36.7067C506.849 37.1518 507.882 37.6416 508.719 38.0412C509.46 38.3945 510.195 38.7572 510.935 39.1048C511.806 39.5125 513.038 40.0633 513.936 40.4874C514.74 40.865 515.627 41.3127 516.335 41.648C516.945 41.9383 517.573 42.1808 518.175 42.4978C518.868 42.8618 519.714 43.3979 520.49 43.8323C521.281 44.2757 522.231 44.7918 522.928 45.1588C523.502 45.4617 524.083 45.7486 524.666 46.0335C525.359 46.3735 526.332 46.8186 527.092 47.1992C527.804 47.5572 528.539 47.9438 529.219 48.3172C529.874 48.6778 530.518 49.0685 531.17 49.4402C531.888 49.8509 532.853 50.3847 533.541 50.7833C534.132 51.125 534.709 51.5063 535.306 51.8312C536.193 52.3137 537.71 53.0116 538.871 53.6782C540.023 54.3414 541.128 55.1258 542.264 55.8314C544.579 57.271 550.716 61.0436 552.775 62.315C553.391 62.6947 554.17 63.0437 554.618 63.4604C554.985 63.8053 555.718 64.3492 555.455 64.8162C555.115 65.4234 553.62 66.5177 552.579 67.0915C551.537 67.6687 550.335 67.9056 549.205 68.2692C547.967 68.6662 546.447 69.0799 545.151 69.4669C543.913 69.8373 542.576 70.2176 541.435 70.5846C540.385 70.9249 539.357 71.3486 538.304 71.6755C537.152 72.0358 535.787 72.3928 534.527 72.7365C533.19 73.1001 531.488 73.5238 530.288 73.8541C529.305 74.1277 528.327 74.4346 527.343 74.7182C525.685 75.2019 522.01 76.2595 520.35 76.7466C519.358 77.0402 518.374 77.3571 517.382 77.644C516.271 77.9677 514.923 78.3413 513.69 78.6783C512.248 79.0719 510.352 79.5924 508.736 80.0061C507.158 80.4098 505.373 80.8135 503.995 81.1571C502.815 81.4507 501.64 81.781 500.461 82.0679C499.239 82.3648 497.932 82.6584 496.664 82.9353C494.992 83.299 492.511 83.8228 490.433 84.2565C488.283 84.7036 485.885 85.2073 483.76 85.621C481.735 86.0147 479.71 86.3983 477.681 86.732C475.427 87.1023 472.719 87.4826 470.238 87.843C467.676 88.2133 464.954 88.6603 462.302 88.9472C458.27 89.3876 449.865 90.1349 446.052 90.4852C443.841 90.6854 441.636 91.0224 439.42 91.0457C429.943 91.1458 400.399 91.2459 389.187 91.0858C383.495 91.0024 377.311 90.4285 372.135 90.0715C367.466 89.7546 362.232 89.3309 358.135 88.9606C354.603 88.637 351.083 88.1999 347.555 87.8396C343.581 87.4359 338.221 86.9355 334.292 86.5285C330.852 86.1748 326.986 85.7311 323.977 85.3975C321.396 85.1139 318.818 84.837 316.24 84.5267C312.88 84.123 307.238 83.4124 303.817 82.9753C301.112 82.6284 298.413 82.2647 295.71 81.8978C292.991 81.5241 290.098 81.0904 287.504 80.7468C285.05 80.4231 282.588 80.1596 280.134 79.836C277.587 79.4957 274.851 79.122 272.213 78.7216C269.513 78.3113 266.692 77.7842 263.923 77.3805C261.135 76.9735 258.212 76.6465 255.476 76.2795C252.821 75.9259 250.168 75.5155 247.513 75.1786C244.584 74.8082 241.111 74.3979 237.908 74.0609C234.043 73.6539 228.862 72.7999 224.319 72.7465C207.901 72.5563 155.131 72.7031 139.4 72.9233C136.231 72.9666 132.722 73.6773 129.936 74.0509C127.513 74.3779 124.891 74.7949 122.68 75.1652C120.672 75.5055 118.674 75.9159 116.671 76.2896C114.667 76.6599 112.308 77.0635 110.664 77.3972C109.368 77.6574 108.08 77.9744 106.795 78.288C105.068 78.7083 102.137 79.479 100.302 79.9194C98.8015 80.2797 97.2901 80.5733 95.787 80.9236C94.2645 81.2772 92.4187 81.6909 91.1753 82.0412C90.2109 82.3148 89.277 82.7185 88.321 83.0254C87.0583 83.4391 85.0135 84.043 83.585 84.5101C82.3029 84.9304 80.7694 85.4509 79.7553 85.8312C78.9927 86.1181 78.255 86.5018 77.4951 86.7987C76.6219 87.139 75.5029 87.5093 74.5081 87.8696C73.4084 88.27 71.8251 88.8204 70.8857 89.1874C70.2115 89.4543 69.5566 89.798 68.8852 90.0849C68.2137 90.3785 67.5202 90.6321 66.846 90.9323C65.9425 91.3327 64.4614 92.0132 63.4695 92.5003C62.5991 92.9307 61.5214 93.5312 60.8887 93.8682C60.4853 94.0817 60.0763 94.2919 59.6784 94.5221C58.3355 95.2961 54.1494 97.7816 52.8287 98.5256C52.4805 98.7224 52.1019 98.8158 51.7455 98.9827C51.2647 99.2062 50.5877 99.7099 49.9577 99.8734C49.1233 100.09 47.0289 100.584 46.7415 100.287Z" fill="white"/>
<path d="M6.03516 162.147V126.057H14.9203C16.9707 126.057 18.7477 126.332 20.2513 126.937C21.8005 127.542 22.9852 128.477 23.8509 129.743C24.7167 131.008 25.1723 132.714 25.1723 134.859C25.1723 136.675 24.8078 138.27 24.0332 139.755C23.3042 141.186 22.2106 142.176 20.7981 142.726V142.946C22.5751 143.331 24.0332 144.267 25.1723 145.697C26.3114 147.128 26.9038 149.108 26.9038 151.584C26.9038 153.949 26.4026 155.875 25.4457 157.47C24.4888 159.066 23.1675 160.221 21.4816 160.991C19.7957 161.762 17.7908 162.147 15.5582 162.147H6.03516ZM9.81702 141.406H14.2368C16.7884 141.406 18.611 140.856 19.7501 139.81C20.8892 138.765 21.436 137.28 21.436 135.464C21.436 133.374 20.8437 131.888 19.659 131.008C18.5199 130.128 16.7428 129.688 14.4191 129.688H9.81702V141.406ZM9.81702 158.516H15.0114C17.6086 158.516 19.6134 157.966 21.0259 156.81C22.4384 155.655 23.1675 153.839 23.1675 151.419C23.1675 149.163 22.4384 147.568 21.0259 146.522C19.6134 145.477 17.6086 144.927 15.0114 144.927H9.81702V158.516Z" fill="white"/>
<path d="M37.9762 141.956L36.5637 147.458H45.5399L44.1274 141.956C43.5807 139.921 43.0795 137.94 42.5782 135.959C42.077 133.924 41.6214 131.888 41.1202 129.798H40.9379C40.4823 131.888 40.0266 133.924 39.5254 135.959C39.0242 137.94 38.523 139.921 37.9762 141.956ZM28.8633 162.147L38.9786 126.057H43.2617L53.3771 162.147H49.3218L46.4968 151.144H35.6068L32.7363 162.147H28.8633Z" fill="white"/>
<path d="M67.5423 162.807C65.4919 162.807 63.6693 162.312 62.029 161.322C60.4342 160.331 59.1584 158.681 58.2016 156.425C57.2447 154.17 56.7891 151.089 56.7891 147.238V126.057H60.5709V147.348C60.5709 150.263 60.8899 152.519 61.4822 154.225C62.1201 155.875 62.9403 157.03 63.9883 157.746C65.0363 158.461 66.2209 158.791 67.5423 158.791C68.8637 158.791 70.0939 158.461 71.1419 157.746C72.1899 157.03 73.0556 155.875 73.648 154.225C74.2859 152.519 74.6048 150.263 74.6048 147.348V126.057H78.25V147.238C78.25 151.089 77.7944 154.17 76.8375 156.425C75.8806 158.681 74.6048 160.331 73.0101 161.322C71.4153 162.312 69.5927 162.807 67.5423 162.807Z" fill="white"/>
<path d="M94.1596 162.807C92.0636 162.807 90.1043 162.312 88.3273 161.377C86.5503 160.386 85.0011 159.066 83.6797 157.47L85.9579 154.28C87.0059 155.655 88.2817 156.755 89.6942 157.58C91.1523 158.406 92.6559 158.791 94.2051 158.791C96.1644 158.791 97.7136 158.241 98.8072 157.195C99.9007 156.095 100.447 154.665 100.447 152.904C100.447 151.639 100.22 150.649 99.764 149.933C99.3539 149.218 98.7616 148.558 97.987 148.063C97.258 147.568 96.4378 147.018 95.4809 146.522L91.1979 144.267C90.241 143.772 89.3297 143.166 88.3728 142.396C87.4616 141.626 86.687 140.636 86.049 139.425C85.4567 138.215 85.1378 136.73 85.1378 134.969C85.1378 133.154 85.5478 131.503 86.3224 130.073C87.1426 128.587 88.2817 127.487 89.6942 126.662C91.1067 125.837 92.7471 125.396 94.5241 125.396C96.3011 125.396 97.987 125.837 99.4906 126.662C100.994 127.487 102.316 128.532 103.364 129.853L101.313 132.824C100.402 131.778 99.3995 130.953 98.2604 130.348C97.1668 129.743 95.9366 129.413 94.5241 129.413C92.8382 129.413 91.5168 129.908 90.4688 130.843C89.4664 131.778 88.9652 133.099 88.9652 134.694C88.9652 135.849 89.193 136.785 89.6942 137.555C90.1954 138.27 90.8333 138.875 91.6079 139.37C92.3825 139.866 93.1571 140.306 93.9317 140.691L98.1692 142.891C99.3084 143.497 100.356 144.212 101.268 145.037C102.225 145.862 102.954 146.852 103.5 148.063C104.047 149.218 104.32 150.704 104.32 152.519C104.32 154.445 103.91 156.15 103.09 157.746C102.27 159.286 101.085 160.496 99.5818 161.432C98.0781 162.367 96.2555 162.807 94.1596 162.807Z" fill="white"/>
<path d="M121.496 162.807C118.99 162.807 116.758 162.092 114.798 160.606C112.839 159.121 111.29 156.975 110.151 154.17C109.012 151.364 108.465 148.008 108.465 144.102C108.465 140.196 109.057 136.895 110.196 134.089C111.335 131.283 112.93 129.138 114.935 127.652C116.94 126.167 119.218 125.396 121.724 125.396C123.547 125.396 125.142 125.837 126.554 126.772C127.967 127.652 129.06 128.697 129.926 129.853L127.875 132.824C127.101 131.778 126.189 130.953 125.187 130.348C124.185 129.743 123.046 129.413 121.77 129.413C119.902 129.413 118.216 130.018 116.803 131.228C115.391 132.383 114.297 134.089 113.523 136.235C112.748 138.38 112.383 140.966 112.383 143.992C112.383 147.018 112.748 149.603 113.523 151.859C114.297 154.06 115.345 155.765 116.712 156.975C118.125 158.186 119.765 158.791 121.633 158.791C123.046 158.791 124.321 158.406 125.46 157.691C126.6 156.975 127.602 155.985 128.559 154.72L130.655 157.58C129.47 159.231 128.149 160.496 126.645 161.432C125.142 162.367 123.456 162.807 121.496 162.807Z" fill="white"/>
<path d="M136.211 162.147V126.057H139.993V141.186H153.89V126.057H157.717V162.147H153.89V145.147H139.993V162.147H136.211Z" fill="white"/>
<path d="M171.07 141.956L169.657 147.458H178.634L177.221 141.956C176.674 139.921 176.173 137.94 175.672 135.959C175.171 133.924 174.715 131.888 174.214 129.798H174.032C173.576 131.888 173.12 133.924 172.619 135.959C172.118 137.94 171.617 139.921 171.07 141.956ZM161.957 162.147L172.072 126.057H176.355L186.471 162.147H182.416L179.591 151.144H168.701L165.83 162.147H161.957Z" fill="white"/>
<path d="M194.397 162.147V129.908H185.375V126.057H207.246V129.908H198.224V162.147H194.397Z" fill="white"/>
<path d="M208.117 162.147V159.396L223.837 129.908H209.53V126.057H228.576V128.752L212.81 158.241H228.712V162.147H208.117Z" fill="white"/>
<path d="M248.345 133.869C248.345 134.859 248.482 135.904 248.71 136.95C248.983 137.995 249.347 139.095 249.758 140.196C251.124 139.095 252.309 137.94 253.312 136.785C254.36 135.574 254.861 134.199 254.861 132.604C254.861 131.558 254.633 130.623 254.177 129.853C253.767 129.027 253.038 128.642 252.036 128.642C250.897 128.642 250.031 129.138 249.347 130.128C248.664 131.118 248.345 132.383 248.345 133.869ZM250.304 162.807C248.527 162.807 246.933 162.367 245.52 161.542C244.153 160.661 243.105 159.451 242.331 157.966C241.556 156.48 241.191 154.72 241.191 152.794C241.191 151.199 241.465 149.768 242.012 148.503C242.604 147.238 243.333 146.137 244.199 145.147C245.064 144.157 246.021 143.221 247.069 142.396C246.477 140.911 245.976 139.425 245.611 138.05C245.292 136.62 245.11 135.244 245.11 133.924C245.11 132.328 245.383 130.843 245.976 129.578C246.568 128.312 247.343 127.267 248.391 126.552C249.439 125.782 250.669 125.396 252.036 125.396C253.904 125.396 255.316 126.057 256.364 127.377C257.412 128.697 257.914 130.403 257.914 132.548C257.914 134.144 257.595 135.519 256.911 136.785C256.228 138.05 255.408 139.15 254.36 140.196C253.357 141.241 252.309 142.231 251.17 143.221C252.127 145.037 253.312 146.852 254.633 148.613C255.954 150.318 257.321 151.914 258.734 153.344C259.645 151.859 260.465 150.208 261.149 148.448C261.878 146.632 262.47 144.707 262.926 142.671H266.434C265.842 145.037 265.113 147.293 264.247 149.493C263.381 151.639 262.379 153.674 261.194 155.6C262.242 156.425 263.199 157.14 264.156 157.746C265.113 158.351 265.979 158.791 266.799 159.066L265.796 162.807C264.748 162.422 263.655 161.927 262.47 161.267C261.331 160.551 260.146 159.726 258.916 158.681C257.777 159.946 256.501 160.936 255.089 161.707C253.676 162.422 252.081 162.807 250.304 162.807ZM244.837 152.519C244.837 154.555 245.383 156.15 246.522 157.36C247.662 158.571 249.074 159.176 250.714 159.176C251.762 159.176 252.719 158.901 253.676 158.406C254.633 157.911 255.544 157.195 256.41 156.26C254.952 154.72 253.539 153.014 252.172 151.199C250.851 149.383 249.621 147.458 248.573 145.532C247.525 146.577 246.659 147.623 245.93 148.778C245.201 149.878 244.837 151.144 244.837 152.519Z" fill="white"/>
<path d="M292.452 162.807C289.855 162.807 287.531 162.092 285.481 160.606C283.43 159.121 281.835 156.975 280.696 154.17C279.557 151.364 278.965 148.008 278.965 144.102C278.965 140.196 279.557 136.895 280.742 134.089C281.927 131.283 283.567 129.138 285.617 127.652C287.668 126.167 290.037 125.396 292.68 125.396C294.73 125.396 296.462 125.892 297.874 126.827C299.287 127.762 300.426 128.752 301.292 129.853L299.196 132.824C298.421 131.888 297.555 131.063 296.553 130.403C295.55 129.743 294.275 129.413 292.771 129.413C290.766 129.413 289.035 130.018 287.531 131.228C286.027 132.383 284.888 134.089 284.068 136.235C283.293 138.38 282.883 140.966 282.883 143.992C282.883 148.558 283.749 152.134 285.435 154.83C287.166 157.47 289.627 158.791 292.816 158.791C293.864 158.791 294.912 158.626 295.869 158.241C296.826 157.856 297.601 157.305 298.193 156.645V147.238H291.86V143.442H301.656V158.626C300.699 159.836 299.423 160.826 297.829 161.652C296.234 162.422 294.457 162.807 292.452 162.807Z" fill="white"/>
<path d="M308.809 162.147V126.057H326.032V129.908H312.59V141.241H323.936V145.147H312.59V158.241H326.488V162.147H308.809Z" fill="white"/>
<path d="M332.824 162.147V126.057H342.165C344.215 126.057 345.992 126.387 347.587 127.047C349.182 127.652 350.412 128.752 351.278 130.238C352.189 131.723 352.645 133.704 352.645 136.179C352.645 138.985 352.053 141.241 350.822 142.946C349.592 144.652 347.952 145.807 345.901 146.412L353.511 162.147H349.227L342.028 146.907H336.606V162.147H332.824ZM336.606 143.166H341.618C343.942 143.166 345.765 142.616 346.995 141.461C348.225 140.306 348.863 138.545 348.863 136.179C348.863 133.814 348.225 132.108 346.995 131.173C345.765 130.238 343.942 129.743 341.618 129.743H336.606V143.166Z" fill="white"/>
<path d="M366.41 162.807C364.314 162.807 362.354 162.312 360.577 161.377C358.8 160.386 357.251 159.066 355.93 157.47L358.208 154.28C359.256 155.655 360.532 156.755 361.944 157.58C363.402 158.406 364.906 158.791 366.455 158.791C368.414 158.791 369.964 158.241 371.057 157.195C372.151 156.095 372.697 154.665 372.697 152.904C372.697 151.639 372.47 150.649 372.014 149.933C371.604 149.218 371.012 148.558 370.237 148.063C369.508 147.568 368.688 147.018 367.731 146.522L363.448 144.267C362.491 143.772 361.58 143.166 360.623 142.396C359.712 141.626 358.937 140.636 358.299 139.425C357.707 138.215 357.388 136.73 357.388 134.969C357.388 133.154 357.798 131.503 358.572 130.073C359.393 128.587 360.532 127.487 361.944 126.662C363.357 125.837 364.997 125.396 366.774 125.396C368.551 125.396 370.237 125.837 371.741 126.662C373.244 127.487 374.566 128.532 375.614 129.853L373.563 132.824C372.652 131.778 371.649 130.953 370.51 130.348C369.417 129.743 368.187 129.413 366.774 129.413C365.088 129.413 363.767 129.908 362.719 130.843C361.716 131.778 361.215 133.099 361.215 134.694C361.215 135.849 361.443 136.785 361.944 137.555C362.445 138.27 363.083 138.875 363.858 139.37C364.633 139.866 365.407 140.306 366.182 140.691L370.419 142.891C371.558 143.497 372.606 144.212 373.518 145.037C374.475 145.862 375.204 146.852 375.75 148.063C376.297 149.218 376.57 150.704 376.57 152.519C376.57 154.445 376.16 156.15 375.34 157.746C374.52 159.286 373.335 160.496 371.832 161.432C370.328 162.367 368.506 162.807 366.41 162.807Z" fill="white"/>
<path d="M387.725 162.147V129.908H378.703V126.057H400.574V129.908H391.552V162.147H387.725Z" fill="white"/>
<path d="M405.953 162.147V126.057H423.177V129.908H409.735V141.241H421.081V145.147H409.735V158.241H423.632V162.147H405.953Z" fill="white"/>
<path d="M429.965 162.147V126.057H433.883L444.682 148.723L447.917 156.205H448.1C448.008 154.39 447.917 152.464 447.781 150.539C447.689 148.558 447.644 146.632 447.644 144.707V126.057H451.244V162.147H447.325L436.481 139.425L433.245 131.998H433.063C433.2 133.814 433.291 135.629 433.382 137.555C433.519 139.48 433.564 141.351 433.564 143.276V162.147H429.965Z" fill="white"/>
<path d="M459.449 162.147V126.057H464.006L469.747 145.312C470.111 146.577 470.476 147.843 470.795 149.108C471.159 150.373 471.524 151.584 471.888 152.849H472.071C472.435 151.584 472.754 150.373 473.073 149.108C473.392 147.843 473.757 146.577 474.121 145.312L479.771 126.057H484.373V162.147H480.819V142.286C480.819 140.691 480.865 138.875 481.001 136.95C481.138 134.969 481.229 133.209 481.32 131.613H481.138L478.769 139.81L473.119 158.516H470.613L464.963 139.81L462.593 131.613H462.411C462.502 133.209 462.593 134.969 462.684 136.95C462.821 138.875 462.867 140.691 462.867 142.286V162.147H459.449Z" fill="white"/>
<path d="M497.726 141.956L496.314 147.458H505.29L503.877 141.956C503.331 139.921 502.829 137.94 502.328 135.959C501.827 133.924 501.371 131.888 500.87 129.798H500.688C500.232 131.888 499.777 133.924 499.275 135.959C498.774 137.94 498.273 139.921 497.726 141.956ZM488.613 162.147L498.729 126.057H503.012L513.127 162.147H509.072L506.247 151.144H495.357L492.486 162.147H488.613Z" fill="white"/>
<path d="M521.145 126.057H517.363V162.147H521.145V126.057Z" fill="white"/>
<path d="M529.344 162.147V126.057H546.567V129.908H533.126V141.241H544.471V145.147H533.126V158.241H547.023V162.147H529.344Z" fill="white"/>
<path d="M553.355 162.147V126.057H562.696C564.747 126.057 566.524 126.387 568.118 127.047C569.713 127.652 570.943 128.752 571.809 130.238C572.72 131.723 573.176 133.704 573.176 136.179C573.176 138.985 572.584 141.241 571.354 142.946C570.123 144.652 568.483 145.807 566.433 146.412L574.042 162.147H569.759L562.56 146.907H557.137V162.147H553.355ZM557.137 143.166H562.149C564.473 143.166 566.296 142.616 567.526 141.461C568.756 140.306 569.394 138.545 569.394 136.179C569.394 133.814 568.756 132.108 567.526 131.173C566.296 130.238 564.473 129.743 562.149 129.743H557.137V143.166Z" fill="white"/>
<path d="M226.15 200C224.508 200 223.039 199.548 221.743 198.609C220.447 197.67 219.439 196.314 218.719 194.54C217.999 192.767 217.625 190.646 217.625 188.177C217.625 185.708 217.999 183.621 218.748 181.848C219.497 180.074 220.534 178.718 221.83 177.779C223.126 176.84 224.623 176.354 226.294 176.354C227.59 176.354 228.684 176.666 229.577 177.258C230.47 177.849 231.19 178.475 231.737 179.17L230.412 181.048C229.923 180.457 229.376 179.935 228.742 179.518C228.108 179.101 227.302 178.892 226.352 178.892C225.084 178.892 223.99 179.275 223.039 180.04C222.089 180.77 221.369 181.848 220.851 183.204C220.361 184.56 220.102 186.195 220.102 188.107C220.102 190.993 220.649 193.254 221.715 194.958C222.809 196.627 224.364 197.461 226.38 197.461C227.043 197.461 227.705 197.357 228.31 197.114C228.915 196.87 229.404 196.522 229.779 196.105V190.159H225.776V187.759H231.968V197.357C231.363 198.122 230.556 198.748 229.548 199.27C228.54 199.756 227.417 200 226.15 200Z" fill="white"/>
<path d="M248.012 199.583V176.771H253.916C255.212 176.771 256.335 176.98 257.343 177.397C258.351 177.78 259.129 178.475 259.676 179.414C260.252 180.353 260.54 181.605 260.54 183.17C260.54 184.943 260.165 186.369 259.388 187.447C258.61 188.525 257.573 189.255 256.277 189.638L261.087 199.583H258.38L253.829 189.951H250.402V199.583H248.012ZM250.402 187.586H253.57C255.039 187.586 256.191 187.238 256.969 186.508C257.746 185.778 258.149 184.665 258.149 183.17C258.149 181.675 257.746 180.597 256.969 180.005C256.191 179.414 255.039 179.101 253.57 179.101H250.402V187.586Z" fill="white"/>
<path d="M282.629 200.001C281.333 200.001 280.181 199.688 279.144 199.062C278.136 198.436 277.33 197.392 276.725 195.967C276.12 194.541 275.832 192.594 275.832 190.159V176.771H278.222V190.229C278.222 192.072 278.424 193.498 278.798 194.576C279.202 195.619 279.72 196.349 280.382 196.801C281.045 197.253 281.794 197.462 282.629 197.462C283.464 197.462 284.242 197.253 284.904 196.801C285.567 196.349 286.114 195.619 286.488 194.576C286.891 193.498 287.093 192.072 287.093 190.229V176.771H289.397V190.159C289.397 192.594 289.109 194.541 288.504 195.967C287.899 197.392 287.093 198.436 286.085 199.062C285.077 199.688 283.925 200.001 282.629 200.001Z" fill="white"/>
<path d="M306.012 199.583V176.771H311.397C312.809 176.771 314.047 176.98 315.113 177.397C316.178 177.815 316.985 178.51 317.589 179.519C318.194 180.492 318.482 181.814 318.482 183.483C318.482 185.882 317.849 187.656 316.553 188.803C315.257 189.951 313.586 190.542 311.513 190.542H308.402V199.583H306.012ZM308.402 188.177H311.225C312.866 188.177 314.105 187.795 314.882 187.065C315.689 186.3 316.092 185.117 316.092 183.483C316.092 181.848 315.66 180.701 314.825 180.075C313.989 179.414 312.751 179.101 311.109 179.101H308.402V188.177Z" fill="white"/>
<path d="M333.84 199.583V176.771H339.226C340.637 176.771 341.875 176.98 342.941 177.397C344.006 177.815 344.813 178.51 345.418 179.519C346.022 180.492 346.31 181.814 346.31 183.483C346.31 185.882 345.677 187.656 344.381 188.803C343.085 189.951 341.414 190.542 339.341 190.542H336.23V199.583H333.84ZM336.23 188.177H339.053C340.694 188.177 341.933 187.795 342.71 187.065C343.517 186.3 343.92 185.117 343.92 183.483C343.92 181.848 343.488 180.701 342.653 180.075C341.818 179.414 340.579 179.101 338.938 179.101H336.23V188.177Z" fill="white"/>
<path d="M361.66 199.583V176.771H372.547V179.206H364.051V186.369H371.222V188.838H364.051V197.114H372.835V199.583H361.66Z" fill="white"/>
<path fill-rule="evenodd" clip-rule="evenodd" d="M201.301 186.335C204.09 186.542 204.129 189.967 201.301 190.019C168.104 190.633 35.3176 190.633 2.1209 190.019C-0.706966 189.967 -0.706966 186.388 2.1209 186.335C24.8088 185.916 94.0145 185.783 146.154 185.937C170.305 186.008 192.109 185.655 201.301 186.335Z" fill="white"/>
<path fill-rule="evenodd" clip-rule="evenodd" d="M585.45 186.335C588.239 186.542 588.278 189.967 585.45 190.019C552.252 190.633 419.466 190.633 386.269 190.019C383.441 189.967 383.441 186.388 386.269 186.335C408.957 185.916 478.163 185.783 530.302 185.937C554.453 186.008 576.258 185.655 585.45 186.335Z" fill="white"/>
</svg>
