<svg width="1053" height="200" viewBox="0 0 1053 200" fill="none" xmlns="http://www.w3.org/2000/svg">
<path d="M578.134 197.881C574.015 195.368 573.847 193.153 577.485 189.353C580.683 186.011 581.527 179.743 579.248 176.261C577.156 173.066 578.554 168.752 582.456 166.358C584.913 164.851 587.52 164.386 593.038 164.471C597.065 164.533 601.007 164.418 601.797 164.215C604.124 163.619 604.337 166.222 602.022 166.957C600.673 167.386 599.671 168.899 599.25 171.145C598.455 175.385 595.437 178.335 590.162 180.025C585.394 181.553 585.165 182.737 589.471 183.599C591.249 183.954 594.779 185.165 597.316 186.288C603.081 188.84 603.544 192.135 598.71 196.206C593.791 200.349 591.926 199.624 595.257 194.865C597.894 191.096 595.175 189.03 587.535 188.997C581.557 188.971 581.533 188.984 581.533 192.112C581.533 194.628 582.203 195.564 584.909 196.822C586.766 197.686 588.296 198.746 588.309 199.178C588.355 200.773 581.425 199.889 578.134 197.881ZM591.538 176.895C594.616 175.247 594.217 170.083 590.84 167.869C587.364 165.589 584.795 167.003 584.35 171.441C584.113 173.808 584.649 175.071 586.413 176.308C589.237 178.288 588.991 178.26 591.538 176.895ZM664.684 193.06C658.088 190.677 654.921 188.715 653.629 186.214C652.806 184.621 652.133 182.802 652.133 182.171C652.133 180.764 656.89 175.885 658.262 175.885C658.809 175.885 661.185 177.498 663.542 179.469C671.408 186.047 678.362 186.699 684.602 181.444C695.288 172.444 698.643 154.723 700.863 95.5397L701.58 76.4346H696.286C692.071 76.4346 690.314 77.0061 687.662 79.239C684.509 81.8943 684.085 81.9769 679.666 80.7941C675.713 79.736 674.444 79.809 671.363 81.272C663.076 85.208 655.675 101.892 650.026 129.374C648.889 134.905 647.693 139.86 647.369 140.385C647.045 140.91 644.396 141.339 641.483 141.339H636.187L636.954 110.601C637.376 93.6955 637.403 78.8564 637.012 77.6256C636.393 75.6744 635.516 75.3878 630.159 75.3878C618.933 75.3878 620.91 71.3668 633.752 68.0794C643.826 65.5007 646.236 65.4486 648.545 67.7598C650.138 69.3535 650.276 71.4247 649.785 86.3414C649.382 98.6181 649.53 102.426 650.335 100.512C654.749 90.0253 659.821 79.9286 662.668 75.9613C669.582 66.3255 678.375 63.2659 685.856 67.8934C689.62 70.222 692.471 70.6104 697.869 69.53L700.984 68.9064L702.285 56.706C705.525 26.3212 713.325 10.2508 728.122 3.4704C739.724 -1.84597 752.044 -0.729202 759.04 6.27307C762.479 9.71553 763 10.8723 763 15.0707C763 21.2812 760.439 24.0921 754.782 24.0921H750.747L750.065 17.5493C749.54 12.5076 748.846 10.5915 747.04 9.19774C744.483 7.22416 736.538 6.71607 732.475 8.26626C723.154 11.822 718.077 26.8609 716.439 55.7593L715.682 69.1067H724.567C735.965 69.1067 739.99 69.9057 739.99 72.1687C739.99 75.6991 737.719 76.4346 726.82 76.4346C714.2 76.4346 715.338 74.7592 714.373 94.7545C713.028 122.617 709.054 149.707 704.288 163.489C697.834 182.156 686.591 192.726 672.528 193.349C669.076 193.502 665.546 193.372 664.684 193.06ZM65.3899 184.808C64.0258 183.163 64.1925 166.245 65.5865 164.851C65.9931 164.444 67.0521 164.39 67.9398 164.731C69.1769 165.206 69.5538 167.024 69.5538 172.512C69.5538 177.039 70.099 180.419 71.0362 181.702C73.7256 185.383 68.3287 188.352 65.3899 184.808ZM77.6597 185.137C74.8482 184.109 73.8536 181.818 75.7182 180.665C76.2323 180.347 78.3849 180.811 80.5017 181.696C84.3397 183.301 88.3804 182.945 88.3804 181C88.3804 180.437 86.9091 179.173 85.1108 178.192C80.3324 175.586 75.8293 171.707 75.8293 170.197C75.8293 168.009 79.529 165.364 83.4872 164.721C88.8187 163.855 92.5641 165.014 92.5641 167.531C92.5641 170.057 91.1918 170.148 87.351 167.877C84.2739 166.058 81.0565 166.523 81.0626 168.786C81.0626 169.524 83.6387 171.517 86.7828 173.214C89.9269 174.912 92.7599 176.98 93.0784 177.811C94.0399 180.319 90.7365 184.088 86.5599 185.249C81.952 186.53 81.4529 186.524 77.6597 185.137ZM101.998 185.009C96.431 182.19 95.1968 174.75 99.4555 169.685C102.557 165.996 105.899 165.136 104.106 168.489C102.592 171.321 102.747 179.776 104.331 180.769C105.05 181.22 107.756 181.852 110.345 182.173L115.051 182.756L111.704 184.555C107.743 186.684 105.511 186.788 101.998 185.009ZM122.923 184.816C122.165 183.902 121.582 179.547 121.487 174.086C121.338 165.538 121.473 164.894 123.419 164.894C125.161 164.894 125.555 165.68 125.776 169.604C126.223 177.538 127.102 181.12 128.603 181.12C130.93 181.12 135.375 175.005 136.606 170.11C137.749 165.57 139.978 163.438 141.316 165.605C141.704 166.235 142.253 169.977 142.535 173.922C142.839 178.178 143.634 181.583 144.49 182.293C145.581 183.199 145.643 183.84 144.745 184.923C142.898 187.15 140.943 186.63 138.445 183.249L136.151 180.143L131.932 183.249C127.249 186.696 124.83 187.117 122.923 184.816ZM173.469 185.348C170.611 184.151 169.439 182.272 170.737 180.972C171.388 180.321 173.074 180.593 175.467 181.736C179.169 183.503 182.513 183.22 182.513 181.14C182.513 180.539 180.042 178.45 177.022 176.497C174.002 174.545 170.939 171.96 170.215 170.753C167.093 165.546 160.608 170.054 158.486 178.906C157.142 184.511 154.812 186.797 153.138 184.151C152.63 183.347 152.206 178.568 152.198 173.53C152.183 165.03 152.334 164.37 154.296 164.37C155.54 164.37 156.904 165.455 157.609 167.004L158.809 169.639L161.306 167.29C163.518 165.21 165.043 164.914 174.632 164.695C183.217 164.499 185.73 164.775 186.766 166.024C187.737 167.195 187.769 167.903 186.891 168.782C186.012 169.662 184.764 169.456 182.028 167.981C178.607 166.137 178.226 166.119 176.621 167.726C174.756 169.592 174.781 169.616 184.541 175.052C188.489 177.251 188.897 181.374 185.39 183.635C182.259 185.653 176.255 186.516 173.469 185.348ZM193.757 184.897C191.636 183.285 191.326 178.716 193.234 177.189C193.953 176.613 195.672 175.794 197.053 175.369C198.958 174.783 199.424 174.942 198.984 176.026C198.664 176.813 198.089 178.235 197.706 179.188C197.169 180.523 197.796 181.094 200.435 181.674L203.861 182.427L201.439 184.391C198.61 186.683 196.308 186.835 193.757 184.897ZM207.816 183.745C204.034 180.56 202.882 175.207 205.371 172.383C206.958 170.583 206.913 170.321 204.716 168.54C203.419 167.489 201.776 166.392 201.065 166.103C198.767 165.168 202.666 163.247 205.524 163.905C210.071 164.953 211.272 167.063 211.323 174.091C211.349 177.669 211.921 181.594 212.594 182.814C213.763 184.933 213.406 186.354 211.705 186.354C211.27 186.354 209.52 185.18 207.816 183.745ZM220.376 185.098C217.638 182.357 219.646 149.786 222.745 146.685C224.092 145.336 224.382 145.432 225.136 147.47C225.607 148.746 225.653 153.188 225.236 157.342C224.04 169.284 224.219 179.89 225.658 182.213C226.735 183.953 226.689 184.5 225.396 185.323C223.287 186.666 221.88 186.603 220.376 185.098ZM234.89 183.644C227.207 177.173 233.626 164.37 244.553 164.37C250.117 164.37 253.636 167.757 253.636 173.111C253.636 178.496 251.627 181.548 246.287 184.274C240.914 187.018 238.755 186.899 234.89 183.644ZM245.292 182.154C249.447 179.929 248.802 169.963 244.349 167.578C241.387 165.992 239.264 167.181 237.952 171.162C236.531 175.469 237.5 179.641 240.391 181.668C243.013 183.505 242.807 183.485 245.292 182.154ZM277.95 185.489C277.229 185.03 276.209 181.229 275.684 177.042C275.158 172.855 274.446 169.147 274.101 168.802C272.535 167.234 267.604 172.889 265.323 178.869C262.915 185.179 260.764 186.946 259.501 183.651C259.151 182.74 258.866 178.03 258.866 173.183C258.866 165.032 259.025 164.37 260.983 164.37C262.304 164.37 263.492 165.399 264.139 167.103C265.134 169.72 265.276 169.763 267.513 168.122C272.57 164.409 275.969 163.362 278.215 164.824C279.91 165.927 280.367 167.55 280.622 173.367C280.824 177.971 281.512 181.185 282.539 182.321C283.989 183.925 283.941 184.201 282.032 185.224C279.541 186.558 279.624 186.552 277.95 185.489ZM307.944 183.294C305.734 181.082 304.874 179.196 304.843 176.489C304.819 174.43 304.78 168.152 304.755 162.538L304.712 152.331H307.676H310.639V165.506C310.639 179.574 311.434 182.173 315.735 182.16C318.429 182.151 323.256 179.098 325.385 176.055C326.242 174.832 327.854 169.042 328.969 163.188C330.083 157.335 331.219 152.322 331.492 152.048C331.766 151.773 332.78 151.852 333.745 152.223C335.311 152.825 335.421 154.271 334.769 165.735C334.072 177.975 334.146 178.71 336.354 181.519C338.261 183.946 338.411 184.63 337.206 185.394C334.282 187.247 331.185 185.905 329.583 182.092L328.364 179.19L322.688 182.772C315.632 187.225 311.999 187.353 307.944 183.294ZM381.555 185.295C375.926 183.026 374.689 173.83 379.345 168.87C382.08 165.956 384.992 165.58 383.787 168.296C383.34 169.303 382.777 172.073 382.534 174.451C382.166 178.063 382.492 179.053 384.514 180.47C385.845 181.403 388.829 182.186 391.146 182.21L395.359 182.254L391.698 184.26C387.699 186.451 385.086 186.718 381.555 185.295ZM422.456 184.669C415.711 182.274 412.358 178.052 411.794 171.243C411.393 166.403 411.754 164.764 414.104 160.749C417.838 154.373 423.246 151.64 432.379 151.516C440.069 151.411 443.994 152.938 443.994 156.032C443.994 158.622 442.85 158.616 437.718 155.995C432.522 153.342 428.7 153.35 424.32 156.022C418.157 159.783 415.897 170.057 419.818 176.493C423.272 182.162 432.578 185.068 436.075 181.568C438.396 179.245 438.122 177.402 435.104 175.026C433.665 173.893 432.489 172.681 432.489 172.333C432.489 171.984 434.842 171.698 437.718 171.698H442.948L442.932 176.671C442.912 182.989 442.101 184.194 437.087 185.358C431.513 186.652 427.51 186.464 422.456 184.669ZM473.596 185.151C470.046 183.357 467.902 177.958 469.091 173.808C470.246 169.777 472.967 166.464 475.123 166.464C476.158 166.464 476.402 167.047 475.891 168.296C475.478 169.303 474.903 172.065 474.613 174.434C474.166 178.089 474.455 178.998 476.53 180.453C477.875 181.395 480.858 182.167 483.158 182.167C487.252 182.167 487.292 182.202 485.006 183.805C481.933 185.959 476.471 186.603 473.596 185.151ZM494.567 185.348C491.734 184.161 490.534 182.275 491.803 181.004C492.411 180.396 494.269 180.647 496.705 181.665C500.77 183.365 505.069 182.879 504.376 180.797C504.157 180.141 501.66 178.244 498.827 176.581C490.855 171.903 489.919 168.788 495.664 166.06C501.723 163.182 508.841 164.026 508.841 167.623C508.841 170.034 505.489 170.298 503.612 168.034C501.969 166.053 499.011 166.014 497.404 167.952C496.392 169.173 497.263 170.079 502.244 172.986C509.281 177.093 510.807 180.849 506.551 183.594C503.365 185.648 497.375 186.525 494.567 185.348ZM514.332 184.82C512.463 183.992 510.933 182.871 510.933 182.329C510.933 180.397 514.164 180.151 517.655 181.817C521.488 183.647 524.53 183.153 524.53 180.7C524.53 179.857 523.636 178.883 522.544 178.536C519.11 177.445 511.979 171.755 511.979 170.106C511.979 167.633 518.291 164.378 523.095 164.374C527.942 164.37 530.979 166.709 528.868 168.822C527.937 169.753 526.901 169.602 524.507 168.187C521.243 166.257 516.765 166.704 517.492 168.886C517.712 169.545 520.562 171.646 523.826 173.555C527.77 175.862 529.76 177.698 529.76 179.032C529.76 181.388 525.895 185.301 523.548 185.321C522.65 185.329 520.974 185.558 519.823 185.831C518.673 186.103 516.202 185.648 514.332 184.82ZM536.948 184.623C536.075 183.571 535.515 180.389 535.518 176.51C535.528 168.823 536.627 164.37 538.519 164.37C539.506 164.37 540.088 166.637 540.5 172.091C540.821 176.337 541.713 180.826 542.482 182.068C543.669 183.984 543.643 184.475 542.311 185.323C540.033 186.773 538.572 186.582 536.948 184.623ZM567.657 185.045C567.076 184.326 566.276 180.88 565.88 177.388C565.484 173.895 564.777 170.417 564.309 169.659C562.757 167.145 558.692 171.296 555.895 178.251C552.538 186.599 550.483 186.843 549.347 179.026C548.886 175.859 548.645 171.384 548.809 169.081C549.054 165.668 549.537 164.833 551.425 164.564C553.173 164.315 553.907 164.893 554.415 166.919C554.785 168.396 555.304 169.604 555.568 169.604C555.831 169.604 557.667 168.368 559.647 166.856C563.46 163.946 567.806 163.298 569.845 165.338C570.531 166.025 571.106 169.748 571.147 173.772C571.192 178.221 571.767 181.634 572.649 182.698C573.859 184.158 573.848 184.565 572.575 185.371C570.494 186.689 568.901 186.584 567.657 185.045ZM610.612 185.295C604.983 183.026 603.746 173.83 608.402 168.87C611.137 165.956 614.049 165.58 612.844 168.296C612.397 169.303 611.834 172.073 611.591 174.451C611.223 178.063 611.549 179.053 613.571 180.47C614.902 181.403 617.886 182.186 620.203 182.21L624.416 182.254L620.755 184.26C616.756 186.451 614.143 186.718 610.612 185.295ZM17.8297 183.999C17.605 183.279 17.1146 176.801 16.7396 169.604C16.2471 160.151 15.6183 156.032 14.4742 154.765C13.0207 153.155 13.2633 152.964 17.4275 152.445C19.9228 152.134 25.8474 151.706 30.5932 151.494L39.2221 151.107V153.9C39.2221 157.674 38.3731 158.266 35.5846 156.438C33.0504 154.776 26.7133 154.152 24.7434 155.37C24.0778 155.782 23.5332 158.396 23.5332 161.179C23.5332 166.765 24.3435 167.511 30.4172 167.511C32.3836 167.511 33.9924 167.96 33.9924 168.51C33.9924 169.368 31.0012 170.158 24.5791 170.995C23.485 171.138 22.8194 172.972 22.3796 177.058C22.0328 180.279 21.4166 183.453 21.0105 184.111C20.0332 185.694 18.34 185.634 17.8297 183.999ZM44.1072 184.522C43.8498 184.09 43.469 179.497 43.261 174.315C42.8955 165.212 42.9622 164.882 45.2344 164.559C46.9757 164.312 47.8598 164.946 48.6409 167.002L49.6956 169.778L52.9065 167.074C56.4105 164.123 60.6356 163.517 61.5254 165.838C62.2592 167.752 61.3742 168.558 58.5384 168.558C54.4333 168.558 51.1399 172.256 49.2537 178.984C47.6497 184.706 45.5582 186.957 44.1072 184.522ZM345.043 176.147C343.408 171.109 341.917 166.458 341.73 165.81C341.544 165.163 342.117 164.355 343.004 164.014C345.233 163.158 348.239 166.682 349.807 171.989C350.525 174.42 351.835 177.221 352.717 178.214C354.16 179.839 354.147 180.284 352.59 182.663C349.657 187.143 348.205 185.889 345.043 176.147ZM359.554 181.12C358.651 178.817 357.512 176.932 357.024 176.932C355.494 176.932 356.027 167.858 357.635 166.522C359.402 165.054 361.392 167.644 363.422 174.053C365.414 180.339 367.885 178.686 369.79 169.795C370.527 166.359 371.496 164.37 372.435 164.37C374.45 164.37 374.365 169.887 372.289 173.906C370.319 177.719 363.608 185.307 362.206 185.307C361.652 185.307 360.458 183.423 359.554 181.12ZM451.756 183.9C451.423 183.03 451.07 178.398 450.971 173.606C450.801 165.307 450.904 164.878 453.144 164.559C454.885 164.312 455.769 164.946 456.551 167.002L457.605 169.778L460.88 167.02C464.476 163.992 468.353 163.849 468.901 166.726C469.168 168.129 468.541 168.558 466.217 168.558C462.225 168.558 459.247 171.873 456.878 178.957C454.944 184.74 452.852 186.759 451.756 183.9ZM629.801 181.43C629.44 179.244 629.14 174.479 629.134 170.84C629.123 164.575 629.247 164.242 631.475 164.559C632.77 164.743 634.274 165.907 634.817 167.147L635.806 169.4L639.205 166.804C642.824 164.042 647.426 163.827 647.426 166.421C647.426 167.312 645.97 168.246 643.93 168.664C639.344 169.603 638.794 170.255 635.952 178.119C633.106 185.996 630.763 187.257 629.801 181.43ZM109.633 171.316C111.338 168.712 110.359 166.464 107.521 166.464C106.773 166.464 106.161 165.993 106.161 165.417C106.161 164.266 111.606 164.036 115.313 165.03C116.607 165.377 117.666 166.334 117.666 167.157C117.666 169.44 112.817 173.792 110.272 173.792C108.136 173.792 108.101 173.656 109.633 171.316ZM388.994 171.508C390.72 169.041 389.632 166.464 386.863 166.464C385.03 166.464 384.983 164.763 386.796 164.067C389.072 163.193 393.553 164.467 395.404 166.514C397.038 168.321 396.981 168.599 394.468 171.114C392.997 172.587 390.804 173.792 389.595 173.792C387.544 173.792 387.503 173.638 388.994 171.508ZM481.012 172.221C481.361 171.358 481.925 169.964 482.265 169.125C482.683 168.094 482.003 167.377 480.173 166.918C477.183 166.166 476.653 164.906 478.954 164.022C481.251 163.14 487.961 165.345 488.679 167.217C489.086 168.279 488.281 169.781 486.471 171.34C483.222 174.136 480.03 174.652 481.012 172.221ZM618.051 171.508C619.777 169.041 618.689 166.464 615.92 166.464C615.128 166.464 614.479 165.993 614.479 165.417C614.479 163.937 622.17 164.112 623.683 165.626C626.601 168.547 623.189 173.792 618.371 173.792C616.608 173.792 616.582 173.607 618.051 171.508ZM194.019 169.89C194.019 167.845 195.873 165.417 197.435 165.417C197.933 165.417 198.192 166.708 198.01 168.287C197.624 171.634 194.019 173.082 194.019 169.89ZM65.7079 156.413C64.8527 154.183 67.3746 152.734 69.8265 154.048C71.3817 154.881 71.5273 155.4 70.5391 156.592C68.8899 158.581 66.5052 158.493 65.7079 156.413ZM536.763 156.676C535.994 154.671 536.877 153.902 539.947 153.902C541.78 153.902 542.369 154.4 542.115 155.734C541.681 158.016 537.555 158.742 536.763 156.676ZM126.949 140.88C117.832 134.679 117.42 121.696 126.066 113.042C131.935 107.167 138.874 104.048 152.08 101.346L163.687 98.9721V91.8571C163.687 79.1689 158.953 73.3059 148.702 73.298C144.514 73.2948 143.132 73.8155 140.596 76.3541C137.304 79.649 136.922 82.0195 138.667 88.3099C139.281 90.523 139.553 92.5644 139.271 92.8462C138.989 93.1281 136.497 93.3587 133.732 93.3587C129.818 93.3587 128.293 92.8499 126.846 91.0618C121.038 83.8833 129.758 72.3028 144.583 67.5069C152.096 65.0763 164.539 65.6782 168.537 68.6656C175.678 74.0019 175.663 73.9345 176.238 103.464C176.525 118.25 177.171 130.984 177.673 131.763C179.458 134.533 185.079 136.094 189.184 134.96C194.338 133.536 195.813 134.649 192.894 137.76C189.308 141.58 182.416 143.813 176.81 142.972C169.982 141.947 166.198 138.324 163.94 130.65L162.075 124.311L158.025 129.423C152.719 136.12 149.433 138.997 144.337 141.408C138.359 144.236 131.581 144.03 126.949 140.88ZM151.424 126.96C156.177 122.355 159.937 116.246 161.419 110.719L162.472 106.793H156.99C144.156 106.793 134.401 113.705 134.401 122.798C134.401 133.498 142.605 135.504 151.424 126.96ZM204.908 141.454C199.262 138.008 197.156 134.375 197.156 128.079C197.156 120.512 199.038 116.453 204.965 111.231C210.856 106.041 217.418 103.409 230.436 101.014C241.435 98.991 241.909 98.4173 240.62 88.692C239.166 77.715 234.89 73.2941 225.729 73.2941C216.619 73.2941 212.845 78.1757 215.001 87.1698C215.671 89.9641 215.98 92.4894 215.688 92.7814C215.396 93.0735 213.177 93.3398 210.756 93.3732C205.139 93.4508 201.968 90.5692 201.968 85.3886C201.968 79.9813 206.793 74.5381 215.473 70.1535C221.63 67.0433 223.995 66.4384 231.121 66.1511C238.339 65.8601 240.165 66.1595 244.142 68.2863C252.379 72.6913 252.977 75.0187 252.717 101.669C252.585 115.173 252.946 126.21 253.597 128.633C255.038 133.989 259.603 136.426 265.641 135.064C272.721 133.465 273.505 135.806 267.219 139.778C261.203 143.579 255.099 144.179 249.165 141.551C244.034 139.28 241.772 136.126 240.533 129.515C240.131 127.369 239.45 125.396 239.02 125.13C238.591 124.864 236.069 127.443 233.418 130.86C224.793 141.976 212.965 146.371 204.908 141.454ZM225.537 129.358C230.906 125.706 238.993 112.681 238.993 107.684C238.993 107.194 236.758 106.796 234.025 106.799C219.915 106.816 209.728 114.804 211.067 124.801C211.366 127.033 212.182 129.547 212.879 130.389C214.86 132.777 221.278 132.254 225.537 129.358ZM347.522 142.391C336.025 138.926 330.645 128.684 337.842 123.964C341.463 121.589 344.57 122.794 348.314 128.026C352.208 133.467 357.219 136.101 363.683 136.104C367.709 136.104 369.294 135.509 372.312 132.856C375.328 130.205 376.009 128.873 376.009 125.621C376.009 120.659 373.674 118.542 359.671 110.809C347.03 103.83 339.844 97.2955 338.846 91.8757C337.19 82.8822 342.269 73.6997 351.437 69.1097C358.903 65.3726 371.52 64.863 378.719 68.0078C384.84 70.6815 387.933 74.5057 387.933 79.3994C387.933 85.0146 382.283 88.4438 376.617 86.2677C375.625 85.8864 374.963 84.3936 374.963 82.5349C374.963 76.0565 371.152 73.1381 362.676 73.126C357.436 73.1185 351.813 76.2293 350.044 80.1147C349.086 82.2187 349.129 83.5261 350.243 86.1598C352.093 90.5356 353.383 91.5347 367.446 99.4876C385.427 109.656 390.3 116.329 387.458 126.892C384.785 136.829 373.012 143.506 358.451 143.343C354.014 143.294 349.096 142.865 347.522 142.391ZM414.185 141.474C408.707 138.97 401.91 131.465 399.573 125.338C398.058 121.368 397.794 118.24 398.164 108.65C398.584 97.7845 398.905 96.2686 402.219 89.5415C407.114 79.603 415.478 71.1765 423.376 68.2269C433.884 64.3024 445.186 65.5212 450.995 71.2051C457.036 77.1164 456.422 85.4981 449.714 88.6998C444.984 90.9573 442.536 89.6655 442.143 84.7039C441.628 78.2182 440.855 76.4878 437.755 74.8834C432.257 72.0377 425.011 73.2398 420.096 77.8129C413.385 84.0564 409.42 98.8507 411.344 110.471C413.771 125.13 421.461 134.032 431.671 134.001C435.571 133.99 444.844 129.98 446.998 127.374C449.106 124.824 452.361 125.139 452.361 127.892C452.361 130.936 444.891 137.876 438.318 140.939C431.555 144.092 420.448 144.338 414.185 141.474ZM559.297 141.407C550.339 135.778 549.013 123.079 556.473 114.356C561.624 108.332 570.589 104.042 583.756 101.3L595.13 98.9312L595.063 91.0852C594.957 78.6495 590.727 73.2941 581.01 73.2941C572.619 73.2941 567.947 78.2164 569.582 85.3329C571.281 92.7276 571.036 93.1843 565.38 93.1843C561.223 93.1843 559.891 92.7284 558.582 90.8576C554.059 84.3943 559.006 75.5075 570.199 69.9888C576.289 66.9863 578.562 66.4473 586.213 66.1915C593.928 65.9336 595.686 66.216 599.255 68.2858C607.261 72.9284 607.668 74.6014 607.777 103.323C607.861 125.341 608.107 128.996 609.662 131.373C612.103 135.101 615.37 136.153 620.752 134.942C623.206 134.39 625.446 134.17 625.729 134.453C626.815 135.54 624.867 138.274 621.575 140.284C610.929 146.783 598.727 142.324 595.641 130.808C594.955 128.251 594.183 125.812 593.923 125.386C593.664 124.961 591.097 127.444 588.219 130.905C581.023 139.561 576.014 142.696 568.626 143.169C564.012 143.465 561.954 143.076 559.297 141.407ZM583.927 126.386C587.68 122.75 593.561 111.88 593.561 108.579C593.561 106.675 593.004 106.552 586.501 107.019C571.986 108.062 563.532 116.447 566.424 126.931C568.385 134.038 576.282 133.792 583.927 126.386ZM14.4866 124.488C14.8696 114.468 15.4425 90.2531 15.7598 70.677C16.4335 29.1109 16.9169 31.2136 6.49253 30.3732C0.8874 29.9213 0 29.5655 0 27.7702C0 26.5828 1.12185 25.1549 2.61474 24.4419C6.32937 22.6681 18.1012 21.2886 22.8198 22.074C30.348 23.3272 30.3317 23.2647 30.3317 50.9729V75.6869L56.9884 74.941C71.6496 74.5307 83.8002 74.0399 83.9898 73.8501C84.1793 73.6604 84.9719 62.5162 85.751 49.0852C87.1107 25.6485 87.2654 24.5861 89.5922 22.7004C91.4184 21.2202 93.1288 20.861 96.5256 21.2442C99.0057 21.5239 101.22 21.9381 101.446 22.1645C101.672 22.3908 101.153 31.75 100.293 42.9625C99.4319 54.1751 98.6353 77.2459 98.5222 94.2311C98.3388 121.796 98.5115 125.469 100.129 128.428C102.188 132.195 106.559 133.986 112.96 133.685C116.522 133.517 117.191 133.823 117.465 135.746C117.942 139.099 108.534 142.386 98.4598 142.386C91.676 142.386 90.5658 142.097 88.3744 139.763C85.3794 136.572 84.3799 130.459 84.2677 114.645C84.2226 108.311 83.882 98.5363 83.5106 92.9225L82.8353 82.7157L62.336 82.7249C51.0615 82.7299 39.3968 83.0274 36.4145 83.386C31.1465 84.0194 30.9752 84.1459 30.4012 87.826C30.0762 89.9094 29.329 102.655 28.7408 116.151C28.1525 129.646 27.4834 140.875 27.2538 141.105C27.0241 141.335 23.9009 141.789 20.3132 142.115L13.7902 142.707L14.4866 124.488ZM468.454 132.703C468.783 127.377 469.327 116.189 469.661 107.84C469.996 99.4915 471.185 75.7609 472.303 55.1055C475.398 -2.07613 475.008 0.0145187 482.568 0.0145187C490.662 0.0145187 490.473 -1.96656 486.404 40.354C484.41 61.1013 482.491 83.9488 482.141 91.1263L481.505 104.176L487.745 92.4104C498.599 71.9438 505.987 65.2964 516.876 66.2002C523.229 66.7274 526.966 69.4394 529.476 75.3435C530.761 78.3667 530.891 83.0337 530.261 103.664L529.506 128.366L532.01 131.279C534.404 134.064 534.752 134.149 539.91 133.211C547.121 131.899 549.108 133.201 545.023 136.562C540.862 139.984 532.073 142.577 525.95 142.186C521.339 141.893 520.692 141.524 518.953 138.199C517.2 134.848 517.089 132.499 517.655 110.709C518.469 79.3827 517.042 75.3203 507.082 80.6087C498.373 85.2327 488.643 102.844 484.005 122.376C482.554 128.487 480.956 135.201 480.453 137.294C479.474 141.37 477.726 142.346 471.352 142.372L467.855 142.386L468.454 132.703ZM282.648 139.359C282.349 138.214 282.608 124.549 283.223 108.991C284.564 75.0616 284.689 75.6368 275.919 75.1797C271.287 74.9383 269.791 74.4594 269.54 73.1366C269.157 71.1235 278.893 67.5326 287.787 66.4062C292.817 65.7692 293.296 65.909 294.999 68.5118C296.62 70.9877 296.743 73.0515 296.096 86.9528C295.696 95.562 295.589 102.606 295.859 102.606C296.13 102.606 297.16 100.133 298.148 97.1099C304.351 78.1455 315.119 65.9661 325.683 65.9661C333.699 65.9661 338.023 73.7825 333.262 79.6668C331.426 81.9368 330.996 82.0115 326.202 80.8935C321.883 79.8861 320.535 79.9749 317.437 81.4711C309.278 85.4118 300.554 105.537 295.57 131.918L293.889 140.816L288.54 141.128C283.94 141.396 283.116 141.149 282.648 139.359Z" fill="white"/>
<path d="M960.326 197.272C931.651 185.828 911.449 153.071 922.271 135.569C925.279 130.703 925.279 130.703 918.65 121.879C912.021 113.054 912.021 113.054 837.51 91.0117C796.53 78.8882 763 68.5174 763 67.9654C763 67.4135 792.83 72.959 829.289 80.2889C865.749 87.6188 895.861 93.3377 896.206 92.9977C896.551 92.6576 881.955 72.0948 863.772 47.3025C845.588 22.5102 830.698 1.52264 830.683 0.663468C830.65 -1.13849 828.385 -3.40196 884.715 54.6497C908.454 79.1143 929.016 99.5647 930.409 100.095C931.802 100.625 942.909 103.065 955.091 105.517C967.273 107.969 977.24 110.456 977.24 111.044C977.24 111.632 972.919 113.298 967.637 114.746C952.62 118.863 951.108 125.386 963.508 132.552C976.906 140.296 985.726 141.991 1012.68 142.003C1037.94 142.013 1038.58 141.902 1051.74 135.223C1052.41 134.886 1052.95 136.814 1052.95 139.508C1052.95 149.796 1041.44 155.646 1019.12 156.708C990.247 158.083 968.095 149.993 953.722 132.826C951.387 130.036 948.022 128.443 942.846 127.678C927.324 125.382 922.686 135.619 931.995 151.625C938.111 162.14 954.897 177.449 966.321 182.93C976.991 188.049 988.981 188.813 993.624 184.669C997.285 181.402 997.514 184.068 994.126 190.528C989.312 199.709 974.058 202.753 960.326 197.272ZM915.318 102.415C919.459 99.4005 916.522 96.3059 910.198 97.0208C902.479 97.8933 903.203 102.851 911.291 104.507C911.786 104.608 913.598 103.667 915.318 102.415ZM1044.98 127.683C1041.93 124.657 1038.12 121.772 1036.52 121.272C1034.93 120.772 1033.62 119.687 1033.62 118.86C1033.62 116.725 1044.95 121.664 1049.3 125.695C1052.82 128.951 1054.24 133.34 1051.74 133.235C1051.08 133.208 1048.03 130.709 1044.98 127.683Z" fill="white"/>
</svg>
