<svg width="630" height="200" viewBox="0 0 630 200" fill="none" xmlns="http://www.w3.org/2000/svg">
<path d="M0 136.018V72.035L10.8875 70.5232C29.1984 67.9804 90.5848 61.5261 96.7063 61.4999C102.451 61.4743 102.47 61.617 102.47 103.555V145.636L88.4378 150.885C66.8113 158.976 34.6648 175.773 16.4643 188.493L0 200V136.018ZM341.536 108.717C319.527 97.4725 319.677 54.0887 341.775 39.6113C357.943 29.0184 382.451 33.6858 391.883 49.1542C402.165 66.0161 396.838 94.4153 381.252 105.836C372.001 112.615 352.004 114.066 341.536 108.717ZM373.011 82.9824C377.855 71.3912 375.606 60.0734 367.389 54.6902C361.754 50.9979 360.662 50.9979 355.026 54.6902C345.285 61.0719 343.499 78.9018 351.588 89.011C352.997 90.772 357.526 92.2129 361.652 92.2129C367.846 92.2129 369.827 90.6029 373.011 82.9824ZM114.639 106.117C107.735 102.372 107.594 101.819 107.594 78.5582V54.8213L81.3358 57.7811C66.8939 59.409 54.7476 60.48 54.344 60.161C53.9405 59.842 53.9405 48.1121 54.344 34.0945L55.0778 8.60792L90.9423 16.6867L126.807 24.7655L127.509 67.4543C128.269 113.61 128.297 113.526 114.639 106.117ZM156.267 73.0019V35.8606H165.233C171.679 35.8606 174.199 36.9928 174.199 39.8887C174.199 43.2278 175.354 43.0088 180.949 38.6079C189.582 31.8183 204.857 31.6189 212.982 38.1899C218.69 42.8057 219.078 44.9655 219.874 76.6119L220.718 110.143H210.268H199.817V85.6408C199.817 52.024 193.95 42.8783 182.071 57.9785C177.606 63.6536 176.761 68.3411 176.761 87.4354V110.143H166.514H156.267V73.0019ZM268.984 55.0716V0H279.15H289.316L290.038 30.0973L290.759 60.1945L298.445 48.0321C306.048 35.9998 306.276 35.8697 319.825 35.8652L333.519 35.86L324.2 48.027C308.048 69.1132 308.043 69.1608 319.996 86.7602C335.734 109.932 335.743 110.143 321.035 110.143C308.513 110.143 308.479 110.12 299.626 95.4771L290.759 80.8117L289.991 95.4771L289.223 110.143H279.104H268.984V55.0716ZM399.634 73.0019V35.8606H409.881C415.517 35.8606 420.128 37.0428 420.128 38.4878C420.128 39.9938 423.354 39.4472 427.686 37.2071C437.945 31.9024 449.065 32.294 456.349 38.2166C461.761 42.6167 462.848 42.7286 466.681 39.2803C474.082 32.6226 491.156 31.8172 499.177 37.7472C506.03 42.8127 506.283 42.8198 512.105 38.1066C520.24 31.5202 536.408 31.7383 543.196 38.5261L548.424 43.7531L555.07 38.5261C562.163 32.9472 576.173 31.6292 583.979 35.8065C591.483 39.8218 594.327 52.6158 594.327 82.3493V110.143H584.08H573.833V87.2567C573.833 52.8127 567.879 42.9891 556.087 57.9785C551.622 63.6536 550.778 68.3411 550.778 87.4354V110.143H540.531H530.284V83.5614C530.284 55.7571 527.93 49.3444 518.986 52.7763C511.115 55.7964 507.228 67.9442 507.228 89.5242V110.143H496.981H486.734V83.5614C486.734 54.5157 484.173 48.307 474.358 53.559C467.159 57.4114 463.678 69.7176 463.678 91.3144V110.143H453.431H443.184V81.8866C443.184 57.9387 442.536 53.3816 438.938 52.0008C436.146 50.9297 432.636 52.7611 428.691 57.347C423.365 63.5379 422.69 66.899 422.69 87.2328V110.143H411.162H399.634V73.0019ZM605.087 107.069C599.991 101.975 601.434 90.3474 607.706 85.9545C615.231 80.6846 618.903 80.9247 625.068 87.09C631.223 93.2433 631.649 100.636 626.166 106.118C621.402 110.881 609.439 111.421 605.087 107.069ZM225.435 73.0019V64.0367H244.648H263.861V73.0019V81.967H244.648H225.435V73.0019Z" fill="white"/>
<path d="M173.523 130.455H179.982V150.292C179.982 152.519 179.45 154.468 178.386 156.138C177.332 157.809 175.855 159.111 173.956 160.046C172.057 160.971 169.844 161.433 167.319 161.433C164.783 161.433 162.566 160.971 160.667 160.046C158.768 159.111 157.291 157.809 156.237 156.138C155.183 154.468 154.656 152.519 154.656 150.292V130.455H161.114V149.74C161.114 150.903 161.368 151.937 161.875 152.842C162.392 153.747 163.118 154.458 164.053 154.975C164.987 155.492 166.076 155.751 167.319 155.751C168.572 155.751 169.661 155.492 170.585 154.975C171.52 154.458 172.241 153.747 172.748 152.842C173.265 151.937 173.523 150.903 173.523 149.74V130.455Z" fill="white"/>
<path d="M191.529 147.756V161.001H185.176V138.091H191.231V142.133H191.499C192.007 140.801 192.857 139.747 194.05 138.971C195.243 138.186 196.69 137.793 198.39 137.793C199.981 137.793 201.368 138.141 202.551 138.837C203.735 139.533 204.654 140.528 205.311 141.82C205.967 143.103 206.295 144.634 206.295 146.414V161.001H199.941V147.547C199.951 146.145 199.593 145.052 198.867 144.266C198.142 143.471 197.142 143.073 195.869 143.073C195.014 143.073 194.259 143.257 193.602 143.625C192.956 143.993 192.449 144.53 192.081 145.236C191.723 145.932 191.539 146.772 191.529 147.756Z" fill="white"/>
<path d="M230.364 144.624L224.547 144.982C224.447 144.485 224.234 144.037 223.906 143.64C223.577 143.232 223.145 142.909 222.608 142.67C222.081 142.422 221.45 142.297 220.714 142.297C219.729 142.297 218.899 142.506 218.223 142.924C217.547 143.331 217.209 143.878 217.209 144.564C217.209 145.111 217.428 145.574 217.865 145.952C218.303 146.329 219.053 146.633 220.117 146.861L224.263 147.697C226.491 148.154 228.151 148.89 229.245 149.904C230.339 150.918 230.886 152.251 230.886 153.901C230.886 155.403 230.443 156.72 229.558 157.854C228.683 158.987 227.48 159.872 225.949 160.508C224.428 161.135 222.673 161.448 220.684 161.448C217.651 161.448 215.235 160.817 213.435 159.554C211.646 158.281 210.597 156.551 210.288 154.363L216.538 154.035C216.727 154.96 217.184 155.666 217.91 156.153C218.636 156.631 219.565 156.869 220.699 156.869C221.812 156.869 222.707 156.655 223.384 156.228C224.07 155.79 224.418 155.229 224.428 154.542C224.418 153.966 224.174 153.493 223.697 153.126C223.219 152.748 222.484 152.459 221.489 152.26L217.522 151.47C215.285 151.023 213.619 150.247 212.526 149.143C211.442 148.04 210.9 146.633 210.9 144.922C210.9 143.451 211.298 142.183 212.093 141.119C212.898 140.055 214.027 139.235 215.479 138.658C216.94 138.081 218.651 137.793 220.609 137.793C223.503 137.793 225.78 138.405 227.44 139.628C229.111 140.851 230.085 142.516 230.364 144.624Z" fill="white"/>
<path d="M245.327 161.448C242.97 161.448 240.942 160.971 239.242 160.016C237.551 159.052 236.249 157.689 235.334 155.93C234.419 154.16 233.962 152.067 233.962 149.65C233.962 147.294 234.419 145.226 235.334 143.446C236.249 141.666 237.536 140.279 239.197 139.285C240.867 138.29 242.826 137.793 245.073 137.793C246.585 137.793 247.992 138.037 249.294 138.524C250.607 139.001 251.75 139.722 252.725 140.687C253.709 141.651 254.475 142.864 255.021 144.326C255.568 145.778 255.842 147.478 255.842 149.427V151.172H236.497V147.234H249.861C249.861 146.319 249.662 145.509 249.264 144.803C248.867 144.097 248.315 143.545 247.609 143.148C246.913 142.74 246.102 142.536 245.178 142.536C244.213 142.536 243.358 142.76 242.612 143.207C241.877 143.645 241.3 144.236 240.882 144.982C240.465 145.718 240.251 146.538 240.241 147.443V151.187C240.241 152.32 240.45 153.3 240.867 154.125C241.295 154.95 241.896 155.586 242.672 156.034C243.448 156.481 244.367 156.705 245.431 156.705C246.137 156.705 246.784 156.606 247.37 156.407C247.957 156.208 248.459 155.91 248.877 155.512C249.294 155.114 249.612 154.627 249.831 154.05L255.708 154.438C255.409 155.85 254.798 157.083 253.873 158.137C252.958 159.181 251.775 159.996 250.323 160.583C248.882 161.16 247.216 161.448 245.327 161.448Z" fill="white"/>
<path d="M259.988 161.001V138.091H266.148V142.089H266.387C266.804 140.667 267.505 139.593 268.49 138.867C269.474 138.131 270.607 137.763 271.89 137.763C272.208 137.763 272.551 137.783 272.919 137.823C273.287 137.863 273.61 137.917 273.889 137.987V143.625C273.59 143.535 273.178 143.456 272.651 143.386C272.124 143.317 271.642 143.282 271.204 143.282C270.269 143.282 269.434 143.486 268.698 143.893C267.972 144.291 267.396 144.848 266.968 145.564C266.551 146.28 266.342 147.105 266.342 148.04V161.001H259.988Z" fill="white"/>
<path d="M293.472 130.455V161.001H287.014V130.455H293.472Z" fill="white"/>
<path d="M297.622 135.78V130.455H322.708V135.78H313.357V161.001H306.973V135.78H297.622Z" fill="white"/>
<path d="M336.561 161.001V130.455H348.612C350.928 130.455 352.902 130.898 354.533 131.782C356.164 132.657 357.406 133.876 358.262 135.437C359.127 136.988 359.559 138.778 359.559 140.806C359.559 142.834 359.122 144.624 358.247 146.175C357.372 147.726 356.104 148.934 354.443 149.8C352.793 150.665 350.794 151.097 348.448 151.097H340.767V145.922H347.404C348.646 145.922 349.671 145.708 350.476 145.28C351.291 144.843 351.898 144.241 352.296 143.476C352.703 142.7 352.907 141.81 352.907 140.806C352.907 139.792 352.703 138.907 352.296 138.151C351.898 137.385 351.291 136.794 350.476 136.376C349.661 135.949 348.627 135.735 347.374 135.735H343.019V161.001H336.561Z" fill="white"/>
<path d="M369.552 161.433C368.09 161.433 366.788 161.18 365.644 160.672C364.501 160.155 363.596 159.395 362.93 158.39C362.274 157.376 361.945 156.113 361.945 154.602C361.945 153.329 362.179 152.26 362.646 151.395C363.114 150.53 363.75 149.834 364.556 149.307C365.361 148.78 366.276 148.383 367.3 148.114C368.334 147.846 369.418 147.657 370.551 147.547C371.884 147.408 372.958 147.279 373.773 147.16C374.588 147.03 375.18 146.841 375.548 146.593C375.916 146.344 376.1 145.976 376.1 145.489V145.4C376.1 144.455 375.801 143.724 375.205 143.207C374.618 142.69 373.783 142.432 372.699 142.432C371.556 142.432 370.646 142.685 369.97 143.192C369.293 143.689 368.846 144.316 368.627 145.072L362.751 144.594C363.049 143.202 363.636 141.999 364.511 140.985C365.386 139.961 366.514 139.175 367.896 138.628C369.289 138.072 370.899 137.793 372.729 137.793C374.002 137.793 375.22 137.942 376.383 138.241C377.556 138.539 378.595 139.001 379.5 139.628C380.415 140.254 381.136 141.059 381.663 142.044C382.19 143.018 382.453 144.187 382.453 145.549V161.001H376.428V157.824H376.249C375.881 158.54 375.389 159.171 374.772 159.718C374.156 160.255 373.415 160.677 372.55 160.986C371.685 161.284 370.686 161.433 369.552 161.433ZM371.372 157.048C372.306 157.048 373.132 156.864 373.847 156.496C374.563 156.118 375.125 155.611 375.533 154.975C375.941 154.339 376.144 153.618 376.144 152.812V150.381C375.945 150.51 375.672 150.63 375.324 150.739C374.986 150.839 374.603 150.933 374.176 151.023C373.748 151.102 373.32 151.177 372.893 151.246C372.465 151.306 372.078 151.361 371.73 151.41C370.984 151.52 370.333 151.694 369.776 151.932C369.219 152.171 368.786 152.494 368.478 152.902C368.17 153.3 368.016 153.797 368.016 154.393C368.016 155.258 368.329 155.92 368.955 156.377C369.592 156.824 370.397 157.048 371.372 157.048Z" fill="white"/>
<path d="M387.383 161.001V138.091H393.542V142.089H393.781C394.199 140.667 394.9 139.593 395.884 138.867C396.868 138.131 398.002 137.763 399.285 137.763C399.603 137.763 399.946 137.783 400.314 137.823C400.682 137.863 401.005 137.917 401.283 137.987V143.625C400.985 143.535 400.572 143.456 400.045 143.386C399.518 143.317 399.036 143.282 398.599 143.282C397.664 143.282 396.829 143.486 396.093 143.893C395.367 144.291 394.79 144.848 394.363 145.564C393.945 146.28 393.736 147.105 393.736 148.04V161.001H387.383Z" fill="white"/>
<path d="M417.902 138.091V142.864H404.106V138.091H417.902ZM407.238 132.603H413.592V153.961C413.592 154.547 413.681 155.005 413.86 155.333C414.039 155.651 414.288 155.875 414.606 156.004C414.934 156.133 415.312 156.198 415.739 156.198C416.038 156.198 416.336 156.173 416.634 156.123C416.933 156.064 417.161 156.019 417.32 155.989L418.32 160.717C418.001 160.817 417.554 160.931 416.977 161.06C416.401 161.199 415.7 161.284 414.874 161.314C413.343 161.373 412.001 161.17 410.847 160.702C409.704 160.235 408.814 159.509 408.178 158.525C407.541 157.54 407.228 156.297 407.238 154.796V132.603Z" fill="white"/>
<path d="M428.395 147.756V161.001H422.041V138.091H428.096V142.133H428.365C428.872 140.801 429.722 139.747 430.915 138.971C432.108 138.186 433.555 137.793 435.255 137.793C436.846 137.793 438.233 138.141 439.417 138.837C440.6 139.533 441.52 140.528 442.176 141.82C442.832 143.103 443.16 144.634 443.16 146.414V161.001H436.806V147.547C436.816 146.145 436.458 145.052 435.733 144.266C435.007 143.471 434.007 143.073 432.735 143.073C431.88 143.073 431.124 143.257 430.468 143.625C429.821 143.993 429.314 144.53 428.946 145.236C428.588 145.932 428.404 146.772 428.395 147.756Z" fill="white"/>
<path d="M458.608 161.448C456.252 161.448 454.223 160.971 452.523 160.016C450.833 159.052 449.53 157.689 448.615 155.93C447.7 154.16 447.243 152.067 447.243 149.65C447.243 147.294 447.7 145.226 448.615 143.446C449.53 141.666 450.818 140.279 452.478 139.285C454.149 138.29 456.107 137.793 458.355 137.793C459.866 137.793 461.273 138.037 462.575 138.524C463.888 139.001 465.031 139.722 466.006 140.687C466.99 141.651 467.756 142.864 468.303 144.326C468.85 145.778 469.123 147.478 469.123 149.427V151.172H449.779V147.234H463.142C463.142 146.319 462.943 145.509 462.546 144.803C462.148 144.097 461.596 143.545 460.89 143.148C460.194 142.74 459.384 142.536 458.459 142.536C457.494 142.536 456.639 142.76 455.894 143.207C455.158 143.645 454.581 144.236 454.164 144.982C453.746 145.718 453.532 146.538 453.522 147.443V151.187C453.522 152.32 453.731 153.3 454.149 154.125C454.576 154.95 455.178 155.586 455.953 156.034C456.729 156.481 457.649 156.705 458.713 156.705C459.418 156.705 460.065 156.606 460.651 156.407C461.238 156.208 461.74 155.91 462.158 155.512C462.575 155.114 462.894 154.627 463.112 154.05L468.989 154.438C468.691 155.85 468.079 157.083 467.154 158.137C466.24 159.181 465.056 159.996 463.605 160.583C462.163 161.16 460.497 161.448 458.608 161.448Z" fill="white"/>
<path d="M473.269 161.001V138.091H479.429V142.089H479.668C480.085 140.667 480.786 139.593 481.771 138.867C482.755 138.131 483.889 137.763 485.171 137.763C485.49 137.763 485.833 137.783 486.2 137.823C486.568 137.863 486.892 137.917 487.17 137.987V143.625C486.872 143.535 486.459 143.456 485.932 143.386C485.405 143.317 484.923 143.282 484.485 143.282C483.551 143.282 482.715 143.486 481.98 143.893C481.254 144.291 480.677 144.848 480.249 145.564C479.832 146.28 479.623 147.105 479.623 148.04V161.001H473.269Z" fill="white"/>
</svg>
