<svg width="729" height="200" viewBox="0 0 729 200" fill="none" xmlns="http://www.w3.org/2000/svg">
<path d="M57.7166 199.483C57.4413 199.037 58.2868 196.679 59.5954 194.242C62.5092 188.816 63.4763 185.27 64.5068 176.232C65.2546 169.674 65.2003 169.156 63.6372 167.944C62.2172 166.843 62.0539 166.091 62.5362 162.875C62.9328 160.23 63.5475 158.982 64.5876 158.71C65.6257 158.439 66.354 156.967 67.0072 153.82C68.4421 146.908 72.9398 143.313 80.1509 143.313C83.9239 143.313 84.3528 143.506 84.8346 145.426C85.6888 148.829 84.2212 152.619 81.9853 152.783C78.3433 153.052 77.4389 157.493 80.9252 157.988C82.6585 158.235 82.7949 158.558 82.3132 161.28C81.4088 166.39 81.0027 167.158 78.9314 167.678C77.8299 167.955 76.9048 168.233 76.8755 168.297C76.8462 168.361 76.1559 173.295 75.3415 179.261C73.7044 191.252 71.2943 196.997 67.2559 198.532C63.8752 199.817 58.2687 200.376 57.7166 199.483ZM163.754 198.863C156.611 196.337 153.499 188.967 158.061 185.379C159.23 184.459 160.859 183.493 161.682 183.232C162.986 182.818 163.056 182.436 162.231 180.251C161.411 178.079 161.496 177.591 162.865 176.59C164.289 175.549 164.322 175.293 163.195 173.982C161.006 171.434 160.822 169.588 162.408 166.073C165.532 159.15 171.905 155.62 178.214 157.319C180.165 157.844 183.396 158.013 185.627 157.706C192.768 156.724 194.413 158.68 192.078 165.376C191.303 167.601 190.889 167.874 188.905 167.477C186.749 167.046 186.598 167.212 186.156 170.513C185.48 175.551 183.368 177.282 177.365 177.716C169.628 178.276 171.171 181.13 179.226 181.159C185.19 181.18 188.855 184.317 188.855 189.4C188.855 194.389 186.115 196.752 177.745 198.983C172.51 200.378 167.928 200.338 163.754 198.863ZM176.999 190.921C178.353 188.729 171.757 186.787 167.936 188.254C166.383 188.85 166.215 190.739 167.663 191.324C169.689 192.141 176.424 191.851 176.999 190.921ZM175.32 169.29C176.174 164.737 174.25 163.026 172.527 166.807C171.063 170.02 171.321 172.117 173.181 172.117C174.362 172.117 174.93 171.366 175.32 169.29ZM640.263 196.326C627.038 194.593 616.066 191.351 607.755 186.722C588.227 175.846 573.942 158.143 567.925 137.362C553.73 88.3324 587.26 38.8008 638.513 33.0857C652.828 31.4895 669.46 34.5702 682.948 41.3168C717.155 58.4261 735.405 98.0522 725.867 134.508C721.951 149.475 715.344 160.901 704.088 172.172C692.158 184.118 678.835 191.419 662.923 194.732C657.102 195.943 644.245 196.848 640.263 196.326ZM656.242 191.829C685.818 188.12 710.966 167.396 720.332 139.014C734.86 94.9884 708.223 48.4343 662.683 38.2595C654.745 36.486 638.125 36.486 630.187 38.2595C615.179 41.6128 601.092 49.573 590.445 60.7175C575.785 76.0615 568.812 93.4393 568.86 114.508C568.898 131.102 572.665 143.941 581.358 157.1C598.067 182.395 626.46 195.563 656.242 191.829ZM677.716 174.061C675.647 170.394 675.328 169.276 676.198 168.725C678.308 167.387 679.252 168.034 681.874 172.617C684.013 176.355 684.298 177.369 683.375 177.954C681.229 179.313 680.332 178.696 677.716 174.061ZM608.578 177.064C607.519 176.387 607.682 175.657 609.721 171.933C612.856 166.208 613.041 166.046 615.007 167.274C616.676 168.316 616.667 168.374 614.075 173.093C611.4 177.965 610.737 178.444 608.578 177.064ZM583.034 152.308C581.931 150.247 582.1 150.057 587.819 146.925C591.543 144.886 592.273 144.723 592.95 145.782C594.346 147.967 593.853 148.645 588.872 151.383L583.979 154.073L583.034 152.308ZM703.007 149.984C697.954 147.019 697.985 147.059 699.223 145.078C700.267 143.406 700.319 143.414 704.835 145.955C707.342 147.365 709.52 148.616 709.675 148.735C710.332 149.238 708.786 152.362 707.898 152.324C707.363 152.301 705.162 151.248 703.007 149.984ZM628.969 105.192C620.041 100.131 612.727 95.7529 612.715 95.4618C612.621 93.1975 617.008 94.7853 631.163 102.139L646.988 110.36L669.138 108.758C681.321 107.876 693.193 106.959 695.522 106.72C698.951 106.367 699.854 106.541 700.273 107.634C700.558 108.376 700.69 109.083 700.566 109.204C700.201 109.563 650.215 114.514 647.594 114.451C646.14 114.415 638.834 110.784 628.969 105.192ZM587.386 83.109C583.055 80.6011 582.468 79.6909 583.812 77.5685C584.397 76.6459 585.453 76.9459 589.355 79.1432C592.006 80.6361 594.298 81.9505 594.448 82.0642C594.903 82.4088 592.926 85.7071 592.295 85.6574C591.971 85.632 589.762 84.4851 587.386 83.109ZM699.143 84.1253C697.924 81.8476 697.84 81.963 702.704 79.1802C707.787 76.272 708.606 76.1301 709.336 78.0314C709.963 79.6668 709.048 80.5879 703.875 83.529C700.107 85.6708 699.978 85.687 699.143 84.1253ZM611.034 57.1608C608.537 52.7368 608.475 52.4261 609.878 51.3999C610.694 50.8034 611.575 50.3153 611.837 50.3153C612.099 50.3153 613.557 52.5786 615.078 55.3448C617.31 59.4048 617.624 60.5129 616.708 61.0931C614.566 62.4501 613.668 61.8278 611.034 57.1608ZM676.198 61.1148C675.328 60.5638 675.647 59.4452 677.716 55.778C680.823 50.2735 680.99 50.1392 682.95 51.5728C684.404 52.6354 684.355 52.8857 681.852 57.2607C679.251 61.807 678.306 62.4512 676.198 61.1148ZM0.0754427 191.201C-0.201797 190.753 0.309304 187.996 1.21123 185.076C3.17032 178.733 8.52716 145.834 8.82328 138.327L9.03237 133.025L5.12319 132.775C2.97314 132.637 1.21401 132.18 1.21401 131.761C1.21401 131.341 2.6584 127.871 4.42379 124.05L7.63356 117.103L11.3433 116.546C15.9321 115.858 19.543 116.596 21.3487 118.592C22.6833 120.066 22.9316 120.04 29.4582 117.738C40.7609 113.752 47.3475 114.839 55.0807 121.967C66.9275 132.887 59.9744 152.839 41.7611 160.187C38.6975 161.423 33.9077 162.624 31.1171 162.856L26.0432 163.279L24.9447 170.373C24.3405 174.274 23.885 180.287 23.9325 183.735L24.0189 190.004L14.8797 190.555C9.85309 190.857 4.57922 191.31 3.15997 191.561C1.74072 191.812 0.352682 191.65 0.0754427 191.201ZM35.7794 145.702C39.7304 143.342 41.5004 140.912 41.522 137.816C41.5462 134.361 39.6508 132.614 35.8779 132.614C31.1902 132.614 30.1371 133.886 28.8939 141.049L27.787 147.428L30.343 147.424C31.7488 147.423 34.1952 146.648 35.7794 145.702ZM95.7941 186.171C92.733 183.11 92.697 180.584 95.5226 167.087C96.6964 161.48 97.7148 153.935 97.7858 150.322L97.9149 143.752L101.207 143.168C107.433 142.064 110.671 142.337 110.671 143.964C110.671 146.272 108.328 163.557 106.967 171.294C105.257 181.009 105.286 181.279 107.996 180.995C109.967 180.789 110.23 181.021 110.032 182.788C109.907 183.904 109.25 185.663 108.573 186.697C107.535 188.281 106.623 188.577 102.771 188.577C98.816 188.577 97.8754 188.253 95.7941 186.171ZM129.752 187.763C121.691 185.855 118.976 175.694 124.162 166.844C128.171 160.004 135.022 156.51 141.197 158.155C145.042 159.18 146.919 161.343 147.46 165.377C147.844 168.243 147.557 169.011 145.102 171.69C142.974 174.012 141.233 174.982 137.805 175.754C134.783 176.435 133.216 177.221 133.037 178.146C132.648 180.16 135.756 179.899 140.95 177.481C146.366 174.959 146.896 175.783 144.03 182.263C141.309 188.415 137.959 189.705 129.752 187.763ZM135.932 168.484C137.202 167.391 137.946 166.2 137.584 165.838C136.748 165 134.614 166.336 133.067 168.665C131.458 171.089 133.021 170.99 135.932 168.484ZM211.487 187.813C207.444 186.837 205.605 185.502 204.187 182.514C200.595 174.944 204.266 164.744 212.39 159.723C215.92 157.541 222.464 157.31 225.443 159.263C228.048 160.969 229.612 165.972 228.473 168.95C227.306 171.998 222.865 175.122 218.489 175.974C216.018 176.455 214.702 177.162 214.519 178.109C214.118 180.192 217.409 179.927 222.23 177.486C224.444 176.364 226.57 175.761 226.953 176.144C228.076 177.267 223.833 186.397 221.658 187.536C219.549 188.641 215.388 188.754 211.487 187.813ZM216.385 169.187C218.753 167.635 219.727 165.533 218.077 165.533C216.848 165.533 213.544 168.646 213.544 169.803C213.544 170.771 214.177 170.634 216.385 169.187ZM288.507 187.264C278.342 185.742 277.554 184.938 276.388 174.912C275.867 170.433 275.603 166.499 275.803 166.17C276.002 165.841 278.833 166.95 282.095 168.635C289.562 172.493 295.299 172.865 298.657 169.711C299.825 168.613 300.781 167.041 300.781 166.218C300.781 165.394 297.688 161.378 293.908 157.293C285.14 147.818 282.563 143.173 282.043 135.898C281.535 128.798 282.802 125.037 287.176 120.663C294.717 113.122 308.212 111.934 319.709 117.8C322.919 119.437 323.001 119.588 322.994 123.784C322.983 130.533 322.038 136.729 321.021 136.729C320.51 136.729 318.753 135.819 317.117 134.708C315.481 133.596 312.434 132.256 310.346 131.73C307.118 130.918 306.24 130.977 304.488 132.125C303.354 132.867 302.427 134.155 302.427 134.987C302.427 137.097 305.86 141.951 311.862 148.328C318.546 155.43 320.948 160.316 320.931 166.777C320.905 176.819 314.503 185.111 305.453 186.822C297.86 188.257 295.544 188.318 288.507 187.264ZM374.04 184.476C370.947 181.166 370.379 177.432 372.009 171.142C372.803 168.078 373.233 163.806 373.069 160.616L372.792 155.246L379.282 154.603C382.852 154.25 385.911 154.099 386.08 154.268C386.493 154.681 384.951 172.755 384.259 175.615C383.737 177.768 383.856 177.878 386.687 177.878C388.324 177.878 389.663 178.033 389.663 178.221C389.663 178.41 388.959 180.208 388.098 182.218C386.331 186.339 385.321 186.931 380.051 186.931C376.986 186.931 375.93 186.5 374.04 184.476ZM445.009 186.345C443.023 186.157 441.518 185.589 441.526 185.032C441.535 184.492 442.083 180.532 442.746 176.232C443.409 171.932 443.958 165.558 443.966 162.069L443.981 155.724L447.067 154.882C456.777 152.232 457.766 152.268 456.631 155.226C456.19 156.375 456.544 156.323 458.891 154.892C464.015 151.768 466.266 152.857 466.143 158.4C466.041 163.015 465.154 164.184 461.705 164.244C457.08 164.325 455.679 166.728 453.961 177.532C452.363 187.578 452.859 187.089 445.009 186.345ZM340.829 185.349C339.035 184.979 336.571 183.598 335.124 182.15C332.989 180.016 332.52 178.825 332.229 174.8C331.398 163.307 341.959 153.006 351.844 155.668C355.612 156.682 358.382 160.284 358.387 164.175C358.391 167.395 353.951 171.682 349.296 172.952C347.282 173.501 345.171 174.082 344.605 174.243C344.039 174.403 343.576 175.102 343.576 175.795C343.576 177.674 346.824 177.353 351.439 175.017C353.673 173.885 355.779 173.292 356.17 173.683C356.89 174.403 353.943 182.394 352.274 184.246C351.076 185.575 344.838 186.176 340.829 185.349ZM346.428 165.899C348.867 163.639 348.785 162.606 346.232 163.417C344.644 163.921 342.189 168.002 343.474 168.002C343.851 168.002 345.18 167.056 346.428 165.899ZM411.681 185.361C407.974 184.593 405.464 182.505 403.952 178.933C400.38 170.493 406.874 158.128 416.205 155.605C422.888 153.799 429.156 157.965 429.164 164.221C429.169 167.814 423.859 172.529 418.757 173.461C416.002 173.965 414.7 174.626 414.509 175.621C414.104 177.724 417.373 177.468 422.216 175.017C427.511 172.336 428.394 173.273 425.865 178.891C424.791 181.276 423.512 183.686 423.022 184.246C421.87 185.565 415.625 186.179 411.681 185.361ZM417.205 165.899C419.644 163.639 419.562 162.606 417.009 163.417C415.421 163.921 412.965 168.002 414.251 168.002C414.627 168.002 415.957 167.056 417.205 165.899ZM484.274 184.256C480.718 181.857 479.795 178.367 480.955 171.703C482.191 164.604 482.113 163.887 480.104 163.887C478.861 163.887 478.511 163.519 478.869 162.586C479.144 161.87 479.369 160.194 479.369 158.862C479.369 157.074 479.878 156.246 481.312 155.701C482.872 155.108 483.363 154.15 483.801 150.844C484.402 146.316 484.112 146.493 492.871 145.289L496.908 144.733L496.407 148.961C495.924 153.036 495.979 153.189 497.925 153.189C500.235 153.189 500.335 153.828 498.83 158.949C498.174 161.18 497.064 162.963 496.037 163.433C494.798 164 494.075 165.525 493.388 169.015C492.123 175.446 492.705 177.055 496.296 177.055C499.482 177.055 499.711 177.774 498.167 182.926L497.214 186.108H492.117C488.193 186.108 486.388 185.682 484.274 184.256ZM379.788 149.298C377.403 148.09 376.864 147.327 376.658 144.862C376.449 142.363 376.836 141.527 379.071 139.646C381.163 137.886 382.275 137.51 384.258 137.893C387.905 138.596 389.927 141.368 389.357 144.883C388.533 149.958 384.638 151.755 379.788 149.298ZM52.5675 71.2176C47.5429 68.549 40.7173 63.5886 40.7173 62.6057C40.7173 62.2002 41.7358 61.6232 42.9806 61.3235C47.2186 60.3032 52.89 56.9627 55.2421 54.1014C56.5326 52.5315 60.9217 45.3933 64.9954 38.2387C69.916 29.597 73.9217 23.6626 76.9287 20.5596L81.4552 15.8889L75.6166 16.0251C67.9138 16.2048 65.8882 15.0742 63.7698 9.41226C62.8597 6.97962 62.115 3.8667 62.115 2.49464V0L68.9046 0.673787C75.8343 1.36148 96.4738 1.51143 107.117 0.951402C113.904 0.594284 115.094 1.21646 117.326 6.2855C119.685 11.6458 120.546 21.2501 120.56 42.3507C120.569 56.5192 120.906 63.6642 121.729 67.1649C122.365 69.8689 122.708 72.3687 122.491 72.72C121.941 73.6095 95.0344 73.5265 95.0344 72.6353C95.0344 72.2374 95.9459 69.9209 97.06 67.4875C99.6184 61.899 101.49 51.6007 100.292 49.7019C99.5743 48.5636 98.0866 48.3867 90.859 48.5805C86.1395 48.707 81.7845 49.22 81.1811 49.7204C80.5777 50.2208 78.915 53.0592 77.4863 56.0279C75.8058 59.5198 72.8417 63.5322 69.0911 67.3922C63.7678 72.8707 63.0197 73.3589 59.9464 73.3589C57.9228 73.3589 55.0049 72.5121 52.5675 71.2176ZM100.524 33.0438C101.965 33.027 102.682 28.5033 102.048 23.4318C101.105 15.8825 98.2116 16.7314 92.976 26.0936C91.3923 28.9255 90.0965 31.6229 90.0965 32.0879C90.0965 32.9882 95.1699 33.796 97.9149 33.3328C98.8202 33.18 99.9944 33.05 100.524 33.0438ZM171.826 72.528C170.834 72.1284 169.393 70.8413 168.624 69.6677C167.267 67.5964 167.25 65.0043 168.515 53.1957C168.762 50.8931 166.708 51.127 164.902 53.6072C163.832 55.0749 163.217 58.0239 162.755 63.8945L162.108 72.1244L156.553 72.3677C153.497 72.5016 150.998 72.4092 150.998 72.1624C150.998 71.9156 151.551 68.473 152.228 64.5122C153.532 56.8821 153.061 52.5552 150.879 52.1349C148.972 51.7675 147.617 55.7145 146.631 64.5118L145.731 72.5359H140.134C134.575 72.5359 134.538 72.5208 134.548 70.2727C134.554 69.0279 135.295 65.6618 136.194 62.7925C137.094 59.9231 137.83 55.949 137.83 53.9611C137.83 50.8144 137.569 50.2813 135.819 49.842C134.713 49.5644 133.417 49.5792 132.939 49.8749C131.425 50.8104 131.997 48.1964 133.935 45.3199C136.425 41.626 139.942 40.6255 143.876 42.4924C146.62 43.7942 147.13 43.8018 150.677 42.5933C154.749 41.2058 157.908 41.5184 160.235 43.539C161.442 44.5868 162.045 44.6097 164.261 43.6918C165.694 43.0981 168.698 42.5863 170.936 42.5546C174.393 42.5056 175.298 42.8376 176.955 44.7634C179.564 47.795 180.263 52.1468 179.069 57.9273C177.942 63.3842 178.247 64.3061 181.177 64.3061C183.152 64.3061 183.245 64.4898 182.732 67.3923C181.82 72.5592 177.248 74.7121 171.826 72.528ZM241.937 72.5808C237.178 70.6329 235.698 65.1564 237.438 55.9352C238.332 51.197 238.333 50.0623 237.447 49.5147C236.17 48.7254 236.992 42.8636 238.515 41.8941C239.04 41.5605 240.985 41.2819 242.839 41.275C248.455 41.254 249.344 42.9782 249.344 53.8902C249.344 61.9857 249.513 63.0797 250.797 63.3278C253.299 63.8112 255.478 57.5845 255.499 49.8892L255.517 43.2908L260.993 41.8546C264.005 41.0646 266.633 40.5825 266.834 40.7832C267.034 40.9839 266.402 45.6352 265.429 51.1195C264.456 56.6039 263.895 61.8296 264.181 62.7324C264.485 63.6906 265.702 64.5737 267.105 64.8542C268.426 65.1185 269.508 65.5419 269.508 65.7951C269.508 66.0482 268.734 67.8536 267.788 69.8071C266.124 73.2446 265.945 73.3589 262.21 73.3589C260.088 73.3589 257.564 72.8073 256.602 72.133C255.052 71.0473 254.455 71.0473 251.377 72.133C247.574 73.475 244.481 73.6217 241.937 72.5808ZM286.79 72.4037C285.206 71.95 283.077 70.8037 282.058 69.8564C279.617 67.5859 279.665 64.3373 282.347 50.3152C283.516 44.2046 284.531 36.6125 284.602 33.444L284.733 27.6831L289.896 26.9483C292.736 26.5442 295.316 26.4705 295.63 26.7845C295.944 27.0985 295.181 34.4657 293.935 43.156C292.688 51.8463 291.681 59.9297 291.698 61.119C291.731 63.4902 293.627 65.5788 294.984 64.7398C296.405 63.8618 295.89 66.1567 293.883 69.6554C291.792 73.2989 290.995 73.6078 286.79 72.4037ZM328.485 71.671C326.4 70.031 326.227 70.0229 322.388 71.3862C315.375 73.8771 309.343 71.4075 307.512 65.2952C306.231 61.0207 306.288 58.8769 307.816 53.7293C310.455 44.8455 319.806 38.6105 326.036 41.5814C328.044 42.5389 329.295 42.6651 330.865 42.0681C332.031 41.625 334.072 41.2624 335.4 41.2624C338.354 41.2624 338.362 41.4028 336.064 52.943C335.1 57.7831 334.533 62.3199 334.803 63.0246C335.074 63.7318 336.258 64.306 337.443 64.306C339.438 64.306 339.55 64.4975 339.01 66.9807C337.758 72.7394 337.255 73.3589 333.832 73.3589C331.85 73.3589 329.813 72.7158 328.485 71.671ZM322.76 59.7726C324.766 56.2304 325.238 51.6001 323.69 50.6434C322.358 49.8204 319.151 53.7695 317.982 57.6718C316.067 64.0612 319.481 65.5621 322.76 59.7726ZM375.216 72.4797C369.595 70.8461 367.821 66.4249 369.861 59.1368C371.301 53.9961 370.815 51.5497 368.355 51.5497C364.75 51.5497 363.28 54.8363 363.044 63.4193L362.833 71.0948L357.148 71.3463C354.021 71.4846 351.208 71.4403 350.896 71.2478C350.585 71.0554 351.018 68.688 351.859 65.9869C355.065 55.6845 354.513 49.4163 350.345 48.8178C347.867 48.4618 348.043 46.8787 350.902 43.8184C353.631 40.8971 357.6 40.389 360.705 42.5637C362.425 43.7689 362.897 43.7261 367.098 41.9849C371.335 40.2288 371.862 40.1837 375.094 41.3009C377.931 42.2817 378.904 43.2035 380.501 46.4235C382.425 50.3038 382.432 50.413 381.102 55.7072C379.77 61.0122 380.195 64.138 382.286 64.4089C382.992 64.5005 383.991 64.7198 385.097 65.0261C385.777 65.2147 382.444 71.9112 381.313 72.6279C379.968 73.4802 378.539 73.4455 375.216 72.4797ZM402.843 71.9173C398.671 69.8249 397.735 67.4673 398.186 60.1911C398.396 56.7963 398.827 53.3706 399.142 52.5785C399.579 51.4811 399.303 51.1382 397.981 51.1382C396.168 51.1382 395.844 50.166 396.2 45.7888C396.441 42.818 397.588 41.2624 399.539 41.2624C400.756 41.2624 400.92 40.7002 400.58 37.6817L400.176 34.1011L403.355 33.5759C405.104 33.287 407.869 33.0466 409.5 33.0416L412.465 33.0325L412.07 37.1475C411.705 40.9476 411.812 41.2624 413.468 41.2624C415.115 41.2624 415.242 41.6164 415.013 45.5831C414.795 49.3792 414.534 49.9364 412.869 50.1725C410.646 50.4877 409.415 53.1725 409.415 57.7084C409.415 62.5656 410.009 63.4876 412.782 62.9332C415.519 62.3857 415.777 63.3437 414.312 68.617C412.964 73.4716 408.502 74.7557 402.843 71.9173ZM200.399 71.6194C199.28 71.1727 196.965 71.0435 195.255 71.3324C192.77 71.7523 192.147 71.6018 192.147 70.5814C192.147 69.8795 193.434 60.8661 195.006 50.5516C196.579 40.2371 197.66 31.0126 197.407 30.0527C197.055 28.7122 197.394 28.1988 198.868 27.8398C202.903 26.8575 211.075 26.2673 211.054 26.9596C211.043 27.3575 210.351 30.6967 209.518 34.38L208.003 41.0768L212.426 41.4436C217.167 41.8367 220.054 43.7644 222.264 48.0112C223.657 50.6881 223.775 58.0594 222.487 61.92C221.339 65.362 217.468 69.5797 213.907 71.2696C210.937 72.6787 203.534 72.8704 200.399 71.6194ZM209.924 62.2367C211.545 59.7631 212.29 53.6707 211.174 52.0141C210.486 50.9922 210.187 50.9907 208.968 52.0025C206.889 53.7284 204.327 60.2466 204.873 62.4228C205.509 64.9567 208.207 64.8573 209.924 62.2367ZM434.928 71.6012C424.965 68.882 424.447 54.6116 433.999 45.9827C440.029 40.5342 447.788 40.3448 451.652 45.5516C456.257 51.7582 451.365 58.311 440.424 60.591C439.117 60.8635 438.246 61.5109 438.43 62.0732C439.005 63.8251 442.626 63.6123 446.615 61.5921C448.743 60.5145 450.841 59.8532 451.277 60.1227C452.481 60.8669 447.864 71.0613 445.99 71.7946C443.81 72.648 438.418 72.5538 434.928 71.6012ZM441.717 52.12C443.31 50.752 443.606 49.4923 442.335 49.4923C441.243 49.4923 438.22 52.5508 438.22 53.6558C438.22 54.6037 439.459 54.0595 441.717 52.12Z" fill="white"/>
</svg>
