<svg width="492" height="200" viewBox="0 0 492 200" fill="none" xmlns="http://www.w3.org/2000/svg">
<path d="M80.3504 189.181C79.8961 181.573 78.7716 152.207 78.3195 144.195C78.2588 143.143 78.3038 141.923 77.6359 141.11C73.8755 136.538 60.4285 115.917 55.7594 116.767C51.0904 117.616 50.7981 141.081 49.6196 146.206C49.5004 146.728 49.082 147.15 48.6952 147.52C42.4743 153.473 18.5648 176.41 12.2922 181.923C11.8379 182.322 10.7427 181.113 11.0553 180.594C14.8741 174.242 31.8859 156.009 35.2099 143.809C38.4238 132.019 31.5912 113.737 31.0042 107.394C30.948 106.803 31.3641 106.249 31.679 105.746C33.2151 103.281 38.4081 94.9262 40.2231 92.606C40.7291 91.9574 41.7434 91.827 42.5665 91.8245C43.4032 91.822 44.3815 92.2461 45.2429 92.5912C48.9718 94.0856 61.2673 99.0942 64.9377 100.79C65.8621 101.217 66.6245 101.976 67.2655 102.766C72.1032 108.715 89.3713 130.553 93.9639 136.483C94.3844 137.024 94.9827 137.679 94.8275 138.346C92.8326 147.011 84.2795 179.892 81.981 188.475C81.837 189.011 81.3108 189.73 81.0386 189.847C80.7665 189.965 80.3684 189.5 80.3504 189.181ZM172.71 158.936C168.247 158.291 150.903 154.886 146.097 153.72C145.172 153.496 144.545 152.61 143.868 151.941C139.255 147.37 122.806 131.101 118.415 126.298C117.675 125.486 116.535 123.571 117.538 123.12C119.419 122.273 126.296 118.924 129.701 121.216C134.321 124.326 141.722 137.437 145.255 141.781C146.911 143.818 149.796 146.291 150.896 147.281C151.155 147.514 151.528 147.573 151.843 147.721C155.507 149.439 169.388 155.72 172.867 157.589C173.265 157.803 173.157 159.001 172.71 158.936ZM96.5255 120.2C94.3575 119.465 89.8121 116.524 88.0152 114.607C86.5713 113.066 85.3208 110.764 85.7392 108.694C86.162 106.606 88.4425 102.856 90.5476 102.078C92.6527 101.3 96.1747 102.478 98.372 104.027C100.608 105.606 103.529 109.053 103.97 111.552C104.411 114.051 102.261 117.578 101.021 119.019C100.009 120.193 97.9919 120.698 96.5255 120.2ZM130.765 105.045C125.28 103.928 107.033 99.493 101.215 98.1371C99.429 97.7207 97.135 97.2616 95.8531 96.9091C95.0502 96.6886 94.245 96.4275 93.5208 96.0213C89.1014 93.5476 74.2375 85.293 69.3369 82.0661C67.2408 80.6875 65.2414 78.8954 64.1056 76.66C62.8866 74.2618 62.1309 69.6648 62.0297 67.6769C61.9735 66.5829 62.4975 65.1965 63.4916 64.7333C65.1829 63.944 69.9756 62.8949 72.1842 62.9408C73.8507 62.9754 75.4453 63.9557 76.7385 65.0087C81.9383 69.2464 98.5699 84.2801 103.383 88.367C104.022 88.909 104.854 89.1716 105.609 89.5302C110.638 91.9131 128.844 100.26 133.56 102.664C133.956 102.866 133.812 103.589 133.909 103.952C133.986 104.248 134.422 104.741 134.132 104.841C133.608 105.023 131.867 105.27 130.765 105.045ZM142.204 88.8771C140.843 88.509 135.751 84.5665 135.81 83.971C135.911 82.9222 149.585 54.8921 159.836 43.1337C166.401 35.6048 187.04 24.3724 191.993 21.6947C193.446 20.9085 195.009 21.2548 195.029 21.3571C195.117 21.8069 193.866 23.8701 193.441 24.5732C193.268 24.8632 175.242 36.2248 169.372 44.9437C162.166 55.6525 150.491 88.4236 150.197 88.8269C149.812 89.3553 143.564 89.2449 142.204 88.8771ZM121.123 79.3846C120.039 78.9626 119.625 77.166 119.187 76.4826C118.937 76.0936 110.654 59.7061 111.279 50.757C112.051 39.726 123.368 10.8628 123.809 10.2967C124.252 9.73055 126.984 10.084 127.112 10.4525C127.27 10.9122 122.41 44.0273 122.394 46.2605C122.378 48.3878 122.655 51.1061 122.988 52.6147C123.206 53.6044 131.779 72.5527 131.761 73.5799C131.746 74.4171 127.099 79.0319 126.242 79.2299C125.032 79.5105 122.297 79.8426 121.123 79.3846ZM96.2467 62.2978C94.877 63.0368 85.1949 60.8333 84.3807 60.332C80.6811 58.0547 75.6522 44.8987 81.1106 42.963C84.3852 41.802 96.467 40.9529 97.4364 45.01C98.8195 50.8071 100.45 60.0273 96.2467 62.2978Z" fill="white"/>
<path d="M218.723 47.0544V12.8105H230.439C232.803 12.8105 234.958 13.0732 236.849 13.5984C238.74 14.0711 240.264 14.9639 241.367 16.1719C242.471 17.3799 243.049 19.1131 243.049 21.319C243.049 22.8421 242.628 24.3127 241.84 25.7833C241.052 27.2014 240.001 28.1993 238.583 28.7245V28.9346C240.317 29.4073 241.788 30.3001 242.944 31.6132C244.152 32.9262 244.73 34.7119 244.73 36.9703C244.73 39.3338 244.152 41.2245 242.944 42.6951C241.735 44.1657 240.159 45.2687 238.163 46.004C236.166 46.6868 233.907 47.0544 231.437 47.0544H218.723ZM226.446 26.5186H230.071C231.963 26.5186 233.329 26.1509 234.169 25.4156C235.063 24.6804 235.483 23.6824 235.483 22.4745C235.483 21.1614 235.063 20.216 234.169 19.6383C233.276 19.0606 231.963 18.798 230.124 18.798H226.446V26.5186ZM226.446 41.067H230.807C235.063 41.067 237.164 39.5439 237.164 36.4451C237.164 34.922 236.639 33.8716 235.588 33.2413C234.537 32.5585 232.961 32.2434 230.807 32.2434H226.446V41.067Z" fill="white"/>
<path d="M258.548 29.7224L257.707 32.8737H265.01L264.222 29.7224C263.749 27.9892 263.277 26.2035 262.804 24.2602C262.331 22.3169 261.91 20.4786 261.438 18.6929H261.227C260.807 20.5312 260.387 22.3694 259.914 24.3127C259.494 26.2035 259.021 27.9892 258.548 29.7224ZM246.148 47.0544L256.867 12.8105H266.166L276.884 47.0544H268.688L266.587 38.9136H256.131L254.029 47.0544H246.148Z" fill="white"/>
<path d="M280.613 47.0544V12.8105H290.281C293.801 12.8105 296.796 13.3883 299.37 14.5963C301.945 15.8043 303.889 17.6425 305.307 20.1635C306.726 22.632 307.461 25.8358 307.461 29.7749C307.461 33.714 306.778 36.9178 305.36 39.4913C303.941 42.0649 301.997 43.9557 299.475 45.2162C297.006 46.4241 294.064 47.0544 290.701 47.0544H280.613ZM288.337 40.8044H289.808C291.752 40.8044 293.486 40.4367 294.904 39.754C296.375 39.0712 297.531 37.9157 298.319 36.2875C299.107 34.6594 299.528 32.506 299.528 29.7749C299.528 27.0438 299.107 24.8904 298.319 23.3673C297.531 21.7917 296.375 20.6887 294.904 20.0585C293.486 19.3757 291.752 19.0606 289.808 19.0606H288.337V40.8044Z" fill="white"/>
<path d="M321.7 12.8105H313.977V47.0544H321.7V12.8105Z" fill="white"/>
<path d="M340.248 47.686C337.989 47.686 335.782 47.2658 333.523 46.4255C331.316 45.5852 329.32 44.3772 327.586 42.749L331.999 37.4444C333.208 38.4948 334.574 39.3351 336.097 40.0179C337.621 40.7007 339.04 41.0158 340.458 41.0158C342.087 41.0158 343.243 40.7007 344.031 40.1229C344.819 39.5452 345.239 38.7049 345.239 37.707C345.239 36.604 344.767 35.8162 343.873 35.3435C342.98 34.8183 341.824 34.2406 340.301 33.6103L335.835 31.7195C334.679 31.2469 333.576 30.5641 332.525 29.7763C331.474 28.9359 330.633 27.8855 329.95 26.6775C329.267 25.4695 328.952 23.9989 328.952 22.3708C328.952 20.48 329.477 18.7468 330.476 17.2237C331.526 15.7006 332.945 14.4401 334.784 13.5472C336.623 12.6543 338.777 12.1816 341.141 12.1816C343.085 12.1816 345.082 12.5493 347.026 13.3371C348.97 14.1249 350.704 15.2279 352.175 16.6985L348.234 21.5829C347.131 20.6901 345.975 20.0598 344.872 19.5871C343.768 19.1144 342.507 18.8518 341.141 18.8518C339.828 18.8518 338.724 19.1144 337.936 19.6922C337.148 20.2174 336.78 20.9527 336.78 21.9506C336.78 23.001 337.253 23.7888 338.252 24.314C339.25 24.8393 340.511 25.417 341.982 25.9947L346.395 27.7804C348.444 28.6208 350.126 29.7763 351.334 31.2469C352.542 32.7174 353.173 34.6607 353.173 37.0767C353.173 38.9675 352.648 40.7007 351.649 42.3288C350.651 43.957 349.18 45.2175 347.236 46.2154C345.292 47.2133 342.98 47.686 340.248 47.686Z" fill="white"/>
<path d="M373.295 47.686C370.405 47.686 367.778 47.0032 365.361 45.6902C362.944 44.3772 361 42.3814 359.529 39.8078C358.111 37.1818 357.375 33.978 357.375 30.1439C357.375 26.3624 358.111 23.1586 359.582 20.48C361.105 17.8014 363.049 15.7531 365.519 14.335C367.988 12.9169 370.668 12.1816 373.557 12.1816C375.764 12.1816 377.761 12.6543 379.494 13.5472C381.228 14.4401 382.699 15.438 383.855 16.6459L379.757 21.5829C378.864 20.7951 377.971 20.1123 376.972 19.6397C376.027 19.1144 374.923 18.8518 373.715 18.8518C372.191 18.8518 370.773 19.272 369.459 20.1649C368.198 21.0577 367.2 22.3182 366.412 23.9464C365.676 25.5746 365.309 27.5704 365.309 29.8813C365.309 33.4002 366.044 36.1313 367.568 38.0746C369.091 40.0179 371.088 41.0158 373.61 41.0158C375.028 41.0158 376.237 40.7007 377.34 40.0704C378.444 39.4402 379.442 38.7049 380.282 37.812L384.381 42.644C381.491 46.0053 377.813 47.686 373.295 47.686Z" fill="white"/>
<path d="M389.582 47.0544V12.8105H397.305V25.9934H409.127V12.8105H416.903V47.0544H409.127V32.7686H397.305V47.0544H389.582Z" fill="white"/>
<path d="M424.996 47.0544V12.8105H446.432V19.3232H432.719V26.2035H444.383V32.6636H432.719V40.5418H446.958V47.0544H424.996Z" fill="white"/>
<path d="M453.785 47.0544V12.8105H466.132C468.549 12.8105 470.756 13.1257 472.752 13.8085C474.749 14.4387 476.325 15.5417 477.533 17.0648C478.742 18.5879 479.32 20.7413 479.32 23.4724C479.32 25.9934 478.742 28.0942 477.638 29.7224C476.535 31.3505 475.064 32.5585 473.225 33.3464L481.001 47.0544H472.332L465.764 34.7119H461.509V47.0544H453.785ZM461.509 28.5669H465.502C467.551 28.5669 469.074 28.1468 470.125 27.3064C471.228 26.4136 471.754 25.153 471.754 23.4724C471.754 21.7917 471.228 20.6362 470.125 19.9534C469.074 19.2707 467.551 18.9555 465.502 18.9555H461.509V28.5669Z" fill="white"/>
<path d="M226.549 119.849C223.975 119.849 221.768 119.324 219.982 118.326C218.195 117.275 216.724 115.7 215.516 113.651L220.77 109.765C221.4 110.92 222.136 111.76 222.976 112.338C223.817 112.916 224.658 113.179 225.551 113.179C226.969 113.179 228.02 112.758 228.703 111.918C229.439 111.025 229.807 109.45 229.807 107.191V84.9746H237.53V107.821C237.53 110.027 237.162 112.023 236.374 113.861C235.586 115.7 234.378 117.118 232.749 118.221C231.12 119.324 229.071 119.849 226.549 119.849Z" fill="white"/>
<path d="M258.963 119.849C254.497 119.849 251.134 118.536 248.77 115.91C246.406 113.284 245.25 109.082 245.25 103.357V84.9746H253.026V104.145C253.026 107.506 253.551 109.87 254.55 111.183C255.548 112.496 257.019 113.179 258.963 113.179C260.907 113.179 262.378 112.496 263.429 111.183C264.48 109.87 265.005 107.506 265.005 104.145V84.9746H272.466V103.357C272.466 109.082 271.31 113.284 268.998 115.91C266.739 118.536 263.376 119.849 258.963 119.849Z" fill="white"/>
<path d="M280.402 119.218V84.9746H290.07C293.59 84.9746 296.585 85.5523 299.159 86.7603C301.734 87.9683 303.678 89.8066 305.096 92.3276C306.515 94.7961 307.25 97.9999 307.25 101.939C307.25 105.878 306.567 109.082 305.149 111.655C303.73 114.229 301.786 116.12 299.264 117.38C296.795 118.588 293.853 119.218 290.49 119.218H280.402ZM288.126 112.968H289.597C291.541 112.968 293.275 112.601 294.693 111.918C296.164 111.235 297.32 110.08 298.108 108.452C298.896 106.823 299.317 104.67 299.317 101.939C299.317 99.2079 298.896 97.0545 298.108 95.5314C297.32 93.9557 296.164 92.8528 294.693 92.2225C293.275 91.5398 291.541 91.2246 289.597 91.2246H288.126V112.968Z" fill="white"/>
<path d="M327.689 119.85C324.589 119.85 321.909 119.115 319.545 117.697C317.233 116.279 315.394 114.23 314.081 111.552C312.767 108.873 312.137 105.669 312.137 101.94C312.137 98.2113 312.767 95.0075 314.081 92.434C315.394 89.8079 317.233 87.8121 319.545 86.4466C321.909 85.0285 324.589 84.3457 327.689 84.3457C330.788 84.3457 333.468 85.0285 335.78 86.4466C338.144 87.8121 339.93 89.8079 341.244 92.434C342.557 95.06 343.24 98.2113 343.24 101.94C343.24 105.669 342.557 108.873 341.244 111.552C339.93 114.23 338.144 116.279 335.78 117.697C333.468 119.115 330.788 119.85 327.689 119.85ZM327.689 113.18C330.053 113.18 331.892 112.182 333.258 110.134C334.624 108.085 335.307 105.354 335.307 101.94C335.307 98.5264 334.624 95.8479 333.258 93.9046C331.892 91.9613 330.053 91.0159 327.689 91.0159C325.324 91.0159 323.485 91.9613 322.119 93.9046C320.753 95.8479 320.07 98.5264 320.07 101.94C320.07 105.354 320.753 108.085 322.119 110.134C323.485 112.182 325.324 113.18 327.689 113.18Z" fill="white"/>
<path d="M224.659 189.252L214.309 155.008H222.505L226.603 170.974C227.128 172.813 227.601 174.651 227.969 176.436C228.389 178.222 228.862 180.06 229.388 181.951H229.598C230.071 180.06 230.543 178.222 230.964 176.436C231.384 174.651 231.857 172.813 232.33 170.974L236.375 155.008H244.256L233.959 189.252H224.659Z" fill="white"/>
<path d="M247.934 189.252V155.008H269.37V161.52H255.657V168.401H267.321V174.861H255.657V182.739H269.895V189.252H247.934Z" fill="white"/>
<path d="M276.727 189.252V155.008H289.073C291.49 155.008 293.697 155.323 295.694 156.006C297.69 156.636 299.266 157.739 300.475 159.262C301.683 160.785 302.261 162.939 302.261 165.67C302.261 168.191 301.683 170.291 300.58 171.92C299.476 173.548 298.005 174.756 296.166 175.544L303.942 189.252H295.273L288.706 176.909H284.45V189.252H276.727ZM284.45 170.764H288.443C290.492 170.764 292.016 170.344 293.067 169.504C294.17 168.611 294.695 167.35 294.695 165.67C294.695 163.989 294.17 162.833 293.067 162.151C292.016 161.468 290.492 161.153 288.443 161.153H284.45V170.764Z" fill="white"/>
<path d="M308.93 189.252V155.008H320.646C323.01 155.008 325.165 155.27 327.056 155.796C328.947 156.268 330.471 157.161 331.574 158.369C332.678 159.577 333.256 161.31 333.256 163.516C333.256 165.039 332.835 166.51 332.047 167.981C331.259 169.399 330.208 170.397 328.79 170.922V171.132C330.524 171.605 331.995 172.497 333.151 173.81C334.359 175.123 334.937 176.909 334.937 179.168C334.937 181.531 334.359 183.422 333.151 184.892C331.942 186.363 330.366 187.466 328.37 188.201C326.373 188.884 324.114 189.252 321.644 189.252H308.93ZM316.653 168.716H320.278C322.17 168.716 323.536 168.348 324.376 167.613C325.27 166.878 325.69 165.88 325.69 164.672C325.69 163.359 325.27 162.413 324.376 161.836C323.483 161.258 322.17 160.995 320.331 160.995H316.653V168.716ZM316.653 183.264H321.014C325.27 183.264 327.371 181.741 327.371 178.642C327.371 177.119 326.846 176.069 325.795 175.439C324.744 174.756 323.168 174.441 321.014 174.441H316.653V183.264Z" fill="white"/>
<path d="M348.755 171.92L347.914 175.071H355.217L354.429 171.92C353.956 170.186 353.484 168.401 353.011 166.457C352.538 164.514 352.118 162.676 351.645 160.89H351.434C351.014 162.728 350.594 164.567 350.121 166.51C349.701 168.401 349.228 170.186 348.755 171.92ZM336.355 189.252L347.074 155.008H356.373L367.091 189.252H358.895L356.794 181.111H346.338L344.236 189.252H336.355Z" fill="white"/>
<path d="M370.824 189.252V155.008H378.758L387.69 172.025L391.052 179.588H391.262C391.105 177.75 390.947 175.754 390.684 173.495C390.422 171.237 390.317 169.136 390.317 167.088V155.008H397.672V189.252H389.739L380.807 172.182L377.444 164.724H377.234C377.392 166.615 377.602 168.663 377.812 170.817C378.075 172.97 378.18 175.071 378.18 177.119V189.252H370.824Z" fill="white"/>
<path d="M405.766 189.252V155.008H415.433C418.953 155.008 421.948 155.586 424.522 156.794C427.097 158.002 429.041 159.84 430.459 162.361C431.878 164.829 432.614 168.033 432.614 171.972C432.614 175.911 431.931 179.115 430.512 181.689C429.093 184.262 427.149 186.153 424.628 187.413C422.158 188.621 419.216 189.252 415.853 189.252H405.766ZM413.489 183.002H414.96C416.904 183.002 418.638 182.634 420.057 181.951C421.528 181.268 422.684 180.113 423.472 178.485C424.26 176.857 424.68 174.703 424.68 171.972C424.68 169.241 424.26 167.088 423.472 165.565C422.684 163.989 421.528 162.886 420.057 162.256C418.638 161.573 416.904 161.258 414.96 161.258H413.489V183.002Z" fill="white"/>
<path d="M438.455 189.521C437.893 189.521 437.398 189.318 437.015 188.936C436.633 188.531 436.453 188.037 436.453 187.452C436.453 186.845 436.633 186.351 437.015 185.968C437.398 185.564 437.893 185.361 438.455 185.361C439.017 185.361 439.489 185.564 439.872 185.968C440.254 186.351 440.456 186.845 440.456 187.452C440.456 188.037 440.254 188.531 439.872 188.936C439.489 189.318 439.017 189.521 438.455 189.521Z" fill="white"/>
<path d="M447.046 189.52C445.674 189.52 444.55 189.003 443.717 187.969C442.885 186.912 442.48 185.496 442.48 183.675C442.48 182.461 442.705 181.426 443.133 180.55C443.582 179.673 444.167 178.998 444.864 178.526C445.584 178.054 446.326 177.829 447.113 177.829C447.721 177.829 448.238 177.942 448.665 178.144C449.093 178.346 449.475 178.639 449.857 178.998L449.722 177.29V173.49H453.028V189.25H450.33L450.105 188.149H450.015C449.632 188.531 449.16 188.868 448.643 189.138C448.126 189.385 447.586 189.52 447.046 189.52ZM447.901 186.822C448.26 186.822 448.575 186.755 448.868 186.597C449.16 186.44 449.452 186.193 449.722 185.811V181.247C449.43 180.977 449.138 180.797 448.8 180.685C448.485 180.572 448.171 180.527 447.878 180.527C447.361 180.527 446.889 180.774 446.484 181.292C446.079 181.786 445.877 182.573 445.877 183.63C445.877 184.731 446.056 185.541 446.394 186.058C446.754 186.575 447.248 186.822 447.901 186.822Z" fill="white"/>
<path d="M460.946 189.521C459.889 189.521 458.922 189.296 458.067 188.824C457.212 188.352 456.538 187.7 456.043 186.823C455.548 185.946 455.301 184.912 455.301 183.675C455.301 182.461 455.548 181.427 456.043 180.55C456.56 179.674 457.212 179.022 458.022 178.55C458.832 178.077 459.686 177.83 460.564 177.83C461.621 177.83 462.498 178.077 463.195 178.55C463.892 179.022 464.432 179.651 464.769 180.461C465.129 181.247 465.309 182.169 465.309 183.181C465.309 183.473 465.287 183.743 465.264 184.035C465.242 184.305 465.197 184.507 465.174 184.642H458.494C458.652 185.452 458.989 186.059 459.506 186.441C460.024 186.823 460.653 187.003 461.396 187.003C462.183 187.003 462.992 186.756 463.802 186.261L464.904 188.262C464.342 188.644 463.69 188.959 462.992 189.184C462.295 189.408 461.598 189.521 460.946 189.521ZM458.472 182.461H462.498C462.498 181.854 462.34 181.337 462.048 180.955C461.756 180.55 461.283 180.348 460.631 180.348C460.114 180.348 459.664 180.528 459.259 180.888C458.854 181.225 458.584 181.764 458.472 182.461Z" fill="white"/>
<path fill-rule="evenodd" clip-rule="evenodd" d="M468.865 59.2129L458.688 65.7303H214.906L223.96 59.2129H468.865Z" fill="white"/>
<path fill-rule="evenodd" clip-rule="evenodd" d="M468.865 132.275L458.688 138.793H214.906L223.96 132.275H468.865Z" fill="white"/>
</svg>
