<svg width="524" height="179" viewBox="0 0 524 179" fill="none" xmlns="http://www.w3.org/2000/svg">
<path d="M41.6396 89.3446C41.3861 89.083 42.6144 87.8109 42.9763 87.3889C43.2052 87.1244 43.5523 87.059 43.8083 86.8331C44.628 86.1049 47.0503 83.7955 47.8897 83.0316C48.1974 82.7522 48.5273 82.5144 48.8473 82.2559C49.3347 81.8606 50.2677 81.1294 50.8166 80.6628C51.2696 80.2764 51.848 79.7235 52.1434 79.456C52.2911 79.3252 52.429 79.1796 52.5865 79.0667C52.9607 78.8051 53.7928 78.2761 54.3885 77.8778C54.9817 77.4855 55.5676 77.0723 56.1608 76.683C56.7664 76.2847 57.4015 75.8894 58.0194 75.4941C58.6348 75.1017 59.425 74.6054 59.8656 74.3111C60.1364 74.1328 60.3924 73.9218 60.6632 73.7375C61.062 73.47 61.7217 73.0241 62.2632 72.6972C62.8122 72.3673 63.403 72.076 63.9593 71.7521C64.5107 71.4281 65.0547 71.0833 65.6012 70.7445C66.1477 70.4086 66.6868 70.0519 67.2407 69.7309C67.8635 69.3743 68.6438 68.9879 69.338 68.5926C70.0912 68.1676 71.0783 67.5345 71.7602 67.1659C72.3091 66.8717 72.8753 66.6279 73.4391 66.3842C74.0323 66.1316 74.6945 65.9116 75.3099 65.6382C75.977 65.341 76.7327 64.9487 77.4441 64.6009C78.2048 64.2294 79.0589 63.7865 79.8787 63.412C80.7279 63.0256 81.7151 62.6036 82.5422 62.2766C83.3028 61.9735 84.1866 61.6792 84.8389 61.4385C85.3829 61.2393 85.9269 61.055 86.466 60.841C87.4974 60.4339 89.9886 59.3906 91.0274 58.9953C91.5764 58.7843 92.1376 58.6178 92.6989 58.4603C93.5802 58.2136 95.1162 57.851 96.3175 57.5172C98.8308 56.8179 105.101 54.9932 107.776 54.2641C109.3 53.8489 110.977 53.4682 112.372 53.1439C113.628 52.852 114.886 52.5845 116.146 52.3185C117.569 52.018 119.314 51.6331 120.904 51.3407C122.684 51.014 124.84 50.6565 126.812 50.3583C129.028 50.0234 131.731 49.6088 134.197 49.3312C137.454 48.9653 142.289 48.4377 146.343 48.1625C151.32 47.8242 158.154 47.4426 164.067 47.3026C170.029 47.1611 176.237 47.1671 182.118 47.3148C187.866 47.4593 194.534 47.8825 199.349 48.1892C203.236 48.4368 207.581 48.7991 211 49.1549C213.962 49.4628 217.181 49.9601 219.862 50.323C222.272 50.6493 225.088 51.0289 227.085 51.3329C228.675 51.5752 230.258 51.8638 231.843 52.1482C233.532 52.4514 235.422 52.8143 237.212 53.1513C239.119 53.5104 241.259 53.9313 243.285 54.3034C245.37 54.6868 247.671 55.0907 249.732 55.4512C251.698 55.7957 253.724 56.1334 255.64 56.466C257.501 56.789 259.359 57.1234 261.218 57.4462C263.133 57.7797 265.156 58.1334 267.126 58.4603C269.341 58.8259 272.162 59.2896 274.51 59.6522C276.748 59.9999 279.121 60.3417 281.226 60.6419C283.193 60.9213 285.162 61.1888 287.134 61.4474C289.403 61.7446 292.279 62.1072 294.851 62.4282C297.45 62.7522 300.102 63.1029 302.728 63.3942C305.985 63.7568 310.751 64.2294 314.389 64.6039C317.781 64.9516 321.166 65.3974 324.565 65.6352C330.838 66.0692 342.863 67.2254 352.025 67.2194C365.049 67.2135 393.075 66.0216 402.71 65.5847C405.098 65.4747 407.466 64.9724 409.832 64.5979C412.192 64.2264 414.996 63.7122 416.899 63.3496C418.351 63.0732 419.831 62.7254 421.241 62.4223C422.612 62.128 424.193 61.8219 425.355 61.5336C426.315 61.2958 427.262 60.9867 428.213 60.6924C429.318 60.3506 430.874 59.884 431.986 59.4827C432.968 59.1291 434.138 58.6238 434.896 58.279C435.45 58.0264 436.309 57.7886 436.525 57.4141C436.742 57.0405 436.444 56.3916 436.193 56.0377C435.944 55.6837 435.386 55.5472 435.024 55.2904C434.682 55.0467 434.367 54.7483 434.024 54.498C433.665 54.2338 433.261 53.9535 432.87 53.7054C432.429 53.4263 431.868 53.1418 431.381 52.8238C429.906 51.8593 425.517 48.9017 424.015 47.9176C423.476 47.5648 422.923 47.2458 422.374 46.9192C421.062 46.1396 417.532 44.0667 416.138 43.2387C415.424 42.8154 414.725 42.3539 414.004 41.9514C412.869 41.318 410.405 40.0159 409.324 39.4387C408.724 39.1183 408.121 38.8101 407.52 38.4888C406.843 38.1259 405.93 37.5945 405.26 37.261C404.684 36.9739 404.081 36.7646 403.5 36.4876C402.88 36.191 402.188 35.8198 401.531 35.4818C400.738 35.0731 399.581 34.432 398.744 34.0346C398.013 33.6869 397.161 33.3855 396.516 33.0981C395.963 32.8514 395.421 32.567 394.872 32.3087C394.188 31.9871 393.179 31.5201 392.413 31.1682C391.702 30.8419 390.995 30.4977 390.274 30.1981C389.476 29.8655 388.496 29.5068 387.618 29.1724C386.744 28.8404 385.865 28.5247 384.996 28.1907C384.13 27.8575 383.27 27.5026 382.404 27.167C381.454 26.7982 380.312 26.3452 379.288 25.977C378.283 25.6161 377.271 25.2791 376.26 24.9578C375.209 24.6246 374.069 24.3107 372.976 23.9767C371.824 23.6239 370.519 23.1962 369.338 22.8416C368.19 22.4974 367.041 22.1749 365.891 21.8491C364.702 21.5124 363.422 21.1569 362.206 20.8211C361.003 20.4891 359.727 20.1294 358.595 19.8349C357.539 19.5593 356.48 19.2838 355.417 19.0526C354.039 18.7527 352.027 18.3714 350.329 18.0367C348.47 17.6699 346.282 17.217 344.258 16.8511C342.237 16.4858 340.216 16.1113 338.186 15.8414C335.724 15.5142 332.388 15.1798 329.489 14.8879C326.205 14.5574 322.165 14.0646 318.492 13.8595C314.236 13.6218 308.205 13.425 303.949 13.4613C300.281 13.4928 296.247 13.8432 292.955 14.0783C290.031 14.2869 287.112 14.5821 284.194 14.8722C281.174 15.1721 277.029 15.6131 274.84 15.878C273.577 16.0304 272.322 16.2439 271.064 16.4602C268.849 16.8422 263.817 17.7436 261.547 18.1693C260.176 18.4264 258.731 18.7375 257.444 19.0142C256.235 19.2746 255.027 19.5534 253.818 19.8307C252.375 20.1624 250.293 20.6377 248.784 21.0041C247.44 21.3305 246.01 21.6916 244.764 22.0305C243.607 22.3446 242.457 22.6858 241.31 23.0368C240.148 23.3917 238.824 23.8396 237.795 24.1609C236.906 24.4377 236.013 24.6837 235.124 24.9634C234.184 25.2607 233.133 25.6007 232.143 25.9443C231.107 26.3036 229.935 26.7533 228.909 27.1204C227.931 27.469 226.883 27.807 225.977 28.1473C225.135 28.4638 224.273 28.827 223.468 29.1638C222.695 29.488 221.903 29.845 221.154 30.1672C220.426 30.4793 219.697 30.7842 218.969 31.0957C218.144 31.4488 217.159 32.0314 216.202 32.2864C215.219 32.5485 213.43 32.9953 213.073 32.6683C212.718 32.3411 213.649 30.8523 214.067 30.3235C214.456 29.8376 215.091 29.7864 215.596 29.4961C216.125 29.1917 216.689 28.8276 217.238 28.4977C217.839 28.1357 218.54 27.6928 219.207 27.3234C220.684 26.5033 224.672 24.3752 226.1 23.5769C226.666 23.2589 227.198 22.8517 227.764 22.5322C228.47 22.1345 229.47 21.6146 230.336 21.1905C231.41 20.6629 232.99 19.9371 234.218 19.3665C235.375 18.8279 236.643 18.2572 237.694 17.7659C238.635 17.3245 239.732 16.769 240.51 16.418C241.118 16.1437 241.739 15.9136 242.354 15.661C242.989 15.3991 243.669 15.1156 244.328 14.8475C245.15 14.5125 246.31 14.0453 247.295 13.6512C248.274 13.2591 249.36 12.8089 250.234 12.4834C250.999 12.1993 251.772 11.9543 252.54 11.6981C253.633 11.3343 255.516 10.6944 256.787 10.3012C257.912 9.95374 259.086 9.66604 260.174 9.33731C261.223 9.02017 262.261 8.654 263.308 8.32854C264.386 7.99328 265.53 7.63125 266.65 7.32511C267.862 6.99401 269.262 6.65013 270.572 6.34162C271.965 6.01408 273.526 5.67375 275.003 5.35988C276.699 4.99965 278.887 4.53717 280.748 4.1811C282.55 3.83603 284.354 3.5085 286.164 3.22257C288.214 2.8989 290.755 2.51934 293.056 2.23757C295.818 1.89933 299.73 1.50968 302.738 1.19314C305.527 0.899782 308.311 0.519343 311.108 0.339226C314.17 0.141871 317.862 -0.0427032 321.119 0.00871613C324.297 0.0586493 327.465 0.416507 330.636 0.647151C333.816 0.878389 337.258 1.14825 340.192 1.39614C342.877 1.62321 345.568 1.81789 348.249 2.13533C351.333 2.50032 356.301 3.21306 358.698 3.58637C360.02 3.79205 361.323 4.12702 362.637 4.37639C364.188 4.67004 366.283 5.02789 367.998 5.34889C369.645 5.65681 371.366 5.97485 372.936 6.30209C374.436 6.61447 375.925 6.98034 377.422 7.31263C378.933 7.64879 380.533 7.98643 382.008 8.31753C383.43 8.63704 384.935 8.97262 386.274 9.29927C387.536 9.60719 388.792 9.94571 390.05 10.2789C391.433 10.6457 393.307 11.1382 394.579 11.5005C395.623 11.7974 396.659 12.1348 397.698 12.4534C398.752 12.7762 399.832 13.1135 400.901 13.4378C402.09 13.7992 403.594 14.2204 404.839 14.6207C406.023 15.0012 407.274 15.4633 408.372 15.8396C409.393 16.1892 410.518 16.5791 411.436 16.8796C412.246 17.1453 413.105 17.4066 413.878 17.6426C414.607 17.8649 415.346 18.042 416.067 18.2944C417.893 18.9331 422.854 20.7268 424.835 21.4758C425.886 21.8729 426.997 22.4032 427.954 22.7881C428.823 23.1382 429.813 23.4842 430.578 23.7858C431.24 24.0459 431.9 24.3143 432.555 24.5984C433.239 24.8954 433.975 25.2499 434.687 25.568C435.447 25.9065 436.304 26.2798 437.111 26.6305C437.97 27.0018 438.933 27.4161 439.829 27.7954C440.713 28.1699 441.705 28.5776 442.485 28.9055C443.164 29.1899 443.846 29.4687 444.521 29.7612C445.245 30.0736 446.202 30.4882 446.82 30.7798C447.293 31.0039 447.748 31.2788 448.221 31.5112C448.868 31.8316 449.882 32.3054 450.714 32.7016C451.544 33.0981 452.465 33.5344 453.21 33.8905C453.87 34.2052 454.525 34.5283 455.185 34.838C455.96 35.2012 457.058 35.6919 457.858 36.0697C458.574 36.4062 459.365 36.805 459.995 37.1037C460.539 37.3623 461.098 37.5784 461.634 37.8608C462.252 38.185 463.005 38.6627 463.697 39.0497C464.401 39.4447 465.248 39.9045 465.868 40.2314C466.38 40.5013 466.897 40.7569 467.417 41.0107C468.034 41.3136 468.901 41.7101 469.578 42.0492C470.213 42.3681 470.868 42.7126 471.473 43.0452C472.057 43.3665 472.63 43.7146 473.211 44.0457C473.851 44.4115 474.71 44.8871 475.323 45.2423C475.85 45.5466 476.365 45.8863 476.896 46.1758C477.686 46.6056 479.038 47.2274 480.072 47.8213C481.098 48.4121 482.083 49.1109 483.095 49.7395C485.158 51.022 490.625 54.383 492.459 55.5157C493.008 55.854 493.702 56.1649 494.101 56.5361C494.428 56.8434 495.08 57.3279 494.847 57.744C494.544 58.285 493.212 59.2598 492.284 59.7711C491.356 60.2853 490.285 60.4963 489.278 60.8202C488.175 61.1739 486.822 61.5425 485.667 61.8873C484.564 62.2172 483.373 62.556 482.356 62.883C481.421 63.1861 480.505 63.5636 479.567 63.8549C478.541 64.1759 477.325 64.4939 476.202 64.8C475.011 65.124 473.494 65.5015 472.426 65.7957C471.55 66.0395 470.678 66.3129 469.802 66.5655C468.325 66.9965 465.051 67.9387 463.572 68.3727C462.688 68.6342 461.811 68.9165 460.928 69.1722C459.938 69.4605 458.737 69.7934 457.639 70.0935C456.354 70.4443 454.665 70.908 453.225 71.2765C451.82 71.6362 450.229 71.9958 449.001 72.3019C447.95 72.5635 446.904 72.8577 445.853 73.1133C444.765 73.3779 443.6 73.6394 442.47 73.8861C440.981 74.2101 438.771 74.6767 436.919 75.0631C435.004 75.4614 432.868 75.9102 430.975 76.2787C429.17 76.6295 427.366 76.9713 425.559 77.2685C423.55 77.5984 421.138 77.9372 418.927 78.2582C416.645 78.5882 414.221 78.9864 411.857 79.242C408.266 79.6344 400.778 80.3001 397.381 80.6122C395.411 80.7906 393.447 81.0908 391.473 81.1116C383.029 81.2007 356.709 81.2899 346.72 81.1472C341.649 81.0729 336.14 80.5617 331.529 80.2437C327.369 79.9613 322.707 79.5838 319.056 79.2539C315.91 78.9656 312.774 78.5763 309.631 78.2553C306.091 77.8956 301.315 77.4498 297.815 77.0872C294.75 76.7721 291.306 76.3768 288.625 76.0796C286.326 75.827 284.03 75.5803 281.733 75.3038C278.74 74.9442 273.713 74.3111 270.665 73.9218C268.255 73.6126 265.85 73.2887 263.443 72.9617C261.021 72.6288 258.443 72.2425 256.132 71.9363C253.946 71.648 251.753 71.4132 249.567 71.1249C247.297 70.8218 244.86 70.4888 242.509 70.1322C240.104 69.7666 237.591 69.297 235.124 68.9374C232.64 68.5748 230.036 68.2835 227.599 67.9565C225.233 67.6415 222.87 67.2759 220.505 66.9757C217.895 66.6458 214.801 66.2802 211.948 65.98C208.504 65.6174 203.889 64.8565 199.842 64.809C185.215 64.6396 138.202 64.7703 124.188 64.9665C121.365 65.0051 118.238 65.6382 115.757 65.9711C113.598 66.2624 111.262 66.6339 109.293 66.9638C107.503 67.267 105.723 67.6326 103.939 67.9655C102.154 68.2954 100.052 68.655 98.5871 68.9522C97.4326 69.1841 96.2855 69.4664 95.1408 69.7458C93.6023 70.1203 90.9905 70.8069 89.356 71.1992C88.0193 71.5202 86.6728 71.7818 85.3337 72.0939C83.9773 72.4089 82.3329 72.7775 81.2252 73.0896C80.3661 73.3333 79.5341 73.6929 78.6824 73.9663C77.5574 74.3349 75.7357 74.8729 74.4631 75.289C73.3209 75.6635 71.9547 76.1272 71.0513 76.466C70.3719 76.7216 69.7146 77.0634 69.0377 77.3279C68.2598 77.6311 67.2628 77.961 66.3766 78.282C65.3969 78.6387 63.9864 79.1291 63.1494 79.456C62.5488 79.6938 61.9654 80 61.3672 80.2556C60.769 80.5171 60.1512 80.743 59.5505 81.0105C58.7456 81.3672 57.4261 81.9735 56.5424 82.4074C55.767 82.7909 54.8069 83.3259 54.2432 83.626C53.8838 83.8163 53.5195 84.0035 53.165 84.2086C51.9686 84.8982 48.2393 87.1125 47.0626 87.7753C46.7525 87.9506 46.4152 88.0339 46.0976 88.1825C45.6693 88.3816 45.0662 88.8304 44.505 88.976C43.7616 89.1692 41.8957 89.6091 41.6396 89.3446Z" fill="white"/>
<path d="M5.375 144.455V112.303H13.2906C15.1173 112.303 16.7004 112.548 18.04 113.087C19.4202 113.626 20.4756 114.459 21.2469 115.587C22.0181 116.714 22.4241 118.233 22.4241 120.145C22.4241 121.762 22.0993 123.184 21.4092 124.507C20.7597 125.781 19.7855 126.663 18.5271 127.154V127.35C20.1103 127.693 21.4092 128.526 22.4241 129.8C23.4389 131.075 23.9666 132.839 23.9666 135.045C23.9666 137.152 23.5201 138.868 22.6676 140.289C21.8152 141.71 20.638 142.74 19.136 143.426C17.6341 144.112 15.848 144.455 13.8589 144.455H5.375ZM8.74422 125.977H12.6817C14.9549 125.977 16.5787 125.487 17.5935 124.556C18.6083 123.625 19.0954 122.301 19.0954 120.684C19.0954 118.821 18.5677 117.498 17.5123 116.714C16.4975 115.93 14.9144 115.538 12.8441 115.538H8.74422V125.977ZM8.74422 141.22H13.3718C15.6856 141.22 17.4717 140.73 18.7301 139.701C19.9885 138.672 20.638 137.054 20.638 134.898C20.638 132.888 19.9885 131.467 18.7301 130.535C17.4717 129.604 15.6856 129.114 13.3718 129.114H8.74422V141.22Z" fill="white"/>
<path d="M33.8295 126.467L32.5712 131.369H40.568L39.3096 126.467C38.8225 124.654 38.376 122.889 37.9294 121.125C37.4829 119.312 37.077 117.498 36.6305 115.636H36.4681C36.0622 117.498 35.6562 119.312 35.2097 121.125C34.7632 122.889 34.3167 124.654 33.8295 126.467ZM25.7109 144.455L34.7226 112.303H38.5383L47.55 144.455H43.9372L41.4204 134.652H31.7187L29.1613 144.455H25.7109Z" fill="white"/>
<path d="M60.1737 145.043C58.347 145.043 56.7233 144.602 55.2619 143.72C53.8412 142.838 52.7046 141.367 51.8521 139.358C50.9997 137.348 50.5938 134.603 50.5938 131.173V112.303H53.963V131.271C53.963 133.868 54.2471 135.878 54.7748 137.397C55.3431 138.868 56.0738 139.897 57.0074 140.534C57.9411 141.171 58.9965 141.465 60.1737 141.465C61.3509 141.465 62.4469 141.171 63.3805 140.534C64.3142 139.897 65.0855 138.868 65.6132 137.397C66.1815 135.878 66.4656 133.868 66.4656 131.271V112.303H69.7131V131.173C69.7131 134.603 69.3071 137.348 68.4547 139.358C67.6022 141.367 66.4656 142.838 65.0449 143.72C63.6241 144.602 62.0004 145.043 60.1737 145.043Z" fill="white"/>
<path d="M83.8833 145.043C82.016 145.043 80.2705 144.602 78.6874 143.769C77.1042 142.887 75.7241 141.711 74.5469 140.289L76.5765 137.446C77.5102 138.672 78.6468 139.652 79.9052 140.387C81.2041 141.122 82.5437 141.465 83.9239 141.465C85.6694 141.465 87.0495 140.975 88.0238 140.044C88.998 139.064 89.4851 137.79 89.4851 136.221C89.4851 135.094 89.2821 134.212 88.8762 133.574C88.5109 132.937 87.9832 132.349 87.2931 131.908C86.6436 131.467 85.9129 130.977 85.0605 130.536L81.2447 128.526C80.3923 128.085 79.5804 127.546 78.728 126.86C77.9161 126.174 77.226 125.291 76.6577 124.213C76.13 123.135 75.8459 121.811 75.8459 120.243C75.8459 118.626 76.2112 117.155 76.9013 115.881C77.6319 114.558 78.6468 113.577 79.9052 112.842C81.1635 112.107 82.6249 111.715 84.208 111.715C85.7911 111.715 87.2931 112.107 88.6326 112.842C89.9722 113.577 91.1494 114.509 92.0831 115.685L90.2564 118.332C89.4445 117.4 88.5515 116.665 87.5366 116.126C86.5624 115.587 85.4664 115.293 84.208 115.293C82.7061 115.293 81.5289 115.734 80.5952 116.567C79.7022 117.4 79.2557 118.577 79.2557 119.998C79.2557 121.027 79.4586 121.86 79.9052 122.547C80.3517 123.184 80.92 123.723 81.6101 124.164C82.3001 124.605 82.9902 124.997 83.6803 125.34L87.4555 127.301C88.4703 127.84 89.4039 128.477 90.2158 129.212C91.0682 129.948 91.7177 130.83 92.2048 131.908C92.6919 132.937 92.9355 134.261 92.9355 135.878C92.9355 137.593 92.5702 139.113 91.8395 140.534C91.1088 141.907 90.0534 142.985 88.7138 143.818C87.3743 144.651 85.7505 145.043 83.8833 145.043Z" fill="white"/>
<path d="M108.239 145.043C106.006 145.043 104.017 144.406 102.271 143.083C100.526 141.76 99.1457 139.848 98.1308 137.348C97.116 134.849 96.6289 131.859 96.6289 128.379C96.6289 124.899 97.1566 121.958 98.1714 119.459C99.1863 116.959 100.607 115.048 102.393 113.724C104.179 112.401 106.209 111.715 108.441 111.715C110.065 111.715 111.486 112.107 112.744 112.94C114.003 113.724 114.977 114.656 115.748 115.685L113.922 118.332C113.231 117.4 112.42 116.665 111.527 116.126C110.633 115.587 109.619 115.293 108.482 115.293C106.818 115.293 105.316 115.832 104.057 116.91C102.799 117.939 101.825 119.459 101.135 121.37C100.445 123.282 100.12 125.585 100.12 128.281C100.12 130.977 100.445 133.28 101.135 135.29C101.825 137.25 102.758 138.77 103.976 139.848C105.235 140.926 106.696 141.465 108.36 141.465C109.619 141.465 110.755 141.122 111.77 140.485C112.785 139.848 113.678 138.966 114.53 137.839L116.398 140.387C115.342 141.858 114.165 142.985 112.826 143.818C111.486 144.651 109.984 145.043 108.239 145.043Z" fill="white"/>
<path d="M121.348 144.455V112.303H124.717V125.781H137.098V112.303H140.508V144.455H137.098V129.31H124.717V144.455H121.348Z" fill="white"/>
<path d="M152.404 126.467L151.145 131.369H159.142L157.884 126.467C157.397 124.654 156.95 122.889 156.504 121.125C156.057 119.312 155.651 117.498 155.205 115.636H155.042C154.636 117.498 154.23 119.312 153.784 121.125C153.337 122.889 152.891 124.654 152.404 126.467ZM144.285 144.455L153.297 112.303H157.113L166.124 144.455H162.511L159.995 134.652H150.293L147.736 144.455H144.285Z" fill="white"/>
<path d="M173.186 144.455V115.734H165.148V112.303H184.633V115.734H176.596V144.455H173.186Z" fill="white"/>
<path d="M185.406 144.455V142.004L199.411 115.734H186.665V112.303H203.633V114.704L189.587 140.975H203.754V144.455H185.406Z" fill="white"/>
<path d="M221.248 119.263C221.248 120.145 221.37 121.076 221.573 122.007C221.816 122.939 222.141 123.919 222.506 124.899C223.724 123.919 224.78 122.89 225.673 121.86C226.606 120.782 227.053 119.557 227.053 118.135C227.053 117.204 226.85 116.371 226.444 115.685C226.079 114.95 225.429 114.607 224.536 114.607C223.521 114.607 222.75 115.048 222.141 115.93C221.532 116.812 221.248 117.939 221.248 119.263ZM222.994 145.043C221.41 145.043 219.99 144.651 218.731 143.916C217.514 143.132 216.58 142.054 215.89 140.73C215.2 139.407 214.875 137.839 214.875 136.123C214.875 134.702 215.119 133.427 215.606 132.3C216.133 131.173 216.783 130.193 217.554 129.31C218.325 128.428 219.178 127.595 220.111 126.86C219.584 125.536 219.137 124.213 218.813 122.988C218.528 121.713 218.366 120.488 218.366 119.312C218.366 117.89 218.61 116.567 219.137 115.44C219.665 114.313 220.355 113.381 221.289 112.744C222.222 112.058 223.318 111.715 224.536 111.715C226.2 111.715 227.459 112.303 228.392 113.479C229.326 114.656 229.773 116.175 229.773 118.086C229.773 119.508 229.488 120.733 228.88 121.86C228.271 122.988 227.54 123.968 226.606 124.899C225.713 125.83 224.78 126.713 223.765 127.595C224.617 129.212 225.673 130.83 226.85 132.398C228.027 133.918 229.245 135.339 230.503 136.613C231.315 135.29 232.046 133.82 232.655 132.251C233.304 130.634 233.832 128.918 234.238 127.105H237.364C236.836 129.212 236.186 131.222 235.415 133.182C234.644 135.094 233.751 136.907 232.695 138.623C233.629 139.358 234.481 139.995 235.334 140.534C236.186 141.073 236.958 141.465 237.688 141.711L236.795 145.043C235.862 144.7 234.887 144.259 233.832 143.671C232.817 143.034 231.762 142.299 230.666 141.367C229.651 142.495 228.514 143.377 227.256 144.063C225.997 144.7 224.577 145.043 222.994 145.043ZM218.122 135.878C218.122 137.692 218.61 139.113 219.624 140.191C220.639 141.269 221.898 141.809 223.359 141.809C224.293 141.809 225.145 141.564 225.997 141.122C226.85 140.681 227.662 140.044 228.433 139.211C227.134 137.839 225.876 136.319 224.658 134.702C223.481 133.084 222.385 131.369 221.451 129.653C220.517 130.585 219.746 131.516 219.097 132.545C218.447 133.525 218.122 134.653 218.122 135.878Z" fill="white"/>
<path d="M260.543 145.043C258.229 145.043 256.159 144.406 254.332 143.083C252.505 141.76 251.085 139.848 250.07 137.348C249.055 134.849 248.527 131.859 248.527 128.379C248.527 124.899 249.055 121.958 250.11 119.459C251.166 116.959 252.627 115.048 254.454 113.724C256.281 112.401 258.391 111.715 260.746 111.715C262.573 111.715 264.115 112.156 265.373 112.989C266.632 113.822 267.647 114.705 268.418 115.685L266.551 118.332C265.861 117.498 265.089 116.763 264.196 116.175C263.303 115.587 262.167 115.293 260.827 115.293C259.041 115.293 257.498 115.832 256.159 116.91C254.819 117.939 253.804 119.459 253.074 121.37C252.384 123.282 252.018 125.585 252.018 128.281C252.018 132.349 252.79 135.535 254.292 137.937C255.834 140.289 258.026 141.465 260.868 141.465C261.801 141.465 262.735 141.318 263.587 140.975C264.44 140.632 265.13 140.142 265.658 139.554V131.173H260.015V127.791H268.743V141.318C267.89 142.397 266.754 143.279 265.333 144.014C263.912 144.7 262.329 145.043 260.543 145.043Z" fill="white"/>
<path d="M275.113 144.455V112.303H290.457V115.734H278.483V125.83H288.59V129.31H278.483V140.975H290.863V144.455H275.113Z" fill="white"/>
<path d="M296.508 144.455V112.303H304.829C306.656 112.303 308.239 112.597 309.66 113.185C311.081 113.724 312.177 114.704 312.948 116.028C313.76 117.351 314.166 119.115 314.166 121.321C314.166 123.821 313.638 125.83 312.542 127.35C311.446 128.869 309.985 129.898 308.158 130.437L314.937 144.455H311.121L304.708 130.879H299.877V144.455H296.508ZM299.877 127.546H304.342C306.413 127.546 308.036 127.056 309.132 126.026C310.228 124.997 310.797 123.429 310.797 121.321C310.797 119.214 310.228 117.694 309.132 116.861C308.036 116.028 306.413 115.587 304.342 115.587H299.877V127.546Z" fill="white"/>
<path d="M326.426 145.043C324.559 145.043 322.813 144.602 321.23 143.769C319.647 142.887 318.267 141.711 317.09 140.289L319.119 137.446C320.053 138.672 321.19 139.652 322.448 140.387C323.747 141.122 325.087 141.465 326.467 141.465C328.212 141.465 329.592 140.975 330.567 140.044C331.541 139.064 332.028 137.79 332.028 136.221C332.028 135.094 331.825 134.212 331.419 133.574C331.054 132.937 330.526 132.349 329.836 131.908C329.187 131.467 328.456 130.977 327.603 130.536L323.788 128.526C322.935 128.085 322.123 127.546 321.271 126.86C320.459 126.174 319.769 125.291 319.201 124.213C318.673 123.135 318.389 121.811 318.389 120.243C318.389 118.626 318.754 117.155 319.444 115.881C320.175 114.558 321.19 113.577 322.448 112.842C323.707 112.107 325.168 111.715 326.751 111.715C328.334 111.715 329.836 112.107 331.176 112.842C332.515 113.577 333.692 114.509 334.626 115.685L332.799 118.332C331.987 117.4 331.094 116.665 330.08 116.126C329.105 115.587 328.009 115.293 326.751 115.293C325.249 115.293 324.072 115.734 323.138 116.567C322.245 117.4 321.799 118.577 321.799 119.998C321.799 121.027 322.002 121.86 322.448 122.547C322.895 123.184 323.463 123.723 324.153 124.164C324.843 124.605 325.533 124.997 326.223 125.34L329.998 127.301C331.013 127.84 331.947 128.477 332.759 129.212C333.611 129.948 334.261 130.83 334.748 131.908C335.235 132.937 335.478 134.261 335.478 135.878C335.478 137.593 335.113 139.113 334.382 140.534C333.652 141.907 332.596 142.985 331.257 143.818C329.917 144.651 328.294 145.043 326.426 145.043Z" fill="white"/>
<path d="M345.42 144.455V115.734H337.383V112.303H356.867V115.734H348.83V144.455H345.42Z" fill="white"/>
<path d="M361.66 144.455V112.303H377.004V115.734H365.029V125.83H375.137V129.31H365.029V140.975H377.41V144.455H361.66Z" fill="white"/>
<path d="M383.051 144.455V112.303H386.542L396.162 132.496L399.044 139.162H399.207C399.126 137.544 399.044 135.829 398.923 134.113C398.841 132.349 398.801 130.633 398.801 128.918V112.303H402.008V144.455H398.517L388.856 124.213L385.973 117.596H385.811C385.933 119.214 386.014 120.831 386.095 122.546C386.217 124.262 386.258 125.928 386.258 127.644V144.455H383.051Z" fill="white"/>
<path d="M409.316 144.455V112.303H413.376L418.49 129.457C418.815 130.584 419.14 131.712 419.424 132.839C419.749 133.966 420.074 135.045 420.398 136.172H420.561C420.885 135.045 421.17 133.966 421.454 132.839C421.738 131.712 422.063 130.584 422.387 129.457L427.421 112.303H431.521V144.455H428.355V126.761C428.355 125.34 428.395 123.723 428.517 122.007C428.639 120.243 428.72 118.674 428.801 117.253H428.639L426.528 124.556L421.494 141.22H419.262L414.228 124.556L412.117 117.253H411.955C412.036 118.674 412.117 120.243 412.199 122.007C412.32 123.723 412.361 125.34 412.361 126.761V144.455H409.316Z" fill="white"/>
<path d="M443.415 126.467L442.157 131.369H450.154L448.896 126.467C448.408 124.654 447.962 122.889 447.515 121.125C447.069 119.312 446.663 117.498 446.216 115.636H446.054C445.648 117.498 445.242 119.312 444.796 121.125C444.349 122.889 443.903 124.654 443.415 126.467ZM435.297 144.455L444.309 112.303H448.124L457.136 144.455H453.523L451.006 134.652H441.305L438.747 144.455H435.297Z" fill="white"/>
<path d="M464.279 112.303H460.91V144.455H464.279V112.303Z" fill="white"/>
<path d="M471.586 144.455V112.303H486.93V115.734H474.955V125.83H485.063V129.31H474.955V140.975H487.336V144.455H471.586Z" fill="white"/>
<path d="M492.977 144.455V112.303H501.298C503.125 112.303 504.708 112.597 506.129 113.185C507.549 113.724 508.645 114.704 509.417 116.028C510.229 117.351 510.635 119.115 510.635 121.321C510.635 123.821 510.107 125.83 509.011 127.35C507.915 128.869 506.453 129.898 504.627 130.437L511.406 144.455H507.59L501.176 130.879H496.346V144.455H492.977ZM496.346 127.546H500.811C502.881 127.546 504.505 127.056 505.601 126.026C506.697 124.997 507.265 123.429 507.265 121.321C507.265 119.214 506.697 117.694 505.601 116.861C504.505 116.028 502.881 115.587 500.811 115.587H496.346V127.546Z" fill="white"/>
<path d="M201.474 178.178C200.011 178.178 198.703 177.775 197.548 176.938C196.393 176.102 195.495 174.894 194.854 173.314C194.212 171.734 193.879 169.844 193.879 167.644C193.879 165.445 194.212 163.586 194.88 162.006C195.547 160.426 196.47 159.218 197.625 158.381C198.78 157.545 200.114 157.111 201.602 157.111C202.757 157.111 203.732 157.39 204.527 157.917C205.322 158.443 205.964 159.001 206.451 159.621L205.271 161.294C204.835 160.767 204.347 160.302 203.783 159.93C203.218 159.559 202.5 159.373 201.653 159.373C200.524 159.373 199.549 159.714 198.703 160.395C197.856 161.046 197.214 162.006 196.753 163.214C196.316 164.423 196.085 165.879 196.085 167.582C196.085 170.154 196.573 172.167 197.522 173.685C198.497 175.173 199.883 175.916 201.679 175.916C202.269 175.916 202.859 175.823 203.398 175.606C203.937 175.389 204.373 175.08 204.707 174.708V169.41H201.14V167.273H206.657V175.823C206.118 176.505 205.399 177.062 204.501 177.527C203.603 177.961 202.603 178.178 201.474 178.178Z" fill="white"/>
<path d="M220.949 177.805V157.482H226.209C227.364 157.482 228.364 157.668 229.262 158.04C230.16 158.381 230.853 159 231.341 159.837C231.854 160.673 232.11 161.789 232.11 163.183C232.11 164.763 231.777 166.033 231.084 166.993C230.391 167.954 229.468 168.604 228.313 168.945L232.598 177.805H230.186L226.132 169.224H223.079V177.805H220.949ZM223.079 167.117H225.901C227.21 167.117 228.236 166.807 228.929 166.157C229.622 165.506 229.981 164.515 229.981 163.183C229.981 161.851 229.622 160.89 228.929 160.364C228.236 159.837 227.21 159.558 225.901 159.558H223.079V167.117Z" fill="white"/>
<path d="M251.79 178.177C250.635 178.177 249.609 177.898 248.685 177.34C247.787 176.783 247.069 175.853 246.53 174.583C245.991 173.313 245.734 171.578 245.734 169.41V157.482H247.864V169.472C247.864 171.114 248.044 172.384 248.377 173.344C248.736 174.273 249.198 174.924 249.788 175.327C250.378 175.729 251.046 175.915 251.79 175.915C252.534 175.915 253.226 175.729 253.817 175.327C254.407 174.924 254.894 174.273 255.228 173.344C255.587 172.384 255.767 171.114 255.767 169.472V157.482H257.819V169.41C257.819 171.578 257.563 173.313 257.024 174.583C256.485 175.853 255.767 176.783 254.869 177.34C253.971 177.898 252.944 178.177 251.79 178.177Z" fill="white"/>
<path d="M272.621 177.805V157.482H277.419C278.676 157.482 279.78 157.668 280.729 158.04C281.678 158.412 282.397 159.031 282.936 159.93C283.474 160.797 283.731 161.974 283.731 163.462C283.731 165.599 283.166 167.179 282.012 168.201C280.857 169.224 279.369 169.75 277.522 169.75H274.751V177.805H272.621ZM274.751 167.644H277.265C278.728 167.644 279.831 167.303 280.524 166.652C281.242 165.971 281.601 164.918 281.601 163.462C281.601 162.005 281.216 160.983 280.472 160.425C279.728 159.837 278.625 159.558 277.163 159.558H274.751V167.644Z" fill="white"/>
<path d="M297.41 177.805V157.482H302.208C303.465 157.482 304.569 157.668 305.518 158.04C306.467 158.412 307.186 159.031 307.725 159.93C308.263 160.797 308.52 161.974 308.52 163.462C308.52 165.599 307.956 167.179 306.801 168.201C305.646 169.224 304.158 169.75 302.311 169.75H299.54V177.805H297.41ZM299.54 167.644H302.054C303.517 167.644 304.62 167.303 305.313 166.652C306.031 165.971 306.39 164.918 306.39 163.462C306.39 162.005 306.006 160.983 305.261 160.425C304.517 159.837 303.414 159.558 301.952 159.558H299.54V167.644Z" fill="white"/>
<path d="M322.195 177.805V157.482H331.894V159.651H324.325V166.033H330.714V168.232H324.325V175.606H332.151V177.805H322.195Z" fill="white"/>
<path fill-rule="evenodd" clip-rule="evenodd" d="M179.337 166.004C181.822 166.188 181.856 169.239 179.337 169.285C149.762 169.833 31.464 169.833 1.88948 169.285C-0.629828 169.239 -0.629828 166.051 1.88948 166.004C22.1019 165.63 83.7564 165.512 130.206 165.649C151.722 165.712 171.148 165.398 179.337 166.004Z" fill="white"/>
<path fill-rule="evenodd" clip-rule="evenodd" d="M521.567 166.004C524.052 166.188 524.087 169.239 521.567 169.285C491.992 169.833 373.694 169.833 344.12 169.285C341.601 169.239 341.601 166.051 344.12 166.004C364.332 165.63 425.987 165.512 472.437 165.649C493.953 165.712 513.379 165.398 521.567 166.004Z" fill="white"/>
</svg>
