<svg width="273" height="192" viewBox="0 0 273 192" fill="none" xmlns="http://www.w3.org/2000/svg">
<path d="M151.787 116.987C150.836 116.637 150.231 115.676 149.574 114.905C148.872 114.082 148.089 112.868 147.578 112.049C147.169 111.393 146.809 110.69 146.511 109.991C146.214 109.299 145.983 108.579 145.782 107.854C145.573 107.098 145.423 106.193 145.252 105.453C145.095 104.772 144.93 104.092 144.762 103.414C144.588 102.722 144.322 102.022 144.218 101.303C143.976 99.6561 143.397 95.6147 143.316 93.5307C143.254 91.9489 143.596 89.9064 143.732 88.7999C143.811 88.1552 143.856 87.4808 144.132 86.8925C144.583 85.9285 145.589 84.0082 146.44 83.0165C147.198 82.1349 148.421 81.4311 149.244 80.9426C149.903 80.551 150.645 80.3034 151.38 80.0855C152.159 79.8549 153.082 79.778 153.918 79.5589C156.245 78.9487 163.154 77.1835 165.34 76.4252C166.035 76.184 166.507 75.5238 167.035 75.0089C167.587 74.4671 168.077 73.7465 168.66 73.1745C169.302 72.5463 170.143 71.8863 170.883 71.2391C172.101 70.1715 175.172 68.7599 175.973 66.7691C176.774 64.7784 175.799 60.957 175.688 59.295C175.631 58.4544 175.433 57.4913 175.308 56.7967C175.208 56.2357 175.317 55.5549 174.941 55.1267C174.372 54.4783 172.751 53.4877 171.89 52.9063C171.21 52.4466 170.004 52.4283 169.776 51.6387C169.519 50.7427 170.093 48.7631 170.347 47.5302C170.576 46.4125 171.123 45.0469 171.296 44.2414C171.404 43.7373 171.529 43.1921 171.385 42.697C171.188 42.0194 170.62 40.9682 170.112 40.1755C169.349 38.984 167.957 36.8251 166.803 35.5477C165.749 34.3809 164.193 33.2664 163.194 32.5116C162.445 31.9459 161.706 31.2816 160.804 31.0199C159.663 30.6886 157.835 30.6693 156.347 30.5242C154.598 30.3536 151.804 30.3982 150.311 29.9967C149.191 29.6958 148.228 28.6699 147.387 28.1152C146.672 27.6437 145.907 27.1104 145.266 26.668C144.687 26.2691 144.085 25.9024 143.538 25.4602C142.531 24.6453 140.594 22.4032 139.228 21.7785C138.049 21.24 136.553 21.2549 135.341 21.7126C133.768 22.3068 131.12 24.5858 129.787 25.3437C129.034 25.7732 128.205 26.1095 127.35 26.2603C126.466 26.4163 125.437 26.3061 124.482 26.2799C123.447 26.2514 122.217 25.8045 121.138 26.0898C120.034 26.3819 118.784 27.4022 117.85 28.0327C117.034 28.5844 116.298 29.255 115.538 29.8733C114.778 30.4891 113.972 31.206 113.281 31.7432C112.67 32.2186 111.969 32.5781 111.396 33.0975C110.682 33.7437 109.573 34.9431 109.001 35.6203C108.603 36.093 108.279 36.6592 107.966 37.1604C107.667 37.6389 107.29 38.089 107.123 38.628C106.822 39.6029 106.515 41.7234 106.158 43.0097C105.843 44.146 105.656 45.3882 104.983 46.346C104.31 47.3037 103.046 47.9208 102.119 48.7562C100.916 49.8416 98.8391 51.38 97.7592 52.8584C96.7334 54.2628 95.734 55.8895 95.6383 57.6262C95.5342 59.5372 95.995 62.4218 97.1304 64.3239C98.2659 66.2261 101.249 68.0108 102.45 69.0388C103.053 69.5556 103.718 69.9971 104.34 70.492C104.984 71.0051 105.671 71.5596 106.317 72.1171C107.016 72.7215 107.771 73.4796 108.538 74.1177C109.302 74.7562 110.138 75.4336 110.91 75.9481C111.627 76.4259 112.469 76.864 113.168 77.2045C113.797 77.5098 114.462 77.7333 115.111 77.9902C115.83 78.2743 116.777 78.5527 117.481 78.909C118.14 79.2427 118.718 79.7167 119.331 80.1276C120.006 80.5794 120.75 81.1991 121.53 81.6198C122.325 82.0491 123.505 82.4813 124.103 82.7038C124.431 82.8255 124.822 82.7722 125.121 82.9547C125.858 83.4062 127.739 84.2552 128.526 85.4126C129.368 86.651 130.116 88.6396 130.175 90.3848C130.258 92.9099 129.314 98.4965 129.031 100.563C128.927 101.319 128.694 102.053 128.474 102.784C128.188 103.74 127.621 105.387 127.317 106.3C127.099 106.954 126.906 107.64 126.65 108.259C126.403 108.863 126.104 109.445 125.79 110.017C125.441 110.655 124.993 111.409 124.559 112.082C124.049 112.873 123.232 114.072 122.731 114.762C122.363 115.269 121.909 115.882 121.552 116.227C121.28 116.49 120.948 116.706 120.59 116.832C120.077 117.012 119.188 117.416 118.472 117.311C117.303 117.139 114.799 116.233 113.58 115.8C112.749 115.504 111.955 115.072 111.165 114.713C110.392 114.36 109.579 114.008 108.848 113.644C108.15 113.295 107.47 112.911 106.79 112.527C106.095 112.135 105.363 111.704 104.68 111.292C104.012 110.888 103.345 110.484 102.694 110.054C101.973 109.578 101.103 108.987 100.36 108.44C99.6373 107.906 98.9044 107.379 98.2437 106.77C96.6196 105.278 92.1945 101.055 90.6218 99.4865C89.9625 98.8283 89.3906 98.0865 88.809 97.3584C88.2121 96.6125 87.5764 95.7417 87.0475 95.0112C86.5617 94.3421 86.0828 93.6541 85.6317 92.9755C85.1875 92.3063 84.7531 91.6294 84.3408 90.94C83.8966 90.1996 83.3969 89.3361 82.9722 88.5341C82.5543 87.7451 82.1338 86.8579 81.7951 86.1284C81.4939 85.4787 81.219 84.8106 80.94 84.1572C80.6638 83.5095 80.3848 82.8626 80.1238 82.2086C79.8476 81.5159 79.545 80.7438 79.2827 80.0012C79.0175 79.2488 78.7469 78.4205 78.5303 77.6936C78.3277 77.0146 78.1389 76.2753 77.9807 75.64C77.8363 75.057 77.6961 74.4722 77.5851 73.8819C77.4449 73.1317 77.2339 72.06 77.1339 71.1387C76.9132 69.0917 76.272 64.7931 76.2581 61.6003C76.2428 58.1305 76.8466 52.5852 77.041 50.3196C77.1076 49.5408 77.2936 48.7312 77.4241 48.0063C77.5462 47.3259 77.6725 46.6461 77.8197 45.9707C77.9724 45.2718 78.1417 44.5262 78.3388 43.8129C78.5429 43.0656 78.8052 42.224 79.0523 41.4866C79.2882 40.7803 79.5478 40.0816 79.8213 39.3883C80.103 38.6707 80.4542 37.8956 80.7457 37.1809C81.0289 36.4899 81.2815 35.783 81.5744 35.1C81.8659 34.4198 82.1657 33.7415 82.5044 33.083C82.8472 32.4151 83.2414 31.7466 83.6343 31.0922C84.1131 30.2935 84.9266 29.0279 85.3777 28.2913C85.7053 27.756 85.9995 27.2009 86.3382 26.6723C86.7671 26.0008 87.4348 24.9783 87.9526 24.2623C88.4217 23.6126 88.92 22.9822 89.4447 22.3758C90.4774 21.1824 92.9759 18.3385 94.1447 17.1024C94.8665 16.3385 95.7466 15.5911 96.4586 14.9586C97.0971 14.3916 97.7828 13.8312 98.4172 13.3082C99.0293 12.8048 99.6345 12.2916 100.272 11.8208C100.981 11.2963 101.929 10.6706 102.677 10.1611C103.368 9.69042 104.058 9.20783 104.761 8.76341C105.457 8.32149 106.175 7.89303 106.889 7.49442C107.595 7.09955 108.314 6.72578 109.043 6.37144C109.809 5.9985 110.804 5.5513 111.486 5.25678C112.029 5.0225 112.592 4.83762 113.135 4.60417C113.846 4.29855 114.964 3.7431 115.754 3.42304C116.447 3.14212 117.157 2.90589 117.871 2.68382C118.618 2.45148 119.555 2.20262 120.232 2.02941C120.796 1.8852 121.365 1.76695 121.932 1.64398C122.513 1.51809 123.119 1.38915 123.715 1.27437C124.438 1.13502 125.408 0.875889 126.271 0.80788C128.96 0.59622 137.054 0.0960062 139.844 0.0041246C140.903 -0.0308515 142.159 0.165543 143.013 0.256176C143.667 0.325711 144.314 0.445073 144.962 0.547919C145.664 0.659232 146.472 0.78734 147.226 0.924052C147.978 1.06104 148.732 1.21302 149.483 1.3693C150.266 1.53183 151.193 1.73155 151.916 1.8995C152.556 2.04773 153.196 2.19568 153.826 2.37681C154.53 2.57903 155.376 2.84191 156.14 3.11256C156.914 3.38751 157.733 3.71561 158.475 4.02665C159.187 4.32534 160.061 4.72728 160.585 4.97878C160.937 5.14783 161.258 5.37767 161.616 5.53534C162.254 5.81751 163.577 6.26693 164.417 6.67123C165.193 7.04473 165.92 7.51191 166.655 7.96146C167.425 8.43308 168.255 8.97965 169.041 9.50082C169.821 10.0198 170.648 10.5894 171.361 11.0888C172.022 11.5503 172.695 11.9958 173.327 12.4971C173.985 13.0211 174.697 13.6073 175.316 14.2322C176.96 15.8878 181.615 20.753 183.182 22.4311C183.732 23.0206 184.226 23.6611 184.716 24.3013C185.212 24.9491 185.693 25.6353 186.158 26.3185C186.655 27.049 187.258 27.9832 187.7 28.6834C188.082 29.2885 188.458 29.8978 188.811 30.5203C189.187 31.1836 189.594 31.9392 189.956 32.6637C190.354 33.4618 190.855 34.5284 191.204 35.3086C191.505 35.9797 191.788 36.6856 192.052 37.345C192.306 37.9813 192.541 38.6246 192.783 39.2653C193.044 39.9525 193.348 40.7289 193.612 41.4674C193.891 42.2479 194.222 43.1071 194.459 43.948C194.705 44.8219 194.984 45.7724 195.092 46.7109C195.411 49.4538 196.265 56.4419 196.376 60.4053C196.47 63.7722 195.936 68.3628 195.757 70.4909C195.682 71.3947 195.487 72.2854 195.307 73.1743C195.125 74.0687 194.871 75.0639 194.67 75.8577C194.494 76.5544 194.316 77.2518 194.098 77.9372C193.88 78.6274 193.607 79.3128 193.357 79.9995C193.096 80.7195 192.807 81.5367 192.532 82.2569C192.267 82.9491 191.995 83.638 191.706 84.3205C191.416 85.0064 191.121 85.6992 190.793 86.3724C190.439 87.1015 189.975 87.9555 189.578 88.6943C189.2 89.4023 188.807 90.125 188.417 90.8055C188.036 91.4699 187.653 92.1337 187.24 92.7779C186.786 93.4837 186.223 94.3124 185.697 95.0402C185.178 95.757 184.636 96.4562 184.08 97.1449C183.486 97.8802 182.8 98.6969 182.138 99.4523C181.458 100.226 180.703 101.064 180.004 101.789C179.335 102.481 178.643 103.151 177.937 103.801C177.166 104.51 176.157 105.388 175.384 106.038C174.703 106.61 174.002 107.158 173.296 107.703C172.564 108.269 171.721 108.92 170.984 109.438C170.295 109.92 169.479 110.42 168.868 110.809C168.356 111.134 167.847 111.465 167.321 111.767C166.592 112.185 165.289 112.904 164.5 113.318C163.873 113.647 163.234 113.955 162.59 114.25C161.88 114.576 161.004 114.935 160.235 115.274C159.481 115.606 158.747 115.983 157.98 116.284C157.202 116.59 156.409 117.011 155.564 117.107C154.533 117.224 152.785 117.354 151.787 116.987Z" fill="white"/>
<path d="M0 172.775V131.895H25.7721V139.669H9.21775V149.137H23.3893V156.912H9.21775V172.775H0Z" fill="white"/>
<path d="M31.6836 172.776V141.857H42.8286C45.0102 141.857 47.0021 142.142 48.8042 142.758C50.6064 143.327 52.0292 144.323 53.12 145.699C54.2108 147.074 54.7324 149.018 54.7324 151.484C54.7324 153.76 54.2108 155.657 53.2148 157.127C52.2189 158.597 50.891 159.688 49.2311 160.399L56.2501 172.776H48.4248L42.4966 161.632H38.6552V172.776H31.6836ZM38.6552 156.084H42.2595C44.1091 156.084 45.4844 155.704 46.433 154.946C47.4289 154.14 47.9032 153.001 47.9032 151.484C47.9032 149.966 47.4289 148.923 46.433 148.307C45.4844 147.69 44.1091 147.406 42.2595 147.406H38.6552V156.084Z" fill="white"/>
<path d="M67.6299 157.127L66.8711 159.972H73.4633L72.7519 157.127C72.3251 155.562 71.8982 153.95 71.4714 152.195C71.0446 150.441 70.6652 148.781 70.2384 147.169H70.0486C69.6692 148.828 69.2898 150.488 68.863 152.243C68.4836 153.95 68.0568 155.562 67.6299 157.127ZM56.4375 172.776L66.1123 141.857H74.5067L84.1815 172.776H76.7831L74.8861 165.426H65.4484L63.5513 172.776H56.4375Z" fill="white"/>
<path d="M87.5469 172.776V141.857H94.7081L102.77 157.222L105.806 164.051H105.995C105.853 162.391 105.711 160.589 105.474 158.55C105.237 156.511 105.142 154.614 105.142 152.764V141.857H111.781V172.776H104.62L96.5577 157.364L93.5225 150.63H93.3328C93.4751 152.338 93.6648 154.187 93.8545 156.131C94.0916 158.076 94.1865 159.972 94.1865 161.822V172.776H87.5469Z" fill="white"/>
<path d="M117.145 172.776V168.556L130.803 147.738H118.425V141.857H139.387V146.078L125.729 166.896H139.529V172.776H117.145Z" fill="white"/>
<path d="M176.519 173.528C172.819 173.528 169.433 172.713 166.36 171.145C163.351 169.578 160.968 167.195 159.149 164.123C157.394 160.988 156.516 157.163 156.516 152.586C156.516 148.072 157.394 144.247 159.212 141.049C161.03 137.851 163.476 135.406 166.486 133.713C169.496 132.02 172.819 131.143 176.456 131.143C179.403 131.143 181.974 131.707 184.106 132.773C186.238 133.839 187.994 135.093 189.311 136.472L184.482 142.366C183.416 141.425 182.35 140.673 181.159 140.046C179.968 139.419 178.525 139.105 176.77 139.105C173.572 139.105 171.001 140.297 168.994 142.617C166.987 144.937 165.984 148.197 165.984 152.272C165.984 156.473 166.925 159.734 168.869 162.054C170.813 164.374 173.634 165.565 177.459 165.565C178.275 165.565 179.09 165.44 179.905 165.251C180.72 165.063 181.347 164.75 181.849 164.311V157.288H175.077V149.764H190.001V168.575C188.558 169.954 186.677 171.145 184.294 172.086C181.974 173.026 179.341 173.528 176.519 173.528Z" fill="white"/>
<path d="M197.293 172.776V141.857H208.438C210.62 141.857 212.611 142.142 214.414 142.758C216.216 143.327 217.639 144.323 218.729 145.699C219.82 147.074 220.342 149.018 220.342 151.484C220.342 153.76 219.82 155.657 218.824 157.127C217.828 158.597 216.5 159.688 214.84 160.399L221.859 172.776H214.034L208.106 161.632H204.265V172.776H197.293ZM204.265 156.084H207.869C209.718 156.084 211.094 155.704 212.042 154.946C213.038 154.14 213.513 153.001 213.513 151.484C213.513 149.966 213.038 148.923 212.042 148.307C211.094 147.69 209.718 147.406 207.869 147.406H204.265V156.084Z" fill="white"/>
<path d="M233.243 157.127L232.484 159.972H239.077L238.365 157.127C237.938 155.562 237.512 153.95 237.085 152.195C236.658 150.441 236.278 148.781 235.852 147.169H235.662C235.283 148.828 234.903 150.488 234.476 152.243C234.097 153.95 233.67 155.562 233.243 157.127ZM222.051 172.776L231.726 141.857H240.12L249.795 172.776H242.396L240.499 165.426H231.062L229.165 172.776H222.051Z" fill="white"/>
<path d="M253.16 172.776V141.857H272.652V147.738H260.132V154.898H270.85V160.779H260.132V172.776H253.16Z" fill="white"/>
<path d="M5.38172 192C4.3508 192 3.4422 191.773 2.62097 191.319C1.79973 190.864 1.1707 190.2 0.698924 189.327C0.22715 188.436 0 187.37 0 186.112C0 184.872 0.244624 183.806 0.716397 182.915C1.18817 182.024 1.83468 181.342 2.65591 180.871C3.47715 180.399 4.38575 180.154 5.39919 180.154C6.22043 180.154 6.90188 180.312 7.46102 180.609C8.03763 180.906 8.49193 181.238 8.85886 181.604L7.77553 182.915C7.47849 182.635 7.16397 182.408 6.79704 182.216C6.44758 182.024 6.01075 181.919 5.46908 181.919C4.45564 181.919 3.63441 182.286 3.00537 183.037C2.39382 183.771 2.0793 184.784 2.0793 186.06C2.0793 187.37 2.37634 188.383 2.97043 189.135C3.56451 189.868 4.43817 190.235 5.57392 190.235C5.90591 190.235 6.20295 190.2 6.5 190.113C6.79704 190.026 7.02419 189.886 7.21639 189.729V187.265H5.04973V185.605H9.0336L9.0336 190.637C8.64919 191.022 8.14247 191.354 7.49596 191.616C6.86693 191.878 6.16801 192 5.38172 192Z" fill="white"/>
<path d="M13.8071 185.712L13.4052 187.109H16.3232L15.9213 185.712C15.7291 185.1 15.5544 184.489 15.3797 183.842C15.2224 183.196 15.0477 182.567 14.8904 181.938H14.8205C14.6633 182.584 14.506 183.213 14.3313 183.86C14.174 184.489 13.9993 185.1 13.8071 185.712ZM9.98047 191.792L13.7022 180.365H16.0786L19.8004 191.792H17.6686L16.7775 188.699H12.9334L12.0423 191.792H9.98047Z" fill="white"/>
<path d="M21.2148 191.792V180.365H25.0764C25.8627 180.365 26.5791 180.47 27.2081 180.68C27.8546 180.889 28.3439 181.239 28.7108 181.745C29.0777 182.235 29.2699 182.899 29.2699 183.755C29.2699 184.628 29.0603 185.327 28.6409 185.869C28.239 186.41 27.6799 186.795 26.9984 187.022L29.7242 191.792H27.4527L24.989 187.319H23.2417V191.792H21.2148ZM23.2417 185.712H24.8667C25.653 185.712 26.2471 185.554 26.649 185.222C27.0683 184.89 27.278 184.401 27.278 183.755C27.278 183.108 27.0683 182.654 26.649 182.392C26.2471 182.13 25.653 181.99 24.8667 181.99H23.2417V185.712Z" fill="white"/>
<path d="M33.5837 191.792V182.077H30.2812V180.365H38.913V182.077H35.6105V191.792H33.5837Z" fill="white"/>
<path d="M40.8203 191.792V180.365H47.7047V182.077H42.8472V184.995H46.9534V186.707H42.8472V190.079H47.8794V191.792H40.8203Z" fill="white"/>
<path d="M50.2188 191.792V180.365H52.2981L55.8626 186.795L57.0333 189.223H57.1032C57.0507 188.647 56.9983 188 56.9284 187.319C56.876 186.638 56.8411 185.974 56.8411 185.327V180.365H58.7806V191.792H56.7013L53.1368 185.362L51.9661 182.934H51.8962C51.9486 183.545 52.001 184.174 52.0534 184.838C52.1233 185.502 52.1583 186.148 52.1583 186.795V191.792H50.2188Z" fill="white"/>
<path d="M65.1234 186.654H60.9648V188.122H65.1234V186.654Z" fill="white"/>
<path d="M75.0794 192.001C74.2058 192.001 73.437 191.827 72.7904 191.477C72.1439 191.128 71.6372 190.569 71.2703 189.8C70.9208 189.031 70.7461 188.018 70.7461 186.777V180.365H72.773V186.935C72.773 187.756 72.8603 188.42 73.0525 188.909C73.2447 189.381 73.5243 189.73 73.8738 189.94C74.2232 190.132 74.6251 190.237 75.0794 190.237C75.5512 190.237 75.9531 190.132 76.3025 189.94C76.6695 189.73 76.949 189.381 77.1413 188.909C77.3509 188.42 77.4558 187.756 77.4558 186.935V180.365H79.3953V186.777C79.3953 188.018 79.2206 189.031 78.8711 189.8C78.5216 190.569 78.0149 191.128 77.3684 191.477C76.7219 191.827 75.9706 192.001 75.0794 192.001Z" fill="white"/>
<path d="M82.2461 191.792V180.365H84.3254L87.8899 186.795L89.0606 189.223H89.1305C89.0781 188.647 89.0257 188 88.9558 187.319C88.9033 186.638 88.8684 185.974 88.8684 185.327V180.365H90.8079V191.792H88.7286L85.1641 185.362L83.9934 182.934H83.9235C83.9759 183.545 84.0284 184.174 84.0808 184.838C84.1507 185.502 84.1856 186.148 84.1856 186.795V191.792H82.2461Z" fill="white"/>
<path d="M93.7109 191.792V180.365H96.7687C98.516 180.365 99.8789 180.837 100.857 181.78C101.836 182.724 102.325 184.139 102.325 186.026C102.325 187.93 101.836 189.363 100.875 190.341C99.9139 191.302 98.5685 191.792 96.8736 191.792H93.7109ZM95.7378 190.149H96.6289C97.7822 190.149 98.6733 189.817 99.3023 189.153C99.9314 188.472 100.246 187.441 100.246 186.026C100.246 184.628 99.9314 183.615 99.3023 182.968C98.6733 182.322 97.7822 182.008 96.6289 182.008H95.7378V190.149Z" fill="white"/>
<path d="M108.125 191.792V180.365H110.152V190.079H114.905V191.792H108.125Z" fill="white"/>
<path d="M119.237 185.712L118.835 187.109H121.753L121.351 185.712C121.159 185.1 120.984 184.489 120.809 183.842C120.652 183.196 120.477 182.567 120.32 181.938H120.25C120.093 182.584 119.936 183.213 119.761 183.86C119.604 184.489 119.429 185.1 119.237 185.712ZM115.41 191.792L119.132 180.365H121.508L125.23 191.792H123.098L122.207 188.699H118.363L117.472 191.792H115.41Z" fill="white"/>
<path d="M126.645 191.792V180.365H128.724L132.288 186.795L133.459 189.223H133.529C133.477 188.647 133.424 188 133.354 187.319C133.302 186.638 133.267 185.974 133.267 185.327V180.365H135.206V191.792H133.127L129.563 185.362L128.392 182.934H128.322C128.374 183.545 128.427 184.174 128.479 184.838C128.549 185.502 128.584 186.148 128.584 186.795V191.792H126.645Z" fill="white"/>
<path d="M138.109 191.792V180.365H141.167C142.914 180.365 144.277 180.837 145.256 181.78C146.234 182.724 146.724 184.139 146.724 186.026C146.724 187.93 146.234 189.363 145.273 190.341C144.312 191.302 142.967 191.792 141.272 191.792H138.109ZM140.136 190.149H141.027C142.181 190.149 143.072 189.817 143.701 189.153C144.33 188.472 144.644 187.441 144.644 186.026C144.644 184.628 144.33 183.615 143.701 182.968C143.072 182.322 142.181 182.008 141.027 182.008H140.136V190.149Z" fill="white"/>
<path d="M152.366 192C151.597 192 150.846 191.86 150.129 191.563C149.413 191.266 148.784 190.864 148.242 190.323L149.43 188.942C149.832 189.327 150.304 189.641 150.828 189.886C151.352 190.113 151.877 190.235 152.401 190.235C153.047 190.235 153.554 190.096 153.886 189.834C154.218 189.571 154.393 189.205 154.393 188.768C154.393 188.296 154.218 187.947 153.886 187.737C153.554 187.527 153.135 187.318 152.628 187.09L151.055 186.409C150.688 186.252 150.321 186.042 149.955 185.78C149.605 185.518 149.308 185.204 149.081 184.802C148.854 184.4 148.749 183.928 148.749 183.369C148.749 182.758 148.906 182.216 149.238 181.744C149.57 181.255 150.024 180.871 150.601 180.591C151.178 180.294 151.842 180.154 152.593 180.154C153.257 180.154 153.903 180.294 154.515 180.556C155.127 180.818 155.668 181.168 156.105 181.604L155.074 182.897C154.707 182.6 154.323 182.356 153.921 182.181C153.519 182.006 153.082 181.919 152.593 181.919C152.051 181.919 151.614 182.041 151.283 182.286C150.951 182.513 150.793 182.845 150.793 183.264C150.793 183.561 150.881 183.806 151.038 183.998C151.213 184.19 151.44 184.347 151.719 184.487C151.999 184.61 152.296 184.749 152.61 184.872L154.166 185.518C154.847 185.815 155.389 186.199 155.826 186.671C156.262 187.143 156.472 187.789 156.472 188.611C156.472 189.222 156.315 189.799 155.983 190.305C155.651 190.812 155.179 191.231 154.567 191.546C153.956 191.843 153.222 192 152.366 192Z" fill="white"/>
<path d="M163.112 192C162.151 192 161.294 191.773 160.508 191.319C159.722 190.864 159.11 190.2 158.638 189.327C158.184 188.436 157.957 187.37 157.957 186.112C157.957 184.872 158.184 183.806 158.656 182.915C159.128 182.024 159.774 181.342 160.561 180.871C161.347 180.399 162.22 180.154 163.181 180.154C163.898 180.154 164.544 180.294 165.104 180.591C165.663 180.888 166.117 181.22 166.484 181.604L165.401 182.915C165.104 182.618 164.789 182.373 164.422 182.198C164.073 182.006 163.671 181.919 163.234 181.919C162.622 181.919 162.063 182.094 161.574 182.426C161.102 182.758 160.718 183.229 160.438 183.841C160.176 184.452 160.036 185.204 160.036 186.06C160.036 187.37 160.316 188.383 160.893 189.135C161.469 189.868 162.22 190.235 163.181 190.235C163.688 190.235 164.143 190.131 164.544 189.921C164.946 189.694 165.296 189.414 165.628 189.065L166.711 190.34C166.239 190.882 165.715 191.284 165.104 191.581C164.509 191.86 163.845 192 163.112 192Z" fill="white"/>
<path d="M168.617 191.792V180.365H170.644V184.96H175.274V180.365H177.301V191.792H175.274V186.725H170.644V191.792H168.617Z" fill="white"/>
<path d="M182.541 185.712L182.14 187.109H185.058L184.656 185.712C184.463 185.1 184.289 184.489 184.114 183.842C183.957 183.196 183.782 182.567 183.625 181.938H183.555C183.398 182.584 183.24 183.213 183.066 183.86C182.908 184.489 182.734 185.1 182.541 185.712ZM178.715 191.792L182.437 180.365H184.813L188.535 191.792H186.403L185.512 188.699H181.668L180.777 191.792H178.715Z" fill="white"/>
<path d="M189.949 191.792V180.365H196.851V182.077H191.976V185.31H196.135V187.022H191.976V191.792H189.949Z" fill="white"/>
<path d="M201.17 191.792V182.077H197.867V180.365H206.499V182.077H203.196V191.792H201.17Z" fill="white"/>
<path d="M211.178 192C210.41 192 209.658 191.86 208.942 191.563C208.225 191.266 207.596 190.864 207.055 190.323L208.243 188.942C208.645 189.327 209.117 189.641 209.641 189.886C210.165 190.113 210.689 190.235 211.213 190.235C211.86 190.235 212.367 190.096 212.699 189.834C213.03 189.571 213.205 189.205 213.205 188.768C213.205 188.296 213.03 187.947 212.699 187.737C212.367 187.527 211.947 187.318 211.44 187.09L209.868 186.409C209.501 186.252 209.134 186.042 208.767 185.78C208.418 185.518 208.121 185.204 207.893 184.802C207.666 184.4 207.561 183.928 207.561 183.369C207.561 182.758 207.719 182.216 208.051 181.744C208.383 181.255 208.837 180.871 209.414 180.591C209.99 180.294 210.654 180.154 211.405 180.154C212.069 180.154 212.716 180.294 213.328 180.556C213.939 180.818 214.481 181.168 214.918 181.604L213.887 182.897C213.52 182.6 213.135 182.356 212.733 182.181C212.332 182.006 211.895 181.919 211.405 181.919C210.864 181.919 210.427 182.041 210.095 182.286C209.763 182.513 209.606 182.845 209.606 183.264C209.606 183.561 209.693 183.806 209.85 183.998C210.025 184.19 210.252 184.347 210.532 184.487C210.811 184.61 211.108 184.749 211.423 184.872L212.978 185.518C213.66 185.815 214.201 186.199 214.638 186.671C215.075 187.143 215.285 187.789 215.285 188.611C215.285 189.222 215.127 189.799 214.795 190.305C214.463 190.812 213.992 191.231 213.38 191.546C212.768 191.843 212.035 192 211.178 192Z" fill="white"/>
<path d="M217.363 191.792V180.365H220.963C221.819 180.365 222.57 180.47 223.234 180.697C223.898 180.924 224.422 181.291 224.807 181.798C225.191 182.305 225.383 183.003 225.383 183.894C225.383 184.733 225.191 185.432 224.807 185.974C224.422 186.515 223.898 186.935 223.252 187.197C222.605 187.459 221.854 187.598 221.033 187.598H219.39V191.792H217.363ZM219.39 185.974H220.875C222.553 185.974 223.392 185.275 223.392 183.894C223.392 183.178 223.164 182.671 222.728 182.409C222.291 182.13 221.662 181.99 220.805 181.99H219.39V185.974Z" fill="white"/>
<path d="M227.535 191.792V180.365H234.437V182.077H229.562V185.31H233.721V187.022H229.562V191.792H227.535Z" fill="white"/>
<path d="M236.445 191.792V180.365H238.472V190.079H243.225V191.792H236.445Z" fill="white"/>
<path d="M245.215 191.792V180.365H252.099V182.077H247.242V184.995H251.348V186.707H247.242V190.079H252.274V191.792H245.215Z" fill="white"/>
<path d="M259.405 192C258.374 192 257.466 191.773 256.644 191.319C255.823 190.864 255.194 190.2 254.722 189.327C254.251 188.436 254.023 187.37 254.023 186.112C254.023 184.872 254.268 183.806 254.74 182.915C255.212 182.024 255.858 181.342 256.679 180.871C257.501 180.399 258.409 180.154 259.423 180.154C260.244 180.154 260.925 180.312 261.484 180.609C262.061 180.906 262.515 181.238 262.882 181.604L261.799 182.915C261.502 182.635 261.187 182.408 260.82 182.216C260.471 182.024 260.034 181.919 259.493 181.919C258.479 181.919 257.658 182.286 257.029 183.037C256.417 183.771 256.103 184.784 256.103 186.06C256.103 187.37 256.4 188.383 256.994 189.135C257.588 189.868 258.462 190.235 259.597 190.235C259.929 190.235 260.226 190.2 260.523 190.113C260.82 190.026 261.048 189.886 261.24 189.729V187.265H259.073V185.605H263.057V190.637C262.673 191.022 262.166 191.354 261.519 191.616C260.89 191.878 260.191 192 259.405 192Z" fill="white"/>
<path d="M265.594 191.792V180.365H272.478V182.077H267.621V184.995H271.727V186.707H267.621V190.079H272.653V191.792H265.594Z" fill="white"/>
</svg>
