<svg width="273" height="192" viewBox="0 0 273 192" fill="none" xmlns="http://www.w3.org/2000/svg">
<path d="M151.787 116.987C150.836 116.637 150.231 115.676 149.574 114.905C148.872 114.082 148.089 112.868 147.578 112.049C147.169 111.393 146.809 110.69 146.511 109.991C146.214 109.299 145.983 108.579 145.782 107.854C145.573 107.098 145.423 106.193 145.252 105.453C145.095 104.772 144.93 104.092 144.762 103.414C144.588 102.722 144.322 102.022 144.218 101.303C143.976 99.6561 143.397 95.6147 143.316 93.5307C143.254 91.9489 143.596 89.9064 143.732 88.7999C143.811 88.1552 143.856 87.4808 144.132 86.8925C144.583 85.9285 145.589 84.0082 146.44 83.0165C147.198 82.1349 148.421 81.4311 149.244 80.9426C149.903 80.551 150.645 80.3034 151.38 80.0855C152.159 79.8549 153.082 79.778 153.918 79.5589C156.245 78.9487 163.154 77.1835 165.34 76.4252C166.035 76.184 166.507 75.5238 167.035 75.0089C167.587 74.4671 168.077 73.7465 168.66 73.1745C169.302 72.5463 170.143 71.8863 170.883 71.2391C172.101 70.1715 175.172 68.7599 175.973 66.7691C176.774 64.7784 175.799 60.957 175.688 59.295C175.631 58.4544 175.433 57.4913 175.308 56.7967C175.208 56.2357 175.317 55.5549 174.941 55.1267C174.372 54.4783 172.751 53.4877 171.89 52.9063C171.21 52.4466 170.004 52.4283 169.776 51.6387C169.519 50.7427 170.093 48.7631 170.347 47.5302C170.576 46.4125 171.123 45.0469 171.296 44.2414C171.404 43.7373 171.529 43.1921 171.385 42.697C171.188 42.0194 170.62 40.9682 170.112 40.1755C169.349 38.984 167.957 36.8251 166.803 35.5477C165.749 34.3809 164.193 33.2664 163.194 32.5116C162.445 31.9459 161.706 31.2816 160.804 31.0199C159.663 30.6886 157.835 30.6693 156.347 30.5242C154.598 30.3536 151.804 30.3982 150.311 29.9967C149.191 29.6958 148.228 28.6699 147.387 28.1152C146.672 27.6437 145.907 27.1104 145.266 26.668C144.687 26.2691 144.085 25.9024 143.538 25.4602C142.531 24.6453 140.594 22.4032 139.228 21.7785C138.049 21.24 136.553 21.2549 135.341 21.7126C133.768 22.3068 131.12 24.5858 129.787 25.3437C129.034 25.7732 128.205 26.1095 127.35 26.2603C126.466 26.4163 125.437 26.3061 124.482 26.2799C123.447 26.2514 122.217 25.8045 121.138 26.0898C120.034 26.3819 118.784 27.4022 117.85 28.0327C117.034 28.5844 116.298 29.255 115.538 29.8733C114.778 30.4891 113.972 31.206 113.281 31.7432C112.67 32.2186 111.969 32.5781 111.396 33.0975C110.682 33.7437 109.573 34.9431 109.001 35.6203C108.603 36.093 108.279 36.6592 107.966 37.1604C107.667 37.6389 107.29 38.089 107.123 38.628C106.822 39.6029 106.515 41.7234 106.158 43.0097C105.843 44.146 105.656 45.3882 104.983 46.346C104.31 47.3037 103.046 47.9208 102.119 48.7562C100.916 49.8416 98.8391 51.38 97.7592 52.8584C96.7334 54.2628 95.734 55.8895 95.6383 57.6262C95.5342 59.5372 95.995 62.4218 97.1304 64.3239C98.2659 66.2261 101.249 68.0108 102.45 69.0388C103.053 69.5556 103.718 69.9971 104.34 70.492C104.984 71.0051 105.671 71.5596 106.317 72.1171C107.016 72.7215 107.771 73.4796 108.538 74.1177C109.302 74.7562 110.138 75.4336 110.91 75.9481C111.627 76.4259 112.469 76.864 113.168 77.2045C113.797 77.5098 114.462 77.7333 115.111 77.9902C115.83 78.2743 116.777 78.5527 117.481 78.909C118.14 79.2427 118.718 79.7167 119.331 80.1276C120.006 80.5794 120.75 81.1991 121.53 81.6198C122.325 82.0491 123.505 82.4813 124.103 82.7038C124.431 82.8255 124.822 82.7722 125.121 82.9547C125.858 83.4062 127.739 84.2552 128.526 85.4126C129.368 86.651 130.116 88.6396 130.175 90.3848C130.258 92.9099 129.314 98.4965 129.031 100.563C128.927 101.319 128.694 102.053 128.474 102.784C128.188 103.74 127.621 105.387 127.317 106.3C127.099 106.954 126.906 107.64 126.65 108.259C126.403 108.863 126.104 109.445 125.79 110.017C125.441 110.655 124.993 111.409 124.559 112.082C124.049 112.873 123.232 114.072 122.731 114.762C122.363 115.269 121.909 115.882 121.552 116.227C121.28 116.49 120.948 116.706 120.59 116.832C120.077 117.012 119.188 117.416 118.472 117.311C117.303 117.139 114.799 116.233 113.58 115.8C112.749 115.504 111.955 115.072 111.165 114.713C110.392 114.36 109.579 114.008 108.848 113.644C108.15 113.295 107.47 112.911 106.79 112.527C106.095 112.135 105.363 111.704 104.68 111.292C104.012 110.888 103.345 110.484 102.694 110.054C101.973 109.578 101.103 108.987 100.36 108.44C99.6373 107.906 98.9044 107.379 98.2437 106.77C96.6196 105.278 92.1945 101.055 90.6218 99.4865C89.9625 98.8283 89.3906 98.0865 88.809 97.3584C88.2121 96.6125 87.5764 95.7417 87.0475 95.0112C86.5617 94.3421 86.0828 93.6541 85.6317 92.9755C85.1875 92.3063 84.7531 91.6294 84.3408 90.94C83.8966 90.1996 83.3969 89.3361 82.9722 88.5341C82.5543 87.7451 82.1338 86.8579 81.7951 86.1284C81.4939 85.4787 81.219 84.8106 80.94 84.1572C80.6638 83.5095 80.3848 82.8626 80.1238 82.2086C79.8476 81.5159 79.545 80.7438 79.2827 80.0012C79.0175 79.2488 78.7469 78.4205 78.5303 77.6936C78.3277 77.0146 78.1389 76.2753 77.9807 75.64C77.8363 75.057 77.6961 74.4722 77.5851 73.8819C77.4449 73.1317 77.2339 72.06 77.1339 71.1387C76.9132 69.0917 76.272 64.7931 76.2581 61.6003C76.2428 58.1305 76.8466 52.5852 77.041 50.3196C77.1076 49.5408 77.2936 48.7312 77.4241 48.0063C77.5462 47.3259 77.6725 46.6461 77.8197 45.9707C77.9724 45.2718 78.1417 44.5262 78.3388 43.8129C78.5429 43.0656 78.8052 42.224 79.0523 41.4866C79.2882 40.7803 79.5478 40.0816 79.8213 39.3883C80.103 38.6707 80.4542 37.8956 80.7457 37.1809C81.0289 36.4899 81.2815 35.783 81.5744 35.1C81.8659 34.4198 82.1657 33.7415 82.5044 33.083C82.8472 32.4151 83.2414 31.7466 83.6343 31.0922C84.1131 30.2935 84.9266 29.0279 85.3777 28.2913C85.7053 27.756 85.9995 27.2009 86.3382 26.6723C86.7671 26.0008 87.4348 24.9783 87.9526 24.2623C88.4217 23.6126 88.92 22.9822 89.4447 22.3758C90.4774 21.1824 92.9759 18.3385 94.1447 17.1024C94.8665 16.3385 95.7466 15.5911 96.4586 14.9586C97.0971 14.3916 97.7828 13.8312 98.4172 13.3082C99.0293 12.8048 99.6345 12.2916 100.272 11.8208C100.981 11.2963 101.929 10.6706 102.677 10.1611C103.368 9.69042 104.058 9.20783 104.761 8.76341C105.457 8.32149 106.175 7.89303 106.889 7.49442C107.595 7.09955 108.314 6.72578 109.043 6.37144C109.809 5.9985 110.804 5.5513 111.486 5.25678C112.029 5.0225 112.592 4.83762 113.135 4.60417C113.846 4.29855 114.964 3.7431 115.754 3.42304C116.447 3.14212 117.157 2.90589 117.871 2.68382C118.618 2.45148 119.555 2.20262 120.232 2.02941C120.796 1.8852 121.365 1.76695 121.932 1.64398C122.513 1.51809 123.119 1.38915 123.715 1.27437C124.438 1.13502 125.408 0.875889 126.271 0.80788C128.96 0.59622 137.054 0.0960062 139.844 0.0041246C140.903 -0.0308515 142.159 0.165543 143.013 0.256176C143.667 0.325711 144.314 0.445073 144.962 0.547919C145.664 0.659232 146.472 0.78734 147.226 0.924052C147.978 1.06104 148.732 1.21302 149.483 1.3693C150.266 1.53183 151.193 1.73155 151.916 1.8995C152.556 2.04773 153.196 2.19568 153.826 2.37681C154.53 2.57903 155.376 2.84191 156.14 3.11256C156.914 3.38751 157.733 3.71561 158.475 4.02665C159.187 4.32534 160.061 4.72728 160.585 4.97878C160.937 5.14783 161.258 5.37767 161.616 5.53534C162.254 5.81751 163.577 6.26693 164.417 6.67123C165.193 7.04473 165.92 7.51191 166.655 7.96146C167.425 8.43308 168.255 8.97965 169.041 9.50082C169.821 10.0198 170.648 10.5894 171.361 11.0888C172.022 11.5503 172.695 11.9958 173.327 12.4971C173.985 13.0211 174.697 13.6073 175.316 14.2322C176.96 15.8878 181.615 20.753 183.182 22.4311C183.732 23.0206 184.226 23.6611 184.716 24.3013C185.212 24.9491 185.693 25.6353 186.158 26.3185C186.655 27.049 187.258 27.9832 187.7 28.6834C188.082 29.2885 188.458 29.8978 188.811 30.5203C189.187 31.1836 189.594 31.9392 189.956 32.6637C190.354 33.4618 190.855 34.5284 191.204 35.3086C191.505 35.9797 191.788 36.6856 192.052 37.345C192.306 37.9813 192.541 38.6246 192.783 39.2653C193.044 39.9525 193.348 40.7289 193.612 41.4674C193.891 42.2479 194.222 43.1071 194.459 43.948C194.705 44.8219 194.984 45.7724 195.092 46.7109C195.411 49.4538 196.265 56.4419 196.376 60.4053C196.47 63.7722 195.936 68.3628 195.757 70.4909C195.682 71.3947 195.487 72.2854 195.307 73.1743C195.125 74.0687 194.871 75.0639 194.67 75.8577C194.494 76.5544 194.316 77.2518 194.098 77.9372C193.88 78.6274 193.607 79.3128 193.357 79.9995C193.096 80.7195 192.807 81.5367 192.532 82.2569C192.267 82.9491 191.995 83.638 191.706 84.3205C191.416 85.0064 191.121 85.6992 190.793 86.3724C190.439 87.1015 189.975 87.9555 189.578 88.6943C189.2 89.4023 188.807 90.125 188.417 90.8055C188.036 91.4699 187.653 92.1337 187.24 92.7779C186.786 93.4837 186.223 94.3124 185.697 95.0402C185.178 95.757 184.636 96.4562 184.08 97.1449C183.486 97.8802 182.8 98.6969 182.138 99.4523C181.458 100.226 180.703 101.064 180.004 101.789C179.335 102.481 178.643 103.151 177.937 103.801C177.166 104.51 176.157 105.388 175.384 106.038C174.703 106.61 174.002 107.158 173.296 107.703C172.564 108.269 171.721 108.92 170.984 109.438C170.295 109.92 169.479 110.42 168.868 110.809C168.356 111.134 167.847 111.465 167.321 111.767C166.592 112.185 165.289 112.904 164.5 113.318C163.873 113.647 163.234 113.955 162.59 114.25C161.88 114.576 161.004 114.935 160.235 115.274C159.481 115.606 158.747 115.983 157.98 116.284C157.202 116.59 156.409 117.011 155.564 117.107C154.533 117.224 152.785 117.354 151.787 116.987Z" fill="#CADB39"/>
<path d="M0 172.776V131.896H25.7721V139.67H9.21775V149.138H23.3893V156.913H9.21775V172.776H0Z" fill="black"/>
<path d="M31.6836 172.777V141.858H42.8286C45.0102 141.858 47.0021 142.143 48.8042 142.759C50.6064 143.328 52.0292 144.324 53.12 145.7C54.2108 147.075 54.7324 149.019 54.7324 151.485C54.7324 153.761 54.2108 155.658 53.2148 157.128C52.2189 158.598 50.891 159.689 49.2311 160.4L56.2501 172.777H48.4248L42.4966 161.633H38.6552V172.777H31.6836ZM38.6552 156.085H42.2595C44.1091 156.085 45.4844 155.705 46.433 154.947C47.4289 154.141 47.9032 153.002 47.9032 151.485C47.9032 149.967 47.4289 148.924 46.433 148.308C45.4844 147.691 44.1091 147.407 42.2595 147.407H38.6552V156.085Z" fill="black"/>
<path d="M67.6299 157.128L66.8711 159.973H73.4633L72.7519 157.128C72.3251 155.563 71.8982 153.951 71.4714 152.196C71.0446 150.442 70.6652 148.782 70.2384 147.17H70.0486C69.6692 148.829 69.2898 150.489 68.863 152.244C68.4836 153.951 68.0568 155.563 67.6299 157.128ZM56.4375 172.777L66.1123 141.858H74.5067L84.1815 172.777H76.7831L74.8861 165.427H65.4484L63.5513 172.777H56.4375Z" fill="black"/>
<path d="M87.5469 172.777V141.858H94.7081L102.77 157.223L105.806 164.052H105.995C105.853 162.392 105.711 160.59 105.474 158.551C105.237 156.512 105.142 154.615 105.142 152.765V141.858H111.781V172.777H104.62L96.5577 157.365L93.5225 150.631H93.3328C93.4751 152.339 93.6648 154.188 93.8545 156.132C94.0916 158.076 94.1865 159.973 94.1865 161.823V172.777H87.5469Z" fill="black"/>
<path d="M117.145 172.777V168.557L130.803 147.739H118.425V141.858H139.387V146.079L125.729 166.897H139.529V172.777H117.145Z" fill="black"/>
<path d="M176.519 173.529C172.819 173.529 169.433 172.714 166.36 171.146C163.351 169.579 160.968 167.196 159.149 164.124C157.394 160.989 156.516 157.164 156.516 152.587C156.516 148.073 157.394 144.248 159.212 141.05C161.03 137.852 163.476 135.407 166.486 133.714C169.496 132.021 172.819 131.144 176.456 131.144C179.403 131.144 181.974 131.708 184.106 132.774C186.238 133.84 187.994 135.094 189.311 136.473L184.482 142.367C183.416 141.426 182.35 140.674 181.159 140.047C179.968 139.42 178.525 139.106 176.77 139.106C173.572 139.106 171.001 140.298 168.994 142.618C166.987 144.938 165.984 148.198 165.984 152.273C165.984 156.474 166.925 159.735 168.869 162.055C170.813 164.375 173.634 165.566 177.459 165.566C178.275 165.566 179.09 165.44 179.905 165.252C180.72 165.064 181.347 164.751 181.849 164.312V157.289H175.077V149.765H190.001V168.575C188.558 169.955 186.677 171.146 184.294 172.087C181.974 173.027 179.341 173.529 176.519 173.529Z" fill="black"/>
<path d="M197.293 172.777V141.858H208.438C210.62 141.858 212.611 142.143 214.414 142.759C216.216 143.328 217.639 144.324 218.729 145.7C219.82 147.075 220.342 149.019 220.342 151.485C220.342 153.761 219.82 155.658 218.824 157.128C217.828 158.598 216.5 159.689 214.84 160.4L221.859 172.777H214.034L208.106 161.633H204.265V172.777H197.293ZM204.265 156.085H207.869C209.718 156.085 211.094 155.705 212.042 154.947C213.038 154.141 213.513 153.002 213.513 151.485C213.513 149.967 213.038 148.924 212.042 148.308C211.094 147.691 209.718 147.407 207.869 147.407H204.265V156.085Z" fill="black"/>
<path d="M233.243 157.128L232.484 159.973H239.077L238.365 157.128C237.938 155.563 237.512 153.951 237.085 152.196C236.658 150.442 236.278 148.782 235.852 147.17H235.662C235.283 148.829 234.903 150.489 234.476 152.244C234.097 153.951 233.67 155.563 233.243 157.128ZM222.051 172.777L231.726 141.858H240.12L249.795 172.777H242.396L240.499 165.427H231.062L229.165 172.777H222.051Z" fill="black"/>
<path d="M253.16 172.777V141.858H272.652V147.739H260.132V154.899H270.85V160.779H260.132V172.777H253.16Z" fill="black"/>
<path d="M5.38172 191.999C4.3508 191.999 3.4422 191.772 2.62097 191.318C1.79973 190.863 1.1707 190.199 0.698924 189.326C0.22715 188.435 0 187.369 0 186.111C0 184.871 0.244624 183.805 0.716397 182.914C1.18817 182.023 1.83468 181.341 2.65591 180.87C3.47715 180.398 4.38575 180.153 5.39919 180.153C6.22043 180.153 6.90188 180.311 7.46102 180.608C8.03763 180.905 8.49193 181.237 8.85886 181.603L7.77553 182.914C7.47849 182.634 7.16397 182.407 6.79704 182.215C6.44758 182.023 6.01075 181.918 5.46908 181.918C4.45564 181.918 3.63441 182.285 3.00537 183.036C2.39382 183.77 2.0793 184.783 2.0793 186.059C2.0793 187.369 2.37634 188.382 2.97043 189.134C3.56451 189.867 4.43817 190.234 5.57392 190.234C5.90591 190.234 6.20295 190.199 6.5 190.112C6.79704 190.025 7.02419 189.885 7.21639 189.728V187.264H5.04973V185.604H9.0336L9.0336 190.636C8.64919 191.021 8.14247 191.353 7.49596 191.615C6.86693 191.877 6.16801 191.999 5.38172 191.999Z" fill="#CADB39"/>
<path d="M13.8071 185.711L13.4052 187.108H16.3232L15.9213 185.711C15.7291 185.099 15.5544 184.488 15.3797 183.841C15.2224 183.195 15.0477 182.566 14.8904 181.937H14.8205C14.6633 182.583 14.506 183.212 14.3313 183.859C14.174 184.488 13.9993 185.099 13.8071 185.711ZM9.98047 191.791L13.7022 180.364H16.0786L19.8004 191.791H17.6686L16.7775 188.698H12.9334L12.0423 191.791H9.98047Z" fill="#CADB39"/>
<path d="M21.2148 191.791V180.364H25.0764C25.8627 180.364 26.5791 180.469 27.2081 180.679C27.8546 180.888 28.3439 181.238 28.7108 181.745C29.0777 182.234 29.2699 182.898 29.2699 183.754C29.2699 184.627 29.0603 185.326 28.6409 185.868C28.239 186.409 27.6799 186.794 26.9984 187.021L29.7242 191.791H27.4527L24.989 187.318H23.2417V191.791H21.2148ZM23.2417 185.711H24.8667C25.653 185.711 26.2471 185.553 26.649 185.221C27.0683 184.889 27.278 184.4 27.278 183.754C27.278 183.107 27.0683 182.653 26.649 182.391C26.2471 182.129 25.653 181.989 24.8667 181.989H23.2417V185.711Z" fill="#CADB39"/>
<path d="M33.5837 191.791V182.076H30.2812V180.364H38.913V182.076H35.6105V191.791H33.5837Z" fill="#CADB39"/>
<path d="M40.8203 191.791V180.364H47.7047V182.076H42.8472V184.994H46.9534V186.706H42.8472V190.078H47.8794V191.791H40.8203Z" fill="#CADB39"/>
<path d="M50.2188 191.791V180.364H52.2981L55.8626 186.794L57.0333 189.222H57.1032C57.0507 188.646 56.9983 187.999 56.9284 187.318C56.876 186.637 56.8411 185.973 56.8411 185.326V180.364H58.7806V191.791H56.7013L53.1368 185.361L51.9661 182.933H51.8962C51.9486 183.544 52.001 184.173 52.0534 184.837C52.1233 185.501 52.1583 186.147 52.1583 186.794V191.791H50.2188Z" fill="#CADB39"/>
<path d="M65.1234 186.654H60.9648V188.122H65.1234V186.654Z" fill="#CADB39"/>
<path d="M75.0794 192C74.2058 192 73.437 191.826 72.7904 191.476C72.1439 191.127 71.6372 190.568 71.2703 189.799C70.9208 189.03 70.7461 188.017 70.7461 186.776V180.364H72.773V186.934C72.773 187.755 72.8603 188.419 73.0525 188.908C73.2447 189.38 73.5243 189.729 73.8738 189.939C74.2232 190.131 74.6251 190.236 75.0794 190.236C75.5512 190.236 75.9531 190.131 76.3025 189.939C76.6695 189.729 76.949 189.38 77.1413 188.908C77.3509 188.419 77.4558 187.755 77.4558 186.934V180.364H79.3953V186.776C79.3953 188.017 79.2206 189.03 78.8711 189.799C78.5216 190.568 78.0149 191.127 77.3684 191.476C76.7219 191.826 75.9706 192 75.0794 192Z" fill="#CADB39"/>
<path d="M82.2461 191.791V180.364H84.3254L87.8899 186.794L89.0606 189.222H89.1305C89.0781 188.646 89.0257 187.999 88.9558 187.318C88.9033 186.637 88.8684 185.973 88.8684 185.326V180.364H90.8079V191.791H88.7286L85.1641 185.361L83.9934 182.933H83.9235C83.9759 183.544 84.0284 184.173 84.0808 184.837C84.1507 185.501 84.1856 186.147 84.1856 186.794V191.791H82.2461Z" fill="#CADB39"/>
<path d="M93.7109 191.791V180.364H96.7687C98.516 180.364 99.8789 180.836 100.857 181.779C101.836 182.723 102.325 184.138 102.325 186.025C102.325 187.929 101.836 189.362 100.875 190.34C99.9139 191.301 98.5685 191.791 96.8736 191.791H93.7109ZM95.7378 190.148H96.6289C97.7822 190.148 98.6733 189.816 99.3023 189.152C99.9314 188.471 100.246 187.44 100.246 186.025C100.246 184.627 99.9314 183.614 99.3023 182.968C98.6733 182.321 97.7822 182.007 96.6289 182.007H95.7378V190.148Z" fill="#CADB39"/>
<path d="M108.125 191.791V180.364H110.152V190.078H114.905V191.791H108.125Z" fill="#CADB39"/>
<path d="M119.237 185.711L118.835 187.108H121.753L121.351 185.711C121.159 185.099 120.984 184.488 120.809 183.841C120.652 183.195 120.477 182.566 120.32 181.937H120.25C120.093 182.583 119.936 183.212 119.761 183.859C119.604 184.488 119.429 185.099 119.237 185.711ZM115.41 191.791L119.132 180.364H121.508L125.23 191.791H123.098L122.207 188.698H118.363L117.472 191.791H115.41Z" fill="#CADB39"/>
<path d="M126.645 191.791V180.364H128.724L132.288 186.794L133.459 189.222H133.529C133.477 188.646 133.424 187.999 133.354 187.318C133.302 186.637 133.267 185.973 133.267 185.326V180.364H135.206V191.791H133.127L129.563 185.361L128.392 182.933H128.322C128.374 183.544 128.427 184.173 128.479 184.837C128.549 185.501 128.584 186.147 128.584 186.794V191.791H126.645Z" fill="#CADB39"/>
<path d="M138.109 191.791V180.364H141.167C142.914 180.364 144.277 180.836 145.256 181.779C146.234 182.723 146.724 184.138 146.724 186.025C146.724 187.929 146.234 189.362 145.273 190.34C144.312 191.301 142.967 191.791 141.272 191.791H138.109ZM140.136 190.148H141.027C142.181 190.148 143.072 189.816 143.701 189.152C144.33 188.471 144.644 187.44 144.644 186.025C144.644 184.627 144.33 183.614 143.701 182.968C143.072 182.321 142.181 182.007 141.027 182.007H140.136V190.148Z" fill="#CADB39"/>
<path d="M152.366 191.999C151.597 191.999 150.846 191.859 150.129 191.562C149.413 191.265 148.784 190.863 148.242 190.322L149.43 188.941C149.832 189.326 150.304 189.64 150.828 189.885C151.352 190.112 151.877 190.234 152.401 190.234C153.047 190.234 153.554 190.095 153.886 189.833C154.218 189.57 154.393 189.204 154.393 188.767C154.393 188.295 154.218 187.946 153.886 187.736C153.554 187.526 153.135 187.317 152.628 187.09L151.055 186.408C150.688 186.251 150.321 186.041 149.955 185.779C149.605 185.517 149.308 185.203 149.081 184.801C148.854 184.399 148.749 183.927 148.749 183.368C148.749 182.757 148.906 182.215 149.238 181.743C149.57 181.254 150.024 180.87 150.601 180.59C151.178 180.293 151.842 180.153 152.593 180.153C153.257 180.153 153.903 180.293 154.515 180.555C155.127 180.817 155.668 181.167 156.105 181.603L155.074 182.896C154.707 182.599 154.323 182.355 153.921 182.18C153.519 182.005 153.082 181.918 152.593 181.918C152.051 181.918 151.614 182.04 151.283 182.285C150.951 182.512 150.793 182.844 150.793 183.263C150.793 183.56 150.881 183.805 151.038 183.997C151.213 184.189 151.44 184.346 151.719 184.486C151.999 184.609 152.296 184.748 152.61 184.871L154.166 185.517C154.847 185.814 155.389 186.198 155.826 186.67C156.262 187.142 156.472 187.788 156.472 188.61C156.472 189.221 156.315 189.798 155.983 190.304C155.651 190.811 155.179 191.23 154.567 191.545C153.956 191.842 153.222 191.999 152.366 191.999Z" fill="#CADB39"/>
<path d="M163.112 191.999C162.151 191.999 161.294 191.772 160.508 191.318C159.722 190.863 159.11 190.199 158.638 189.326C158.184 188.435 157.957 187.369 157.957 186.111C157.957 184.871 158.184 183.805 158.656 182.914C159.128 182.023 159.774 181.341 160.561 180.87C161.347 180.398 162.22 180.153 163.181 180.153C163.898 180.153 164.544 180.293 165.104 180.59C165.663 180.887 166.117 181.219 166.484 181.603L165.401 182.914C165.104 182.617 164.789 182.372 164.422 182.197C164.073 182.005 163.671 181.918 163.234 181.918C162.622 181.918 162.063 182.093 161.574 182.425C161.102 182.757 160.718 183.228 160.438 183.84C160.176 184.451 160.036 185.203 160.036 186.059C160.036 187.369 160.316 188.382 160.893 189.134C161.469 189.867 162.22 190.234 163.181 190.234C163.688 190.234 164.143 190.13 164.544 189.92C164.946 189.693 165.296 189.413 165.628 189.064L166.711 190.339C166.239 190.881 165.715 191.283 165.104 191.58C164.509 191.859 163.845 191.999 163.112 191.999Z" fill="#CADB39"/>
<path d="M168.617 191.791V180.364H170.644V184.959H175.274V180.364H177.301V191.791H175.274V186.724H170.644V191.791H168.617Z" fill="#CADB39"/>
<path d="M182.541 185.711L182.14 187.108H185.058L184.656 185.711C184.463 185.099 184.289 184.488 184.114 183.841C183.957 183.195 183.782 182.566 183.625 181.937H183.555C183.398 182.583 183.24 183.212 183.066 183.859C182.908 184.488 182.734 185.099 182.541 185.711ZM178.715 191.791L182.437 180.364H184.813L188.535 191.791H186.403L185.512 188.698H181.668L180.777 191.791H178.715Z" fill="#CADB39"/>
<path d="M189.949 191.791V180.364H196.851V182.076H191.976V185.309H196.135V187.021H191.976V191.791H189.949Z" fill="#CADB39"/>
<path d="M201.17 191.791V182.076H197.867V180.364H206.499V182.076H203.196V191.791H201.17Z" fill="#CADB39"/>
<path d="M211.178 191.999C210.41 191.999 209.658 191.859 208.942 191.562C208.225 191.265 207.596 190.863 207.055 190.322L208.243 188.941C208.645 189.326 209.117 189.64 209.641 189.885C210.165 190.112 210.689 190.234 211.213 190.234C211.86 190.234 212.367 190.095 212.699 189.833C213.03 189.57 213.205 189.204 213.205 188.767C213.205 188.295 213.03 187.946 212.699 187.736C212.367 187.526 211.947 187.317 211.44 187.09L209.868 186.408C209.501 186.251 209.134 186.041 208.767 185.779C208.418 185.517 208.121 185.203 207.893 184.801C207.666 184.399 207.561 183.927 207.561 183.368C207.561 182.757 207.719 182.215 208.051 181.743C208.383 181.254 208.837 180.87 209.414 180.59C209.99 180.293 210.654 180.153 211.405 180.153C212.069 180.153 212.716 180.293 213.328 180.555C213.939 180.817 214.481 181.167 214.918 181.603L213.887 182.896C213.52 182.599 213.135 182.355 212.733 182.18C212.332 182.005 211.895 181.918 211.405 181.918C210.864 181.918 210.427 182.04 210.095 182.285C209.763 182.512 209.606 182.844 209.606 183.263C209.606 183.56 209.693 183.805 209.85 183.997C210.025 184.189 210.252 184.346 210.532 184.486C210.811 184.609 211.108 184.748 211.423 184.871L212.978 185.517C213.66 185.814 214.201 186.198 214.638 186.67C215.075 187.142 215.285 187.788 215.285 188.61C215.285 189.221 215.127 189.798 214.795 190.304C214.463 190.811 213.992 191.23 213.38 191.545C212.768 191.842 212.035 191.999 211.178 191.999Z" fill="#CADB39"/>
<path d="M217.363 191.791V180.364H220.963C221.819 180.364 222.57 180.469 223.234 180.696C223.898 180.923 224.422 181.29 224.807 181.797C225.191 182.304 225.383 183.002 225.383 183.894C225.383 184.732 225.191 185.431 224.807 185.973C224.422 186.514 223.898 186.934 223.252 187.196C222.605 187.458 221.854 187.597 221.033 187.597H219.39V191.791H217.363ZM219.39 185.973H220.875C222.553 185.973 223.392 185.274 223.392 183.894C223.392 183.177 223.164 182.67 222.728 182.408C222.291 182.129 221.662 181.989 220.805 181.989H219.39V185.973Z" fill="#CADB39"/>
<path d="M227.535 191.791V180.364H234.437V182.076H229.562V185.309H233.721V187.021H229.562V191.791H227.535Z" fill="#CADB39"/>
<path d="M236.445 191.791V180.364H238.472V190.078H243.225V191.791H236.445Z" fill="#CADB39"/>
<path d="M245.215 191.791V180.364H252.099V182.076H247.242V184.994H251.348V186.706H247.242V190.078H252.274V191.791H245.215Z" fill="#CADB39"/>
<path d="M259.405 191.999C258.374 191.999 257.466 191.772 256.644 191.318C255.823 190.863 255.194 190.199 254.722 189.326C254.251 188.435 254.023 187.369 254.023 186.111C254.023 184.871 254.268 183.805 254.74 182.914C255.212 182.023 255.858 181.341 256.679 180.87C257.501 180.398 258.409 180.153 259.423 180.153C260.244 180.153 260.925 180.311 261.484 180.608C262.061 180.905 262.515 181.237 262.882 181.603L261.799 182.914C261.502 182.634 261.187 182.407 260.82 182.215C260.471 182.023 260.034 181.918 259.493 181.918C258.479 181.918 257.658 182.285 257.029 183.036C256.417 183.77 256.103 184.783 256.103 186.059C256.103 187.369 256.4 188.382 256.994 189.134C257.588 189.867 258.462 190.234 259.597 190.234C259.929 190.234 260.226 190.199 260.523 190.112C260.82 190.025 261.048 189.885 261.24 189.728V187.264H259.073V185.604H263.057V190.636C262.673 191.021 262.166 191.353 261.519 191.615C260.89 191.877 260.191 191.999 259.405 191.999Z" fill="#CADB39"/>
<path d="M265.594 191.791V180.364H272.478V182.076H267.621V184.994H271.727V186.706H267.621V190.078H272.653V191.791H265.594Z" fill="#CADB39"/>
</svg>
