<svg width="623" height="192" viewBox="0 0 623 192" fill="none" xmlns="http://www.w3.org/2000/svg">
<g clip-path="url(#clip0_6050_123)">
<path d="M190.554 170.535L190.554 165.561H175.805L190.271 142.27L190.271 137.439H169.068L169.068 142.463L183.062 142.463L168.449 165.655L168.449 170.535L190.554 170.535ZM217.33 170.535L217.329 146.165H211.265L211.265 162.806C209.177 165.04 207.754 166.225 205.284 166.225C202.294 166.225 201.3 163.953 201.3 160.299L201.3 146.165H195.229L195.229 161.53C195.229 167.316 197.694 171.196 203.861 171.196C207.327 171.196 209.559 170.063 212.168 167.455L212.738 170.535L217.33 170.535ZM236.602 170.535C239.872 162.379 242.481 154.321 244.57 146.165H238.641C237.546 151.098 236.126 156.31 234.469 161.288C234.137 162.239 233.804 163.281 233.517 164.278H233.472L232.52 161.288C230.814 156.454 229.341 151.377 228.11 146.165H221.755C223.745 154.37 226.403 162.522 229.726 170.535H236.602ZM268.139 165.414C265.628 166.085 262.974 166.459 260.127 166.459C255.097 166.459 253.338 163.949 253.337 159.677H269.465C269.514 158.729 269.563 157.446 269.563 156.835C269.563 149.86 266.342 145.501 259.081 145.501C251.347 145.501 247.081 150.524 247.081 158.586C247.081 167.123 250.966 171.196 259.175 171.196C262.736 171.196 265.912 170.679 268.755 169.826L268.139 165.414ZM253.337 155.744C253.432 152.804 255.097 149.811 258.748 149.811C262.117 149.811 263.684 152.136 263.544 155.744H253.337ZM281.484 170.535L281.484 155.453C283.761 152.562 285.184 151.238 286.748 151.238C287.465 151.238 288.745 151.423 289.262 151.566L289.976 145.833C289.077 145.599 288.315 145.501 287.08 145.501C284.569 145.501 283.1 146.973 280.725 150.237L280.158 146.165H275.42L275.42 170.535H281.484ZM303.857 166.176H302.199C300.775 166.176 300.3 165.372 300.3 163.757L300.3 134.975H294.235L294.235 165.323C294.235 169.731 296.697 171.052 300.062 171.052C301.633 171.052 302.954 170.773 303.857 170.535V166.176ZM328.51 170.535L328.51 153.989C328.51 148.626 325.618 145.501 318.311 145.501C315.128 145.501 311.718 146.165 309.253 147.067L310.295 151.468C312.428 150.619 315.086 150.049 317.462 150.049C321.4 150.049 322.54 151.517 322.54 154.559L322.54 155.842H319.599C311.907 155.842 307.402 158.209 307.402 163.757C307.402 168.69 310.771 171.196 315.747 171.196C318.885 171.196 321.257 170.207 323.439 168.218L323.915 170.535H328.51ZM322.54 164.372C320.973 165.799 319.312 166.791 317.175 166.791C314.705 166.791 313.47 165.466 313.47 163.425C313.47 161.005 315.324 159.771 319.501 159.771H322.54L322.54 164.372ZM323.866 141.655C325.663 141.655 326.943 140.376 326.943 138.53C326.943 136.726 325.663 135.446 323.866 135.446C321.966 135.446 320.735 136.726 320.735 138.53C320.735 140.376 321.966 141.655 323.866 141.655ZM313.995 141.655C315.887 141.655 317.122 140.376 317.122 138.53C317.122 136.726 315.887 135.446 313.995 135.446C312.145 135.446 310.914 136.726 310.914 138.53C310.914 140.375 312.145 141.655 313.995 141.655ZM333.989 170.252C336.315 170.867 338.872 171.196 341.198 171.196C347.462 171.196 351.159 168.12 351.159 163.425C351.159 154.838 340.439 156.974 340.439 152.657C340.439 151.094 341.579 150.049 344.048 150.049C345.517 150.049 347.367 150.377 349.029 150.853L349.735 146.214C347.7 145.739 345.566 145.501 343.761 145.501C337.78 145.501 334.129 148.486 334.129 153.132C334.129 161.575 344.758 159.582 344.758 163.949C344.758 165.515 343.573 166.557 341.005 166.557C339.015 166.557 336.787 166.131 334.843 165.466L333.989 170.252ZM354.844 170.252C357.17 170.867 359.726 171.196 362.049 171.196C368.317 171.196 372.017 168.12 372.017 163.425C372.017 154.838 361.293 156.974 361.293 152.657C361.293 151.094 362.434 150.049 364.903 150.049C366.376 150.049 368.222 150.377 369.884 150.853L370.594 146.214C368.555 145.739 366.421 145.501 364.62 145.501C358.639 145.501 354.987 148.486 354.988 153.132C354.988 161.575 365.621 159.582 365.621 163.949C365.621 165.515 364.428 166.557 361.864 166.557C359.87 166.557 357.642 166.131 355.701 165.466L354.844 170.252ZM381.559 142.557C383.738 142.557 385.305 141.089 385.305 138.907C385.305 136.726 383.738 135.261 381.559 135.261C379.38 135.261 377.813 136.726 377.813 138.907C377.813 141.089 379.38 142.557 381.559 142.557ZM384.735 170.535L384.735 146.165H374.827L374.827 150.758H378.671L378.671 170.535H384.735ZM407.542 170.584C407.542 174.804 405.597 176.042 400.945 176.042C398.57 176.042 396.01 175.898 393.828 175.611L393.639 180.118C396.01 180.59 398.853 180.824 401.183 180.824C409.532 180.824 413.606 177.51 413.606 169.731L413.606 147.35C410.529 146.358 406.877 145.739 403.509 145.739C394.447 145.739 390.27 151.374 390.27 158.967C390.27 165.466 393.352 170.724 400.326 170.724C403.177 170.724 405.454 169.731 407.542 167.742L407.542 170.584ZM407.542 162.575C405.692 164.708 403.838 165.799 401.61 165.799C397.811 165.799 396.671 162.477 396.671 158.348C396.671 153.415 398.902 150.475 402.984 150.475C404.74 150.475 406.356 150.853 407.542 151.374L407.542 162.575ZM442.791 170.535L433.015 154.744L441.843 146.165H434.393C431.878 149.011 429.175 151.906 426.611 154.653L426.611 134.975H420.543L420.543 170.535H426.611L426.611 160.768L428.604 158.779L435.484 170.535H442.791ZM465.64 165.414C463.125 166.085 460.474 166.459 457.623 166.459C452.593 166.459 450.838 163.949 450.838 159.677H466.965C467.014 158.73 467.059 157.446 467.059 156.835C467.059 149.86 463.838 145.501 456.581 145.501C448.844 145.501 444.577 150.524 444.577 158.586C444.577 167.123 448.466 171.196 456.675 171.196C460.236 171.196 463.412 170.679 466.255 169.826L465.64 165.414ZM450.838 155.744C450.932 152.804 452.593 149.811 456.245 149.811C459.617 149.811 461.188 152.136 461.044 155.744H450.838ZM477.198 142.557C479.38 142.557 480.944 141.089 480.944 138.907C480.944 136.726 479.38 135.262 477.198 135.262C475.019 135.262 473.452 136.726 473.452 138.907C473.452 141.089 475.019 142.557 477.198 142.557ZM480.377 170.535L480.377 146.165H470.465V150.758H474.309L474.309 170.535H480.377ZM499.733 166.225H497.792C495.323 166.225 494.375 165.557 494.375 162.334L494.375 150.758H499.733L499.733 146.165H494.375L494.375 139.1H489.73L488.307 146.165H484.795V150.758H488.307L488.307 164.183C488.307 169.354 491.011 171.052 494.99 171.052C496.75 171.052 498.646 170.867 499.733 170.49L499.733 166.225ZM531.142 166.225H529.197C526.732 166.225 525.784 165.557 525.784 162.334L525.784 150.758H531.142L531.142 146.165L525.784 146.165L525.784 139.1H521.135L519.716 146.165H516.204V150.758H519.716L519.716 164.183C519.716 169.354 522.419 171.052 526.399 171.052C528.155 171.052 530.054 170.867 531.142 170.49V166.225ZM542.477 170.535L542.477 155.454C544.758 152.562 546.178 151.238 547.745 151.238C548.459 151.238 549.739 151.423 550.263 151.566L550.973 145.833C550.071 145.599 549.316 145.501 548.081 145.501C545.562 145.501 544.093 146.973 541.722 150.238L541.152 146.165H536.413L536.413 170.535L542.477 170.535ZM574.607 170.535L574.607 153.989C574.607 148.626 571.715 145.501 564.405 145.501C561.229 145.501 557.812 146.165 555.346 147.067L556.392 151.468C558.522 150.619 561.176 150.049 563.555 150.049C567.493 150.049 568.634 151.517 568.634 154.559L568.634 155.842H565.689C557.997 155.842 553.499 158.209 553.5 163.757C553.5 168.69 556.864 171.196 561.845 171.196C564.975 171.196 567.35 170.207 569.532 168.218L570.008 170.535H574.607ZM568.634 164.372C567.067 165.799 565.405 166.791 563.268 166.791C560.802 166.791 559.564 165.466 559.564 163.425C559.564 161.005 561.418 159.771 565.594 159.771H568.634V164.372ZM569.959 141.655C571.76 141.655 573.04 140.376 573.04 138.53C573.04 136.726 571.76 135.446 569.959 135.446C568.06 135.446 566.829 136.726 566.829 138.53C566.829 140.376 568.06 141.655 569.959 141.655ZM560.089 141.655C561.988 141.655 563.219 140.376 563.219 138.53C563.219 136.726 561.988 135.446 560.089 135.446C558.242 135.446 557.011 136.726 557.011 138.53C557.011 140.376 558.242 141.655 560.089 141.655ZM597.414 170.584C597.415 174.804 595.47 176.042 590.818 176.042C588.439 176.042 585.879 175.898 583.696 175.612L583.511 180.118C585.879 180.59 588.722 180.824 591.052 180.824C599.405 180.824 603.479 177.51 603.479 169.731L603.479 147.35C600.397 146.358 596.746 145.739 593.378 145.739C584.315 145.739 580.143 151.374 580.143 158.967C580.143 165.466 583.224 170.724 590.195 170.724C593.046 170.724 595.326 169.731 597.414 167.742V170.584ZM597.414 162.575C595.56 164.708 593.706 165.799 591.479 165.799C587.68 165.799 586.543 162.477 586.543 158.348C586.543 153.415 588.771 150.475 592.857 150.475C594.609 150.475 596.225 150.853 597.414 151.374L597.414 162.575ZM622.997 166.225H621.048C618.583 166.225 617.639 165.557 617.639 162.334L617.639 150.758H622.997V146.165H617.639V139.1H612.99L611.567 146.165L608.059 146.165L608.059 150.758H611.567L611.567 164.183C611.567 169.354 614.271 171.052 618.254 171.052C620.006 171.052 621.909 170.867 622.997 170.49V166.225Z" fill="white"/>
<path d="M598.541 20.7809L570.812 55.0079V20.7809H552.137V106.678H570.812V80.8153L580.248 69.5459L601.229 106.678H623L592.676 55.2785L621.458 20.7809L598.541 20.7809ZM506.665 36.9791C515.137 36.9791 518.381 42.938 519.608 47.9335L519.831 48.8303H538.699L538.469 47.4555C535.588 30.3123 523.657 20.0731 506.547 20.0731C497.341 20.0731 489.477 23.2712 483.174 29.5711C474.602 38.139 474.606 48.3968 474.613 62.5901V64.8654C474.606 79.0587 474.602 89.3165 483.174 97.8881C489.481 104.188 497.344 107.386 506.547 107.386C523.653 107.386 535.588 97.1469 538.469 80L538.699 78.6289H519.831L519.608 79.522C518.381 84.5174 515.137 90.4764 506.665 90.4764C502.709 90.4764 499.317 89.0793 497.092 86.526C494.237 83.3538 493.288 79.6146 493.288 63.7277C493.288 47.8409 494.237 44.1017 497.103 40.9184C499.317 38.3762 502.713 36.9791 506.665 36.9791ZM418.918 40.1468C416.045 43.3338 415.214 46.695 415.214 62.8412C415.214 78.9875 416.045 82.3487 418.904 85.5209C421.158 88.115 424.684 89.5936 428.595 89.5936C432.484 89.5936 435.881 88.152 438.157 85.5357C441.071 82.3005 441.972 78.7504 441.972 62.8412C441.972 46.9321 441.071 43.3857 438.168 40.1616L438.157 40.1468C435.881 37.5305 432.484 36.0889 428.595 36.0889C424.687 36.0889 421.161 37.5675 418.918 40.1468ZM428.595 20.0731C437.927 20.0731 445.572 23.1823 451.968 29.5674C460.651 38.2502 460.647 48.6932 460.647 63.1459V64.3096C460.647 78.7623 460.651 89.2053 451.968 97.8881C445.572 104.277 437.927 107.382 428.595 107.382C419.182 107.382 411.499 104.277 405.104 97.8881C396.532 89.3128 396.536 79.0587 396.543 64.8654V62.5901C396.536 48.3968 396.532 38.1427 405.104 29.5674C411.499 23.1823 419.182 20.0731 428.595 20.0731ZM407.929 15.385H423.316V0.00585938H407.929V15.385ZM433.875 15.385H449.261V0.00585938H433.875V15.385ZM362.306 54.9264H336.368V20.7809H317.693V106.682H336.368V71.7138H362.306V106.682H380.978V20.7809H362.306V54.9264ZM273.092 36.9791C281.564 36.9791 284.808 42.938 286.036 47.9335L286.258 48.8303H305.122L304.892 47.4555C302.015 30.3123 290.081 20.0731 272.974 20.0731C263.768 20.0731 255.904 23.2712 249.601 29.5711C241.029 38.139 241.033 48.393 241.04 62.5863V64.8691C241.033 79.0625 241.029 89.3165 249.601 97.8881C255.908 104.188 263.771 107.386 272.974 107.386C290.081 107.386 302.015 97.1469 304.892 80L305.122 78.6289H286.258L286.036 79.522C284.808 84.5174 281.564 90.4764 273.092 90.4764C269.136 90.4764 265.74 89.0793 263.519 86.526C260.664 83.3538 259.712 79.6146 259.712 63.7277C259.712 47.8409 260.664 44.1017 263.53 40.9147C265.74 38.3762 269.136 36.9791 273.092 36.9791ZM206.347 55.523C213.943 56.5755 219.067 58.6582 222.949 62.2788C227.484 66.5775 229.779 72.8256 229.779 80.8598C229.779 96.7244 216.85 107.382 197.608 107.382C183.493 107.382 174.116 103.98 166.245 96.0018L165.426 95.168L177.653 82.9536L178.484 83.7837C182.992 88.2863 189.325 90.4764 197.845 90.4764C204.055 90.4764 211.459 88.894 211.459 81.3304C211.459 78.6326 210.696 76.498 209.253 75.1528C207.941 73.9373 206.417 73.1146 202.483 72.5217L192.399 71.1135C184.954 70.0165 179.444 67.6485 175.54 63.8723C171.265 59.5995 169.196 53.9555 169.196 46.5957C169.196 30.7348 181.368 20.0731 199.487 20.0731C211.526 20.0731 220.105 23.1786 227.309 30.1455L228.173 30.9831L216.172 42.8417L215.345 42.0487C210.34 37.2681 204.285 36.627 199.02 36.627C191.779 36.627 187.282 40.2217 187.282 46.0102C187.282 47.1924 187.556 49.4381 189.373 51.1353C190.982 52.6251 193.574 53.7109 196.481 54.1148L206.347 55.523Z" fill="white"/>
<path d="M0 0V90.4112H90.2785V67.1512L23.7839 67.1475L23.6191 23.5492L124.601 23.5456V0H0Z" fill="white"/>
<path d="M34.1686 34.0547L34.2565 56.641H100.791V100.92H0V124.543H124.601V34.0547H34.1686Z" fill="white"/>
</g>
<defs>
<clipPath id="clip0_6050_123">
<rect width="623" height="192" fill="white"/>
</clipPath>
</defs>
</svg>
